/* XPM */
static char *Sign_2_resized[] = {
/* columns rows colors chars-per-pixel */
"50 53 101 2 ",
"   c None",
".  c #6B4327",
"X  c #6C4428",
"o  c #704729",
"O  c #72482A",
"+  c #7A4D2E",
"@  c #7F502F",
"#  c #80512F",
"$  c #835330",
"%  c #895732",
"&  c #8D5934",
"*  c #945E36",
"=  c #985F35",
"-  c #976037",
";  c #996137",
":  c #96633A",
">  c #9D6439",
",  c #A1673A",
"<  c #A56A3B",
"1  c #AB6E3D",
"2  c #AE703E",
"3  c #B0713F",
"4  c #926442",
"5  c #9B6941",
"6  c #956A49",
"7  c #9B6E49",
"8  c #8D6C54",
"9  c #9F7554",
"0  c #927158",
"q  c #9A7659",
"w  c #9B7A5E",
"e  c #A56D40",
"r  c #AB7042",
"t  c #A4724B",
"y  c #B27341",
"u  c #B87745",
"i  c #B97846",
"p  c #BE7C4A",
"a  c #A57753",
"s  c #A67C5B",
"d  c #9F7E62",
"f  c #967D6A",
"g  c #C07E4B",
"h  c #B8865D",
"j  c #9F8977",
"k  c #9B8A7C",
"l  c #A0856E",
"z  c #AA896D",
"x  c #BD8D65",
"c  c #A08874",
"v  c #A28D7B",
"b  c #A3907F",
"n  c #C8956E",
"m  c #D1A27E",
"M  c #9E948C",
"N  c #A89382",
"B  c #A3988E",
"V  c #A39C96",
"C  c #A19E9A",
"Z  c #A3A4A3",
"A  c #A7A9A9",
"S  c #A9ABAB",
"D  c #B8AFA5",
"F  c #A7AEB2",
"G  c #ABB1B5",
"H  c #AAB3B8",
"J  c #AEB8BF",
"K  c #C0A590",
"L  c #B1BFC9",
"P  c #B2C1CA",
"I  c #B5C6D2",
"U  c #B6CCDB",
"Y  c #B9CFDD",
"T  c #BAD3E4",
"R  c #BFDAEC",
"E  c #C1C6C7",
"W  c #C5D3D9",
"Q  c #E6DFDA",
"!  c #E7E2DD",
"~  c #CADCE6",
"^  c #CBDEE8",
"/  c #C2DEF1",
"(  c #D4E0E6",
")  c #D4E5EE",
"_  c #C5E2F5",
"`  c #C7E6FA",
"'  c #C8E7F9",
"]  c #CCEBFD",
"[  c #D7EBF5",
"{  c #D1EEFE",
"}  c #D5F1FF",
"|  c #DDF4FF",
" . c #E5EBED",
".. c #EFECE9",
"X. c #E3F5FF",
"o. c #E9F7FF",
"O. c #EDF8FF",
"+. c #F4F5F5",
"@. c #F6F7F9",
"#. c #F5FAFF",
"$. c #F8FCFE",
/* pixels */
"                            $.$.$.$.                                                                ",
"                          $.#.#.$.#.$.                                                              ",
"                        $.$.O.X.o.o.o.                                                              ",
"                        o.| ) W ^ ~ [  .                                                            ",
"                        ( D z t s a N E                                                             ",
"                        K 3 1 3 1 1 ; 6                                                             ",
"                        g i 3 1 2 1 > -                                                             ",
"                        g i 2 2 2 2 ; -                                                             ",
"                        p i 2 3 3 1 > *               $.$.$.$.                                      ",
"                        p u 1 1 1 1 ; *           $.$.#.#.#.$.$.$.                                  ",
"          #.#.$.#.#.    m n x x x h a t         $.#.#.#.#.#.#.#.#.$.$.                              ",
"    $.$.$.$.$.$.$.$.$.$.@.$.@.+.....! Q @.$.$.$.$.#.#.#.#.#.#.#.#.#.$.$.$.                          ",
"  $.#.#.#.#.O.o.o.#.#.#.#.#.#.#.$.$.$.$.$.#.#.#.#.#.#.#.#.#.#.#.#.o.o.#.#.$.                        ",
"O.$.#.$.#.X.} } } o.#.#.#.#.#.#.$.O.o.X.| } } X.X.#.#.#.#.#.#.O.| } } | O.$.$.#.                    ",
"X.$.#.#.| } } { ] } | o.o.O.o.o.| } } } } } } } { | o.#.#.$.#.| } ] ] { | #.$.$.$.                  ",
"[ O.O.| { { _ I P U R ] ] { { { ] ] _ _ / T T / ' ] { { } X.| ] Y S S Y ] | O.#.$.$.                ",
"_ | | ] ] Y M 7 5 7 c V G P L J S V B b l w d v B Z P T R / R H q > ; 0 H ` } o.#.#.$.$.            ",
"  _ ' T Z 8 & - ; ; ; ; > 7 t t e < 1 2 y y y y 3 r t a d k f 4 - * ; * 4 C R } } o.X.o.            ",
"  F M q > , 1 < 1 1 1 1 1 1 1 2 2 3 y 3 y y y y y y y 1 < < < < 1 1 1 1 1 > j H T _ ` ] _           ",
"    * 1 2 2 2 2 2 2 2 2 2 2 2 2 2 2 2 2 2 2 2 2 3 3 2 2 2 2 2 3 2 2 2 2 2 2 1 > w j k M k 6 *       ",
"    ; 1 2 2 2 2 2 2 2 2 2 2 2 2 2 2 2 2 2 2 2 2 1 2 3 3 3 3 3 3 2 2 2 2 3 3 2 2 1 < < < < , ; *     ",
"    ; 1 2 2 2 2 2 2 2 2 2 2 1 2 2 2 2 2 2 2 2 2 3 3 3 3 3 y y y u u i i u y 3 2 2 3 2 2 2 1 > * *   ",
"    ; 1 y 3 y y 3 y 3 3 y 3 3 3 3 3 2 2 2 2 2 2 3 1 3 1 1 2 3 3 3 3 y y y 2 2 2 2 2 2 1 < ; * *     ",
"    ; 1 y y y y y y y y y y y r 3 y 3 3 3 2 2 2 1 3 1 3 3 2 2 3 2 2 1 2 2 2 2 3 2 2 1 > = *         ",
"    ; < 1 e 1 1 2 2 1 2 2 2 2 2 2 1 2 2 2 2 2 2 3 2 3 3 3 3 2 2 1 3 2 2 < < < < < , * *             ",
"    * * * ; ; > , , 1 1 2 2 2 2 2 2 2 2 2 2 2 2 3 3 3 3 3 3 3 3 3 2 2 1 1 > ; * * *                 ",
"    ; > , < 1 1 2 2 2 2 2 2 2 2 2 2 2 2 2 2 2 2 2 3 3 3 y y u i i u y r 1 < * * *                   ",
"    ; 1 3 2 1 r 1 2 2 2 2 1 2 2 1 2 2 2 1 2 1 2 1 2 2 1 3 2 2 3 3 1 3 1 > * *                       ",
"    * > > > > > > > > > > > > > > > > > > > > > > > > > , , 1 2 2 1 , - *                           ",
"    * * * * * * * * * * > , > ; > > - * * * * * * * * * * * < 1 , ; *                               ",
"                        i i 1 > 1 2 ; -                   - , ; * *                                 ",
"                        y i 1 ; 1 1 ; -                   * * *                                     ",
"                        y u < ; 1 , * -                   *                                         ",
"                        3 y , * 1 > & *                                                             ",
"                        2 y > * < ; % *                                                             ",
"                        3 r ; * > * % &                                                             ",
"                        2 1 * * * * $ @                                                             ",
"                        3 < * * * * $ $                                                             ",
"                        y < * * * * $ @                                                             ",
"                        2 < * * * * $ $                                                             ",
"                        3 , & * * & $ $                                                             ",
"                        3 , $ * & $ $ @                                                             ",
"                        3 > $ * & @ @ @                                                             ",
"                        1 > + & % + + @                                                             ",
"                        < ; + % % + o +                                                             ",
"                        ; ; + $ $ + X O                                                             ",
"                        ; * + + @ + . X                                                             ",
"                        * & + + + + X .                                                             ",
"                        * & + + + + . .                                                             ",
"                        * & + + + + . .                                                             ",
"                        ; & + + + + . .                                                             ",
"                        * & + + + + . .                                                             ",
"                        ; * @ $ @ $ O X                                                             "
};
