/* XPM */
static char *snow_106_resized[] = {
/* columns rows colors chars-per-pixel */
"50 50 214 2 ",
"   c None",
".  c #828D8C",
"X  c #828E8C",
"o  c #838E8C",
"O  c #838E8D",
"+  c #848F8E",
"@  c #85908F",
"#  c #869090",
"$  c #869190",
"%  c #869191",
"&  c #879191",
"*  c #879291",
"=  c #879292",
"-  c #889392",
";  c #899493",
":  c #899494",
">  c #8A9494",
",  c #8A9594",
"<  c #8B9695",
"1  c #8B9696",
"2  c #8C9696",
"3  c #8C9796",
"4  c #8C9797",
"5  c #8D9797",
"6  c #8D9897",
"7  c #8E9999",
"8  c #8F9999",
"9  c #8F9A99",
"0  c #8F9A9A",
"q  c #909B9A",
"w  c #919B9B",
"e  c #919C9C",
"r  c #929C9C",
"t  c #939E9E",
"y  c #949F9E",
"u  c #949F9F",
"i  c #959F9F",
"p  c #95A0A0",
"a  c #96A1A1",
"s  c #97A2A2",
"d  c #98A2A2",
"f  c #98A3A3",
"g  c #99A3A3",
"h  c #99A4A4",
"j  c #9AA4A4",
"k  c #9AA5A5",
"l  c #9BA5A5",
"z  c #9CA6A6",
"x  c #9CA6A7",
"c  c #9DA7A7",
"v  c #9DA7A8",
"b  c #99A8A8",
"n  c #9DA8A8",
"m  c #9EA9A9",
"M  c #9FA9AA",
"N  c #A0AAAA",
"B  c #A0AAAB",
"V  c #A0ABAB",
"C  c #A1ABAC",
"Z  c #A1ACAC",
"A  c #A2ACAC",
"S  c #A2ACAD",
"D  c #A3ADAE",
"F  c #A3AEAE",
"G  c #A4AEAF",
"H  c #A4AFAF",
"J  c #A5AFAF",
"K  c #A5AFB0",
"L  c #A6B0B1",
"P  c #A7B1B2",
"I  c #A8B2B2",
"U  c #A8B2B3",
"Y  c #A9B3B4",
"T  c #AAB4B4",
"R  c #AAB4B5",
"E  c #ABB5B6",
"W  c #ABB6B7",
"Q  c #ACB6B7",
"!  c #ADB6B7",
"~  c #ACB6B8",
"^  c #ACB7B8",
"/  c #ADB7B8",
"(  c #ADB7B9",
")  c #AEB7B8",
"_  c #AEB7B9",
"`  c #ADB8B9",
"'  c #AEB8B8",
"]  c #AEB8B9",
"[  c #AEB9BA",
"{  c #AFB9BA",
"}  c #B1BAB9",
"|  c #B0B9BA",
" . c #B1BABB",
".. c #B3BBBA",
"X. c #B6BDBB",
"o. c #B0BBBC",
"O. c #B0BCBD",
"+. c #B1BDBE",
"@. c #B2BEBF",
"#. c #B6BFBF",
"$. c #B8BEBC",
"%. c #B8BFBC",
"&. c #B9BFBC",
"*. c #BAC0BD",
"=. c #BBC1BD",
"-. c #BDC2BE",
";. c #BEC3BE",
":. c #BFC3BF",
">. c #C1C5BF",
",. c #B3BFC0",
"<. c #B2C1C2",
"1. c #B6C3C4",
"2. c #B6C3C5",
"3. c #B7C5C6",
"4. c #B9C2C1",
"5. c #B8C6C7",
"6. c #B8C6C8",
"7. c #BAC9CA",
"8. c #BBCBCC",
"9. c #BFCACC",
"0. c #BDCDCF",
"q. c #BDCECF",
"w. c #BECED0",
"e. c #BFCFD1",
"r. c #C1C5C0",
"t. c #C2C5C0",
"y. c #C4C6C0",
"u. c #C4C7C1",
"i. c #C6C8C1",
"p. c #C6C8C2",
"a. c #C9CAC2",
"s. c #C9CAC3",
"d. c #C9CBC3",
"f. c #CACBC3",
"g. c #CBCBC3",
"h. c #CBCCC3",
"j. c #CECEC5",
"k. c #CFCEC5",
"l. c #C2CACB",
"z. c #C5CECF",
"x. c #D0CEC5",
"c. c #D2D0C6",
"v. c #D3D1C6",
"b. c #D4D2C7",
"n. c #D5D2C7",
"m. c #DCD7C9",
"M. c #DCD7CA",
"N. c #C1D3D5",
"B. c #C5D9DB",
"V. c #C5DBDC",
"C. c #C6DADC",
"Z. c #CCDBDC",
"A. c #E1DACB",
"S. c #E4DCCC",
"D. c #E5DDCD",
"F. c #E8DFCE",
"G. c #E7E7DA",
"H. c #C9DEE0",
"J. c #CCE2E4",
"K. c #CDE5E6",
"L. c #CFE6E8",
"P. c #CFE7E9",
"I. c #D0E8EA",
"U. c #D1E9EB",
"Y. c #D1EAEB",
"T. c #D7ECEA",
"R. c #D2EBED",
"E. c #D2ECEE",
"W. c #D3EDEF",
"Q. c #D4ECED",
"!. c #D5ECED",
"~. c #D4EDEF",
"^. c #D5EDEF",
"/. c #D4EEEF",
"(. c #D4EEF0",
"). c #D4EFF1",
"_. c #D5EFF1",
"`. c #D6EFF1",
"'. c #D5F0F2",
"]. c #D6F0F2",
"[. c #D6F1F3",
"{. c #D7F1F3",
"}. c #D7F2F4",
"|. c #D7F3F5",
" X c #D8F2F4",
".X c #D9F2F4",
"XX c #D8F3F5",
"oX c #D9F3F5",
"OX c #DAF2F4",
"+X c #DBF3F5",
"@X c #DCF3F5",
"#X c #DDF3F5",
"$X c #DEF3F5",
"%X c #DFF3F5",
"&X c #DFF4F6",
"*X c #E0F4F6",
"=X c #E1F4F6",
"-X c #E3F4F6",
";X c #E5F4F6",
":X c #E7F5F7",
">X c #E8F5F7",
",X c #EBF5F7",
"<X c #ECF5F7",
"1X c #EDF6F8",
"2X c #EEF6F8",
"3X c #EFF6F8",
"4X c #F0F6F8",
"5X c #F1F6F8",
"6X c #F2F6F8",
"7X c #F2F7F9",
"8X c #F3F7F9",
"9X c #F4F7F9",
"0X c #F5F7F9",
"qX c #F6F7F9",
/* pixels */
"                                                                                                    ",
"                                                                                                    ",
"                                                                                                    ",
"                                                                                                    ",
"                                                                                                    ",
"                                                                                                    ",
"                                                                                                    ",
"                                                                                                    ",
"                                                                                                    ",
"                                                                                                    ",
"                                                                                                    ",
"                                                                                                    ",
"                                                                                                    ",
"                                                                                                    ",
"                                                                                                    ",
"                                                                                                    ",
"                                                                                                    ",
"                                                                                                    ",
"                                                                                                    ",
"                                                                                                    ",
"                                                                                                    ",
"                                                                                                    ",
"                                                                                                    ",
"                                                                                                    ",
"                                              0X0X0X0X0X0X0X0X                                      ",
"                                          0X0X0X0X0X0X0X0X0X0X0X                                    ",
"                                      0X0X0X0X0X0X0X0X0X0X0X0X0X0X                                  ",
"                                  0X0X0X0X0X0X0X0X0X0X0X0X0X0X0X0X0X                                ",
"                              0X0X0X0X0X0X0X0X0X0X0X0X0X0X0X0X0X0X0X0X                              ",
"                          0X0X0X0X0X0X0X0X0XqXqX0X0X0X0X0X0X0X0XqXqXqX0X                            ",
"                      0X0X0X0X0X0X0X0X0X0X8X2X1X5X0X0X0X0X0X0X0X4X1X3X9X0X                          ",
"                    %X4X0X0X0X0X0X0X0X0X2X$X X X+X>X9XqXqXqX8X;XOX X.X=X4X0X                        ",
"                  |.}.=X9X0X0X0X0X0X0X6X#X}.|.|.}. X-X1X3X,X*X}.}.}.}.}.=X9X0X                      ",
"                V.Y.[.oX<XqX0X0X0X0X0X:X|.'.U.P.~.}.}. X.X X}.}.`.!.^.{.oX<XqX0X                    ",
"                Z @.e.R.&X6XqX0X0XqX3X@XI.8.+.O.2.H.{.|.|.XX'.C.9.l.z.Z./.&X6XqX0X                  ",
"              > H / ! q.].*X2X7X6X<X$XW.6.Q ^ ^ ! o.N.L.R.K.w.[ ^ ) {  .e.].*X2X7X5X                ",
"              6 R / / o.J.|..X@X@X X|.B.` / / / / / / O.,.o./ / / / / ! o.J.|..X@X@X                ",
"            . 4 E / / ! 7.(.|.}.}.|.Q.1.Q ~ ^ / / / / / ^ / / / / / / / ! 7.(.|.}.}.                ",
"            O % A ] ) / ` 0.I._.).T.G.A.c.y.$.} ) ~ ~ ~ ~ ~ ~ ~ ~ ~ ^ ^ ^ ` 0.I._.E.                ",
"            O O ; x I Q ) ] @.5.3.#.t.x.M.D.F.S.m.b.k.h.g.f.f.d.s.p.u.r.:.-.*.4.<.b                 ",
"          O O O o + ; w d M K Y Q / ^ ^ ' } &.>.a.k.c.n.v.j.f.i.r.;.=.%.X...| ' z O                 ",
"          O O O O O o X o + & 1 r h V K Y Q ~ ^ ^ ^ / / / / / / ^ ~ Q Q W U A a * O                 ",
"          O O O O O O O O O O o . O + & , 8 i k N G J D C M v l g a y e 8 : + . . .                 ",
"          O O O O O O O O O O O O O O O o X X o + $ $ # @ + O o X X . . . # 2 q r                   ",
"          O O O O O O O O O O O O O O O O O O O O O O O O O O O o X + 2 f G R ! / /                 ",
"            O O O O O O O O O O o o O O O O O O O O O O O O o O - t B T / _ / / / / )               ",
"            O O O O O O o O + % ; ; $ O O O O O O O O O O O ; h P ^ ] ) / / / / ] R c A             ",
"              O O O O O 3 j Z K I U F p = O O O O O O O o - F ( ] / / ) ( ] ] Q S 0 , C             ",
"                O O + u U ] ] ] ] / S e 7 - O O O O O O X 4 T ! R T T U H m d q $ + s               ",
"                    j E ) R L A n s ; . + < $ O O O O O O @ e h y 9 5 < % + o . o 6                 "
};
