/* XPM */
static char *snow_108_resized[] = {
/* columns rows colors chars-per-pixel */
"50 75 142 2 ",
"   c None",
".  c #3F3628",
"X  c #3C3C29",
"o  c #442F27",
"O  c #462F28",
"+  c #482F29",
"@  c #413227",
"#  c #403428",
"$  c #4C342C",
"%  c #433C2B",
"&  c #51372E",
"*  c #51382F",
"=  c #543A30",
"-  c #5A3D33",
";  c #39422A",
":  c #36482C",
">  c #3A492D",
",  c #2F552F",
"<  c #2E5930",
"1  c #1F7133",
"2  c #296633",
"3  c #246D34",
"4  c #286B35",
"5  c #227335",
"6  c #257639",
"7  c #267D3C",
"8  c #297D3E",
"9  c #5E4136",
"0  c #614337",
"q  c #634438",
"w  c #2D7E41",
"e  c #337D46",
"r  c #26823E",
"t  c #28823F",
"y  c #278640",
"u  c #298541",
"i  c #2B8C45",
"p  c #2C8F48",
"a  c #348147",
"s  c #368249",
"d  c #3A844C",
"f  c #2B9147",
"g  c #2E934A",
"h  c #32954D",
"j  c #3D8650",
"k  c #359750",
"l  c #389750",
"z  c #379853",
"x  c #3B9953",
"c  c #3E9C5A",
"v  c #428753",
"b  c #438955",
"n  c #478B58",
"m  c #429C56",
"M  c #459E5A",
"N  c #489F5B",
"B  c #4CA15D",
"V  c #50A25F",
"C  c #449F60",
"Z  c #549364",
"A  c #5A9569",
"S  c #5F996E",
"D  c #60996E",
"F  c #619D74",
"G  c #689F77",
"H  c #46A163",
"J  c #49A265",
"K  c #4FA66B",
"L  c #54A462",
"P  c #5AA765",
"I  c #52A66B",
"U  c #58A86C",
"Y  c #56A972",
"T  c #5AAC76",
"R  c #5CAD78",
"E  c #60AF7D",
"W  c #72A47F",
"Q  c #7DAB89",
"!  c #66B383",
"~  c #6DB689",
"^  c #70B88C",
"/  c #75BB91",
"(  c #79BD96",
")  c #7CBF99",
"_  c #80AE8E",
"`  c #84B090",
"'  c #8AB395",
"]  c #94BA9F",
"[  c #96BBA0",
"{  c #9ABEA5",
"}  c #9DBFA8",
"|  c #80C09A",
" . c #87C5A3",
".. c #89C6A6",
"X. c #92C0A9",
"o. c #9AC0A9",
"O. c #90CAAD",
"+. c #95CDB2",
"@. c #99CFB5",
"#. c #9AD0B6",
"$. c #9ED2BB",
"%. c #A4C3AD",
"&. c #A7C9B6",
"*. c #B2CDBB",
"=. c #A6D6C2",
"-. c #ADD2C5",
";. c #A9D8C6",
":. c #ACDAC9",
">. c #B4D4C6",
",. c #BDD4C5",
"<. c #B1DCCD",
"1. c #B4DFD1",
"2. c #BDDAD0",
"3. c #B7E0D4",
"4. c #B9E1D6",
"5. c #BDE3DA",
"6. c #C8DACF",
"7. c #CADED5",
"8. c #C1E4DD",
"9. c #D0E0D7",
"0. c #D2E3DD",
"q. c #D8E5DE",
"w. c #C4E6E0",
"e. c #C6E8E3",
"r. c #C9EAE6",
"t. c #CDECEA",
"y. c #D4E6E1",
"u. c #DFE9E4",
"i. c #D2EEED",
"p. c #D3EFF0",
"a. c #D6F2F3",
"s. c #DAF3F6",
"d. c #DCF5F8",
"f. c #E3ECE8",
"g. c #E8EFED",
"h. c #E4F4F6",
"j. c #EBF4F6",
"k. c #EDF6F8",
"l. c #F1F4F5",
"z. c #F5F7F9",
"x. c #F6F8FB",
"c. c #F8F9FC",
/* pixels */
"                                                                                                    ",
"                                                                                                    ",
"                                                                                                    ",
"                                                                                                    ",
"                                                                                                    ",
"                                                                                                    ",
"                                                                                                    ",
"                                                                                                    ",
"                                                                                                    ",
"                                                z.z.                                                ",
"                                                z.x.                                                ",
"                                              x.z.z.z.                                              ",
"                                            z.z.z.z.x.z.                                            ",
"                                            z.z.x.z.z.z.                                            ",
"                                          x.z.z.z.z.x.z.z.                                          ",
"                                          x.z.z.z.z.z.z.z.                                          ",
"                                        z.z.z.z.z.z.z.z.z.z.                                        ",
"                                      z.z.z.z.z.z.z.z.z.z.c.z.                                      ",
"                                      z.z.z.z.z.z.z.z.z.z.z.z.                                      ",
"                                    z.z.z.z.z.z.z.z.z.z.z.z.z.z.                                    ",
"                                  z.x.z.z.z.c.z.z.z.z.z.z.z.z.z.x.                                  ",
"                                  z.z.z.z.z.z.z.z.x.x.z.z.z.z.z.x.                                  ",
"                                x.z.z.z.z.z.z.z.l.k.h.j.x.z.z.z.z.z.                                ",
"                                x.z.z.z.z.z.z.k.d.a.a.a.h.k.z.x.x.z.                                ",
"                              z.z.z.z.z.z.z.l.d.a.d.s.a.a.d.h.j.k.h.a.                              ",
"                            d.k.z.z.x.z.z.z.j.d.t.1.;.4.a.s.a.a.a.a.a.r.                            ",
"                            e.h.z.z.z.z.z.l.d.5.! z k c ( r.s.s.a.a.<.Y                             ",
"                          g ) a.h.k.l.z.k.d.t.R f g g f g E =.4.1...U l h                           ",
"                        g g c 3.a.a.a.d.s.a.@.h g g g g g g z c x h l N h g                         ",
"                        g g g ^ a.a.a.a.a.r.Y g g g g g g g g g g g g N x h                         ",
"                      g g g g k ) 8.a.i.3.! g g g g g g g g g g g g g h B h g                       ",
"                      g g g g g g H R T M g g g g g g g g g g g g g g g m N g                       ",
"                    g g g g g g g f f f g g g g g g g g g g g g k h h g h B x g                     ",
"                  g g g g g g g g g g g g g g g g g g g g g g h h x m N N B V h g                   ",
"                  g g g p i 7 y p f g g g g g g g i r t 8 8 r r i p g h x x x h g                   ",
"                u u 7 6 5 v W D j w 7 y p g i y t d D { ,.%.` F n a 8 7 r r r t u p                 ",
"                5 5       i.j.j.y.>.' D j w j F { 7.j.x.c.c.c.l.f.7.*.{ _ e 5 5 5 5                 ",
"                          s.a.h.l.c.z.l.0.-.4.a.s.d.h.l.z.z.z.z.z.x.x.x.h.                          ",
"                        s.s.s.a.h.h.j.h.d.d.d.s.d.d.d.k.z.z.z.z.z.z.z.h.a.d.                        ",
"                      =.+.+.1.a.a.a.a.p.a.a.:.O.@.5.a.h.z.z.z.z.z.c.l.a.a.<.)                       ",
"                      c g g c ..i.s.s.s.r.) z g h J $.a.j.x.x.x.z.l.h.r./ P h                       ",
"                    g g g g g k ! $.:.@.R g g g g f H 3.d.h.k.l.k.h.a. .g m B h                     ",
"                  g g g g g g g f h k g g g g g g g f / a.a.a.a.a.a.5.J g h V x g                   ",
"                  g g g g g g g g g f g g g g g g g g c ;.d.a.a.s.a.) g g h x V h                   ",
"                g g g g g g g g g g g g g g g g g g g g J #.w.r.3.| M h h g g B N g                 ",
"                g g g g g g g g g g g g g g g g g g g g g h H K c g h c N N N V P k                 ",
"              g g g g g g h g g g g g i y y p g g g g g g g g f g g g g g x m m m x g               ",
"            g g g g g g g f y y r w u j Z Z a w y p g g g g g g g i y 7 8 8 r u i i g g             ",
"            u 7 7 7 7 7 8 a n A Q } ,.q.g.g.7.] D s 8 t i i r 7 8 n W ] *.o.A 1 5 6 7 t             ",
"            5 5       &.>.2.q.j.x.c.c.c.x.z.c.c.j.9.} F j b G [ 6.q.j.c.c.x.h.                      ",
"                      d.d.d.a.h.l.x.z.z.z.z.z.z.z.k.d.i.8.8.s.x.z.z.z.l.h.d.a.                      ",
"                    d.a.a.d.a.a.h.z.z.z.z.z.z.z.k.a.a.d.d.a.s.d.j.k.j.d.s.a.a.d.                    ",
"                  a.a.e.;.;.4.a.a.l.x.x.x.l.x.x.h.a.e.;.;.5.a.a.a.a.a.a.a.w.<.;.4.                  ",
"                  s.:.T k h C  .p.h.z.x.x.x.x.j.d.;.Y k g C ..p.a.d.a.a.+.I P c H                   ",
"                ;. .C f g g f k +.s.h.k.l.z.h.s.4.J f g g g k ~ ;.1.:./ k g B B g g                 ",
"              k x g f g g g g f K e.s.a.s.s.a.s.) g g g g g g f k c k g g g h L m g g               ",
"              g g g g g g g h g g ..a.s.s.a.s.<.M g g g g g g g g g g g g g g m L h h               ",
"            g g g g g g g g g g f c ..e.p.t.;.K f g g g g g g g g g g g g g g g B B g g             ",
"            g g g g g g g g g g g f k J T K z g g g g g g g g g h x x x h h g g x P x g             ",
"          g g g g g g g g g g g g g g f f f g g g g g g i p p g g h l m B B B M B P L h g           ",
"        g g g g p i y w u u i p f g g g g g g g g p y 7 4 2 3 6 7 t u p g h m N N B N k g g         ",
"        u u 7 7 5 5 5     5 5 7 w u p f g p i u 7 4 < > % . X     5 5 6 6 7 7 7 r t u u i i         ",
"        5 5                       3 2 6 7 6 2 < ; # o $ - $ $                   5 5 5 5 5 5         ",
"                                    . X > ; # o $ + $ = 0 $ $                                       ",
"                                    $ o $ o $ $ $ $ $ = 0 & $                                       ",
"                                    $ $ $ $ $ $ $ $ $ * 0 * $                                       ",
"                                  $ $ $ $ $ $ $ $ $ $ * 0 = $                                       ",
"                                  $ $ $ $ $ $ $ $ $ $ $ 0 - $ $                                     ",
"                                  $ $ $ $ $ $ $ $ $ $ = q - $ $                                     ",
"                                  $ $ $ $ $ $ $ $ $ $ $ 0 - $ $                                     ",
"                                  $ $ $ $ $ $ $ $ $ $ $ 9 9 $ $                                     ",
"                                  $ $ $ $ $ $ $ $ $ $ $ 9 9 $ $                                     ",
"                                $ $ $ $ $ $ $ $ $ $ $ $ 9 9 $ $                                     ",
"                                $ $ $ $ $ $ $ $ $ $ $ $ 9 q & $                                     ",
"                                $ $ $ $ $ $ $ $ $ $ $ $ - q = $ $                                   "
};
