/* XPM */
static char *snow_101_resized[] = {
/* columns rows colors chars-per-pixel */
"50 50 197 2 ",
"   c None",
".  c #2A9147",
"X  c #2B9147",
"o  c #2B9248",
"O  c #2C9248",
"+  c #2C9249",
"@  c #2D9249",
"#  c #2D9349",
"$  c #2E934A",
"%  c #2F934B",
"&  c #2F944B",
"*  c #30944B",
"=  c #30944C",
"-  c #31954D",
";  c #32954D",
":  c #32954E",
">  c #32964E",
",  c #33964F",
"<  c #349650",
"1  c #359751",
"2  c #369751",
"3  c #379752",
"4  c #389853",
"5  c #3A9955",
"6  c #3A9A56",
"7  c #3A9A57",
"8  c #3B9A57",
"9  c #3C9A56",
"0  c #3C9B58",
"q  c #3D9C5A",
"w  c #3E9C5A",
"e  c #3F9C5A",
"r  c #409C5B",
"t  c #429D5B",
"y  c #409D5C",
"u  c #429D5C",
"i  c #439E5D",
"p  c #429E5E",
"a  c #449E5D",
"s  c #45A061",
"d  c #47A162",
"f  c #47A164",
"g  c #49A162",
"h  c #48A264",
"j  c #4BA264",
"k  c #4AA366",
"l  c #4AA367",
"z  c #4CA264",
"x  c #4FA467",
"c  c #4DA469",
"v  c #50A468",
"b  c #53A66B",
"n  c #54A66C",
"m  c #56AA73",
"M  c #57AA73",
"N  c #59A970",
"B  c #5BAB73",
"V  c #58AB74",
"C  c #59AB75",
"Z  c #59AB76",
"A  c #5BAC78",
"S  c #5CAD78",
"D  c #5DAD79",
"F  c #60AC76",
"G  c #62AD78",
"H  c #61AE79",
"J  c #63AE79",
"K  c #63AF7B",
"L  c #67AF7C",
"P  c #61B07D",
"I  c #63B17F",
"U  c #6AB17F",
"Y  c #63B180",
"T  c #64B281",
"R  c #67B281",
"E  c #65B282",
"W  c #66B383",
"Q  c #6BB281",
"!  c #69B383",
"~  c #6CB280",
"^  c #6FB483",
"/  c #69B485",
"(  c #6AB586",
")  c #6EB689",
"_  c #73B687",
"`  c #76B789",
"'  c #76B88B",
"]  c #71B98D",
"[  c #7AB98D",
"{  c #7BBA8E",
"}  c #7CBA8F",
"|  c #7DBB8F",
" . c #74BA91",
".. c #75BB92",
"X. c #76BC93",
"o. c #7EBB90",
"O. c #7EBB91",
"+. c #79BD95",
"@. c #7ABD94",
"#. c #79BD96",
"$. c #7CBF99",
"%. c #7DC09A",
"&. c #7FC09B",
"*. c #7FC19C",
"=. c #80BC92",
"-. c #83BE95",
";. c #80BE97",
":. c #82BF97",
">. c #87C099",
",. c #80C19C",
"<. c #8BC29C",
"1. c #8EC39E",
"2. c #8FC49F",
"3. c #86C4A2",
"4. c #87C5A4",
"5. c #89C6A5",
"6. c #8AC7A7",
"7. c #8BC7A7",
"8. c #8CC8A9",
"9. c #8DC8A9",
"0. c #94C6A4",
"q. c #92CBAF",
"w. c #98C8A8",
"e. c #9CCAAA",
"r. c #9DCBAB",
"t. c #9DCBAC",
"y. c #95CDB2",
"u. c #96CEB3",
"i. c #98CFB5",
"p. c #99CFB6",
"a. c #9AD0B7",
"s. c #9BD1B8",
"d. c #9CD1B9",
"f. c #A4CEB1",
"g. c #A4CFB2",
"h. c #AAD1B6",
"j. c #AAD1B7",
"k. c #A0D3BD",
"l. c #A2D4BE",
"z. c #A3D5BF",
"x. c #ACD2B9",
"c. c #AED3BA",
"v. c #B0D4BC",
"b. c #A4D5C1",
"n. c #ACDAC9",
"m. c #B4D7C0",
"M. c #B5D7C1",
"N. c #B9D9C5",
"B. c #BCDAC7",
"V. c #B3DECF",
"C. c #BDDBC8",
"Z. c #BEDBC9",
"A. c #BBE2D8",
"S. c #BFE4DC",
"D. c #C3DECD",
"F. c #C4DECE",
"G. c #C4DFCE",
"H. c #CAE2D4",
"J. c #CBE2D4",
"K. c #CEE3D6",
"L. c #D2E5DA",
"P. c #D3E6DB",
"I. c #D5E7DD",
"U. c #D7E8DE",
"Y. c #D9E9E1",
"T. c #DBEAE2",
"R. c #DFECE6",
"E. c #E0ECE6",
"W. c #E2EDE8",
"Q. c #E2EEE9",
"!. c #E4EFEA",
"~. c #E5EFEB",
"^. c #E6EFEC",
"/. c #E7F0EC",
"(. c #E7F0ED",
"). c #E8F0ED",
"_. c #EBF2F0",
"`. c #ECF2F1",
"'. c #EEF4F3",
"]. c #EFF4F4",
"[. c #F1F5F6",
"{. c #F2F6F7",
"}. c #F4F6F8",
"|. c #F4F7F8",
" X c #F4F7F9",
".X c #F5F7F9",
"XX c #F6F7FA",
"oX c #F6F8FA",
"OX c #F7F8FA",
"+X c #F7F8FB",
"@X c #F8F8FB",
"#X c #F8F8FC",
"$X c #F8F9FC",
"%X c #F9F9FC",
"&X c #F9F9FD",
"*X c #FAF9FD",
"=X c #FCFAFF",
/* pixels */
"                                                                                                    ",
"                                                                                                    ",
"                                                                                                    ",
"                                                                                                    ",
"                                                                                                    ",
"                                                                                                    ",
"                                                                                                    ",
"                                                                                                    ",
"                                                                                                    ",
"                                                                                                    ",
"                                                                                                    ",
"                                                                                                    ",
"                                                                                                    ",
"                                                                                                    ",
"                                                                                                    ",
"                                                                                                    ",
"                                                                                                    ",
"                                                                                                    ",
"                                                                                                    ",
"                                                                                                    ",
"                                                                                                    ",
"                                                                                                    ",
"                                                                                                    ",
"                                                                                                    ",
"                                                                                                    ",
"                                                                                                    ",
"                                                                                                    ",
"                                                                                                    ",
"                                                                          .X.X                      ",
"                                                                      .X.X.X                        ",
"                                                                    .X.X.X                          ",
"                                                                .X.X.X.X                            ",
"                                  $XXX.X          .X          .X.X.X.X                              ",
"                                    ).+XXX        .X        .X.X.X.X.X                              ",
"                                  . x m.'.+X.X  .X.X      .X.X.X.XXX                                ",
"                                    o 3 ` P.oXXX.X{.    .X.X.X+X}.R.      .X                        ",
"                                      $ k n c.[.oX].0.R.oXOX{.H.-.b   XX.X                          ",
"                    .X.X.X.X.X.X.X+X=X  !  .e 2.`.OX1.x.&XU.>.i J L.XX.X                            ",
"                          .X.X.X|.Y.Q.$Xt.,.#., o.~.O.~ h.K V } /.+X.XoX                            ",
"                              .XXXJ.} v.I.B s.I # ^ v ; d *.:.(.&X X].                              ",
"                                  +XZ.g | J M z.y O # < 5.@.M.F.r.=.Q 6 * ,                         ",
"                                     X<.% 2 & 4.$.@ O ( 7.u z r V ..) ' g.K.!.                      ",
"                                      Z.4 @ + l k.w 0 u.h # C y.9.;.N._.@X+XXX.X.X.X                ",
"                              W.C.w.{ F - X + & 8.T E %.1 &.l.P [ T.#XXX.X.X.X.X.X.X.X              ",
"                          ^.f.L a s m W ] / f @ Y 6.5.A 7.p.p t h.I.E.                              ",
"                                      H R +.d.3.S b.i.9.q.8 O $ 2 a 9                               ",
"                                        j # q X.a.A.S.9.7 O ; G e.B.D.D.I.                          ",
"                                      # @ % % X c n.V.p O = _ E.*X*X%X$XXX.X                        ",
"                                  $ $       0.U X Z D O & N               .X.X                      ",
"                                              G.5 > : + u j.                                        "
};
