/* XPM */
static char *snow_104_resized[] = {
/* columns rows colors chars-per-pixel */
"50 50 237 2 ",
"   c None",
".  c #828C8B",
"X  c #828D8C",
"o  c #838E8D",
"O  c #848F8E",
"+  c #85908F",
"@  c #869190",
"#  c #879291",
"$  c #889392",
"%  c #899393",
"&  c #899493",
"*  c #899494",
"=  c #8A9494",
"-  c #8A9594",
";  c #8B9695",
":  c #8B9696",
">  c #8C9696",
",  c #8C9796",
"<  c #8C9797",
"1  c #8E9898",
"2  c #8E9999",
"3  c #8F9999",
"4  c #8F9A99",
"5  c #8F9A9A",
"6  c #909A9A",
"7  c #909B9A",
"8  c #909B9B",
"9  c #919C9C",
"0  c #949F9E",
"q  c #959F9F",
"w  c #95A09F",
"e  c #96A1A1",
"r  c #97A1A1",
"t  c #97A2A2",
"y  c #99A3A3",
"u  c #9AA4A4",
"i  c #9AA5A5",
"p  c #9BA5A6",
"a  c #9BA6A6",
"s  c #9DA7A7",
"d  c #9DA7A8",
"f  c #9DA8A8",
"g  c #9EA8A8",
"h  c #9FA9A9",
"j  c #9EAAAA",
"k  c #A1ABAB",
"l  c #A1ABAC",
"z  c #A2ADAD",
"x  c #A3ADAD",
"c  c #A3ADAE",
"v  c #A3AEAE",
"b  c #A4AEAE",
"n  c #A5AFAF",
"m  c #A3B2B3",
"M  c #A6B0B0",
"N  c #A6B0B1",
"B  c #A7B1B1",
"V  c #A7B1B2",
"C  c #A8B2B2",
"Z  c #A8B2B3",
"A  c #A9B3B3",
"S  c #A9B3B4",
"D  c #AAB4B5",
"F  c #ABB5B6",
"G  c #ACB6B7",
"H  c #ADB6B7",
"J  c #ACB6B8",
"K  c #ACB7B8",
"L  c #ADB7B8",
"P  c #ADB7B9",
"I  c #AEB7B8",
"U  c #AEB8B9",
"Y  c #AFB8B9",
"T  c #AEB9BA",
"R  c #AFB9BA",
"E  c #AFBABB",
"W  c #ABBCBD",
"Q  c #AEBEBF",
"!  c #B0B9B9",
"~  c #B1BAB9",
"^  c #B3BBBA",
"/  c #B4BBBA",
"(  c #B4BCBA",
")  c #B4BCBB",
"_  c #B5BCBB",
"`  c #B3BCBD",
"'  c #B2BEBF",
"]  c #B7BEBC",
"[  c #B9BFBC",
"{  c #B9BFBD",
"}  c #BAC0BD",
"|  c #BBC0BD",
" . c #BBC1BD",
".. c #BEC3BE",
"X. c #BFC3BE",
"o. c #BFC3BF",
"O. c #B2BEC0",
"+. c #B3BFC0",
"@. c #AFC0C0",
"#. c #B3C0C1",
"$. c #B5C0C0",
"%. c #B5C0C1",
"&. c #B7C0C1",
"*. c #B4C1C2",
"=. c #B7C5C6",
"-. c #B8C1C2",
";. c #B8C6C7",
":. c #BDC5C6",
">. c #BEC8C6",
",. c #B8C7C8",
"<. c #B9C7C8",
"1. c #B9C8CA",
"2. c #B9C9CA",
"3. c #BAC9CB",
"4. c #BDCDCF",
"5. c #BDCED0",
"6. c #BECFD1",
"7. c #BBD1D2",
"8. c #C1C5C0",
"9. c #C2C6C0",
"0. c #C7C9C2",
"q. c #C8C9C2",
"w. c #C9CAC2",
"e. c #CBCCC3",
"r. c #CCCCC3",
"t. c #CECEC4",
"y. c #C3CBCA",
"u. c #C6CDCE",
"i. c #C5CECF",
"p. c #D0CFC5",
"a. c #D3D1C7",
"s. c #D6D3C7",
"d. c #DCD7CA",
"f. c #DFD9CB",
"g. c #C9CFD0",
"h. c #C0D2D3",
"j. c #C6D1D2",
"k. c #C4D3D5",
"l. c #C2D5D7",
"z. c #C2D6D7",
"x. c #CAD0D0",
"c. c #CBD2D3",
"v. c #C3D7D8",
"b. c #C5D9DB",
"n. c #C6DBDC",
"m. c #C7DBDD",
"M. c #CCD8D9",
"N. c #CDDADB",
"B. c #CFDDDB",
"V. c #D0D3D0",
"C. c #E2DBCC",
"Z. c #E3DCCC",
"A. c #E6DDCD",
"S. c #E8DFCE",
"D. c #E9DFCE",
"F. c #E9E0CE",
"G. c #E5E2D7",
"H. c #EFE4D1",
"J. c #E9E3D7",
"K. c #E1E3DD",
"L. c #F1E8D6",
"P. c #CAE0E2",
"I. c #CBE1E2",
"U. c #CDE3E5",
"Y. c #CEE7E9",
"T. c #CFE7E9",
"R. c #CFE8EA",
"E. c #D0E1E3",
"W. c #D3E2E3",
"Q. c #D2E4E5",
"!. c #D1E7E9",
"~. c #D3E7E9",
"^. c #D6E7E9",
"/. c #D0E8EA",
"(. c #D1EAEC",
"). c #D3EBED",
"_. c #D4EAEC",
"`. c #D3ECEE",
"'. c #D4EDEF",
"]. c #DCEDEA",
"[. c #DBECEE",
"{. c #DCF0EF",
"}. c #D4EEF0",
"|. c #D5EFF1",
" X c #D5F0F2",
".X c #D6F0F2",
"XX c #D6F1F3",
"oX c #D7F1F3",
"OX c #D7F1F4",
"+X c #D6F2F4",
"@X c #D7F2F4",
"#X c #D7F3F4",
"$X c #D7F3F5",
"%X c #D8F0F0",
"&X c #D9F2F3",
"*X c #DDF2F1",
"=X c #D8F2F4",
"-X c #D9F2F4",
";X c #D8F2F5",
":X c #D8F3F5",
">X c #D9F3F5",
",X c #DAF2F4",
"<X c #DBF3F5",
"1X c #DCF3F5",
"2X c #DDF3F5",
"3X c #DEF3F5",
"4X c #D9F4F6",
"5X c #DEF4F6",
"6X c #DFF4F6",
"7X c #F1EFE3",
"8X c #E1F2F4",
"9X c #E0F4F6",
"0X c #E1F4F6",
"qX c #E1F4F7",
"wX c #E2F4F6",
"eX c #E3F4F6",
"rX c #E3F5F7",
"tX c #E4F4F6",
"yX c #E5F4F6",
"uX c #E6F4F6",
"iX c #E8F5F7",
"pX c #EAF5F7",
"aX c #EBF5F7",
"sX c #ECF5F7",
"dX c #EDF6F8",
"fX c #EEF6F8",
"gX c #EFF6F8",
"hX c #F0F6F8",
"jX c #F1F6F8",
"kX c #F0F7F9",
"lX c #F2F6F8",
"zX c #F3F6F8",
"xX c #F2F7F9",
"cX c #F3F7F9",
"vX c #F4F7F9",
"bX c #F5F7F9",
"nX c #F4F8FA",
/* pixels */
"                                                                                                    ",
"                                                                                                    ",
"                                                                                                    ",
"                                                                                                    ",
"                                                                                                    ",
"                                                                                                    ",
"                                                                                                    ",
"                                                                                                    ",
"                                                                                                    ",
"                                                                                                    ",
"                                                                                                    ",
"                                                                                                    ",
"                                                                                                    ",
"                                                                                                    ",
"                                                                                                    ",
"                                          bXbXbXbX                                                  ",
"                                        bXbXbXbXbXbX                                                ",
"                                      bXbXbXbXbXbXbXbX                                              ",
"                                    bXbXbXbXbXbXbXbXbXbX                                            ",
"                                    bXbXbXbXbXbXbXbXbXbXbX                                          ",
"                                  bXbXbXbXbXbXbXbXbXbXbXbXbX                                        ",
"                                bXbXbXbXbXbXbXbXbXbXbXbXbXbXbX                                      ",
"                                bXbXbXbXbXbXbXbXvXhXfXjXbXbXbXbX                                    ",
"                                bXbXbXbXbXbXbXjXwX,X-X1XiXvXbXbXbX                                  ",
"                                bXbXbXbXbXbXcX0X+X@X+X+X=XeXdXjXfXtX                                ",
"                                bXbXbXbXbXbXaX;XoX%X*X&X@X@X-X,X-X@X#X                              ",
"                                cXbXbXbXbXxX6X`.h.>.G.7X].OX$X@X#X@X~.                              ",
"                                0XfXcXcXgX0X.X5.K G [ A.L.B.T.'.).E.c.                              ",
"                                @X-X2X2X>X$XI.E K L J ] D.C.$.*.%.-.:.u.                            ",
"                            bXlX1X#X@X+X$X}.1.H L L L J ..H.e.G H K G i.zX                          ",
"                          bXbXvX^.R.XXXX(.6.U L L L L L K p.F./ K L G j.vXbX                        ",
"                        bXbXbXnXW.#.,.<.+.L L L L L L L K ) S.q.J L G k.kXbX                        ",
"                      bXbXbXbXbX[.O.G G H L L L L L L L L J p.d.I L L v.qXvXbX                      ",
"                      bXbXbXbXbX8X2.H L L L L L L L L L L J  .Z.^ K P n.4XsXbXbX                    ",
"                    bXbXbXbXbXbXrXz.K L L L L L L L L L L L ~ f.} K G Q Y.6XlXbXbX                  ",
"                  pXbXbXbXbXbXxX5XP.T L L L L L L L L L L L I s.o.J G 4 @.oX9XdXxX                  ",
"                _.,XaXvXbXbXxXtX}.W V I L L L L L L L L L L K t.9.J F < j U.$X-X1X<X                ",
"                M.|.>XwXuXyX3X:X7.# f U L L L L L L L L L L J 0.X.K D ; y 3.}.$X@X@X$X              ",
"              g.g.Q.#X+X+X+X#X|.m . q L L L L L L L L L L L J 8.{ K A & r U 4./.|.|.!.N.            ",
"              g.x.K.{.@X:X:X Xl.a X < D L L L L L L L L L L K | ) L N # r L L ' ;.=.' &.            ",
"              u.V.J.y.h.m.b.3.R b @ @ c U L L L L L L L L L L ! Y U x O t I L K H H K L             ",
"              ` a.w.G H K K H L F 3 X q K L L L L L L L L L L L L U h o t I L L L L L L             ",
"              ( r.! L L L L L L P p o $ M P L L L L L L L L L L L P u X t I L L L L L L             ",
"              / _ K L L L L L L P N $ X t L L L L L L L L L L L L I q X t I L L L L L L             ",
"              L L L L L L L L L L G 9 X * C I L L L L L L L L L L G 8 X t I L L L L L L             ",
"              L L L L L L L L L L U g O o i I L L L L L L L L L L D < X t P L L L L L L             ",
"              L L L L L L L L L L I Z = X : S I L L L L L L L L I Z % X 7 S P L L L L L             ",
"              L L L L L L L L I U U L 0 X O d P L L L L L L L L U n @ o o 6 B P L L L L             ",
"              L L L L I I K F C b f t , o X 1 D L L L L L P L H F s O o o o > z L L L L             ",
"                L L F n g e 5 - @ O X X o o + k U L L L D v s w 2 $ o o o o X % l L L               "
};
