/* XPM */
static char *snow_97_resized[] = {
/* columns rows colors chars-per-pixel */
"50 100 130 2 ",
"   c None",
".  c #3C3D2A",
"X  c #433328",
"o  c #4C342C",
"O  c #50372E",
"+  c #52382F",
"@  c #553A31",
"#  c #5A3E33",
"$  c #3A432B",
"%  c #31512E",
"&  c #2A6433",
"*  c #276C35",
"=  c #286A34",
"-  c #227335",
";  c #257638",
":  c #267C3C",
">  c #287F3E",
",  c #5E4135",
"<  c #614337",
"1  c #644539",
"2  c #2E7F42",
"3  c #26823E",
"4  c #28823F",
"5  c #278640",
"6  c #2A8441",
"7  c #2B8B45",
"8  c #2D8F48",
"9  c #318145",
"0  c #36834A",
"q  c #39854C",
"w  c #2B9147",
"e  c #2E934A",
"r  c #32954D",
"t  c #359751",
"y  c #389750",
"u  c #379853",
"i  c #3B9953",
"p  c #3E9C5A",
"a  c #438955",
"s  c #478B58",
"d  c #4B8E5D",
"f  c #419C56",
"g  c #459E5A",
"h  c #499F5B",
"j  c #4CA15D",
"k  c #50A25F",
"l  c #549365",
"z  c #5D986D",
"x  c #669D74",
"c  c #689E76",
"v  c #47A163",
"b  c #4AA366",
"n  c #4DA569",
"m  c #54A462",
"M  c #5CA867",
"N  c #52A76C",
"B  c #56A972",
"V  c #5AAC76",
"C  c #5DAD79",
"Z  c #62A079",
"A  c #6BA079",
"S  c #65AF78",
"D  c #71A47E",
"F  c #62B07E",
"G  c #7EAD8C",
"H  c #66B382",
"J  c #6AB485",
"K  c #6CB689",
"L  c #6FB88C",
"P  c #70B789",
"I  c #73BA8F",
"U  c #76BC93",
"Y  c #78BC94",
"T  c #7DBF99",
"R  c #87B192",
"E  c #88B294",
"W  c #8BB79B",
"Q  c #93B99E",
"!  c #95BCA3",
"~  c #9BBEA5",
"^  c #80C19C",
"/  c #85C4A2",
"(  c #8AC7A7",
")  c #8DC9AA",
"_  c #92C1AC",
"`  c #9FC1A9",
"'  c #92CBAE",
"]  c #97C5B0",
"[  c #95CDB2",
"{  c #9DD2BA",
"}  c #A5C6B2",
"|  c #A8C6B2",
" . c #A3D4BE",
".. c #A7D7C3",
"X. c #ADD2C5",
"o. c #A9D8C6",
"O. c #AEDBCA",
"+. c #BDD3C5",
"@. c #B0DCCD",
"#. c #B5DDD1",
"$. c #BEDED6",
"%. c #B9E1D6",
"&. c #BDE3DA",
"*. c #C0D6C9",
"=. c #C7DACE",
"-. c #C8DACF",
";. c #CCDDD2",
":. c #D0DFD7",
">. c #C2E6DF",
",. c #C4E7E0",
"<. c #C7E9E4",
"1. c #CAEAE6",
"2. c #CEEDEB",
"3. c #DBE7E1",
"4. c #DCE8E4",
"5. c #D1EEEE",
"6. c #D6F1F3",
"7. c #DAF3F5",
"8. c #DCF4F8",
"9. c #E0EAE5",
"0. c #E3EDEA",
"q. c #E8EFED",
"w. c #E4F4F6",
"e. c #EAF5F7",
"r. c #E5F6F9",
"t. c #EDF6F8",
"y. c #F1F4F5",
"u. c #F5F7F9",
"i. c #F6F8FB",
"p. c #F8F9FC",
/* pixels */
"                                                u.                                                  ",
"                                                p.u.                                                ",
"                                              u.u.u.                                                ",
"                                              u.u.u.u.                                              ",
"                                            u.u.u.u.u.u.                                            ",
"                                          u.u.u.u.u.u.u.                                            ",
"                                          u.p.u.u.u.u.u.u.                                          ",
"                                        u.u.u.u.u.p.u.u.u.u.                                        ",
"                                      u.u.u.u.u.u.u.u.u.u.u.                                        ",
"                                      u.u.u.u.u.u.u.u.u.u.u.u.                                      ",
"                                    u.u.u.u.u.u.p.u.u.u.u.u.u.                                      ",
"                                    u.u.p.u.u.u.u.u.u.u.u.u.u.u.                                    ",
"                                  u.u.u.u.u.u.u.u.u.u.u.u.u.u.u.p.                                  ",
"                                u.u.u.p.u.u.u.p.u.e.e.u.u.u.u.u.u.                                  ",
"                                u.u.p.u.u.u.u.e.8.6.6.8.r.u.u.u.u.u.                                ",
"                              u.u.u.u.u.u.u.y.8.6.7.8.6.6.w.t.t.e.w.6.                              ",
"                            8.e.u.u.u.u.u.u.r.7.2.#.O.,.6.6.6.6.7.6.6.                              ",
"                            &.7.u.u.u.u.u.t.8.#.C u r b [ 6.8.6.7.2./ g                             ",
"                          e J 2.8.e.u.y.e.8.,.B w e e w t U o.%...L h e                             ",
"                          e t ..7.6.7.7.6.7.( r e e e e e w t p r e h i e                           ",
"                        e e w C <.8.6.8.7.&.b w e e e r e e e e e e r j r e                         ",
"                      e e e e e H @.<.<...V e e e e e e e e e e e e e f g e                         ",
"                      e e e e e e i N b u e e e e e e e e e e e e e e r j i e                       ",
"                    e e e e e e e e w w e e e e e e e e e r e r i i r r i j r e                     ",
"                  e e e e e e e e e e e e e e e e e e 8 7 w e e r u f j j k i r                     ",
"                  e 8 8 5 5 6 : 5 7 e e e e e e 8 5 2 0 a 9 > 3 3 5 w e r r r w e                   ",
"                  : ; ; - l ` Q c a 6 : 5 7 5 > q x ! ;.3.=.| R A s q 9 : : : : 6                   ",
"                          6.w.u.y.4.+.! x d x _ $.7.i.i.p.p.p.p.e.0.:.*.!                           ",
"                          7.6.8.e.u.p.u.w.1.6.7.7.7.w.u.u.u.u.u.u.u.u.r.8.                          ",
"                        6.2.6.6.6.8.8.8.6.7.6.2.6.6.8.t.u.u.u.u.u.u.t.7.7.2.                        ",
"                      L H V T &.7.7.7.7.7.$.U V H { 5.w.u.u.u.u.u.u.w.2. .J                         ",
"                      e w w w N ..5.5.2. .b w w w u ( 6.w.u.u.u.u.r.6.T f j r                       ",
"                    e e e e e e u C K V u e e e e e p #.8.8.r.8.8.8.O.i e j f w                     ",
"                    e e e e e e e w w e e e e e e e e U 6.6.6.6.6.5.K w e y k y                     ",
"                  r e e e e e e e e e e e e e e e e e u [ 5.7.7.5.) u w w r g j r                   ",
"                e e e e e e e e e e e e e e e e e e e e t H ( / F p i f i r i m i                   ",
"                e e e e e e e e e e e e e 8 r e e e e e e w w w w e r y f j j k g r                 ",
"              e e e e r e e e w 7 5 3 6 2 6 : 7 e e e e e w e e e w 7 3 3 7 r r r e e               ",
"              7 7 5 7 6 5 : 2 9 a z G ~ +.+.E l 9 3 6 w w 8 7 5 3 6 s A D d - ; > 4 7               ",
"              - - - - z G W } -.9.e.i.i.p.i.u.q.=.Q z 0 2 2 s c ! *.9.u.u.0.      - -               ",
"                      8.7.8.8.t.u.p.p.u.u.u.u.p.i.t.5.#.] X.4.u.p.p.u.u.w.8.8.                      ",
"                    6.7.7.7.6.7.e.u.u.u.u.u.u.u.t.8.7.8.8.7.7.r.y.u.e.8.6.8.6.                      ",
"                    6.6.<.>.<.7.6.u.u.u.u.u.u.u.r.6.5.>.,.5.6.7.6.7.6.7.7.1.>.<.                    ",
"                  7.2./ b p N [ 5.r.u.u.u.u.u.e.6.O.H g v K %.7.7.7.8.1.^ S N N V                   ",
"                  O.H e e e w t [ 7.w.u.u.y.e.8.%.b w w w w n { ,.<.O.H e y m r e                   ",
"                v i e e e e e w n ,.6.7.w.7.6.6.Y e e e e e w t v n i e e e j j r e                 ",
"              e e e e e e e e e r / 7.7.6.7.8.@.p e e e e e e e w w e e e e t m i e                 ",
"              e e e e e e e e e e p [ <.5.5.o.N e e e e e e e e r e e e e e e g m r e               ",
"            e e e e e e e e e e e e t N H V i e e e e e e e e r y i i r r r e r m j e e             ",
"          e e e e e e e e e e e e e e w e w e e e e e e 7 8 e e r r i f j j g f j M i e             ",
"          e e e 8 7 6 6 : 6 7 8 e e e e e e e e 8 8 5 ; - * ; ; 3 3 8 8 r y g h j j i e e           ",
"        7 6 6 ; ; ; -     - ; ; ; 6 7 e e w 7 5 ; = % $ X X       - - - ; : : 3 3 3 6 6 7           ",
"          -                       - - ; : * & % . X X O o o                     - - - - -           ",
"                                        $ . X X o o o @ o o                                         ",
"                                        o o o o o o o + o o                                         ",
"                                      o o o o o o o o @ O o                                         ",
"                                      o o o o o o o o # O o                                         ",
"                                      o o o o o o o o @ O o                                         ",
"                                      o o o o o o o o @ O o                                         ",
"                                      o o o o o o o o @ O o                                         ",
"                                      o o o o o o o o @ + o                                         ",
"                                      o o o o o o o o @ + o                                         ",
"                                      o o o o o o o o @ @ o                                         ",
"                                      o o o o o o o o @ # o                                         ",
"                                      o o o o o o o o @ @ o                                         ",
"                                      o o o o o o o o @ # o o                                       ",
"                                      o o o o o o o o @ # o o                                       ",
"                                      o o o o o o o o @ , o o                                       ",
"                                      o o o o o o o o @ , o o                                       ",
"                                      o o o o o o o o + , o o                                       ",
"                                    o o o o o o o o o @ < o o                                       ",
"                                    o o o o o o o o o + < o o                                       ",
"                                    o o o o o o o o o + < o o                                       ",
"                                    o o o o o o o o o + < + o                                       ",
"                                    o o o o o o o o o o < + o                                       ",
"                                    o o o o o o o o o o < @ o                                       ",
"                                    o o o o o o o o o + < @ o                                       ",
"                                    o o o o o o o o o o < # o                                       ",
"                                    o o o o o o o o o o < @ o                                       ",
"                                    o o o o o o o o o o < # o o                                     ",
"                                    o o o o o o o o o o < # o o                                     ",
"                                    o o o o o o o o o o < # o o                                     ",
"                                    o o o o o o o o o o < # o o                                     ",
"                                    o o o o o o o o o o , # o o                                     ",
"                                  o o o o o o o o o o o , , o o                                     ",
"                                  o o o o o o o o o o o , , o o                                     ",
"                                  o o o o o o o o o o o , < o o                                     ",
"                                  o o o o o o o o o o o , < o o                                     ",
"                                  o o o o o o o o o o o , < o o                                     ",
"                                  o o o o o o o o o o o # < o o                                     ",
"                                  o o o o o o o o o o o , 1 + o                                     ",
"                                  o o o o o o o o o o o # 1 o o                                     ",
"                                  o o o o o o o o o o o # 1 o o                                     ",
"                                  o o o o o o o o o o o @ 1 @ o o                                   ",
"                                  o o o o o o o o o o o # 1 @ o o                                   ",
"                                  o o o o o o o o o o o + 1 @ o o                                   ",
"                                  o o o o o o o o o o o + 1 # o o                                   ",
"                                  o o o o o o o o o o o o < < o o                                   ",
"                                o o o o o o o o o o o o o # 1 o o                                   ",
"                                o o o o o o o o o o o o o # 1 @ o                                   "
};
