/* XPM */
static char *snow_100_resized[] = {
/* columns rows colors chars-per-pixel */
"50 50 127 2 ",
"   c None",
".  c #2C9248",
"X  c #2D9249",
"o  c #2D9349",
"O  c #2D934A",
"+  c #2E934A",
"@  c #2F934A",
"#  c #2E934B",
"$  c #2F934B",
"%  c #2F944B",
"&  c #31944C",
"*  c #32954C",
"=  c #32954D",
"-  c #33954D",
";  c #32954E",
":  c #33964F",
">  c #35964E",
",  c #36974F",
"<  c #37974F",
"1  c #379750",
"2  c #399851",
"3  c #3A9852",
"4  c #3B9952",
"5  c #3C9952",
"6  c #3D9A53",
"7  c #399955",
"8  c #3E9A54",
"9  c #3F9B54",
"0  c #3F9B56",
"q  c #3F9C5A",
"w  c #409B55",
"e  c #419B56",
"r  c #419C56",
"t  c #429C56",
"y  c #439D57",
"u  c #449D58",
"i  c #469E59",
"p  c #499F5B",
"a  c #4AA05C",
"s  c #4BA05C",
"d  c #48A05F",
"f  c #4FA25F",
"g  c #47A163",
"h  c #57A563",
"j  c #54A564",
"k  c #58A664",
"l  c #5BA767",
"z  c #5CA866",
"x  c #5CA867",
"c  c #5DA867",
"v  c #50A66C",
"b  c #5EA968",
"n  c #5FA969",
"m  c #57AA73",
"M  c #5EAE7A",
"N  c #60A969",
"B  c #61AA6A",
"V  c #60AF7D",
"C  c #66B282",
"Z  c #68B484",
"A  c #6BB587",
"S  c #7FBD8E",
"D  c #7BBD93",
"F  c #7CBF98",
"G  c #87C5A3",
"H  c #8EC6A0",
"J  c #8EC7A3",
"K  c #8CC8A8",
"L  c #8DC8A9",
"P  c #98CCAB",
"I  c #99CDAD",
"U  c #93CCB0",
"Y  c #9CD0B5",
"T  c #9ED2BA",
"R  c #9FD3BC",
"E  c #AAD7C0",
"W  c #AAD8C6",
"Q  c #AEDBCB",
"!  c #B3DCCA",
"~  c #B6DFD0",
"^  c #BBE2D8",
"/  c #C3E6DE",
"(  c #C3E7E0",
")  c #C6E9E3",
"_  c #CCEBE7",
"`  c #CEEDEB",
"'  c #D0EEED",
"]  c #D1EEED",
"[  c #D1EFEE",
"{  c #D3F0F0",
"}  c #D4F0F1",
"|  c #D5F1F2",
" . c #D7F2F4",
".. c #D7F2F5",
"X. c #D8F2F4",
"o. c #D8F2F5",
"O. c #D8F3F5",
"+. c #D9F3F5",
"@. c #DAF2F4",
"#. c #D8F3F6",
"$. c #D9F3F6",
"%. c #DCF3F5",
"&. c #DDF3F5",
"*. c #DFF3F5",
"=. c #DAF4F7",
"-. c #DFF4F6",
";. c #E0F4F6",
":. c #E1F4F6",
">. c #E2F4F6",
",. c #E3F4F6",
"<. c #E3F4F7",
"1. c #E4F4F6",
"2. c #E6F5F7",
"3. c #E7F5F7",
"4. c #E8F5F7",
"5. c #E9F5F7",
"6. c #EAF5F7",
"7. c #EBF5F7",
"8. c #EDF6F8",
"9. c #EEF6F8",
"0. c #EFF6F8",
"q. c #F1F6F8",
"w. c #F2F6F8",
"e. c #F3F7F9",
"r. c #F4F7F9",
"t. c #F5F7F9",
"y. c #F6F7F9",
/* pixels */
"                                                                                                    ",
"                                                                                                    ",
"                                                                                                    ",
"                                                                                                    ",
"                                                                                                    ",
"                                                                                                    ",
"                                                                                                    ",
"                                                                                                    ",
"                                                                                                    ",
"                                                                                                    ",
"                                                                                                    ",
"                                                                                                    ",
"                                                                                                    ",
"                                                                                                    ",
"                                                                                                    ",
"                                                                                                    ",
"                                                                                                    ",
"                                                                                                    ",
"                                                                                                    ",
"                                                                                                    ",
"                                                                                                    ",
"                                                                                                    ",
"                                                                                                    ",
"                                                                                                    ",
"                                                                                                    ",
"                                                                                                    ",
"                                                                                                    ",
"                                                                                                    ",
"                                                                                                    ",
"                                                                                                    ",
"                                                                                                    ",
"                                              t.t.t.                                                ",
"                                          t.t.t.t.t.t.                                              ",
"                                        t.t.t.t.t.t.t.                                              ",
"                                      t.t.t.t.t.t.t.t.t.                                            ",
"                                      t.e.5.>.,.7.r.t.t.t.t.t.8.,.;.1.9.                            ",
"                                    t.e.:. . . .X.1.w.t.t.e.4.@. . . .&.9.                          ",
"                                  t.t.3.o.#.o.O.#...&.1.1.*.X.#.$.O.#...:.r.                        ",
"                                t.t.q.%.[ ! P I ~ | o. . . .o.^ L J E _ +.8.y.                      ",
"                          q.t.y.y.e.<.] H j 9 , q G ` $.$.} R g X < l S / -.0.                      ",
"                          &.2.6.3.*.#.Y 0 @ O O X ; M G K A 7 . + + f z D { %.                      ",
"                          o. . . .#.) v . + + + + O . . X . o + + O a b d Q =.                      ",
"                        C ( =.=.=.' F % + + + + + + + + + + + + + O i N 5 V ^                       ",
"                    + + $ m U W T Z : o + + + + + + + + + + + + + O t B w #                         ",
"                  + + + + . # ; & . O + + + + + + + + + + + + + + O 8 B y o                         ",
"                + + + + + + + + + + + + + + + + + + + + + + + + + O 3 n i O                         ",
"                + + + + + + + + + + + + + + + + + + + + + + + + + O 1 c s +             + + +       ",
"              + + + + + + + + + + + + + + + + + + + + + + + + + + + - k c u >     O + + + + + +     ",
"            + + + + + + + + + + + + + + + + + + + + + + + + + + + + + e x n h p 6 = + + + + + + +   ",
"        + + + + + + + + + + + + + + + + + + + + + + + + + + + + + + + @ 2 r 8 4 1 * + + + + + + +   "
};
