/* XPM */
static char *d6dkea2_482fe7a3_f5b0_4f14_81a1__resized[] = {
/* columns rows colors chars-per-pixel */
"50 50 33 1 ",
"  c None",
". c black",
"X c #051718",
"o c #211D19",
"O c #2D2118",
"+ c #2B3734",
"@ c #4E3B25",
"# c #493A2A",
"$ c #664328",
"% c #744E26",
"& c #3B4A40",
"* c #435E42",
"= c #705C4B",
"- c #876033",
"; c #BC6439",
": c #CA7830",
"> c #9A7A4D",
", c #9A7B4E",
"< c #BB7E57",
"1 c #5F8263",
"2 c #EF882D",
"3 c #948872",
"4 c #948973",
"5 c #F0B659",
"6 c #CF9F6F",
"7 c #2236C4",
"8 c #2A86F8",
"9 c #6ABFFA",
"0 c #B2AA99",
"q c #E2C18E",
"w c #C5C5C5",
"e c #F7E0C9",
"r c gray99",
/* pixels */
"                                                  ",
"                                                  ",
"                          %:                      ",
"                       :5:%5:%                    ",
"                    %:::%5:5:5:                   ",
"                    %%:5:%:::5:%                  ",
"                   %:5%:5:%%::%O                  ",
"                   %::5%:O:5%<6O                  ",
"                @=@%%:::%O5%66q@                  ",
"              @=404%OO%%;%5%6qO@                  ",
"             @=4=4=@;;O%;%%6qOw@+                 ",
"            @30==04@6q:%OOO<68r%+                 ",
"            =44030=O6q:%w786q96%*+                ",
"           @4+++=44=O6:;r89qqq6%+2                ",
"           ++&e2++==%OO:;6qqq6:O+X                ",
"          X&**2;*&++%%:%5;666<5O-X                ",
"          X*111112&+%:5O%5<<<5OXXX                ",
"          X>>>1*+&+++%:%O%555%:O-X                ",
"           X++>>--+++%%:%O%:+%5OX=@               ",
"           X++++++--$X:5O+$:X+%Xq4@               ",
"           X$111++$X++X:OX$5X%:O=4@               ",
"           @O$$--$XO+&X5%X$5XXXO4=                ",
"           @@XXXXXOX+&O:XXXXX%:%+2                ",
"           @@=6666X=X+%:%X<&X%:5X;                ",
"           ..@=6q6==XO:5:X#&X%55XX                ",
"          .==X44====XO:55X##X%5%*O                ",
"          .=4X4444=+XOO5X##ooo:OoX                ",
"          ..==Xe2O+&&XO:X&ooooXO1X                ",
"           @..X2;O&*Oo&O1&ooXo*;1X                ",
"           =4@..O**OO&&X&XXX<X;6X     ...         ",
"           =4=X1.XOO&*&;X;<66X66X    .2;;;..+     ",
"           =4=@X;X****&<XXXXX XX    .2&&+.*1.     ",
"           @4=@@@XX111&XX==..X     .=2*&;*1+.     ",
"           @4=@@@X;X;<6X==44=..   .==2*&21+.;.    ",
"          @4==@@@X<XXXXX..==44=.. .==32*&2;+&;.   ",
"          @4==@@X&X&&XXo,X..==44=..=3332**&&&;.   ",
"          @==@@@Xo+&&+Xo,-,1..==@@@.33332***&2.   ",
"          @==@@@o,+++X  X**11*..@@@.+33==2222=.   ",
"           @@   o,*,,X  X++**++XX@.&;+=======.    ",
"                X*-11X   XX++++X=.&*&&+=====.     ",
"                X**111X    XXXX=+&***&&++==.      ",
"                X**+++X      .3=+2**e2&&&.        ",
"                 X++++X      .3=+&*&2;&&.         ",
"                  XXXX       .33=+&&&&&&.         ",
"                             .333@+&&&&..         ",
"                              .3==@++++@.         ",
"                              +.===@@@@.          ",
"                              +..=====.           ",
"                                 .....            ",
"                                                  "
};
