/* XPM */
static char *d6dkea2_482fe7a3_f5b0_4f14_81a1___1__resized[] = {
/* columns rows colors chars-per-pixel */
"50 50 211 2 ",
"   c None",
".  c #030302",
"X  c #0B0704",
"o  c #090B09",
"O  c #170C06",
"+  c #19150E",
"@  c #031415",
"#  c #041718",
"$  c #071819",
"%  c #0B1B1B",
"&  c #081717",
"*  c #191511",
"=  c #1D1814",
"-  c #131D1B",
";  c #1C1C19",
":  c #121714",
">  c #0C100F",
",  c #26150D",
"<  c #231C14",
"1  c #211D19",
"2  c #0F201E",
"3  c #16211D",
"4  c #1C221C",
"5  c #24241D",
"6  c #2B231B",
"7  c #2E251B",
"8  c #31251A",
"9  c #342A1E",
"0  c #392B1D",
"q  c #36311E",
"w  c #1C2623",
"e  c #1F2925",
"r  c #1C2C2A",
"t  c #112221",
"y  c #1D312A",
"u  c #212721",
"i  c #222A24",
"p  c #2B2A23",
"a  c #332C22",
"s  c #392E23",
"d  c #22332E",
"f  c #2B322A",
"g  c #3B3124",
"h  c #32332A",
"j  c #3C332A",
"k  c #3E392C",
"l  c #383825",
"z  c #2B3632",
"x  c #2C3A35",
"c  c #273735",
"v  c #323D36",
"b  c #3A3D33",
"n  c #323F39",
"m  c #383E39",
"M  c #472E1F",
"N  c #423423",
"B  c #4D3B25",
"V  c #42362B",
"C  c #44392B",
"Z  c #4A3B2A",
"A  c #4A3625",
"S  c #513D27",
"D  c #533E28",
"F  c #533A27",
"G  c #453C31",
"H  c #643E29",
"J  c #34433B",
"K  c #3A443B",
"L  c #3B4A3D",
"P  c #34473A",
"I  c #3E553F",
"U  c #3E583F",
"Y  c #53422D",
"T  c #5C4028",
"R  c #4E4233",
"E  c #484638",
"W  c #594938",
"Q  c #42533D",
"!  c #4E5C3E",
"~  c #59553A",
"^  c #644624",
"/  c #65442A",
"(  c #6C4429",
")  c #684B28",
"_  c #734E26",
"`  c #77442B",
"'  c #6C512E",
"]  c #74522B",
"[  c #7B542B",
"{  c #7B5429",
"}  c #634E3B",
"|  c #684B34",
" . c #64513E",
".. c #6A5739",
"X. c #735631",
"o. c #755934",
"O. c #76593A",
"+. c #774A30",
"@. c #5B603C",
"#. c #6A673D",
"$. c #76683B",
"%. c #3D4C41",
"&. c #3E5341",
"*. c #3F5D42",
"=. c #414D41",
"-. c #534D41",
";. c #425342",
":. c #435C41",
">. c #485A47",
",. c #5D574A",
"<. c #535952",
"1. c #645342",
"2. c #695644",
"3. c #6C5A46",
"4. c #6D5B4A",
"5. c #645A49",
"6. c #725D4C",
"7. c #735D43",
"8. c #4A654C",
"9. c #48654A",
"0. c #576445",
"q. c #4B6652",
"w. c #557459",
"e. c #516F56",
"r. c #746345",
"t. c #75614C",
"y. c #796449",
"u. c #6C6758",
"i. c #7A6957",
"p. c #7C6C59",
"a. c #726655",
"s. c #726C51",
"d. c #5D7F61",
"f. c #7C776B",
"g. c #736C61",
"h. c #855629",
"j. c #985A2B",
"k. c #865538",
"l. c #935635",
"z. c #814A2E",
"x. c #AA5E37",
"c. c #9D622B",
"v. c #876139",
"b. c #93613C",
"n. c #A3652C",
"m. c #AA692D",
"M. c #AC623B",
"N. c #B86436",
"B. c #AC7B3C",
"V. c #BC7631",
"C. c #BF722F",
"Z. c #D97D2B",
"A. c #C3673B",
"S. c #CC7C33",
"D. c #C47834",
"F. c #D37C32",
"G. c #896145",
"H. c #816A4A",
"J. c #9A6D4B",
"K. c #906749",
"L. c #987449",
"P. c #826E59",
"I. c #84715C",
"U. c #8B7151",
"Y. c #9A7553",
"T. c #B96C43",
"R. c #A5714F",
"E. c #BB7448",
"W. c #A67C55",
"Q. c #B97A52",
"!. c #857661",
"~. c #8A7A66",
"^. c #8D7E69",
"/. c #847A67",
"(. c #C4794E",
"). c #6C805D",
"_. c #72815D",
"`. c #5E8162",
"'. c #B5823F",
"]. c #CE843B",
"[. c #D7883D",
"{. c #9D805D",
"}. c #B68743",
"|. c #BF934B",
" X c #A88259",
".X c #BC865D",
"XX c #8D826C",
"oX c #91856F",
"OX c #928671",
"+X c #948872",
"@X c #9A8F7A",
"#X c #86807C",
"$X c #CA994C",
"%X c #DC9442",
"&X c #D59949",
"*X c #C88B5E",
"=X c #D68942",
"-X c #DAA552",
";X c #E4AC55",
":X c #EAB156",
">X c #F1B457",
",X c #C38C61",
"<X c #C89669",
"1X c #D2AE7E",
"2X c #CAA47A",
"3X c #3A6EB2",
"4X c #69B6F5",
"5X c #D9B485",
"6X c #D2B18B",
"7X c #DBBDA1",
"8X c #DDE0E4",
/* pixels */
"                                                                                                    ",
"                O O O O   > L .                                                                     ",
"              X Z.x.x.j.+ :.e..                                                                     ",
"              , Z.;.J : @.w.J +                                                                     ",
"            . 3.S.#.:.;.V.W * l.,                                                                   ",
"            > 3.6.].$.#.9.b.&.;.N.X                                                                 ",
"          . x 6.p.OX=X=X$.$.r.$.D.X                                                                 ",
"          . z ,.OXOXOX^.S.S.S.D.R X                                                                 ",
"          . J n g.+XOX6.4.4.4.4..                                                                   ",
"          - L ..n u.u.6.6.6.6.G .                           j.m.[.                                  ",
"    . 6 . %.%.v.=.n n -.-.j j .                         S.}.%Xc.:X].B.                              ",
"    a W w %.&.:.:.%.e - : . .                     _ n.S.%Xn.'.].%XS.>XS.                            ",
"  X 5.c =.7.:.:.&.w , < <                         m.}.c.$._ j.c.c.S.[.c.F                           ",
"  X i.-.m | ;.;.L . S D Y g s s . . .           _ ^ ..a H H ^ c.'.c.V.Y.8                           ",
"  o ^.!.-.j n n K . + + < 6.~.!.-.j g @ . . 4.4.q $ H r.S A : %X'.W.<X1XA                           ",
"  o oX+X!.1.V V n w 8 V > f k p.!.^.~.,.C V 6 6 # % E.*X+.r.3 ;X{ <X5XO.Y B                         ",
"    h oXI.6.1.} C C } 7       1 1 s p.!.^.~.5.G % >.5.T.*X,XU.~  X5X7.#XY } B z                     ",
"      p 1 4.6.6.1.2.4..         0 g.< = p i.P.4.2 8.w.p. .N..X3 .X2X3X8XX.6.} v                     ",
"      e u = < 3.3.1 =         4.b <.f.u.f.; * * $ *.9.8.w.~ l > ,X6X4X6X[ 6.6.Q x                   ",
"      c >     * *           b D.v n <.p.@Xa.W a.p L %.:.9.P o R p f c <X] m m >.V.                  ",
"                          x x R K l.E J E a.6.o.8 a a L K * W 4.~ a.a.h 0 c U *.9                   ",
"                          t e.*.:.b.o.X.o./ b ) - v 7 7 p @ w e 5.oXXX% 6 c ! o.%                   ",
"                          3 O.$.o.K b ( / - % 3 J Q I K 6 3 |.J.e e 4 % % X.o.4 $                   ",
"                          ] G b b T D 5 w l.- v s s L *.z % h.-X-X$X_ m.7 4 4 ' 3 A                 ",
"                            ] T D 3 - x.R.p A N 7XF.0 :.J % 9 h.V.E _ &Xq ' ' i 1.Y                 ",
"                            % - - N 3 R.<XW.6.6.[.M.9 Q % 6 f / C.3 l { 3 3 e /.XXY                 ",
"                            $ A S B A w 5X.Xt.XX7.s z K w 1 % ) -X3 ^ n.9 4.XXXX5.Q %               ",
"                              9 2.S A 3 R.1XP.^.oX6.m m 1.% % T |.3 3 5 0 /./.9.I 7 2               ",
"                              S t.B B A 4 J.5XP.t.!.3...g ; $ % % & _ C.h.z f L 7 a :.%             ",
"                              W XXD B B A - K. Xy.| N g l _ % z E % _ ].;X3 M A B 0.w.2             ",
"                              6.XXY S B B 3 & a G.G.3 g ;X].- R M.3 { :X$X5 l.Q.<X.Xq.2             ",
"                              6.oXY B B B A - x.G a s c.:X}.R E.J.5 ^ &X^ 7 : k.G.U.2               ",
"                              p.!.Y B B B q 5 l.*X(.O.9 =X3 oX XZ C 6 h.8     # @ @                 ",
"                            6.oX4.D B B B % Z Z l.W.Y.N h.r ;.A Z g ; @ 6                           ",
"                            6.OX6.B B B A % g A Z V Z Z h q.d.E s 1 1 #                             ",
"                            6.oX6.D B S A % ; s Z C g g %.`.d.%.1 1 : :                             ",
"                            6.oX} B B B B % 1 1 a a 1 1 z q.q.r % - R ;                             ",
"                            !.p.D B B B A & ; ; 1 1 1 1 1 h O.H } 7.,X-                             ",
"                          6.OX6.D B B F   & H ` 1 = 1     ; N.k.} ,X .$                             ",
"                          } i.W B B     - ..A.A.` z.        B r d G d d $                           ",
"                          B 3.B         % Q.A B E.H         # c &.r %.%.%                           ",
"                          S 3.D       $ x k c d V -         $ P :.x x x                             ",
"                          D Y         & i r %.%.r $         4 r.y P r.r.%                           ",
"                                      4 O.x n x t           5 L.' y._.).8.%                         ",
"                                      6 v.H.H.y.%             f @.0.`.`.9.P 2                       ",
"                                      2 ! ).).>.%             $ J J 9.*.J x &                       ",
"                                      $ ! `.d.*.%               % 2 c x c z $                       ",
"                                      $ U P J *.%                   % % % %                         ",
"                                        x c z z $                                                   ",
"                                        $ % % $                                                     "
};
