/* XPM */
static char *d6dkea2_482fe7a3_f5b0_4f14_81a1___3__resized[] = {
/* columns rows colors chars-per-pixel */
"50 50 211 2 ",
"   c None",
".  c #030302",
"X  c #0A0806",
"o  c #0B0A09",
"O  c #080705",
"+  c #110E0B",
"@  c #190E09",
"#  c #18130C",
"$  c #16110C",
"%  c #031415",
"&  c #051718",
"*  c #07191A",
"=  c #0C1B1A",
"-  c #191612",
";  c #121D1A",
":  c #1C1D19",
">  c #181916",
",  c #211E19",
"<  c #27150C",
"1  c #1C221C",
"2  c #14211D",
"3  c #2C231A",
"4  c #27251C",
"5  c #33251A",
"6  c #342A1C",
"7  c #3B2A1C",
"8  c #302416",
"9  c #132322",
"0  c #1A2522",
"q  c #1C2C29",
"w  c #252D29",
"e  c #362D23",
"r  c #24322E",
"t  c #2E322D",
"y  c #363329",
"u  c #2A3532",
"i  c #2D3A35",
"p  c #2B3936",
"a  c #333C35",
"s  c #3A3B32",
"d  c #363F38",
"f  c #4C341C",
"g  c #4B341E",
"h  c #453423",
"j  c #4A3624",
"k  c #4D3B25",
"l  c #453B2D",
"z  c #4A3B2A",
"x  c #41372B",
"c  c #503D27",
"v  c #5A3E23",
"b  c #513E29",
"n  c #5C3723",
"m  c #453E32",
"M  c #513F30",
"N  c #693B23",
"B  c #35443C",
"V  c #3A443B",
"C  c #354A3B",
"Z  c #3B4A3E",
"A  c #364436",
"S  c #3F543B",
"D  c #294236",
"F  c #6C401B",
"G  c #54412C",
"H  c #5B462A",
"J  c #5A4225",
"K  c #434B3E",
"L  c #4A493C",
"P  c #474436",
"I  c #5E4B37",
"U  c #594A3C",
"Y  c #554636",
"T  c #4B503E",
"R  c #51523D",
"E  c #644423",
"W  c #674628",
"Q  c #744E26",
"!  c #764A26",
"~  c #79532A",
"^  c #775129",
"/  c #644D36",
"(  c #64513D",
")  c #6D523C",
"_  c #755A35",
"`  c #765832",
"'  c #6A653C",
"]  c #7D643B",
"[  c #7A693A",
"{  c #3B4C40",
"}  c #364940",
"|  c #3E5441",
" . c #444C42",
".. c #554C40",
"X. c #435341",
"o. c #435D43",
"O. c #4C5D41",
"+. c #465A49",
"@. c #545145",
"#. c #655342",
"$. c #695644",
"%. c #6C5A4A",
"&. c #685847",
"*. c #715D4C",
"=. c #4A6143",
"-. c #456145",
";. c #4C6951",
":. c #546D53",
">. c #5C7B5D",
",. c #537256",
"<. c #566040",
"1. c #77664C",
"2. c #6C685A",
"3. c #746453",
"4. c #7A6A56",
"5. c #7E6D5B",
"6. c #786754",
"7. c #667C5A",
"8. c #7A7F55",
"9. c #5B7E60",
"0. c #786E63",
"q. c #8E5C2A",
"w. c #85562A",
"e. c #975A2B",
"r. c #9B5936",
"t. c #80583C",
"y. c #A25933",
"u. c #A55E39",
"i. c #8B612F",
"p. c #9C612A",
"a. c #87693B",
"s. c #986B36",
"d. c #9F7137",
"f. c #A4652B",
"g. c #AC6A2D",
"h. c #B46C2C",
"j. c #AE663C",
"k. c #B8653A",
"l. c #AA773C",
"z. c #BD7334",
"x. c #C6742C",
"c. c #C27A33",
"v. c #CB7B32",
"b. c #C47938",
"n. c #C17437",
"m. c #D27537",
"M. c #C36C36",
"N. c #986B4D",
"B. c #977443",
"V. c #81715E",
"C. c #897953",
"Z. c #8D7058",
"A. c #A8754F",
"S. c #B67B55",
"D. c #AD714C",
"F. c #847562",
"G. c #897B66",
"H. c #8B7D69",
"J. c #867964",
"K. c #807C7D",
"L. c #C57B43",
"P. c #6A825E",
"I. c #5E8162",
"U. c #628363",
"Y. c #CC8339",
"T. c #D2883D",
"R. c #DF832F",
"E. c #BF845B",
"W. c #8E826C",
"Q. c #93856E",
"!. c #958972",
"~. c #938773",
"^. c #9C917E",
"/. c #BD8F66",
"(. c #C89448",
"). c #D89C4B",
"_. c #C3865A",
"`. c #C98B44",
"'. c #E19A48",
"]. c #DCA353",
"[. c #E5A34C",
"{. c #E6AD55",
"}. c #EBB156",
"|. c #C48B64",
" X c #C8996A",
".X c #D1986A",
"XX c #CE9F71",
"oX c #D3A573",
"OX c #D3AA7A",
"+X c #D3AC7D",
"@X c #F0A869",
"#X c #293284",
"$X c #305D9F",
"%X c #386197",
"&X c #3278F0",
"*X c #5CADF8",
"=X c #9F9581",
"-X c #979F9F",
";X c #A39A86",
":X c #AD9C8E",
">X c #AEA594",
",X c #A1A288",
"<X c #A0A7A7",
"1X c #D3B48A",
"2X c #E2BF8A",
"3X c #D1BCA3",
"4X c #E1C290",
"5X c #E2C08D",
"6X c #C3C0A9",
"7X c #D8DBDE",
"8X c #E1E2E8",
/* pixels */
"                                                                                                    ",
"                                                  ~ v.                                              ",
"                                      z.v.x.v.).Y.q.{.v.i.                                          ",
"                                      Q h.v.Y.q.).v.[.v.}.v.                                        ",
"                                      q.s.h.[.T.e.g.g.v.[.h.E                                       ",
"                                  ( Q v.[.d.g.).p.q.d.g.b.a.5                                       ",
"                              4.4.F.~ g.v.'.p.f.6 T.(.d.|.OXh                                       ",
"                          H.3.;X;XV.Q c ! f.f.q.J {.~ XX+XZ.c = q q Y                               ",
"                    k %.#.=XF.H.V.Q.W N N f ! k.~ l.A.OXC.2.z 1 Z 1.S.=                             ",
"                  k 6.;XH.;XV.%.F.;XH _..Xw.! N f f E.1X%X7X/ 5 K E.S.) ;                           ",
"                1.4.V.>X5.=X;XH.5.J.j XX2Xv.! K.#X%X|.1X*X3X~ s y %.S.S.;                           ",
"                Y 4.G.^.=X5.=X5.J.%.2 / oXm.D.8X&X*X1X4X6X X~ Z 5 Z &.s                             ",
"              G V.^.V.Q.F.%. .P  .d ..U G v n.|.:X6X4X1XOX`.g V ; 9 9                               ",
"              c 4.>XH.3.d d B Z V } d s ; e.q.'.L.oXOXoX_.).5 9                                     ",
"            G ^.1.3.3.d { +.3Xv.7.o.{ i Z ).h i.]._.E.E.].J =                                       ",
"            G W.&.0 a K +.7.'.k.7.+.O.} i P E 7 w.{.{.].i.g.5                                       ",
"            k G k 2 ` c.=.I.P.P.9.=.c.K u a E E h ~ c.P Q ).6                                       ",
"              k k > ` T o.>.>.I.o.o.L a s A E 7 e.! g.1 s W =                                       ",
"              c &.1 v _ T O.O.O.R K _ _ ` ` J 5 ; v ; E p.6                                         ",
"              G &.k * s _ [ a.t.[ _ a s s g = v ; j = 1 6 7                                         ",
"            c 3.%.k 1 k m 7.7.O.K s s k j 6 * 1 & 2 = Q x.i.                                        ",
"            G W.$.k k 1 h H v H h g h * j Y.2 w.; C = Q T.{.2                                       ",
"            c W.k k k k = h x m h w w 4 w.d.P ~ = r = ^ }.(.2                                       ",
"            I W.G k k k : D..X_.D.V.V./ t 1 ) * & % & v ).J                                         ",
"          c 5.V.c k k k 2 D.XXZ.!.Z.0.*.( I *         4 J 5                                         ",
"          G W.*.c k k 4 = k.N.5.&.:Xl.M s y *                                                       ",
"        k ( W.I k k k * m b %.W.e @Xm.5 A q *                                                       ",
"        G F.4.G k k k ; $.= F.4.y F v s X.| *                                                       ",
"      c ( Q.%.G k k k e w 1 3.w i a C o.-.o.D &                                                     ",
"      c J.6.G k c k k   & , - . 9 i D e e e 6 1 *                                                   ",
"    c &.W.Y k k k k   * w , - - - @ 3 , 3 K :.,.;.=                                                 ",
"    G G.1.c k c k     * u * ; , , X , V V  .X.-.-.* .                               O O .           ",
"  c G.*.G k k         * r = r.1 : e.X + u.D.A. .K = U o O                         # h.y.y.y.o o r   ",
"  G %.G c             * * ; S.D.y.y.X = N.E. X Xr.w &.$.#.+ =                   @ x.R K m # T ;.o   ",
"c %.c                     = N.y.1 9 * * ; 1 y.N.: ..#.#.*.%.%.- +             + $.R.O. .g.O.,.u @   ",
"k #.c                     * B 0 B Z r *     = * . . . . U ..H.H.*., +       X &.*.R.' X.c.P.P $ e.< ",
"k k                       q u B A u *                   . . Y ..H.H.3.4 -   . %.6.!.T.' X.z.s.d K j.",
"                        = C K K P P *                       . . M Y G.H.#.# # Y Q.!.!.`.[ o.{ {  .M.",
"                        * R B.C.W.8.=                           . . m l k k k . 2.!.~.G.b.a.[ [ ] b.",
"                        = 1.' I.I.9.D                               . . 6 k 8 : / 2.J.*.*.b.b.b.n.l ",
"                        = C o.,.I.U.I.9                                 t 3 2 X.t.d ..%.*.%.%.%.y . ",
"                        = p o.o.+.+.+.=                               s L 0 | o.C B d L ..%.%.y .   ",
"                          0 C C u u = %                           X @.%.s s.O.=.,Xd. .B } e         ",
"                            9 2 9 q -X<X                          X W.%.a ] O.+.@Xm. .} ;           ",
"                                                                  X H.J.@.d S { _ ( Z Z .           ",
"                                                                  X W.~.G.l i } } } B ; .           ",
"                                                                    w H.4.#.l i i d i 7 .           ",
"                                                                    w : $.*.#.k z l h +             ",
"                                                                    u . $ $.%.#.$.#.o               ",
"                                                                          X X X o o                 "
};
