/* XPM */
static char *__1_resized[] = {
/* columns rows colors chars-per-pixel */
"50 50 112 2 ",
"   c None",
".  c #010101",
"X  c #0B0303",
"o  c #140404",
"O  c #1B0505",
"+  c #180708",
"@  c #1C0808",
"#  c #12100F",
"$  c #230404",
"%  c #2B0304",
"&  c #340405",
"*  c #3B0304",
"=  c #340A0C",
"-  c #380E10",
";  c #261616",
":  c #20191B",
">  c #3A1617",
",  c #3B1A1B",
"<  c #372221",
"1  c #3C2323",
"2  c #3C2728",
"3  c #373334",
"4  c #393B3C",
"5  c #440304",
"6  c #4B0404",
"7  c #410B0B",
"8  c #4A0809",
"9  c #530404",
"0  c #5C0304",
"q  c #5C0708",
"w  c #411414",
"e  c #421719",
"r  c #401B1B",
"t  c #630304",
"y  c #6B0304",
"u  c #680408",
"i  c #740304",
"p  c #7C0203",
"a  c #412121",
"s  c #452829",
"d  c #473C3C",
"f  c #483D3E",
"g  c #454545",
"h  c #4E4545",
"j  c #474848",
"k  c #4A4A4A",
"l  c #514646",
"z  c #4E5051",
"x  c #535454",
"c  c #5B5656",
"v  c #57595A",
"b  c #5D5A5B",
"n  c #616262",
"m  c #6B6B6C",
"M  c #737373",
"N  c #797778",
"B  c #7B7B7B",
"V  c #850303",
"C  c #8C0304",
"Z  c #920203",
"A  c #9B0304",
"S  c #A30203",
"D  c #AC0304",
"F  c #B30203",
"G  c #BC0203",
"H  c #C40203",
"J  c #CD0102",
"K  c #D00102",
"L  c #F66B09",
"P  c #FA930F",
"I  c #FCAC0A",
"U  c #FAB305",
"Y  c #FCBC07",
"T  c #FDBB0B",
"R  c #FBA210",
"E  c #FCAC12",
"W  c #FEB717",
"Q  c #FEBB14",
"!  c #FA862A",
"~  c #FDC507",
"^  c #FDCB03",
"/  c #FDC30A",
"(  c #848484",
")  c #8C8E8E",
"_  c #978A86",
"`  c #8F9191",
"'  c #909090",
"]  c #9C9D9D",
"[  c #A29895",
"{  c #A7AAAA",
"}  c #AAABAC",
"|  c #AFB1B2",
" . c #B4B5B5",
".. c #BABBBA",
"X. c #BEC1C0",
"o. c #C3C4C4",
"O. c #C7C9C8",
"+. c #C8C9C9",
"@. c #CDCFD0",
"#. c #D2D3D3",
"$. c #D5D8D7",
"%. c #DDDDDD",
"&. c #FDCEC5",
"*. c #E2E3E3",
"=. c #EBEBEB",
"-. c #FEEEEE",
";. c #FEF1ED",
":. c #FEEFF0",
">. c #F3F4F4",
",. c #FEF0F1",
"<. c #FFF8F4",
"1. c #FEFFFF",
/* pixels */
"                                                                                                    ",
"                                                                                                    ",
"                                                                                                    ",
"                                                                                                    ",
"                                                                                                    ",
"                                                                                                    ",
"                                                ;.;.,.;.,.      T T   / Q                           ",
"                                              ;.;.      -.-.&.  P I T ~                             ",
"                                              <.              !   L U T       W Q                   ",
"                                            _ [               E R T ^ ^ / T                         ",
"                                        @ % * 8 9 & @         W     ^ ^ Y T Q                       ",
"                                        5 D H H H C @                 ~                             ",
"                                        * D H J J A $             W     W                           ",
"                                        X O & 6 9 5 o             Q             Q Q                 ",
"                                        . . X X O O O % @                         / /               ",
"                              @   @ o $ 5 i Z S D F F A C 9 @ % O O +                               ",
"                            @ * O 6 5 9 H J K J K J J J K C * V % 6 *                               ",
"                            $ i y V * i J J J J J J J J J A % V C C * o                             ",
"                            X 5 i 5 5 G J J J J J J J J J H 0 * 0 * . X                             ",
"                          o . . o 9 D J J J J J J J J J J J G i 5 5 8 u %                           ",
"                        $ i u 8 9 i H J J K J H H H J J J J J C 8 F H J p O                         ",
"                      + u H J J y 6 H G Z y 9 8 = * 8 t C F J S i H J J H 9                         ",
"                      & F J J J H D i w l N ]  .v n { B h > 0 S J J J J J A $                       ",
"                      t J J J J S & 3 ..>.1.1.1.( ( 1.1.>.+.B < q F J J J H 5                       ",
"                    $ Z K J J A > z v 1.1.1.1.1.( B 1.1.1.1.1.] # 7 D J J J i O                     ",
"                    & F J J D - ] ..x >.1.1.1.1.' M 1.1.1.1.1...g m 6 H J J Z $                     ",
"                    6 H J J 0 m 1.o.k >.1.1.1.1.] m 1.1.1.1.1.#.j $.f C K J S $                     ",
"                    9 J J F , @.1.O.k >.1.1.1.1.} n <.1.1.1.1.%.g %.) 0 J J D $                     ",
"                    9 J J Z h >.1.#.j =.1.1.1.1. .x <.1.1.1.1.=.j $...7 H K S $                     ",
"                    5 H J C b 1.1.$.g *.1.1.1.1. .k >.1.1.1.1.>.k O.#.w G J Z O                     ",
"                    * G K Z l >.1.%.j *.1.>.| b 2 ; N *.1.1.1.<.v ..} 8 H K i o                     ",
"                    $ A K F > o.1.*.j %.+.c 7 p S A 9 f +.1.1.1.b ` h V J H 8                       ",
"                    O u J J p h +.#.4 c , i G J J J H p 1 ' $.%.x : q H K D $                       ",
"                      & D J H p w s = 0 D J J J J J J J A 9 r a 7 i H J H u O                       ",
"                      O u H J J G D G J J J J J J J J J J H G F H J J J S %                         ",
"                        $ C J J J J J J J J J J J J J J J J J J J J J G 5                           ",
"                          % A J H J J J J J J J J J J J J J J J J J H 0 +                           ",
"                            % C J J J J J J J J J J J J J J J J K F 9 @                             ",
"                        O     $ t F J K J J J J J J J J J J J H A * +     o                         ",
"                      @ * %     o % i D H J K J J J J J J G Z 6 o @     $ 5 @                       ",
"                        8 y & & & @ . $ 6 i Z S S S A V 0 & X . $ = & & q t O                       ",
"                        $ 8 * & % o . . . . X X o o X . . . . . o $ % & 8 $                         ",
"                    $ X . . . . . . . . . . . . . . . . . . . . . . . . . . X X @                   ",
"                        + o o X X X X X X X X X X X X . X X X X X o o o o o o                       ",
"                                                                                                    ",
"                                                                                                    ",
"                                                                                                    ",
"                                                                                                    ",
"                                                                                                    ",
"                                                                                                    "
};
