/* XPM */
static char *___1__resized[] = {
/* columns rows colors chars-per-pixel */
"50 50 114 2 ",
"   c None",
".  c #020101",
"X  c #0B0203",
"o  c #130405",
"O  c #1B0404",
"+  c #190C0D",
"@  c #1C1515",
"#  c #17191A",
"$  c #1A1819",
"%  c #230404",
"&  c #2B0304",
"*  c #270D0D",
"=  c #330304",
"-  c #3B0304",
";  c #330608",
":  c #3F0709",
">  c #3E0F10",
",  c #3D1314",
"<  c #3A1E1F",
"1  c #381F20",
"2  c #342526",
"3  c #3F2524",
"4  c #362A2A",
"5  c #3E2C2C",
"6  c #373234",
"7  c #3D3D3D",
"8  c #440405",
"9  c #4B0405",
"0  c #450A0A",
"q  c #4A0A0C",
"w  c #540404",
"e  c #5C0304",
"r  c #530807",
"t  c #400F10",
"y  c #421010",
"u  c #640304",
"i  c #6C0203",
"p  c #720304",
"a  c #7D0304",
"s  c #422223",
"d  c #412F31",
"f  c #403B3B",
"g  c #424243",
"h  c #4D4343",
"j  c #4C4C4C",
"k  c #534848",
"l  c #575555",
"z  c #595454",
"x  c #5A5B5B",
"c  c #5E6060",
"v  c #656464",
"b  c #686766",
"n  c #6B6A6A",
"m  c #717171",
"M  c #7B7B7C",
"N  c #830304",
"B  c #8B0303",
"V  c #940203",
"C  c #9C0204",
"Z  c #A30204",
"A  c #AC0203",
"S  c #B20203",
"D  c #BD0203",
"F  c #C30203",
"G  c #CC0101",
"H  c #D00102",
"J  c #F62505",
"K  c #F52E08",
"L  c #F45B0B",
"P  c #F67A0A",
"I  c #F68A08",
"U  c #F79B09",
"Y  c #F99908",
"T  c #FB9110",
"R  c #F9A10D",
"E  c #FAAD0C",
"W  c #FBB407",
"Q  c #FCB00B",
"!  c #FEBC0E",
"~  c #FDAC13",
"^  c #FEBC13",
"/  c #FEB51E",
"(  c #FEB81A",
")  c #F99121",
"_  c #FEB122",
"`  c #FDC106",
"'  c #FDC904",
"]  c #FDC20B",
"[  c #858585",
"{  c #878788",
"}  c #868A8B",
"|  c #8B8C8B",
" . c #939595",
".. c #9C9C9C",
"X. c #A09290",
"o. c #9FA0A2",
"O. c #A2A5A4",
"+. c #BBBCBC",
"@. c #BDC0C1",
"#. c #C2C2C2",
"$. c #C6C8C9",
"%. c #CCCDCD",
"&. c #D3D4D3",
"*. c #D7D9D8",
"=. c #DADCDC",
"-. c #FFDBDD",
";. c #E1E2E2",
":. c #E6E8E7",
">. c #E7E9E9",
",. c #EBEBEB",
"<. c #FFF0EE",
"1. c #F3F3F3",
"2. c #FEF2F3",
"3. c #FFFFFF",
/* pixels */
"                                                                                                    ",
"                                                                    ^                               ",
"                                                                    ]                               ",
"                                                                    ] ]   ~                         ",
"                                                                      ' W ` !                       ",
"                                                                (     W Y I E                       ",
"                                                                      W L K P ~                     ",
"                                                                    ! ` P J L R                     ",
"                                                                      T Q Y )                       ",
"                                                                    _     ]   -.2.                  ",
"                                                                                  2.                ",
"                                                                                  2.                ",
"                                                                                    <.              ",
"                                                                                    2.              ",
"                                                          O O                       2.              ",
"                                            O % = - 8 = O u & X o           & = O X.2.              ",
"                                        % 8 a C S F F B - B - O X X X     O N D a 3                 ",
"        /                           O 8 B F G G G G G C ; N B N & . w 9 o r F H F e o               ",
"                                  % u D G G G G G F G F e = w = . & A F i ; e p 9 O o               ",
"                                % a F G G G D D F G G H V 8 - O - C G G F B o . . . O               ",
"                              % a G G G C e 0 , y w V F V e D S D G G G G G a X . O                 ",
"                            O u F G D u 5 M +.+.v # 4 9 C D G G G G G G G G F e o                   ",
"                            - D G F u z =.3.+.z l +.;.} 1 i F G G G G G G G H S =                   ",
"                          O N G H A s =.;.m g ..1.3.3.3.$.j w D G G G G G G G G a O                 ",
"                          - D G G N l ..g m =.3.3.3.3.3.3.:.v r D G G G G G G G D -                 ",
"                        o u G G H a $ j +.3.3.3.3.3.3.3.3.3.;.6 e G G G G G G G G i O               ",
"                        O B H G G C 2 *.3.3.3.3.3.3.3.3.3.*.v g 2 V G G G G A C F C %               ",
"                        % Z H G G D q { 3.3.3.3.3.3.3.1...7 M ,.O.0 D G G C = O - a %               ",
"                        & S G G G G A > n +.>.3.3.3.%.x j +.3.3.1.k B H S & X e - r &               ",
"                      o & S G G G G G A i > d n +.{ 7 { ,.3.3.3.3.O.9 G V . & N & ; %               ",
"                    X . O S G G G G G G G D Z i * g %.3.3.3.3.3.3.=.s S Z % = B w & X               ",
"                  O & X O C G G G G G G G G G H a h 1.3.3.3.3.3.3.1.h V B & & w u % o               ",
"                  & e + O a H G G G G G G G G G S , $.3.3.3.3.3.,.[ @ B F Z C e 9 & O               ",
"                  & u +   e G G G G G G G G G G G 9 O.3.3.3.3.#.j x 7 B H G H G D 8                 ",
"                  & i %   & A G G G G G G G G G G u | 3.3.,.[ 7  .,.h C G G G G Z %                 ",
"                  % a ;   O i G G G G G G G G G G i M 3.#.j x &.3.*.< A G G G G u +                 ",
"                % r r O     ; A H G G G G G G G G a l { 7  .1.3.3. .9 G G G G Z &                   ",
"                o %         o e F G G G G G G G G C + x %.3.3.3.*.5 V G G G D 9                     ",
"                              % a G G G G G G G G D 8  .3.3.3.%.h u G G G F u O                     ",
"                                % B G G G G G G G G V , v | b < i F G H F u O                       ",
"                                  & a F G G G G G G G A i u p Z G G H S r O                         ",
"                                    % e A G G G G G G G G G H G G F B = O   O O                     ",
"                                  + O X O e V D G G G G G G F A a - X o % + 8 8                     ",
"                o o X X X . . . . . . . . . o & w u p u u e - O . . . . ; 9 a &                     ",
"              o X . . . . . . . . . . . . . . . . . . . . . . . . . . X o O O X O                   ",
"                          O o o o o + o o o o o o X o o o o                                         ",
"                                                                                                    ",
"                                                                                                    ",
"                                                                                                    ",
"                                                                                                    "
};
