/* XPM */
static char *___1__resized[] = {
/* columns rows colors chars-per-pixel */
"50 50 99 2 ",
"   c None",
".  c #020102",
"X  c #0B0303",
"o  c #140405",
"O  c #1C0404",
"+  c #150809",
"@  c #1B0F0F",
"#  c #1A1112",
"$  c #230404",
"%  c #2A0405",
"&  c #220A0A",
"*  c #330304",
"=  c #3B0304",
"-  c #370E0F",
";  c #3E1516",
":  c #381D1E",
">  c #292B2B",
",  c #372021",
"<  c #3D2424",
"1  c #3E292A",
"2  c #3D3D3D",
"3  c #430304",
"4  c #4C0405",
"5  c #440D0D",
"6  c #480909",
"7  c #540304",
"8  c #5C0304",
"9  c #5B0708",
"0  c #401D1D",
"q  c #630404",
"w  c #6B0304",
"e  c #750405",
"r  c #7C0203",
"t  c #402F2F",
"y  c #423434",
"u  c #4A3E3E",
"i  c #444544",
"p  c #484547",
"a  c #4B4C4C",
"s  c #504444",
"d  c #514A4B",
"f  c #5A4C4C",
"g  c #535152",
"h  c #5A5656",
"j  c #5D5C5C",
"k  c #606060",
"l  c #6C6C6C",
"z  c #737373",
"x  c #7C7C7C",
"c  c #850203",
"v  c #8B0304",
"b  c #940204",
"n  c #9A0102",
"m  c #A20303",
"M  c #AB0203",
"N  c #B30304",
"B  c #BB0203",
"V  c #C30203",
"C  c #CC0102",
"Z  c #D00102",
"A  c #F52105",
"S  c #F43F07",
"D  c #F76C0B",
"F  c #F6721B",
"G  c #F7840B",
"H  c #F88208",
"J  c #F6930B",
"K  c #FA9A0E",
"L  c #FBAD0C",
"P  c #FCBA0B",
"I  c #FCAE13",
"U  c #FEB41D",
"Y  c #FEB818",
"T  c #FEAD2C",
"R  c #FDC10A",
"E  c #848484",
"W  c #8A8B8B",
"Q  c #979897",
"!  c #999A9A",
"~  c #A1A3A4",
"^  c #AAACAC",
"/  c #B3B4B4",
"(  c #BEC1C1",
")  c #C2C2C2",
"_  c #C7C9CA",
"`  c #CACBCB",
"'  c #CFD0D0",
"]  c #D2D2D2",
"[  c #D6D8D8",
"{  c #DBDCDC",
"}  c #FEDADA",
"|  c #E4E5E5",
" . c #E6E8E8",
".. c #EBEBEB",
"X. c #FEEFEC",
"o. c #FEF1EE",
"O. c #F3F3F3",
"+. c #FFF3F2",
"@. c #FFFFFF",
/* pixels */
"                                                                        T                           ",
"                                                                                                    ",
"                                                                                                    ",
"                                                                                                    ",
"                                                                                                    ",
"                                                                                                    ",
"                                                                                                    ",
"                                                                                                    ",
"                                                                                          U         ",
"                                                                                      Y             ",
"                                                                                      P R           ",
"                                                            U                           P R   R     ",
"                                                                                        P G G J L   ",
"                                                                                      U P H A S L U ",
"                                                                                          K D F     ",
"                                                                                            I   }   ",
"                                              O % 3 8 q q q 8 4 O o $                           o.  ",
"                                          O = e M V V C C C C N * q 7 X                         o.  ",
"                                        % e B Z C C C C C C C n * c 4 X X o                     +.  ",
"                                      = m C C V M n b M V C Z m * c c r % % $     O % $       +.    ",
"                                    = M Z V c 5 < u u 1 5 v C B * $ 7 3 3 M w O O q N r %   +.+.    ",
"                        & % o     * M C C r 1 ^ | O.{ ! > + w M 3 + O 7 M C V q O v Z C w f         ",
"                      = 9 * X . O b C C m < ` O./ z p g W / h 8 N M N V C C C B = O e M N *         ",
"                $ $ & q $   + . q C C C w p E i a W ` O.@.@. .h 8 V C C C C C C n + . $ 3 %         ",
"                * 9 q =       $ M C C C 8 > x ) O.@.@.@.@.@.@.| a w C C C C C C V 7 . . . X         ",
"                  $ % O       8 C C C C q z @.@.@.@.@.@.@.@.@.@.' 1 n C C C C C C b X X o           ",
"                            O c C C C C n t { @.@.@.@.@.@.@.@.@.@.W 3 V C C C C C B *               ",
"                            & M C C C C C q d ' @.@.@.@.@.@.@.{ ! p @ b Z C C C C V 4               ",
"                            * N C C C C C V w : x { @.@.../ l i j / x 8 C C C C C C 8               ",
"                            = B C C C C C C V m 7 1 ~ x p g W ] @.@._ ; N C C C C C w               ",
"                            = B Z C C C C C C C C e # z ) O.@.@.@.@...y m C C b 4 8 9               ",
"                            * B C C C C C C C C C V 5 ( @.@.@.@.@.@.@.h c Z M * 7 * O               ",
"                            % M C C C C C C C C C C 7 ~ @.@.@.@.@.@.@.l e Z w 3 r $ o               ",
"                            O v Z C C C C C C C C V 4 ^ @.@.@.@.@.@...h r V = 8 r * o               ",
"                              q C C C C C C C C C V 5 ) @.@.@.@.] E i # b c X % e q O               ",
"                              * N C C C C C C C Z N : { @. .^ k i z ! : M r X X X X O               ",
"                              O w C C C C C C C C M < / E i g Q { @.~ 4 V N * X X X                 ",
"                                % m Z C C C C C C N & 2 z ( O.@.@. .u c C C N e O                   ",
"                                  3 N C C C C C C B - / @.@.@.@.O.z 7 V C C V e O                   ",
"                                  O 7 B C C C C C C w g [ O.O._ j 6 N C C C c $                     ",
"                                    O 4 M C C C C C B q < p u 0 w B C C V e $                       ",
"                                        = v V Z C C C C M n n N C C C M 7 O     O                   ",
"                                        & + 3 v B V C C Z Z Z C V m q $ +     $ 3 O                 ",
"                        + o o X X X X . X . . X % 7 e c c c r 8 = o . . . o % 8 q +                 ",
"                o X X . . . . . . . . . . . . . . . . . . . . . . . . . . X % 3 O . X +             ",
"                    + + o o X X X X X X X X X X X X . X X X X X X X X o + o o o + o                 ",
"                                                                                                    ",
"                                                                                                    ",
"                                                                                                    ",
"                                                                                                    "
};
