/* XPM */
static char *___1__resized[] = {
/* columns rows colors chars-per-pixel */
"50 50 104 2 ",
"   c None",
".  c #030102",
"X  c #0C0203",
"o  c #130303",
"O  c #1C0505",
"+  c #160807",
"@  c #130608",
"#  c #180508",
"$  c #1E1111",
"%  c #230404",
"&  c #2D0304",
"*  c #240C0D",
"=  c #330304",
"-  c #3B0304",
";  c #390807",
":  c #3A0D0E",
">  c #3E1719",
",  c #3A1B1C",
"<  c #3D1F20",
"1  c #1F2121",
"2  c #322424",
"3  c #3B2324",
"4  c #3A2B2D",
"5  c #2E3030",
"6  c #363939",
"7  c #383839",
"8  c #430404",
"9  c #4B0304",
"0  c #450608",
"q  c #420B0C",
"w  c #4B0809",
"e  c #530405",
"r  c #5C0304",
"t  c #401314",
"y  c #640304",
"u  c #6D0203",
"i  c #730203",
"p  c #7D0304",
"a  c #432828",
"s  c #43302F",
"d  c #433434",
"f  c #483436",
"g  c #473638",
"h  c #443A3C",
"j  c #4A3D3D",
"k  c #444444",
"l  c #4B4545",
"z  c #4C4C4C",
"x  c #524949",
"c  c #555657",
"v  c #585053",
"b  c #5D5D5D",
"n  c #636363",
"m  c #6D6D6D",
"M  c #747373",
"N  c #797979",
"B  c #850204",
"V  c #8C0303",
"C  c #930303",
"Z  c #9C0203",
"A  c #A30203",
"S  c #AB0203",
"D  c #B10304",
"F  c #BB0203",
"G  c #C40203",
"H  c #CC0101",
"J  c #D00102",
"K  c #F43107",
"L  c #F53D06",
"P  c #F45C09",
"I  c #F6750A",
"U  c #F79709",
"Y  c #FA950B",
"T  c #F8990C",
"R  c #FBAC0B",
"E  c #FBB107",
"W  c #FAB00B",
"Q  c #FEBF0D",
"!  c #FDBC10",
"~  c #FEB61E",
"^  c #FCBA26",
"/  c #FEC607",
"(  c #FDC10B",
")  c #7E7F80",
"_  c #838484",
"`  c #8D8E8E",
"'  c #969798",
"]  c #9A9C9C",
"[  c #ACACAD",
"{  c #B4B5B5",
"}  c #BABCBB",
"|  c #C5C6C6",
" . c #C9CACA",
".. c #D3D4D4",
"X. c #DBDDDC",
"o. c #FDDAD6",
"O. c #E4E5E5",
"+. c #ECECEC",
"@. c #F0E3E1",
"#. c #EEF0EF",
"$. c #EEF0F0",
"%. c #F2F2F2",
"&. c #FEF2F0",
"*. c #FFFFFF",
/* pixels */
"                                                                                                    ",
"                                                                                                    ",
"                                                                                                    ",
"                                                                                                    ",
"                                                                                                    ",
"                                                                                                    ",
"                                                                                                    ",
"                                                                                                    ",
"                                                                            ~                       ",
"                                                                              ~                     ",
"                                                                                ~                   ",
"                                                                                                    ",
"                                                                                                    ",
"                                                                                          !         ",
"                                  O % & ; = & % O   # O O                                 /         ",
"    O o                     + & e p Z S D D D S V - & y %                                 W T T (   ",
"    # = O $ O %           * y S G J H H H H H J G e y i o o                               Y K I R   ",
"    O = % e y e %     O q C G J J H J J H H G J G 9 y C i 8 o                           ! U L P R   ",
"      % 0 - % = O   # 9 D H H D B i u V F H H H H i O r u & o %                             R E Q   ",
"      O O     @ X X 9 F H H V t v M M l : V G J A & o X o O p B %         #                 ^ (     ",
"              + . = S H H A a } *.#.| N 1 $ i G A y Z C Z D H H u O # % 8 e %             o.        ",
"                o C H H H y N  ._ l k m [ } h y G G H H J J H H F 8 . y G G 8           &.          ",
"                e G H H G 0 6 k M } +.*.*.*...d p H H H H H G H H C o & S J i d   &.&.&.            ",
"              % Z H H H G 0 _ O.*.*.*.*.*.*.*.| 3 C H H H H H H H G - . e G C d @.                  ",
"              - F H H H H y M *.*.*.*.*.*.*.*.*.] : F H H H H H H H p . . r C %                     ",
"              r H H H H H S , } *.*.*.*.*.*.*.*.%.l i H H H H H H J A o . . = O                     ",
"            + i H H H H H H B 3 ' $.*.*.*.*.%.} M 5 ; F H H H H H H D % X X @                       ",
"            O B H H H H H H H Z w x | *...` z z _ | j C H H H H H H F -                             ",
"            o V J H H H H H H H G i 3 c k m { +.*.*._ y H H H H H H G -                             ",
"            O B H H H H H H H H H H y k X.*.*.*.*.*.} q G H H H H A C =                             ",
"            + u H H H H H H H H H J A d +.*.*.*.*.*.X., D J H G y = & o                             ",
"              e G H H H H H H H H J S a O.*.*.*.*.*.+.f A J G u = p e @                             ",
"              = F H H H H H H H H H S a O.*.*.*.*.*.| 4 A H F ; i y o #                             ",
"              O V J H H H H G H H J S a +.*.*.+.[ n 7 * Z u i O y p = #                             ",
"                9 G H H H H H H H H Z j +..._ l x ] [ : S e r X o - &                               ",
"                O p H H H H H H H H A 2 b k m } %.*.` e G G F 0 . .                                 ",
"                  = A J H H H H H H S * _ X.*.*.*.O.g Z H H H D = +                                 ",
"                    - S H H H H H H G w ] *.*.*.+.n r G H H G i %                                   ",
"                      - Z H H H H H H Z , _ { ] l e F H J F u %                                     ",
"                        & B G H H H H H A r w e B G H H S e O                                       ",
"                          O 0 C F H J J J H H H J G Z u % O   % ; %                                 ",
"              O o @ @ X X X . X = r B Z S S A C i 8 @ . . X + r e @                                 ",
"      X X . . . . . . . . . . . . . X X o o X X . . . . . . % e o . . . X O                         ",
"      + X o X X X X . . . . . . . . . . . . . . X . . X X X X X X o o X +                           ",
"                                                                                                    ",
"                                                                                                    ",
"                                                                                                    ",
"                                                                                                    ",
"                                                                                                    ",
"                                                                                                    "
};
