/* XPM */
static char *__resized[] = {
/* columns rows colors chars-per-pixel */
"50 50 173 2 ",
"   c #0B0A0F",
".  c #150D0D",
"X  c #0D0B12",
"o  c #100F18",
"O  c #141014",
"+  c #1E1512",
"@  c #13121C",
"#  c #1C141A",
"$  c #201412",
"%  c #281116",
"&  c #241815",
"*  c #2C1C16",
"=  c #241A1C",
"-  c #2A1F1C",
";  c #36171B",
":  c #39181B",
">  c #2E241E",
",  c #362719",
"<  c #36251E",
"1  c #39271E",
"2  c #3C291F",
"3  c #151422",
"4  c #191824",
"5  c #161729",
"6  c #16192C",
"7  c #1B1C2C",
"8  c #191F3B",
"9  c #221C22",
"0  c #291F20",
"q  c #381923",
"w  c #1F2233",
"e  c #19213C",
"r  c #1F323D",
"t  c #242524",
"y  c #292420",
"u  c #2F2821",
"i  c #2D232E",
"p  c #362322",
"a  c #382720",
"s  c #3D2920",
"d  c #332B28",
"f  c #34352F",
"g  c #212334",
"h  c #2D2530",
"j  c #292B33",
"k  c #25283C",
"l  c #263334",
"z  c #2E3132",
"x  c #23353B",
"c  c #2D363E",
"v  c #461F0F",
"b  c #480F1E",
"n  c #54161D",
"m  c #4B2C16",
"M  c #432C1E",
"N  c #492E1C",
"B  c #552E16",
"V  c #4F3316",
"C  c #4B301E",
"Z  c #583915",
"A  c #53341F",
"S  c #5A371F",
"D  c #5E381E",
"F  c #6E3A0E",
"G  c #77360B",
"H  c #662A10",
"J  c #79271B",
"K  c #623E15",
"L  c #63391D",
"P  c #683A1C",
"I  c #783A16",
"U  c #441821",
"Y  c #452E21",
"T  c #492F21",
"R  c #53202C",
"E  c #473021",
"W  c #4C3221",
"Q  c #523521",
"!  c #583720",
"~  c #463234",
"^  c #4C3431",
"/  c #543236",
"(  c #5C3339",
")  c #6A3232",
"_  c #643A3E",
"`  c #674413",
"'  c #764611",
"]  c #58433C",
"[  c #1A2344",
"{  c #1B2448",
"}  c #282C42",
"|  c #2B3146",
" . c #2D3048",
".. c #30344E",
"X. c #323752",
"o. c #343956",
"O. c #373C59",
"+. c #393E5D",
"@. c #2C474C",
"#. c #32464B",
"$. c #384F57",
"%. c #36425A",
"&. c #325459",
"*. c #3B4462",
"=. c #3C4C65",
"-. c #3D4F68",
";. c #3C5569",
":. c #376168",
">. c #3E6D74",
",. c #3F7078",
"<. c #524A49",
"1. c #584C55",
"2. c #575558",
"3. c #6D4245",
"4. c #79444B",
"5. c #755350",
"6. c #405A6F",
"7. c #705B67",
"8. c #416574",
"9. c #436778",
"0. c #436B7A",
"q. c #42747C",
"w. c #6F7279",
"e. c #872F17",
"r. c #873710",
"t. c #873514",
"y. c #A13E16",
"u. c #9A4816",
"i. c #8B5413",
"p. c #A5450C",
"a. c #A34111",
"s. c #B74A14",
"d. c #AF5616",
"f. c #AA6312",
"g. c #C85D19",
"h. c #D45616",
"j. c #E55C10",
"k. c #C4640E",
"l. c #C86A13",
"z. c #D56916",
"x. c #D57411",
"c. c #EC620E",
"v. c #F2660C",
"b. c #F26A0C",
"n. c #FB6B0A",
"m. c #FC730C",
"M. c #FC790E",
"N. c #ED6B10",
"B. c #8C6C61",
"V. c #956A65",
"C. c #9A6966",
"Z. c #9E7B6F",
"A. c #A67571",
"S. c #FF8211",
"D. c #467581",
"F. c #477D85",
"G. c #487F87",
"H. c #488088",
"J. c #83878E",
"K. c #8E9299",
"L. c #999EA6",
"P. c #A2A7AF",
"I. c #B0ADB8",
"U. c #C99C8D",
"Y. c #D39D91",
"T. c #DDA397",
"R. c #DCAC9C",
"E. c #E4AF9F",
"W. c #E3B1A0",
"Q. c #EBB6A4",
"!. c #B5BAC3",
"~. c #BCC1CA",
"^. c #DBE1EB",
/* pixels */
"Q W Q Q W s s s s p p < Y A D L L D ! Q Q Q W W Q Q E E E Y E s E s E Y Y Y E E E E E E E E Y s s W ",
"Q W Q Q W Y Y Y Y Y s 2 < < s W ! L L L S Q W W Q W E E Y Y E E Y E E E Y Y s E s E E s s E Y Y W W ",
"Q W Q Q E E E Y Y E Y Y Y a < < 2 E Q L L D Q W Q W E E E s Y E E E Y Y Y Y Y Y Y Y E Y E E E W Q Q ",
"Q Q Q Q E Y Y Y E Y Y Y E E s < < < < Y S L ! W E W M s E E Y Y s Y E Y E Y Y Y Y E Y Y E E W Q Q W ",
"Q Q W Q W Y Y Y Y Y Y Y Y Y Y s < < < < E L C M K M Z m a 2 Y Y Y Y E Y E Y Y Y Y Y E E E W Q Q ^ W ",
"Q Q W Q Q W Y Y Y Y Y E Y Y Y Y 2 p a < M A Z ' g.u.k.y.H & M Y Y Y Y Y Y Y Y Y Y Y W W W Q Q W C W ",
"Q ! Q W W Q W Y Y Y Y Y Y Y Y T Y < a < M V l.b.v.n.v.j.s.m < Y Y Y Y Y Y Y E Y E E W Q Q Q W W W ! ",
"Q S D Q W W Q W E Y Y Y Y E Y Y E 2 < s M ` M.n.n.n.n.n.n.x.i.2 Y Y Y Y E Y E W W W Q Q Q W W Q W W ",
"Y Q L S W W Q Q W Y Y Y Y Y Y Y E E s W 2 f.m.n.n.n.n.n.c.h.N.i.2 E Y Y E W W Q ! W W W W Q W W E E ",
"Y Q D S W W Q Q Q Q E Y Y Y Y Y E W Q ! , x.S.m.n.n.v.n.n.z.d.F M Q Q Q Q W Q W W W E s W Q W Y E E ",
"Y Q L S W W Q Q Q Q W W Y Y T W W Q A C , l.k.v.n.m.g.j.n.m.z.D C Q Q W W W W W W W W W W W E Y E E ",
"Y W L S Q W W Q Q Q Q Q W W Q Q W W C A A G r.J p.j.l.t.c.j.e.* W W W W W W Q Q Q Q Q Q Q W Y Y E s ",
"Y W L ! Q Q W Y Q Q Q Q Q Q Q T W W Q ! S m v : 7.) s.' a.r.% & 2 Y W Q S D D D ! ! Q W Q W E Y E s ",
"Y W S D Q Q W s E W Q Q Q Q T Y W Q Q W 2 , ~ A.R.A._ R n I , < 1 T Q Q L L L P P L ! W Q W E E E E ",
"Y E Q S Q Q W s Y Y W T W T Y Y Q Q W 2 < > Z.Q.Q.Q.E.3.b * , < Y W Q ! C Y Y C ! P ! Q W W E Y E Y ",
"Y Y Q ! Q W E W W W W W W Y p T Q Q E E M 2 ] W.Q.Y.C.: : C T p T Q Q Y < < < < E ! L ! W W Y Y Y Y ",
"Y E W Q Q W W Q Q Q Q Q Q W Y W Q W Y Y E E < V.C.( ( _ : Q E 2 W Q W a a p < < < Y L S W W W Y Y Y ",
"Y E W Q W W ! Q ! D L ! Q Q W W Q W Y Y s E s < & ^ 4.U : W M Y Q Q E s 2 2 a < < a A D Q W E E E Y ",
"Y Y W Q W W S P P P P P S Q W Q W E Y Y Y Y E M 2 q U q c 2 T T Q W E Y E Y s < < < Y D Q Q E Y Y Y ",
"Y Y W W W ! D S W W Q L P ! Q W W E Y Y E E E M , ; #.>.q.z M W W W Y Y E Y E Y 2 < 2 S ! W E Y Y Y ",
"Y Y W W Q S Y p < s s W D L Q W Q E E E s E C 2 % $.F.F.H.&., Q Q W Y Y Y Y Y Y Y < 2 C ! Q Y Y Y Y ",
"E Y W W Q T < < < < < s W D ! W W Q W E W W C * j q.8.F.G.q.> W Q W Y Y Y Y Y Y Y Y p N Q Q W Y E Y ",
"Y Y W W W Y Y s 2 1 1 < E S D W W W Q Q Q Q M @.q.>.| q.H.,.t M Q W E Y Y Y Y Y Y Y 2 Y Q Q W Y Y Y ",
"Y E W W W Y Y Y Y s 2 < s Q D W W W ! Q Q Q d ,.F.%.w 0.H.0.y N W Q W E Y Y Y E Y Y s Y Q W Q E Y Y ",
"W W W Q E Y E Y Y Y Y p a W D Q W W Q ! S C #.F.D.%.g 9.F.>.u Q W W W Q W E E E s E E W W W Q Q E E ",
"Q W W W E Y Y Y Y Y Y Y p Y ! W W Q Q Q C < :.F.9.+.w 6.F.9.< Q Q W W W Q W E E Y E E W W W W W Q W ",
"Q Q Q W Y Y E Y Y Y Y Y 2 s ! Q W Q W M , l F.F.6.o.g *.H.q.f D D S Q W W W Q W E E W Q W W W W W Q ",
"Q Q Q Q E Y Y Y Y Y E Y s s W W W Q E 2 , x H.0.=.O.g 6.F.H.@.B P L D Q W W W W ^ Q Q W W W ! Q Q Q ",
"Q S L Q E Y Y Y Y E Y Y Y s W W W Q E E 2 j ;.=.+.+.k %.F.H.&.M S L P L S Q W W W W W W Q ! Q Q Q Q ",
"W S L L ! Q E Y Y E Y Y Y Y Q W Q W E E M + h j X.o.k | 9.F.q.t 2 C S D L ! Q Q W W W W Q Q Q Q ! Q ",
"E 2 Y A L ! Q W E E E Y Y E Q E Q W E Y 2 x d p p p =  .9.H.q.t < < s E S L ! Q W W W W Q Q Q Q W W ",
"Y Y p s ! D Q Q W E Y E E W Q E Q W E E < >.-. .h h 9 | =.0.q.t < < < < E S ! Q W W Q ! Q Q W E E E ",
"Y Y 2 < Y S Q W W Q W W Q Q W T Q Q W Y < >.D.*.%.+.}  .O.| | < < 1 < < 2 Q S W W Q Q Q Q W E Y Y Y ",
"Y Y s < 2 S S Y Y T Q Q Q W Y Y Q Q Q T 9 @.H.;.*.+.o.g i 5.d 2 < < 1 < < W Q W W Q Q Q W E Y Y Y Y ",
"Y Y E s s S S Y 1 s Y T T Y 1 s Q Q Q N 4 r F.0.+.+.*.} 3.T.B.1 s < < < s W Q W W ! W E Y Y E Y Y E ",
"Y Y Y s 1 S Q W Y W W W T Y s 1 M Q Q 2 5 r 8.=.+.O...7 / W.U.s s a < 1 W W W W Q W E E Y Y Y Y Y Y ",
"Y Y Y s s Q Q W Q Q Q Q Q Q Q Y 2 Y Q < e e 6 3 @ @ @ o # 5.^ 2 E a 2 E Q W W Q W E Y Y Y Y Y E Y Y ",
"Y Y Y Y s ! Q W Q ! L L L Q Q Q T s s 0 [ { e @ @ X o @ O $ s E E E W Q W E W Q E s E Y E Y Y Y Y Y ",
"E Y E s Y Q W Q ! ! T N S L S Q Q M , 7 { { 6 @ 3 X o @ @ * E W W Q Q W Y W Q E E E Y Y Y E Y Y E Y ",
"Y Y Y Y Y Q W S A s < p < W L ! Q Q M 7 { { 5 @ @ @   @ o * W W Q Q Q s s Q Q E Y Y Y Y Y Y Y Y Y Y ",
"Y Y E E W ! Q D Y 1 1 p 1 < N ! ! Q Q - [ [ 8 5 @ @ X @ @ & Q Q Q W Y 1 E Q W Y Y Y Y Y Y Y E Y Y Y ",
"Y Y Y W Q Q Q Q Y Y Y Y Y 1 p T S Q Q < [ [ { 6 @ @ X X @ O N Q W Y < s W Q Q T Y Y Y Y Y Y Y Y Y E ",
"E W W Q Q Q Q W Y Y Y Y Y Y Y 2 M Q Q M 6 { { 6 @ @ o X @ O T W s 1 1 1 E Q Q W E E E Y E E E s E E ",
"Q W Q W Q Q W E Y Y Y Y Y Y Y Y Y Q Q C 3 { e 3 @ @ @ X o @ * Y < < p p Y Q Q Q W E E Y Y E E W W Q ",
"Q Q Q W W Q W Y Y Y Y Y Y Y Y Y T Q Q W = 6 3 @ 3 @ @ X X o & s s Y Y T W E W Q Q Q Q Q W W Q Q W Q ",
"Q Q Q Q W Q W E Y Y Y Y Y Y Y T W Q W W 1 O o @ o @ @ 2.z + s Y T Q Q Q Q Q W E E W E W W W W E W W ",
"Q Q Q Q W Q Q W E Y Y E W W W Q Q W W W Q M * & & . 1.^.P.< W Q Q Q Q Q ! ! ! ! ! Q Q Q W Q W W W Q ",
"Q Q Q W W W Q Q W W W Q Q Q Q Q W W W Q ! Q W Q M ~ I.!.w.< Q ! ! L P P L L P D L L L L L ! Q Q Q Q ",
"Q W W W W W W Q Q Q Q W Q W E W Q Q Q Q Q Q W W <.K.J.K.L.Y L L L S A A W W C W W W A Q S D D S Q Q ",
"Q Q Q Q W W W W E E E E E W Q Q Q Q Q Q Q W Q N 2.J.~.^.!.Y ! W s 1 1 p < 1 1 1 1 1 s 2 s W Q D S Q "
};
