/* XPM */
static char *L2FhqD7_2__dragged__resized[] = {
/* columns rows colors chars-per-pixel */
"50 50 206 2 ",
"   c None",
".  c #050D1D",
"X  c #0D111F",
"o  c #060F21",
"O  c #0D1423",
"+  c #061024",
"@  c #111624",
"#  c #151924",
"$  c #1B1C24",
"%  c #151D2A",
"&  c #1B1C28",
"*  c #211C25",
"=  c #291F21",
"-  c #1C212B",
";  c #142523",
":  c #1B3529",
">  c #1A2230",
",  c #212126",
"<  c #2C2323",
"1  c #24242C",
"2  c #2D2829",
"3  c #322422",
"4  c #3D2A25",
"5  c #342F2A",
"6  c #342A25",
"7  c #233D29",
"8  c #3A3129",
"9  c #37302A",
"0  c #262D36",
"q  c #322D33",
"w  c #29333C",
"e  c #363431",
"r  c #5F331B",
"t  c #63361E",
"y  c #65381F",
"u  c #68391E",
"i  c #422B23",
"p  c #452B27",
"a  c #453325",
"s  c #4A3626",
"d  c #45392B",
"f  c #493829",
"g  c #5A3421",
"h  c #553926",
"j  c #463B32",
"k  c #613722",
"l  c #663920",
"z  c #6A3B21",
"x  c #733F23",
"c  c #1E412B",
"v  c #24542E",
"b  c #26592E",
"n  c #2A5D2F",
"m  c #2B5830",
"M  c #2D4D2D",
"N  c #36642F",
"B  c #386A32",
"V  c #3B7431",
"C  c #5D4127",
"Z  c #54432D",
"A  c #58452E",
"S  c #484238",
"D  c #454038",
"F  c #544C3C",
"G  c #54433C",
"H  c #6D4B28",
"J  c #674728",
"K  c #7E4527",
"L  c #724129",
"P  c #764727",
"I  c #7B5229",
"U  c #77522B",
"Y  c #6C5532",
"T  c #745731",
"R  c #765B35",
"E  c #6F4C3B",
"W  c #437C32",
"Q  c #2C3843",
"!  c #364248",
"~  c #384C51",
"^  c #43454A",
"/  c #5D4944",
"(  c #414F57",
")  c #46575C",
"_  c #655843",
"`  c #74574C",
"'  c #66534D",
"]  c #68744B",
"[  c #4E6C6C",
"{  c #516B70",
"}  c #577277",
"|  c #597479",
" . c #5B7777",
".. c #566F6A",
"X. c #6A7C7E",
"o. c #85492A",
"O. c #894B2A",
"+. c #824728",
"@. c #845729",
"#. c #865829",
"$. c #8A5B2A",
"%. c #935533",
"&. c #955C3A",
"*. c #8E5032",
"=. c #B94F38",
"-. c #95612A",
";. c #9F662A",
":. c #896635",
">. c #946C36",
",. c #956E38",
"<. c #9D743A",
"1. c #987038",
"2. c #8C612E",
"3. c #A16629",
"4. c #AD6D29",
"5. c #A5692A",
"6. c #B5722B",
"7. c #BD762B",
"8. c #BD782D",
"9. c #A97B3A",
"0. c #A37738",
"q. c #B36F29",
"w. c #C0523A",
"e. c #CF563B",
"r. c #D0573C",
"t. c #C27A2C",
"y. c #C97E2D",
"u. c #815D52",
"i. c #866454",
"p. c #966A58",
"a. c #92734F",
"s. c #A96B46",
"d. c #A6744F",
"f. c #A87562",
"g. c #B87C63",
"h. c #478332",
"j. c #4A8734",
"k. c #518639",
"l. c #B7863F",
"z. c #C9812F",
"x. c #C98432",
"c. c #CC8935",
"v. c #C58B3C",
"b. c #D18E38",
"n. c #CD933E",
"m. c #D5943C",
"M. c #DE9C3F",
"N. c #E29E3E",
"B. c #A78348",
"V. c #A38B58",
"C. c #B6995E",
"Z. c #AD8C53",
"A. c #AD846A",
"S. c #B6886B",
"D. c #BB9E61",
"F. c #BE9272",
"G. c #BFA162",
"H. c #CE9141",
"J. c #DD9E41",
"K. c #D29645",
"L. c #D29158",
"P. c #E09F41",
"I. c #DFA044",
"U. c #DBAA5A",
"Y. c #E3A142",
"T. c #E5A748",
"R. c #E3AC52",
"E. c #E3AF59",
"W. c #E3B35E",
"Q. c #D28765",
"!. c #CD936B",
"~. c #D5986D",
"^. c #C59876",
"/. c #DB9C74",
"(. c #DA9574",
"). c #C88362",
"_. c #ED9D74",
"`. c #DDB668",
"'. c #CFAA74",
"]. c #E6B661",
"[. c #E7BD6B",
"{. c #EABD69",
"}. c #EAAA77",
"|. c #EAC372",
" X c #E4C071",
".X c #677E81",
"XX c #6C8486",
"oX c #7C9490",
"OX c #849B99",
"+X c #A3A2A8",
"@X c #DCB08A",
"#X c #F5A481",
"$X c #F5AA83",
"%X c #FDAA85",
"&X c #F8A783",
"*X c #EEB588",
"=X c #ECB385",
"-X c #F4B98B",
";X c #FDBD8E",
":X c #F6B488",
">X c #FFBF90",
",X c #EBA580",
"<X c #FFC391",
"1X c #FFC799",
"2X c #FED7B9",
"3X c #F6EDEA",
/* pixels */
"                                                                                                    ",
"                                                                                                    ",
"                                                                                                    ",
"                                        O O O O O O O + O O O O O                                   ",
"                                        F F F F F F F Z Z Z Z Z Z 8                                 ",
"                                  @ O 7 `.|.|.|.|.|.W.N.P.P.Y.J.Y.Z O @ @                           ",
"              @ @ O           + F C.C.V.F S S S S S S f d d d d d I -.-.H O                         ",
"              @ 5 8           e _ !.D.C.d 5 9 9 8 8 9 8 8 9 9 9 5 I ;.3.I 6                         ",
"              @ 1.K.$ O   O , `.V.X @ , n.J.M.N.M.M.J.M.J.J.J.J.J.Z O O s y.s +                     ",
"              O 2.c.,.T + T >._ R >.>.<.U.W.W.E.W.W.W.W.I.I.J.J.I.9.:.@.H s H I -                   ",
"              O @.y.N.1.+ <.M.# Z T.Y.T. X X X X|.[.[.[.U.J.J.J.M.Y.N.y.#.+ #.6.* @                 ",
"              @ @.t.y.#.+ <.m.; Z J.W. XY.N.I.Y.Y.I.I.I.M.J.I.J.M.I.M.y.@.+ #.7.$ O                 ",
"              O @.7.H H R R T T <.W.E.U.I.J.J.J.Y.J.J.J.M.J.J.J.J.m.c.t.;.J J J J h                 ",
"              O @.q.$ Z T.Z $ m.R.|.R.P.J.J.J.J.J.J.I.J.J.J.J.J.J.x.7.7.7.y.s $ 7.#.@               ",
"              @ #.7.$ A T.A $ m.R.|.U.N.J.J.J.J.J.J.J.J.Y.J.J.J.J.x.7.7.7.t.s $ 6.@.@               ",
"              O J P # 8 1.a $ :.B.W.I.N.Y.J.J.J.J.J.J.J.J.J.J.J.I.x.7.7.7.t.s $ 6.@.@               ",
"                @ @ @ O O ; @ O A P.M.M.J.J.J.J.J.J.M.J.J.M.J.J.N.z.7.t.7.t.s $ 7.#.X               ",
"              O a.G.G.D.D.!.C.l.:.8 8 8 9 8 5 9.Y.Y.Y.Y.I.I.Y.m.t.t.7.7.7.t.s $ q.#.@               ",
"              O B.`.W.W.W.U.U.J.0.D S S S j d :.9.9.9.9.v.m.m.c.7.7.7.7.7.t.s $ 6.@.@               ",
"              @ @.7.t.t.8.8.t.7.n.|.|.|.|.].Y.h + @ O O @.y.7.t.t.t.l.7.7.t.s $ 6.@.@               ",
"                8 s s s d a a a T n.H.H.H.c.x.Z.V.V.B.<.J a a a a -.z.7.7.t.h $ 6.@.@               ",
"                O O O O O 1 q q Z 5.3.3.3.3.;.K. X].E.N.Y 0 5 5 2 I ;.;.4.t.s $ 6.@.@               ",
"                        @ f.#X&Xf.@ # # @ @ O @.z.t.t.t.U. X X`.J.Z O O s y.s $ 6.@.@               ",
"                    @ @ @ f.$Xu.G @ @ $ i.p.p.E C C C C d.K.K.m.x.d.a.:.T C < ; 6.#.O               ",
"                    * & & S.-Xq 1 1 1 q _.%X%X' $ $ # @ I q.q.4.4.U.{.Y.0.$ - 3 4.I O               ",
"                @ * =.w.=._.>X=X*X-X*X=X>X>X>X}.(.o.L t 3 # $ $ - 2.z.t.x.m.n.v.1 # O               ",
"                @ * w.r.r._.1X2X@Xp.@X;X<X>X<X:X,X%.K y ` ` ` j O h P H -.b.b.v.T Y Y d             ",
"                @ * w.r.r._.1X3X+X+ A.1X>X<X<X<X-X%.K t ).%X%Xg.O @ @ O a 8.6.8.N.N.Y.A O           ",
"                @ * w.r.r._.-X^ Q + A.1X<X<X<X<X-X%.K t Q.<X<XS.+ i g g s < 2 4 8.y.x.s O           ",
"                @ * w.r.r.Q.!.i 8 / ^.<X<X:X~./.~.O.L t p.S.F.i.< g x u g < # # I @.$.a O           ",
"                # * w.r.r.%.O.O.d.<X<X<X<X~.o.o.+.u l l < + + < u K o.l t u < @ @ @ @               ",
"                    p p p x *.O.%.s.s.s.s.&.z x z z k t d.^.S.d.K o.o.y g = *                       ",
"                    O @ O h L K K K K K K L l l k l L *./.>X%XQ.o.O.o.g p @                         ",
"                          @ $ k z z z z z z z z u r a.<X$X#X&XQ.o.O.+.& @                           ",
"                              3 3 3 3 3 3 3 3 < p Z.~.%X$X#X%Xg.4 4 4                               ",
"                              O @ O @ O @ O @ - w @X=X/./.(._.p.+ @ @                               ",
"                                            X ..OXk.j.k.B M , &                                     ",
"                                          Q ) ) ) W W N n b : :                                     ",
"                                        * ^ OX! # W V v v v b c @                                   ",
"                                    @ $ H.,.* m W h.V b : # v c @                                   ",
"                                    @ & :.R 7 V h.V N : c c v c @                                   ",
"                                    @ @ O 7 j.h.W b c O N h.b c @                                   ",
"                                    @ , F.'.@X] b ; ! XX ...[ ~ @                                   ",
"                                    @ 1 *X<X;X] c 0 ~ oXX.} .X) @                                   ",
"                                    @ 1 *X;X%X/ @ { } } } } | ~ @                                   ",
"                                        / / / 1 ; XXXX} ~ Q Q 0                                     ",
"                                        O @ > > 0 .XXX| Q > @ @                                     ",
"                                        O Q } } { % ~ OX.X[ $ @                                     ",
"                                      $ 4 f ' ! Q   w ( ' ` i 3 @                                   ",
"                                    @ $ t y u 3 O     @ g O.x s @                                   "
};
