/* XPM */
static char *L2FhqD7_3__dragged__resized[] = {
/* columns rows colors chars-per-pixel */
"50 50 211 2 ",
"   c None",
".  c #0A111F",
"X  c #0E1423",
"o  c #0E1A23",
"O  c #111624",
"+  c #141A24",
"@  c #1B1C25",
"#  c #1C1E29",
"$  c #151B29",
"%  c #090F20",
"&  c #211D25",
"*  c #1B212C",
"=  c #1B2827",
"-  c #1D2632",
";  c #1E3F2A",
":  c #232226",
">  c #2C2324",
",  c #22222B",
"<  c #2C2B2C",
"1  c #2A262E",
"2  c #312925",
"3  c #352E29",
"4  c #382925",
"5  c #3A302A",
"6  c #322C33",
"7  c #3C3833",
"8  c #62361E",
"9  c #68391F",
"0  c #4B2E21",
"q  c #402922",
"w  c #453326",
"e  c #4B3626",
"r  c #47382B",
"t  c #543221",
"y  c #5B3521",
"u  c #553C26",
"i  c #573D29",
"p  c #473F34",
"a  c #663920",
"s  c #6B3C21",
"d  c #663B26",
"f  c #713E23",
"g  c #7A3931",
"h  c #1E412A",
"j  c #2C4E2A",
"k  c #24552D",
"l  c #2B572D",
"z  c #2B483D",
"x  c #3C7431",
"c  c #31692F",
"v  c #5D4127",
"b  c #54432E",
"n  c #59462E",
"m  c #4B4339",
"M  c #454037",
"N  c #58493A",
"B  c #5B513E",
"V  c #634A2D",
"C  c #6A4528",
"Z  c #7C4426",
"A  c #724C28",
"S  c #764627",
"D  c #7C532A",
"F  c #75532C",
"G  c #634834",
"H  c #695436",
"J  c #765A34",
"K  c #437C31",
"L  c #2B3640",
"P  c #333E49",
"I  c #37414A",
"U  c #38434B",
"Y  c #37524C",
"T  c #5B4542",
"R  c #5B4C46",
"E  c #41555D",
"W  c #404B53",
"Q  c #625642",
"!  c #655543",
"~  c #78564E",
"^  c #48654F",
"/  c #76764E",
"(  c #7B6854",
")  c #556E74",
"_  c #5A7175",
"`  c #5D6F6D",
"'  c #647679",
"]  c #666870",
"[  c #814728",
"{  c #864A2A",
"}  c #894B2B",
"|  c #8B472D",
" . c #845729",
".. c #8B5B29",
"X. c #8E5B27",
"o. c #905D28",
"O. c #924234",
"+. c #855537",
"@. c #925433",
"#. c #995D3A",
"$. c #8B4033",
"%. c #AE5C3C",
"&. c #97642C",
"*. c #876334",
"=. c #926C36",
"-. c #986D35",
";. c #9B7137",
":. c #9E7438",
">. c #8D612E",
",. c #A16629",
"<. c #AD6D2A",
"1. c #A5692A",
"2. c #B5722B",
"3. c #BD762B",
"4. c #BF782B",
"5. c #A17538",
"6. c #A87A39",
"7. c #B4762F",
"8. c #C2533A",
"9. c #CF563B",
"0. c #D4583C",
"q. c #C37A2C",
"w. c #C87E2D",
"e. c #C27F30",
"r. c #976A5B",
"t. c #8F6C4E",
"y. c #B97B59",
"u. c #AA704C",
"i. c #977661",
"p. c #9F7B64",
"a. c #AD7A65",
"s. c #B07A65",
"d. c #468233",
"f. c #498635",
"g. c #41812F",
"h. c #5B8A55",
"j. c #BA863C",
"k. c #CA8432",
"l. c #CD8935",
"z. c #C38C3D",
"x. c #CB893A",
"c. c #D18E38",
"v. c #CE933E",
"b. c #D3933C",
"n. c #DB9A3F",
"m. c #DA973C",
"M. c #C9812F",
"N. c #E19C3E",
"B. c #8A9656",
"V. c #948B53",
"C. c #A2834D",
"Z. c #A58C59",
"A. c #A28957",
"S. c #B89859",
"D. c #AE8D53",
"F. c #AE876B",
"G. c #B4886C",
"H. c #BC9F62",
"J. c #D19541",
"K. c #DE9E41",
"L. c #D59A46",
"P. c #CB9E55",
"I. c #C98E41",
"U. c #E09F41",
"Y. c #DFA145",
"T. c #DBA54F",
"R. c #DBA857",
"E. c #E3A142",
"W. c #E4A84C",
"Q. c #E8A747",
"!. c #E2AB52",
"~. c #E3AF59",
"^. c #E2B25F",
"/. c #C88664",
"(. c #D18765",
"). c #C79667",
"_. c #DA9E72",
"`. c #D99575",
"'. c #D29870",
"]. c #EA9C78",
"[. c #F19E74",
"{. c #CAAA66",
"}. c #D2AD73",
"|. c #E2B360",
" X c #E6BC6B",
".X c #E8BB68",
"XX c #E6A47A",
"oX c #F3A37E",
"OX c #E9C16F",
"+X c #EAC371",
"@X c #F1C873",
"#X c #798E8E",
"$X c #738B8C",
"%X c #7C968E",
"&X c #839A99",
"*X c #819796",
"=X c #8E948F",
"-X c #B5ADAD",
";X c #DCAA82",
":X c #F6A582",
">X c #FBAB85",
",X c #F6A984",
"<X c #ECB387",
"1X c #FDB48A",
"2X c #FCBC8D",
"3X c #F4B789",
"4X c #EDAE86",
"5X c #FEC08F",
"6X c #FFC291",
"7X c #FFC89A",
"8X c #FFF4EB",
/* pixels */
"                                                                                                    ",
"                                                                                                    ",
"                                        @ @ @ @ @ $ @ @ @ * @ @ +                                   ",
"                                  . X * H.{.{.{.{.{.P.j.z.j.I.j.z.b X X X                           ",
"                                7 B B B A.A.Z.Z.Z.Z.C.:.:.:.:.:.5.V e e w                           ",
"              O O O           X B +X+X|.= X X O O X X X X X o O X  .q.q. .o                         ",
"              X J 5.*       = Z.t.M m m 5.6.6.6.6.6.6.6.6.6.6.6.6.V 4 5 i &.w %                     ",
"              X -.m.r 5   5 r S.V.3 5 r L.!.W.W.W.W.W.W.E.E.E.E.E.J 3 2 u ,.v 2                     ",
"              X  .q.E.;.X -.v.: n K.n.Y.OX+X+X+XOXOX+X+X!.n.K.U.K.K.n.q. .o  .2.# O                 ",
"              X  .q.l.>.X ;.J.* b E.!.^.R.!.!.W.!.!.!.!.Y.Y.K.K.K.K.n.q. .X  .2.@ O                 ",
"              O  .q.<.D : =.j.3 H E.^.OXY.K.n.U.n.U.n.n.K.K.K.K.K.n.m.M...* D ,.2 >                 ",
"              X  .2.: n Y.n : z.T.OXW.K.K.K.K.K.Y.n.E.K.K.K.K.K.Y.k.3.3.3.2.t : <.D O               ",
"              X  .2.@ b E.b # b.T.+X!.K.K.K.K.K.K.K.K.K.K.K.K.K.K.k.3.3.3.q.e @ 2. .O               ",
"              O  .<.@ b K.b # z.T.OXW.K.K.K.K.Y.K.K.K.U.K.U.K.Y.K.k.3.3.3.q.e @ 2. .X               ",
"                @ & X + : + X = H W.E.E.U.U.E.E.K.K.K.K.K.K.K.K.Y.k.3.3.3.q.e # 2. .X               ",
"                N Q H Q Q Q H n H =.=.=.=.=.=.z.U.K.K.K.K.K.K.n.c.M.3.3.3.q.e @ 2. .O               ",
"              X A.@X+X+X+X+X+XQ.;.X O O O O % :.E.K.K.K.K.K.K.v.3.3.3.3.q.q.e @ 2. .X               ",
"              X >.x.x.x.x.x.x.w.z.H.H.H.H.S.6.G 3 5 5 3 &.k.k.q.q.q.3.3.3.q.e @ 2. .X               ",
"              X A o.o.o.o.o.o...6.^.^.^.^.T.K.J p m p r F X.o.o.o.<.3.3.3.q.e @ 2. .O               ",
"                O O O O O O O X e q.3.3.q.3.q.R.+X+X|.E.b X O X X  .q.q.3.q.e @ 2. .X               ",
"                      O X ~ a.s.t.w e e w w w ;.J.I.x.k.D.A.Z.C.:.V w w A q.e @ 2. .X               ",
"                        X a.>X`.r.% X O 6 6 6 D 1.,.1.,.L..X.X~.n.H < < i 1.w @ 2. .X               ",
"                    O X % F.3X, X . X @ `.:X:XT X O O O ..w.q.q.q.R.OXY.=.X X @ 3. .X               ",
"                  & g g g `.2Xp.i.i.i.p.,X1X3Xs.r.y e 4 u v v v n 6.L.x.7.*.*.*.V w O               ",
"                O & 8.0.0.[.7X7X6X3X6X6X6X6X6X1X:X| [ a 4 * # # . D 2.<.q.N.E.b.< * ,               ",
"                O & 8.0.9.[.7X8X-X= G.7X5X5X5X5X3X@.Z 8 y.].:Xr.O & @ @ u M.q.q.v.J.b.b X           ",
"                O & %.0.9.[.2X=X] X F.6X6X5X5X5X3X@.Z 8 /.2X1Xa.. & 4 4 e A A D k.c.c.i X           ",
"                O & 8.0.9.].4X& X @ G.6X6X5X2X2X3X@.Z 8 ).2X6Xa.X 0 9 s 0 X O @ <.2.3.e X           ",
"                O & 8.0.0.%.#.Z t.;X3X6X6XXX#.#.#.f d a r 6 6 7 t S [ 9 9 y > + > < >               ",
"                  & $.O.O.| { } %._._._._.y.Z Z Z a a a T T T i f [ } 9 y 0 & O o X O               ",
"                    O O X i } } { { { { } Z a a a a d a '.2X>X(.} } } 9 0 O                         ",
"                          > 4 9 f f f C f a a a a 8 +.`.4X>X>X(.} } { > &                           ",
"                          O + t t t t t t t t t y +.u.6X,X:X:X/.s f d # O                           ",
"                              O + O O O O O + O , <X2X:X:X:X>Xa.O O $                               ",
"                                          O O W ` B.B.V./ / ! N                                     ",
"                                            - ` %Xd.g.g.c k + o                                     ",
"                                        % P *Xh.d.d.f.f.d.g.k h O                                   ",
"                                      : H t.&X^ j d.x c l j k h O                                   ",
"                                    O @ J.).&XP O K x k = X k ; O                                   ",
"                                    O = =X*X&XU + K x k = = k ; O                                   ",
"                                    O * #X&X&XP $ K x k = o Y I O                                   ",
"                                    O * #X%X&XU + K x k = = ) E O                                   ",
"                                    O * #X&X&XP # }.}.'.m $ _ E O                                   ",
"                                      * _ ' ' P # 4X2X,XR o E U O                                   ",
"                                        O O O O , ].:X:XR X O O                                     ",
"                                              X $ T T T 1 X                                         ",
"                                              $ $ - - * $ o                                         ",
"                                              X * $X$X) 6 O                                         ",
"                                              O # ( ( Q < O                                         ",
"                                              O @ [ g 9 > X                                         "
};
