/* XPM */
static char *__resized[] = {
/* columns rows colors chars-per-pixel */
"50 51 183 2 ",
"   c #0E0D14",
".  c #110E15",
"X  c #110F18",
"o  c #151115",
"O  c #191314",
"+  c #13121D",
"@  c #1D191F",
"#  c #251616",
"$  c #2C1414",
"%  c #251914",
"&  c #2B1C16",
"*  c #241B1B",
"=  c #2A1A1C",
"-  c #361816",
";  c #35151E",
":  c #331C19",
">  c #26231F",
",  c #2D221C",
"<  c #352115",
"1  c #3A2617",
"2  c #36251E",
"3  c #39271D",
"4  c #3C291F",
"5  c #151523",
"6  c #1D1A23",
"7  c #141729",
"8  c #15182C",
"9  c #1B1D2C",
"0  c #161B31",
"q  c #181C34",
"w  c #161E3C",
"e  c #191E3A",
"r  c #221F28",
"t  c #19203C",
"y  c #272628",
"u  c #342422",
"i  c #392521",
"p  c #3D2920",
"a  c #302328",
"s  c #2C312E",
"d  c #36362F",
"f  c #212334",
"g  c #242739",
"h  c #24283B",
"j  c #2C2B3C",
"k  c #352F35",
"l  c #20323A",
"z  c #2A3239",
"x  c #293D3F",
"c  c #333635",
"v  c #480F1E",
"b  c #58191C",
"n  c #472A16",
"m  c #442C1D",
"M  c #4A2F1D",
"N  c #562C18",
"B  c #493114",
"V  c #4D311E",
"C  c #563317",
"Z  c #53341F",
"A  c #5B371F",
"S  c #5D381E",
"D  c #65390F",
"F  c #7B350F",
"G  c #772817",
"H  c #673916",
"J  c #60371D",
"K  c #63391D",
"L  c #441923",
"P  c #452E21",
"I  c #492F21",
"U  c #4B282C",
"Y  c #473021",
"T  c #4C3221",
"R  c #523521",
"E  c #593720",
"W  c #593820",
"Q  c #4F2B30",
"!  c #463835",
"~  c #5D3239",
"^  c #56383B",
"/  c #642C2D",
"(  c #65363D",
")  c #6A4213",
"_  c #774B13",
"`  c #544239",
"'  c #5C4439",
"]  c #1A2345",
"[  c #1B2448",
"{  c #282B40",
"}  c #2A3E41",
"|  c #2D3149",
" . c #293848",
".. c #31354F",
"X. c #343A55",
"o. c #363C5A",
"O. c #3A3E5D",
"+. c #6F3E45",
"@. c #2C4346",
"#. c #2D4A4F",
"$. c #2E4F56",
"%. c #344B57",
"&. c #3A405F",
"*. c #355357",
"=. c #34545B",
"-. c #3C4462",
";. c #3C4B65",
":. c #3D4F68",
">. c #395A63",
",. c #3E526A",
"<. c #3F5E71",
"1. c #3A6166",
"2. c #3A656C",
"3. c #3E6E75",
"4. c #484647",
"5. c #534641",
"6. c #4B4C53",
"7. c #574D53",
"8. c #764A4C",
"9. c #695149",
"0. c #7C5252",
"q. c #415D71",
"w. c #426676",
"e. c #436778",
"r. c #436B79",
"t. c #407076",
"y. c #43737E",
"u. c #62656C",
"i. c #77777D",
"p. c #863715",
"a. c #9C3D12",
"s. c #97510F",
"d. c #8A5214",
"f. c #945713",
"g. c #A54E0F",
"h. c #A64411",
"j. c #BE4814",
"k. c #B55C19",
"l. c #B76511",
"z. c #C85415",
"x. c #D45714",
"c. c #D95710",
"v. c #E45E0E",
"b. c #CB610C",
"n. c #CB6812",
"m. c #D96214",
"M. c #DE7610",
"N. c #EC620F",
"B. c #F56E0D",
"V. c #FB6B0A",
"C. c #F1750F",
"Z. c #FB740D",
"A. c #9A6E69",
"S. c #937163",
"D. c #847A77",
"F. c #A2766E",
"G. c #A77772",
"H. c #EE8112",
"J. c #FB8411",
"K. c #B4887C",
"L. c #477C84",
"P. c #487E86",
"I. c #877782",
"U. c #488087",
"Y. c #498088",
"T. c #8E868D",
"R. c #948793",
"E. c #9C939F",
"W. c #BA9183",
"Q. c #A9A8AD",
"!. c #ADA9B1",
"~. c #B0ADB7",
"^. c #C18B83",
"/. c #C59085",
"(. c #DCA99A",
"). c #E5B2A1",
"_. c #E9B5A3",
"`. c #EDB8A6",
"'. c #F1BBA8",
"]. c #C6C9D3",
"[. c #CED0D9",
"{. c #D3D7E2",
"}. c #DEE4EE",
/* pixels */
"T R R R p p 4 4 u u 3 P T A K K S A R R R T T R R T P P Y P P P P P P P P P P P P P P Y Y P p p p Y ",
"T R R T P P P P P p i 3 u m T R K K K A E R T T R Y P P P P P P P P P Y P P Y P P P P P P P Y Y Y R ",
"T R R P P P P P P P P P 4 3 u p Y R S K K R T T R Y Y P P P P Y Y P Y P P Y P P P P P P Y Y Y T R R ",
"T R R P P P Y P P P P P Y 4 3 2 2 3 p A K W T T R Y Y P Y P P P P P P P P P P P P P P P Y Y T R R T ",
"T T R T P P P P P P Y P Y P p i 2 2 2 4 S S V M T M 4 P Y P P P P P P P P Y P P P Y Y Y Y T R R T T ",
"R T R R T P Y P P P P P P P P p 2 2 3 u A V V f.n d.N : , P P P P P P P P P P P P P Y T R R R R T T ",
"E R T T T T P P P P Y P P P P P i u 3 p B _ l.x.n.m.j.p.$ 4 P P P Y P P P Y P P P T T R R R Y Y T R ",
"S W R T T R Y P Y P P P P P P P p 3 3 4 ) C.V.V.V.V.N.z.) 3 P Y P P P P P P P T T T R R T T R R R T ",
"E K A T T E R T Y P Y P P P P P P 4 P m f.Z.V.V.V.V.V.V.C.l.T Y P P P P Y T T R R R T T T T R T Y Y ",
"R K E T T R R R T Y P P P P P P I I R B M.Z.V.V.V.V.V.N.z.c.s.p R T T R R T R T T T P P T R T P Y Y ",
"R K E T T T R E R T Y P P P I T R R R B H.J.V.V.B.N.V.V.M.l.D M R R R T T T T T T T T Y T R Y P P P ",
"R K E R T T R R R R T Y T T R R R I T B b.g.N.V.Z.k.c.V.Z.z.C Y R T T T T T R R R R R T R T P P P P ",
"R K A R T T T T R R R R R R R I I T E M F F b p.x.n.p.v.z.G # i m P T R E K W W E R R T R T Y Y Y P ",
"T S W R R T m Y R R R R R R P I R R R M < - Q D./ h.D a.F $ = u 4 T R E K K K H K W R R R T Y Y P P ",
"T A A R R T i p T T T T T Y P R R R P 2 , 9./.).F.8.^ v H 1 p 2 P R R S R I V A K K W T T T Y Y P P ",
"Y R E R R Y Y Y T T T T P i P T R I P P u W.`._.`.(.~ v : m p p R R R P i 3 u 3 R K K R T Y Y Y P P ",
"Y R E R T T R R R R R R T p T R R P P P 3 9._.).^.0.; - R R p P T R T u 3 u 3 2 u Z K E T T Y Y Y p ",
"Y T R T T R R W E E E R R T T R T P P P Y 3 A.0.Q ( ~ 1 R R p P R R p i 3 3 3 u 2 4 S S R T Y Y Y Y ",
"Y T T T R E K K K H K S R T T R T P P P P 4 : % ^ +.L $ R T P I R T P P Y p i 3 2 2 V K T T Y Y Y Y ",
"Y T T T R K S A E K K K R R T R P P P P P P Y 2 p ; z #.m T I T R T P P Y P Y p u 2 Y S E T Y p Y p ",
"Y T T T S R p u p T R K K R T R T P P P P Y m : ; >.L.L.s M I T R Y P P Y P P P 4 3 p A E T Y Y Y P ",
"P T T R R 3 3 3 u u p A S A T T R P Y Y Y Y 2 = >.L.L.P.} m I R T P P P P P P P Y 3 3 V E T Y Y Y P ",
"Y T T R p u 4 3 3 3 3 Y A S T T R T T R R R s 3.>.3.P.P.x m I T R T P P P P P P Y P u T R R T Y Y P ",
"Y T T T Y Y Y p i u 3 i R S Z P T R E R R 3 =.U. .%.L.P.>.= I I R T Y P P P P P Y p 4 Y R T T Y p P ",
"T T T T P P P P P p u u T A R T T R R R Z s L.r.X.h y.P.t.u T T T R R T Y Y P P P P P T R T R T Y Y ",
"T T T Y P Y Y P P P 4 3 Y A R T T R E R m =.L.L.o.t r.P.y.c V R T T T R T Y P P P P P R T Y T R T T ",
"T R T Y P P P P P P Y i 3 W R T R E R P * 3.P.3.&.h %.P.Y.#.V A R T T T T R T Y P P Y R T Y T R R R ",
"T R R Y P P Y P Y Y Y p i T R T E T p , } L.L.,.&.h X.y.U.3.Y H K E R R T T T R T T R T T T R R T R ",
"R R R T P P P Y Y Y Y P p T R T R T p 2 #.Y.y.-.&...h w.U.L.d S K H K W R T T T T T T T R R R R R R ",
"K K W T Y P P P Y p p Y p T T T R Y Y 3 @.y.<.O.&.o.f ;.L.L.*.1 Z A K K W R R R T Y T R R R R R R R ",
"R A K K R T Y P Y Y Y Y Y T T T T Y Y 2 * k | o.o.o.r | e.P.2.> 3 P T A K W R R T U T T R R R R R R ",
"i 3 T K W R T T Y Y p Y T R T R R Y m 2 y U u a a a = g ;.L.P.x 2 3 i P E S R R T T R R R R R R T Y ",
"P 3 u V K T T R T T Y Y T R T R R T P y 3.=.{ a a a j 9 o.q.P.1.2 2 2 2 P A R R T T R R R R T P Y Y ",
"P i 2 P S R T T T R T R R T P R R R M y 3.L.:.X.o.o.O.{ | -.q.@.2 2 2 2 i A R R T R R R R T P P Y p ",
"Y p 3 i A E T p P T T T T P p T R R 3 7 $.U.3.&.O.&.&.X.f g y , 2 2 2 2 p R R I T R R T T P P P Y Y ",
"Y Y i 4 A E Y i 4 Y T T p i 2 T R Z 2 8  .U.L.:.O.&.O.o.r 8.K.! 2 2 2 2 P R T I R R T P P P P P Y Y ",
"Y Y p p W E T Y T R R R T P p p T T 6 ] 0 t.P.:.O...{ 5 . F.'.S.2 2 u p R T I R R T P P P P P P Y p ",
"P Y p p E R T T R E R R R R T P p < 9 ] t l l 9 9 X X + 7 ^ G.' P 3 M R T T R R Y P P P P P P P Y Y ",
"P P p p R T T E S S S J S R R T m * w [ ] + X X   X + + 8 O < 4 P T R T P T R T P P Y P P P P P Y p ",
"P Y p Y R T R S Z P P V J K R R M 6 ] ] t 5 5 X   + + + q 6 P T R R R P P R R P P P P P P Y P P Y Y ",
"P P Y Y R R W Z 3 u 2 u m S K R V 5 ] ] q 5 + X o + + + 7 7 m R R R T p T R T P P P P P P Y P P Y Y ",
"P P Y T R R A m i 3 i 3 u 3 A S 3 0 [ [ ] 5 + X   + + + + 0 2 A T T i 3 T R T P P P P P P P P P p Y ",
"Y P T R R E R P P P P P p i 3 R & ] [ [ ] q + O O + + + + 0 y m I i 2 P R R R P P Y P P P P P Y Y Y ",
"T T R R R R Y P P P P P P P P 4 * ] [ ] ] 9 + O O + + + + 5 7 = i 2 u p T R R T P P P P P P P P Y Y ",
"R T R R R R Y P Y P P P P P Y 3 7 ] 0 ] ] 5 + O % o + + + + + O 2 2 3 p P T R R T T Y Y Y Y T T R R ",
"R T T T R T P P P P P P P P P 3 7 q 5 e q + +   & o + + + + +   & Y T T T T T T R R T T T R R T T R ",
"R R R T R R Y P P P P P P P Y M r X X + + + + o & o + + + + 6 u.5.V R R R T T T T T T T T T T T T T ",
"R R R T T R Y P P P Y T T T R R n c 6.+   O % 1 V @   o O = i.Q.I.5.V E E W W E E E E R T T T T T T ",
"R T T T T R R R R T R R R R R T 1 7.].4.m M R R R T m 3 V V a E.[.D.C K K K K K K K K K S S E R R R ",
"T T T T T R R R R T T R T T M 3 ! E.R.k M T R R R R T R R V u ~.!.` V T V T T T V T R R A S S A R R ",
"R R R T T Y T T T I P Y T T ! i.!.}.{.7.M R R R R R T R Z ` T.Q.` , u 3 3 u 3 3 u 4 3 4 Y Y Z A A R "
};
