/* XPM */
static char *L2FhqD7_4__dragged__resized[] = {
/* columns rows colors chars-per-pixel */
"50 50 208 2 ",
"   c None",
".  c #050D1D",
"X  c #0D111F",
"o  c #060F21",
"O  c #0D1423",
"+  c #061024",
"@  c #111724",
"#  c #151924",
"$  c #1B1C24",
"%  c #1B1D2A",
"&  c #151D2A",
"*  c #211C25",
"=  c #291F21",
"-  c #162424",
";  c #1B212C",
":  c #192923",
">  c #1B3429",
",  c #1C2531",
"<  c #212126",
"1  c #2C2324",
"2  c #24232C",
"3  c #2E2928",
"4  c #322422",
"5  c #3C2B26",
"6  c #342F2A",
"7  c #342A25",
"8  c #233B29",
"9  c #3A3129",
"0  c #37302A",
"q  c #242B35",
"w  c #322D33",
"e  c #29313A",
"r  c #383333",
"t  c #542F1D",
"y  c #63361E",
"u  c #65381F",
"i  c #69381D",
"p  c #442B26",
"a  c #453325",
"s  c #4A3626",
"d  c #45392B",
"f  c #493828",
"g  c #523123",
"h  c #5A3421",
"j  c #553B28",
"k  c #463B32",
"l  c #663920",
"z  c #693B20",
"x  c #613720",
"c  c #733F23",
"v  c #1E402A",
"b  c #21462C",
"n  c #29552D",
"m  c #2C5A31",
"M  c #325531",
"N  c #39672E",
"B  c #366931",
"V  c #5D4127",
"C  c #54432D",
"Z  c #58452E",
"A  c #484238",
"S  c #454038",
"D  c #544C3C",
"F  c #54433C",
"G  c #6D4B28",
"H  c #674728",
"J  c #7E4527",
"K  c #724129",
"L  c #764727",
"P  c #7B5229",
"I  c #77522B",
"U  c #694A38",
"Y  c #6B5332",
"T  c #745731",
"R  c #765B35",
"E  c #704B3E",
"W  c #447731",
"Q  c #2B3741",
"!  c #313E47",
"~  c #39454A",
"^  c #3F4C54",
"/  c #5C4543",
"(  c #584843",
")  c #4D5156",
"_  c #675A42",
"`  c #76564E",
"'  c #694E49",
"]  c #556469",
"[  c #577378",
"{  c #566D69",
"}  c #647679",
"|  c #85492A",
" . c #8A4B2A",
".. c #824728",
"X. c #845729",
"o. c #865829",
"O. c #8A5B2A",
"+. c #935533",
"@. c #955C3A",
"#. c #8E5032",
"$. c #B94F38",
"%. c #95612A",
"&. c #9F662A",
"*. c #896635",
"=. c #946C36",
"-. c #996F36",
";. c #9D743A",
":. c #987038",
">. c #8C612E",
",. c #A16629",
"<. c #AD6D29",
"1. c #A5692A",
"2. c #B5722B",
"3. c #BD762B",
"4. c #BD782D",
"5. c #A97B3A",
"6. c #A37738",
"7. c #B36F29",
"8. c #C0523A",
"9. c #CF563B",
"0. c #D0573C",
"q. c #C27A2C",
"w. c #C97E2D",
"e. c #815D52",
"r. c #876756",
"t. c #966A58",
"y. c #92734F",
"u. c #A96B46",
"i. c #A6744F",
"p. c #A87562",
"a. c #B87C63",
"s. c #468332",
"d. c #4C8436",
"f. c #528739",
"g. c #588652",
"h. c #628D60",
"j. c #BA863B",
"k. c #C9812F",
"l. c #C98432",
"z. c #CC8935",
"x. c #C68B3C",
"c. c #D18E38",
"v. c #CD933E",
"b. c #D5943C",
"n. c #DE9C3F",
"m. c #E29E3E",
"M. c #A78348",
"N. c #A38B58",
"B. c #B4965D",
"V. c #AD8C53",
"C. c #AD846A",
"Z. c #B58C6E",
"A. c #B78568",
"S. c #BB9E61",
"D. c #A89B73",
"F. c #BFA162",
"G. c #CE9141",
"H. c #DD9E41",
"J. c #D29645",
"K. c #D29158",
"L. c #E09F41",
"P. c #DFA044",
"I. c #DBAA5A",
"U. c #E3A142",
"Y. c #E5A748",
"T. c #E3AC52",
"R. c #E3AF59",
"E. c #E3B35E",
"W. c #C78568",
"Q. c #D28765",
"!. c #CD936B",
"~. c #D5986D",
"^. c #C89A76",
"/. c #DB9C74",
"(. c #DA9574",
"). c #EB9C75",
"_. c #DDB668",
"`. c #C4A66C",
"'. c #E6B661",
"]. c #E7BD6B",
"[. c #EABD69",
"{. c #EAAA77",
"}. c #EAC372",
"|. c #E4C071",
" X c #6D8082",
".X c #768B8C",
"XX c #7B918F",
"oX c #7D9392",
"OX c #819796",
"+X c #829897",
"@X c #839A99",
"#X c #A3A2A8",
"$X c #DCB08A",
"%X c #F5A582",
"&X c #F5AA83",
"*X c #FDAA85",
"=X c #F8A783",
"-X c #ECB486",
";X c #F3B386",
":X c #F4B98B",
">X c #FCBE8E",
",X c #FCB48A",
"<X c #FFBF90",
"1X c #EBA580",
"2X c #FFC391",
"3X c #FFC799",
"4X c #FED7B9",
"5X c #F6EDEA",
/* pixels */
"                                                                                                    ",
"                                                                                                    ",
"                                                                                                    ",
"                                        O O O O O O O O O O O O O                                   ",
"                                        D D D D D D D C C C C C C 9                                 ",
"                                  @ @ 2 _.}.}.}.}.}.E.U.H.U.H.H.U.C O @ @                           ",
"              @ @ O           + D B.B.V.D A A A A A k d d d d d d P %.%.G O                         ",
"              @ 6 9           r _ `.S.B.d 0 0 0 9 9 9 9 9 9 9 9 6 P &.&.P 7                         ",
"              O :.J.$ O   O ; |.N.+ # < v.n.n.n.H.n.n.H.H.H.H.H.U.C O O s w.s O                     ",
"              @ >.z.-.T + T =.Y R =.=.:.I.E.E.R.E.E.E.E.P.P.H.H.H.5.*.P G j G I $                   ",
"              O X.q.m.-.+ ;.b.$ C U.U.Y.|.}.|.}.}.].].].I.H.H.H.H.U.m.w.X.+ o.2.< @                 ",
"              @ o.q.w.o.+ :.n.$ C L.E.|.L.m.P.P.U.P.P.P.n.H.H.H.H.H.n.w.X.o o.3.$ O                 ",
"              O X.3.G G R R R T ;.E.R.R.U.H.H.H.H.H.H.H.H.H.H.H.H.b.z.q.,.H H G G j                 ",
"              O X.2.# Z Y.C # b.R.}.I.n.H.H.P.H.H.L.H.H.H.H.H.H.H.l.3.3.4.q.s # 3.X.O               ",
"              @ o.3.$ Z Y.Z * b.R.}.Y.L.H.H.H.H.H.L.L.H.H.P.H.H.H.l.3.q.3.q.s $ 2.o.O               ",
"              O H G # 9 -.a $ *.M.E.P.n.H.L.H.H.P.H.H.H.H.H.L.H.H.l.3.3.3.q.s $ 2.o.@               ",
"                @ @ # # O # $ X Z n.n.H.n.n.n.H.H.H.H.H.H.H.H.H.H.l.3.3.3.q.s $ 3.o.O               ",
"              O y.F.F.B.S.!.B.M.=.0 0 0 9 9 6 5.U.L.U.H.H.H.U.b.k.q.3.3.3.3.s $ 7.o.O               ",
"              O M._.E.E.E.E.R.H.6.S A A A S d *.j.6.5.5.x.b.b.z.3.3.3.3.3.q.s - 2.o.@               ",
"              @ X.4.3.4.4.4.q.3.v.}.}.}.}.E.H.V + O O O o.q.q.q.q.q.3.3.q.q.s $ 2.o.O               ",
"                9 s s a f a a a T v.v.v.G.z.l.V.N.N.M.;.H a a a a %.q.3.3.q.s $ 2.X.O               ",
"                O O O O O 2 w w C 1.,.,.,.,.,.K.[.'.E.m.Y w 8 6 3 P 1.1.<.q.s $ 2.X.@               ",
"                        O p.%X=Xp.@ $ # @ @ O o.k.q.q.q.I.|.|.'.m.C O O s w.j $ 2.X.O               ",
"                    @ @ @ p.;Xe.F @ @ $ e.t.t.U V V V V i.J.J.G.c.y.y.*.I V 1 - 2.X.O               ",
"                    * * % Z.:Xw 2 2 2 w ).*X*X' % # # @ P 7.<.<.<.I.[.U.6.$ 2 3 <.P O               ",
"                @ * $.8.$.).<X-X-X:X;X-X<X>X2X{.(.#.c x 4 # $ $ $ O.k.w.l.v.G.j.2 # O               ",
"                @ * 8.9.0.).2X4X$Xt.$X2X2X2X2X,X{.+.J x ' ` ` j O j I G %.c.c.z.T Y Y d             ",
"                @ * 8.9.9.).3X5X#X+ C.2X<X2X2X2X:X+.J y Q.*X,Xp.O @ @ O a 3.2.4.m.m.U.Z O           ",
"                # * 8.9.9.).-X) Q O C.2X2X2X2X2X>X+.J y !.2X2XC.O 5 t h a 1 1 5 4.k.k.s O           ",
"                # * 8.9.0.Q.!.p r ( ^.2X2X;X~./.!. .c y t.Z.Z.r.1 h c i t 1 $ $ P o.O.a O           ",
"                # * 8.9.0.+. . .i.2X2X2X2X(.| | | z y z = + @ 1 z J | z l l 1 @ @ @ @               ",
"                    p p p c  . .@.u.u.u.u.@.z c z l y y p.^.a.i.J | | i g 1 *                       ",
"                    O @ O j K J J J J J J L l l l x K #./.<X*XQ.|  .| h p O                         ",
"                          # $ h z z z z z i z z l y y.2X&X%X=XQ.|  ...% @                           ",
"                              4 4 4 4 4 4 4 4 4 5 A.~.*X=X%X*XA.5 p 5                               ",
"                              @ O @ O @ O @ O & w $X-X/./.(.).t.+ O O                               ",
"                                            @ { XXf.f.f.N m : $                                     ",
"                                          ! ) { h.s.s.s.n > > :                                     ",
"                                        $ ) @Xg.B s.s.s.b $ n v @                                   ",
"                                    @ $ j.V.+X~ : s.s.s.m b - @ @                                   ",
"                                    @ ; B.D.+X] ~ M N s.B B > : @                                   ",
"                                    @ ; .XOXOX+XXX& 8 s.s.s.m b #                                   ",
"                                    @ ; XX+XOXOXoX X] - B f.^.^.W.( O                               ",
"                                      ; [  X+XOX+X@X} q M W -X,X*X/ O                               ",
"                                        O ~ @X@X+X+X.X[ Q ; ).%X=X/ @                               ",
"                                          e ~ } +X@X} e ; @ ( ( / r                                 ",
"                                            q [ +X X] , , , O X O                                   ",
"                                        O ~ oX+XoX, Q [ [ { # @                                     ",
"                                      $ g U r.) ^   q ~ ( ( p 5 @                                   ",
"                                    @ $ |  . .5 O     O p l i a @                                   "
};
