/* XPM */
static char *__resized[] = {
/* columns rows colors chars-per-pixel */
"50 51 179 2 ",
"   c #0E0D14",
".  c #110F16",
"X  c #110F18",
"o  c #131015",
"O  c #13121C",
"+  c #1C161B",
"@  c #221614",
"#  c #231916",
"$  c #291718",
"%  c #221A1B",
"&  c #291D18",
"*  c #351417",
"=  c #341E1A",
"-  c #27211C",
";  c #2D211C",
":  c #3C2A16",
">  c #352519",
",  c #36251E",
"<  c #39271E",
"1  c #3C291F",
"2  c #151523",
"3  c #1B1924",
"4  c #15172A",
"5  c #15192B",
"6  c #1C1C29",
"7  c #171D37",
"8  c #161D3B",
"9  c #191F3C",
"0  c #241F26",
"q  c #321C21",
"w  c #381920",
"e  c #1C2337",
"r  c #2D2324",
"t  c #28292A",
"y  c #352620",
"u  c #392620",
"i  c #322D25",
"p  c #3D2920",
"a  c #302328",
"s  c #38322C",
"d  c #222436",
"f  c #25263A",
"g  c #262A39",
"h  c #2A2A3C",
"j  c #362E32",
"k  c #263233",
"l  c #22383B",
"z  c #2A3B3D",
"x  c #4B0F1F",
"c  c #45131E",
"v  c #5B1C1B",
"b  c #422A16",
"n  c #472A17",
"m  c #432C1D",
"M  c #4A2E1D",
"N  c #4D3317",
"B  c #4D311E",
"V  c #5E3D14",
"C  c #53341F",
"Z  c #5A371F",
"A  c #5D381E",
"S  c #6E3E0F",
"D  c #70340B",
"F  c #62351A",
"G  c #63391D",
"H  c #683A1C",
"J  c #763618",
"K  c #521F2A",
"L  c #452E21",
"P  c #492F21",
"I  c #46282A",
"U  c #463022",
"Y  c #4C3221",
"T  c #4C382E",
"R  c #523521",
"E  c #593720",
"W  c #593820",
"Q  c #512D32",
"!  c #493635",
"~  c #42343B",
"^  c #593338",
"/  c #64363D",
"(  c #6D400F",
")  c #7A4B13",
"_  c #56413A",
"`  c #1A2344",
"'  c #1B2448",
"]  c #272B41",
"[  c #292D43",
"{  c #293742",
"}  c #2E324A",
"|  c #30354E",
" . c #353A57",
".. c #363B5A",
"X. c #3A3E5D",
"o. c #2C494D",
"O. c #31474B",
"+. c #324954",
"@. c #3A405F",
"#. c #365358",
"$. c #33535C",
"%. c #3C4161",
"&. c #3C4B65",
"*. c #3E4F69",
"=. c #3A5765",
"-. c #3E596D",
";. c #39646B",
":. c #3B686F",
">. c #3D6C73",
",. c #3F7078",
"<. c #454142",
"1. c #584848",
"2. c #584F54",
"3. c #5B555A",
"4. c #6B4244",
"5. c #75474B",
"6. c #7C5F54",
"7. c #415B70",
"8. c #426074",
"9. c #446C7B",
"0. c #43737D",
"q. c #746C6C",
"w. c #777478",
"e. c #933E0F",
"r. c #812A19",
"t. c #863613",
"y. c #903613",
"u. c #8E5213",
"i. c #A44F0E",
"p. c #A95C10",
"a. c #BC6517",
"s. c #C35E0C",
"d. c #C44D15",
"f. c #CE5214",
"g. c #C85817",
"h. c #D95710",
"j. c #DA5C14",
"k. c #E75E0F",
"l. c #C46816",
"z. c #D96312",
"x. c #CC7111",
"c. c #DC7611",
"v. c #F1660D",
"b. c #FB6B0A",
"n. c #E9760F",
"m. c #F2730F",
"M. c #FC730C",
"N. c #E96210",
"B. c #EC7514",
"V. c #895B5A",
"C. c #84665A",
"Z. c #8C6460",
"A. c #87717B",
"S. c #A1766E",
"D. c #A77770",
"F. c #FD8512",
"G. c #457580",
"H. c #477C85",
"J. c #487E87",
"K. c #487F88",
"L. c #897F8A",
"P. c #488087",
"I. c #488088",
"U. c #88808B",
"Y. c #948894",
"T. c #BF8981",
"R. c #9D94A0",
"E. c #A096A2",
"W. c #ADB0B9",
"Q. c #C99389",
"!. c #D5A595",
"~. c #E2B09F",
"^. c #E4B1A0",
"/. c #E9B4A3",
"(. c #EDB8A6",
"). c #B6B9C1",
"_. c #BEC4CD",
"`. c #D2D6E0",
"'. c #DEE4EE",
/* pixels */
"Y R R R p p 1 1 y y y L Y Z G G G E R R R Y Y Y E Y L L L U L L U L L L L L L L L U L L L L L p p Y ",
"Y R R Y L L L L L L u , u m Y E A G G A W R Y Y R U L L L L L L L L L L L U L U L L L L L L L L Y Y ",
"Y R R L L U L L U L L p u , , u m R A H G R Y Y R U U L U L L L L L L L L L L L L L L L L U U Y R Y ",
"Y R R L L L L L L L L Y U 1 y , y < L R G E Y Y R U U U L L L L L L U L L L L L L L L L U U Y R R Y ",
"Y Y R Y L L L L L L L L L L p u , , , L Z A Y Y M M 1 1 U L L L L L L L L U L L U L U m U Y W R Y Y ",
"R Y Y R Y L L L L L L L L L L p y y , u Z Z L b u.n ) F ; > m L L L L L L L L L L L U Y R W R Y Y Y ",
"E R Y Y Y Y L L U L U L L L L L u , , 1 Z b ) p.j.g.z.d.y.* < L L U L L L U L L L Y Y R R R Y Y R R ",
"A A R Y R R U U L L L L L L L L L , y L Y V n.b.b.b.b.v.d.) : L L L L L L L L Y Y R R R Y Y Y R R Y ",
"Z G Z U Y R R Y U L U L L L L L U 1 U R N ) M.b.b.b.b.b.b.m.x.N L L L U U Y Y R R R R Y Y R R Y U L ",
"R G Z Y Y W R R Y L L L L L L L U Y R R : x.M.b.b.b.b.b.v.d.j.p.< R Y Y R Y R B Y P L 1 Y R Y L U L ",
"R G W Y Y Y R W W Y U L L L P Y C R R Y : c.F.b.b.b.N.b.b.B.a.S m W R Y Y Y Y Y Y Y Y L Y R U L L L ",
"R G W R Y Y R R R R Y Y Y Y R R Y Y Y Z b s.i.k.b.M.l.f.b.b.z.F m Y Y Y Y Y R R R R R R R Y L L L U ",
"R G Z R Y Y Y Y R R R R E R Y Y Y Y R A C D t.v t.d.c.J h.h.r.$ L L Y R W Z Z Z E R R R R Y L L L L ",
"Y A E R W Y m U R R R R R R P P R R R B p : * I A./ i.( t.e.@ # < Y R Z G G H H G A R Y R Y L L L L ",
"Y Z Z W R Y u u U Y Y Y Y L L Y R R U , y r 1.T.^.T.5.^ x J > > L R R A Z m Y Z H G E Y R Y L L U L ",
"U R R R Y U U Y Y Y Y L L u L R R U U m p ; D.(././.~.4.x $ = < R R R U y y < 1 Y G G R Y Y U L L L ",
"L R R R Y Y R R R R R R P L P R Y U U M U 1 _ ~./.Q.V.w * P I m R R Y y y < , , u C G E Y Y U L L L ",
"L R R Y Y R R E E E E R R P Y R Y U U U L L < Z.V.Q ^ / = C p m R Y p u u y , , , p A A R Y L L L L ",
"L Y R P R R G G H H G E R Y Y R U L L L L L p > # ! 5.K * L L P R Y L L L L u , , y C A R R L L L U ",
"L Y Y Y E G Z Z E Z G G E R Y R U L L L L L L m < = c q { y P C R Y L L L L L p y y m A R R U L L L ",
"L Y Y R Z C L u L L R G G R Y R M U U U m U U U * * O.>.0.z m R R L L L L L L L p , 1 Z R R L L L L ",
"L Y Y R Y u , , , , L R G Z Y Y Y U U U U U Y 1 $ #.H.J.I.o.b R R L L L L L L L U u , C R R L L L L ",
"L Y Y R L u < , , , , P Z Z R Y R Y R Y R R C i ;.:.J.J.K.o., R R U L L L L L L U L y Y R R Y L L L ",
"P Y Y Y L L L L 1 , , p R Z R P Y R R W R R m o.,.{ G.J.K.O.= P R Y Y L L L L L L m p L R R Y L L L ",
"Y Y Y Y L L L L L 1 < < Y E R P Y R R R W Z i ,.>.f 9.H.K.o.1 P Y R Y Y L L L U L L L Y Y Y R Y U L ",
"Y Y R L L L L L L L p , L E R P Y R R W Z M o.P.-.f &.H.K.o.m R Y Y Y R Y Y L L L L U Y Y Y R R Y Y ",
"Y R Y L L L L L L U U < p R R Y R W Y U p - :.P.-.f +.H.I.$.m E R R Y P Y R Y L L L Y Y Y Y U Y R R ",
"R R R L L L L L L L L 1 < R R Y R Y m , ; k G.G.&.f  .G.J.0.i H G Z R Y Y Y Y R Y Y R Y Y Y R R Y R ",
"R R R Y L L L L U L L L u Y R Y R Y p U : z P.0.%.h { 9.P.0.s Z H H G Z R Y Y Y Y Y Y Y Y R W R R R ",
"G G E Y Y L L L L L L L L Y Y Y R U U U m l 0.8.@. .d 7.J.J.$.> C Z G H E R R R Y U Y R R W R R R R ",
"R Z G G R Y U L L U U U L Y Y R R m U L 1 + j [ .. .e &.0.P.;.r < L R E G E R R Y L Y Y R R R W R R ",
"y u Y G W R R Y L L L U Y Y Y Y R U L L < t I u a r 6 @.9.P.H.k , y u L E G R R Y Y R R R R R Y Y U ",
"L , y R G R Y R Y Y L L R R P R R Y U U - >.=.h r r 0 ..&.G.J.#., u , y L Z R R Y R R R R R Y L L L ",
"L p y m A E Y Y Y R R R R Y P Y R R U U - :.G.&.....] } %.*.0.#.& y y , u Z R Y Y R R R R Y L L L L ",
"L L y u Z R P p L Y Y R Y L p Y R R R U # l P.-.X.%.| d f g g r , u , , p R R P Y R R Y L L L L L U ",
"L L u < E E P < p L P P p < u P R R R R - 2 :.,.%.%.%.] I D.C., u , , y L R Y Y R R Y L L L L L L L ",
"L L p p R E P P P R R P Y L p p Y Y R M 5 8 { 9.X.| } 6 ^ ~.!.T < < y L Y Y Y R R Y L L L L L L L L ",
"L L p p R R Y R R E E R R R P L p Y R M 5 ' e e 5 X   X + S.6.U p u m R Y Y Y R Y L L L U L L U U U ",
"L L L p Z R Y R Z G A G Z R R Y m u M ; 7 ' ` 2 O O   O 4 @ < L Y Y R Y U Y R Y L L L L L L L L U m ",
"L L L L R Y R Z R L L R G G R R Y p < + ` ' ` 4 O X   O 4 4 : Y R R R U L R R L L L L L L U L L U p ",
"L U L U R Y Z C < , , y L Z G R R R 1 + ` ' ` 4 O . X O 2 4 1 R R R Y p Y R Y L L L U L L L L L U U ",
"L L L Y W R Z L u u u , , u Z Z R R M + ` ' ' ` O O   O O 4 - R R Y u p Y R Y L L L L L L L L L U m ",
"L U Y R R W R L L L L L p y 1 C R R Y % ` ` ' e 2 O   O O 2 6 m L u y p R R R U L L L L L L L U U U ",
"Y Y R W R Y Y L L L L L L L L p R R R % ` 9 ' ' 5 O . X O O O % < < < u Y R R Y L L L L L L L L U U ",
"Y Y R R R R L L L L L L L L L L Y R R % 8 4 9 9 2 O X . O O O o & < < 1 L Y R R Y Y U Y U U Y Y Y R ",
"R R Y Y R Y L L L L L L L L L L Y R R , X X 2 2 O O X . O O 3 ~ 3.1 Y Y Y Y Y Y Y R Y Y Y R Y R R R ",
"R R R Y R Y L U L L L L L L P Y R R Y P # X X 2 o O . . O o 3.E.).U R R R Y Y Y Y Y Y Y Y Y Y Y U Y ",
"R R R Y R R Y L L L L Y Y Y R R R P Y R m j t . o # m = # I p L._.s C W E Z Z E Z E E R Y Y Y Y R R ",
"R Y Y Y Y R R Y R Y R R R R R Y Y Y R W : 2.W.<.: R R Y R R M < U.q.Z F H G G G G G G G G Z W R R R ",
"Y Y Y Y Y R R R R Y Y R Y Y Y Y R R Y < ~ R.Y.~ B R R Y R E G N ~ w.m Y B M Y B Y Y R R Z A A Z R R ",
"R R R Y Y Y Y Y Y P L U Y Y R E R R ! w.W.'.`.2.N R B C R G R m r _ - y < y , < u < < u p Y R A W R "
};
