/* XPM */
static char *__resized[] = {
/* columns rows colors chars-per-pixel */
"50 51 175 2 ",
"   c #0D0D14",
".  c #0F0F1A",
"X  c #1F0E14",
"o  c #100F18",
"O  c #0F101B",
"+  c #1C1514",
"@  c #14121C",
"#  c #1A161D",
"$  c #1D181F",
"%  c #2C0E15",
"&  c #3F0E1B",
"*  c #231613",
"=  c #2C1214",
"-  c #231915",
";  c #2C1F15",
":  c #231B1C",
">  c #2B1E19",
",  c #381818",
"<  c #2C2319",
"1  c #3E2915",
"2  c #36251B",
"3  c #36251E",
"4  c #39261D",
"5  c #3C291F",
"6  c #141523",
"7  c #171D27",
"8  c #141729",
"9  c #15192C",
"0  c #181C35",
"q  c #171E3C",
"w  c #271C23",
"e  c #321D25",
"r  c #1B2326",
"t  c #18203F",
"y  c #1F3539",
"u  c #212526",
"i  c #2F2620",
"p  c #282927",
"a  c #2D2729",
"s  c #352420",
"d  c #392620",
"f  c #332820",
"g  c #3D2920",
"h  c #342629",
"j  c #39292A",
"k  c #3C3028",
"l  c #232435",
"z  c #232738",
"x  c #342F37",
"c  c #263B3F",
"v  c #2B3B3C",
"b  c #313A3F",
"n  c #470E1F",
"m  c #43111C",
"M  c #5B1C1A",
"N  c #4B2716",
"B  c #432C1C",
"V  c #4A2E1C",
"C  c #552D13",
"Z  c #5C2910",
"A  c #4C3316",
"S  c #4D311F",
"D  c #5A3A15",
"F  c #53341F",
"G  c #5B371F",
"H  c #5D381E",
"J  c #62280F",
"K  c #60371E",
"L  c #63391D",
"P  c #683A1C",
"I  c #452E21",
"U  c #492F21",
"Y  c #442529",
"T  c #4A2C2B",
"R  c #57272A",
"E  c #463022",
"W  c #4C3221",
"Q  c #523521",
"!  c #593720",
"~  c #593820",
"^  c #4F2830",
"/  c #522E33",
"(  c #4C3634",
")  c #62313A",
"_  c #6C4314",
"`  c #714914",
"'  c #7F4F13",
"]  c #1A2243",
"[  c #2B2E44",
"{  c #263842",
"}  c #2E324B",
"|  c #323753",
" . c #343A55",
".. c #363D5A",
"X. c #2C494D",
"o. c #31454E",
"O. c #2E4E54",
"+. c #334956",
"@. c #34455B",
"#. c #32575C",
"$. c #3B4160",
"%. c #384F62",
"&. c #3A5365",
"*. c #3F536B",
"=. c #376167",
"-. c #386167",
";. c #38636A",
":. c #3D6671",
">. c #3F6F76",
",. c #3F7178",
"<. c #46484D",
"1. c #5D474A",
"2. c #575150",
"3. c #6C534A",
"4. c #7A4D50",
"5. c #60535B",
"6. c #765C53",
"7. c #415E72",
"8. c #436A79",
"9. c #44737E",
"0. c #7B6F7A",
"q. c #813310",
"w. c #8A3F16",
"e. c #8E3618",
"r. c #9A3D17",
"t. c #9E3819",
"y. c #8A430C",
"u. c #824912",
"i. c #8D5312",
"p. c #AC4411",
"a. c #B1411A",
"s. c #B45319",
"d. c #A76112",
"f. c #BB6314",
"g. c #CD5508",
"h. c #CA5E18",
"j. c #DD5B13",
"k. c #E35B10",
"l. c #DA620F",
"z. c #C36C13",
"x. c #D76B17",
"c. c #D17010",
"v. c #D97210",
"b. c #DD7A12",
"n. c #EB660D",
"m. c #F1650D",
"M. c #F4690D",
"N. c #FA6A0A",
"B. c #FB730D",
"V. c #FE7E10",
"C. c #81474F",
"Z. c #835554",
"A. c #855C5E",
"S. c #9F796F",
"D. c #AA7D73",
"F. c #467480",
"G. c #477C85",
"H. c #487F87",
"J. c #487F88",
"K. c #488088",
"L. c #81858D",
"P. c #8D8791",
"I. c #BC9084",
"U. c #A49BA7",
"Y. c #C38E85",
"T. c #CA8F87",
"R. c #C8998C",
"E. c #C8A198",
"W. c #D8A897",
"Q. c #E1AC9C",
"!. c #E7B1A0",
"~. c #EBB7A4",
"^. c #B6BAC3",
"/. c #C5C8D3",
"(. c #DDE4EE",
/* pixels */
"W Q Q Q g g 5 5 4 s 3 I W H H L L G ! Q Q W W Q Q W I I I I E I I I I I I I I I I I E I V I E g d W ",
"W Q Q W I I I I I g d 3 d B W ! H L L G Q Q W W Q E I E I I I I I I E I I I I E I I I I E B I I W Q ",
"W Q Q I I E I I I I E g g 3 3 d I Q H L ~ Q S S Q E E E I I I I E I E I I I I I I I I I E k E W Q W ",
"W Q Q I I I I I E I I I E g 3 3 3 4 g ! _ G Q S W E I g I E I I I I I I E I I I I I I I E E W ! Q W ",
"W W Q W I I I I I I I E E I g s 3 3 3 g H H S g D 4 A A d g E E I I I I I E I I E I E E E W Q Q W W ",
"Q W W Q W I I I I I I I I E E d 3 3 3 5 G F A ` z.w.f.r.Z = 4 E I I I I I I I I I I E W W Q Q W W W ",
"~ Q W W W W I I I I E I I I U I d 3 d 5 F A f.n.k.N.M.k.a.N 2 E E I I I I E E E I E W Q ! Q W W W Q ",
"H H Q W Q W W E E I I I I I I I g 3 3 E V ` V.N.N.N.N.N.M.c.' 5 I I I I I I E E W Q Q ! W W W Q Q W ",
"Q L G W W Q Q W E I I I I I I I I 4 E Q B d.B.N.N.N.N.N.m.j.M.i.3 E E E E S W ! Q Q W W W Q Q W E E ",
"Q L ~ W W ! Q Q W E I E I U I I E W Q ! 1 b.V.B.N.N.N.N.N.x.s.y.B W W W Q W Q W W W I I W Q W E E E ",
"Q L G W W W ! Q Q W E I I I U W Q Q W W 1 v.v.N.N.B.h.m.N.B.x.` V Q Q W W W W W W W W E W Q E B E I ",
"Q L ~ Q W W Q Q Q Q W W W W Q Q W W S G N w.q.t.g.m.z.e.m.M.a.4 W W W W W W Q Q Q Q Q W Q W I I I E ",
"Q L G Q Q W W W Q Q Q Q Q Q W W W W ! H G C J , 1.e.l.u.p.p.& * g W W Q Q G H G Q Q Q Q Q W E I I I ",
"W H ~ Q Q W B E Q Q Q Q Q Q I W Q Q Q W g 4 s Z.E.A.R U M w.; 2 4 W Q ~ L P P P L H Q W Q W E E I I ",
"W G G Q Q W d g W W W W W U I W Q W I 3 3 < S.!.~.Q.R.4.n , ; 2 I Q ! H G B W G P L G W W S E I I I ",
"E Q ~ Q W W I E W W W U U d I W Q W I I g e 6.~.~.!.Y.Y m 4 g 4 W Q Q E 4 s 3 5 W L L Q W W I E I I ",
"I Q Q Q W W Q Q Q Q Q Q U B U Q Q E I I E B k I.Y.Z./ ^ , S g g Q Q W 3 3 3 4 s d F L ! W W E E I E ",
"E Q Q W W Q ! Q ! ! ! Q Q W U Q W I E I 5 E 4 T s Y C.) , W 5 E Q W g d 4 d 3 3 3 5 H H Q W E E I I ",
"I W W W Q ! L L P P L ! Q W W Q W I I I E E V 4 < T ^ & h g I W Q W I I E g d 3 3 3 S L Q W E E I I ",
"I W W W Q L H G ! H L L ! Q W Q E I I I E E E E 4 % e O.;.a B Q Q W I I I I E g 3 3 E H Q W E B I I ",
"E W W Q H Q B d g U Q L K Q W Q E B E E E g E 5 = x ,.H.K.X.4 G Q E I I I I I I g 3 5 G ! Q E E I I ",
"I W W Q W d s 3 2 s I Q K G W Q W E E E E W W f { >.J.G.K.X.4 F W I I I I I I I E d 3 S ! W E E E I ",
"I W W Q I d 4 3 3 3 s W G H Q W Q W W Q W Q S v 8.O.G.G.G.X.2 F Q W I I I I I I E g d W Q Q W E I I ",
"W W W W I I I I 5 3 3 d Q H Q U W ! ! Q ! Q 3 ;.&.{ G.G.H.X.2 W Q W W I I I I I E B g E Q W W E I I ",
"W W Q W I I I I I 5 4 3 E G Q U W Q Q Q G F v G.%.z 9.G.K.X.B S W Q Q W E I I E I I I W Q W Q W I I ",
"W W W E I I I I I I I 3 I ~ Q U Q Q Q Q G 4 &.F. .z 9.G.K.X.B Q W W W Q W E I I I I E W W E Q Q W W ",
"W Q W I I I U I I I E 3 g Q Q U Q Q F S 4 p 8.9. .z 9.K.J.X.A G Q W W W Q Q W E I I W Q W W W W Q ! ",
"W Q Q I I I I I I I E g 4 Q Q W Q Q 5 3 < c F.8. .z 9.G.J.o.C P L G Q W W W W W W W W W W W Q Q W Q ",
"Q Q Q W I I I I B E E I g W Q W Q E g E 4 c G.7.| l :.G.J.X.V L P P L G W W W W W W W W Q Q Q Q Q Q ",
"L L ~ W E U I E E E I I g W W W Q E E E B r o. .| l *.G.G.-.i S Q H L P ~ Q Q Q W E W Q Q Q Q Q Q Q ",
"F G L L Q W E I E E E E E W W W W E E B 4 * T h z l *.G.K.F.u 3 5 I W ! P ~ Q Q W W W W Q Q ! Q Q Q ",
"3 d W L ~ Q W W E 5 E E W Q W Q Q E E E 3 #.b e d w +.F.K.9.u 2 s s d U ! K Q Q W W W Q Q Q Q W W E ",
"I 3 d S L Q W W W W I E Q Q W W Q W E E - X.9.@.[ 7 } 7.G.9.u 3 3 3 3 d I G Q Q W Q Q Q ! Q W E I I ",
"I d 3 I L Q W W W Q W Q Q W I Q Q Q W I + 6 >.*...[ [ | @.+.i 4 3 3 3 3 5 Q ! W W Q Q Q W W I I I I ",
"E I 3 5 G ! W g I W W Q W I g W Q Q Q E <   =.9.$...w / 1.> I g 3 d 3 3 d Q Q W W Q Q W E I I I E I ",
"E E d 4 G Q E 4 g E W U g d 4 U Q Q Q S 6 O y 9.$...j T.W.( B I d 3 3 d I Q W W Q Q W I I I I I I I ",
"I I g g ~ ! W E W Q Q Q W I g g W Q Q B 6 6 r @.} } # D.W.3.4 I g 3 d k F S W Q W W I I I I E I I I ",
"I I g 4 ! Q W W Q ! Q Q Q Q W I g E Q B 8 6 . 6 6 . o h h * I I k 5 B W W W W Q W I I I I I I I E E ",
"E I g I Q W W ! H H K K H Q Q W B d E 5 8 6 o 8 q @ @ o 8 : I I V S Q W E W Q W E I E I I I I I E B ",
"I E I g Q W Q H Q I B S K L Q Q W I 4 2 8 6 @ . t 8 @ @ 0 8 4 W Q Q Q E B Q Q E I I I I I I I E B k ",
"I I I E Q Q ~ Q 4 2 3 s I G L Q Q Q g > 8 6 @ o q 0 @ @ 8 9 4 Q Q Q W g W Q W I I I E I I I I I E E ",
"I E I W Q Q H B d d d s 3 d G H Q Q U 4 $ 8 @ o 8 [ 6 @ 6 q : Q Q W d g Q Q W I I I I I I I I I E B ",
"I E W Q Q ! S I I I I I g d 4 F Q Q W I > 8 6 o 8 ] 6 @ @ 9 : W I d 4 g W Q Q I I I I I I I E I E E ",
"W W Q ! Q Q W I I I I I E E g g Q Q Q U 3 $ 8 @ . q 6 @ @ 8 o 2 4 3 s g W Q Q W E I I I I I I I E E ",
"W W Q Q Q Q E E E I I I E E I I W Q Q U I 2 8 6 . 8 @ @ @ @ o > s 3 d 5 I W Q Q W W E E E E W W W Q ",
"Q Q W W Q W I I I I I I I I I I Q Q Q U Q V 6 6 .   @ @ @ @ + 3 I I W W W I W W W Q Q W W Q Q W Q Q ",
"Q Q Q W Q W I E I I I I E I I W Q Q U W Q Q 2 6 o   @ . @ + 5 W Q Q Q Q Q Q W W W W W W W W W W E W ",
"Q Q Q W Q Q E I I I E S W W Q Q Q U W Q Q W U 2 3 X   <.L.k Q Q Q Q Q Q ~ G ~ ~ ! ! ! Q W W W W Q Q ",
"Q W W W W Q Q W W Q Q Q Q Q Q W W W Q Q Q Q Q Q ! 4 * P./.d Q H L L L L L L L L L L L L L G G S Q Q ",
"W W W W W Q Q Q Q W W W W W W W Q Q Q Q Q W Q Q V 2 5.U.0.d L K G G F W W S W W W W Q Q G H H G Q Q ",
"Q Q Q W W W W W W U U E W Q Q Q Q Q Q Q W Q Q W 2.L./.(.^.E Q I 4 3 s 4 4 s 4 4 d 3 4 g k S F H G Q "
};
