/* XPM */
static char *__resized[] = {
/* columns rows colors chars-per-pixel */
"50 51 179 2 ",
"   c #0A090E",
".  c #0D0C13",
"X  c #120F14",
"o  c #110F19",
"O  c #141117",
"+  c #1C1413",
"@  c #14121C",
"#  c #1C171D",
"$  c #1D1A1D",
"%  c #2C0E15",
"&  c #3F0E1B",
"*  c #231514",
"=  c #2C1214",
"-  c #231915",
";  c #2E1F16",
":  c #241C1B",
">  c #2B1E1B",
",  c #341C16",
"<  c #381518",
"1  c #341E1A",
"2  c #292119",
"3  c #2F261F",
"4  c #3C2516",
"5  c #3E2915",
"6  c #36251F",
"7  c #39261D",
"8  c #37291E",
"9  c #3C291F",
"0  c #151525",
"q  c #181721",
"w  c #1B1921",
"e  c #14182D",
"r  c #1A1C2C",
"t  c #161A31",
"y  c #181C35",
"u  c #171F3C",
"i  c #191E3A",
"p  c #251C23",
"a  c #321D25",
"s  c #1B2528",
"d  c #1B2B30",
"f  c #1F373C",
"g  c #2D2420",
"h  c #282727",
"j  c #282927",
"k  c #352420",
"l  c #392621",
"z  c #332820",
"x  c #3D2920",
"c  c #222334",
"v  c #2B2631",
"b  c #24263A",
"n  c #262C3D",
"m  c #342F37",
"M  c #2A373B",
"N  c #2C3B3B",
"B  c #470E1F",
"V  c #43111C",
"C  c #5B1C1A",
"Z  c #4B2716",
"A  c #432C1C",
"S  c #4A2E1D",
"D  c #592B10",
"F  c #4C3316",
"G  c #4D311E",
"H  c #5A3A15",
"J  c #53331F",
"K  c #5A371F",
"L  c #5D381E",
"P  c #62280F",
"I  c #60371E",
"U  c #63391D",
"Y  c #683A1B",
"T  c #452E21",
"R  c #492F21",
"E  c #442529",
"W  c #41292F",
"Q  c #4B2D2C",
"!  c #57272A",
"~  c #473021",
"^  c #4C3221",
"/  c #43362E",
"(  c #523521",
")  c #593720",
"_  c #593820",
"`  c #4F2830",
"'  c #522E33",
"]  c #443334",
"[  c #7B3328",
"{  c #62313A",
"}  c #6C4314",
"|  c #714914",
" . c #1A2344",
".. c #1B2548",
"X. c #292E45",
"o. c #2C3346",
"O. c #273E46",
"+. c #2E354D",
"@. c #30364F",
"#. c #313954",
"$. c #284047",
"%. c #2C494D",
"&. c #32494F",
"*. c #2E4955",
"=. c #344459",
"-. c #2E5056",
";. c #3A4A62",
":. c #3A5265",
">. c #3B5B6A",
",. c #376067",
"<. c #39646C",
"1. c #3E6E76",
"2. c #3F7178",
"3. c #4E4744",
"4. c #57484C",
"5. c #565457",
"6. c #5E5B5B",
"7. c #644D4A",
"8. c #7A4D50",
"9. c #765A55",
"0. c #405A70",
"q. c #406674",
"w. c #446D7C",
"e. c #45727F",
"r. c #67636B",
"t. c #70646D",
"y. c #883514",
"u. c #8A3F16",
"i. c #9C3A18",
"p. c #8A430C",
"a. c #91400A",
"s. c #824912",
"d. c #8D5312",
"f. c #AC4411",
"g. c #B1411A",
"h. c #B45319",
"j. c #A76112",
"k. c #BB6314",
"l. c #CD5508",
"z. c #CA5E18",
"x. c #DD5B13",
"c. c #DA620F",
"v. c #C36C13",
"b. c #D76B17",
"n. c #D17010",
"m. c #D97210",
"M. c #DD7A12",
"N. c #EB660D",
"B. c #F1650D",
"V. c #F4690D",
"C. c #FA6A0A",
"Z. c #FB730D",
"A. c #F8740E",
"S. c #FE7E10",
"D. c #81474F",
"F. c #835554",
"G. c #855C5E",
"H. c #99766B",
"J. c #A16A68",
"K. c #467481",
"L. c #477C85",
"P. c #487E86",
"I. c #7F7D86",
"U. c #488088",
"Y. c #87868F",
"T. c #918993",
"R. c #939096",
"E. c #BC9084",
"W. c #A29CA7",
"Q. c #A6AAB2",
"!. c #ABB0B9",
"~. c #C38E85",
"^. c #C8998C",
"/. c #C8A198",
"(. c #E1AC9C",
"). c #E7B1A0",
"_. c #EBB7A4",
"`. c #C8CFD9",
"'. c #D6DBE5",
/* pixels */
"^ ( ( ( x x 9 9 l z z T ^ K U U I ) ( ( ( ^ ^ ( ( ^ ~ x ~ T T T T T ~ T T T T T T ~ T T T T T x x ^ ",
"^ ( ( ^ T T T T T x 9 7 7 T ^ ) U U U L ) ^ ^ ^ ( ~ T T ~ ~ T T T T T T T ~ T ~ T T T T T T T T ^ ( ",
"^ ( ( T T ~ T T T T T T l 6 6 l T G L U U ) ^ ^ ( ~ ~ ~ T ~ T ~ T T T T T T T T T ~ T T T T ^ / ( ^ ",
"^ ( ( T T T T T T T T T T 9 6 6 6 6 T K U K ^ ^ ^ ~ x ~ ~ ~ ~ x ~ T T T T T T T T T T T T ~ ^ ( ( ^ ",
"^ ^ ( ^ T T T T T T T T T T x l 6 6 6 T L L G A H 9 J S l T T T T T T ~ T T ~ T T T ~ ~ ~ ^ ( _ ^ ^ ",
"( ^ ^ ( ^ T T T T T T T T T T x 6 6 z 7 L G F } z.p.k.a.D * 7 T T T T T ~ T T T T T ^ ^ ( ( ( ^ ^ ^ ",
") ( ^ ^ ^ ^ T T ~ T T T T T T T l 6 6 x J F v.N.N.C.V.x.g.Z 6 A ~ T T T T T T T T ~ ^ ( ( ( ^ ^ ^ ) ",
"L _ ( ^ ( ( ~ ~ T T ~ T R T T T T 6 6 T S | Z.C.C.C.C.C.C.n.s.9 T T T T T T T ^ ^ ^ ( ( ^ ^ ^ ( ^ ^ ",
") U K ^ ^ ( ( ^ ~ T ~ T T T T T ~ 9 ~ ( F j.Z.C.C.C.C.C.B.x.V.d.7 A ~ T ~ ^ ^ ( ( ( ^ ^ ^ ( ( ^ ~ ~ ",
"( U ) ^ ^ ( ( ( ^ T T T T T T T ~ ^ ( ( 5 M.S.C.C.C.C.C.C.b.h.p.9 ( ^ ( ( ^ ( ^ ^ R T T ^ ( ^ T ~ ~ ",
"( U ) ^ ^ ( ( ( ( ^ ~ T T T R R ( ( ( ^ 5 n.m.C.C.A.z.B.C.Z.b.| S ( ( ^ ^ ^ ^ ^ ^ ^ ^ ~ ^ ( ~ T T T ",
"( U _ ( ^ ^ ( ( ( ) ^ ^ ^ ^ ( ( ^ ^ G J Z a.[ i.l.B.v.y.B.V.g.l ^ ^ ^ ^ ^ ^ ( ( ( ( ( ^ ( ^ T T T ~ ",
"( U K ( ^ ^ ^ ^ ( ( ( ( ( ( ( R ^ ^ ) L K D P < 4.y.c.s.f.f.& * A T ^ ( K K L K ) ( ( ( ( ^ T T T T ",
"^ L _ ) ( ^ T ~ ( ( ( ( ( ( R R ( ( J ~ T 7 k F./.G.! R C u.; 6 9 R ( ) U Y U Y U _ ( ^ ( ^ T T T T ",
"^ K K ( ) ^ l x ~ ^ ^ ^ ( T T ^ ( ( ~ 8 l > H.)._.(.^.8.B , ; 6 T ( ( L J S ^ K U U _ ( ( ^ T T T T ",
"~ ( ( ( ^ ~ ~ ~ ^ ~ ^ ^ T l T ( ( ^ x T E k 9._._.).~.E V 4 9 7 ( ( ( T l z 6 9 ^ U U ( ^ ^ ~ T T T ",
"T ( ( ( R ( ( ( ( ( ( ( R T R ( ( ~ T T T 9 x E.~.F.' ` 1 ^ x T ( ( T z z 6 6 6 l J Y ) ^ ^ ^ T ~ x ",
"T ( ( ^ ^ ( ( ( ) L ( ( ( ^ R ( ^ ~ T T T ~ 7 Q l W D.{ < G 9 T ( ( T l 9 6 6 6 6 9 I ) ^ ( T T ~ ~ ",
"T ( ( R ( ) L Y Y Y I ) ( ( ^ ( ^ T T T T T ~ 7 2 ] ! & a T T R ( ^ T T T T k 6 7 k J L ( ^ T T ~ T ",
"T ^ ^ ^ ( I L K ) L Y Y J ( R ( ~ T T T ~ T ~ ~ 7 % a &.<.j A ( ( ~ T T T T R x k z A L ( ( R T T T ",
"T ^ ^ ( K ( T 6 x T ( U I ( ^ ( ~ T ~ ~ x ~ ~ 9 = m 2.P.P.%.9 ( ( ~ T T T T T T x 6 9 K ) ( R T T T ",
"T ^ R ( ( l 6 6 6 6 T ( I ) ^ ( ^ ~ ~ ~ ~ ~ ^ 8 O.1.P.L.P.%.4 ( ^ T T T T T T T T 9 6 J ( ( R T T T ",
"T ^ ^ ( T 7 7 6 6 6 6 R L L ( R ( ^ ( ^ ( ( G N w.-.P.L.L.M 9 ( ( ^ T T T T T T T T 6 R ( ^ R T T T ",
"R R ( ^ T T T T l 7 6 x ( L ( R ^ ( ( ) ( ( z <.>.$.P.P.1.> T R ( ^ ^ T T T T T T T x T ( ( ^ T T ~ ",
"^ ^ ^ R T T T T T x z z ^ L ( R ^ ( ( ( K J N L.:.O.P.P.1.g ^ ^ ^ ( ( ^ T T T ~ T T x ^ ( ^ ( ^ T T ",
"^ ^ ( T T T T T T T x 6 T ) ) R ^ ( ) ( K 4 ,.e.o.%.P.P.1.z ( ( ^ ^ ^ ( ^ ~ T T T T T ^ ^ ^ ^ ( ^ ~ ",
"^ ( ^ T T T T T T ~ ~ l x ( ( R ( ( ( ~ 8 j w.e.b :.L.L.1.7 U _ ( ^ ^ ^ ( ( ^ ~ T T ^ ( ^ ^ / ( ( ( ",
"( ( ( T T T ~ T T T ~ x 7 ( ( R ( ( x l 2 M P.0.c :.P.P.1.7 Y U U K ( ^ ^ ^ ^ ^ ^ ^ ( ^ R ^ ( ( ^ ( ",
"( ( ^ ^ T T T T ~ ~ T T x ^ ^ ^ ( ^ x ~ 9 N e.;.c :.P.P.1.3 K L Y Y I K ( ^ ^ ^ ( ( ^ ^ ^ _ ( ( ( ( ",
"U Y _ ( ~ R T T ~ x T T T ^ ^ ^ ( ~ ~ ~ 9 s o.o.n q.L.P.1.2 9 ~ J L U Y ) ( ( ( ~ ~ R ( ( ( ( ( ( ( ",
"( K U I ( ^ ~ T ~ ~ ~ ~ ~ ^ ^ ( ^ ~ x ~ 9 - Q > n L.L.U.1.: 8 7 l T ( ) U ) ( ( ^ R ~ ( ( _ ( ( ( ( ",
"l 6 ^ U _ ( ( ^ ~ ~ x ~ ^ ^ ^ ( ^ ~ ~ ~ g %.m p n w.L.P.<.$ 7 z 6 7 l T ) I ( ( ^ R ( ( ( ( ( ^ ^ ^ ",
"T 6 z ( Y ( ^ ( ^ R T ^ ^ ( ^ ( ( ^ T T h f *.@.b 0.K.K.=.: 7 6 6 z k 6 T ) ) ( R ( ) ( ( ( ~ R T T ",
"T 9 k A L ) R ^ ^ ( ^ ( ( ^ R ^ ( ( ^ 7 0 . d =.d #.#.@.r - T 6 6 7 7 6 x ( ( ( R ( ( ( ( R T T T T ",
"T T z 9 K ( R x T ^ ^ ( ^ T x ^ ( ( ( > e   s :.c W 7.v X.: T x k 7 z 6 x ( ( R R ( ( R R T T T T T ",
"T T l 9 K ) R x x R R R x 7 l R ( ( ( : e . . +.c J._.9.X.> T T l k 6 6 T ) ^ R ( ( ( T T T T T T T ",
"T T x x ) ( R R R ( ( ( ^ T x x R ( A r t . . c b 8.(.H.0 1 T T x 7 z T ( ^ R ( ( ~ T T T T T T T ~ ",
"T T x 9 ) ( R ( ( K ( ( ( ( ^ T x R 7 t 0 o   . . p ] y u : T T T l A ( ( R ( ( ^ T T T T T T T T T ",
"T T T x ( G R ( L I L I L ( ( ^ T 7 w i 0 O . X o o 0 .. .w A T T ^ ( ^ T R ) R T T ~ T T T T T ~ ~ ",
"T T T T ( ( ( I J T T G I U ( ( ^ A @  .0 @ . . q o 0 ....e 7 ^ ( ( ( T T ^ ( T T T T T T T T ~ ~ x ",
"T ~ T ~ ( ( ) J 7 6 z z T K I ( ( ^ $  .y @ o . @ @ o u ..d 2 J ( ( R x R ( ^ T T T ~ T T T T T ~ ~ ",
"T T T ^ ( ( K T l l 7 6 6 9 K L ( G w  . .0 @ . o @ @ u .. .r A ( R x x ( ( ^ T T T T T T T T T ~ ~ ",
"T ~ ^ ( ( ( ( T T T T T T 6 9 J K G w ....y @ X o o o 0 ....e 6 T x k T ( ( ( T T T T T T T ~ T ~ x ",
"^ ^ ( ) ( ( ^ T T T T T T T x T ( J # u ..y @ @ . @ @ @ i ..0 + 6 k z x ^ ( ( ^ ~ T T T T T T T ~ ~ ",
"( ^ ^ ( ( ( T T T T T T T T T T ^ ( + 0 y 0 @ @ . o o o 0 e @ O 6 1 l x T ( ( ( ^ ~ R T ~ ~ ~ ^ ( ( ",
"( ( ^ ^ ( ^ T T T T T T T T T T ( ( ; o @ @ @ @ o . @ @ @ @ q 3 T T R R ^ R R ^ ( ( ( ( ( ^ ( ( ^ ( ",
"( ( ( ^ ( ^ T T T T R T T R T R ( ( A + o . . o O * o o O $ Y.4.S ( ( ( ( ( ^ ^ ~ ^ ^ ^ ^ ~ ~ ^ ^ ^ ",
") ( ( ^ ( ( ^ T T R R R R R ( ( ( R R A p 6.r.h 7 R , > 2 3.`.5.J ( ( ) ) ) ) ) ) ) ( ( ( ^ ^ ( ( ^ ",
"^ ^ ^ ^ ^ ( ( ( ^ ( ( ( ( ( ( ^ ^ ^ ^ k T.'.!.3.G ( ( ^ G 6 W.R.A U Y Y I U U U U U U U U K ( ( ( ) ",
"^ ^ ^ ^ ^ ( ( ( ( ( ^ ^ ( ^ ^ ^ ( ( / I.Q.6.~ ^ ) ( ^ A , t.W.r.4 K J G ^ S ^ ^ ^ ^ ( ( K L L K ( ( ",
"( ( ( ^ ~ ~ ~ ^ ^ R ~ ^ ~ ( ( ( ( ( 9 l l A ( ( ( ^ A 6.Y.'.'.R.6 6 6 6 7 z 6 7 7 7 l x x ^ ( L J ) "
};
