/* XPM */
static char *__resized[] = {
/* columns rows colors chars-per-pixel */
"50 51 170 2 ",
"   c #0D0C13",
".  c #110E15",
"X  c #100F19",
"o  c #0D1216",
"O  c #141115",
"+  c #1B1415",
"@  c #14121C",
"#  c #18151E",
"$  c #1D181E",
"%  c #201415",
"&  c #281717",
"*  c #241916",
"=  c #2C1D16",
"-  c #231B1D",
";  c #2C1E19",
":  c #3A101B",
">  c #331818",
",  c #331D1A",
"<  c #2C211B",
"1  c #362215",
"2  c #36251E",
"3  c #39271E",
"4  c #3C291E",
"5  c #141423",
"6  c #1C1923",
"7  c #161728",
"8  c #15182C",
"9  c #1A1C2D",
"0  c #151A32",
"q  c #181D36",
"w  c #171F3B",
"e  c #191E39",
"r  c #251C21",
"t  c #18262B",
"y  c #1D2732",
"u  c #2B2421",
"i  c #2C2A25",
"p  c #2E252D",
"a  c #342521",
"s  c #392720",
"d  c #3D2920",
"f  c #31242A",
"g  c #392228",
"h  c #222434",
"j  c #2A2A35",
"k  c #242739",
"l  c #252A3B",
"z  c #302C39",
"x  c #233234",
"c  c #28333B",
"v  c #35333A",
"b  c #4F1918",
"n  c #681F1A",
"m  c #472714",
"M  c #432B1C",
"N  c #4A2E1C",
"B  c #532E15",
"V  c #4C311E",
"C  c #513414",
"Z  c #583411",
"A  c #53341F",
"S  c #5A371F",
"D  c #5D381E",
"F  c #692715",
"G  c #75281B",
"H  c #633C13",
"J  c #60371E",
"K  c #63391D",
"L  c #683A1C",
"P  c #4B1723",
"I  c #681D20",
"U  c #422425",
"Y  c #452E21",
"T  c #482F21",
"R  c #432328",
"E  c #4E292F",
"W  c #473021",
"Q  c #4C3221",
"!  c #48342F",
"~  c #523521",
"^  c #593720",
"/  c #5B3820",
"(  c #432C35",
")  c #4B3934",
"_  c #563D3A",
"`  c #62323B",
"'  c #774814",
"]  c #1A2344",
"[  c #1B2549",
"{  c #2B2E44",
"}  c #273843",
"|  c #323752",
" . c #343A55",
".. c #633E41",
"X. c #713D45",
"o. c #2C4345",
"O. c #2C444A",
"+. c #2D494D",
"@. c #2C4950",
"#. c #34475B",
"$. c #34575C",
"%. c #3C4562",
"&. c #3E4B67",
"*. c #345B62",
"=. c #3D526A",
"-. c #395868",
";. c #3A656C",
":. c #3D6B73",
">. c #4F434B",
",. c #574948",
"<. c #5A504C",
"1. c #564C53",
"2. c #585559",
"3. c #764A4D",
"4. c #40566E",
"5. c #425F73",
"6. c #446C7B",
"7. c #44727E",
"8. c #6B6A6E",
"9. c #943C17",
"0. c #974009",
"q. c #824A13",
"w. c #9F4E17",
"e. c #8F5313",
"r. c #9D5912",
"t. c #A04B10",
"y. c #B44415",
"u. c #B74B16",
"i. c #A55A14",
"p. c #B75312",
"a. c #C45E0C",
"s. c #C74F19",
"d. c #D35716",
"f. c #DD6114",
"g. c #D26A11",
"h. c #CC7311",
"j. c #DD7319",
"k. c #EE660E",
"l. c #F3650C",
"z. c #FB6B0A",
"x. c #F5770E",
"c. c #FA720C",
"v. c #E56810",
"b. c #EB7812",
"n. c #FB7F10",
"m. c #8A5E5D",
"M. c #946763",
"N. c #98766A",
"B. c #AA7773",
"V. c #B17C77",
"C. c #FE8611",
"Z. c #467782",
"A. c #477D85",
"S. c #487F87",
"D. c #487F88",
"F. c #887E89",
"G. c #488088",
"H. c #979297",
"J. c #9C949F",
"K. c #BC8D82",
"L. c #A6A0AB",
"P. c #D19D8F",
"I. c #DAA697",
"U. c #E1AA9C",
"Y. c #DFB0A0",
"T. c #EBB7A4",
"R. c #EDB9A6",
"E. c #C6C8D2",
"W. c #DADFE9",
"Q. c #DAE0EA",
/* pixels */
"Q ~ ~ ~ d d 4 d a a 2 M ~ ^ K K K ^ ~ ~ ~ Q Q Q ~ Q Y W d W Y Y W Y Y Y Y Y Y Y Y Y Y Y W W W d d Q ",
"Q ~ ~ Q Y Y Y Y Y Y 3 a 2 Y V ~ K K K / ~ ~ Q ~ ~ Q Y Y W W Y Y Y Y Y Y Y W Y W Y W Y Y W d d W Q ~ ",
"Q ~ ~ Y W Y Y Y Y Y Y Y s 2 3 d Y ~ D L K ~ Q Q ~ W W W Y Y Y Y Y Y Y Y Y Y Y Y Y W Y Y W W W Q ~ Q ",
"Q ~ ~ Y Y Y Y Y Y Y Y Y Y d a 2 2 3 Y ~ K D Q Q ~ W W W Y Y Y W Y Y W Y Y Y Y Y Y Y Y Y W W Q ~ ~ Q ",
"Q ~ ~ Q Y Y W Y W Y Y Y Y Y d s 2 2 2 Y D D ~ Q V M M 4 d Y W Y Y W Y Y Y W Y Y Y Y W W W Q ~ ^ Q Q ",
"~ Q Q ~ W Y Y Y Y Y Y Y Y Y Y d 2 2 2 s S S V 4 ' q.m e.3 1 2 Y Y Y Y Y Y Y Y Y Y Y W Q ~ ~ ~ Q Q Q ",
"~ ~ Q Q ~ W Y Y Y Y Y T Y Y Y Y s 2 a 4 ~ A C q.a.s.g.d.y.F & Y Y Y Y Y Y W Y Y Y Q Q ~ ~ ~ Q Q Q ~ ",
"D D ~ Q Q ~ Q Y Y Y Y Y Y Y Y T d s 2 T ~ M r.c.z.z.z.z.d.p.C 4 Y Y Y Y Y Y Y Q Q Q ~ ~ Q Q Q ~ ~ Q ",
"^ K S Q Q ~ ~ Q Y Y W Y Y Y Y Y Y 4 T ~ A M h.z.z.z.z.z.z.c.b.e.4 N Y W W Q Q ~ ~ ~ ~ Q Q ~ ~ Q W W ",
"~ K ~ Q Q ~ ~ ~ Q Y Y Y Y Y Y Y Q Q ~ ~ N ' x.c.z.z.z.z.z.f.s.f.H Y Q Q Q Q ~ Q Q Q Y d Q ~ Q Y W W ",
"~ K S Q Q ~ ~ ~ ~ Q W Y Y Y Y ~ ~ ~ Q Q Y ' C.n.z.z.k.k.z.c.j.r.C V ~ Q Q Q Q Q Q Q Q W Q ~ W Y Y Y ",
"~ K / ~ Q Q ~ ~ ~ ~ Q Q T Q ~ ~ Q Q Q A A ' a.p.l.z.b.u.k.z.z.w.N Q Q Q Q ~ ~ ~ ~ ~ ~ ~ Q Q Y Y Y W ",
"~ K S ~ Q Q Q ~ ~ ~ ~ ~ ~ ~ Q T Q ~ ~ D J m 0.n S 9.v.i.9.l.y.b 2 Y Q ~ ~ S D S ~ ~ ~ ~ ~ Q Y Y Y Y ",
"Q D S ~ ~ Q d Q ~ ~ ~ ~ ~ ~ T T Q ~ ~ N d M 1 , ..N.G t.B u.m + 1 Q ~ ^ K L L L K D ~ Q ~ Q W Y Y Y ",
"Q S S ~ ~ Q s d Q Q Q Q ~ Y Y Q ~ ~ Y a a 2 p M.P.Y.m.3.P I Z = Y ~ ~ D S N Q S L K / Q ~ Q Y Y W Y ",
"W ~ / ~ ~ W W W Q Q Q T Y s Y ~ ~ Q Y Y d a ) I.T.T.R.K.P : & 1 Q ~ ~ W 2 a 2 4 Q K K ~ Q Q Y Y Y Y ",
"Y Q ~ ~ T ~ ~ ~ ~ ~ ~ Q T Y T ~ ~ Y Y Y W Y < N.R.U.V._ : , U M Q ~ Q s 2 2 3 2 s A K ~ Q Q W Y Y Y ",
"Y ~ ~ ~ Q ~ ~ ~ / / ~ ~ ~ T Q ~ Q Y Y Y Y Y Y ! B.,.E X.R M d T ~ ~ d s s 3 2 a 2 d K D ~ Q W Y Y Y ",
"Y ~ ~ T ~ ^ D L L L L ^ ~ ~ Q ~ Q Y Y Y Y Y N 3 > % 3.` b > Y Q ~ Q Y Y Y Y s 2 2 a V K ~ ~ Y Y W Y ",
"Y Q Q Q ~ J D S ^ D L L ~ ~ Q ~ Y Y Y Y Y Y Y Y M & R : p c 4 ~ ~ W Y Y Y Y Y d 2 2 Y D ~ Q Q Y Y Y ",
"Y Q Q ~ D A Y s d T ~ J J ~ Q Q Q Y W Y Y W Y Q 4 > f $.Z.;.i A ~ W W Y Y Y Y Y d 2 s S ~ ~ W Y Y Y ",
"Y Q T ~ Q s 2 2 2 a Y S L ~ Q ~ Q Y W W W W Q Q = p :.G.A.Z.i A Q Y Y Y Y Y Y Y Y s s V ~ ~ Y Y Y Y ",
"T Q Q ~ Y s 3 2 2 2 2 Y S D ~ Q ~ ~ Q ~ ~ ~ ~ M o.7.A.A.G.;.u Q ~ Q Y Y Y Y Y Y W Y 2 Q ~ ~ Q Y Y Y ",
"T T T ~ Y Y Y Y d 2 2 d A D ~ T Q ~ ~ ~ ~ ~ ~ i :.*.:.A.G.+.2 Q ~ Q W Y Y Y Y Y Y Y 3 Q ~ ~ Q Y Y W ",
"Q Q Q T Y Y Y Y Y d a 2 Q S ~ T Q ~ ~ ~ ^ ^ N O.A.@.;.S.S.+.M T Q ~ ~ Q W W Y W Y Y Y Q ~ Q ~ Q Y Y ",
"Q Q ~ Y Y Y Y Y Y Y Y 2 Y ~ ~ T ~ ~ ~ ~ ~ S s :.Z.} ;.S.S.+.M ~ Q Q Q ~ Q W Y W Y W Y Q Q W ~ ~ Q W ",
"Q ~ Q Y Y Y Y T Y Y W s 4 ~ ~ Q ~ ~ Q W 4 3 x A.5.l ;.S.D.+.B ^ ~ Q Q Q Q ~ Q W Y Y W ~ Q W Q Q ~ ~ ",
"~ ~ ~ Y Y W Y Y Y W Y d 3 ~ ~ Q ~ ~ M 2 2 ; *.Z.%.l :.S.D.+.B L K S Q Q Q Q Q ~ Q W ~ ~ W Q ~ ~ Q ~ ",
"~ ~ ~ Q Y Y Y Y Y Y Y Y s Q ~ Q ~ Q d Y Y < ;.;.| k 7.A.D.+.N L L L D S ~ Q Q Q ~ ~ Q Q ~ ~ ~ ~ ~ ~ ",
"K K / ~ W Y Y W W Y Y Y Y Q Q Q ~ Q Y W W < *.=.| k 7.G.D.+.1 T S D L L / ~ ~ ~ W W T ~ ~ ^ ~ ~ ~ ~ ",
"A S K J ~ Q W Y Y Y Y W Y Q Q ~ Q Y W Y W < u z { l 7.A.G.+.; s 3 U ~ / K / ~ ~ Q T W ~ ~ ~ ~ ~ ~ ~ ",
"s 2 Q K / ~ ~ W W Y Y W W ~ Q Q ~ W Y Y W < f U - | 7.G.Z.{ ; a a a s Y ^ J ~ ~ Q T ~ ~ ~ ~ ~ Q Q Q ",
"Y 2 a A K ~ Q ~ Q Q Y Y ~ ~ T ~ ~ Q W Y 3 x -.{ y  .6.A.6.l ; a 3 a 3 2 Y S ~ ~ Q ~ ~ ~ ~ ~ Q W Y Y ",
"Y s 2 Y D ^ Q T Q ~ Q ~ ~ Q Y ~ ~ ~ Q W < @ } &.h  .&.4.%.k 2 3 2 2 2 a s S ~ Q Q ~ ~ ~ ~ Q Y Y Y Y ",
"Y Y 2 s S ~ T d Y Q ~ ~ T Y d Q ~ ~ ~ Y 6 8 t -.{ k k k h h 2 d 3 2 3 2 3 ~ ~ Q Q ~ ~ Q Y W Y Y Y W ",
"Y Y s 4 S ^ T 4 d Y T T Y 3 s T ~ ~ ~ M 9 w o #. .g M.N.y | r d s 2 2 a Y ~ Q Q ~ ~ Q Y Y Y Y Y Y Y ",
"Y Y s 3 ^ ~ T T Q ~ Q ~ T Y d d Q ~ ~ M 8 q   O.#.( I.T.>.5 $ Y d a a Y Q Q Q Q Q Q Y Y Y Y W Y Y Y ",
"Y Y Y s ^ ~ T ~ ~ ~ / ~ ~ ~ T Y 4 Q ~ 1 e e @ o h # M.m.l y 0 1 Y 3 M ~ ~ T ~ ~ Q Y Y Y Y Y Y Y Y Y ",
"Y Y Y Y ~ ~ Q ~ D D K K D ~ ~ Q U 4 M - ] ] 7   . X O X 5 ] 0 ; Q Q ~ ~ Y Q ~ Q W Y W Y Y Y Y Y Y Y ",
"Y Y Y d ~ ~ ~ S A Y U N J L ~ ~ T d 2 6 ] ] 5 @   . X @ 5 ] ] r Q ~ ~ Y U A ~ W Y Y Y Y Y Y Y W Y W ",
"Y Y Y W ~ ~ ^ A 3 2 a 2 Y S D ~ ~ ~ 1 0 [ q @ @ . X X # X q ] 6 ~ ~ T d T ~ Q Y Y Y Y Y Y W Y Y Y Y ",
"Y Y Y ~ ~ ~ S Y s s s 2 2 s S D ~ ~ 3 0 [ q @ @ . % X 5 # 0 [ 9 4 T d d ~ ~ Q Y Y Y Y Y Y Y Y Y Y Y ",
"Y W Q ~ ~ ~ ~ Y W Y Y Y d 2 4 A ~ ~ r y ] 8 @ @ . 1 . X X 7 ] ] - 4 3 d ~ ~ ~ Y Y Y Y Y Y Y Y W W W ",
"Q Q ~ ~ ~ ~ W Y W W Y Y Y Y Y d Q ~ 6 [ w 5 @ @ . N + # X 5 e ] 5 & a d Q ~ ~ Q W Y Y Y Y Y Y Y W W ",
"~ Q Q ~ ~ ~ Y W Y Y Y Y Y Y Y Y Q V O 8 5 @ @ @ . N % @ @ @ 7 7 X + 4 d Y ~ ~ ~ Q W W W W W W Q ~ ~ ",
"~ ~ Q Q ~ Q Y Y Y Y Y Y Y Y Y Y ~ 1 @ @ @ @ @ @ + A 1 X @ @ @ # @ + M Q T T T Q ~ ~ ~ ~ Q Q ~ ~ Q ~ ",
"~ ~ ~ Q ~ ~ Y Y Y Y Y Y Y Y T Q ~ 2 X @ @ @ @ X < ~ M . @ @ @ @ X   M ~ ~ ~ Q Q W Q Q Q Q W Q W Q Q ",
"~ ~ ~ Q Q ~ Q Y Y W W Q Q Q ~ ~ ~ N * . @ @ X . M ~ A = X @ X X v >.<.A ^ / ^ / ^ ^ ~ ~ ~ Q Q ~ Q Q ",
"~ ~ Q Q Q ~ ~ Q ~ Q ~ ~ ~ ~ ~ ~ W ~ N p 2.j 1 N ~ ~ ~ T M % & a F.E.H.C K K K K K K K K D D S ~ ~ ~ ",
"Q Q Q Q Q ~ ~ ~ ~ Q Q ~ Q Q Q Q ~ M a F.J.1.M ~ ^ ~ Q Q ~ / S ; L.E.<.N Q T V Q Q Q ~ A S D D S ~ ~ ",
"Q ~ ~ ~ Y Q Q Q Q T Y Q Q Q ~ ~ Y 8.J.W.Q.G.M ~ ^ A J L ^ S _ H.E.1.1 a 3 s 3 s 3 s 3 d Y Y ~ D S ~ "
};
