/* XPM */
static char *__resized[] = {
/* columns rows colors chars-per-pixel */
"50 51 179 2 ",
"   c #0E0D14",
".  c #110F17",
"X  c #100F19",
"o  c #151216",
"O  c #1C1514",
"+  c #14121C",
"@  c #1C161B",
"#  c #1F1A1D",
"$  c #211515",
"%  c #281717",
"&  c #251A15",
"*  c #2B1C16",
"=  c #231B1B",
"-  c #2B1E1A",
";  c #3A101B",
":  c #341918",
">  c #2C211A",
",  c #3B2514",
"<  c #36251E",
"1  c #39261E",
"2  c #3C291F",
"3  c #151524",
"4  c #191924",
"5  c #121629",
"6  c #15192B",
"7  c #151B34",
"8  c #181D35",
"9  c #171E3A",
"0  c #191E3A",
"q  c #221E22",
"w  c #2F1F27",
"e  c #1A2637",
"r  c #2A2321",
"t  c #2F2B25",
"y  c #2A292A",
"u  c #342621",
"i  c #392720",
"p  c #342D24",
"a  c #3D2920",
"s  c #30212A",
"d  c #332E2E",
"f  c #3E3129",
"g  c #222436",
"h  c #242639",
"j  c #2A2838",
"k  c #312A35",
"l  c #263537",
"z  c #23353E",
"x  c #3E373A",
"c  c #4F1918",
"v  c #681F1A",
"b  c #442615",
"n  c #4B2B16",
"m  c #422B1D",
"M  c #4A2F1D",
"N  c #512D11",
"B  c #4C311E",
"V  c #523315",
"C  c #583411",
"Z  c #54341F",
"A  c #5A371F",
"S  c #5D381E",
"D  c #703B0F",
"F  c #692715",
"G  c #75281B",
"H  c #633C13",
"J  c #63391D",
"K  c #64391D",
"L  c #4B1723",
"P  c #681D20",
"I  c #422425",
"U  c #452E21",
"Y  c #482F21",
"T  c #432328",
"R  c #4E292F",
"E  c #473021",
"W  c #4C3221",
"Q  c #4B372E",
"!  c #523521",
"~  c #593720",
"^  c #5B3820",
"/  c #4B3934",
"(  c #433338",
")  c #5C3B3D",
"_  c #62323B",
"`  c #6B4513",
"'  c #744A12",
"]  c #172144",
"[  c #1A2345",
"{  c #1B2548",
"}  c #2B2E44",
"|  c #263C44",
" . c #2B3E40",
".. c #2D3149",
"X. c #30334D",
"o. c #323652",
"O. c #323953",
"+. c #363C59",
"@. c #3A3E5E",
"#. c #463C40",
"$. c #633E41",
"%. c #713D45",
"&. c #2E4547",
"*. c #324657",
"=. c #334759",
"-. c #38425D",
";. c #315054",
":. c #32565C",
">. c #3C4261",
",. c #3C4A65",
"<. c #325B61",
"1. c #3F556C",
"2. c #3D5C6D",
"3. c #39656C",
"4. c #3C696F",
"5. c #3E6372",
"6. c #3D6C73",
"7. c #3F7279",
"8. c #494544",
"9. c #544F4F",
"0. c #764A4D",
"q. c #68534F",
"w. c #5E5F66",
"e. c #655E60",
"r. c #416173",
"t. c #446B7A",
"y. c #43757E",
"u. c #6C686A",
"i. c #6E6C72",
"p. c #943C17",
"a. c #824A13",
"s. c #9F4E17",
"d. c #8F5313",
"f. c #9D5912",
"g. c #A04B10",
"h. c #B44415",
"j. c #B74B16",
"k. c #A55A14",
"l. c #B75312",
"z. c #C45E0C",
"x. c #C74F19",
"c. c #CC5116",
"v. c #D35716",
"b. c #E25A11",
"n. c #DD6114",
"m. c #D26A11",
"M. c #CC7311",
"N. c #DD7319",
"B. c #EE660E",
"V. c #F3650C",
"C. c #FB6B0A",
"Z. c #FA720C",
"A. c #E56810",
"S. c #EB7812",
"D. c #FB7F10",
"F. c #8A5E5D",
"G. c #906461",
"H. c #96756B",
"J. c #A77B72",
"K. c #B17C77",
"L. c #FE8612",
"P. c #467681",
"I. c #477D85",
"U. c #487E87",
"Y. c #488088",
"T. c #89808B",
"R. c #958995",
"E. c #BC8D82",
"W. c #9E96A1",
"Q. c #A19BA2",
"!. c #A2A5AE",
"~. c #CA9489",
"^. c #D19D8F",
"/. c #DBAB9A",
"(. c #E1AA9C",
"). c #EBB7A4",
"_. c #EDB8A6",
"`. c #C0C5CF",
"'. c #D1D6DF",
/* pixels */
"W ! ! ! a a 2 2 u u i m W S J K J ~ ! ! ! W W W ! W E E U E E E U U E E U E a U U U U U U U U a a W ",
"W ! ! W U U U U U a a u < U W Z S K K S ! ! W ! ! E E m E a U U U U a E U U E U U U U U f E U U W W ",
"W ! ! U U U U U U U U U a < < a U ! S K J ! W W ! E E f U U U U E U E U U E a E U U U U E E E W ! ! ",
"W ! ! U U U E U U U U E U a u < < 1 U Z J S W W ! W E E U E U U U U U U U U E E U U U U E E W ! ! W ",
"W W ! W U U U U U U U U U U a i < < < a S S Z W Z m m 1 a U U U U U U U E U E E U U E E E W ~ ! W W ",
"! W ! ! W U E U U U U U U U U a < < < 1 A ^ B 2 H ' b d., < < U U U U U a U E a U U E W W ! ! W W W ",
"~ ! W W W W U U E U U Y U U U U i < < 2 ~ ! V a.m.c.m.v.h.F % U E U E E E E E E U E W ! ! W W W W ! ",
"S ^ ! W W ! E U U U U U U U U Y U < u U ! m f.Z.C.C.C.C.b.l.V 2 U U U a E E E W Q ~ ~ ! ! W W ! ! W ",
"! K A W W ! ! W E U E U U U U U E 2 E ! A , M.C.C.C.C.C.C.B.S.d.2 M m E E W W ! ! ! W W W ! ! W E U ",
"! K ~ W W ! ~ ! E E U U U U U U E W ! ! M ` Z.Z.C.C.C.C.C.n.x.A.H E W W W W ! W W W U U W ! W U U E ",
"! J A W W ! ! ! ! W E U U U U ! ! ! Z W 2 ' L.D.C.C.B.B.C.Z.N.f.N B ! W W W W W W W W U W W E U U U ",
"! J ~ ! W W ! ! ! ! W E Y W ! ! W W B Z B D z.l.V.C.S.j.V.C.Z.s.B W W W W ! ! ! ! ! ! ! ! W E U U E ",
"! J A ! ! W W ! ! ! ! ! ! ! W Y W ! ~ S S n p.v P p.A.k.p.V.h.c > M W ! A S S A ! ! ! ! ! W U U U U ",
"W S ~ ! ! W a E ! ! ! ! ! ! Y Y W ! Z E U 2 , : 9.H.G g.n j.c $ < W ! ~ K K K K K S ! W ! W U U U U ",
"W A A ! ! W i a W W W ! ! U U W ! ! E < < < u G.^./.F.0.T v C * E ! ! S Z B B A K J ~ W ! W U U U U ",
"E ! ~ ! W W E E E W W E U i U ! ! B m f U u / /.).)._.E.L ; & , W ! ! U i < < 2 ! J J ! W W U U U E ",
"U ! ! ! W W ! ! ! ! ! ! Y U Y ! ! E E U E U < H._.(.K.) ; : a U ! ! Y u u i 1 u 1 ! K Z W W W E U U ",
"U ! ! ! W ! ! ~ ~ S ! ! ! W W ! W E U U U U 2 Q J.$.R %.T m 2 U ! ! a a i < < < < a S S W ! U U U E ",
"U W ! Y ! ! S K K K K ^ ! W W ! E U U U U U U 1 : O 0._ c : U W ! W U U U U i < 1 u Z S ! W U U U U ",
"U W W W ! K J ~ A J K K ~ ! W ! E U E U E U U E a - I ; k l 2 ! ! E U U U U U a 1 < m S ! ! Y U E U ",
"U W W ! S ! m 1 a U ! K J ! Y W E U E E E f E U 1 : s :.P.3.t ! ! U U U E U U U a < 2 A ! ! U U U U ",
"U W W ! W i u < < < U ! J ~ W ! W E E E E M W B * y 7.Y.I.P.z M ! E U U U U U U U i < Z ! ! Y U U U ",
"Y W W ! U i 1 < < < < W A S W ! ! ! W W W ! ! m  .y.6.I.I.Y.:.m ! E U U U U U U U U u Y ! ! Y U U U ",
"Y Y W W U U U U i < < a Z S ! Y W ! ! ~ ~ ! ! t 6.t.| I.I.Y.:., ! W W U U U U U U U 2 Y ! ! W U U U ",
"W W W Y U U U U U a u a W ~ ! Y W ! ~ ! Z S M &.U.2.z I.I.I.;., W ! ! W E U U U U U a W ! W ! E U E ",
"W W ! U U U U U U U a u U ~ ! Y W ! ! ! A A p 6.I.-.z I.I.P.d W W W W ! W E U U U U U W W E ! ! W W ",
"W ! W U U E U U U U E a a ! ! Y ! ~ ! E 2 1 l I.P.@.z I.Y.P.t ~ ! W W Y ! ! W E U U W ! W E E ! ! ! ",
"! ! ! U U U E U U E E a < ! ! W ! W 2 < < - :.U.r.+.z I.I.7.p J J A Z Z W W W W W W ! W W Q ! ! W ! ",
"! ~ ! E U U U U E E U a a W W W ! E a E U > 3.U.r.o.| I.I.y.t J K K K S ! W W W W W W W ! ! ! ~ ! ! ",
"J K ^ ! E U U U E E U U a W ! W ! W E E E > <.5.@.h *.I.Y.7.y E ! S K K ~ ! ! ! W W W ! ! ~ ! ! ! ! ",
"W ~ J J ! W E U E a E E E W W ! W E E a E - w k o.h =.U.I.5.# < 1 U ! S K ~ ! ! W Y Y ! ! ! ! ! ! ! ",
"i i E J ^ ! ! W U U U E E ! W ! W E E E U > d I s @ =.U.I.3.# < < u 1 U ! J ! ! W W W ! ! ! ! W W E ",
"U < u ! J ! W ! ! U U Y W ! W ! ! W E E 2 | 5.} k = O.t.y.,.# < < 2 < < U S ! ! W ! ! ! ! ! W U U U ",
"U a u m S ~ W Y ! ! W ! ! W U ! ! ! E U 2 z y.,.@.e X.,.,.+.# < < < i < 2 ! ! ! Y ! ! ! ! W U U U U ",
"U U < 1 A ! Y a U Y ! ! Y U a W ~ ! W W - 6 4.1.@...g h j e @ a < < < < a ! ! Y W ! ! W U U U U U U ",
"U U i a A ~ Y a a U Y Y U i i Y ! ! ! ! - 5 ;.2.@.+.w G.J.g > m i < < u U ! W Y ! ! W U U U U U U U ",
"U U a a ~ ! Y Y Y ! ! Y Y U a 2 W ! ! ! - 5 e t.>.o.w ~.).q.O E a i < a ! W Y ! ! E U U U U E U E U ",
"U U a i ~ ! Y ! ! ~ ~ ! ! ! Y U a Y ! ! - 7 4 z g 3   F.H.k o U U i E ! W W ! ! W U U U U U U U U U ",
"U U U U ! B W ! S J J J S ! ! W m a U m 6 [ 3 .   . + + 8 ] 7 < E W ! W E W ! W U U E U U U U U U U ",
"U U U a ! ! ! S ! U U Y J K ! ! W a 2 < 6 [ 3 X   . + 3 [ [ 7 , ! ! W E U ! ! U U U U U U E U U U U ",
"U E E E ! ! ~ Z 1 u u < U A J ! ! W 2 * 6 { 8 3   . + 3 [ [ ] - ! ! Y a Y ! W U U U U U U U U E U U ",
"U U U W ! ! A U i 1 i < < i Z S ! ! W < 6 { 0 X . . 3 + 7 { [ 4 M Y i a ! ! W U U U U U U U U U U U ",
"U E W ! ! ~ ! U U U U U a a 2 Z ~ ! W > 9 { 9 3 .   + + 3 8 [ 0 - a u U ! ! ! U U E U U U U U E E U ",
"W W ! ! ! ! E U U U U U E m 2 I ! ! ! = 9 e 5 + .   + + + + 5 0 3 < u a W ! ! W U U U U U U U U E E ",
"W W ! ! ! ! E U E U U U U U E U W ! Z = 5 3 + + +   . + + + + 3 . $ i a U ! ! ! W E Y U E E E W W ! ",
"! ! W W ! W U U U U U U E U U U ! ! W $ + + + + 3   . + + + + . q < W W Y Y Y W ! ! ! ! W ! ! ! ! ! ",
"! ! ! W ! ! E U U U U U U U U W ! ! W & . + + + + $ O X . .   w.W.f ! ! ! ! W W E W W W W E E W W W ",
"! ! ! W W ! E U U U E W W W ! ! W W W m & + + o * M W - O < * T.`.U Z ! ~ ^ ^ ~ ~ ~ ! ! ! W W ! W ! ",
"! W W W W ! ! ! ! W ! ! ! ! ! W W W ! ! m #.!.8.B ! Z W ! ! Z 1 T.u.V K K K K K K K K J J A ! ! ! ! ",
"W W W W E ! ! ! ! ! W ! W W W W ! ! ! b ( W.R.x B ! W W ! A J n x i.b B W Y W B W Y ! ! A S S A ! ! ",
"! ! ! W E W E W E Y W E W W ! ! ! ! / e.Q.'.'.9.M Z Z Z ~ S ! m r  .< a u i a i 1 i i a U U Z S A ! "
};
