/* XPM */
static char *imageedit_3_2537268034_resized[] = {
/* columns rows colors chars-per-pixel */
"50 50 250 2 ",
"   c None",
".  c #2B1C17",
"X  c #72271D",
"o  c #601F1B",
"O  c #78413B",
"+  c #7C7474",
"@  c #7C7C7C",
"#  c #777977",
"$  c #786A69",
"%  c #953528",
"&  c #A73629",
"*  c #B9392B",
"=  c #A83B31",
"-  c #BB3C33",
";  c #9E361D",
":  c #CC3A2E",
">  c #C4382C",
",  c #D23A2E",
"<  c #CB3F33",
"1  c #DC3D31",
"2  c #D53C31",
"3  c #E43E32",
"4  c #E93E32",
"5  c #F03F34",
"6  c #98453A",
"7  c #985339",
"8  c #93452B",
"9  c #B8452B",
"0  c #B7582B",
"q  c #A6473D",
"w  c #B74938",
"e  c #B85636",
"r  c #AA5634",
"t  c #B56B3A",
"y  c #A75A2C",
"u  c #D76B1B",
"i  c #EB7A1C",
"p  c #F47A13",
"a  c #E96D1F",
"s  c #C3492E",
"d  c #C74737",
"f  c #D44234",
"g  c #DB4535",
"h  c #C95734",
"j  c #DA5A37",
"k  c #C8562B",
"l  c #ED4034",
"z  c #EC453A",
"x  c #E4493D",
"c  c #E64739",
"v  c #F44336",
"b  c #F34537",
"n  c #E95C3D",
"m  c #DB6B28",
"M  c #D7782B",
"N  c #C96839",
"B  c #D86738",
"V  c #C97737",
"C  c #D7783A",
"Z  c #CB652B",
"A  c #E97929",
"S  c #E97339",
"D  c #ED693F",
"F  c #CC5C1B",
"G  c #9D4C46",
"H  c #8A594D",
"J  c #975649",
"K  c #875A54",
"L  c #915A50",
"P  c #A84A43",
"I  c #AA534A",
"U  c #B9564B",
"Y  c #A95B56",
"T  c #B85A53",
"R  c #B84A42",
"E  c #99605C",
"W  c #A7635B",
"Q  c #B76558",
"!  c #B67147",
"~  c #8B6D6A",
"^  c #866867",
"/  c #966965",
"(  c #89736D",
")  c #8A7C7C",
"_  c #877775",
"`  c #967A78",
"'  c #95706D",
"]  c #A96B66",
"[  c #AA756E",
"{  c #B87667",
"}  c #A67975",
"|  c #B87E76",
" . c #B46A64",
".. c #C74D43",
"X. c #D64D43",
"o. c #DB4B41",
"O. c #CB5349",
"+. c #D65247",
"@. c #C45850",
"#. c #E85742",
"$. c #E4554A",
"%. c #D56846",
"&. c #D97748",
"*. c #C66557",
"=. c #D87952",
"-. c #CF6A50",
";. c #E66C4A",
":. c #D46E63",
">. c #C97867",
",. c #C36F68",
"<. c #E4766B",
"1. c #BE8130",
"2. c #F68819",
"3. c #F5951C",
"4. c #EE8B1B",
"5. c #D58936",
"6. c #DA9434",
"7. c #EA892C",
"8. c #F28923",
"9. c #F59925",
"0. c #E48935",
"q. c #E99738",
"w. c #F29833",
"e. c #EC962D",
"r. c #D8AF3D",
"t. c #FCAC26",
"y. c #FAAD2B",
"u. c #F8A529",
"i. c #FBB62B",
"p. c #E7A237",
"a. c #F4A935",
"s. c #E8B83C",
"d. c #F7B837",
"f. c #EDA727",
"g. c #FCC335",
"h. c #FECB35",
"j. c #FBCB3C",
"k. c #F9C43B",
"l. c #FBD33B",
"z. c #FAD538",
"x. c #FAC52D",
"c. c #FCE038",
"v. c #AD8750",
"b. c #86837C",
"n. c #91886F",
"m. c #B89375",
"M. c #A78A70",
"N. c #ADA064",
"B. c #C98846",
"V. c #DA874A",
"C. c #D79744",
"Z. c #DB9553",
"A. c #CB8853",
"S. c #E99A45",
"D. c #E9864F",
"F. c #DBAB56",
"G. c #DDB553",
"H. c #D2B050",
"J. c #E9A746",
"K. c #E8B74A",
"L. c #F5B946",
"P. c #E9B855",
"I. c #F3B958",
"U. c #EFAC56",
"Y. c #DA9977",
"T. c #D38D6C",
"R. c #E39570",
"E. c #CFAD78",
"W. c #E9BB67",
"Q. c #F5B875",
"!. c #E9B06B",
"~. c #D8C352",
"^. c #EDCB47",
"/. c #F5CA47",
"(. c #F6D547",
"). c #EFC55B",
"_. c #F8C656",
"`. c #F5D657",
"'. c #EED44B",
"]. c #F9E847",
"[. c #F5E75B",
"{. c #F6F24C",
"}. c #F4D866",
"|. c #F1C976",
" X c #F7D97A",
".X c #EECC69",
"XX c #F5EA65",
"oX c #EDE16D",
"OX c #DAD061",
"+X c #7D7E82",
"@X c #847F80",
"#X c #987F80",
"$X c #7E8181",
"%X c #838484",
"&X c #8B8584",
"*X c #8B8A85",
"=X c #8B8C8C",
"-X c #888787",
";X c #938C8C",
":X c #948687",
">X c #92918D",
",X c #8E8D90",
"<X c #939393",
"1X c #999A98",
"2X c #908F90",
"3X c #A38683",
"4X c #B1968F",
"5X c #AAA79C",
"6X c #B1ABAA",
"7X c #9FA0A0",
"8X c #CB928B",
"9X c #EC9389",
"0X c #C6A39B",
"qX c #D4AD8C",
"wX c #E7AF90",
"eX c #CCACA6",
"rX c #C6B5AA",
"tX c #CFB8B0",
"yX c #E8BCB5",
"uX c #E6B3A8",
"iX c #F7DA87",
"pX c #EDCE93",
"aX c #FAE598",
"sX c #FBE28A",
"dX c #D3C3BF",
"fX c #EFCCAE",
"gX c #FAE8A8",
"hX c #FAECB7",
"jX c #FDF2B7",
"kX c #FDF0AD",
"lX c #D6CA91",
"zX c #D5CAC3",
"xX c #DCD2CF",
"cX c #E7CCC6",
"vX c #EADAD5",
"bX c #F3DCD6",
"nX c #EDD5C9",
"mX c #F8EAC8",
"MX c #FEF4CA",
"NX c #FDF3C4",
"BX c #F5E3D9",
"VX c #FEF6D8",
"CX c #EAE4DE",
"ZX c #F3EDE7",
"AX c #FEFAE4",
"SX c #F6F2EB",
"DX c #F8F3ED",
"FX c #FCF9EA",
"GX c #FDFDF5",
"HX c #EFE7E0",
/* pixels */
"                                                    *X%X@ @ $X                                      ",
"                                                    @ # n.E / /     %X-X<X                          ",
"                                                  _ + W A.#.z c @./ + @ -X<X                        ",
"                                                  / O.z Z.n b v x x W + @ -X                        ",
"                                                    z n P.  o.;.;.v O./ + %X<X                      ",
"                                      . o X % o .     &.^.  H.K.;.z   @.~ @ =X<X                    ",
"                                {.].J H X.b b c X !   '.l.(.(.p.g     @.Q M.b.<X                    ",
"                                F.B.L >X` W W #.* 8 /./.h.h./.D.  [.}.H.H.N.*X<X                    ",
"                              J  .Q ` ,X-X$X~ o.: X s.k.k.g./.iX`.z.l.`.      1X                    ",
"                          6 E :X<X3X} =X&X_ ^ = X y d.g.g.k.j./.j.h.(.(.[.  >X>X                    ",
"                  XX{.~.X.W ;X<X2X3X;X=X] w * & h J.d.d.i.g.g.g./.k.k./.].oX                        ",
"    -X@ ) ] +.#.  ].'.N T =X,X,X2X,X=X&XG 2 ;.S.P.d.y.y.L._.d.J.t ! t ! H.                          ",
"    +X^         }.OXh ..) -X=X,X=X-X-XY g D.d._..Xy.4.L.iX.Xt H ' @X_ ^ q                           ",
"  -X+ Y =.XX].c.(.! 1 W # ) ` _ @X-X' < D.L.I.iX_.9.U.aXaXA.L =X<X,X:X+XY -                         ",
"  %X( X.#.^.c.c.k.8 * U I w f < P ' P ;.pXI.iXaXI.|.kXkXaXV.r I n.<X-X%X/ z -                       ",
"    ` +.z K.z.z.j.6.B k g S 7.a m g o.wXhXgXhXgXaXpXm.qX|.d.L.%.G *X&X%X~ z l %                     ",
"          `.z.h.h.i.u.u.a.y.y.3.p 7.wXMXMXNXMXMXfXT ~ } Q J.9.A h J 6 O Y z v 4 =.XX                ",
"      XXz.f.x.h.i.3.y.t.t.t.t.L.w.8.gXMXMXMXMXMXqXY <X<X:X-.i p w.S.w K T v 5 5 j /.{.  ~ +         ",
"  ,X%X  (.4.i f.7.4.u.i.u.3.9.a.w.i pXVXVXVXVXAX0XM.<X<X<X[ &.U._.w.9 P w f 9 9 k s.(.F.=.T '       ",
"  <X%X    5.; & * j w.t.9.2.7.W.pXpXfXBXVXVXAXnX4X6X1X<X<X_ H E.!.p A 5.1.q.a.a.a.d.j./.&.b X._ -X  ",
"          %.g v 3 : j 5.! 7 ; *.9X{ ..fXDXFXZX8X6X6X<X,X[ 4XeXtX8Xt 0 B S m 9.i.i.g.l..XT.%.O./ @   ",
"      [.'.j v v v d Q eXzXdX4X% G ( G T.FXFXcXU 5X7X2X] yXZXDXDXSXdXG 3 l 9 q.i.h.j.l.z.(.[.F.Q + -X",
"      [.r.f 5 5 z 8XCXDXDXSXSXcX] *X' +.nXGXZX:.] ,X` 0XDXDXcX9XBXDXeXg v , Z 9.9.t.x.j./.J.;.x ~ $X",
"        A.4 v 5 ,.HXDXSXSXSXSXDX0X` =X..wXGXGXcXI :X[ vXDXDXyX<.nXDXvXO.l * F p 2.3.i.).#.v v z / $X",
"        J g v 2 tXSXSXSXZXSXZXDXzX' 2XG <.GXGXDX:.E ,.bXDXSXZXBXZXSXCXR 9 M 9.t.t.t.i.k.S.;.z g ^ $X",
"      oX%.g v d zXDXSXyX9XbXSXSXtX' <XH R.FXFXFXuXP Y zXDXSXSXSXSXSXzX7 m p 3.t.i.x.g.z.z.'.K.V.` %X",
"      }.N 4 v f tXDXDXyX9XbXSXSX0X#XE | bXFXFXAXbX:.R { HXDXZXSXSXZX[ Z p p 2.e.g.h.l.}.|.S.V.M.b.=X",
"        6 3 v 3 | ZXSXSXZXZXSXvX| :Xw fXAXVXVXuX{ eXfX*.[ xXZXZXvXT.8 p u.a.V y s.j.(.R.$.o.E # b.  ",
"        7 3 b v o.uXHXSXSXSXxXT.4X-Xq fXVXMXmX*.' [ qXfXW K } M.G % 0 p 7.0 & * r.`.`.Z.T / # %X    ",
"        C.: v v o.T | 4X4X8X} _ #XE >.hXNXMXqXT ;X;X' | m.>.7 e V 5.e.e.9 > 5 s r.(.    _ $X%X=X    ",
"      }.G.f v v o.^ + ~ ' &X' E m.wXhXmXNXNX>./ ` ,X,X&X_ ^ / < k y.L.h > 5 v s G.`.    *X=X<X      ",
"          ..v v v T $ @ %X` w R.kXkXhXhXjXNXfXqXT / -X%X@X+X@.d 5.t.S.: v v l q                     ",
"          W 3 v v l R U @...&.W.aXkXkXkXhXpXpXjXY.H +X+X( Y 1 N d.d.5.> v v 4 %.                    ",
"          W.e 5 1 * A a V.!.iXaXaXiXgXgXY.G J Y.pXq W U w C 6.7.t.d.j 2 v v f 6.'.                  ",
"        iX'.5.* 9 A 3.p. XsXsX.XJ.I.R.R 6 ~ @XW W.B.w U C.a.d.d.w.N < v v v w P._.}.                ",
"          }./.&.5.d.K.-.%.R.Z.e.8.%.P $ _ +X-X^ H./.K.).I.p.t.9.M , v v v 1                         ",
"            Q.Q.|.W.m.@., 2 - S M * Y + # @ # $ v.U.&.N h j 2.9.e 1 v v l w                         ",
"        rXfXU.Q.qXQ 3X,.5 o.= A M > o.Y E $ ^ ^ R d - < 3 d 9.a.N 1 v v < !                         ",
"        6XqXlXaXlX*.3X:.v v * 0.q.* v b b o.X.X.X.c z z v 9 4.2.m 1 v l %                           ",
"        6X5XrXgX  T.} @.v v > d C.s v v v b v v b v 5 v v c 8.3.7.* 4 s E.                          ",
"        7X} :.Y.  iXqXX.5 v v 2 B S g 4 v v v v v v v v v g m 2.w.V t F._.                          ",
"          ~ O.T   iXaX..* 5 v : M 9.V > v v v v v v v v v l ; u p y.'..X|.                          ",
"                  lX;.v w d : N a.8.Z > v v v v v v 5 v v 1 0 6.p 3.s.D.:.                          ",
"                    #.5 D.G.6.^.3.m & 1 v v v v v 4 3 g 0 C L.}./.0.B #.x                           ",
"                    c z Y. X].g.f.p.0 = = s = % e h C S.J.L.    Z.V.5 5 #.                          ",
"                    T @.  OX~.G.`.`.    !.J.    F.d.L.  L.L.  b z %.v v +.                          ",
"                    _ _ M.N.n.n.    <X1X  I.      L.          b v b v x                             ",
"                      $X$Xb.%Xb.5X1X1X1X          ).    /   +.b c b X.W                             ",
"                              1X1X1X7X                  _ ( W @.Y Y /                               ",
"                                                                                                    "
};
