/* XPM */
static char *bomb_detonating_explosion_animation_cartoon_design_element_set_isolated_vector_horizontal_2BKR1CH_removebg_preview__1__resized[] = {
/* columns rows colors chars-per-pixel */
"50 50 239 2 ",
"   c None",
".  c #1C1B1C",
"X  c #151415",
"o  c #0F0F0F",
"O  c #342D1B",
"+  c #1F1F23",
"@  c #282525",
"#  c #332C28",
"$  c #3B3624",
"%  c #312E30",
"&  c #393636",
"*  c #2F3235",
"=  c #5A3B1D",
"-  c #453A29",
";  c #423D3C",
":  c #503D27",
">  c #5D461F",
",  c #5C4927",
"<  c #4A473A",
"1  c #594C38",
"2  c #524B30",
"3  c #624A28",
"4  c #70592A",
"5  c #7E6E2D",
"6  c #454442",
"7  c #5B5647",
"8  c #4F4E51",
"9  c #595958",
"0  c #524D4B",
"q  c #655B45",
"w  c #6E654D",
"e  c #5F6363",
"r  c #696968",
"t  c #787267",
"y  c #7B7C7C",
"u  c #716F68",
"i  c #89652A",
"p  c #8C702B",
"a  c #957534",
"s  c #8E7533",
"d  c #A3792D",
"f  c #AB7D31",
"g  c #877747",
"h  c #8B7A58",
"j  c #847E73",
"k  c #857A6D",
"l  c #9D8836",
"z  c #AA872F",
"x  c #A7963B",
"c  c #BB9737",
"v  c #B58933",
"b  c #C99B35",
"n  c #D6973A",
"m  c #C1872C",
"M  c #E09C35",
"N  c #C9A63A",
"B  c #D9A939",
"V  c #DBB73A",
"C  c #DFA02D",
"Z  c #FDAC24",
"A  c #FCAE2A",
"S  c #F4AB2A",
"D  c #FAB627",
"F  c #FEB32C",
"G  c #FDBB2E",
"H  c #F8B728",
"J  c #E7AA37",
"K  c #FDAB34",
"L  c #F6A836",
"P  c #EDB53B",
"I  c #ECBB3C",
"U  c #E5B337",
"Y  c #FDB432",
"T  c #F6B935",
"R  c #FDBC33",
"E  c #F5B53C",
"W  c #FAB339",
"Q  c #F4BC3C",
"!  c #FABB3A",
"~  c #F5B335",
"^  c #E9AD2F",
"/  c #FAC22D",
"(  c #EAC83B",
")  c #FDC334",
"_  c #FCCB35",
"`  c #F4C33A",
"'  c #FDC43A",
"]  c #FDCA3B",
"[  c #F5C737",
"{  c #FDD334",
"}  c #FCDC35",
"|  c #FDD33A",
" . c #FCDB3B",
".. c #F3D83B",
"X. c #FDE639",
"o. c #99885A",
"O. c #92844F",
"+. c #BD9648",
"@. c #AC9658",
"#. c #B79857",
"$. c #AC8F4E",
"%. c #B6A85B",
"&. c #B9A854",
"*. c #958C64",
"=. c #8A857B",
"-. c #9B937C",
";. c #938D6E",
":. c #AB9764",
">. c #B39A67",
",. c #A69A77",
"<. c #B29E76",
"1. c #AAA37B",
"2. c #B5A577",
"3. c #B7A868",
"4. c #C99E49",
"5. c #C39A55",
"6. c #C7A44A",
"7. c #DBAC45",
"8. c #D7A94C",
"9. c #D7B448",
"0. c #C9A559",
"q. c #D1B557",
"w. c #E9B746",
"e. c #F3BB42",
"r. c #F7BE48",
"t. c #E5B755",
"y. c #E5AD4B",
"u. c #CBA966",
"i. c #D2AB62",
"p. c #C3B868",
"a. c #C0B570",
"s. c #DEB972",
"d. c #E4BB6D",
"f. c #DBC854",
"g. c #E6C946",
"h. c #FAC542",
"j. c #FCCB42",
"k. c #F9C849",
"l. c #EBD848",
"z. c #F9D747",
"x. c #E9CC58",
"c. c #F8CA56",
"v. c #FAD856",
"b. c #EADE50",
"n. c #FAE648",
"m. c #FBE555",
"M. c #EEE156",
"N. c #D8C87A",
"B. c #D6C865",
"V. c #F7CB64",
"C. c #FAD36A",
"Z. c #FADA6B",
"A. c #F9D664",
"S. c #FBDB75",
"D. c #FADC7B",
"F. c #F7D575",
"G. c #EACB73",
"H. c #FBE56A",
"J. c #FDE879",
"K. c #7F8281",
"L. c #858583",
"P. c #8C8C8C",
"I. c #888786",
"U. c #918E8D",
"Y. c #908A84",
"T. c #9A9586",
"R. c #949594",
"E. c #9A9996",
"W. c #9C9C9C",
"Q. c #989898",
"!. c #8F9191",
"~. c #A69B84",
"^. c #A29F94",
"/. c #B3AC85",
"(. c #B9B284",
"). c #A6A299",
"_. c #B3AC92",
"`. c #B3AD8F",
"'. c #9B9EA2",
"]. c #A19FA2",
"[. c #A3A3A3",
"{. c #ABABAB",
"}. c #A8A7A8",
"|. c #B2B2B2",
" X c #BABABB",
".X c #B8B9B7",
"XX c #B2B2AC",
"oX c #C5B787",
"OX c #C6BBA9",
"+X c #CEC69C",
"@X c #D4C999",
"#X c #F9DB86",
"$X c #E9DE9B",
"%X c #F0D891",
"&X c #EBC984",
"*X c #FAE28B",
"=X c #F9E888",
"-X c #FBE494",
";X c #FBE59B",
":X c #FDEA9C",
">X c #F4E597",
",X c #EDE08F",
"<X c #D2CBA8",
"1X c #DDD4AA",
"2X c #DFD9A3",
"3X c #C7C6BD",
"4X c #DAD4B6",
"5X c #D1CBAC",
"6X c #E5D9AA",
"7X c #E6DCB2",
"8X c #EAE1AC",
"9X c #FDECA5",
"0X c #F6E9AD",
"qX c #FCEDAB",
"wX c #F7E7A6",
"eX c #FEF0A9",
"rX c #EEE6B7",
"tX c #FCEDB3",
"yX c #FCEFBB",
"uX c #F3E8B6",
"iX c #FEF0B4",
"pX c #FDF1BC",
"aX c #C8C7C9",
"sX c #D5D2C9",
"dX c #D3D3D3",
"fX c #D0CFCA",
"gX c #EAE3C3",
"hX c #F5EDC6",
"jX c #FEF3C3",
"kX c #FEF4CB",
"lX c #FEF6D3",
"zX c #FFF8D6",
"xX c #FFF7D9",
"cX c #FFF8DC",
"vX c #F6F1D5",
"bX c #FFF9E4",
"nX c #FFFBEB",
"mX c #FCF6E0",
"MX c #FFFDF0",
/* pixels */
"                                           X X.X.X X                                                ",
"                                           X.X X.X.X X                                              ",
"                                        aXdX X X.X.X X                                              ",
"                                        fXdXdXdXaXdXaX8X4X  3X[.                                    ",
"                                      sXdXdX4X8X3XfX2X=X1X.X X/.2.                                  ",
"                                    %X6XsXsX>X=X,X5X=XJ.$XXX+Xb.a.                                  ",
"                |.|.}.[.[.          #X#X%X>X=X=X,X1.1.N.,X+X=XX.B.R.T.T.W.[.                        ",
"              |.{.[.W.Q.R.R.~.x.z.  c.c.z.v.m.m.&.< 6 < %.#XF./ B.2.0.*.P.Q._.                      ",
"              }.^.R.!.Y.I.=.:.g.{ ] R R / { { { N O # % 1 G.e.H j.h.c O r <.t.                      ",
"              ].Q.P.L.3.:.k 8.` | _ R R R { X.{ } 5 & ; 2 B R G ) ' 4 - @.E w.                      ",
"              R.U.=.o.w.[ 9.7.R / _ R R R _ V ..{ z + @ 4 ` ' ) ' Q p N ' ! 0.a.                    ",
"              !.L.t n Z H G R G ) _ ) R _ N , V } C i p B ' ' ' ' ! ' ) ! ' I e.a.                  ",
"            R.Y.;.o.B Z Z Z C G _ { | ) ' z - B.| | j.] ] ] ' ' ' ' ' ' ) ' ! Q ~.'.                ",
"            !.=.q.l._ Z Z v 2 z _ | | { _ g.N.;Xv.] _ ' j.] ] h.' ' ] ' ' ' ) e.2./.                ",
"            Y.j +.X.X.} S 4 8 2 U ] v.z._ k.:XqX9XZ.' _ ] ] e.a c k.' ' ' ) _ ] l.M.                ",
"          oXq.9.P / X.n.+.0 e 9 s ` S.-XZ.A.qX6X@XqXA.' ] j.c ; 1 7.] ] h.B c ..X.m.                ",
"        [.~.8.E ' G _ m.O.8 e 9 & c A.qXqX9X0X=.u 0XqXc.' ' s 8 8 a j.] e., @ l n.2.                ",
"        E.P.1 3 b R D  .q.q 0 w g w.c.9XyXiX8Xq 0 <XpXqXA.Q 4 $ 4 9.j.j.B # % 2 9.*.=.;.            ",
"    }.^.R.y % + , P F / z.D.>XwX9X*XC.9XyXyXpX<X,.rXjXjX9XV.w.B I ] _ ] v @ $ s h.w.w.w.w.r.r.      ",
"    [.Q.P.=.k 9 g J F T _ v.:XqXeXiXqXtXpXpXjXjXkXkXkXkXkXyX%X#X#XJ.D.S.x.N V ` ` k.' ) R R T E     ",
"  |.'.R.-.0.d.&Xy.K F F G ] F.0XoX2XtX+X7XjXkXkXkXlXkXlXkXkXkXkXjXpXpXtXZ.| ] ' k.S.c.! R R R k.    ",
"  |.'.!.L.:.G.F.W A A F R T 9.>X,.(.jX6X/.hXkXkXlXzXzXzXzXlXzXkXjXjXpX*Xj._ ] ' k.D.A.) ) R y.      ",
"    ^.U.L.k /.V.W A F F F ^ U C.0XuXpXjX_.4XzXlXzXzXcXcXxXzXlXlXkXkXqXk.] ] ' _ z.H.m.} ) T @.I.    ",
"    ).<.4.4.M L A F Y Y G ! Q ' #XpXjXkX_.7XcXcXcXcXbXmXmXxXzXlXkXjXC.) _ | |  .z.( g.[ R T 5.:.    ",
"    ).T.8.A Z Z Z F G G ) [ k.C.-XpXpXjX4XhXxXcXbXbXnXbXbXcXcXxXlXwXC.C.S.D.D.=X&.O - i ! ) R e.w.  ",
"  |.[.Q.>.y.F F D U B j.v.D.%X0XiXpXjXjXvXzXxXcXbXbXnXnXnXbXcXcXlXkXpXpXpXiX9X=Xb.d > a I 7.+.0.    ",
"  |.}.W.U.@.` { z.x - a.:XeX$X@X8XpXjXhXgXzXcXbXbXnXMXMXnXnXcXcXlXkXjXjXpX>Xv.} | ' ' ` $.t         ",
"    {.).a.l.X.X.m.O.% *.eX9XqX0X8XjX7X<XgXzXxXmXnXnXMXMXnXnXvX4X5XgXkXjXpX:XH.z.{ _ R / w.o.        ",
"    |.).q.R _ }  .g.x B.-X9XqXtXiXpXuXhXlXlXcXmXbXnXMXnXnXmXsXgXvXkXjXpXuX6XqX=Xm. .` 6.+.:.        ",
"        y.L ^ H ) _ } | z.Z.D.9XtXpXjXjXkXlXxXcXmXnXnXnXnXmXvXzXlXkXjX*XF.&.N.J.H.n.X.$.u y         ",
"        ^.q 3 +.L F R R _ ) ] h.C.$XpXjXkXlXzXxXcXbXbXbXmXcXcXzXlXkXjXF._ V c  .} X.X...%.=.        ",
"        L.& ; #.L A K K Y R R G r.#XjXjXkXkXlXzXxXcXcXmXcXxXzXlXkXjXjX;Xj.P c _ [ [ [ ..f.T.        ",
"        |.^.i.W K K L L L Y R e.G.0XyXpXjXkXkXlXlXzXzXxXvXvXlXkXkXkXjXtXA.! E U i 3 b R w.T.        ",
"        OXd.Y Y J L L L K K ] #.< /.pXyXpXjXkXkXkXlXlXzX4X4XkXjXrX,.1XyX#X' _ f @ % f e.E u.        ",
"          s.d.4.3 = n L F ) C.:.r h *X#X#XyXjXkXkXkXkXlX4X(.tXjX4Xw +XtXwXg._ B : @ p i.i.t.        ",
"              0 8 @ f K R _ v.g w N ' T c.tXjXjXkXjXjXjXuX$.7.C.-X$XyXtXoXf.' R d > b t.            ",
"              6 8 : M R { { _ ` Q R R G C.iXyXpXzXjXpXjX;Xw.U ' ' x.N.2.2.=X| / ! ~ Y R             ",
"              - 1 +.E F R G G G R R R ) D.qX#X#XkXjXpXpXZ.) ' ) T N c V H.=Xn.( 8.w.! ! e.          ",
"                  _.u.K Y F ~ R R R R ' S.C.h.c.;XpXiX:Xj._ R ) R ! ) _ X.n.X.n.:.Y.                ",
"                  [.1.y.L F F Y F R R ) | _ _ ' k.-XeXS._ ) R R R F F D { X.l.l.B.T.                ",
"                  }.E.>.L ~ ~ Y F R R ) | / R R _ A.=Xz._ R R Y F F D D } g.*.;.3.                  ",
"                  }.^.0.5.$.E Y F F Y ) / R R R ) | v.{ ) G R F F F Z D { f.j L.u #                 ",
"                    ).~.I.#.! E ^ ~ R e.Y ~ R R G {  .( ^ R F A Z ) H D { l.-.  + X                 ",
"                      E.T.0.0.o.h 5.8.$.J R ) P R ) ( 4 , d J A H | 6.C V f.  o X .                 ",
"                        Q.,.L.y r # w r 6.' w.>.e.U i & 8 & i A G } @.@.5.  o X + .                 ",
"                        ].Q.!.L.6 @ r K.#.h.3.U.  l % 6 7 s v A I n.3.=.    o + .                   ",
"                        }.].W.U.9 r P.!.<.q.~.      9 u   l.8.L :.3.1.P.    X .                     ",
"                          {.}.].W.Q.Q.                      ,.0.~.!.R.R.                            ",
"                              {.[.                            ~.E.W.'.                              ",
"                                                                                                    "
};
