/* XPM */
static char *bomb_detonating_explosion_animation_cartoon_design_element_set_isolated_vector_horizontal_2BKR1CH_removebg_preview__2__resized[] = {
/* columns rows colors chars-per-pixel */
"50 50 95 2 ",
"   c None",
".  c #595959",
"X  c #5C5C5C",
"o  c #5F5F5F",
"O  c #626262",
"+  c #696969",
"@  c #6A6A6A",
"#  c #6C6C6C",
"$  c #6D6D6D",
"%  c #6E6E6E",
"&  c #6F6F6F",
"*  c #717171",
"=  c #737373",
"-  c #747474",
";  c #757575",
":  c #767676",
">  c #787878",
",  c #797979",
"<  c #7A7A7A",
"1  c #7B7B7B",
"2  c #7C7C7C",
"3  c #7D7D7D",
"4  c #7E7E7E",
"5  c #7F7F7F",
"6  c #808080",
"7  c #818181",
"8  c #828282",
"9  c #838383",
"0  c #848484",
"q  c #858585",
"w  c #868686",
"e  c #878787",
"r  c #888888",
"t  c #898989",
"y  c #8A8A8A",
"u  c #8B8B8B",
"i  c #8C8C8C",
"p  c #8D8D8D",
"a  c #8E8E8E",
"s  c #8F8F8F",
"d  c #909090",
"f  c #919191",
"g  c #929292",
"h  c #939393",
"j  c #949494",
"k  c #959595",
"l  c #969696",
"z  c #979797",
"x  c #989898",
"c  c #999999",
"v  c #9A9A9A",
"b  c #9B9B9B",
"n  c #9C9C9C",
"m  c #9D9D9D",
"M  c #9E9E9E",
"N  c #9F9F9F",
"B  c #A0A0A0",
"V  c #A1A1A1",
"C  c #A2A2A2",
"Z  c #A3A3A3",
"A  c #A4A4A4",
"S  c #A5A5A5",
"D  c #A6A6A6",
"F  c #A7A7A7",
"G  c #A8A8A8",
"H  c #A9A9A9",
"J  c #AAAAAA",
"K  c #ABABAB",
"L  c #ACACAC",
"P  c #ADADAD",
"I  c #AEAEAE",
"U  c #AFAFAF",
"Y  c #B0B0B0",
"T  c #B1B1B1",
"R  c #B2B2B2",
"E  c #B3B3B3",
"W  c #B4B4B4",
"Q  c #B5B5B5",
"!  c #B6B6B6",
"~  c #B7B7B7",
"^  c #B8B8B8",
"/  c #B9B9B9",
"(  c #BABABA",
")  c #BBBBBB",
"_  c #BCBCBC",
"`  c #BDBDBD",
"'  c #BEBEBE",
"]  c #BFBFBF",
"[  c #C0C0C0",
"{  c #C1C1C1",
"}  c #C3C3C3",
"|  c #C5C5C5",
" . c #C6C6C6",
".. c #C8C8C8",
"X. c #CACACA",
/* pixels */
"                                                                                                    ",
"                                                                                                    ",
"                                                                                                    ",
"                                                                                                    ",
"                                                                                                    ",
"                                                                                                    ",
"                                      W K k 5                                                       ",
"                            [ ] R L / W T K f 5                                                     ",
"                            ] { [ ( ^ W T I V 0                                                     ",
"                          ' ' { [ ` ^ W T I S y                 / ~                                 ",
"                      E ! ( _ ' ` ) ^ W Y P Z a               P T Y Z                               ",
"                    B T W ~ ( ( ( / ! E Y L M j               S H D                                 ",
"                    p P R W ! ~ ~ ! E T P J B                 m M v                                 ",
"                      H U T R E E R Y I K G M j                                                     ",
"                      Z I U U Y Y U P K H A c                                 Y ~ R                 ",
"                      6 c n H P P K C A V b k                                 W ` ^                 ",
"                        & < f B C x j                                       J U W R K               ",
"                              7 q r                                       v Z G K J D N k 9         ",
"                                                                        q j n B C V M x f 6         ",
"                                                                        2 t h z x x k f u ,         ",
"                                                                          3 r p s s i t 6 #         ",
"                                                                            2 9 w 9 4 , $           ",
"                                        R / !                   Z c           = ; ;                 ",
"                ] (                   A J Y U a               Z M h :                               ",
"              ^ / ! Y                 c Z D k                 s l 3                                 ",
"              I R T J                   h s                     &                                   ",
"            m H K H D                   % @                                                         ",
"            w N C Z m                                                                               ",
"            + : 6 a 8                                                                               ",
"                  O                                                                                 ",
"                                                                                                    ",
"                                                      I F                                           ",
"                                                  k K H Z g               L                         ",
"                                ' `               5 j C b 7           ' ! L Z v d                   ",
"                              ( ( ^ Q Y             ; 0 0             ` ^ I Z v a 9                 ",
"                           .X.{ E R Y L C             X               ^ E K V x i 3                 ",
"                          } ..' P P K F n                           J U L S m k 9                   ",
"                          ` | / F G D Z h                           j D A N x p >                   ",
"                          _ ..W V C B m g                             e x h 7 =                     ",
"                          A | U b b v x y                               * %                         ",
"                          n ! V z l l d -                                                           ",
"                            # 1 1 : < % o                                                           ",
"                              .                                                                     ",
"                                                                                                    ",
"                                                                                                    ",
"                                                                                                    ",
"                                                                                                    ",
"                                                                                                    ",
"                                                                                                    ",
"                                                                                                    "
};
