/* XPM */
static char *enemy0_resized[] = {
/* columns rows colors chars-per-pixel */
"50 52 82 1 ",
"  c #040404",
". c #0A0705",
"X c #060709",
"o c #0B070A",
"O c #0C0B0C",
"+ c #120B07",
"@ c #130E0C",
"# c #16110E",
"$ c #1B120E",
"% c #0E0E14",
"& c #130E12",
"* c #1A0F14",
"= c #0F1011",
"- c #131314",
"; c #1B1412",
": c #1E1916",
"> c #15151A",
", c #19161C",
"< c #171819",
"1 c #1C191B",
"2 c #23160F",
"3 c #28170C",
"4 c #26180F",
"5 c #241611",
"6 c #251913",
"7 c #2C1D13",
"8 c #23131A",
"9 c #261E1B",
"0 c #2B1D1A",
"q c #331F13",
"w c #321D1A",
"e c #2F2413",
"r c #29201B",
"t c #342114",
"y c #392416",
"u c #36251E",
"i c #39261D",
"p c #34291C",
"a c #3D291E",
"s c #1D1D2B",
"d c #291621",
"f c #2F1924",
"g c #381E21",
"h c #351D29",
"j c #201E30",
"k c #332221",
"l c #392620",
"z c #3D2920",
"x c #3E2329",
"c c #3D3023",
"v c #232133",
"b c #442917",
"n c #442C1D",
"m c #482F1E",
"M c #4C311E",
"N c #54341F",
"B c #5B371F",
"V c #5E381E",
"C c #63391D",
"Z c #422522",
"A c #452E21",
"S c #482E22",
"D c #473022",
"F c #4C3221",
"G c #523521",
"H c #583720",
"J c #593820",
"K c #56322B",
"L c #412433",
"P c #5A3C39",
"I c #673E2D",
"U c #755B2C",
"Y c #734630",
"T c #7E514D",
"R c #866932",
"E c #87635B",
"W c #91675F",
"Q c #AC7540",
"! c #9C796E",
"~ c #A27E71",
"^ c #C09587",
"/ c #EFB8A6",
/* pixels */
"GGGGGGFADFNBBHBFGGGGGGGGGGFDAAADAADAAAAzzazuuuulFG",
"GFFGGAaulacMBVVBBGGFGFFFGFDAAAAAAAAAAAAADDAAzaluFG",
"GFGGFAAzalluzFBVCCBHGFFFHDDDDDDDDAAAAAADAADAAADnFG",
"GFGGAAAADAAzuuzDFBCCBHFGGDDa6666aDAAAADnAAAADDDFGG",
"GFGGAAAAAAAAAzulazFBCBMFFt##;;;;#6mAAAAAAADDADFGFG",
"GFGGFAAAAAADADzuuuuzVVNn;#69rrrr9;6AAAAAAAnDFFGGFF",
"GGFGFAAAAAAAAAAzulplBVM;:9999srr9:6AAADDADDFGGGFFG",
"GGFFGFAAAAADAAAAzullMBF6O&>:O=>=O6nAAAnDADFGGFFFGG",
"GHJGFFGFAAAAAAADAluzGGG7x;X>;&O;aADAAADFFHGFFFFGFF",
"FHCGFGGFDAAAAAAAAazGGGF6ETk&,9;-yDAADDFGGGFFFGGDDD",
"AFCBFFGGFFDAAAAAAAFGGFF6~/W@>9>O@MFFFFGFFFAFGGDnDD",
"AGCJFFGGGFFAAAAFFGGGFFm+!^P@>>9#$2nFFFFFFFDFFFcDnD",
"DGCBFFFGGHGFFFFGGFFGBBy tuP----196#mFGGGGGFFFDDDDD",
"AFVHGGSFGGGGGGGFFFGBVB@ORUtX  %-1:6MHBBBGGGGFnDnDz",
"AFVBGGFAFGGGGGFDFGGMA7%%cQG=O->OO6MVCCCCBHFGFDAADD",
"AFBBGGDazFFFFFADGGAzu;O%j-@<O&,@yGBVMMNCCVGFFAAAnD",
"DFGHGFFDSFSSSzaSGFDAA;O%v%-<==1#aHMalulnVCGFFDnDAA",
"ADFHGFFFBGGGGAAGHFAAF$O-s%<- =,1$MzuuuuuDCBGFDDDAA",
"AAGGFFGHVVVGGFSGFAAAA0O-%>-OO=<1#mzaluuuuNVGMDAAAA",
"DAFFFGHCCCCCJGSGFAAAAA+O%=O>O-<1;7SADzluumVGFDADAA",
"AAFFFBVBNGVCCGGGFDnDDnOOO%>,-O>1:$SAAAAiuzBGGDAAAA",
"AAFFGBnzizSGCJFGFDna;$@OO>99>O>1:$AAAAAAulNBNDAAAA",
"AAFFGDllluumJVGSa7+#:>-OO:9><X->9-tAAAAAzuFGFFDAAA",
"AAFFFAzzuuuiFCy58*@11<- %-><<O<>9;rAAAAADzAFGFAAAA",
"ADFFFDAAAzllAy8dffO,<<-.=----oO>16#aAAAADzDGFGDDAD",
"FFFFDDAADAzlzt80@+O<<<OX,****8O,>9@mAAAADDnGFGFDDD",
"GFFFDAAAAAAzkFyt5qO>-O$O****-#O>>9:7GDAADnFFDFGGMG",
"GFHFAAAAAAAAzDM7wt@@$r7O-->:96O<>19$FGFFDFFFFFFGFG",
"GGGGDAAAAAAAzzAtnyAazzrO>s9996O<<>6$FFFGGFFFGGGGGG",
"HBVBMDAAAAAAAAmbGiAAADiO>,9999O->-%#GGFFFDFGGGHGGG",
"FBVCBFFAAAAAAAmbGtSADDy+<>9991.*X$2tVGGFFFGGGGGGGG",
"AzzNCBGFFAAAAFqIGiAADDtO<>1r99*x@inGVBGFFFGGGGGFFD",
"AzpzBBGFGFDDDN2StFAAAn-%->99r9&L;0lzGJGFFGHGGFDAAA",
"ADzkDVGFFFGFGalStGFADz&>%>1996&Lh$luFJGFGGGFFDADAA",
"AAzlzVNDnDFFK3KYqGGSDA->=<s799-h*#ilFGFFGGGFAAAAAD",
"AADlaBGDzzFFS*KRqGGGFt>>=>>9999O;#ulFFFGGFAAAAAAAA",
"DADazHHDSGFFM7ZniGGGG5j%%<>999rr:@lFFFFGFAAADAAAAA",
"AADzzHFFGGBBH7Z*zAFGG5X  >>9r9r99#yGFFGFDAAAAAAAAD",
"ADAAABFFBBVVIqZ3AzAFG6%sO-<9rr9rr#yFAGFAAAAAAAADDn",
"AAAaAFFHBFZbNqZ3GAiaSm@% >>99rr9r;7AFGFAAAAAAAAADD",
"AAAAFGGJmuuul6z5GGAuiA8&X<>,999rrr#aGFDAAAAAAAADDz",
"AAADFGHGzzzzz;Z4JGFAzAA51=<,rrr99rOaGGnDAAAAAAAADD",
"ADFFGGHFAAAAA5Z5GGGAzSFq8O>,9r9rrr#yGGFDADAAAAAADD",
"FFGGGGFAAAAAS6Z5SGGFzAGG7.>>r9rrr99$FHFFDnAAAADDFF",
"GGFFGGFAAAAAD7ZtnGGFDDFGmO<>99r999:#DFGGGFFFFFGGGG",
"GGHFSGFAAAAAD6KIeGGSFGFGM;;,1r9rrr6$FFFFFFFFFFFFFG",
"GGGGFGGAAAAAAa0ZeGFFHGFHGtO<,199r9<2HGGFFGFFFFFFFG",
"GGGGFGGFAFFFGGqw6FFGGGFGM.=<,>>&O#3NVCCCCVBBNFGGGG",
"GFFFDFGGGGGFGGn eGGGGGGa7*O>>=%2qbVVJBBGBBVVCBHGGG",
"GGGGFFFFFFFFFFFnFGGGGFb*d8 X+@c7FmzzzzAazzAFMBVGGG",
"GGGGGFFDFFFFFGGHGGGGFGM4645zZg;0uuuuuuuuululazFHGG",
"GGHGGGGFGGGGGGGGGGGGGGGHGHGHAiiluuuuukuuuuuuulaFHG"
};
