/* XPM */
static char *__removebg_preview_resized[] = {
/* columns rows colors chars-per-pixel */
"50 50 149 2 ",
"   c None",
".  c #020102",
"X  c #090705",
"o  c #0A0907",
"O  c #070708",
"+  c #0B0B0B",
"@  c #110F0D",
"#  c #12100F",
"$  c #0F0F11",
"%  c #141313",
"&  c #181716",
"*  c #1C1914",
"=  c #171718",
"-  c #1C1C1C",
";  c #201E1B",
":  c #23211D",
">  c #29251E",
",  c #1F1F20",
"<  c #232324",
"1  c #282721",
"2  c #272728",
"3  c #2C2C2C",
"4  c #2D2B22",
"5  c #343228",
"6  c #2F2F30",
"7  c #2F3031",
"8  c #333434",
"9  c #373837",
"0  c #383837",
"q  c #363739",
"w  c #37383A",
"e  c #3C3C3C",
"r  c #483824",
"t  c #423E33",
"y  c #40403F",
"u  c #4D4B3C",
"i  c #514E3E",
"p  c #53513F",
"a  c #654621",
"s  c #3E3F40",
"d  c #403F40",
"f  c #3F4042",
"g  c #414142",
"h  c #474847",
"j  c #464748",
"k  c #47484A",
"l  c #4B4B4C",
"z  c #545241",
"x  c #5B5945",
"c  c #4E4F50",
"v  c #4F5052",
"b  c #535456",
"n  c #565759",
"m  c #57585A",
"M  c #58595B",
"N  c #615E4C",
"B  c #68644F",
"V  c #6A6751",
"C  c #6E6A56",
"Z  c #726551",
"A  c #756B56",
"S  c #786A55",
"D  c #776C58",
"F  c #796C58",
"G  c #7A725B",
"H  c #797256",
"J  c #5F6062",
"K  c #626365",
"L  c #6B6C6D",
"P  c #7E7A60",
"I  c #6E6E70",
"U  c #727374",
"Y  c #7A7B7D",
"T  c #8F652C",
"R  c #EE5F2A",
"E  c #F05927",
"W  c #F05A29",
"Q  c #EF612A",
"!  c #EF6B2D",
"~  c #F1672C",
"^  c #F2732F",
"/  c #F27630",
"(  c #F37B30",
")  c #82745D",
"_  c #8D7E65",
"`  c #BD883E",
"'  c #CD913C",
"]  c #F38535",
"[  c #F48B36",
"{  c #F58F38",
"}  c #F49037",
"|  c #F69539",
" . c #F69B3A",
".. c #F99A3A",
"X. c #EAA13F",
"o. c #F7A13D",
"O. c #F8A53F",
"+. c #AA8E5C",
"@. c #8E886A",
"#. c #868266",
"$. c #918268",
"%. c #9C8B6F",
"&. c #9F8F70",
"*. c #989374",
"=. c #A29E7B",
"-. c #C39044",
";. c #DBA046",
":. c #F8A640",
">. c #F0A841",
",. c #F9AD44",
"<. c #F8B045",
"1. c #F6B24C",
"2. c #F8B149",
"3. c #F5B353",
"4. c #7D7E80",
"5. c #848586",
"6. c #858688",
"7. c #8B8B8C",
"8. c #939394",
"9. c #9D9E9F",
"0. c #B4AF88",
"q. c #BDAA85",
"w. c #BDB98E",
"e. c #A4A4A5",
"r. c #A8A8A8",
"t. c #C4B08C",
"y. c #C2BB92",
"u. c #CDC89A",
"i. c #D7C097",
"p. c #DFC79D",
"a. c #D1CB9C",
"s. c #E4CB9F",
"d. c #D7D1A2",
"f. c #DFD8A7",
"g. c #E4CCA1",
"h. c #E0D9A7",
"j. c #E6DFAB",
"k. c #E7E0AC",
"l. c #ECE5AF",
"z. c #EFE8B1",
"x. c #ECE5B0",
"c. c #F2EBB2",
"v. c #C0C0C0",
"b. c #D4D4D4",
"n. c #DDDDDD",
"m. c #E0E0E0",
"M. c #EFEFEF",
"N. c #F5F5F5",
"B. c #FEFEFE",
/* pixels */
"                                                                                                    ",
"                                                                                                    ",
"                                                                                                    ",
"                                                                                                    ",
"                                                                                                    ",
"                                                                                                    ",
"                                                                                                    ",
"                                                                                                    ",
"                                                                                                    ",
"                                                                                                    ",
"                                                                                  1.    3.          ",
"                                                                        *         <.  1.1.          ",
"                                                                : u P *.@.+.T a ' ,.,.,.<.          ",
"                                                              t G #.B V z H -.>.X. .[ ] :.,.<.3.    ",
"                                                    X . . . . i N >         r '  .^ R ! ] O.1.      ",
"                                          @ & & + . . . . . . . X           ;.X.{ R W W / O.1.      ",
"                                      - < 8 k l 9 < 6 , , - % . .         3.1.,.| ! E W ] o.<.1.    ",
"                                  ; 3 8 q M b.m.8.g g g s g s 3 $               O.{ ( [ ..2.        ",
"                                - 6 L v.e.J 8.e.U h g t e g s g 3 + @         1.,.<.O.,.,.<.        ",
"                            @ % 9 r.B.N.7.b n m m M b h g d d g 0 ; & +       1.    <.1.  1.        ",
"                            + g b.B.N.7.k b M M M M M n c g g g e 3 < % +           1.              ",
"                          . g m.B.M.7.l m M c f h b b M M l y y d 8 8 < +                           ",
"                        . 3 b.B.n.6.m M n s 8 s s e l M M M k y d g e 8 < %                         ",
"                        X 6.m.9.K m M b s j j q k b M M M M M k g d d 0 0 ;                         ",
"                      X , 7 6 k m M M c c c k m m M M M M M M M b g y t g , X                       ",
"                      @ = + g M M M M m M m m M M m m M M m M M M k y g s < .                       ",
"                      + + q m m M m M M M M M m M m M M M M m M b h d s g < . X                     ",
"                    . . , m M m M M m M M M M M M M M M M M M b k s g g e , . .                     ",
"                    X + k M c s m M M M M M m M M M M b m m b g g t s s 3 % . X                     ",
"                    o < g 6 = % c M M M M M M M M M g 2 c m k d g e q e - O . X                     ",
"                    @ - % - + . s M M M M m m b e 2 O O < b h t s e 3 0 % . . .                     ",
"                    X % =.d.=.% , m M m m m j % . - 5 - + s c s g 0 < 8 . . . X                     ",
"                    X * u.c.c.H O f M M M v # . B u.k.w.t % f j f 6 - , . . . .                     ",
"                      + 0.c.c.a.< 3 M M m 2 . B k.z.z.z.C $ 3 l f < & $ . . .                       ",
"                      X #.c.z.c.P $ f n s O u f.z.z.z.c.H $ c l e $ o . . . .                       ",
"                      . z k.z.d.G + + = O 4 u.z.z.z.z.z.p , c g 3 . . . . . X                       ",
"                        + i x > = j e < - 1 P w.f.z.l.*.% 9 g e % . . . . .                         ",
"                        X . . - , 8 v M m f - * 5 x u & 2 y e - . . . . . X                         ",
"                          X . $ , - = 7 f l h 8 2 - < 7 e 3 $ . . . . . .                           ",
"                            . . . + % + + , 8 e w 0 7 < + . . . . . . .                             ",
"                              X . . . . . . . + + O O + & = * % o . X                               ",
"                              + . . . . . . . . . X , 0 y f f e 9 < o                               ",
"                              . + % . . . . . . . < e y e y y g d 0 2 +                             ",
"                            % 3 < < = $ + . . - 3 < 2 2 < < 3 e d e 1 *                             ",
"                            : U Y U U U I b % v 4.U U U U L 8 3 d g 2 o 4                           ",
"                  g.g.g.g.q.* 8 L 4.6.6.6.U - = m Y 6.5.6.Y e - 2 3 < O $.g.g.g.                    ",
"              g.g.g.s.g.s.p.G ; 3 l M K J w X . = f m J K v # + o @ ; Z y.g.s.s.s.g.g.              ",
"              g.s.s.s.s.s.s.s.t.&._ G D A A Z ) $.$.) S S S Z ) _ &.t.g.s.s.s.s.s.s.g.              ",
"                  g.g.g.g.g.g.g.g.g.g.g.g.g.g.g.g.g.g.g.g.g.g.g.g.g.g.g.s.g.g.g.g.                  ",
"                              g.g.g.g.g.g.g.g.g.g.g.g.g.g.g.g.g.g.g.g.                              "
};
