/* XPM */
static char *enemy1_resized[] = {
/* columns rows colors chars-per-pixel */
"50 52 115 2 ",
"   c #050506",
".  c #0A0705",
"X  c #0D0907",
"o  c #07060A",
"O  c #0C060A",
"+  c #0C0B0C",
"@  c #130D0C",
"#  c #190E0F",
"$  c #15100E",
"%  c #1A120D",
"&  c #0D0C11",
"*  c #120E13",
"=  c #1B0E14",
"-  c #110F19",
";  c #0F1011",
":  c #131315",
">  c #1C1312",
",  c #1E1915",
"<  c #15151B",
"1  c #1A171B",
"2  c #171819",
"3  c #1B191B",
"4  c #23160E",
"5  c #28170D",
"6  c #250F17",
"7  c #221513",
"8  c #241914",
"9  c #2B1C14",
"0  c #23131B",
"q  c #2B141D",
"w  c #251D1B",
"e  c #291E1C",
"r  c #311F13",
"t  c #30151F",
"y  c #321D1B",
"u  c #2E2116",
"i  c #2A201C",
"p  c #342215",
"a  c #3B2413",
"s  c #3B2E17",
"d  c #36251E",
"f  c #39261D",
"g  c #3C291F",
"h  c #191824",
"j  c #1C1C2A",
"k  c #2B1722",
"l  c #2D1823",
"z  c #341420",
"x  c #381623",
"c  c #351C23",
"v  c #391D22",
"b  c #351D29",
"n  c #1E2029",
"m  c #25292F",
"M  c #332521",
"N  c #392720",
"B  c #3D2920",
"V  c #3B202F",
"C  c #3D2E29",
"Z  c #373126",
"A  c #3F3028",
"S  c #242432",
"D  c #2B2C3A",
"F  c #2E333C",
"G  c #30343F",
"H  c #412614",
"J  c #40251F",
"K  c #432B1D",
"L  c #492F1E",
"P  c #4D311E",
"I  c #53341F",
"U  c #5B371F",
"Y  c #5E381E",
"T  c #63391D",
"R  c #452E21",
"E  c #482F21",
"W  c #462A29",
"Q  c #492B2B",
"!  c #473022",
"~  c #4C3221",
"^  c #40322A",
"/  c #523521",
"(  c #583720",
")  c #5B3821",
"_  c #432534",
"`  c #473730",
"'  c #4C3A33",
"]  c #533030",
"[  c #5B3535",
"{  c #503E36",
"}  c #633B32",
"|  c #653A3B",
" . c #6B3F38",
".. c #5A463D",
"X. c #5B483E",
"o. c #674728",
"O. c #6C422F",
"+. c #725A2B",
"@. c #794A34",
"#. c #313740",
"$. c #333941",
"%. c #634440",
"&. c #695347",
"*. c #73554E",
"=. c #7E6259",
"-. c #814F38",
";. c #806430",
":. c #A26F3D",
">. c #885A55",
",. c #85685A",
"<. c #8F6F60",
"1. c #927262",
"2. c #A87970",
"3. c #D0A192",
"4. c #F1BAA8",
/* pixels */
"/ / / / / / ~ E ~ ~ / U U / / / / / / / / / / / / / ~ R R R R ! ! ! ! R R ! K B B B f M d M d M ~ / ",
"/ ~ ~ / / R f d M B K ~ U T T Y U / / ~ ~ ~ ~ ~ / / ! R R R R R K ! R R ! g R ! ! ! ! ! B d f B ~ / ",
"/ ~ / / ~ B R B g f M d B ~ U Y T T U / / / ~ ~ / ~ R R R ! ! ! ~ ! ! K ! ! R ! B ! ! ! ! R K ! ~ / ",
"/ ~ / / ~ R R E ! R R B B d M ! I Y T T Y / ~ / / ! ! R R K 8 8 8 8 f K ! K ! B ! R ! K R ! ! / / / ",
"/ ~ / / E R R R R R R R R B d d d B ~ U T U ~ ~ / ! K d % % > > > > % , R R R R ! R R R R ! ~ / ~ ~ ",
"/ ~ / / ! R R R R R R ! R R R M d d d ! Y Y ~ ~ / L % @ w , i i i i w > 8 ! R R R R ! ! ! P / / ~ / ",
"/ / ~ / ~ ! R R R ! R R R R R B M M f B I Y ~ ~ ~ 8 , w w i 3 3 w w w % 8 ~ R R R R ! ~ / / / ~ ~ / ",
"/ / ~ ~ ~ ~ ! R R R R R R R R R B f M f I U / ~ P p X * : 3 : ; < : X , g E R ! ! ! P / / ~ ~ ~ / / ",
"/ ) U / ~ / ~ ! ! E R R R R ! R ! M f g / / ~ ! R p c q   : 2 @ + % d R R R ! ! ~ / / / ~ ~ ~ / / ~ ",
"~ ) T / ~ ~ / / ! R R R R R R R E B B ~ / / ~ g B 8 *.>.W ; 1 i > % E R ! ! / / / / ~ ~ ~ / / ! ! ! ",
"E / T U ~ ~ / / ~ ~ R R R R R E ! L / / / ~ ~ ! E 9 ,.4.2.# : 3 2 o 8 ~ ~ / ~ ~ ~ ~ K ! / / ! B K ! ",
"R / T / ~ ~ / / / ~ ! R R R R ~ ~ ~ / ~ ~ / ~ / ~ @ =.3.%.> < 3 w > % % a ~ ~ ~ ~ ~ ! ~ / ~ ! ! ! ! ",
"! ~ T U ~ ~ ~ / / / / ~ ~ ~ ~ / / ~ ~ / I U / / g   u d [ w * : : h w w $ K / / / / / ~ ~ ! ! K R R ",
"! P T U / / ~ ~ / / / / / / ~ ~ ~ ~ / U Y Y T T % + +.;.s &     + * 3 8 4 I Y Y / / ~ / ~ K ! ! B ! ",
"! ~ U / / / ~ R ~ / / / / / ~ ! ~ / / P ! ! / H $ ; Z :.o.; + + 2 @ . 5 U T T T Y / / ~ ~ ! R R ! g ",
"R ~ U U / / ! B K ~ ~ ~ ~ ~ ! ~ / / ! B d d B 8 + : G 3 + 2 ; + 2 + a U P P I T T U / / ~ R R R ! ! ",
"R E / ) / / E E E ~ E E E B B E / ~ ! ! B B M , + : F < ; 2 ; & 2 2 4 g d M f E Y T / ~ ~ ! R ! R R ",
"R E / / / ~ ~ / / / / / ~ E R / / ~ K ! R R E , + : S + 2 : o + < 3 X i d f M d L T ) / ~ E R R R R ",
"R R / / ~ ~ / / T Y T / / / E / ~ ! ! ! R R E d + & * : : + < + : < : 8 B M d d N I Y / ~ ! R R R E ",
"R R ~ ~ ~ / ) T T T T T / / ~ / ~ R R R E E E ! @ + - + : w 2 + : < , % E B N d d K T / ~ E R R R R ",
"R R ~ ~ E U Y U / / Y T T / ~ / ~ ! E R 9 9 9 9 $   ; o w w < + : < 3 % f R R B M B U / / E R R R R ",
"R R ~ ~ / ) E f f B E ( T U / ~ P f % %   > : * : + ; > i w < + ; < 3 > 8 E R B N f P ) / ~ R R R R ",
"R R ~ ~ / L M N M d d E ) Y / E 8 > b b @ w 3 2 : + X 8 i w < 2 + 2 2 > 8 K R R B M P / ~ ! E R R R ",
"R E ~ ~ ~ R R B f d d d ~ ) ) p 0 l _ k o < 2 2 :   + 2 3 < 2 2 + 2 < w @ d E R E N R / / ~ R R R R ",
"R E ~ ~ ~ R R R R B M M R U ) p @ 0 @ 9 + 2 2 3 :   : : : : : +   2 < w % p R R ! B ! / ~ / ! ! R R ",
"~ ~ ~ ~ E E R R R R B f f / ) p W 7 p P X ; ; + % + = = = = = 0 + 2 < 3 w @ R R R R ~ ~ ~ / ~ ! ! ! ",
"~ ~ ~ ~ R R R R R R R B M P ) p Q 9 P ~ 9 8 8 u K X > = = < = * . & 2 2 3 @ K E R R ~ / ! ~ / / ~ ~ ",
"/ / / / R R R R R R ! R B E P p W g ~ B B f B M u + : < 8 8 3 1 : + 2 2 3 , 8 ~ ! ~ ~ ~ ~ ~ ~ / / / ",
"/ / / ~ ! R R R R R R R B K g ) H L g g B B B B $ : < w w i , : & + 2 2 < 2 8 / ~ ~ ~ ~ / / / / / / ",
"/ U T U ~ R R R R R R R R 9 } O.p / R E ! R R f $ : 2 3 e i > + : + : : : & 4 ~ ~ ~ ~ / / / / ) / / ",
"~ U T T ) ~ ! ! R R E L u } @.a ~ ! R R R R ! 8 < & 2 < i 3 i > + o = X 5 % p / ~ ~ ~ / / / / / / / ",
"! B J / T ) / ~ E R R J e  .p ~ / ! R E R E ! 8 j < ; 2 2 i i i % = V 4 T U / ~ ~ ~ / / / / / ~ ! ~ ",
"! g d M I Y / / ~ ~ ~ 8 | W p ~ / ~ E R R ! f 3 G n & 2 1 w w w , > _ * a U I ~ ~ / / / / ~ ! ! R R ",
"! R B d ! Y / ~ ~ / J N | 9 ~ ~ / / ~ R R R 8 m $.D ; : < w i i , > _ k u U I ~ / / / / ! L ! ! R R ",
"R R ! d B Y / E B ! p O.R f R E / / / ~ R g : F $.#.S ; < 1 w e w = b = % K ~ ~ / / ~ ! ! ! B ! R R ",
"R ! ! d B U I ! g f p -.r f d g / / / / ~ R X : F $.#.S & : 1 w e > @ w i % f ~ / / ! ! B ! ! K R R ",
"! R ! f B / / ~ L K H / f ~ J g E ~ / / / p * - : S S S j & < h w w i w i , 4 I P ! A ! ! ! ! A R R ",
"R R ! R g ) / ~ I g W f K I ~ ~ B R ~ / / 7 j h - o o o o o o < 1 w i w i w % d ! K K ! K ! K K R R ",
"R R ! B ! / ~ ~ U 9 ] a T ) / / E f R ~ / g 2 * & o - - & - - o < 1 w w i w , % K ! ! ! ! ! ! ! R R ",
"R R R g K / ~ ) I y ] 8 / T Y / / E M g P I @ 0 0 o h - & & O O   : 1 w w i i $ d ! K ! B ! ! K R R ",
"R R ! E ~ / / ) r [ Q w N L T ) / / E f B R , e e * - < - O t q M + : 2 3 i i i $ L R R R R R R R R ",
"R R R ! ~ / / ) 5 ] 7 B f M K Y / / ~ g f R d ' ,.h < < h & # ` 1.C . 2 2 , i , $ ! R R R R R R R R ",
"R ! ~ ~ / / / ~ 8 ] 4 R R B B R / / / E B E g 8 { ` & - - @ d ..` i % + 2 3 i , $ ! E R R R R R R E ",
"~ P / / / / ~ ! 9 [ / p E E R B E / / ~ B R L B ..W & - = L K ^ <.M 8 2 ; 2 w > u K R R R R ! ! ~ ~ ",
"/ / ~ ~ ~ / ~ ! 9 [ f f R R R R ~ / / ~ E ~ / r > 0 & @ L / J % > = 9 r @ 2 2 + P ~ ~ ~ ~ ~ / / / / ",
"/ / / ~ ~ / ~ ~ 8 y 9 E R R R E ~ / / ~ ~ ~ ~ 9 l l o 8 I W R g # x = L 4 : ; > P ~ ~ ~ ~ ~ ~ ~ / / ",
"/ / / / ~ / ~ ! 9   B E R E E ~ / ~ ~ ~ / / L p 0 0 % / I E E I r 6 # L 4 + , P ~ ~ ~ ~ ~ ~ ~ ~ ~ / ",
"/ / / / ~ / / ~ E K ~ ~ ~ / / / ~ ~ ~ / ~ a > C &.M 9 / E / / I a O q 5 a 5 U T T Y Y U I ~ / / / / ",
"/ / ~ ~ ~ ~ / / / / / / ~ / ~ ~ ~ / / / 9 0 b b q M 9 / / / Y H # X.e % Y ( U ( ( ) T T Y Y / / / / ",
"/ / / / ~ ~ ~ ~ ~ ~ ~ ~ ~ ~ ~ / / / / ~ $ % > > % . p / U P 4 7 t M { , f R R f f R R E E U Y / / / ",
"/ / / / / ~ ~ ! ~ ~ ~ ~ ~ / / / / / / / ~ I I / I ~ / / I 9 c v v z 8 7 M f M d f d d d f R ~ ) / / ",
"/ / / / / / / ~ / / / / / / / / / / / / / / / / / / / / E d d d f f N M f M f d M f M N N d f ~ / ) "
};
