/* XPM */
static char *__removebg_preview_resized[] = {
/* columns rows colors chars-per-pixel */
"50 50 134 2 ",
"   c None",
".  c #020202",
"X  c #090605",
"o  c #0B0807",
"O  c #060708",
"+  c #0C0B0B",
"@  c #110F0E",
"#  c #11100D",
"$  c #0E0F10",
"%  c #100F10",
"&  c #0F1011",
"*  c #131313",
"=  c #191715",
"-  c #1B1915",
";  c #171718",
":  c #171819",
">  c #1A1A1B",
",  c #201F1F",
"<  c #25231D",
"1  c #1F1F21",
"2  c #242424",
"3  c #2B2A22",
"4  c #262728",
"5  c #2C2C2C",
"6  c #333027",
"7  c #2F2F31",
"8  c #333334",
"9  c #373738",
"0  c #37383A",
"q  c #3C3C3C",
"w  c #66271E",
"e  c #7B291F",
"r  c #5D3A2E",
"t  c #433E31",
"y  c #483F35",
"u  c #772C21",
"i  c #454235",
"p  c #494436",
"a  c #40403F",
"s  c #4A4638",
"d  c #4E4D3D",
"f  c #734C3D",
"g  c #3E3F40",
"h  c #3F4042",
"j  c #414141",
"k  c #464749",
"l  c #474849",
"z  c #4B4B4C",
"x  c #555241",
"c  c #5C5946",
"v  c #4D4E50",
"b  c #4F5052",
"n  c #525355",
"m  c #565759",
"M  c #57585A",
"N  c #58595B",
"B  c #685E4C",
"V  c #67644F",
"C  c #696651",
"Z  c #6F6B54",
"A  c #736752",
"S  c #756B56",
"D  c #786C58",
"F  c #75725A",
"G  c #5D5E61",
"H  c #636364",
"J  c #6A6B6C",
"K  c #7E7B60",
"L  c #707173",
"P  c #767779",
"I  c #77787A",
"U  c #7C7E7E",
"Y  c #923125",
"T  c #9D3427",
"R  c #9C362A",
"E  c #9C3A2D",
"W  c #A2362C",
"Q  c #A23A2E",
"!  c #A63E32",
"~  c #9D4234",
"^  c #964837",
"/  c #AA4337",
"(  c #AB4539",
")  c #AF483C",
"_  c #B85348",
"`  c #85765F",
"'  c #817D62",
"]  c #C15E53",
"[  c #C26256",
"{  c #C5655B",
"}  c #CD7166",
"|  c #D1756B",
" . c #D97E75",
".. c #848065",
"X. c #8A876A",
"o. c #8E8A6B",
"O. c #95856B",
"+. c #969172",
"@. c #9A9575",
"#. c #9C9977",
"$. c #A68B6D",
"%. c #DE867D",
"&. c #E0867D",
"*. c #838485",
"=. c #8B8B8B",
"-. c #8F9091",
";. c #979797",
":. c #989898",
">. c #AFAB86",
",. c #B6A381",
"<. c #B2AD86",
"1. c #BAB58C",
"2. c #AAABAC",
"3. c #E58E85",
"4. c #C7B28D",
"5. c #C5C094",
"6. c #C8C295",
"7. c #DAC39A",
"8. c #E3CB9F",
"9. c #D7D1A1",
"0. c #E4CCA1",
"q. c #E6E1AB",
"w. c #E9E3AE",
"e. c #EFE9AF",
"r. c #EEE7B1",
"t. c #EFE8B1",
"y. c #F2EBB3",
"u. c #CFCFCF",
"i. c #D5D4D5",
"p. c #DCDCDC",
"a. c #E1E1E1",
"s. c #ECECEC",
"d. c #F5F5F5",
"f. c white",
/* pixels */
"                                                                                                    ",
"                                                                                                    ",
"                                                                                                    ",
"                                                                                                    ",
"                                                                                                    ",
"                                                                                                    ",
"                                                                                                    ",
"                                                                                                    ",
"                                                                                                    ",
"                                                                                  ~                 ",
"                                                                                  E W     R         ",
"                                                                      < y r       ! T   R R         ",
"                                                                  s F ..>.$.^ u u E / R / Q     E   ",
"                                                        . X o - Z X.C i p c f Y W ! { [ _ W E T E   ",
"                                                    + . . . . o d 6           w ! { %.3.%.[ W E     ",
"                                        * - 2 2 4 * + + . . . . . o         E R / } 3.3.3.{ W E     ",
"                                    = , 5 7 H :.=.l q q 7 5 5 : O .       E R R / { 3.3.%.[ / T E   ",
"                                @ 2 5 n *.b -.a.i.H q a a j h y 7 +             R _ { | { ( Y       ",
"                              * ; 9 ;.s.s.I N H H m z k g j h h g > @           W Q W ) W W R       ",
"                            o @ n u.f.d.-.v N M N N N m z j h j y 5 2 +       E T   R T E R R       ",
"                          o o H s.f.s.*.j n N M n n M M M z j a j 8 5 > +           E R     E       ",
"                          . n s.f.p.*.n N M k 0 g k z n N M k y j q 0 5 - +           E             ",
"                        . 4 i.s.2.J m N n q g j 0 g z m N M m k a a a 0 4 2                         ",
"                        o 0 G z n m N m k z k g v n G N N N M n l j a q 9 8 +                       ",
"                      O > * ; z N N N m m M b N G m m m m m G m M z j a h 0 +                       ",
"                      o O * z N N M N N N N N N G m G m G m G m N n j a a 9 o o                     ",
"                      . O g N N N N M N N N N N m G m m G m m m m l a j j 9 o .                     ",
"                      . 5 N M k b N N N N N N N m m m G m m G n k j a j q 5 . .                     ",
"                    o * l l 8 : k N N N N N M N N N N z v G n h a j q j 8 : . .                     ",
"                    + > > + O . 8 N N N N N N N M n q * 9 n v g a g 5 q 5 . . .                     ",
"                      O c <.@.: ; n N N N N N j 1 $ . . O z v h a j 4 9 ; . . .                     ",
"                      # 1.y.y.K . g N N N N 0 . O x o.C : > z k j q - 8 O . . .                     ",
"                      . +.y.y.9.< 4 N N N l O # o.w.y.y.F * 4 z a 9 * 2 . . . .                     ",
"                      . C y.e.y...& v N m 1 + o.t.t.t.y...+ 7 v k 3 + # . . . o                     ",
"                      X t q.y.y.<.* * 8 2 + F w.t.t.t.y.F + v l g * . . . . .                       ",
"                        @ F @.V 3 5 2 + . < 1.t.y.y.y.q.d 2 l j 7 . . . . . o                       ",
"                        o . . * ; k M b k 5 < c #.6.6.Z $ 9 j q * . . . . .                         ",
"                          . . : 4 - 5 k v n q : $ - - * 8 a 8 * . . . . . .                         ",
"                            . . O ; ; * 2 9 j j q 8 9 q 8 > O . . . . . .                           ",
"                            o . . . . . . . ; 5 5 2 > + . . . . . . . .                             ",
"                              o . . . . . . . . * : : * O . . . . . .                               ",
"                                  . . . . . * 8 y a j a q 5 * . . o                                 ",
"                                    o . . * 9 q g g q j j a 8 @ o                                   ",
"                                    * * 7 2 2 4 2 2 4 9 j a 5 > o                                   ",
"                                  B , 7 U I L L L L n 2 q a 9 * -                                   ",
"                  0.0.0.0.8.8.0.0.` . o g L *.*.*.*.N : 2 3 7 O y 7.8.0.8.0.0.0.                    ",
"              0.0.0.8.8.8.8.8.8.8.4.p % + 7 v G H G 4 . O + - p ,.8.8.8.8.8.8.8.8.0.0.              ",
"              0.8.8.8.8.8.8.8.8.8.8.8.,.` ' S S S S S S ` O.,.8.0.8.8.8.8.8.8.8.8.8.0.              ",
"                  0.0.0.0.0.0.8.8.8.0.0.0.0.0.0.0.0.0.0.0.0.0.0.8.8.8.0.8.8.0.0.0.                  ",
"                              0.0.0.0.0.0.0.0.0.0.0.0.0.0.0.0.0.0.8.0.                              "
};
