/* XPM */
static char *enemy2_resized[] = {
/* columns rows colors chars-per-pixel */
"50 52 119 2 ",
"   c #040304",
".  c #0B0706",
"X  c #0B0807",
"o  c #060609",
"O  c #0B060A",
"+  c #0C0B0C",
"@  c #120B07",
"#  c #12070C",
"$  c #120D0C",
"%  c #16110E",
"&  c #1B120E",
"*  c #0D0D12",
"=  c #0F0E18",
"-  c #120D12",
";  c #1A0F14",
":  c #0F1011",
">  c #131315",
",  c #1B1312",
"<  c #1F1916",
"1  c #15141B",
"2  c #19161B",
"3  c #17181A",
"4  c #1D191C",
"5  c #23170E",
"6  c #210C15",
"7  c #221612",
"8  c #2A1712",
"9  c #241914",
"0  c #2B1C14",
"q  c #231419",
"w  c #2B141D",
"e  c #241D1B",
"r  c #2B1E1A",
"t  c #301F14",
"y  c #30121E",
"u  c #321D1D",
"i  c #2D2017",
"p  c #2B201B",
"a  c #322116",
"s  c #3A2617",
"d  c #36251E",
"f  c #39261D",
"g  c #34291C",
"h  c #3D291E",
"j  c #171521",
"k  c #181722",
"l  c #191823",
"z  c #1D1C2A",
"x  c #2E1924",
"c  c #351421",
"v  c #311D26",
"b  c #351D29",
"n  c #381E2B",
"m  c #211F30",
"M  c #1E2226",
"N  c #1F2228",
"B  c #21242C",
"V  c #342422",
"C  c #3B2622",
"Z  c #3D2A20",
"A  c #3D222C",
"S  c #3A2D28",
"D  c #3E3029",
"F  c #242433",
"G  c #262933",
"H  c #2A2F36",
"J  c #2A2C3A",
"K  c #3F2231",
"L  c #2E323C",
"P  c #30353D",
"I  c #422715",
"U  c #432817",
"Y  c #432B1D",
"T  c #492F1E",
"R  c #4D311E",
"E  c #53331F",
"W  c #5B371F",
"Q  c #5E381E",
"!  c #63391D",
"~  c #432724",
"^  c #452E21",
"/  c #482F21",
"(  c #472929",
")  c #4C2C2C",
"_  c #512F2E",
"`  c #463223",
"'  c #4C3221",
"]  c #45362F",
"[  c #523521",
"{  c #583720",
"}  c #593820",
"|  c #5A372C",
" . c #402332",
".. c #4C3C34",
"X. c #533030",
"o. c #523F35",
"O. c #5A3C39",
"+. c #56433A",
"@. c #5B473E",
"#. c #5D493F",
"$. c #674028",
"%. c #755B2C",
"&. c #734731",
"*. c #7A4B34",
"=. c #323640",
"-. c #333941",
";. c #7E4A42",
":. c #7E514D",
">. c #765C50",
",. c #834F3D",
"<. c #87513F",
"1. c #866932",
"2. c #846559",
"3. c #91675F",
"4. c #AB7540",
"5. c #9C796E",
"6. c #A27E71",
"7. c #C09587",
"8. c #EFB8A6",
/* pixels */
"[ [ ' [ [ [ ' ' R ' [ { W [ [ [ [ [ [ ' [ [ [ [ [ [ ' ` ^ ^ ^ ^ ^ ^ ` ^ ^ ^ ^ ^ h Z Z V V d d C ` [ ",
"[ ' ' [ [ ^ f d V Z ^ R W Q ! Q W [ [ [ ' ' ' ' [ ' ^ ^ ^ ^ ^ ^ ^ ^ ^ ^ ^ ^ ^ / ^ ^ ^ ^ Z Z f Z R [ ",
"[ ' [ [ ' ^ ^ Z Z f f V h ' [ Q ! ! W [ [ [ ' [ [ / ^ ^ ^ ` ' ^ ^ ^ ^ ^ ^ ^ ^ ^ ^ ^ ^ ^ ^ ^ ^ T ' [ ",
"[ ' [ [ ^ ^ ^ ^ ` ^ ^ Z Z d h ` E Q ! ! W [ ' [ [ ' ^ h 8 8 9 d ^ ^ ^ ^ ^ ^ ^ ^ ^ ^ ^ ^ ^ ^ ^ ' [ ' ",
"[ ' [ [ ^ ^ ^ ^ ^ ^ ^ ^ ^ Z d d d Z ' W ! W ' ' R a % % , , > & 7 Y ^ ^ ^ ^ ^ ^ ^ ^ ^ ^ ^ ^ ' [ ' ' ",
"[ ' [ [ ' ^ ^ ^ ^ ^ ^ ^ ^ ^ ^ V d d g ` Q Q [ Y & % e e p p p p , 5 h ` ^ ^ ^ ^ ^ ^ ` ^ ' [ [ [ ' [ ",
"[ [ ' [ ' ` ^ ^ ^ ^ ^ ^ ^ ^ ^ ^ V d d d E Q R & < e e p 4 4 p e e > t ` ^ ^ ^ ^ ^ ^ ` ' [ [ [ ' ' [ ",
"[ [ ' ' [ ' ^ ^ ^ ^ ^ ^ ^ ^ ^ ^ h C d C E W ' 9 X > 1 < > : > : @ 9 ^ ^ ^ ^ ^ ^ ^ ' R [ [ ' ' ' [ { ",
"[ } W [ ' [ ' ^ ^ ^ ^ ^ ^ ^ ^ ^ ` f d Z [ [ E 0 ~ ; o 1 , $ - a ^ ^ ^ ^ ^ ^ ^ ' ' [ [ ' ' ' [ [ ' ' ",
"' { ! [ ' [ [ [ ' ^ ^ ^ ^ ^ ^ ^ ` Z Z ' [ { R 9 2.:.C > 4 e , i T ` ^ ^ T ` ' [ [ [ [ ' ' [ ' ^ ` ` ",
"^ [ ! W ' ' [ [ [ ` ^ ^ ^ ^ ^ ^ ^ ` [ [ [ ' R 9 6.8.3.# > e 2 X i ' ' ' ' ' [ ' ' / ^ / [ [ ` T ^ ^ ",
"^ ' ! { ' ' [ [ [ ' ' ^ ^ ^ ^ / ' E [ ' ' ' R + 5.7.O.- 1 4 9 > & 7 U ' ' ' ' ' ' ' ^ ' [ ' ^ ^ ^ ^ ",
"^ [ ! W ' ' ' [ [ [ [ ' ' ' ' [ [ ' ' ' W W s   g V O., : > 1 4 e e $ T ' [ [ [ [ [ [ ' [ ^ ^ ^ ^ ^ ",
"^ ' ! } [ [ / ' [ [ [ [ [ [ [ ' ' ' [ Q Q W % o 1.%.a :   o + > < < 9 E { W Q W [ [ [ [ ' ^ ^ ^ ^ ^ ",
"^ ' Q W [ [ ' ^ ' [ [ [ [ [ ' ^ ' [ [ R Y i % 3 ` 4.R : X = e + $ 9 R Q ! ! ! ! Q [ ' [ ' ` ^ ^ ` ^ ",
"^ ' [ Q [ [ ^ Z ^ / ' ' ' ' ^ / [ [ ' f V , + 3 L 3 X > : : 4 , $ R { W E T E ! ! Q [ ' ' ^ ^ ^ T ^ ",
"^ ' [ { [ [ ^ ' / / ' / / h Z ' [ ' ` ^ ^ & + k L z : 3 : : 3 4 % E ' Z d C d ^ Q ! [ ' ' ` T ^ ^ ^ ",
"^ ^ [ [ [ ' ' [ [ [ [ [ [ ^ ^ ' [ ' ^ ^ ` 5 + 3 F + > > +   3 4 & Y h d V g d d T ! W [ ' ^ ^ ^ ^ ^ ",
"^ ^ [ [ ' ' [ [ Q ! Q [ [ ' / [ ' ` ^ ^ ` & + = l : 3 : : X > 3 < , Z Z f d d V V E Q [ ' ^ ^ ^ ^ ^ ",
"^ ^ ' ' ' [ { ! ! ! ! ! { [ ' [ ' ^ ^ ^ ^ ,   = = > : , 4 > + 2 , & ^ T ` Z Z d d T Q [ E ` ^ ^ ^ ^ ",
"^ ^ ' ' ' W Q E [ [ Q ! ! [ ' [ ' ^ ^ ^ a > ,   > 1 + e 4 > o 3 4 , i ` ^ ^ ^ d d Z W [ [ ` ^ ^ ^ ^ ",
"^ ^ ' ' [ W T Z C h / [ ! W [ ' ' ^ ^ Y , 9 >   + : < e 1 3 X 3 1 , i ` ^ ^ ^ ^ Z d E W ' ' ^ ^ ^ ^ ",
"^ ^ ' ' [ ' d C d d d ^ W Q [ ' [ R a & 9 4 > o + < e 3 3 3 + 3 1 e % h ^ ^ ^ ^ Z d ' [ [ ^ ^ ^ ^ ^ ",
"^ ^ ' ' ' ^ Z Z Z d d d ' W W R s 9 % e e 4 > o + 3 > 3 3 3 : + 4 e @ h ^ ^ ^ ^ ^ Z ^ ' [ ' ^ ^ ^ ^ ",
"^ ' ' ' ' ^ ^ ^ ^ Z d d Y T 8 ; X % p e 2 2 : . > > > > : -   + 3 k < 5 ^ ^ ^ ^ ^ Z ^ [ ' [ ` ` ^ ` ",
"` ' / ' / ^ ^ ^ ^ ^ ^ V 9 , b K , 3 4 1 3 > % X ; , ; ; 2 q   + 3 4 e % ` ^ ^ ^ ^ ^ / [ ' [ ' ' ^ ^ ",
"[ ' ' [ ^ ^ ^ ^ ^ ^ ^ f ; x b b X 1 3 3 > & f o ; ; ; ; > , $ + 3 1 < , s ' ^ ^ ^ ^ ' ' ' ' [ [ [ [ ",
"[ [ [ ' / ^ ^ ^ ^ ^ ` ^ t , q 7 & > > : & d p X > 1 < 9 e p p $ > 3 3 , 8 [ ' ' ' ' [ ^ ' ' ' ' [ [ ",
"[ [ [ [ ^ ^ ^ ^ ^ ^ ^ ^ ^ , X.8 5 o % 9 f Z , + 3 3 < e e p e o > 3 1 3 , T ' [ ' ' ' ' ' { [ [ [ [ ",
"[ W Q W ' / ^ ^ ^ ^ ^ ^ ^ 9 _ 8 Y s h / ^ Y % 1 > > 3 1 < e e X : > , : o Y ' ' ' ' ' [ [ { [ [ [ [ ",
"[ E Q ! } ' ' ^ ^ ^ ^ ^ a A d Y [ ' ^ ^ ^ f k F 1 = : 3 3 1 e % # $ % 5 5 T [ ' / ' ' [ [ [ [ [ [ [ ",
"^ h ^ [ ! { [ ' ' ^ ^ ` a ( u Y [ ' ^ ^ ^ 7 H =.=.N k + : 1 2 + b w & E ! W [ [ ' ' [ [ [ [ [ ' ' ^ ",
"^ ^ d C E ! [ [ [ / / ^ 8 ,.d T [ ' ` ^ Y < L -.-.P G m k * 1 + b  .# & R W E ' ' { [ { [ ' ` Y ^ ^ ",
"^ ^ C d ^ Q [ / / [ [ a | $.t ' [ [ ' ^ a M -.-.-.-.P J F m = o b b , < 5 E [ ' ' [ [ E ' ` ^ ^ Y ` ",
"^ ^ Z d ^ W [ ^ ^ ^ / t *.a C / [ [ ' ' r B -.P -.-.-.-.J m k   + , e e < & ' ' [ [ ' ` ^ ^ ^ ^ ^ ^ ",
"^ ` ^ f h Q [ ^ d ^ t _ <.& d ^ [ [ [ R > M P -.-.-.-.-.J F k   + 1 4 e r > s [ { ' ` ` ` ^ ^ ^ ^ ^ ",
"^ ^ ^ Z Z [ [ / ' [ t ) ( s ^ C ^ [ [ R + * > N L G G G m m j * = + 1 < p < 5 E ' ^ ^ ^ ^ ^ ^ ^ ^ ^ ",
"^ ^ ^ h Y { [ ' [ W u &.t [ ' ^ h ^ ' 9 H F k = O o o o o *   * 1 = * 1 4 e & a ' ^ ^ ^ ^ ^ ^ ^ ^ ^ ",
"^ ^ ` ^ ^ [ ' [ [ E s *.I W [ [ ^ h ^ , L -.B 1 o * * z F l * * 1 1 * * 1 e > r ^ ^ ^ ^ ^ ^ ^ ^ ^ ^ ",
"^ ^ ^ ^ ^ [ ' [ W U d ~ I ! Q [ [ ^ d % G N 1 + * j * F G 1 o * j 1 = * 3 4 e & Y ^ ^ ^ ^ ^ ^ ^ ^ ^ ",
"^ ^ ^ ^ / [ [ Q T i u ~ r R ! W [ ' ^ $ , ; - @ = 1 1 * * - r e + * = = + 1 4 $ h ^ ^ ^ ^ ^ ^ ^ ` ^ ",
"^ ^ ^ ^ [ [ [ [ Z d v C r d T W { [ ' & q v & 8 * 1 1 = O w >..., 0 $ + + 3 4 $ h ^ ^ ^ ^ ^ ^ / Y ` ",
"^ ^ ' ' [ [ [ ' ^ 8 _ 0 ^ Z C Y E [ [ 0 >...& 9 * = 1 = . o.o.7 8 Z d a X > 3 X h ^ ^ ^ ^ ^ ^ ^ ` ` ",
"' [ [ [ [ [ [ ^ ^ 7 X.9 ` ^ ^ Z ' [ [ & +.2.d 9 = j 1 - s r 2.V X V d Z s % 1 + h ` ^ ^ ^ ^ ^ ' ' ' ",
"[ [ ' ' ' [ ' ` T 9 _ 9 ^ ^ ^ ^ ' [ [ 7 +.] & T # = = , [ Y q y $ C ^ ^ ' @ * 0 ' ' ' / ' ' [ [ [ [ ",
"[ [ [ [ / [ ' ^ ^ 9 X.7 ' ^ ^ ^ ' [ [ & V @.f [ w - + Y [ ^ 7 6 X s [ ' ' @ % h [ ' ' [ ' ' ' ' [ [ ",
"[ [ [ [ ' [ [ ^ ^ 7 ;.h d / ` ' [ ' / 7 b - U [ [ t X Y [ / a D #.r [ [ [ s Y ' ' [ ' ' ` ' ' ' ' [ ",
"[ [ [ [ ' [ [ ' / 8 ;.~ U [ [ [ [ ' 8 ; n q Y [ [ [ T ' ' [ s # C S I ! ! ! ! ! ! Q Q W [ [ [ [ [ [ ",
"[ [ ' ' ' ' [ [ [ T u ~ I [ [ / / 8 Z @., 0 [ [ [ [ [ ' [ [ 8 y c # I ! { { W { } Q Q Q Q Q { [ [ [ ",
"[ ' ' [ ' ' ' ' ' ^ $ r / / ' s ; v v S ] 0 { [ [ [ ' [ R 8 w w % 7 d Z Z Z ^ h h Z ` ' R W W { [ [ ",
"[ [ [ { [ ' ' / ' ' h s [ [ R a ( ) ( ( 0 Y [ [ [ [ ' { Y r u & r d d d V d d V d d V d f Z ' { [ [ ",
"[ [ [ [ [ [ [ ' [ [ [ [ [ [ [ [ [ [ [ [ [ [ [ [ { [ [ [ Y C d V C d V d d d d d C d f d d C h ' [ [ "
};
