/* XPM */
static char *enemy4_resized[] = {
/* columns rows colors chars-per-pixel */
"50 52 111 2 ",
"   c #050405",
".  c #090605",
"X  c #0F0907",
"o  c #07070A",
"O  c #090709",
"+  c #070808",
"@  c #0C0B0C",
"#  c #130D0C",
"$  c #1B0E0D",
"%  c #15100E",
"&  c #1B120D",
"*  c #0E0D12",
"=  c #130E13",
"-  c #1B0E14",
";  c #110F18",
":  c #0F1011",
">  c #131314",
",  c #1A1412",
"<  c #1E1815",
"1  c #16151A",
"2  c #19161B",
"3  c #171819",
"4  c #1D181C",
"5  c #22160E",
"6  c #28190F",
"7  c #220E15",
"8  c #260D18",
"9  c #231612",
"0  c #281715",
"q  c #241913",
"w  c #2B1B14",
"e  c #23131B",
"r  c #2A141C",
"t  c #251D1A",
"y  c #2B1E1A",
"u  c #331F13",
"i  c #331E1B",
"p  c #2C211B",
"a  c #342115",
"s  c #392516",
"d  c #36251E",
"f  c #39261D",
"g  c #3D281D",
"h  c #151420",
"j  c #191722",
"k  c #1A1825",
"l  c #1E1D2C",
"z  c #2B1622",
"x  c #2D1A22",
"c  c #201F2D",
"v  c #351422",
"b  c #351D29",
"n  c #1F212E",
"m  c #2B2322",
"M  c #322421",
"N  c #3A2720",
"B  c #372A21",
"V  c #3D2920",
"C  c #3C212C",
"Z  c #222333",
"A  c #232836",
"S  c #292C37",
"D  c #262738",
"F  c #3D2130",
"G  c #4B2C17",
"H  c #442C1D",
"J  c #492F1E",
"K  c #44361B",
"L  c #4D311E",
"P  c #54341E",
"I  c #5B371F",
"U  c #523F1F",
"Y  c #5E381E",
"T  c #62371B",
"R  c #63391D",
"E  c #422623",
"W  c #452E21",
"Q  c #482F21",
"!  c #432728",
"~  c #4B2C2C",
"^  c #473022",
"/  c #4C3221",
"(  c #49352F",
")  c #523521",
"_  c #583720",
"`  c #5A3820",
"'  c #402332",
"]  c #453530",
"[  c #4D3B33",
"{  c #5B3836",
"}  c #653A33",
"|  c #59463C",
" . c #5D493F",
".. c #71472B",
"X. c #744634",
"o. c #7B4C33",
"O. c #7B493B",
"+. c #614B40",
"@. c #675046",
"#. c #6F574B",
"$. c #735A4D",
"%. c #765B50",
"&. c #7B5E53",
"*. c #815B32",
"=. c #946538",
"-. c #947437",
";. c #985C40",
":. c #9B6B64",
">. c #CF9B8D",
",. c #DDAC9B",
"<. c #EAB5A3",
/* pixels */
") ) ) ) ) ) / W / / ) I ) I ) ) ) ) ) ) ) ) ) ) ) ) / ^ W W W W W W W W ^ W W W V V B N N d d N / ) ",
") / / ) ) W g d N g H / I Y R Y ) ) ) ) / / / / ) ) W W W W W W ^ W W W W W W W W W W W V V B d / ) ",
") / ) ) / W W V V B d B V / I Y R R Y ) ) ) / / ) / ^ ^ ^ W W W W W W W W W W W W W W W W W W W / ) ",
") / ) ) W W W W W W W V f M g W ) Y R R Y ) / / s w q q a ^ W W W W W W W W W W W W W W W W W / ) / ",
") / ) ) W W W W W W ^ W W V N M d V / I R L 9 & , , , , , a W W W W W W W W W W W W W W W ^ ) ) / / ",
") / ) ) / W W W W W W W W W V N d d d W a # q t p p p t t , a W W W W W W W W W W W ^ ^ / ) ) ) / ) ",
") ) / ) / W W W W W W W W W W V M M f 9 & t 4 t 4 4 t t t t & W W W W W W W W W W W W / / ) ) / / ) ",
") ) / / ) / W W W W W ^ W W W W V f N y X # > 4 > : 1 1 . % f W W W W W W W W W W / / ) ) / / / ) ) ",
") ` _ ) / ) / W W W W W W W W W W f d a 0 C   = 4 @ + % a L W W W W W W W W ^ / / ) ) ) / / ) / ) / ",
"/ _ R ) / / ) ) / W W W W W W W W B V H ( :.{ > 1 t > % L / ^ ^ W W W W W / / ) ) ) / / / ) / ^ ^ W ",
"W ) R _ / / ) ) / / W W W W W W W Q ) J [ <.>.i @ 4 4 * & L ) / / / / ) / ) ) / / / H ^ ) ) ^ W ^ W ",
"W ) R _ ) / ) ) ) / / W W W W / / ) ) 6 ] ,.&.y : 4 t , % & a ) ) ) ) / / / / / / / ^ / ) / W W W W ",
"W ) R I ) / / ) ) ) ) / / / / ) ) / J # & B ~ H @ > > 2 p t > a / / / / / ) ) ) ) ) ) / / ^ L W W W ",
"W / R _ ) / Q / ) ) ) ) ) ) ) / / / w o K -.| . o   @ = 3 t & w W / / ) _ _ Y ` ) ) / ) / ^ W W W W ",
"W / Y I ) ) / W / ) ) ) ) ) / Q / J % @ 4 *.=.@ > o 4 , O # p d V ) ) Y R R T R Y ) ) ) / W W J W ^ ",
"W / ) I ) ) / B W / / / / / W W ) J @ @ Z 4 # 3 3 o 1 < 5 Q B g / ) I I P L P R R I ) / / W W ^ W W ",
"W / ) _ ) / / ^ / Q / Q Q V f / ) H @ @ S Z * 1 1 o 1 4 , g V g / ) ) V d M f W Y R ) / / ^ W W W W ",
"W W ) ) ) / / ) ) ) ) ) ) W W ) ) g @ @ n > * , @ o 1 t % a V ^ ) / g d d d M d J R I ) / ^ W W W W ",
"W W / ) / / ) _ Y R Y ) ) / Q ) / f @ @ h * 3 @ 1 : @ j < 9 g / ) / V V B d d d d P Y ) / ^ W W W W ",
"W W / ) / ) _ R R R R R _ ) / ) / s : @ 1 @ > % 4 : @ 1 t @ g ) ) ^ W ^ W W N d d W R ) / ^ W W W W ",
"W W / / / I Y P ) ) Y R R ) / ) / ^ a   o > % t 4 : : 1 4 % a ) / ^ W W W W W d M V P ) ) / W W W W ",
"W W / / ) I J N f N W _ R I ) / / ^ W # @ # t 4 3 : @ 1 4 t & ) / W W W W W W W N f P I ) W W W W W ",
"W W / / ) W N M M d f W I Y ) ) K s w . @ > t 1 3 3 @ > 2 t & / / ^ W W W W W W W d W ) ) / W W W W ",
"W W / / / W W V g d d N J Y s q & % > O * 4 1 3 3 3 O > 1 t , a ) ^ W W W W W W W N W ) / / W W W ^ ",
"W / / / / W W W W B d p 9 & O , 4 t 4 + : 1 > > : : o > 1 t , w ) / / ^ H ^ W W W g W ) / ) ^ ^ W W ",
"/ / / / ^ W W W W W 0 - r F = 2 4 3 3 O = - - - 2 e @ , 3 4 p % g ) ) / ^ W ^ ^ W W / ) / ) / / ^ ^ ",
") / / / W W W W W g , x e - O > 3 3 4 o - - > , - > , @ 3 1 t % g L / / / / ^ H W W / / / / ) ) / ) ",
") / ) ) / W W W W W a i 9 & & , 3 : @   > > 1 4 q p t O 3 1 4 4 & P / L / / / ^ ^ / ) W / / / ) ) ) ",
") ) ) / W W W W W W ^ 9 E 6 & @ : < p # @ 3 1 p t p t @ > 3 3 3 $ I I P / / / / / / / / ) ) ) ) ) ) ",
") I R I / W W W W W W 9 Q q H s g L H & o 1 1 4 p p t O : 3 1 : # T T Y ) ) / / / / / ) ) ) ) ) ) ) ",
") P Y R ` / / W W W W q ..0 ) / ) ^ J & 1 * 3 4 p t t X - . @ @ X / Y R Y ) ) ) Q / ) ) ) ) ) ) ) ) ",
"W g W ) R _ ) / ^ J ^ 6 ..w ) / ) / ^ , h @ 3 3 4 p t # ' = t p , q W ) R _ ) / / / ) ) ) ) ) / / ^ ",
"W W M B P R ) ) ) Q H 0 o.6 ) / ) ) W , l * * 1 4 p t # ' e < t y % t g ) Y ) / / ) ) ) ) / / W W W ",
"W W N d W Y ) Q / ) a E _ g / / ) ) / , Z k   * 2 4 t = ' b # t p < & d L ) ) / ) ) ) / / ^ W W W W ",
"W W W d W I ) W V W a E 9 J V Q ) ) ) & A Z * O * 2 t # b < > , p t # p / ) / L ) ) ) / W W W W W W ",
"W W W N g Y ) Q V f 0 O.9 d d W ) ) ) < A D l ; * * q t % < p p t t t & / ) / U ) / ^ W W ^ W W W W ",
"W W W B V _ ) Q J J 0 ;.a H V V W ) ) 5 Z Z c *   * * X > t p 4 t t < & L 9 & & L ^ W W W W W ^ W W ",
"W W W V W _ ) Q ) J 0 o.a P ) W V W ) 0 , # @ ; ; * * ; * X O @ @ O + o : : > @ g W W W W W W W W W ",
"W W W W H ) / ) ` P w i G _ ) ) W N W / ) s = c h ; o o * 1 1 1 3 3 3 3 3 3 3 @ g W W W W W W W W W ",
"W W W W W ) / ) I H 0 i H R I ) ) W N V Q ) , n k 1 o   w @ * ; , 3 3 3 3 3 : w W W W W W W W W W W ",
"W W W W / ) ) Y J i 0 i y Q R Y ) ) W f V Q g @ - = m , L L 0 9 * * 1 1 3 : % d ^ W W W W W W W W W ",
"W W W ^ / ) ) ) g d y i y f H I _ ) / V N W s # x r p +.a ) ) ) a 0 # O @ w s W W W W W W W W W W ^ ",
"W ^ / / ) ) ) / J g 0 i a W N W P ) ) Q V Q g ] &.y  .%.q L ) Q W N d g L ) / W W W W ^ W W W W W W ",
"/ / ) ) ) ) ) W W g 0 a d W W V Q ) ) / V W H w @.#.p i - a / V d d M W ) ) ) / W W W W W W ^ ^ / / ",
") ) ) / ) ) / W W g w i a W W W Q ) ) / Q Q g M | m   r y # N M M V W W / / / ) ) / / / / / ) ) ) ) ",
") ) ) / Q ) / W W g 0 i d W W W / ) ) Q ) L g X [ [ s q  .[ a W / / ) / / / / / / / / / / / / / ) ) ",
") ) ) ) / ) ) W W g 0 X.u W Q / ) ) Q ) ) ) g - z & a 7 8 i & ) ) ) ) ) ) ) ) / / ) / / ^ / / / ) ) ",
") ) ) ) / ) ) / Q W w } 9 ) ) ) ) Q Q ) ) ) g , y $ 5 v v 7 w P _ I Y R R R R R R Y Y I ) ) ) ) ) ) ",
") ) / / / / ) ) ) ) s f 0 J / / / ) ) ) ) d w :.$.X r 7 5 u I R R R Y Y _ I I _ I I Y R Y Y ) ) ) ) ",
") / ) ) / / / / / / W 9 X Q ) ) ) ) ) J & r x p @.% $ s P R I ) J V g W N N W V H W W W / I Y _ ) ) ",
") ) ) ) ) / / / / / / a w ) ) ) ) ) ) s V ~ ! ! d p ) ) ) Q N M d d d M d d d d d M d N f W ) ) ) ) ",
") ) ) ) ) ) ) / ) ) ) ) ) P ) ) ) ) ) ) ) ) ) ) ) ) ) ) W f f f M d M f M M d d f M d f d M f / ) ) "
};
