/* XPM */
static char *enemy5_resized[] = {
/* columns rows colors chars-per-pixel */
"50 52 118 2 ",
"   c #060506",
".  c #090706",
"X  c #0B0907",
"o  c #07060A",
"O  c #0C070B",
"+  c #070808",
"@  c #0B0B0C",
"#  c #100B07",
"$  c #12070B",
"%  c #130D0C",
"&  c #1B0F0D",
"*  c #15110E",
"=  c #1A120D",
"-  c #0E0D13",
";  c #120E13",
":  c #1A0D13",
">  c #100F18",
",  c #0F1011",
"<  c #121214",
"1  c #1A1412",
"2  c #1E1816",
"3  c #15151A",
"4  c #19161C",
"5  c #171819",
"6  c #1D191C",
"7  c #22160E",
"8  c #25180F",
"9  c #2A190E",
"0  c #200D14",
"q  c #231612",
"w  c #241913",
"e  c #2C1C13",
"r  c #22131B",
"t  c #28171E",
"y  c #251E1B",
"u  c #2A1C1A",
"i  c #321F14",
"p  c #30121E",
"a  c #331E1C",
"s  c #38200F",
"d  c #29201B",
"f  c #362215",
"g  c #3B2415",
"h  c #36251E",
"j  c #39251E",
"k  c #3D291E",
"l  c #191722",
"z  c #161821",
"x  c #1A1A26",
"c  c #1C1D2A",
"v  c #2B1621",
"b  c #2E1924",
"n  c #201E2E",
"m  c #311A26",
"M  c #351D29",
"N  c #1F212E",
"B  c #2F2420",
"V  c #322225",
"C  c #392720",
"Z  c #372A21",
"A  c #3D2920",
"S  c #3C212D",
"D  c #3E2D2A",
"F  c #222333",
"G  c #252837",
"H  c #292C36",
"J  c #262A39",
"K  c #292C3D",
"L  c #3E2230",
"P  c #432613",
"I  c #432C1D",
"U  c #492F1D",
"Y  c #44361B",
"T  c #4D311E",
"R  c #54341F",
"E  c #5B371F",
"W  c #5E381E",
"Q  c #63371B",
"!  c #63391D",
"~  c #412623",
"^  c #452E21",
"/  c #482F21",
"(  c #442B29",
")  c #4B2C2C",
"_  c #473022",
"`  c #4C3221",
"'  c #42332C",
"]  c #49352F",
"[  c #523521",
"{  c #583720",
"}  c #5C3820",
"|  c #5E3929",
" . c #412332",
".. c #453530",
"X. c #4A3732",
"o. c #4B3A33",
"O. c #5B3836",
"+. c #613831",
"@. c #57443B",
"#. c #5D493F",
"$. c #6D4429",
"%. c #724435",
"&. c #774836",
"*. c #7B4C30",
"=. c #78463A",
"-. c #6E564A",
";. c #735A4E",
":. c #7C5C54",
">. c #7C6154",
",. c #8F5B36",
"<. c #90573F",
"1. c #947337",
"2. c #8D6E5F",
"3. c #9B6B64",
"4. c #967565",
"5. c #CF9B8D",
"6. c #DDAC9B",
"7. c #EAB5A3",
/* pixels */
"[ [ [ [ [ [ ` ^ / ` [ { { { [ [ [ [ [ [ [ [ [ [ [ [ ` ^ ^ ^ ^ ^ ^ ^ _ ^ ^ ^ ^ ^ A A Z C C V h k ` [ ",
"[ ` ` [ [ ^ k h j k ^ T E ! ! W [ [ [ [ [ ` ` ` [ ` ^ ^ ^ ^ ^ ^ ^ ^ ^ ^ ^ ^ ^ ^ ^ ^ ^ ^ ^ A h h _ [ ",
"[ ` [ [ ` ^ ^ A A Z C Z A ` R W ! ! E [ [ ` ` [ { ` _ T _ ^ ^ ^ ^ ^ ^ ^ ^ ^ ^ ^ ^ ^ ^ ^ ^ ^ ^ ^ ` [ ",
"[ ` [ [ ^ ^ ^ ^ ^ ^ ^ A C h A ^ R W ! ! W [ ` ` j w w w f _ ^ ^ ^ ^ ^ ^ ^ ^ ^ ^ ^ ^ ^ ^ ^ ^ ^ ` [ [ ",
"[ ` [ [ ^ ^ ^ ^ ^ ^ ^ ^ ^ A Z h h A ` E Q T q = 1 1 1 1 < = k _ ^ ^ ^ ^ ^ ^ ^ ^ ^ ^ ^ ^ ^ ^ ` [ ` [ ",
"[ ` [ [ ` ^ ^ ^ ^ ^ ^ ^ ^ ^ A j h h h ^ f % 2 w d d d d y w = j / ^ ^ ^ ^ ^ ^ ^ ^ ^ ^ ^ ` [ [ [ ` ` ",
"[ [ ` [ ` ^ ^ ^ ^ ^ ^ ^ ^ ^ ^ A C C h q = y y y 6 2 y y y = = h ^ ^ ^ ^ ^ ^ ^ ^ ^ ^ ^ ` [ [ [ ` ` [ ",
"[ [ ` ` [ ` ^ ^ ^ ^ ^ ^ ^ ^ ^ ^ C h C u X % < > , < 3 < * d k T ^ ^ ^ ^ ^ ^ ^ ^ ^ ` [ [ [ ` ` ` [ [ ",
"[ { { [ ` [ ` ^ ^ ^ ^ ^ ^ ^ ^ ^ ^ C C f q S   ; - @ @ e _ _ _ Y ^ ^ ^ ^ ^ ^ ^ / ` [ [ [ ` ` [ [ ` T ",
"` { ! [ ` [ [ [ _ ^ ^ ^ ^ ^ ^ ^ ^ k Z I ] 3.O.< 3 y 1 q T ` ^ ^ ^ ^ ^ ^ ^ ` [ [ [ [ ` / [ [ ` / _ _ ",
"_ ` ! E ` ` [ [ ` _ ^ ^ ^ ^ ^ ^ ^ ^ [ U o.7.5.a , 6 6 - = T [ ` ` ` ` ` [ [ ` ` [ / ^ / [ ` ^ ^ ^ ^ ",
"^ [ ! { ` ` [ [ [ [ ` ^ ^ ^ ^ ` ` [ [ 9 ] 6.:.a , 4 6 1 = w ` [ [ [ [ ` ` ` ` ` ` ` ^ ` [ ` ^ ^ ^ _ ",
"_ R ! E ` ` ` [ [ { [ ` ` ` ` [ [ ` U % 1 Z ] ( @ < , 6 d w 7 ` [ ` / ` ` [ [ [ [ [ [ ` ` _ _ ^ ^ ^ ",
"_ ` W E { ` ` ` [ [ [ [ [ [ ` ` ` ` e o Y 1.T @ +   % - 5 < w A ^ / [ [ { E E W [ [ [ [ ` ^ Y ^ ^ ^ ",
"^ T W { [ [ ` ^ ` [ [ [ [ [ ` ` ` T * @ y *.,., + X d 1 O e C h ^ ` [ W ! ! ! ! } [ ` [ ` ^ ^ U _ ^ ",
"^ _ { E [ [ _ Z ^ _ ` ` ` ` ^ ^ [ U @ @ F 6 @ 5 + X y 2 7 ` A C / [ { E R U R ! ! } [ ` ` ^ ^ _ I _ ",
"^ ` [ { [ ` ` _ ` / / / / A C ` [ I @ @ H z , 5 + 1 d 5 8 ` A ^ [ [ ` A h h j U W ! [ ` ` _ ^ ^ ^ ^ ",
"^ ^ [ [ [ ` ` [ [ [ [ [ [ ^ ^ [ [ j X , z @ 5 ,   y d < 8 ` C ^ [ ` A h h h V h U W E [ ` ^ ^ ^ ^ ^ ",
"^ ^ [ [ ` ` [ { } ! W { [ [ / [ [ f @ @ z , < @ X y d > 8 ` A ` [ _ A A Z h h h C R W [ ` ^ ^ ^ ^ ^ ",
"^ ^ ` ` ` [ { ! ! ! ! ! [ [ / [ ` Y w   @ < @ 3 X y 6 , 8 / ^ [ [ ` ^ ^ ^ ^ C h h I ! [ [ _ ^ ^ ^ ^ ",
"^ ^ ` ` ` { ! R [ [ W ! ! [ ` [ ` ^ ^ % X @ , < @ y l , 8 ` / [ ` ^ ^ ^ ^ ^ ^ C C C E [ [ ^ ^ ^ ^ ^ ",
"^ ^ ` ` [ E ^ k j A / [ ! W [ ` ` ^ U * , @ 3 @ - 6 6 - 8 ` ` [ ` ^ ^ ^ ^ ^ ^ ^ j C R E [ / ^ ^ ^ ^ ",
"^ ^ ` ` [ ^ C C h h j ^ { ! [ ` [ ` ^ % @ - 4 , - 6 6 < q / ` [ ` ^ ^ ^ ^ ^ ^ ^ A C / [ [ / ^ ^ ^ ^ ",
"^ ^ ` ` ` ^ A A j h h j / W E / f e 2   - 5 5 @ - y 4 , 7 ^ ^ [ [ ^ ^ ^ ^ ^ ^ ^ ^ Z ^ [ ` ` ^ ^ ^ _ ",
"^ ` ` ` ` ^ ^ ^ ^ A C V k T i & . < y @ < < < @ > w z < q ` _ ` [ ` / ^ ^ ^ ^ ^ ^ A Y [ ` ` _ _ ^ ^ ",
"` ` ` ` ^ ^ ^ ^ ^ ^ ^ C w 1 r L : 1 6 o : 1 ; . 2 6 5 < 8 [ ` ` ` ` [ ` ^ ^ ^ ^ ^ ^ ` ` ` [ T _ _ _ ",
"` ` ` ` _ ^ ^ ^ ^ ^ ^ A & m r : X < 3 X : : % % B 3 4 , 9 ! E [ [ ` ` [ ` ^ ^ ^ ^ ^ [ ` _ ` [ [ T [ ",
"[ [ [ [ ^ ^ ^ ^ ^ ^ ^ ^ u u e % = < 4 @ , < < * 3 3 5 , 7 ! ! W E [ ` / [ [ ` ` _ ` ` ` ` ` [ [ ` [ ",
"[ [ [ [ _ ^ ^ ^ ^ ^ ^ ^ ^ q ~ 8 q + @ + < 4 3 @ 5 5 3 , . 9 W ! ! ! E [ ` ` ` ` ` ` ` ` [ [ [ [ [ [ ",
"[ E W { ` ^ ^ ^ ^ ^ ^ ^ ^ q / w U j f # + 5 , o < @ X + * q 9 R W ! ! W [ [ ` ` ` ` ` [ [ [ [ [ [ [ ",
"[ R W ! { [ ` ^ ^ ^ ^ ^ ^ q $.e [ _ _ * - < X : X 6 2 d d d 2 7 k R W ! W [ [ [ / ` [ [ { [ [ [ [ [ ",
"^ k I [ ! { [ ` / ^ ^ ^ ^ w $.e [ ` f 5 n - @ L * d d d d d d 2 1 h ^ [ ! { [ ` ` ` [ [ [ [ [ ` _ _ ",
"^ ^ h C R ! [ ` [ ` ^ ^ ^ e *.9 [ [ y c J N ;  .: 3 u y y d y y , d h k R { [ ` ` [ [ [ [ T _ _ ^ ^ ",
"^ ^ k V ^ W [ ` ` [ [ ` I a | g [ [ e c K G ;  .S @ 4 y d y d y y * d h ` { [ ` [ [ [ R ` _ ^ Y ^ ^ ",
"^ ^ I C A } R ^ A ^ ` [ g C w I { { e c K G > M 4 , 3 6 d d d y d = w h T [ ` ` [ [ ` _ ^ ^ ^ ^ ^ ^ ",
"^ ^ ^ C k W [ ^ k ^ ^ ^ r =.i j ` { e < K K N > x > 1 3 3 y y d d d * h ` [ ` [ [ ` _ _ ^ ^ ^ ^ ^ ^ ",
"^ ^ _ A A { [ ` / ` [ U 7 <.P u ^ [ i o z G G F F c - 1 3 6 d y d d 1 w T ` ` [ ` ^ ^ ^ ^ ^ ^ ^ ^ ^ ",
"^ ^ ^ A A { [ ` [ [ { R q &.k I A ^ e > - o @ @ o O o ; 4 3 d d 6 d d = Y ` ` ` ^ ^ ^ ^ ^ ^ ^ ^ ^ ^ ",
"^ ^ ^ A ^ [ ` [ } W { E 9 ~ f [ ^ A q x > < n x > o > o 5 4 6 d d d d * e [ ` _ ^ ^ ^ ^ ^ ^ ^ ^ ^ ^ ",
"^ ^ ^ ^ ^ [ ` [ W / A I q j g [ ` U h > 3 > c > O   3 > @ 4 4 d d d d 1 w [ ` _ ^ ^ ^ ^ _ ^ ^ ^ ^ ^ ",
"^ ^ ^ ^ ` [ [ W / h h h 1 ~ P } [ [ ^ q 3 : ; b v B - > @ < 4 6 d d d d * k _ ^ ^ _ ^ ^ ^ ^ ^ ^ ^ ^ ",
"^ ^ ^ _ ` [ [ [ ^ k A h q a i Q { [ ` ^ : X.w D ;.2.B > , , 3 4 6 d d d % k _ _ ^ ^ ^ ^ ^ ^ ^ ^ ^ _ ",
"^ ^ ` ` [ [ [ ` ^ ^ ^ k q ~ w ^ [ [ [ / e o.2.D #...w > - , 5 4 d d u w = Y ` _ ^ ^ ^ ^ ^ ^ _ ^ _ _ ",
"[ ` [ [ [ [ [ ^ ^ ^ ^ ^ q a u ^ / [ [ ` A f D $ >.4.6 > 3 o < 4 4 d d 1 e E ` ` ^ ^ ^ ^ ^ ^ _ _ ` ` ",
"[ [ ` ` [ [ ` ^ ^ ^ ^ ^ q a i / / [ [ ` U I & p y b 1 - > o < 5 3 d d = I ` [ [ [ ` ` ` _ ` [ [ [ [ ",
"[ [ { ` / [ ` ^ ^ ^ ^ I q ~ e / ` [ [ / [ R k $ : v L % 7 @ + 5 3 6 = d ` ` ` ` ` ` ` ` ` ` ` ` [ [ ",
"[ [ [ [ ` [ [ / ^ ^ ^ ^ q %.k U [ [ / ` [ [ k ' D @ L 1 T f X 6 5 < f T { [ [ ` ` [ ` ` ` ` ` ` ` [ ",
"[ [ [ [ / [ [ / / / / / e +.e U [ / ` [ [ ` w ;.-.D M b w ` X @ , f W W W ! ! ! ! W W R R [ [ [ [ ` ",
"[ ` ` ` ` ` ` [ [ [ [ [ k a e I ` ` [ [ U w 0 %   o.@.t 8 [ g s s Q ! } E { E { { E W W W W [ [ [ [ ",
"[ [ [ ` ` ` ` ` ` ` ` ` ^ e . T [ [ { T % 0 : r M m V o.e ! { [ ` I k Z C A ^ k k ^ ^ ` T E ! [ [ [ ",
"[ [ [ [ [ ` ` ` ` ` ` ` [ k 8 T [ [ { ` 8 e ~ ) ) ) ) i g ` k h h h h h h h h h h h h j C ^ ` [ { { ",
"[ [ [ { [ [ [ ` [ [ [ [ [ [ { [ [ [ [ [ [ [ [ R R [ [ [ ^ h h h h h h Z h h h V h h h h h h k ` [ [ "
};
