/* XPM */
static char *enemy6_resized[] = {
/* columns rows colors chars-per-pixel */
"50 52 94 2 ",
"   c #040303",
".  c #0A0506",
"X  c #0D0806",
"o  c #050508",
"O  c #0B060A",
"+  c #070809",
"@  c #0B0B0C",
"#  c #120C0C",
"$  c #1C0F0E",
"%  c #16110E",
"&  c #1B130E",
"*  c #0D0C13",
"=  c #130E12",
"-  c #1A0B10",
";  c #100F18",
":  c #0F1012",
">  c #131214",
",  c #1B1412",
"<  c #1E1815",
"1  c #15151B",
"2  c #1A161C",
"3  c #17181A",
"4  c #1C191B",
"5  c #22160D",
"6  c #26180F",
"7  c #240D16",
"8  c #270E18",
"9  c #241713",
"0  c #241914",
"q  c #2A1C13",
"w  c #24141C",
"e  c #29141A",
"r  c #251E1B",
"t  c #2B1E1C",
"y  c #301F13",
"u  c #351F1C",
"i  c #28201C",
"p  c #322116",
"a  c #3B2515",
"s  c #36251E",
"d  c #39261E",
"f  c #3C291E",
"g  c #161621",
"h  c #171A24",
"j  c #1A1D24",
"k  c #1C1E2B",
"l  c #2B1721",
"z  c #2E1924",
"x  c #381623",
"c  c #381E2B",
"v  c #1D2126",
"b  c #1E212D",
"n  c #322522",
"m  c #382720",
"M  c #352A24",
"N  c #3D2920",
"B  c #3C222B",
"V  c #3B2F29",
"C  c #232735",
"Z  c #292D34",
"A  c #272B3B",
"S  c #292D3D",
"D  c #432C1D",
"F  c #4A2F1E",
"G  c #4B311E",
"H  c #54341E",
"J  c #5B371F",
"K  c #5E381E",
"L  c #63391D",
"P  c #452E21",
"I  c #482F21",
"U  c #43262D",
"Y  c #462A29",
"T  c #492B2B",
"R  c #4C3221",
"E  c #42342D",
"W  c #523521",
"Q  c #583720",
"!  c #503F29",
"~  c #462636",
"^  c #503331",
"/  c #5F3637",
"(  c #513D36",
")  c #57443A",
"_  c #6C5429",
"`  c #614C42",
"'  c #79534E",
"]  c #735A4D",
"[  c #947437",
"{  c #B07842",
"}  c #966D65",
"|  c #AF877A",
" . c #BD9384",
".. c #EBB4A3",
/* pixels */
"W W W W W W R I R R W J J W W W W W W W W W W W W W R P P P P P P P I P P P P V P f m m s s s M G W ",
"W R R W W P d s m m P R J K L K W W W W W R R R W W I I P P P I I P P P P P P P P P P P N f N s R W ",
"W R W W R N P N N m m m f R J K L L K W W W R R W I I I P P P P P P P P P P P P P P P P P P V P R W ",
"W R W W R P P I P P P P m s m P W K L L Q W R W W f 0 9 s P P P P P P P P P P P P P P P P P F R W W ",
"W R W W I P P P P P P P P m m m s f R J L J F y & & , , , % 0 D P P P P P P P P P P P P P I W W R W ",
"W R W W P P P P P P P P P P N m s s s P L G # , 0 r i r r < , q I P P P P P P P P P I P I W W W R R ",
"W W R W R P P P P P P P P P P N m s s m D 5 0 r r 4 4 r r i , 9 I P P P P P P P P P P R W W W R R W ",
"W W R R W R P P P P P P P P P P N s m m F 6 X > 3 @ > 1 % # < f P P P P P P P P P R R W W W I R W W ",
"W Q Q W R W R R P P P P P P P P P s d f J q U % @ : * @ & P I P P P P P P P I R W W W W R R W W R W ",
"R Q L Q R R W W P P P P P P P P P N N R W q } ] t > 4 , 5 R R P P P P P P R R W W W R R R W W I P P ",
"P W L Q R R W W W R P P P P P P P P W W W q  ...' @ 2 4 % 6 f H R R R R W R W R R P P P W W P P P P ",
"P W L Q R R W W W R R P P P P R W W W R G 0 | | ^ @ 1 2 1 % & f W W W W R R R R R R P R W I P P P P ",
"P W L Q W R R W W W W R R R R W W R R R p X f s / > > : 1 r & q R R R R R W W W W W W R W P P P P P ",
"P R L Q W R R R W W W W W W W R R R H H # : [ _ 6 @ X @   1 > 0 P R R W W J J J W W W W W P P P P P ",
"P R K K W W R P R W W W W W R P W W W q @ 3 ) { a @ , i @   # p P R W K L L L L K W R W R P P P P P ",
"P R W Q W W R m P P R R R R P R W H F % @ 3 Z @ 3 : % i %   s m R W J K H G J L L Q W R R P P P P P ",
"P I W Q W W I I I I R I I N d R W W P % @ v Z @ 3 @ < r *   s f W W R N m m s F K L W R R R P P P P ",
"I I W W W R R W W W W W R I P W W I D < + v 3 > + X r 4 @   s I W R N m s s n s F K Q W R P P P P P ",
"P P W W R R W Q L K L W W W I W W P P f   v : : + @ i 4 @   s G W R N N m m s s s W L W R P P P P P ",
"P P R R R W Q L L L L L W W I W R P I P 0 + > @ : @ i 3 @   f W R R P P P N m s s F K W R P P P P P ",
"P P R R R Q L H W W J L L W W W R P P I i + @ : : % 4 1 @ X D W W P P P P P N m s m J W W I P P P P ",
"P P R R W J I m f N I Q L J R W R P P P p @ + 1 @ r 4 > + 9 R W R P P P P P P P m m H J W P P P P P ",
"P P R R W I m s s s s I J J W R W R I R p + @ 3 @ r 4 :   p R W R P P P P P P P P s I W W R P P P P ",
"P I R R R P N N d s s s W J W R R W W W a + 3 @ , r 1 >   q P R R R P P P P P P P m I R R R P I P P ",
"P P R R R P P P P N m m P W J R I W W I q @ > @ r 4 3 o   a F G W R R I P P P I I N P W R W P P P I ",
"R R R R R P P P P P N m d W J R R G a 9 # # + , i 4 1   # F R R R W R R I P P P P I P W R W W P I I ",
"W R R R P P P P P P P m s R J R I q e w # O X i r 3 3 @ & 5 H W R R R W R P P P P P R R R R W W W W ",
"W R W W P P P P P P P P m I W R R 9 l w     % r 4 3 > @ r # J L J W R R R W R R P R R R R R W W W W ",
"W W W W P P P P P P P P N N W R W F q # @ # w @ > 3 @ < i , a L L L J W R R R R W R R R W W W W W W ",
"W Q L Q R P P P P P P P I P W R W R 0 @ o w c + : > @ 0 i 0 & J L L L J W W R R R P R W W W W W W W ",
"W H J L Q W R P P P P P P I R R R R q @ * w B = > @ , i r r % p P G J L K W W W R R W W W W W ! W W ",
"I N P W L Q W R I P P P P R W R W R 9 o h w ~ w : 3 4 i i i , , m d P W L Q W R R R W W W W W R I P ",
"P N s m H J W W W I I P I W R R W D   j b w z * > 3 1 r i i , , s s s f W K W R R W W W W W P P P P ",
"P P m m I L W R R W W R R W R R H D @ C S b h A : > 1 4 i i i @ i d s s G W W R W W W W R P P P P I ",
"P P P s N Q H I N I R W R R N I W D g S A S A A b @ 4 1 i i i : i s s d R W R R W W W R P P P P P P ",
"P P I m f J W I m P I I I N s N R D 1 S S A k A A 1 > 3 < i i % 0 s s f R W R W W R P P I P P P P P ",
"P P P m N Q W R I W R W R R N m D 9 g > C k g A S b @ 3 4 r i i # p d R R R R W R P P P P P P P P P ",
"I P I N P W W R W W Q W W W W I f = k ; O o O g b 1 @ 3 1 r i 4 % p R R R R W R P P P P P P P P P P ",
"P P P N P W R W Q Q Q L L Q W W I # * * * ; ; * o @ o > 1 l i i < 6 W R P W R P P P P P P I P P P P ",
"P P P P P W R W J R N D W L J W I O O - - * g g @ * o : 3 1 i i < 0 R P R W R P I P P P P P P P P P ",
"P P P P R W W Q F s s n s I L J W X 9 0 i * g ; ; = l > 4 1 r r r & s P W W P P P P P P P P I P P P ",
"P P P P R W Q W P N N m d s F J H $ Y ` ] ; ; 1 ; = < @ 3 3 4 i i % 9 R W W P P P P P P P P P P P P ",
"P P R W W W W R P I P P P N m P G q s n ) n * 1 g * V , > 3 2 r i % q P W W R P P P P P P P P P P P ",
"W R W W W W W P P P P P I P P N P 6 u m ) i * g ; g *   : 3 3 r i % r P R W R R P P P P P P P I R R ",
"W W R R R W R P P P P P P P P P I 9 u   e = ; ; g ; ; O X 3 3 4 i % i F R R W W R R P R R R R W W W ",
"W W W R R W R P P P P P P P P P F 6 U   x - ; 1 * * * O @ 3 3 4 4 & D R R R R R R W R W ! R R R W W ",
"Q W W W R W R P P P I P I I I R G 9 u @ e - * @ q d u q @ 3 3 3 : q J W W W R W W R R R P R R R R W ",
"W W W W R W W R R P R R R W W W D X # ( ` - & F W Q W W 9 > 3 @ 6 H K K L L L K L L K J W W W W W W ",
"W W R R I R W W W W W W W R W D $ 7 x 8 u r a W W W R q # . @ 5 J L K K J Q J W J J J L K J W W W W ",
"W R W W R I R W R I R I R R G f # $ # X # X F W W a , z w = E q F D N m N N N D f P I I W J K J W W ",
"W W W Q W R I I R R R R R W W W H W a 9 F W W W H p T T T B , q s s s s m s m s s s s s d P R W W W ",
"W W W W W W W W W W W W W W ! W W W W W W W W W W W W W F s s d s s s s n s s m s s s s s s d R W W "
};
