/* XPM */
static char *enemy7_resized[] = {
/* columns rows colors chars-per-pixel */
"50 52 95 2 ",
"   c #050505",
".  c #090707",
"X  c #0E0907",
"o  c #060609",
"O  c #0A070A",
"+  c #06090D",
"@  c #0B0B0C",
"#  c #11060B",
"$  c #120D0C",
"%  c #190F0B",
"&  c #15110F",
"*  c #1B120D",
"=  c #0D0D12",
"-  c #130E12",
";  c #1A0E14",
":  c #100F18",
">  c #0F1011",
",  c #131214",
"<  c #1B1413",
"1  c #1E1815",
"2  c #15141B",
"3  c #19161C",
"4  c #171819",
"5  c #1C181C",
"6  c #22160E",
"7  c #2A1A0E",
"8  c #2A0F1B",
"9  c #221612",
"0  c #241913",
"q  c #2C1C13",
"w  c #23131A",
"e  c #2C121C",
"r  c #261E1B",
"t  c #2B1C1B",
"y  c #321E14",
"u  c #351E1A",
"i  c #28201C",
"p  c #342216",
"a  c #3A2314",
"s  c #36251E",
"d  c #39261D",
"f  c #3C291F",
"g  c #161521",
"h  c #181723",
"j  c #161922",
"k  c #1A1A25",
"l  c #1C1E2A",
"z  c #321C25",
"x  c #351D29",
"c  c #211F30",
"v  c #352420",
"b  c #392620",
"n  c #3D2920",
"m  c #242334",
"M  c #262738",
"N  c #272A3B",
"B  c #292C3B",
"V  c #442C1C",
"C  c #4A2F1E",
"Z  c #512E17",
"A  c #47371B",
"S  c #4C311E",
"D  c #54341F",
"F  c #5B371F",
"G  c #5E381E",
"H  c #63391D",
"J  c #693B1D",
"K  c #442423",
"L  c #452E21",
"P  c #482F21",
"I  c #4C3221",
"U  c #44352E",
"Y  c #523521",
"T  c #583720",
"R  c #5C3921",
"E  c #5C3828",
"W  c #422433",
"Q  c #4E3B34",
"!  c #543131",
"~  c #5B4823",
"^  c #56433A",
"/  c #5D453E",
"(  c #5D493F",
")  c #7F5630",
"_  c #634C45",
"`  c #6E4F49",
"'  c #685148",
"]  c #8B6D34",
"[  c #936639",
"{  c #816658",
"}  c #93635D",
"|  c #937464",
" . c #BC8B7F",
".. c #D9A999",
"X. c #EFB9A7",
/* pixels */
"Y Y Y Y Y Y I L L Y Y F F Y T Y Y Y Y Y Y Y Y Y Y Y I L L L L L L L L L L L L L n f n v b b v b I Y ",
"Y I I Y Y L f s b n n Y F G G G T Y Y Y I I I I Y Y L L L L L L L L L L L L L P L L L L n n s b I Y ",
"Y I Y Y I L L n n n b b n I F G H H F Y Y Y I Y Y I L L L I L L L L L L L L L L L L L L L L L L I Y ",
"Y I Y Y L L L L L L n n f s s L Y F H H F Y I I Y L L q 0 0 0 f P L L L L L L L L L L L L L L I Y Y ",
"Y I Y Y L L L L L L L L L n b s s n I R H F Y S V * & < < < < * s L L L L L L L L L L L L L Y Y I Y ",
"Y I Y Y I L L L L L L L L L n s s s s n G G S 6 & 1 0 r i i i i * s L L L L L L L L L L L Y Y I I I ",
"Y Y I Y I L L L L L L L L L L n s s b b F G i 1 r r i r 5 r i 1 , p P L L L P L L L L I Y Y Y I I Y ",
"Y Y I I Y I L L L L L L L L L L n s s b A R a X - , 5 & > 2 2 , s L L L L L L L L I I T Y Y I I Y Y ",
"Y R F I I Y I P L L L P L L L L L b v n Y Y V t z   , 3 $ @ - p L L L L L L P I I Y Y Y I I I Y I Y ",
"I T J Y I I T I P L L L L L L L L n n Y Y Y a ( } ! , g r 1 - i A L L L L L I Y Y Y I I I Y Y I L L ",
"L Y H F I I Y Y Y P L L L L L L L L I Y Y Y p ' X. .9 > 3 5 , . V I I I Y I Y I I I L I Y Y L L L L ",
"L I J Y I I Y Y Y Y P L L L U P I Y Y I I Y a _ ..` 9 , 2 3 < & q I Y I I I I I I L L I Y L L L L L ",
"L Y H F I I I T Y Y Y I P I Y Y Y I I Y F A $ 0 b ! s @ , , 5 r 1 6 I I I Y I Y Y Y Y I Y L L L L L ",
"L I H T Y I L I Y Y Y Y Y Y Y I I I Y T G 7 + ~ ] A @   . & @ 2 , p Y T F F F F T Y Y Y Y L L L L L ",
"L I G F Y Y I L I Y Y Y Y Y I P Y Y Y I s $ = i [ ) @   $ i , X i D Y G H J J H G Y I Y I L L L L L ",
"L I T F T Y L n n I I Y Y P n I Y Y P f 0 @ @ m - , 4   $ i < < I Y F F S S D G J R Y I I L L L L L ",
"L P Y T Y I P P P P P P P n n P Y I L L q @ > B = , 4 . 1 i , 0 Y Y Y n v v b n R H T I I L L L L L ",
"L P Y Y Y I Y Y T Y Y Y Y P L Y Y I L L p $ = g > 4 @ . i r - q Y Y n v s s b s A G F Y Y L L L L L ",
"L L I Y I I Y Y R H F Y Y Y P Y I I L L L < o 2 @ @ , X i 1 = q E L n n b b b s v Y G I I L L L L L ",
"L L I Y I Y T H J H J H Y Y P Y I L L L A d . @ , @ 2 @ r 5 @ p Y L L L L n b s v A G T Y L L L L L ",
"L L I I I T H F D Y G H H Y I Y I L L L L L X @ > 3 , @ 5 5 > q Y L L L L L L n s n F Y Y L L L L L ",
"L L I I Y T P d s n P Y H F Y I I L L L L f $ @ < 3 @ , 5 5 = p Y L L L L L L L d b Y T Y I L L L L ",
"L L I I Y P b s s s s L F H Y P Y I V p q $   @ < 3 @ , 5 5 > q I L L L L L L L L v L Y I L L L L L ",
"L L I I I L n n b s s d P G F P d q & X < r . , 3 4 @ , 5 5 @ p Y L L L L L L L L n V Y Y I L L L L ",
"L I I I I L L L L n b s L Y C 6 w z < < r 2 o 2 > 2 o 1 r 3 = q Y I I L L L L L L n L Y I Y L L L L ",
"I I I I P P L L L L L v d Y 9 z w w ; > 2 2 . ; < @ . r r 3 > q I Y Y I L L L L L L L Y I Y Y L L I ",
"Y I I I L L L P L L L n s I a q t X * > 5 4 X - < O ; i 5 4 > q Y I S D I I L L L L I I L I Y Y Y Y ",
"Y I Y Y L L L L L L L L n L T d u q 6 @ > o o - 2 = & r 4 4 $ y T Y I S I Y I L I I Y I I I I Y Y Y ",
"Y Y Y Y P L L L L L L L n f Y I 0 E % 9 6 $ 2 @ 5 = , w 2 4 > a J G F D I I I Y Y Y I I Y Y Y Y Y Y ",
"Y F H Y I L L L L L L L L L Y I V V Y p d j l @ 4 @ $ 2 @ X . 7 G H H G Y Y I I L I I Y Y Y Y T Y Y ",
"Y D G H R I L L L L L P L L Y I S a R d q j m = , X < @ 0 r i & s D F H G Y Y I L I I Y Y Y Y Y Y Y ",
"L f L Y H R Y I P L L L L P Y I Y d D V 0 j M 2 @ - x $ i i i @ i b L T G T Y Y I I Y Y Y Y Y I A U ",
"L L s v F G Y I Y I L L I I I I Y V u t < l B h = - W ; 1 i i , r s s f Y T Y Y I Y Y Y Y I I P L L ",
"L L n s L G Y I I I I I Y Y I I Y S y u - B N m @ - W z $ i i 0 X s s s I Y Y I Y Y Y I I L L L L L ",
"L L L s f G Y L L L I Y I L n P Y Y y b 5 B N m O - x ; 0 i r r $ s s s I Y I I Y Y Y I L L L L L L ",
"L L L v f G Y L d L L I P n s L Y T Y < m B M m g @ @ 3 i r i r & i s f I Y I Y Y I L L L L L L L L ",
"L L L n n T Y I P Y I Y I I L d L Y Y % g c c c c O 4 2 i r i r 1 * b I I I I Y I L L L L L L L L L ",
"L L L n n T Y I Y Y T T Y Y Y L n L C < : = k h g @ 5 2 r i r i 1 * I Y I I I I L L L L L L L L L L ",
"L L L L L Y I I T R T G H T Y Y L n w l l 2 = o o + 2 3 r r i r 0 * A P P I Y P L L L L L L L L L L ",
"L L L L L Y I F F P n V Y H F Y Y L 9 h l : : @ : O 5 2 r i r i i & y L I Y I L L L L L L L L L L L ",
"L L L L I Y Y R C s s s v S G F Y Y V $ $ ; = = 2 o 4 4 r i r i r , r L Y Y L L L L L L L L L L L L ",
"L L L I I Y Y Y L n n b v s V G Y Y I * w 8 O 2 2 = > 4 3 r i r i 0 * V Y Y L L L L L L L L L L L L ",
"L L L I Y Y Y I L L L L L n n L F Y D r { Q X : 2 = @ 5 5 r i r r i $ V Y Y I L L L L L L L L L L L ",
"I I Y Y T Y Y L L L L L L L L n L Y D 6 Q { r : 2 = @ 3 5 r r i r r $ f I Y I I L L L L L L L I I I ",
"T Y I I I Y I L L L L L L L L L I Y Y 9 ^ U = : 2 = = 2 5 i r r i r & f I I Y Y Y I I I I I Y Y Y Y ",
"Y Y Y I I Y I L L L L L L L L L I Y Y % v / 3 2 2 = = 2 5 i r i r * V D I I I I I I I I I Y I I Y Y ",
"Y Y T Y I Y Y L L L L L L L I I Y I P % 8 O : : g = @ 3 2 5 3 5 * V D D Y Y Y I I Y I I I I I I I Y ",
"Y Y Y Y I Y Y I L I I I Y Y Y Y Y P Y * z # : 2 : @ @ 2 5 2 > X V G G G H H H H H R T R Y Y I Y Y Y ",
"Y Y I I I I Y Y Y Y Y I Y I I I I A 7 Q | v o @ 9 * @ 4 , @ w $ Z H F F F F T F F G G G G F Y Y Y Y ",
"Y I Y Y I L I I I I I I I I I I 0 ; e t Q U y V F V . X < e ; q V f n n n f n n n n L I D F F F Y Y ",
"Y Y Y Y Y I I I I I I I I Y Y S u K K K u 0 P Y Y Y d K v < s s s s b s v s s s s v s v f n Y Y Y T ",
"Y Y Y Y Y Y Y I Y Y Y Y Y Y Y Y T Y T Y T T Y Y Y Y Y Y L b s s s b s b s b s b s s s s s s n I Y Y "
};
