/* XPM */
static char *__removebg_preview__1__resized[] = {
/* columns rows colors chars-per-pixel */
"50 50 208 2 ",
"   c None",
".  c #C2197D",
"X  c #BD1D81",
"o  c #BF278E",
"O  c #B32B8B",
"+  c #C4288F",
"@  c #C92B98",
"#  c #CB319A",
"$  c #C43898",
"%  c #D02FA1",
"&  c #DC2CAA",
"*  c #D526A0",
"=  c #D533A3",
"-  c #DF37A7",
";  c #D530A8",
":  c #DC32AB",
">  c #DA3CAC",
",  c #E827AF",
"<  c #E42CAE",
"1  c #E234A9",
"2  c #E42DB3",
"3  c #EE2DB4",
"4  c #EB2EB9",
"5  c #F22FB7",
"6  c #F52FBE",
"7  c #E533B3",
"8  c #E935B7",
"9  c #E33BB2",
"0  c #EC32BB",
"q  c #EB3DBC",
"w  c #EC3BB3",
"e  c #F433BD",
"r  c #F831BF",
"t  c #AF4188",
"y  c #B8469E",
"u  c #AF5295",
"i  c #B94BA7",
"p  c #BB55A4",
"a  c #BC79AE",
"s  c #C8489E",
"d  c #CA4498",
"f  c #C84CA3",
"g  c #D54FA7",
"h  c #D14AAC",
"j  c #DD48AB",
"k  c #CF53A8",
"l  c #C459A6",
"z  c #D456AD",
"x  c #D35CAD",
"c  c #DA4BB6",
"v  c #C958B3",
"b  c #D453B4",
"n  c #DD53B0",
"m  c #DE5AB6",
"M  c #DD5BBF",
"N  c #E045AA",
"B  c #E647AE",
"V  c #E254AF",
"C  c #EC43B5",
"Z  c #ED43BC",
"A  c #E44CBC",
"S  c #EA4CBB",
"D  c #E748B6",
"F  c #F142BE",
"G  c #F24DBD",
"H  c #E355B4",
"J  c #E258B6",
"K  c #E654BB",
"L  c #EE53BB",
"P  c #EC5ABA",
"I  c #F254BD",
"U  c #F659BE",
"Y  c #C374AE",
"T  c #C66DB6",
"R  c #CC68BA",
"E  c #C866B2",
"W  c #D269BC",
"Q  c #CF70BE",
"!  c #C672B3",
"~  c #EF32C1",
"^  c #EC3CC3",
"/  c #F532C2",
"(  c #FA32C4",
")  c #F63BC1",
"_  c #F939C6",
"`  c #FE33CB",
"'  c #FC3BCB",
"]  c #EB4EC0",
"[  c #F343C6",
"{  c #F840C7",
"}  c #FA42CB",
"|  c #FB4ACB",
" . c #E55BC2",
".. c #EC5CC3",
"X. c #EF5EC8",
"o. c #ED53C6",
"O. c #F35EC4",
"+. c #F85BC7",
"@. c #F05CCB",
"#. c #FD5DCD",
"$. c #F755CB",
"%. c #FA4BD1",
"&. c #FA56D5",
"*. c #F95CD9",
"=. c #F85ED3",
"-. c #CD6CC0",
";. c #DF63C0",
":. c #DA7ACC",
">. c #D977C7",
",. c #DF7CD3",
"<. c #E462C2",
"1. c #EC67C5",
"2. c #E26AC6",
"3. c #E167C8",
"4. c #EB62CF",
"5. c #EF6BCD",
"6. c #F663C5",
"7. c #FD66CB",
"8. c #FC6BCC",
"9. c #F268C9",
"0. c #ED72CE",
"q. c #E474C4",
"w. c #ED6AD3",
"e. c #FC64DE",
"r. c #F96CDA",
"t. c #F36AD8",
"y. c #ED74D2",
"u. c #E379D7",
"i. c #ED7ED0",
"p. c #E47DDA",
"a. c #EC7DDF",
"s. c #EB72D8",
"d. c #FB74D3",
"f. c #F47ED4",
"g. c #FA79D3",
"h. c #F874DE",
"j. c #F57BDC",
"k. c #FC7DDC",
"l. c #F772D4",
"z. c #FA6EE0",
"x. c #E77EE0",
"c. c #EF7EE1",
"v. c #F771E0",
"b. c #FB72E5",
"n. c #F17FE0",
"m. c #FA7DE8",
"M. c #CA8BBD",
"N. c #C483BA",
"B. c #CF8CC1",
"V. c #DE82C6",
"C. c #D58CC6",
"Z. c #CD90C1",
"A. c #D092C7",
"S. c #D393C9",
"D. c #D997CE",
"F. c #DD9BD2",
"G. c #E482D9",
"H. c #F780D7",
"J. c #FC81DF",
"K. c #F686DB",
"L. c #E597D6",
"P. c #ED9ADD",
"I. c #F792DF",
"U. c #DEA0D5",
"Y. c #E4A8D7",
"T. c #E3A3DB",
"R. c #E5ABDC",
"E. c #EB88E7",
"W. c #FB84E3",
"Q. c #F389E6",
"!. c #FB85EC",
"~. c #F48BEC",
"^. c #FB8DEE",
"/. c #F387E5",
"(. c #EF92E8",
"). c #EA90E3",
"_. c #F293EC",
"`. c #FC90ED",
"'. c #FB9DEE",
"]. c #F38DF1",
"[. c #FA8DF3",
"{. c #FA94F5",
"}. c #FC9AF5",
"|. c #FD97FB",
" X c #FE9AFD",
".X c #F795F2",
"XX c #EBA6E2",
"oX c #E9ABE2",
"OX c #E6ACE0",
"+X c #F9A4E9",
"@X c #F8ADEE",
"#X c #F5AFEB",
"$X c #EBB1E6",
"%X c #EEB6EB",
"&X c #F1BAEE",
"*X c #FAB2EE",
"=X c #F6A9F4",
"-X c #FCA3FC",
";X c #FCABFB",
":X c #F6BBF1",
">X c #FCB4FC",
",X c #FCBBFB",
"<X c #F9B6F4",
"1X c #F6C2F4",
"2X c #F9C3F7",
"3X c #FCC4FB",
"4X c #FDCCFE",
"5X c #FED1FD",
/* pixels */
"                                                                                                    ",
"                                                                                                    ",
"                                                                                                    ",
"                                                                                                    ",
"                                                                                                    ",
"                                                                                                    ",
"                                                                                                    ",
"                                                                                                    ",
"                                                                                                    ",
"                                                                                                    ",
"                                                                                                    ",
"                                                                                                    ",
"                                  i i                                                               ",
"                          :.(.(.u.].[.~.x.-.                                                        ",
"                        u.|.-X{..X-X-X X-X-XV.                                                      ",
"                      -..X X{.y.=X4X3X3X3X4X2XY                                                     ",
"                      u.|.!.@.Q.4X4X4X4X4X4X5XR.                                                    ",
"                       .e.*.h.,X3XXX2X4X4X3X3X=Xy                                                   ",
"                      Z b.|. X X{.2./.}.;X-X|.|.3.+                                                 ",
"                    g (.Q.|.|.|.{.C C w.|.|.]./.^.> :                                               ",
"                    h +Xr.{. X|.{.q 6 A [.Q.|./.!.S 4 #                                             ",
"                    # 0. .v.{.|.{.] ` / t./.j.@.9 e @ O                                             ",
"                      j B q $.m.b. .z.&.o.X.Z 7 + @                                                 ",
"                  d H 8.7.) / ( ' Z {.|.[.X.1 X                                                     ",
"                J 6.7.7.O.| ~ 3 ` & b |. X[.] &                                                     ",
"            t H 7.7.7.H $ q ` < / 3 X J E.c 7 2                                                     ",
"          M.L.H.d.1.g     % ( 2 * < j m z @                                                         ",
"        Y.4X4X3XF.        f 9 > D  .W.;X&XT                                                         ",
"      S.4X4X4XU.        x f.l.9.k.`._.,X4X$X                                                        ",
"      %X4X4XoX        f O.#.| } | ..l %X4X4XA.                                                      ",
"    B.4X4X5XT.        q ' ' ` ` ~ $   Z.3X4X&X                                                      ",
"    T.4X4X4X1Xa     : ` ` ` ` ` &       R.4X4XF.                                                    ",
"    _.,X4X4X4XXX    7 ' z.*.b.e.#       B.3X4X2XN.                                                  ",
"  R |.|.>X4X4X;X,.  0 *.W.{.|.^.h         %X4X4XOX                                                  ",
"  >.|.|. X;X>X X.Xv ^ &.[.`.|.~.M         D.3X4X4XS.                                                ",
"  :.|.|.|.|.|.|.|.x.o.' !.`.|._.W h       T <X4X4X&X                                                ",
"  2.|.|.|.|.|. X|.~.4.' e.{.{.{.T ;.s       ).3X4X4XR.                                              ",
"  J W.|. X|.{.|.|.~.s.%.' [.}.}.Q   :.      >.;X4X4X4XR.                                            ",
"  J d.k.W.g.d.8.!./.c.b.` e.}.-Xp.  D.L.    l Q.>X4X5X4XU.                                          ",
"  n 7.7.7.7.7.7.d.y.Q.!.) } !.-X.Xp   $XF.    1.`.,X4X4X3XS.                                        ",
"  g 7.7.7.7.7.7.8.<.w.[ e e &.}.-Xp.u M.&XD.  J d.}.>X4X4X2XC.                                      ",
"    6.7.7.7.7.7.8.S r ` ` ( e b.>X-XG.C.D.1XZ.x 7.k.}.>X3X4X=XR                                     ",
"    V 7.7.7.7.7.7.] ' ` ` ` e ' +X3X-X=XOXR.2XV.6.7.k.|.-X;X-X~.E                                   ",
"      D +.7.7.7.7.L | ` ` ` ( e $.,X3X,X4XOX:X2X+Xd.8.J.{. X-X{.G.                                  ",
"      = L L U U U C _ ` ` ` ` ( e r.,X4X4X4X:X3X2X*Xf.8.d.J.{.{.E.u.                                ",
"  d P N C I C w 5 r ` ` ` ` ` ` / e d.,X4X4X#Xq.P.<Xj.H.9.P g.{.p.E.                                ",
"  Z #.+.Z e ` ` ` ` ` ` ` ` ` ` ` e e $.0.1.S i.f.H.6.B H f.H.w.c b                                 ",
"  = 7 8 8 0 4 0 0 7 < 6 ` ` r 0 0 3 5 / / ( _ | [ ( e / ( { Z q 7 -                                 ",
"                        = % : & 8 0 0 0 / ~ / 0 / 0 0 0 8 & ;                                       ",
"                                                                                                    "
};
