/* XPM */
static char *giphy_1_6__dragged__resized[] = {
/* columns rows colors chars-per-pixel */
"50 50 162 2 ",
"   c None",
".  c #020303",
"X  c #0D0C0D",
"o  c #130F0A",
"O  c #180B06",
"+  c #191107",
"@  c #14100C",
"#  c #1E150A",
"$  c #100F10",
"%  c #141313",
"&  c #181717",
"*  c #171718",
"=  c #181718",
"-  c #1C1B1B",
";  c #20170B",
":  c #241A0C",
">  c #2A1E0E",
",  c #211D1E",
"<  c #2F220F",
"1  c #31230F",
"2  c #292218",
"3  c #352612",
"4  c #3C2B13",
"5  c #362A1B",
"6  c #1F1F20",
"7  c #211F20",
"8  c #242324",
"9  c #282526",
"0  c #282728",
"q  c #2C2B2C",
"w  c #2E2A24",
"e  c #3F2F20",
"r  c #302D2E",
"t  c #372F24",
"y  c #3D332B",
"u  c #2F2E30",
"i  c #302F30",
"p  c #343234",
"a  c #393334",
"s  c #373638",
"d  c #383739",
"f  c #3C3B3D",
"g  c #42190D",
"h  c #4E240B",
"j  c #5A2B0C",
"k  c #412E15",
"l  c #402A1E",
"z  c #453115",
"x  c #4C3617",
"c  c #4D3718",
"v  c #4F3818",
"b  c #563E1A",
"n  c #583F1A",
"m  c #64350D",
"M  c #6F3C10",
"N  c #40372C",
"B  c #513D2A",
"V  c #423B3C",
"C  c #4B3C3D",
"Z  c #5B411B",
"A  c #6A4210",
"S  c #7D4B11",
"D  c #774719",
"F  c #584A3D",
"G  c #754928",
"H  c #785237",
"J  c #3F3E40",
"K  c #403F41",
"L  c #414042",
"P  c #4B4243",
"I  c #4B4A4C",
"U  c #534B4B",
"Y  c #584D4E",
"T  c #4F4F50",
"R  c #574F50",
"E  c #535253",
"W  c #5C5153",
"Q  c #5C5C5D",
"!  c #604C4D",
"~  c #625455",
"^  c #6C5B5C",
"/  c #635A52",
"(  c #6D6152",
")  c #6E5F60",
"_  c #626263",
"`  c #686768",
"'  c #6C6C6C",
"]  c #696568",
"[  c #706162",
"{  c #776668",
"}  c #7C6A6B",
"|  c #7F7669",
" . c #706F70",
".. c #767676",
"X. c #7B7B7B",
"o. c #865615",
"O. c #986A25",
"+. c #A37222",
"@. c #8B6948",
"#. c #936F4C",
"$. c #A87E56",
"%. c #806E70",
"&. c #8D7B7C",
"*. c #977B7D",
"=. c #BE923A",
"-. c #AA8159",
";. c #B4885C",
":. c #BC8E61",
">. c #D1AA4C",
",. c #D7B357",
"<. c #C19264",
"1. c #EACE7C",
"2. c #848484",
"3. c #878888",
"4. c #8D8D8D",
"5. c #958182",
"6. c #9F888A",
"7. c #949494",
"8. c #9C9D9D",
"9. c #AE9395",
"0. c #AD9698",
"q. c #B89294",
"w. c #9F9FA0",
"e. c #BF9EA0",
"r. c #A4A4A4",
"t. c #AAAAAA",
"y. c #B5B1AC",
"u. c #B1B2B2",
"i. c #BCBCBC",
"p. c #C4A1A4",
"a. c #C8ACAE",
"s. c #CCB1B3",
"d. c #D7B7B9",
"f. c #E6BBBE",
"g. c #FAE89F",
"h. c #DCBEC1",
"j. c #E9BDC0",
"k. c #C3C4C4",
"l. c #C7C8C8",
"z. c #CACBCB",
"x. c #C9C8C6",
"c. c #CFD0D0",
"v. c #D4D5D5",
"b. c #D7D8D8",
"n. c #DCDCDC",
"m. c #ECCBCE",
"M. c #E4C5C8",
"N. c #F1CACD",
"B. c #F9CED1",
"V. c #FCD3D6",
"C. c #FDD9DC",
"Z. c #E0E0DF",
"A. c #FFFFDA",
"S. c #FFDEE1",
"D. c #DFE0E0",
"F. c #E4E5E5",
"G. c #EBECEC",
"H. c #F3F4F4",
"J. c #F6F8F7",
"K. c #F7F7F8",
"L. c #F7F8F8",
"P. c #FFFFFF",
/* pixels */
"                                                                                                    ",
"                                                                                                    ",
"                                                                      m j m M                       ",
"                                                                      o.=.>.+.h                     ",
"                                                                    h +.g.A.,.S g                   ",
"                                                                  l G O.,.1.=.S                     ",
"                                                                $.$.H D A o.S                       ",
"                                                              ;.-.l O                               ",
"                                                            #.:.B                                   ",
"                                                    L L J y <.@.                                    ",
"                                                  8 I _ ` E -.U L                                   ",
"                                                  - q &.L F U Q ` _ I                               ",
"                                                % , E t.0 8 d f f L J 7                             ",
"                                          I u - & - 3.X.- u L L K K s                               ",
"                                    0 I _ ^ f w , , V q - q f L L L q                               ",
"                                  d 7.u.Q f K f r 8 , , , - 8 8 0 0 - *                             ",
"                              9 d I ` T J J L L L f p 0 9 7 7 , 6 6 7 9 q                           ",
"                          * - f L L J J L L L J J L L f s p r r u u i s K s                         ",
"                        - i 7 K K J s J L J L L L L J p q q 0 q d L L L K L i                       ",
"                        - f 0 p K p p K L L J L J p q f P q a p p J L L K K J 8                     ",
"                      ^ } 0 J p f s s L L L L s 7 Y 9.d.p.r r K J L L L L L L p                     ",
"                      q.j.~ 0 s p p i K L J q q 5.N.V.V.d.a f d p J L L L L L d 8                   ",
"                    C j.V.M.%.a 6 i - 8 0 r ^ d.C.C.C.C.p.r K i p f L L L L L d 0                   ",
"                    [ B.m.[ [ 9.d a *.6.5.P W d.S.C.C.S.5.0 K r p d L L L L L f q                   ",
"                    { V.h.f & %.K P j.C.m.Y % &.S.V.B.N.Y i f i q f L L L L L f u -                 ",
"                    ! f.a.~ @ [ V R N.C.s.~ X 5.V.C.S.e.r V s i q L f u p L L f u -                 ",
"                      U r . 7 ~ f K q.*.V X $ f ~ %.0.W i L s u f L 6 * 9 p L d u -                 ",
"                      8 s p i r i 9 p p s s d p i i i 7 7 p s f L L 0 % 8 0 d s q *                 ",
"                      8 s J J J a s K V J I Q Q P p i f a s J K L L J * - 8 q p q                   ",
"                      p p p s J f K I ' w.z.D.F.b.2.i q J L L L J L L u % 0 0 i 8                   ",
"                      8 f T E ` 2.r.l.F.H.J.H.G.c.7.K q 0 J L L L L L f % 6 9 q -                   ",
"                          u.b.D.G.G.G.F.b.i.t.7.8.k.3.p - p L L L L L J * 6 0 -                     ",
"                            u.H.H.F.b.l.k.l.b.F.J.J.8.d 8 8 L L L L L J % - 8                       ",
"                            3.D.v.v.D.G.H.J.H.H.H.G.3.d 8 8 f f L L L p X 8 8                       ",
"                          Q ' E I I T ` 4.i.b.F.D.u.I i - 6 6 0 f f p 6 X 0 8                       ",
"                    r.k.v.i.I s f p i p p J T Q Q L i q 6 - 8 8 q p i $ - 0                         ",
"                  r.H.P.P.P.k.' ` 9 - q s f L f L L L 0 * 0 0 8 0 i 9 % 8 8                         ",
"                  7.G.P.P.P.P.G...      9 q p s d d q * 8 0 6 8 q _ k.r.E                           ",
"                    t.P.P.P.P.H.                * * X - 0 - L 7.z.v.i.b.l.`                         ",
"                      i.v.P.P.v.                  . $ 9 8 d i.L.P.P.J.n.r.w                         ",
"                          l.F.4.                  . * 0 % I b.P.P.P.P.P.n.t +                       ",
"                                                  . 6 0     ..z.P.P.P.P.F.y +                       ",
"                                                  X 8 0       ..l.l.G.P.x.5 +                       ",
"                                                  $ 9 9           5 | y.( >                         ",
"                                                  $ 8 2           v n b x #                         ",
"                                            3   # 3 3 3 >         x Z Z 4 +                         ",
"                                        z b b v 3 3 5 z 3         1 x k #                           ",
"                                      < b Z Z Z Z Z Z Z k                                           ",
"                                        3 z x x c c z 3 #                                           ",
"                                          + # # ; # # o                                             "
};
