/* XPM */
static char *__resized[] = {
/* columns rows colors chars-per-pixel */
"50 50 89 1 ",
"  c None",
". c #040404",
"X c #080606",
"o c #0B0907",
"O c #060609",
"+ c #0A0609",
"@ c #070809",
"# c #0C0B0C",
"$ c #120C0C",
"% c #1A0F0E",
"& c #0D100F",
"* c #16110E",
"= c #1E130E",
"- c #0E0D12",
"; c #150E12",
": c #1A0E13",
"> c #0F1012",
", c #121314",
"< c #1B1413",
"1 c #1E1816",
"2 c #16151B",
"3 c #19161C",
"4 c #17181A",
"5 c #1A191B",
"6 c #230D15",
"7 c #221312",
"8 c #291716",
"9 c #211A17",
"0 c #2A1915",
"q c #22131B",
"w c #2A151C",
"e c #251E1B",
"r c #281F1B",
"t c #361F1C",
"y c #282016",
"u c #28201C",
"i c #38201D",
"p c #161521",
"a c #191725",
"s c #1A1927",
"d c #1E1E31",
"f c #291620",
"g c #201821",
"h c #321B25",
"j c #351D2A",
"k c #3A1F2C",
"l c #211F30",
"z c #2C2520",
"x c #3E2321",
"c c #362A24",
"v c #3B202E",
"b c #3C2A28",
"n c #242334",
"m c #41271E",
"M c #472925",
"N c #4A2B25",
"B c #41232C",
"V c #472A2D",
"C c #4B2E2D",
"Z c #45382D",
"A c #543421",
"S c #5A3724",
"D c #5A3822",
"F c #5F382D",
"G c #472737",
"H c #5C3334",
"J c #643A33",
"K c #5C4823",
"L c #674027",
"P c #684128",
"I c #72472B",
"U c #62413D",
"Y c #724335",
"T c #7F4E34",
"R c #784839",
"E c #6D4341",
"W c #694E47",
"Q c #634F48",
"! c #735B51",
"~ c #814D3D",
"^ c #906837",
"/ c #967737",
"( c #925741",
") c #AB7942",
"_ c #927167",
"` c #A6746C",
"' c #DEAD9D",
"] c #DBB3A2",
"[ c #F3BEAB",
/* pixels */
"                                                  ",
"                                                  ",
"                ...                               ",
"              #=<11<$@X                           ",
"            o<eeuuuuee1;#                         ",
"            o1reee3eue9e<o                        ",
"              #;32>#12,;#                         ",
"                #&*<2#+Bh                         ",
"               O>1u3>rE`W                         ",
"              .@,e52@U'[!                         ",
"             .$<<e32$C_]Q.                        ",
"            #9ee3,,,%HVZy.                        ",
"            #9e2--..X=K/KO@                       ",
"             o##,2##*y)^u-#@                      ",
"               o1p-#5,7sd>&o                      ",
"               o12-#34#sn-#@                      ",
"               <e2-@>4,-n-#@                      ",
"              .1p3##&>4&2-@                       ",
"              ,934#>3-#,--@                       ",
"              <u22#>33>&#-@                       ",
"              <93>#25u3-#@#o                      ",
"             *e22&#43ee;#@,21*o.                  ",
"             ,u34>#5442>#@,3391#:q;               ",
"            #1e3,@@,4,2,>X,3222$kjqf$             ",
"            $u33,$w:;;;;,X#3544X$:wh$             ",
"           X<e45,X,<qqqqq+@#,44@ =x0              ",
"           ou525-#u9<,>>,X  X#X. ix               ",
"           #e323,#eueep22@       mN               ",
"           X,2,4##rreu923@       DP               ",
"           .OX@$#$rree334@       DP               ",
"              .hh$euue244@       DT8              ",
"              #jj#err924>2-      0Ft              ",
"              wGh#eure24@p-       xC              ",
"             .;vh$euu924#p-       S~<             ",
"              $<*9uue324#p2       I(:             ",
"              <eeueue344@an#      AY7             ",
"             $euueuue34,O--O      +M0             ",
"             *uerueue24#O--O      $M0             ",
"             *uuueeue34&-p-       $M0             ",
"            #euueuur524#O;O       $M0             ",
"            $uuuuuer23,,q;        $M0             ",
"            *eueeuue34><q         $M0             ",
"           o9uueueue33*X          $M0             ",
"           #eueueuur23>.          $M0             ",
"           oeuuuuuu522,           DR7             ",
"           #euuuuue23,@           MJ%             ",
"           X$<1253444,.           xt              ",
"              OO#&455,O+          +$              ",
"                9c$#-@:hw$        .               ",
"                1bw66.X::O                        "
};
