/* XPM */
static char *__resized[] = {
/* columns rows colors chars-per-pixel */
"50 50 97 2 ",
"   c None",
".  c #040404",
"X  c #090606",
"o  c #0B0907",
"O  c #06060A",
"+  c #0A0709",
"@  c #0C0B0C",
"#  c #10060A",
"$  c #120D0C",
"%  c #15110F",
"&  c #0E0D13",
"*  c #130E12",
"=  c #1A0D13",
"-  c #110F19",
";  c #0F1011",
":  c #121214",
">  c #1C1413",
",  c #1E1815",
"<  c #15151A",
"1  c #1A161A",
"2  c #17181A",
"3  c #1C191C",
"4  c #210F15",
"5  c #280F19",
"6  c #211314",
"7  c #211A16",
"8  c #23131B",
"9  c #2B131B",
"0  c #241D1B",
"q  c #291E1C",
"w  c #321D1D",
"e  c #282014",
"r  c #29201C",
"t  c #3C2519",
"y  c #191724",
"u  c #161822",
"i  c #1C1D25",
"p  c #1D1C2A",
"a  c #2A1720",
"s  c #2E1923",
"d  c #391624",
"f  c #321C24",
"g  c #341C28",
"h  c #381F2C",
"j  c #1E2026",
"k  c #20232A",
"l  c #28262C",
"z  c #312522",
"x  c #3C2223",
"c  c #372B25",
"v  c #3A2C27",
"b  c #3B242C",
"n  c #3B2E28",
"m  c #3E3027",
"M  c #3E312A",
"N  c #252534",
"B  c #2C2F3C",
"V  c #2C303A",
"C  c #4A381E",
"Z  c #412526",
"A  c #4C2E24",
"S  c #462929",
"D  c #4D2D2B",
"F  c #42322D",
"G  c #573721",
"H  c #5D3924",
"J  c #56332A",
"K  c #422433",
"L  c #463731",
"P  c #4C3B33",
"I  c #543131",
"U  c #5A3530",
"Y  c #643B33",
"T  c #683E34",
"R  c #603738",
"E  c #633939",
"W  c #56423A",
"Q  c #5B473D",
"!  c #5F4A3F",
"~  c #6B432A",
"^  c #734634",
"/  c #7D4C37",
"(  c #714338",
")  c #7F5730",
"_  c #323641",
"`  c #343A42",
"'  c #654F43",
"]  c #675145",
"[  c #6F544A",
"{  c #7A5A52",
"}  c #7B6053",
"|  c #825F36",
" . c #8C6D33",
".. c #966961",
"X. c #B4867B",
"o. c #BE9A8C",
"O. c #D8AB9A",
/* pixels */
"                                                                                                    ",
"                                                                                                    ",
"                                        .                                                           ",
"                                    $ , , > $ X                                                     ",
"                                  % r r r r 0 7 $                                                   ",
"                                  % 0 0 0 3 q 0 0 %                                                 ",
"                                    o < : * 3 < $ o                                                 ",
"                                      o $ : : @ x 6                                                 ",
"                                      @ , 0 : I ..L                                                 ",
"                                      @ 0 1 > X.O.L                                                 ",
"                                  X : > 3 < > { o.z                                                 ",
"                                o , 0 3 : ; q I n $                                                 ",
"                                  7 3 & @ . ; C  .e O                                               ",
"                                  o @ : : @ ; ) ) 3 o                                               ",
"                                      : 2 @ 2 , N k @                                               ",
"                                    @ < : @ 2 ; k k @                                               ",
"                                    $ 3 : o : < 2 i @                                               ",
"                                    * 2 @ : ; : ; < o                                               ",
"                                    1 < @ < 3 ; & - .                                               ",
"                                  @ 3 2 @ : 0 , @ @ .                                               ",
"                                  % 3 < @ < 0 0 : @ ; : : @ .                                       ",
"                                  > 3 : @ < 0 r % o : 1 0 > 8 f =                                   ",
"                                o 7 3 : ; 2 1 0 : o : 2 < & 9 K f *                                 ",
"                                @ 7 3 : o : : < : @ : 1 1 * + 1 8 #                                 ",
"                                : 0 2 : = 8 * > : @ o : : @   . g q                                 ",
"                                > 3 2 @ o * 8 6 6 =     . .     S t                                 ",
"                              @ 7 2 < @ : 1 > : * @             w D                                 ",
"                              $ 3 2 2 @ < , r r 3 < o             H                                 ",
"                              @ < : : @ ; % r r 1 < @             G ^                               ",
"                              . O X $ @ ; , r 3 2 : -               / Y                             ",
"                                  + g < > r r 1 < ; i                 ( w                           ",
"                                  # h > 0 r r 1 < : V 2               I I                           ",
"                                  8 K > 0 q 0 2 & p ` k               w U                           ",
"                                  , h > 0 q 3 : : V ` V @               T A                         ",
"                                > 7 : , 0 0 < & N ` ` u O               H ^                         ",
"                              $ q r 7 r 0 < & p N V j & O                 ~                         ",
"                              > r 0 r 0 3 & O & & & - y <                 J                         ",
"                            o , r q 0 1 - & - O & & O y u                 x Z                       ",
"                            % 0 0 q 3 < X @ & & u & = = O                 x S                       ",
"                            > r 0 0 < @ 6 5 & - < & = 1 @                 x E                       ",
"                          X 7 r 0 < ; P [ 9 * - < 1 ' W                     D 6                     ",
"                          O 7 0 1 : O M Q m & < - z ! z                     S 6                     ",
"                            , 0 3 @   Q } M   & - r ] n                     J 6                     ",
"                            $ < : X   w v       & q z                     t T 6                     ",
"                            @ < :   = 9 X       O = s                       Z =                     ",
"                              : @   = 5           1 s                       @ .                     ",
"                                X   5 $           < W n                                             ",
"                                    9 z           c P b s *                                         ",
"                                    P W 4 X       o = 9 a =                                         ",
"                                    z 9 d 5 #                                                       "
};
