/* XPM */
static char *__resized[] = {
/* columns rows colors chars-per-pixel */
"50 50 96 2 ",
"   c None",
".  c #040304",
"X  c #080706",
"o  c #0A0807",
"O  c #060608",
"+  c #0B070A",
"@  c #070808",
"#  c #0C0B0C",
"$  c #13070C",
"%  c #120D0C",
"&  c #14110F",
"*  c #0E0D12",
"=  c #140E12",
"-  c #1B0D13",
";  c #100F18",
":  c #0F1012",
">  c #131314",
",  c #1B1413",
"<  c #15141A",
"1  c #19171B",
"2  c #17191B",
"3  c #1C191B",
"4  c #210D15",
"5  c #280E19",
"6  c #231414",
"7  c #221B17",
"8  c #22121A",
"9  c #2A151E",
"0  c #241C1B",
"q  c #341C1F",
"w  c #2A211D",
"e  c #36201E",
"r  c #3D251E",
"t  c #1A1B23",
"y  c #1D1C2B",
"u  c #2A1721",
"i  c #2E1A22",
"p  c #371623",
"a  c #341D23",
"s  c #351C29",
"d  c #391F2C",
"f  c #211F30",
"g  c #1F2227",
"h  c #2F2022",
"j  c #23252D",
"k  c #28262B",
"l  c #25292E",
"z  c #342624",
"x  c #3B2222",
"c  c #362925",
"v  c #392C26",
"b  c #3C202E",
"n  c #3A2C29",
"m  c #3F3026",
"M  c #3D302A",
"N  c #252534",
"B  c #272933",
"V  c #282D33",
"C  c #272738",
"Z  c #282738",
"A  c #292A39",
"S  c #2B3037",
"D  c #2E323C",
"F  c #31353F",
"G  c #41281E",
"H  c #43341C",
"J  c #432727",
"K  c #4D2E24",
"L  c #462828",
"P  c #4D2C2C",
"I  c #44322D",
"U  c #513224",
"Y  c #5F3A2A",
"T  c #4C3A33",
"R  c #523131",
"E  c #5C3730",
"W  c #663D32",
"Q  c #643A39",
"!  c #554139",
"~  c #59463C",
"^  c #5C483E",
"/  c #6C432D",
"(  c #714F2B",
")  c #754931",
"_  c #77473C",
"`  c #313640",
"'  c #333941",
"]  c #6F574B",
"[  c #75554E",
"{  c #72594D",
"}  c #815E35",
"|  c #856831",
" . c #8F645D",
".. c #A97F74",
"X. c #BE9586",
"o. c #D3A494",
/* pixels */
"                                                                                                    ",
"                                                                                                    ",
"                                        X                                                           ",
"                                      & , , % o                                                     ",
"                                    , w w w 0 7 &                                                   ",
"                                  o 7 0 0 3 0 0 7 &                                                 ",
"                                    o = > > , < % o                                                 ",
"                                        # > < o a ,                                                 ",
"                                        , 0 > R  .c                                                 ",
"                                      O 3 < , ..o.n                                                 ",
"                                    % , 0 < , [ X.0                                                 ",
"                                  , 0 3 > > 7 R I o                                                 ",
"                                  , 7 > # O # H | w o                                               ",
"                                    * = 3 # * ( ( 0 #                                               ",
"                                    . & 2 # > % V j #                                               ",
"                                    o , 2 # > > V g #                                               ",
"                                    # 3 : o 2 > t g #                                               ",
"                                    & 3 : # : > < < #                                               ",
"                                    , 2 # 2 > > : ; O                                               ",
"                                  o 7 > # 3 7 > < O , #                                             ",
"                                  # 3 < # 2 0 , : O > ,                                             ",
"                                  , 3 > # 2 2 0 > + > 0 &                                           ",
"                                  , 3 : > 2 2 2 > O > 0 7 %                                         ",
"                                o 7 2 * o > > > > @ > 3 0 0 o O                                     ",
"                                # 0 2 # + 8 , = = # o 2 < 3 , i s =                                 ",
"                                & 3 2 : % , 8 8 8 =   : 2 2 * i d u                                 ",
"                                , 3 < & 0 0 , , = o     > 2 # + 8 ,                                 ",
"                                , 2 , % 0 0 0 3 2 *       # o - L                                   ",
"                              # < 2 : # 0 0 2 2 > * #           P                                   ",
"                              . @ o # & 0 < < > : y <           J e                                 ",
"                                  % a > 2 > * < N D l           J J                                 ",
"                                . 8 d = : * y Z ` ' V           U W                                 ",
"                                > 0 b % < f C ` ` ' ` <           )                                 ",
"                              , w , - o y C ` ` ` ' ' 2           / U                               ",
"                              7 i 2 * . y C ' ' ' ' ' g           U _                               ",
"                            & 0 3 > * * y N A ` ` S 2 +           e Q                               ",
"                            , 0 < * > * * * * * ; ; < f 2           Y                               ",
"                            0 3 = ; t + * < t * + ; B ` t           / U                             ",
"                          # 7 < * ; ; * + N N * : * t D 2           G K                             ",
"                          , 2 > ; ; ; < ; ; t ; < O * < #           q J                             ",
"                          , < * * O . T T $ * ; > . , 9 $           x J                             ",
"                          # 2 o O     w ^ 0 * ; ; . = ! c             J                             ",
"                          * > @       v { , * t ; . T { M             L 6                           ",
"                          # :       + q L   + < ;   z ^ w             J 6                           ",
"                            o       . 5 $     * *   c ~ 0             J 6                           ",
"                            .       w z       #       i -             E 6                           ",
"                                    T z               s u           r _                             ",
"                                  % a -               - c 0         a P                             ",
"                                    4 p 4             0 ~ n =         6                             ",
"                                      - 9 $           7 a d d -       .                             "
};
