/* XPM */
static char *__removebg_preview_resized[] = {
/* columns rows colors chars-per-pixel */
"50 50 149 2 ",
"   c None",
".  c #020102",
"X  c #080605",
"o  c #0A0807",
"O  c #070709",
"+  c #0C0B0B",
"@  c #110E0D",
"#  c #141414",
"$  c #191716",
"%  c #1B1916",
"&  c #171719",
"*  c #181718",
"=  c #1C1C1B",
"-  c #201F1F",
";  c #3C1D17",
":  c #22211D",
">  c #28271E",
",  c #1E1E20",
"<  c #1F2120",
"1  c #232323",
"2  c #292620",
"3  c #2D2C25",
"4  c #262728",
"5  c #2B2C2C",
"6  c #302E24",
"7  c #343329",
"8  c #3C392D",
"9  c #2E2F30",
"0  c #2F3030",
"q  c #333334",
"w  c #373837",
"e  c #363739",
"r  c #37383A",
"t  c #3C3C3C",
"y  c #3D3B30",
"u  c #6C261D",
"i  c #772A1F",
"p  c #403F32",
"a  c #40403F",
"s  c #4E4B3C",
"d  c #514A3C",
"f  c #3E3F40",
"g  c #403F40",
"h  c #3F4042",
"j  c #414142",
"k  c #464748",
"l  c #4B4B4C",
"z  c #555140",
"x  c #5B5243",
"c  c #5A5845",
"v  c #5F5749",
"b  c #4E4F50",
"n  c #525355",
"m  c #565759",
"M  c #57585A",
"N  c #58595B",
"B  c #615B4B",
"V  c #615646",
"C  c #63614C",
"Z  c #6C614E",
"A  c #676550",
"S  c #6B6350",
"D  c #726E56",
"F  c #736753",
"G  c #76725B",
"H  c #78745C",
"J  c #626364",
"K  c #656769",
"L  c #67686A",
"P  c #6B6B6C",
"I  c #6D6E71",
"U  c #6F7073",
"Y  c #757575",
"T  c #767778",
"R  c #77797A",
"E  c #7B7C7D",
"W  c #8C3025",
"Q  c #873529",
"!  c #88372B",
"~  c #9D3427",
"^  c #9D3529",
"/  c #9C392C",
"(  c #92372A",
")  c #9F3E30",
"_  c #A0372B",
"`  c #A2392D",
"'  c #A53C31",
"]  c #A83F33",
"[  c #994132",
"{  c #AC4439",
"}  c #AD483C",
"|  c #B14B3F",
" . c #B24D42",
".. c #B65146",
"X. c #BB584E",
"o. c #BE5C52",
"O. c #9B604B",
"+. c #84745D",
"@. c #C26056",
"#. c #C6675D",
"$. c #C8685E",
"%. c #CF7268",
"&. c #D5786E",
"*. c #D1746B",
"=. c #D57A70",
"-. c #8E8B6D",
";. c #9A8A6E",
":. c #918E70",
">. c #959071",
",. c #A39B7A",
"<. c #A8A37F",
"1. c #B3A07F",
"2. c #DC8379",
"3. c #E0877E",
"4. c #7F8082",
"5. c #848587",
"6. c #858688",
"7. c #949495",
"8. c #9D9D9E",
"9. c #ABA782",
"0. c #AEA983",
"q. c #B4A180",
"w. c #B6B289",
"e. c #B9B48B",
"r. c #ACACAC",
"t. c #BBBCBD",
"y. c #E58E85",
"u. c #C3BE93",
"i. c #CFB992",
"p. c #D4BD95",
"a. c #CDC79A",
"s. c #C8C396",
"d. c #DEC69D",
"f. c #D5CF9E",
"g. c #E3CB9F",
"h. c #D7D2A1",
"j. c #E4CCA1",
"k. c #E3DCA9",
"l. c #ECE6AF",
"z. c #EFE8B1",
"x. c #ECE5B0",
"c. c #F2EBB3",
"v. c #C6C6C6",
"b. c #D3D3D3",
"n. c #DEDEDE",
"m. c #E4E4E5",
"M. c #EFEFEF",
"N. c #FDFDFD",
"B. c #F3F3F3",
/* pixels */
"                                                                                                    ",
"                                                                                                    ",
"                                                                                                    ",
"                                                                                                    ",
"                                                                                                    ",
"                                                                                                    ",
"                                                                                                    ",
"                                                                                                    ",
"                                                                                                    ",
"                                                                                                    ",
"          / /     /                                                                                 ",
"          / ~   / ^                                                                                 ",
"            ` _ ` ' Q u i O.,.-.D d                                                                 ",
"      ^ ^ ^ { o.@.} / ~ ! +.C z S :.H y     .                                                       ",
"        ^  .$.y.y.%...W ;         > A 7 . . . . o                                                   ",
"        / { =.y.y.2...^ (           . . . . . . o o $ - = % #                                       ",
"    / ^ _ ..&.y.y.2.X.` ~ /         . o * 4 4 9 e q m R I t 5 - $                                   ",
"    ) ^ ~ ^ @.%.=.#.' ^           o & q g j p j j j r.M.b.m M N q 4 &                               ",
"          ^ ' {  .` ` /         @ + 5 j g j g g k b J T P N t.B.r.l = &                             ",
"        / ^ / / / / ^ ^       o * = t j g j j b M N m m N n P n.N.m.Y * +                           ",
"        /     / ~       [   o @ 4 4 f g g j n N N M m M N M k J b.N.N.7.# X                         ",
"                /           o 1 q w f g g n N m n b f r j m N n J v.N.N.7.+ o                       ",
"                          $ - q t g g f l M N M n f r j f r l N m J 8.m.N.K .                       ",
"                          = w w p j j b m M N N M M b g g l j b N m m M Y L & O                     ",
"                        o = a t t k n M N N N M M N N N n n M n M N N m 5 O < +                     ",
"                        . 1 j j h k M M N N M M N N N N N N N M N N N N m 4 + +                     ",
"                        . = j j j j n M M N M M N N N M N M M N M N M M M n & . o                   ",
"                      o . & w j a j k n N N M M N M N N N N N N M M M b m M j O o                   ",
"                      . . o 4 t t j j j b M m b N N N N N N M N N N M 5 5 l n 4 .                   ",
"                      . . X $ w q w j a k m b 4 9 n N N N N N N M N m # . + # 5 +                   ",
"                      . . . X q 4 w j t k M 5 . . # , r m N N M M M h X 8 >.D = O                   ",
"                      X . . . 4 4 5 j j l h + 2 v c # . 1 n N N M M = % s.c.c.d .                   ",
"                        . . . & - 1 h j k # 6 e.c.z.w.6 . 9 M N N l + G c.c.k.8 .                   ",
"                        . . . X * # t l h # 6 f.z.z.c.e.> O k N N e = s.c.c.a.$ o                   ",
"                        X . . . O X 5 k n 4 : h.c.z.c.c.0.% # g q O c l.c.c.9.o                     ",
"                          . . . . . * f k t $ e.c.c.c.c.x.H . O @ < 3 C <.w.s o                     ",
"                          X . . . . . 0 j j $ a s.h.a.<.s > 0 h b M 0 + @ + .                       ",
"                            . . . . . o 9 p t * = 8 = @ - k n n k 4 - 5 + . o                       ",
"                            X . . . . . . & q w q 5 0 w j j w - # & * . . o                         ",
"                              X . . . . . . . @ - 5 0 q 5 * O . O . . . .                           ",
"                                o . . . . . . o + # # + . . . . . . . X                             ",
"                                  o . . . * 0 w t t t q * . . . . . X                               ",
"                                      X = w j j j j a j g 4 X . . o                                 ",
"                                      @ 4 w j j 7 4 1 4 4 - = * o                                   ",
"                                    d + 1 h h q 4 N L K J J R N 1 1                                 ",
"                        j.j.j.j.j.j.;.o 1 q 5 , r E 5.5.5.5.L 5 X 2 i.j.j.j.j.j.j.                  ",
"                  j.j.g.g.j.g.g.g.g.p.V $ + o O + m U I L b < . + F g.g.g.g.g.g.j.g.j.j.            ",
"                j.g.g.g.g.g.g.g.g.g.j.d.q.+.Z x s x v v x x S +.1.d.g.g.g.g.g.g.g.g.g.g.j.          ",
"                    j.j.j.j.j.j.j.g.g.g.j.j.j.j.g.g.g.g.g.g.j.j.j.g.g.g.g.j.j.j.j.j.j.              ",
"                                j.g.j.j.j.j.j.j.g.g.g.g.j.g.j.j.j.j.j.j.j.j.                        "
};
