/* XPM */
static char *__resized[] = {
/* columns rows colors chars-per-pixel */
"50 50 78 1 ",
"  c None",
". c #040405",
"X c #090606",
"o c #06070A",
"O c #08070B",
"+ c #0C0B0C",
"@ c #11070B",
"# c #120D0C",
"$ c #190E0E",
"% c #15110F",
"& c #1B100E",
"* c #0E0D11",
"= c #140E12",
"- c #1A0C12",
"; c #0F1012",
": c #131314",
"> c #1A1413",
", c #1E1815",
"< c #15151A",
"1 c #19161B",
"2 c #17181A",
"3 c #1B191B",
"4 c #220E15",
"5 c #231414",
"6 c #201916",
"7 c #2D1A17",
"8 c #23131A",
"9 c #29141C",
"0 c #241D1A",
"q c #2A1C1C",
"w c #361F1D",
"e c #2E2417",
"r c #29201C",
"t c #37201C",
"y c #3B221E",
"u c #181722",
"i c #1A1825",
"p c #1C1C29",
"a c #2B1721",
"s c #2D1A22",
"d c #3B1625",
"f c #311B26",
"g c #341C28",
"h c #2E2121",
"j c #20222F",
"k c #322721",
"l c #3C2421",
"z c #3A2E27",
"x c #3E222F",
"c c #222431",
"v c #27273A",
"b c #462C1B",
"n c #48391D",
"m c #422721",
"M c #4F2F26",
"N c #4C3721",
"B c #42322C",
"V c #5A3824",
"C c #58332D",
"Z c #522E30",
"A c #4B3A33",
"S c #533C36",
"D c #633E25",
"F c #633C29",
"G c #643B30",
"H c #55433B",
"J c #59463C",
"K c #674027",
"L c #734533",
"P c #604741",
"I c #6D554A",
"U c #7B5A54",
"Y c #7B6152",
"T c #816530",
"R c #976D3B",
"E c #8E5F5A",
"W c #BD998A",
"Q c #E6B4A3",
/* pixels */
"                                                  ",
"                                                  ",
"                     .                            ",
"                    >,,%X                         ",
"                   >0rrq0%                        ",
"                   ,003000>                       ",
"                   X#3:>1#+                       ",
"                    X++2+qq                       ",
"                     :3:lEP                       ",
"                    .,3+UQI                       ",
"                   +%63:SWH                       ",
"                  #00<;:ZB5                       ",
"                  #03+XoeYnO                      ",
"                   O+,+*nRr+                      ",
"                    %2;:&6p+                      ",
"                    %3+::3c*                      ",
"                    ,3*+<<i*                      ",
"                   +3:*=:;<+                      ",
"                   #0:*3;:;+                      ",
"                   %3:+3>;+.                      ",
"                   63:;20>O                       ",
"                   ,3*:23,+X                      ",
"                  %02+<221+#%+                    ",
"                  %02++<:<**06#.                  ",
"                  ,02+8-==#;23>aa-                ",
"                  01:#>,88-;22*-8a                ",
"                 %33:2r>>*+o:2:.5q                ",
"                 =22=>rr32;.o;+ y                 ",
"                 +22;>rr32O     l                 ",
"                 .+O+&r02::     V                 ",
"                 >6>s2a02:<     D                 ",
"                %r08f>r32*i     K                 ",
"                ,r&kg202*<p     Fy                ",
"               #r0%9f>3=opc     7l                ",
"               >r00,-02+<vc     wC                ",
"               >rq0r>%+Xuvc     bL@               ",
"            ++.++@++******;     bL#               ",
"           X22:::::2<O*uuo       b$               ",
"            ;2232<<*..<ji        w>               ",
"            +:22<*o  <=:*        t$               ",
"             O**.    A98X        w&               ",
"                    AIqJh        y&               ",
"                    9SJIk        y&               ",
"                   X5-zJ0        w&               ",
"                   BJ#BH>        w%               ",
"                   B8@,s=        M$               ",
"                   4d4@a+       tG                ",
"                   @99@JA       7m                ",
"                     -qYA>      $5                ",
"                      #hfx8     .                 "
};
