/* XPM */
static char *__resized[] = {
/* columns rows colors chars-per-pixel */
"50 50 101 2 ",
"   c None",
".  c #040304",
"X  c #090706",
"o  c #0A0807",
"O  c #070609",
"+  c #0B060A",
"@  c #070808",
"#  c #0B0B0C",
"$  c #130C0D",
"%  c #190E0D",
"&  c #15110F",
"*  c #1B100E",
"=  c #0D0D13",
"-  c #130E13",
";  c #1C0E14",
":  c #110F18",
">  c #0F1014",
",  c #131214",
"<  c #1B1513",
"1  c #1F1815",
"2  c #15151B",
"3  c #1A161B",
"4  c #17181A",
"5  c #1C191C",
"6  c #220C15",
"7  c #221414",
"8  c #281715",
"9  c #211A16",
"0  c #2D1A16",
"q  c #23141B",
"w  c #2A141D",
"e  c #251E1B",
"r  c #281F1B",
"t  c #341E1C",
"y  c #29201C",
"u  c #3D241C",
"i  c #33281D",
"p  c #161621",
"a  c #191723",
"s  c #161821",
"d  c #1B1925",
"f  c #1D1E2C",
"g  c #291620",
"h  c #2C1922",
"j  c #311B25",
"k  c #351D29",
"l  c #342623",
"z  c #3B2126",
"x  c #352A24",
"c  c #3A2E27",
"v  c #3B202D",
"b  c #3E2D2B",
"n  c #3C3023",
"m  c #222333",
"M  c #252937",
"N  c #272739",
"B  c #262939",
"V  c #292D3D",
"C  c #3F2231",
"Z  c #472C1E",
"A  c #492D1D",
"S  c #4F311D",
"D  c #442723",
"F  c #462825",
"G  c #4A2B26",
"H  c #4E2D28",
"J  c #533420",
"K  c #583623",
"L  c #50302F",
"P  c #5A352C",
"I  c #432434",
"U  c #473730",
"Y  c #4D3B35",
"T  c #583233",
"R  c #503B37",
"E  c #603C24",
"W  c #643B2F",
"Q  c #693F31",
"!  c #544139",
"~  c #5B453D",
"^  c #72482B",
"/  c #735A29",
"(  c #7D4D32",
")  c #634D43",
"_  c #6F4F49",
"`  c #655044",
"'  c #6A5447",
"]  c #6C5448",
"[  c #7D5C55",
"{  c #7D6254",
"}  c #825034",
"|  c #826330",
" . c #A6723E",
".. c #836658",
"X. c #84685F",
"o. c #886A5B",
"O. c #91615C",
"+. c #917163",
"@. c #B18379",
"#. c #CFA696",
"$. c #F5BEAC",
/* pixels */
"                                                                                                    ",
"                                                                                                    ",
"                                . . .                                                               ",
"                            o & 1 < 1 < # o                                                         ",
"                          % 9 r y y y y e 9 & o                                                     ",
"                          # < e e e 5 5 e e e < #                                                   ",
"                              # , 3 2 > - , , $                                                     ",
"                                . # # - > . j z                                                     ",
"                                # , e 2 , L O.{                                                     ",
"                              . # e 5 > 7 @.$.+.                                                    ",
"                            # , < 5 4 > 7 _ #.X..                                                   ",
"                          o 9 y 3 , , = u T n i .                                                   ",
"                          X < 3 = $ @ . $ u / / # o                                                 ",
"                              o < r # @ $ ^  .U = #                                                 ",
"                              . 1 y $ . , < 5 m , = .                                               ",
"                              . 1 y < o 4 = , V 4 # .                                               ",
"                              . , y y @ # 4 > s > $ .                                               ",
"                              . , y e # # > , > > > .                                               ",
"                              . , 5 e # , # , # O @                                                 ",
"                              . , 5 e # , , # > .                                                   ",
"                              . , 3 5 : # 4 = > o                                                   ",
"                              . , 5 5 , o 3 > # o                                                   ",
"                              . , 3 e : # 4 4 > O o                                                 ",
"                              . , 4 5 , # 2 , 4 o 1 < o . +                                         ",
"                              . , 4 5 5 X $ - - o 4 e = h j < -                                     ",
"                              . , 5 2 r % $ q q + , 4 o q q g h                                     ",
"                              . , 4 4 5 , $ = > O 2 4 # . % j 6                                     ",
"                            o o , 4 4 3 $ & 3 4 # # > @   t t                                       ",
"                          o < & o # # , = = 4 , . .       u t                                       ",
"                        # < y 1 1 1 1 # # O , = .         K A                                       ",
"                      o 1 y y y y y y $ v ; # a p         E S                                       ",
"                      # y y e y y y < - C ; p N M #       E K                                       ",
"                    $ 9 y y e y r 5 = h I ; f V B #       J ^ %                                     ",
"                  . 1 y y e y e 5 4 , q I 2 f V B =         D ;                                     ",
"                  & e y y e e 5 4 , = p ; p B V m #         P H                                     ",
"                o 1 y e e y e , 2 = f m m N V m = .         } W .                                   ",
"                $ e e y y e 5 4 : # = = = : : = : O         ( P                                     ",
"              . 1 y y e y 5 4 4 O : O = 2 p , + f =         0 F                                     ",
"              X 9 y e y r 2 4 - = : + + , m p : 2           ; D                                     ",
"              < y y y y 5 4 4 o : = ; q g 2 $ 2 =           * D                                     ",
"            . < y y e e 3 4 > # : e [ ` b ; l 6             * D                                     ",
"              < y y e e 4 4 # = : 9 ! ] ) ! ..,             * D                                     ",
"              # 9 y y 5 2 , # 2 : 8 o.o.9 ~ Y               * D                                     ",
"                < y e 2 4 , O p : $ R R w ;                 % D                                     ",
"                o e r 2 4 # # O = k h $ 6 +                 % D                                     ",
"                  , 2 4 4 O     $ C q q r                   Z H +                                   ",
"                    = , 4 O     g k 7 ` +.x                 W P                                     ",
"                      o . .   . w Y ] c y 7                 G 0                                     ",
"                              o U Y h < ; 6 ; $             8                                       ",
"                              o l k I I k h 6 +             .                                       "
};
