/* XPM */
static char *__resized[] = {
/* columns rows colors chars-per-pixel */
"50 50 94 2 ",
"   c None",
".  c #040404",
"X  c #080606",
"o  c #0A0807",
"O  c #070709",
"+  c #0B0709",
"@  c #07080B",
"#  c #0B0A0C",
"$  c #130C0D",
"%  c #180D0D",
"&  c #15110F",
"*  c #1B100E",
"=  c #0D0D13",
"-  c #0F0E18",
";  c #130D13",
":  c #1B0C12",
">  c #100F19",
",  c #0F1011",
"<  c #131314",
"1  c #1B1313",
"2  c #1E1815",
"3  c #15141B",
"4  c #1A161B",
"5  c #171819",
"6  c #1A191B",
"7  c #20170E",
"8  c #261E0F",
"9  c #230E16",
"0  c #270E18",
"q  c #221514",
"w  c #211A17",
"e  c #24131B",
"r  c #2A141D",
"t  c #251D1B",
"y  c #291E1B",
"u  c #32121F",
"i  c #321D1D",
"p  c #29201C",
"a  c #32201D",
"s  c #171622",
"d  c #161821",
"f  c #181A24",
"g  c #1B1E29",
"h  c #2F1924",
"j  c #341521",
"k  c #321C26",
"l  c #371E2A",
"z  c #391F2B",
"x  c #1F222F",
"c  c #232526",
"v  c #302622",
"b  c #382525",
"n  c #3C202E",
"m  c #3C2E29",
"M  c #222633",
"N  c #262A33",
"B  c #282D35",
"V  c #262A3A",
"C  c #292D3D",
"Z  c #3E2130",
"A  c #2D333A",
"S  c #4C2A2D",
"D  c #522F2B",
"F  c #45332E",
"G  c #4F302E",
"H  c #483929",
"J  c #55312C",
"K  c #432534",
"L  c #4F2C33",
"P  c #473530",
"I  c #4C3B33",
"U  c #5C3B39",
"Y  c #643B3B",
"T  c #594423",
"R  c #564228",
"E  c #564339",
"W  c #59463C",
"Q  c #7A602D",
"!  c #2B2F40",
"~  c #5F4940",
"^  c #614C41",
"/  c #6C5549",
"(  c #7A5C54",
")  c #A06F3D",
"_  c #A27E3A",
"`  c #895955",
"'  c #836758",
"]  c #B07B43",
"[  c #AB7C72",
"{  c #BD978A",
"}  c #CCA090",
"|  c #D5A395",
" . c #D5AA9A",
".. c #F4BCAB",
/* pixels */
"                                                                                                    ",
"                                                                                                    ",
"                            . .                                                                     ",
"                    o X # 1 2 2 1 # o o                                                             ",
"                  X 2 y t p p p p y t w % $                                                         ",
"                  X w y t t t 6 6 t y f t w 1 .                                                     ",
"                    o # # < 3 < , # 5 < ; $ o                                                       ",
"                          . # $ = < # . r L %                                                       ",
"                          O 1 t 4 < w Y ` [ v                                                       ",
"                        . 1 t s < o U | ..} v                                                       ",
"                  . & 1 < 6 5 5 < $ G (  .{ p                                                       ",
"                  X t t 4 < < < , ; Y S m H # .                                                     ",
"                  . 4 5 # . # $ X , & T Q _ 8 , X                                                   ",
"                    O . . 1 p t o # 7 ) ] R c # # .                                                 ",
"                      . . 6 p w X < 6 * 2 B A # , O                                                 ",
"                      . . 3 t y & # 5 < @ A A # , X                                                 ",
"                      . . , 5 p p . X 5 , 3 B # , .                                                 ",
"                      . . 3 3 h 2 X O , < # N # .                                                   ",
"                      . . 3 3 t w X , O , < , .                                                     ",
"                      . O , 5 6 t , , , # , O .                                                     ",
"                        . . < s p 2 . 5 < O , O                                                     ",
"                        . . < 3 p w o < < O = .                                                     ",
"                        . . < 5 3 t 2 o < 3 # .                                                     ",
"                        . . # 5 3 p p < # 3 , .                                                     ",
"                          . . < s t y t + X $ . ; :                                                 ",
"                        & # . < 5 4 t y q X ; X 1 e e e                                             ",
"                      . w w o < 5 3 4 t y & . . + 4 r k $                                           ",
"                      & y p 2 o < 5 5 < 1 1 ; + < % i %                                             ",
"                    X w p p w + < 5 # # + Z n + # # .                                               ",
"                    # t p p y 2 # # < , ; Z n + @ < .                                               ",
"                  X 2 p y p p t < 5 < # l K n # x O .                                               ",
"                  # w p t y y d 3 5 < # 1 n k = x x . .                                             ",
"                o 2 p t p p 6 4 5 < # x M 3 3 M C V - .                                             ",
"                X w p p p w 5 5 < = s V C V C C C C M O                                             ",
"                # w p p t t 3 5 > = M ! V g V C V ! M #                                             ",
"              X w p p p t 3 5 < @ x ! ! V s g C V g f 3                                             ",
"              o 2 p y y 4 3 6 < O x V M s = O = > = 3 M @                                           ",
"            X w p p y y 4 3 5 . O @ @ = O - - O @ = 3 d O                                           ",
"            . q p p t 4 5 6 < . = - O - 3 3 3 = ; : ; . .                                           ",
"            # t p p y 3 5 5 < ; r @ - > 3 s - + q : e X .                                           ",
"          . 2 p t t 6 4 5 < O e h = > s > s ; q ' W E i X                                           ",
"          . t p p t 3 5 6 < < I ; > > > s > 4 W ^ I q D *                                           ",
"          o w p p 6 4 5 5 , o w > > 3 3 > - $ I / W q D %                                           ",
"          . t p t 3 5 5 < . . - s > s 3 s > ; F i # % D 7                                           ",
"          X 2 t t 3 5 5 < . = < > < > 3 4 > X 0 j X % D 7                                           ",
"            O 5 5 5 5 5 5 . . . . . O = > > + u 0 X % D %                                           ",
"              # 3 5 6 5 =                 O . y ~ W 1 q X                                           ",
"                . O # = .                   * W F b u u % $                                         ",
"                  $ m $ . 1 1 +             . # : : 9 9 9 : .                                       ",
"                  & m b h K K h h +               . .                                               "
};
