/* XPM */
static char *__resized[] = {
/* columns rows colors chars-per-pixel */
"50 50 99 2 ",
"   c None",
".  c #040404",
"X  c #0A0606",
"o  c #0B0807",
"O  c #070609",
"+  c #0A070A",
"@  c #070808",
"#  c #0B0B0B",
"$  c #15070D",
"%  c #120D0D",
"&  c #1A0F0C",
"*  c #15110E",
"=  c #1F110F",
"-  c #0D0D13",
";  c #130E13",
":  c #1C0D13",
">  c #110F18",
",  c #0F1011",
"<  c #131314",
"1  c #1B1413",
"2  c #1E1815",
"3  c #15141B",
"4  c #1A171B",
"5  c #171819",
"6  c #1C191C",
"7  c #220C15",
"8  c #231614",
"9  c #211A16",
"0  c #2B1A14",
"q  c #22131B",
"w  c #2C131B",
"e  c #261E1B",
"r  c #281F1B",
"t  c #341D1F",
"y  c #29201C",
"u  c #392415",
"i  c #3B221F",
"p  c #161521",
"a  c #181623",
"s  c #171922",
"d  c #191A25",
"f  c #1D1C2A",
"g  c #2B1721",
"h  c #2D1923",
"j  c #361522",
"k  c #3B1725",
"l  c #321F21",
"z  c #341C28",
"x  c #211F30",
"c  c #1E202E",
"v  c #21232F",
"b  c #3F2524",
"n  c #382C26",
"m  c #3B2D28",
"M  c #242334",
"N  c #252837",
"B  c #262638",
"V  c #27293A",
"C  c #282C3C",
"Z  c #3F2231",
"A  c #422919",
"S  c #442623",
"D  c #412827",
"F  c #412E2C",
"G  c #48282F",
"H  c #423425",
"J  c #4A3925",
"K  c #40322B",
"L  c #583721",
"P  c #503D20",
"I  c #5D382B",
"U  c #422433",
"Y  c #522E30",
"T  c #543131",
"R  c #523F37",
"E  c #5D3937",
"W  c #643F26",
"Q  c #60392B",
"!  c #56433A",
"~  c #5C483E",
"^  c #7A4C2E",
"/  c #7E622E",
"(  c #624C42",
")  c #685146",
"_  c #6D5449",
"`  c #75574F",
"'  c #70584C",
"]  c #7B6053",
"[  c #906436",
"{  c #937335",
"}  c #8C5C58",
"|  c #8C6E5F",
" . c #AE7A42",
".. c #9B7167",
"X. c #AA877B",
"o. c #B89081",
"O. c #C8978A",
"+. c #D4A999",
"@. c #F6BEAC",
/* pixels */
"                                                                                                    ",
"                                                                                                    ",
"                        .   .                                                                       ",
"                    # 1 2 1 1 2 % o o                                                               ",
"                  % e y y e y e y e 9 < #                                                           ",
"                  % e e e e 6 e e e 6 e e %                                                         ",
"                    @ < p 3 < # 1 6 < 1 % X                                                         ",
"                      O # % ; 1 5 - . w G X                                                         ",
"                      @ ; 2 e 6 < 1 E } ..1                                                         ",
"                    . # < 6 a 5 @ D O.@.X.1                                                         ",
"                    < * 1 4 3 5 # D ` +.X.1                                                         ",
"                . 1 e e 5 , < < # T T m H o .                                                       ",
"                  * 4 3 # % X . # % P / { % # .                                                     ",
"                    @ # 2 y * . - * [  .J 5 # #                                                     ",
"                      o e y < . , 5 = 1 x d # #                                                     ",
"                      @ e y 9 o , 5 < O N N # #                                                     ",
"                      O 5 y y % . , 5 , > d O @                                                     ",
"                      O 3 e y * # , , < - a . .                                                     ",
"                      . 3 5 y % , 3 O < < # .                                                       ",
"                      X 3 6 r < # 3 1 , # . .                                                       ",
"                      . 5 5 q 3 O , 6 5 @ ; .                                                       ",
"                      @ 3 6 6 3 # , s 2 # # . #                                                     ",
"                      @ 3 6 e 3 O , 5 5 5 @ % e 1 % .                                               ",
"                      @ 3 p e e # , 5 < 3 # @ 6 e e # q h q #                                       ",
"                      @ 3 6 e y < . ; ; ; % O 5 3 5 + g z 1 h q                                     ",
"                      . 5 3 6 e r + : 6 q < O 5 5 3 . . + w z 1                                     ",
"                      o 5 5 3 e r o # , ; # O # 5 5 .   = i 0                                       ",
"                      . 5 5 3 5 r # - 6 < - 3 . . . . & Q 8                                         ",
"                      . @ # # < 2 X - 4 , - x >       W L                                           ",
"                    X 2 9 2 2 % % % + < , ; V d     u ^ 0                                           ",
"                    X e y y y % q U # - # x V s   & ^ A                                             ",
"                    @ 9 y y e % g U ; # - M C d   X Q 0                                             ",
"                  . 1 y y y * q U U % + f B C C 3 1 S &                                             ",
"                  . 9 y r y 1 1 z Z # O x B C C 3 S 0                                               ",
"                  # 9 y e y y 1 - ; # - x B V V B 6                                                 ",
"                . 1 y y y e y 6 3 < # f B x B B M -                                                 ",
"                . 1 y y e e y 6 3 5 . f x x f > - O                                                 ",
"                o 9 y e y e e 6 3 5 . + + + - > p c -                                               ",
"              . 1 y e y e r y 6 3 5 O > - - > > c C -                                               ",
"              . 1 y y e r e e 6 3 3 O > > O - % ; -                                                 ",
"              o 2 y e y e e 2 3 5 < # > 3 - ; w 7 X                                                 ",
"              < y y e y y y 2 3 5 @ - p p - % m ' y                                                 ",
"            . * y y y e r y 6 3 5 @ > 3 p + m ] ' n                                                 ",
"              1 y y e y y y 6 5 3 O - p > - h ) ~ e                                                 ",
"              # 1 e y y e y 6 3 5 @ ; 3 > - r ) R 1                                                 ",
"                . 1 e 9 e 6 4 4 5 @ - p p 3 3 8 w $                                                 ",
"                    # 3 3 5 3 5 3 @ - p > p - $ w +                                                 ",
"                    . % < < < 6 3 O . + > > + 1 ' ~                                                 ",
"                    + w q 1 : - # .       . . ! | ( l : X                                           ",
"                        - : q g # .           9 l 7 j k w 7                                         "
};
