/* XPM */
static char *d6dkea2_482fe7a3_f5b0_4f14_81a1_9c7dead570a3_3__dragged__resized[] = {
/* columns rows colors chars-per-pixel */
"50 50 33 1 ",
"  c None",
". c black",
"X c #051718",
"o c #211D19",
"O c #2D2118",
"+ c #2B3734",
"@ c #4E3B25",
"# c #493A2A",
"$ c #664328",
"% c #744E26",
"& c #3B4A40",
"* c #435E42",
"= c #705C4B",
"- c #876033",
"; c #BC6439",
": c #CA7830",
"> c #9A7A4D",
", c #9A7B4E",
"< c #BB7E57",
"1 c #5F8263",
"2 c #EF882D",
"3 c #948872",
"4 c #948973",
"5 c #F0B659",
"6 c #CF9F6F",
"7 c #2236C4",
"8 c #2A86F8",
"9 c #6ABFFA",
"0 c #B2AA99",
"q c #E2C18E",
"w c #C5C5C5",
"e c #F7E0C9",
"r c gray99",
/* pixels */
"                                                  ",
"                     :%                           ",
"                   %:5%:5:                        ",
"                  :5:5:5%:::%                     ",
"                 %:5:::%:5:%%                     ",
"                 O%::%%:5:%5:%                    ",
"                 O6<%5:O:%5::%                    ",
"                 @q66%5O%:::%%                    ",
"                @@Oq6%5%;%%OO%@=@                 ",
"               +=@wOq6%%;%O;;@404=@               ",
"               +=%r86<OOO%:q6@=4=4=@              ",
"              +*=%69q687w%:q6O40==03@             ",
"              2++%6qqq98r;:6O==03044=             ",
"              X++O:6qqq6;:OO%=44=+++4@            ",
"              X-+O5<666;5%:%%==++&2e++            ",
"              XX-XO5<<<5%O5:%++&*1;2&&X           ",
"              X-XO:%555%O%:%++&*21111*X           ",
"             @=X-O5%+:%O%:%%+++&+*11>>X           ",
"             @4qXX%+X:$+O5:+++++-->>+X            ",
"             @4=6O:%X5$XO:XX$---+++++X            ",
"              =4=OXXX5$X%5X+XX$+++11$X            ",
"              2+4%:%XXXXX:O&++X$$--$O             ",
"              ;*X5:%X+&X%:%&+XOXXXXX@             ",
"              X*X55%X;+X:5:OXX=@6q6=@             ",
"              O1+%5%X<;X55:O;X====44X@            ",
"              XOOO:o##6;X5O;;X+=4444X@            ",
"              X1*OXo###6X:O#X&&+O2eX@@...         ",
"       .&. ....1;;Xoo##&&O#ooO*&O;2...===.        ",
"       .1*.;;;2.6;Xooo&11&oX&oO**O.==444=.        ",
"       .&1*.&&2.66XXoo&11&X;&*oOOX=44==...        ",
"      .;.&2&**2=.XX<XXX&&o.<&****X==...           ",
"     .;&&;***2==. X66<;...=X;&111X..4=            ",
"     .2****223==+. X...====X66<;.=@=4=            ",
"     .=22223333=+...==444==.XXXX@@@=4=            ",
"      .=====333+&.@@@===...<;;;X  @=4@            ",
"      .=====33+;&.@@@...X O<XX<X  @==@            ",
"       .====++&**&...&X,o XX&&X&X @==@            ",
"       ...++&&&**&.=.,-,o X+&&+oX  @=@            ",
"          .&&&2e**&+=.*X   X+++,o  @=@            ",
"           .&&;2&&2+=.+X   X,,*,o  @@             ",
"           .&&&&&++=3.X    X11-*X                 ",
"          .@+&&++@=33.    X111**X                 ",
"          .=@++@@=333.    X+++**X                 ",
"           .=@@====3.     X++++X                  ",
"           .======..       XXXX                   ",
"            ..==..++                              ",
"              ..  .+                              ",
"                                                  ",
"                                                  ",
"                                                  "
};
