/* XPM */
static char *__removebg_preview__1__resized[] = {
/* columns rows colors chars-per-pixel */
"50 50 203 2 ",
"   c None",
".  c #BD0265",
"X  c #B40C66",
"o  c #B80C66",
"O  c #BF0468",
"+  c #B50D6A",
"@  c #BB0D6A",
"#  c #AD1166",
"$  c #AF1C68",
"%  c #A41866",
"&  c #B11168",
"*  c #BD136D",
"=  c #B21A6A",
"-  c #BE0E70",
";  c #BC1273",
":  c #B81D75",
">  c #C30566",
",  c #CC0166",
"<  c #C6056A",
"1  c #CC0269",
"2  c #C20B69",
"3  c #CA0A6E",
"4  c #C20C67",
"5  c #C50C71",
"6  c #CD0C76",
"7  c #D00C78",
"8  c #CD1574",
"9  c #CC117F",
"0  c #C9197A",
"q  c #C01972",
"w  c #D3147C",
"e  c #BC1C8C",
"r  c #BC2D8C",
"t  c #B8228A",
"y  c #AB3484",
"u  c #BB2D93",
"i  c #BD3693",
"p  c #E21C95",
"a  c #C7268A",
"s  c #D32385",
"d  c #D52789",
"f  c #CD368E",
"g  c #C72F98",
"h  c #C92D9A",
"j  c #C42F94",
"k  c #D72892",
"l  c #D02D9C",
"z  c #C23895",
"x  c #C43199",
"c  c #CB339E",
"v  c #C63798",
"b  c #D0319F",
"n  c #D43F9A",
"m  c #D43397",
"M  c #E5229E",
"N  c #D32DA2",
"B  c #DC2BAB",
"V  c #CC32A0",
"C  c #D233A4",
"Z  c #D432A8",
"A  c #DC32AC",
"S  c #D739A8",
"D  c #D939A6",
"F  c #E720A0",
"G  c #E925A5",
"H  c #EE28AD",
"J  c #E429AE",
"K  c #E234AE",
"L  c #E42DB1",
"P  c #ED2DB5",
"I  c #EB2EBA",
"U  c #F02EBD",
"Y  c #E431B4",
"T  c #E830B3",
"R  c #E338B4",
"E  c #E83FB0",
"W  c #E736B9",
"Q  c #ED33BC",
"!  c #EE3FBD",
"~  c #F132BD",
"^  c #F230B7",
"/  c #B64494",
"(  c #BF4E9C",
")  c #BE7AA7",
"_  c #C8469B",
"`  c #D24197",
"'  c #CD44A0",
"]  c #DC45A4",
"[  c #DE4BAC",
"{  c #D746A7",
"}  c #C95FAB",
"|  c #D655A9",
" . c #DD55AB",
".. c #DF58AF",
"X. c #D84DB5",
"o. c #DC58B4",
"O. c #E042A3",
"+. c #EE45B4",
"@. c #E749BE",
"#. c #EE4ABB",
"$. c #ED41BB",
"%. c #F144B4",
"&. c #F149B8",
"*. c #E459B4",
"=. c #E75EBC",
"-. c #EC5DBE",
";. c #E855BB",
":. c #F455BB",
">. c #C07AAF",
",. c #C56AB1",
"<. c #DE63B4",
"1. c #DA65BB",
"2. c #CB7BBB",
"3. c #D178BD",
"4. c #E265BB",
"5. c #F432C2",
"6. c #FA32C5",
"7. c #FE33CB",
"8. c #FB3ACA",
"9. c #FC3DD1",
"0. c #EE4BC4",
"q. c #F44DC5",
"w. c #F643C9",
"e. c #FC43CC",
"r. c #F947C9",
"t. c #EA59C2",
"y. c #ED56CB",
"u. c #E551C1",
"i. c #F657C3",
"p. c #F35AC1",
"a. c #FC5BCD",
"s. c #F65CCA",
"d. c #F94ED2",
"f. c #FA58D7",
"g. c #FB52D5",
"h. c #D578C4",
"j. c #EC6AC5",
"k. c #E06FC8",
"l. c #EA6BCD",
"z. c #E56DC5",
"x. c #F563C6",
"c. c #F863C7",
"v. c #F169C5",
"b. c #FD66CB",
"n. c #F169CB",
"m. c #FA6BCD",
"M. c #E97ECD",
"N. c #E478CB",
"B. c #EF68D7",
"V. c #F264D1",
"C. c #F966DC",
"Z. c #EA7BD4",
"A. c #E876D6",
"S. c #F477DB",
"D. c #F675D8",
"F. c #FA77E5",
"G. c #CD8DBC",
"H. c #CE8EC4",
"J. c #D386C3",
"K. c #D785CA",
"L. c #E48ED4",
"P. c #EE83DC",
"I. c #E58EDE",
"U. c #F484D8",
"Y. c #EB9BDD",
"T. c #E794D9",
"R. c #F095DC",
"E. c #DAB2D3",
"W. c #EAA2DF",
"Q. c #E6BADF",
"!. c #ED84E2",
"~. c #F282E3",
"^. c #F48AE6",
"/. c #ED9CE3",
"(. c #F291EC",
"). c #F49AEA",
"_. c #FE87F4",
"`. c #F98DF1",
"'. c #F793F3",
"]. c #FB93F4",
"[. c #F99BF5",
"{. c #FB96FA",
"}. c #FE9AFE",
"|. c #EDA7E5",
" X c #F6A6E7",
".X c #F6A2E9",
"XX c #F1ABEC",
"oX c #EEB1E8",
"OX c #F2BAEE",
"+X c #F9AEF4",
"@X c #FCA3FC",
"#X c #FCAEFD",
"$X c #F6BBF3",
"%X c #FCB7FC",
"&X c #FBBCFB",
"*X c #F2B6F0",
"=X c #EBCCE8",
"-X c #F7C1F6",
";X c #FCC3FC",
":X c #FDCCFD",
">X c #F8C3F6",
",X c #F6D0F5",
"<X c #FED0FF",
/* pixels */
"                                                                                                    ",
"                                                                                                    ",
"                                                                                                    ",
"                                                                                                    ",
"                                                                                                    ",
"                                                                                                    ",
"                                                                                                    ",
"                                                                                                    ",
"                                                                                                    ",
"                      2.J.J.J.H.                                                                    ",
"                    ,.$X:X>X>X:X,X=XE.                                                              ",
"                    >.$X;X$XXX;X;X;X&XoXG.                                                          ",
"                    T.).Z.[.S.[.'.].}.[..Xh.                                                        ",
"                <X*X!.n.p.F.t.P.].!.}.'.!.'.h.                                                      ",
"          >.W.|./.(.j.c.p.w.E =.{.~.].}.A.S.B.                                                      ",
"          _ ;.Z.'.S.x.b.:.^ &.+.f.y.V._.y.C 8.A                                                     ",
"          t.).`.F.t.U.m.:.+.c.%.6.U ~ 9.5.i I Q                                                     ",
"          { S.`.C.U.$Xv.b.b.b.&.6.L L 7.Q   g Q x                                                   ",
"          } 0.F.y.|.W.v.b.b.b.#.~ C c 6.5.                                                          ",
"          oXV.w.! z.v.b.b.m.b.[ x     A A                                                           ",
"          3.i.P Q ;.b.b.b.m.j.(                                                                     ",
"            A L L ' ..p.a.b.m.A.                                                                    ",
"              N N     _ 0.s.C.^.h.                                                                  ",
"                y r   4.Z.~.].}.P./                                                                 ",
"              = o + X.U.M.P.{.}.).T.                                                                ",
"              2 > 3 l.%X:X;X}.}.#X:X2.                                                              ",
"              $ @ < [ %X:X>X}.}.}.$XK.                                                              ",
"      v k 8 =   @ , ] (.L.T.'.}.}.[.!./                                                             ",
"      V P 7 X   @ , s m <.L.!.(.}.}.].v.-.|                                                         ",
"        Q H ;   X < , < } W.-X|.(.].D.c.b.v.                                                        ",
"        C 6.G ;   o 3 [ R.>X>X.Xo.] O. .{ *.                                                        ",
"          A 5.G * # . d M.M.^.~.0 1 f                                                               ",
"            C 5.G 3 . 1 3 < 0 n q , q                                                               ",
"              b 5.M 3 , 1 , , 1 1 1 1 &                                                             ",
"                K 7.M 1 , , , 1 4 4 , <                                                             ",
"                u L 5.p 1 , , <     , , >                                                           ",
"                      T w , , 1 1 < , , 1 >                                                         ",
"                      s 3 , , , , 1 , , , , >                                                       ",
"                      q , , , , , , , , , , 4 %               %                                     ",
"                      3 , , , , , , , , , , *               & X                                     ",
"                    *.s 1 , , , , , , , , , >       o       . @                                     ",
"          S c   | v.b.i.7 , , , , , , , , , , > $   > o   @ , o                                     ",
"    z R K S     -.b.b.b.s , , , , 0 *.=.=.4.4. .` : . > & 1 1 #                                     ",
"              j i.b.b.b.:.O.d 8 w D ].}.@X;X:X:X>XR.0 < , , <                                       ",
"              L 7.e.e.e.g.].+X X.X+X%X&X;X:X:X:X<X;X` , , , ; h j                                   ",
"        _ i A 7.7.7.7.7.7.C.[.%X-X XY.:X<X<X:X$XW.N.a 9 5 9 L 5.g                                   ",
"    ' -.c.b.a.d.8.7.7.7.7.7.g.B.X.R W k./.Y.M.u.Q P J U B 5.5.l                                     ",
"  t R $.#.q.q.q.q.r.8.7.7.7.7.6.6.7.7.5.Q ~ 5.7.7.6.I P 6.I r                                       ",
"          j e e e h Z Z A B Y Y I Q 5.I 5.U U U I Y B L B V                                         ",
"                                                                                                    "
};
