/* XPM */
static char *__removebg_preview__2__resized[] = {
/* columns rows colors chars-per-pixel */
"50 50 235 2 ",
"   c None",
".  c #992E78",
"X  c #B03483",
"o  c #B13C8D",
"O  c #BD3B8E",
"+  c #BB3C90",
"@  c #BF3D94",
"#  c #C03C95",
"$  c #C13D95",
"%  c #A9428A",
"&  c #B44D91",
"*  c #BE4897",
"=  c #B84898",
"-  c #AD5492",
";  c #B3579D",
":  c #B45E9D",
">  c #B75CA4",
",  c #BB5DA0",
"<  c #B85EA3",
"1  c #BD57AB",
"2  c #BE5DB4",
"3  c #B967A4",
"4  c #BC68AC",
"5  c #B673AA",
"6  c #CA459C",
"7  c #C04999",
"8  c #C6499D",
"9  c #CA499D",
"0  c #CA4BA0",
"q  c #D046A3",
"w  c #D54CA7",
"e  c #D64EAA",
"r  c #D24EAF",
"t  c #C852A2",
"y  c #CD57A6",
"u  c #C15DAB",
"i  c #DB51AB",
"p  c #D951AD",
"a  c #C35EB7",
"s  c #D550B3",
"d  c #E24FB3",
"f  c #E059B4",
"g  c #E558B6",
"h  c #E15EB7",
"j  c #EA56BC",
"k  c #E75DBA",
"l  c #E35EBC",
"z  c #E95ABB",
"x  c #EB58BC",
"c  c #EA5ABD",
"v  c #F05EBF",
"b  c #C06CB5",
"n  c #CD68BA",
"m  c #CD6ABE",
"M  c #CE6DBF",
"N  c #D563B3",
"B  c #C270B0",
"V  c #C071B2",
"C  c #C775B3",
"Z  c #C377B4",
"A  c #C477B5",
"S  c #C574B7",
"D  c #C479B1",
"F  c #C47BB3",
"G  c #CA7CB5",
"H  c #C57AB8",
"J  c #D579BF",
"K  c #EB62BE",
"L  c #E06EBF",
"P  c #F35FC1",
"I  c #F25FC3",
"U  c #CF6FC2",
"Y  c #D763C3",
"T  c #D765C7",
"R  c #D867C4",
"E  c #D46BC2",
"W  c #D06BC6",
"Q  c #D06EC7",
"!  c #DD70C0",
"~  c #D97BC4",
"^  c #DD77D0",
"/  c #F360C5",
"(  c #F361C5",
")  c #F961C6",
"_  c #F863C7",
"`  c #F862C8",
"'  c #FF67CC",
"]  c #FF66CD",
"[  c #FE67CD",
"{  c #FD6ACE",
"}  c #E279C9",
"|  c #E57FCF",
" . c #E57BD7",
".. c #FB71D0",
"X. c #FA7ED3",
"o. c #BE80B5",
"O. c #CD81BA",
"+. c #CB82BC",
"@. c #CB80BF",
"#. c #CB88BB",
"$. c #CE88C3",
"%. c #CF88C4",
"&. c #CC8AC5",
"*. c #CC8EC5",
"=. c #CF8EC7",
"-. c #D880C4",
";. c #D38AC1",
":. c #D48BC3",
">. c #D389C5",
",. c #D688C7",
"<. c #D08CC4",
"1. c #D28CC5",
"2. c #D28EC9",
"3. c #CF90C1",
"4. c #D593C4",
"5. c #D192CA",
"6. c #D596CD",
"7. c #DA93CC",
"8. c #D796D0",
"9. c #D897D3",
"0. c #DB96D2",
"q. c #DE95D3",
"w. c #DC9AD3",
"e. c #DB9DD8",
"r. c #E784D2",
"t. c #EA86D0",
"y. c #E987D2",
"u. c #ED8DD4",
"i. c #EC92D5",
"p. c #EA97DA",
"a. c #E09FDB",
"s. c #E19FDB",
"d. c #EB9EDE",
"f. c #E3A7D9",
"g. c #E4A7DB",
"h. c #E2A5DC",
"j. c #E3A7DC",
"k. c #E1AFD8",
"l. c #ED85E6",
"z. c #F084E8",
"x. c #F28FEE",
"c. c #F48EEF",
"v. c #F88DED",
"b. c #EF9DE0",
"n. c #F79AE1",
"m. c #F191ED",
"M. c #F490EE",
"N. c #F992F0",
"B. c #F996F3",
"V. c #FA93F8",
"C. c #FB94F9",
"Z. c #FA95F9",
"A. c #FB95F9",
"S. c #FD97FD",
"D. c #FC98FB",
"F. c #FD98FD",
"G. c #FD99FD",
"H. c #FE99FD",
"J. c #FD9AFD",
"K. c #FD99FF",
"L. c #FE98FE",
"P. c #FE99FE",
"I. c #FF99FE",
"U. c #FE98FF",
"Y. c #FF98FF",
"T. c #FE99FF",
"R. c #FF99FF",
"E. c #FF9AFE",
"W. c #FE9AFF",
"Q. c #FF9AFF",
"!. c #FF9BFF",
"~. c #FD9EFC",
"^. c #EFA6E3",
"/. c #E7AAE0",
"(. c #E7ADE1",
"). c #E6ACE2",
"_. c #FCA8EC",
"`. c #FCADED",
"'. c #EAB2E7",
"]. c #EEB4EA",
"[. c #EEB5EB",
"{. c #F3B8EF",
"}. c #F8A1F7",
"|. c #FBA0FB",
" X c #FAA2FA",
".X c #FCA4FB",
"XX c #FDA1FE",
"oX c #FCA9FB",
"OX c #FCAAFB",
"+X c #FCB1F0",
"@X c #F8B3F7",
"#X c #F3BCF0",
"$X c #F4BEF2",
"%X c #F7BFF5",
"&X c #FDBEF7",
"*X c #FCB0FC",
"=X c #FCB5FC",
"-X c #FCB7FD",
";X c #FCBFFD",
":X c #F6C1F5",
">X c #F9C2F6",
",X c #F8C3F7",
"<X c #FAC3F7",
"1X c #FBC2FA",
"2X c #F8C4F8",
"3X c #FAC6F8",
"4X c #FCC4FB",
"5X c #FDC3FD",
"6X c #FEC3FE",
"7X c #FAC8FA",
"8X c #FCC8FB",
"9X c #FCC9FC",
"0X c #FCCAFC",
"qX c #FCCBFD",
"wX c #FDCBFD",
"eX c #FECAFD",
"rX c #FECBFD",
"tX c #FDC8FE",
"yX c #FCCBFE",
"uX c #FDCBFE",
"iX c #FECBFE",
"pX c #FECCFD",
"aX c #FDCCFE",
"sX c #FDCDFF",
"dX c #FECCFE",
"fX c #FFCCFE",
"gX c #FECDFE",
"hX c #FECCFF",
"jX c #FECDFF",
"kX c #FFCDFF",
"lX c #FDCEFF",
"zX c #FECEFE",
"xX c #FECEFF",
"cX c #FFCEFF",
"vX c #FECFFF",
/* pixels */
"                                                                                                    ",
"                                                                                                    ",
"                                                                                                    ",
"                                                                                                    ",
"                                                                                                    ",
"                                                                                                    ",
"                                                                                                    ",
"                                                                                                    ",
"                                                                                                    ",
"                                                                                                    ",
"                                                                                                    ",
"                                                                                                    ",
"                                                                                                    ",
"                                                                                                    ",
"                                                                                                    ",
"                                                                                                    ",
"                                                                                                    ",
"                                                                                                    ",
"                                                                                                    ",
" .E 1                                                                                               ",
"!.Q.V.l.R r c ( / I z e * .                                                                         ",
"I.R.R.Q.E.z.s ) ] [ ` x K l h t                                                                     ",
"R.R.R.P.T.Q.T d ' _ v g i w 6                                                                       ",
"R.R.R.H.K.Q.Y q f 9                                                                                 ",
"R.R.R.U.W.M.=                                                                                       ",
"R.Y.Q.R.c.n                                                                                         ",
"XX|.m.^ u                                                                                           ",
"k.3.                                                                                                ",
"                                                                                                    ",
"                                                                                                    ",
"                                      + O X                               :                         ",
"m M U Q W a 2 b A +.1.=.&.2.,.~ L k j p                                                             ",
"v.N.B.Z.A.C.Z.}.@X4X0XiX1Xn.X...{ P 0                                                               ",
"F.P.P.P.U.U.L.S. X5XgXhXyX&X+X`._.b.5.H > ; < V $.6.j.(.g.                                          ",
"x.D.G.J.~..XOX=X5XrXpXdXhXsXxXxXlXvXfX8X<X>X,X%X{.'.f.4.                                            ",
"oX*X-X;X6XtXuXjXjXjXgXzXkXcXkXkXqX3X$X]./.w.<.D                                                     ",
"rXeXrXdXiXaXwX9X7X2X:X#X[.).h.0.%.Z 3                                                               ",
"J -.q.s.a.e.9.8.*.o.                                                                                ",
"7.#.                                                                                                ",
"O.G C 4 , & -             7 # $ o %                                                                 ",
"^.d.p.i.u.t.y.r.| } ! N y 8 @                                                                       ",
";.:.>.@.S B F 5                                                                                     ",
"                                                                                                    ",
"                                                                                                    ",
"                                                                                                    ",
"                                                                                                    ",
"                                                                                                    ",
"                                                                                                    ",
"                                                                                                    ",
"                                                                                                    "
};
