/* XPM */
static char *__removebg_preview__1__resized[] = {
/* columns rows colors chars-per-pixel */
"50 50 199 2 ",
"   c None",
".  c #99065F",
"X  c #A2065E",
"o  c #AB045D",
"O  c #A3085E",
"+  c #9C136F",
"@  c #A40661",
"#  c #AD0562",
"$  c #B40464",
"%  c #BC0365",
"&  c #BD056A",
"*  c #B20A6B",
"=  c #B10964",
"-  c #A1186D",
";  c #BE0D75",
":  c #AD1873",
">  c #AE1879",
",  c #A21D73",
"<  c #BF1171",
"1  c #B71C7F",
"2  c #BF187D",
"3  c #B51677",
"4  c #C30266",
"5  c #CC0067",
"6  c #C50369",
"7  c #CB0269",
"8  c #C5096F",
"9  c #CE0670",
"0  c #C30B72",
"q  c #C90A74",
"w  c #CD0F7F",
"e  c #C40672",
"r  c #D20D77",
"t  c #C41375",
"y  c #CF107F",
"u  c #C91F7F",
"i  c #BB1E84",
"p  c #B71D87",
"a  c #BE1C94",
"s  c #A53580",
"d  c #BC2B90",
"f  c #BD3A95",
"g  c #CB1483",
"h  c #C11D87",
"j  c #C91C81",
"k  c #D41485",
"l  c #D4178B",
"z  c #D31D8E",
"x  c #C91F9A",
"c  c #CD1D96",
"v  c #D31E92",
"b  c #DB1A90",
"n  c #D61E98",
"m  c #DB1F99",
"M  c #CB238B",
"N  c #C72A8C",
"B  c #C32392",
"V  c #CB2492",
"C  c #C52C95",
"Z  c #C92998",
"A  c #D82196",
"S  c #D1269C",
"D  c #DB229D",
"F  c #D32B9B",
"G  c #D32594",
"H  c #C6389A",
"J  c #C6399E",
"K  c #D03095",
"L  c #D0359C",
"P  c #CE22A0",
"I  c #CE2EA1",
"U  c #DD23A1",
"Y  c #D52DA7",
"T  c #DD29A5",
"R  c #DD27AE",
"E  c #DC2BAA",
"W  c #D226A2",
"Q  c #D33DA2",
"!  c #D03BAA",
"~  c #DF2AB1",
"^  c #DF3FB1",
"/  c #E324A5",
"(  c #E22CAD",
")  c #E52AA9",
"_  c #E133AE",
"`  c #E42BB2",
"'  c #EA2CB4",
"]  c #ED2DBA",
"[  c #F12EBD",
"{  c #F12CB6",
"}  c #EB30B7",
"|  c #E43FB6",
" . c #EB34BA",
".. c #EC3DBF",
"X. c #F331BD",
"o. c #B549A0",
"O. c #BF55A8",
"+. c #B961AC",
"@. c #CF43A0",
"#. c #C84CA6",
"$. c #C64FAC",
"%. c #D146A5",
"&. c #D644AD",
"*. c #CB57AD",
"=. c #DE44B0",
"-. c #D84EB1",
";. c #CF58B9",
":. c #C757B2",
">. c #D953B9",
",. c #DB59B8",
"<. c #E04CAE",
"1. c #E446B6",
"2. c #E947BC",
"3. c #E352BC",
"4. c #E950B9",
"5. c #E75DBF",
"6. c #C76CB4",
"7. c #CD64BB",
"8. c #C566BA",
"9. c #DA65BF",
"0. c #D16ABE",
"q. c #C67CB1",
"w. c #F22EC0",
"e. c #F432C2",
"r. c #F932C6",
"t. c #FE32CB",
"y. c #FB3BCB",
"u. c #F338C2",
"i. c #F546C8",
"p. c #E556C2",
"a. c #E85FC8",
"s. c #F75EC8",
"d. c #F757C7",
"f. c #FB4AD4",
"g. c #FC44D0",
"h. c #F758D3",
"j. c #F95AD3",
"k. c #CA6DC0",
"l. c #D16FC5",
"z. c #D86CC6",
"x. c #D66ECD",
"c. c #D467C4",
"v. c #D770C6",
"b. c #D471C8",
"n. c #D76ED0",
"m. c #DB74D1",
"M. c #E869C7",
"N. c #EA66CE",
"B. c #F264D6",
"V. c #F865DB",
"C. c #F76BD9",
"Z. c #FC6BDF",
"A. c #E278D3",
"S. c #E47CDA",
"D. c #EE7DDC",
"F. c #EA73D5",
"G. c #F777E2",
"H. c #FA73E3",
"J. c #F07BE0",
"K. c #FC7CEA",
"L. c #D98ECA",
"P. c #D884CA",
"I. c #D69BC7",
"U. c #DD97D1",
"Y. c #E681DD",
"T. c #F386DD",
"R. c #E991DA",
"E. c #D8A4D0",
"W. c #ED83E4",
"Q. c #EF87EA",
"!. c #E985E4",
"~. c #F183E6",
"^. c #F587ED",
"/. c #FD86EE",
"(. c #F28CEC",
"). c #FC8AEF",
"_. c #EC91EA",
"`. c #F19FEE",
"'. c #F390ED",
"]. c #F58EF1",
"[. c #FA8CF5",
"{. c #F691F2",
"}. c #FA93F6",
"|. c #FD96FB",
" X c #FE99FE",
".X c #EDAFE6",
"XX c #EDAFE8",
"oX c #ECB1E4",
"OX c #F1B8EC",
"+X c #F4ADF1",
"@X c #FBA3FA",
"#X c #FDA8FC",
"$X c #FDBCFD",
"%X c #FDB0FC",
"&X c #EFC6EA",
"*X c #F8C7F4",
"=X c #FBC6FB",
"-X c #FCCBFD",
";X c #FDD4FC",
/* pixels */
"                                                                                                    ",
"                                                                                                    ",
"                                                                                                    ",
"                                                                                                    ",
"                                                                                                    ",
"                                                                                                    ",
"                                                                                                    ",
"                                                                                                    ",
"                                  +.+.                                                              ",
"                          q.U.XX+X+X`._.!.A.z.$.                                                    ",
"                      I.&X=X$X#X X XY.8.      #.C i                                                 ",
"                  L.OX-X$X#X X X X X X(.                                                            ",
"              s R.-X-X%X X X X X(.(. X X(.                                                          ",
"                L.=X#X X X X X X!.H L N.V.1.                                                        ",
"                6. X XW.;.%.%.>.B._ 4 8 l '                                                         ",
"        ;X;X;XOXv. X X'.A.Q q 6 q A y 5 4 2 B                                                       ",
"        I.oXXXP.W. X~.-.K G A q 6 8 < 5 4                                                           ",
"        Y p.Y.(. X(.M 5 5 5 6 q 6 7 % 4 %                                                 ] ..&.  o.",
"        X.H. X X X,.4 5 5 5 5 5 4 7 5 7 %                                                 u.K.}.Q.].",
"        Z J. X X|.N 5 5 5 5 5 5 7 5 5 7 6                                                 B N.|. X X",
"          :.}. X'.j 5 5 5 5 5 5 5 5 5 5 4                                             B '  .F.|. X X",
"            W. XJ.t 5 5 5 5 5 5 5 5 5 5 7 o                                             ] i.G.~.{. X",
"  =X-X      !.}.3.8 5 5 7 5 5 5 5 5 5 5 7 4 $ = O                                         B ` i./.).",
"  E.*X=X.X,.G.H. .9 5 5 7 5 5 5 5 5 6 % 4 5 4 $                                         F e.r.u.1.5.",
"    *.p.3.T.h.f.r.c 7 7 7 7 5 5 5 7 % $                                                   P   d ~ j.",
"    a ( Y M.C.y.r.x ; 4 7 7 5 5 5 7 6 $                                                         e.u.",
"    p       y.y.t.' g 7 7 9 & 4 5 5 7 % @                                                       d J ",
"    B E } X.r.' ] t.r.' ` D q 5 5 5 5 7 #                                                     $.S.D.",
"      e.t.t.]     ` e.] D q 5 7 5 5 5 5 4 #                                                 7.(. X X",
"      ' r.t.e.      > 8 7 5 5 5 7 5 5 5 7 % @                                           f :.}. X X X",
"        S ( ' E       o 4 7 5 5 5 5 4 4 4 % $ .                               k.b.m.S.W.^.[. X X X X",
"                B N F S * 4 5 5 5 7 5 7 7 4 4 % & < c E E E E >.9.A.Y.!.(.{.}.|. X X X X X X X X X[.",
"                      S z 7 5 5 5 5 5 5 5 5 5 5 5 7 k r.t.t.g.H.[.[.}. X X X X X X X X X X X|.|.K.i.",
"                        G r 5 5 5 5 5 5 5 5 5 5 5 7 b { ] ` ~ E Y ! c.x.n.x.x.x.x.x.l.l.0.7.7.:.J S ",
"                          t 5 5 5 5 5 5 5 7 7 4 % * i                                               ",
"                            5 5 5 5 7 5 5 % % 4 % X o % 4 4 4 4 4 $                                 ",
"                            6 5 5 5 5 4 % 4 7 5 % 4 7 5 5 5 5 5 5 5 4 $                             ",
"                            4 5 5 5 4 4 7 5 5 6 4 5 6 5 5 5 5 5 5 5 5 5 $                           ",
"                            % 5 7 7 5 7 7 5 7 % 5 5 8 8 5 5 5 5 5 5 5 5 6 #                         ",
"                            4 5 5 5 5 5 5 7 6 4 5 5 M M 5 5 5 5 5 5 5 5 5 4                         ",
"                          # 7 5 5 5 5 5 k g 4 6 5 6 =.) 7 5 5 5 5 5 5 5 5 5 @         ,             ",
"                          6 5 5 5 5 5 q [ ) & 5 5 N B.' 7 5 5 5 5 5 5 5 5 7 $                       ",
"                        O $ 4 7 5 5 6 U t.t.z 4 u F.f.{ 9 5 7 5 5 5 5 5 5 5 %       :               ",
"                            # 7 5 8 n t.t.t.' L D.Z.t.' 9 7 5 5 5 5 7 & 5 5 #     i : -             ",
"                            o 6 q / t.t.t.t.t.V.K.y.t./ 5 5 5 5 5 q y 6 5 5     i i 3               ",
"                            2 b [ t.t.t.t.t.t.y.y.t.t.b 5 5 5 6 g A q 5 5 $   T S i                 ",
"            H @.<.4.1.| | i.u.t.t.t.t.t.t.t.t.t.t.t.{ 8 7 e g T D q 4 q g v E S                     ",
"      + Z =.4.d.s.s.d.i.t.t.t.t.t.t.t.t.t.t.t.t.t.t.U g m ] t.r.U D D T T W                         ",
"                d C Z I E R ` ` '  .w.e.w.w.w.] w.w.' w.e.] ' ` E W B                               ",
"                                                                                                    "
};
