/* XPM */
static char *__resized[] = {
/* columns rows colors chars-per-pixel */
"50 50 168 2 ",
"   c None",
".  c #030305",
"X  c #060509",
"o  c #08070B",
"O  c #09090E",
"+  c #0D0307",
"@  c #16060A",
"#  c #070A13",
"$  c #0C0B12",
"%  c #0C0F1E",
"&  c #100E17",
"*  c #110F19",
"=  c #0F1010",
"-  c #0D101B",
";  c #13111C",
":  c #1A1C1E",
">  c #13161A",
",  c #2B110C",
"<  c #34170A",
"1  c #260B12",
"2  c #380C18",
"3  c #281919",
"4  c #311F1F",
"5  c #381617",
"6  c #3D290C",
"7  c #0D1121",
"8  c #0F1529",
"9  c #141422",
"0  c #14172A",
"q  c #16182C",
"w  c #1A1C2A",
"e  c #1B1C21",
"r  c #151B34",
"t  c #191C34",
"y  c #161E3A",
"u  c #191F3B",
"i  c #321B24",
"p  c #142325",
"a  c #1F2132",
"s  c #1E3539",
"d  c #282029",
"f  c #262227",
"g  c #312324",
"h  c #34252C",
"j  c #202334",
"k  c #2B2735",
"l  c #232639",
"z  c #252C3E",
"x  c #2C2837",
"c  c #24393D",
"v  c #36373B",
"b  c #48131E",
"n  c #42121E",
"m  c #4A310D",
"M  c #54310E",
"N  c #5F3810",
"B  c #6B390D",
"V  c #642819",
"C  c #742C14",
"Z  c #762C17",
"A  c #603910",
"S  c #4B1D26",
"D  c #44252B",
"F  c #502A30",
"G  c #5E353B",
"H  c #563539",
"J  c #56433C",
"K  c #1A2345",
"L  c #1B2448",
"P  c #292D43",
"I  c #243D43",
"U  c #2D344A",
"Y  c #293946",
"T  c #30334D",
"R  c #3B3B46",
"E  c #323652",
"W  c #343854",
"Q  c #373C59",
"!  c #3A3F5E",
"~  c #453F45",
"^  c #613E41",
"/  c #2A464D",
"(  c #294449",
")  c #33484B",
"_  c #2C4B51",
"`  c #39415D",
"'  c #304755",
"]  c #2E5055",
"[  c #38585F",
"{  c #32575E",
"}  c #3B4461",
"|  c #3B4E65",
" . c #345B62",
".. c #3E526B",
"X. c #395567",
"o. c #3B646D",
"O. c #376167",
"+. c #3E6D74",
"@. c #3F7279",
"#. c #5D4D57",
"$. c #545154",
"%. c #5B535A",
"&. c #6C4D49",
"*. c #784E4D",
"=. c #67504A",
"-. c #785D54",
";. c #7F6359",
":. c #405B6F",
">. c #415F72",
",. c #416274",
"<. c #436978",
"1. c #416976",
"2. c #43747D",
"3. c #66676C",
"4. c #7D656F",
"5. c #6E6E74",
"6. c #736D75",
"7. c #7F757F",
"8. c #9D3B19",
"9. c #A53E16",
"0. c #9D450C",
"q. c #8C4B14",
"w. c #8D5311",
"e. c #995C11",
"r. c #A84C0A",
"t. c #B9550C",
"y. c #A54618",
"u. c #AA4818",
"i. c #BD4D19",
"p. c #AC6010",
"a. c #BF7213",
"s. c #DC5C0C",
"d. c #CA5717",
"f. c #DB5912",
"g. c #DE680F",
"h. c #DE600A",
"j. c #C87E16",
"k. c #EE630D",
"l. c #E86C0F",
"z. c #FB6A0A",
"x. c #F5680C",
"c. c #FB740D",
"v. c #E36912",
"b. c #E27413",
"n. c #F07A10",
"m. c #906360",
"M. c #98766B",
"N. c #AB7972",
"B. c #DF8716",
"V. c #B9817C",
"C. c #467782",
"Z. c #477D85",
"A. c #487E87",
"S. c #817781",
"D. c #498189",
"F. c #968995",
"G. c #8F939A",
"H. c #BD9184",
"J. c #9D9BA4",
"K. c #A9A4AF",
"L. c #CF9C8F",
"P. c #C69C91",
"I. c #DEAC9B",
"U. c #E4AD9E",
"Y. c #EBB6A4",
"T. c #EAB5A4",
"R. c #C9CBD5",
"E. c #D3D7E1",
/* pixels */
"                                                                                                    ",
"                                                                                                    ",
"                                                                                                    ",
"                                                                                                    ",
"                                                    A   A                                           ",
"                                                @ , u.w.u.e.                                        ",
"                                                V 9.f.l.f.g.p.6                                     ",
"                                              e.b.k.z.z.z.z.c.j.                                    ",
"                                            j.c.k.x.z.z.z.z.c.B.m                                   ",
"                                            t.d.d.x.x.x.z.x.c.c.w.                                  ",
"                                            w.v.c.z.k.v.z.z.n.c.w.                                  ",
"                                            V k.c.x.d.b.z.x.0.v.r.                                  ",
"                                            5 9.x.d.q.v.y.C Z t.                                    ",
"                                              < s.C B Z 4.G 5 <                                     ",
"                                              M 9.b D G L.N.^                                       ",
"                                                @ b m.I.Y.Y.H.:                                     ",
"                                                  2 D V.T.Y.m.                                      ",
"                                                @ 1 D G N.L.=.                                      ",
"                                            p I i b S F 3 H                                         ",
"                                            +.C.2.[ Y c                                             ",
"                                           .A.Z.A.A.A.O.                                            ",
"                                        _ ] A.Z.A.<.1.+.>         J                                 ",
"                                       .'  .A.A.C...,.+.        ;.I.m.                              ",
"                                    I o.P +.A.A.C.` :.2.c     p M.I.=.                              ",
"                                   .o.` Y 2.A.C.>.U U C._   I o.$.*.                                ",
"                                  1.>.T _ D.A.2.} E l ,.+.( 2.D.I                                   ",
"                                  o.o.P o.A.A.>.! Q l | 2./ +.>.U                                   ",
"                                  p [ z } <.<.} ! Q w P :.1.} ! P                                   ",
"                                    c e T ` } ! ` E O a ! } ! W                                     ",
"                                    = g g k x x x j $ - P E P                                       ",
"                                    s o.) g 4 4 3 d P w 0 q 9                                       ",
"                                    ( D.A.X.W P $ z ; $ q K K y #                                   ",
"                                    Y ,.2...! j & * ; ; 9 9 q t u %                                 ",
"                                    l Q } ! E ; ; ; ; * & ; ; ; t 0                                 ",
"                                  # 7 a W } j $ * & X . X & & ; r 8                                 ",
"                                  y K r q t R ~ & $ * * ; $ $ 9 t 7                                 ",
"                                0 L L L t ; 6.J.3 - ; ; ; w r K r                                   ",
"                                r L K K q : #.J.: - ; 9 q u r 0                                     ",
"                              - K L L u ; X   f . * ; 0 r %                                         ",
"                              a L L K q ;         $ & O                                             ",
"                              K L L K 9 &         O @                                               ",
"                            8 u L L t * O                                                           ",
"                            0 ; q w 9 ; X                                                           ",
"                            0 ; ; ; ; * .                                                           ",
"                            $ & ; ; ; $                                                             ",
"                              v X O O                                                               ",
"                              G.v .                                                                 ",
"                            $.K.%.                                                                  ",
"                            h F.S.+                                                                 ",
"                            5.E.E.A.4.                                                              "
};
