/* XPM */
static char *___1__resized[] = {
/* columns rows colors chars-per-pixel */
"50 50 33 1 ",
"  c None",
". c black",
"X c #051718",
"o c #211D19",
"O c #2D2118",
"+ c #2B3734",
"@ c #4E3B25",
"# c #493A2A",
"$ c #664328",
"% c #744E26",
"& c #3B4A40",
"* c #435E42",
"= c #705C4B",
"- c #876033",
"; c #BC6439",
": c #CA7830",
"> c #9A7A4D",
", c #9A7B4E",
"< c #BB7E57",
"1 c #5F8263",
"2 c #EF882D",
"3 c #948872",
"4 c #948973",
"5 c #F0B659",
"6 c #CF9F6F",
"7 c #2236C4",
"8 c #2A86F8",
"9 c #6ABFFA",
"0 c #B2AA99",
"q c #E2C18E",
"w c #C5C5C5",
"e c #F7E0C9",
"r c gray99",
/* pixels */
"                                                  ",
"                           %:                     ",
"                        :5:%5:%                   ",
"                     %:::%5:5:5:                  ",
"                     %%:5:%:::5:%                 ",
"                    %:5%:5:%%::%O                 ",
"                    %::5%:O:5%<6O                 ",
"                    %%:::%O5%66q@                 ",
"                 @=@%OO%%;%5%6qO@@                ",
"               @=404@;;O%;%%6qOw@=+               ",
"              @=4=4=@6q:%OOO<68r%=+               ",
"             @30==04O6q:%w786q96%=*+              ",
"             =44030==O6:;r89qqq6%++2              ",
"            @4+++=44=%OO:;6qqq6:O++X              ",
"            ++e2&++==%%:%5;666<5O+-X              ",
"           X&&2;1*&++%:5O%5<<<5OX-XX              ",
"           X*11112*&++%:%O%555%:OX-X              ",
"           X>>11*+&+++%%:%O%:+%5O-X=@             ",
"            X+>>--+++++:5O+$:X+%XXq4@             ",
"            X+++++---$XX:OX$5X%:O6=4@             ",
"           @X$11+++$XX+X5%X$5XXXO=4=              ",
"           @OO$--$$X+++O:XXXXX%:%4+2              ",
"           @@@XXXXXOX+&%:%X++X%:5X*;              ",
"        .. @@==6q6@=X+O:5:X&+X%55X*X              ",
"       .==..@X44====X&O:55X&+X%5%+1O              ",
"       .=44=.X4444=+X;+O5X++;Xo:OOOX              ",
"       ..==44=Xe2O+&&X;O:X+;<#oXO*1X              ",
"         ..===X2;O&*Oo#+O+;<###X;;1X              ",
"          @..== O**Oo&X#######oX;6X...            ",
"          =@@..=XOOo*&;X#&&##ooX66.2;;;..+        ",
"          ===@@..****&<X&11&oooXX.2&&+.*1.        ",
"          =4==@@X111&;X=..1&ooX .=2*&;*1+.        ",
"          =4=@@@XX;<66X===..X<X.==2*&21+.;.       ",
"          =4=@@@@oXXXX.==44=..X.==32*&2;+&;.      ",
"          @=@@@@@oooo;;..==44=..=3332**&&&;.      ",
"          @=@@@@@ XX;;XXX..==@@@.33332***&2.      ",
"          @@@@@@  o+XX&&&X*..@@@.+33==2222=.      ",
"          @@@@@   X,&+&&&X*++X@.&;+=======.       ",
"          @@@@   o+-,,++X,X,X=.&*&&+=====.        ",
"          @@     X**111Xo-,X=+&***&&++==.         ",
"                 X+**++*o*.3=+2**e2&&&.           ",
"                  X+++++X+.3=+&*&2;&&.            ",
"                   XXXXXXX.33=+&&&&&&.            ",
"                          .333@+&&&&..            ",
"                           .3==@++++@.            ",
"                           +.===@@@@.             ",
"                           +..=====.              ",
"                              .....               ",
"                                                  ",
"                                                  "
};
