/* XPM */
static char *L2FhqD7_3__dragged__resized[] = {
/* columns rows colors chars-per-pixel */
"50 50 207 2 ",
"   c None",
".  c #0A111F",
"X  c #070E20",
"o  c #0E1423",
"O  c #111624",
"+  c #141A24",
"@  c #1A1C25",
"#  c #161D2A",
"$  c #1B1E2A",
"%  c #211D25",
"&  c #1D212A",
"*  c #162429",
"=  c #1D2733",
"-  c #1B3927",
";  c #222126",
":  c #2C2424",
">  c #23222B",
",  c #2A292C",
"<  c #332A25",
"1  c #3A2A26",
"2  c #352825",
"3  c #233A29",
"4  c #393129",
"5  c #322D33",
"6  c #393533",
"7  c #23303B",
"8  c #58321E",
"9  c #63361E",
"0  c #66391F",
"q  c #4B2E21",
"w  c #432B23",
"e  c #473425",
"r  c #4A3525",
"t  c #4C3D2C",
"y  c #45372B",
"u  c #543121",
"i  c #563A26",
"p  c #5D3F36",
"a  c #663921",
"s  c #6B3B21",
"d  c #643A26",
"f  c #713E23",
"g  c #7A3931",
"h  c #284F2C",
"j  c #24502D",
"k  c #345E2D",
"l  c #285B31",
"z  c #2E652E",
"x  c #31662F",
"c  c #397130",
"v  c #5D4127",
"b  c #55442E",
"n  c #59462E",
"m  c #484238",
"M  c #544B3B",
"N  c #5A4738",
"B  c #7D4527",
"V  c #7F4628",
"C  c #744527",
"Z  c #7C5329",
"A  c #69563A",
"S  c #745832",
"D  c #6E4B2E",
"F  c #437D32",
"G  c #427C2F",
"H  c #79613D",
"J  c #2B3842",
"K  c #323D46",
"L  c #37414A",
"P  c #365148",
"I  c #366047",
"U  c #5A4442",
"Y  c #594C44",
"T  c #41555B",
"R  c #625741",
"E  c #6A5C47",
"W  c #6D524B",
"Q  c #446447",
"!  c #72654A",
"~  c #6F704E",
"^  c #485B61",
"/  c #526C72",
"(  c #5D6D71",
")  c #5A7478",
"_  c #506D6E",
"`  c #636B6D",
"'  c #86492A",
"]  c #8A4B2B",
"[  c #82452A",
"{  c #845629",
"}  c #8C5C29",
"|  c #905D28",
" . c #924234",
".. c #8B5234",
"X. c #9A5D3B",
"o. c #915433",
"O. c #8B4033",
"+. c #AF5D3C",
"@. c #8D612E",
"#. c #99672D",
"$. c #836234",
"%. c #8A6634",
"&. c #9A7137",
"*. c #9D743A",
"=. c #986D35",
"-. c #A16628",
";. c #AB6C2A",
":. c #A46829",
">. c #B4712A",
",. c #BC762B",
"<. c #BF782B",
"1. c #A87A39",
"2. c #A47637",
"3. c #A8702F",
"4. c #C2533A",
"5. c #CF563B",
"6. c #D4583C",
"7. c #C37A2C",
"8. c #C87E2D",
"9. c #C07E30",
"0. c #885F53",
"q. c #976A5B",
"w. c #926B4D",
"e. c #A67147",
"r. c #977661",
"t. c #9F7B64",
"y. c #AD7B65",
"u. c #B07A65",
"i. c #C27D5E",
"p. c #458231",
"a. c #488533",
"s. c #598455",
"d. c #7C8050",
"f. c #70827E",
"g. c #B3823B",
"h. c #CA8431",
"j. c #CB8835",
"k. c #C28B3D",
"l. c #CA893A",
"z. c #C28336",
"x. c #D18D37",
"c. c #D18E38",
"v. c #CD933F",
"b. c #D3933B",
"n. c #DA993E",
"m. c #C8802F",
"M. c #9B8454",
"N. c #8C9856",
"B. c #A18957",
"V. c #A58C59",
"C. c #B8975A",
"Z. c #BA834D",
"A. c #AE876B",
"S. c #B5886C",
"D. c #BC9E61",
"F. c #BEA162",
"G. c #CE9241",
"H. c #C4954B",
"J. c #DE9E41",
"K. c #D49C49",
"L. c #D29640",
"P. c #CD8F40",
"I. c #E09F41",
"U. c #DFA145",
"Y. c #DBA24B",
"T. c #DEA753",
"R. c #E2A142",
"E. c #E5A84C",
"W. c #E4A749",
"Q. c #E2AB52",
"!. c #E2B15D",
"~. c #C98664",
"^. c #D5996E",
"/. c #DA9973",
"(. c #CD956D",
"). c #E59A7B",
"_. c #EE9D76",
"`. c #F19E74",
"'. c #CBAA66",
"]. c #C5A564",
"[. c #DDB86C",
"{. c #D7B36A",
"}. c #DEAD7A",
"|. c #E4B461",
" X c #E7BF6D",
".X c #E8BC69",
"XX c #F0A17D",
"oX c #EAC271",
"OX c #F1C873",
"+X c #EBC16D",
"@X c #627D81",
"#X c #7D9292",
"$X c #70898B",
"%X c #839A9A",
"&X c #9D9899",
"*X c #B5ADAD",
"=X c #DCAA82",
"-X c #FBAB86",
";X c #F4A883",
":X c #FDB48A",
">X c #FCBD8E",
",X c #F4B789",
"<X c #F2B387",
"1X c #FEC08F",
"2X c #FFC391",
"3X c #FFC998",
"4X c #FFF4EB",
/* pixels */
"                                                                                                    ",
"                                                                                                    ",
"                                  @ * @ @ @ @ * @ + @ + @ @                                         ",
"                          o o X M '.'.'.'.'.'.H.k.k.k.k.k.g.@ o o                                   ",
"                          M M M ! V.V.V.V.V.V.e.2.&.2.&.*.&.n b n 4                                 ",
"                        o M.OXOXB.. O o o o o o o o O O O @ b.R.R.b o           O O O               ",
"                    X M C.E m m A 1.1.1.1.1.1.1.1.1.&.| | } t y y %.1.&       & 2.S o               ",
"                    6 E ].A < 4 S E.E.E.E.E.W.E.W.R.n.h.7.>.4 < : %.g.y 4   4 t b.&.o               ",
"                O > [.M.o &.U.n.Q.oXoXoXoXoXoXoX XU.J.I.h.,.,.,.<.r & b.&.o &.n.7.{ o               ",
"                O > [.B.X &.U.!.!.Q.Q.Q.Q.Q.Q.Q.Q.J.J.J.b.c.7.,.7.e @ z.@.X @.j.7.{ o               ",
"                , 6 ].M.& 1.Y..X!.n.J.J.J.n.n.R.J.J.J.J.J.J.<.<.<.v < -.Z ; Z >.7.{ O               ",
"              o M.{., n n.!.+XU.R.n.J.J.J.J.J.J.J.J.J.J.J.J.7.,.,.,.:.; n U.n ; ,.{ o               ",
"              o M.[.& n R.!.+XU.U.I.I.I.J.J.J.J.J.J.J.R.b.j.<.,.,.<.>.@ b c.i @ >.{ o               ",
"              o B.[.& b R.|.+XU.n.U.U.n.J.J.J.J.J.J.n.n.m.,.<.,.,.,.:.@ e ,.e @ ;.{ O               ",
"              o B.[.& b R.|.+XU.J.J.I.I.J.J.J.J.J.7.7.8.7.7.7.7.7.i @ o O % + o % @                 ",
"              o B.[.& b R.!.oXU.J.I.U.n.J.n.b.b.c.7.;.Z Z Z Z Z Z A A R R A R A N b                 ",
"              o B.[.& b R.!.+XU.J.J.J.J.I.x.,.,.,.7.Z o O O O O o B.OXoXoXoXoX XW.&.O               ",
"              O *.K.@ n R.U.Y.J.I.R.j.m.h.#.: 2 : : A F.D.D.D.C.g.z.l.l.l.l.l.j.h.| O               ",
"              o *.Y.& n R.U.J.I.v.1.#.@.| S m m m y H !.!.!.{.E.n.;.} | @.| | | | D O               ",
"              o M.[.* b R.I.I.U.&.. o O o M oXoX.XR.b.7.,.7.,.7.7.r o + + + O O O O                 ",
"              o e.Y.* n W.@.b b A V.B.V.*.1.b.P.P.l.#.e e e e e y 0.y.u.W O @                       ",
"              o &.v.@ m g.A , : A +X.X|.R.j.-.-.-.:.Z 5 5 5 O O X q./.-Xu.o                         ",
"              o &.n.@ O o M.+Xn.b.8.7.7.8.{ + + + o U ;X;X/.$ o X o > ,XS.o o o                     ",
"              . b S $.$.$.g.K.x.3.v v v v i w 1 w 0.u.:X-X;Xt.r.r.r.y.>X(.g g g %                   ",
"              ; & < b.U.n.m.;.>.Z o $ > $ 1 s s B XX:X1X2X2X2X2X,X2X3X2X_.6.6.4.% O                 ",
"          o b L.v.v.m.m.8.b @ % + O q.).).i.' ' o.<X1X1X1X1X3XS.$ *X4X3X_.5.6.4.% O                 ",
"          o b c.j.j.Z C C r < 1 % O y.:X:X(.' ' o.,X2X2X2X2X2XA.o ` &X>X_.5.5.+.% O                 ",
"          o r ,.,.;.@ O o q 0 0 q O A.>X>X^.' ' o.<X>X>X2X2X2XS.O O & ;X`.5.5.4.$ O                 ",
"              < , : O % a u s [ f u y 5 5 y s [ ] X.X.X.}.2X2X1X=Xw.f X.+.6.6.4.% O                 ",
"              o o O O : q a C ] [ a p U N p a f B B [ ' u.^.^.^./.e.] B [  . .O.%                   ",
"                        o d ] ] B a i.-X-X~.9 0 0 0 f { ] ' ] ' ' ] ] s q o O O                     ",
"                          : 2 ' B a ~.>X>XXX~...9 0 s f f f f f f f s : %                           ",
"                          o @ d d u (.2X1X>X:Xe.Z i u u u u u u u u q @ O                           ",
"                              + + o A.3X2X2X2X-X).% O O O + + + O + +                               ",
"                                    Y ! N.N.N.d.~ T K O O                                           ",
"                                    + * c p.p.z l / T $                                             ",
"                                  O k F a.p.p.p.F l I / 7 o                                         ",
"                                  O k F h x a.c x - P $X! S ;                                       ",
"                                  O k F + 3 a.z j O L %XD.G.; O                                     ",
"                                  O k G # 3 a.x j O L %Xf.` * O                                     ",
"                                  O Q s.+ 3 a.x j O K $X@X/ # O                                     ",
"                                  O ( #X$ 3 a.x j O J / ) / # O                                     ",
"                                  O ( #X# Y =X^.S.& J @X) / # +                                     ",
"                                  + ^ ( # Y 2X:X).> = ^ ^ T #                                       ",
"                                    O + O U -X;X).> O O O O                                         ",
"                                        O , U U U O O                                               ",
"                                        O # = = = O O                                               ",
"                                        O K #X@X_ # O                                               ",
"                                        O 6 q.E Y + O                                               ",
"                                        O 1 ' s a + O                                               "
};
