/* XPM */
static char *__resized[] = {
/* columns rows colors chars-per-pixel */
"50 50 176 2 ",
"   c None",
".  c #040406",
"X  c #050509",
"o  c #0A060A",
"O  c #06090C",
"+  c #09080D",
"@  c #15060A",
"#  c #070912",
"$  c #0C0C13",
"%  c #0F0F18",
"&  c #100E17",
"*  c #110F19",
"=  c #1D0E11",
"-  c #0E1519",
";  c #13121C",
":  c #121B1D",
">  c #161719",
",  c #2B110C",
"<  c #24170A",
"1  c #3F1D08",
"2  c #290A12",
"3  c #370E16",
"4  c #241413",
"5  c #2B1514",
"6  c #2B1814",
"7  c #26191E",
"8  c #351F1D",
"9  c #3A290C",
"0  c #0F1326",
"q  c #151422",
"w  c #12162B",
"e  c #15192D",
"r  c #1A1D2C",
"t  c #1A1923",
"y  c #151B34",
"u  c #181C34",
"i  c #171E3C",
"p  c #191E3A",
"a  c #2B1D22",
"s  c #231E25",
"d  c #132225",
"f  c #1D212F",
"g  c #1F2132",
"h  c #19203F",
"j  c #27222A",
"k  c #3B2225",
"l  c #362320",
"z  c #222334",
"x  c #242639",
"c  c #282A38",
"v  c #382732",
"b  c #2A3538",
"n  c #323738",
"m  c #531C1B",
"M  c #4D2E0D",
"N  c #46310D",
"B  c #4F2017",
"V  c #663F0F",
"C  c #66201A",
"Z  c #603810",
"A  c #471120",
"S  c #432B2B",
"D  c #49242A",
"F  c #5D352E",
"G  c #542D33",
"H  c #4A3734",
"J  c #5D363A",
"K  c #7D2521",
"L  c #6C3A3A",
"P  c #7F4C0F",
"I  c #1B2346",
"U  c #1B2448",
"Y  c #2A2D44",
"T  c #233D41",
"R  c #2B3348",
"E  c #31344E",
"W  c #2E3F50",
"Q  c #323652",
"!  c #343954",
"~  c #363E59",
"^  c #3A3F5E",
"/  c #254246",
"(  c #264549",
")  c #28464B",
"_  c #29484C",
"`  c #2D4C51",
"'  c #39415E",
"]  c #364C5E",
"[  c #344854",
"{  c #37595F",
"}  c #3C4462",
"|  c #3C4965",
" . c #345B62",
".. c #3E536B",
"X. c #3E596D",
"o. c #3A5767",
"O. c #3B646D",
"+. c #3E6C74",
"@. c #3F7077",
"#. c #48444A",
"$. c #504E53",
"%. c #684746",
"&. c #775C54",
"*. c #415F72",
"=. c #615C63",
"-. c #725B6E",
";. c #426174",
":. c #436C7A",
">. c #43747C",
",. c #44787F",
"<. c #69666D",
"1. c #6F7178",
"2. c #73767C",
"3. c #796B76",
"4. c #8E3B0C",
"5. c #8A3E17",
"6. c #9F3C19",
"7. c #A63D16",
"8. c #93430E",
"9. c #8C4516",
"0. c #885611",
"q. c #975812",
"w. c #B95A0E",
"e. c #AC4618",
"r. c #A15B17",
"t. c #BC640E",
"y. c #CB5212",
"u. c #CA5A1A",
"i. c #D85613",
"p. c #C7640E",
"a. c #C66812",
"s. c #DA6817",
"d. c #C97E16",
"f. c #D77210",
"g. c #E2600C",
"h. c #ED640E",
"j. c #E86C0F",
"k. c #F56A0C",
"l. c #FB6A0A",
"z. c #F4660C",
"x. c #FB730C",
"c. c #E36010",
"v. c #E16B11",
"b. c #E27412",
"n. c #ED7E12",
"m. c #835755",
"M. c #8E6260",
"N. c #A16F6B",
"B. c #AC7E79",
"V. c #DD8A17",
"C. c #FE8812",
"Z. c #A78075",
"A. c #B3847A",
"S. c #467580",
"D. c #477C84",
"F. c #487F87",
"G. c #867B86",
"H. c #498088",
"J. c #7C8086",
"K. c #9E98A2",
"L. c #A29EA7",
"P. c #A4A9B1",
"I. c #AFB0B9",
"U. c #B3B6BF",
"Y. c #C69589",
"T. c #C69C92",
"R. c #D7A696",
"E. c #E2AC9D",
"W. c #EBB7A4",
"Q. c #ECB8A5",
"!. c #BAB8C3",
"~. c #BDC0C9",
"^. c #C1C3CD",
"/. c #C4C9D2",
"(. c #D0D6DF",
"). c #DCE2EC",
/* pixels */
"                                                                                                    ",
"                                                                                                    ",
"                                                                                                    ",
"                                                                                                    ",
"                                                  Z     P                                           ",
"                                              @ 5 e.q.K t.N                                         ",
"                                              B 7.i.j.c.c.a.0.                                      ",
"                                            0.f.h.l.l.l.l.l.f.<                                     ",
"                                          P n.z.z.l.l.l.l.l.b.9                                     ",
"                                          w.u.u.k.l.l.l.l.x.x.d.                                    ",
"                                          q.b.x.l.z.s.x.l.x.C.V.9                                   ",
"                                          r.k.l.l.y.s.l.l.g.p.a.                                    ",
"                                          3 7.k.y.9.v.e.9.C 4.1                                     ",
"                                          o , g.8.w.7.v -.5 <                                       ",
"                                            M 6.m F L A.T.m.a                                       ",
"                                              2 A M.R.Q.Q.E.&.                                      ",
"                                                3 J R.Q.Q.R.H                                       ",
"                                              @ 3 D %.N.Y.B.                                        ",
"                                      O / _ ` 2 2 D G 2 k k                                         ",
"                                    / ( >.S.D.( b s 7                                               ",
"                                _ +.:.X.] S.D.H.D.>. .                S H                           ",
"                              +.D.*.} Q ( D.D.H.D.D.D.+.            &.R.Y.                          ",
"                            d +.:.~ z f  .D.D.D.*.X.S.>.T           %.E.A.                          ",
"                            ( D...x   : >.D.H.>.R Q X.>.>./   d / O.o.H S                           ",
"                            ( D.} z   +.D.D.D.S.E x ^ | >.>.+.@.D.H.:.O                             ",
"                             .S.~ $ d @.D.D.D.*.' Y Y ! | *.>.D.>.;.] O                             ",
"                          : @.D.~ X ( D.D.H.:.^ ' x   ; g ~ | | | ^ Y X                             ",
"                          : @.D.' r W ;.S.S...^ ' g       z E Q Q ! g                               ",
"                            _ O.~ z c ! ' $.^ } ! ;           $   $                                 ",
"                              - 7 = 8 S j r u u e .                                                 ",
"                                l z n S 8 5 6 6 4 > r                                               ",
"                                : +.S.@.[ c s s z E c e q                                           ",
"                                % o.F.S.| ! ; $ + $ $ & y q                                         ",
"                                z | X.| ^ Y & * & * ; ; q y y                                       ",
"                                t Y ^ ^ ^ q $ * q ; ; ; ; e h X                                     ",
"                              # w e Y ! R $ + + & ; * q q i h X                                     ",
"                            # i U I w & & $       o & ; u U i X                                     ",
"                            0 U U U u ; ; X       + ; ; u U w                                       ",
"                            y U I I e ; $         $ ; q p I q                                       ",
"                          0 U U I I q & +         & ; q I I #                                       ",
"                          i U U U h q X         . ; ; q I i +                                       ",
"                        y U I U Y u $             $ ; ; u y                                         ",
"                      $ u U I I p ; +             #.#.$ + +                                         ",
"                      & q i I q ; *               #.K.>                                             ",
"                      > & q q ; = $               I.3.o                                             ",
"                      P.1.; + + =                 2.^.G.                                            ",
"                    #.~./.j                         F.!.<.                                          ",
"                    $.K.K.s                             n                                           ",
"                    ~.).!.v                                                                         ",
"                    J.(.).L.<.                                                                      "
};
