/* XPM */
static char *__resized[] = {
/* columns rows colors chars-per-pixel */
"50 50 175 2 ",
"   c None",
".  c #030204",
"X  c #060609",
"o  c #0A090E",
"O  c #08070D",
"+  c #140D0C",
"@  c #1C0D0A",
"#  c #0D0C13",
"$  c #070A13",
"%  c #100D15",
"&  c #110F18",
"*  c #0C121D",
"=  c #14121D",
"-  c #101C1E",
";  c #101111",
":  c #28070F",
">  c #321D09",
",  c #370D19",
"<  c #241616",
"1  c #251919",
"2  c #351E1D",
"3  c #3B2A0D",
"4  c #0D1122",
"5  c #0F1428",
"6  c #151523",
"7  c #13162A",
"8  c #15182C",
"9  c #1B1D2C",
"0  c #151A33",
"q  c #181C33",
"w  c #171E3C",
"e  c #191F3B",
"r  c #241F23",
"t  c #331E23",
"y  c #3D1A22",
"u  c #132224",
"i  c #1A202C",
"p  c #1F2332",
"a  c #1E3639",
"s  c #252525",
"d  c #2B2B2D",
"f  c #312522",
"g  c #212435",
"h  c #222639",
"j  c #252B3D",
"k  c #2D2933",
"l  c #342A30",
"z  c #35383B",
"x  c #55191A",
"c  c #4D2E0D",
"v  c #4C320D",
"b  c #5E3810",
"n  c #573811",
"m  c #662D08",
"M  c #642513",
"N  c #7A2C19",
"B  c #6F3713",
"V  c #481B24",
"C  c #412929",
"Z  c #452526",
"A  c #562F36",
"S  c #583639",
"D  c #683838",
"F  c #7F430C",
"G  c #1A2345",
"H  c #1B2448",
"J  c #2B2E45",
"K  c #262E40",
"L  c #233E41",
"P  c #2D3249",
"I  c #2C3047",
"U  c #34384B",
"Y  c #323652",
"T  c #343A55",
"R  c #3A3E5E",
"E  c #373A58",
"W  c #3B3F60",
"Q  c #563E4A",
"!  c #583844",
"~  c #773F47",
"^  c #254246",
"/  c #29484D",
"(  c #324449",
")  c #2B4B50",
"_  c #3B405F",
"`  c #344959",
"'  c #31555C",
"]  c #3B4361",
"[  c #384E61",
"{  c #3E516A",
"}  c #3C5A6B",
"|  c #365762",
" . c #366066",
".. c #3A646B",
"X. c #376369",
"o. c #3E6B73",
"O. c #3F6271",
"+. c #3F7077",
"@. c #4D4F53",
"#. c #565154",
"$. c #784F4E",
"%. c #68524B",
"&. c #62545E",
"*. c #40586E",
"=. c #5D5D62",
"-. c #415E72",
";. c #665B64",
":. c #406273",
">. c #436C7A",
",. c #436778",
"<. c #42727B",
"1. c #63646A",
"2. c #6D6E74",
"3. c #6E7075",
"4. c #717479",
"5. c #8B3C08",
"6. c #82291D",
"7. c #8D3417",
"8. c #A23E0C",
"9. c #8A5412",
"0. c #935812",
"q. c #975712",
"w. c #A64619",
"e. c #B74815",
"r. c #AA5F10",
"t. c #A26913",
"y. c #C6570F",
"u. c #C44917",
"i. c #C35717",
"p. c #D55813",
"a. c #C4630E",
"s. c #DE680F",
"d. c #D4740F",
"f. c #DC6A13",
"g. c #DF6314",
"h. c #C67011",
"j. c #D87611",
"k. c #ED620D",
"l. c #E86C0F",
"z. c #F5660C",
"x. c #F4690C",
"c. c #FB6B0A",
"v. c #FC730C",
"b. c #E36714",
"n. c #EA7111",
"m. c #8E625F",
"M. c #9C7A6D",
"N. c #9F726D",
"B. c #AC7B74",
"V. c #B77F7A",
"C. c #ED8B1A",
"Z. c #FD8411",
"A. c #AD877A",
"S. c #467C84",
"D. c #487E86",
"F. c #467781",
"G. c #827D85",
"H. c #488088",
"J. c #488087",
"K. c #868A90",
"L. c #988F9A",
"P. c #BE9790",
"I. c #AAA3AF",
"U. c #ADAFB8",
"Y. c #B1B2BB",
"T. c #C7998B",
"R. c #DCA99A",
"E. c #D7A195",
"W. c #EBB6A4",
"Q. c #ECB8A5",
"!. c #BDBEC8",
"~. c #C1C3CD",
"^. c #C7C8D2",
"/. c #D2D5DF",
"(. c #DCE2EC",
/* pixels */
"                                                                                                    ",
"                                                                                                    ",
"                                                                                                    ",
"                                                                                                    ",
"                                                    9.  b                                           ",
"                                                @ M b.q.w.0.                                        ",
"                                                N u.p.l.p.s.r.v                                     ",
"                                              t.s.z.c.c.c.c.v.9.                                    ",
"                                            h.Z.x.c.c.c.c.c.c.q.                                    ",
"                                          F p.i.g.c.c.c.c.c.v.d.                                    ",
"                                          > 0.C.v.c.c.x.c.c.Z.j.3                                   ",
"                                          n i.v.c.k.w.f.v.z.a.a.                                    ",
"                                            6.u.x.7.9.n.8.M 7.5.                                    ",
"                                            , x y.B d.u.! t M m                                     ",
"                                              c N Z D D P.B.S                                       ",
"                                              + , D E.R.W.W.T.                                      ",
"                                                , Z N.R.Q.Q.A.                                      ",
"                                                . y A S V.R.%.                                      ",
"                                              = : V $.Z A m.                                        ",
"                                          a | o.( l = y                                             ",
"                                        ^ <.D.J.D.F.X.*                                             ",
"                                  u ^ ' } :.F.D.>.+.D.`                                             ",
"                                  X.<.{ Y <.D.S.{ ] O.F.a             M.M.                          ",
"                                6 o.{ R j +.D.F.Y T @.>.)           d T.T.f                         ",
"                                  | _ Y / D.D.>.E K Y ] o.^        .o.#.$.                          ",
"                                  [ ] K o.D.D.-.W Y h I -.>.)  .F.H.D.` %                           ",
"                                - } P p O.D.S.*.W W Y g _ ,.F.>.-.-.-.T #                           ",
"                                  ..p p ] -.{ ] W Y 4   J ] ] ] T Y T j                             ",
"                                  a j Y R R R _ _ T #     P Y T g X O                               ",
"                                  a s f k I Y Y Y j         # #                                     ",
"                                  u ) ( 1 2 C C C <                                                 ",
"                                    <.<.^ z C C C <                                                 ",
"                                  i O.D.D.<.` Y g h P                                               ",
"                                  g ] -.D.-.] Y & q E I                                             ",
"                                  6 J T { ] J 6 # = = 9 4                                           ",
"                                  4 0 8 9 9 = # & = = & 0 4                                         ",
"                                  7 H G 4 # # o = = = = q 0                                         ",
"                                  0 H H G 6 o . & = = = q H *                                       ",
"                                $ e H H q = o   # = = = 6 G 7                                       ",
"                                0 G H H 8 & X   O & = = 8 H e                                       ",
"                          . 6 w H H H e = & X   X & & 6 e H w                                       ",
"                    d r 3.U w H H H e 6 = %       % = 6 G H G *                                     ",
"                  4.Y.Q ~.1.4 e e 8 6 = = O       # = = e G H 7                                     ",
"                  K.^.Q 1.o = = = = = = #         # 6 = 6 w H w                                     ",
"                  U.;.+     # = = = = #           o = = = 6 q w                                     ",
"                2.;.        o = = = o               # % = = = 9 z                                   ",
"                =.l           % = %                   X # # O @.3.%                                 ",
"                              X o                             2.L.;.                                ",
"                                                                !.^.I.                              ",
"                                                                (.(./.G.@.                          "
};
