/* XPM */
static char *L2FhqD7_4__dragged__resized[] = {
/* columns rows colors chars-per-pixel */
"50 50 207 2 ",
"   c None",
".  c #0E151F",
"X  c #060E1F",
"o  c #3B261F",
"O  c #080F20",
"+  c #0D1423",
"@  c #111724",
"#  c #141925",
"$  c #1A1B24",
"%  c #191A27",
"&  c #221D24",
"*  c #19212A",
"=  c #1C2531",
"-  c #1F2834",
";  c #1F3127",
":  c #242226",
">  c #2C2424",
",  c #26262D",
"<  c #322423",
"1  c #332925",
"2  c #3D2A24",
"3  c #332E2A",
"4  c #3A2824",
"5  c #24342A",
"6  c #3A3129",
"7  c #242C36",
"8  c #332C33",
"9  c #273639",
"0  c #353331",
"q  c #3A3733",
"w  c #5D341F",
"e  c #66371E",
"r  c #452929",
"t  c #453325",
"y  c #4A3426",
"u  c #45392C",
"i  c #4B3A2B",
"p  c #593422",
"a  c #563926",
"s  c #483B37",
"d  c #543B32",
"f  c #663920",
"g  c #6A3B21",
"h  c #603824",
"j  c #713F25",
"k  c #28492B",
"l  c #23512C",
"z  c #365C3F",
"x  c #3B6B2F",
"c  c #2F6430",
"v  c #356733",
"b  c #3C7130",
"n  c #3F7831",
"m  c #53422D",
"M  c #5C4228",
"N  c #484238",
"B  c #454137",
"V  c #564D3C",
"C  c #544430",
"Z  c #684727",
"A  c #684728",
"S  c #6B4B29",
"D  c #64472A",
"F  c #754124",
"G  c #7C4426",
"H  c #724D28",
"J  c #75422A",
"K  c #7B5228",
"L  c #70512D",
"P  c #794A33",
"I  c #6C5231",
"U  c #775A33",
"Y  c #795B32",
"T  c #765538",
"R  c #427B31",
"E  c #78623F",
"W  c #303C46",
"Q  c #36434C",
"!  c #3C5256",
"~  c #3D4E56",
"^  c #3F6553",
"/  c #5A4643",
"(  c #4D5254",
")  c #614845",
"_  c #615443",
"`  c #76574D",
"'  c #7D6C4A",
"]  c #776646",
"[  c #7B6254",
"{  c #485F66",
"}  c #496168",
"|  c #576F74",
" . c #567176",
".. c #5C757A",
"X. c #596A6C",
"o. c #607B7E",
"O. c #854929",
"+. c #8A4C2B",
"@. c #814728",
"#. c #8A5A29",
"$. c #84592B",
"%. c #915D29",
"&. c #8F5434",
"*. c #8C5335",
"=. c #AB4B37",
"-. c #A14736",
";. c #B44F35",
":. c #9B642A",
">. c #866435",
",. c #98673A",
"<. c #9B7137",
"1. c #A16629",
"2. c #AD6D29",
"3. c #A2682B",
"4. c #BC762B",
"5. c #B9742B",
"6. c #AB7D3B",
"7. c #AB7B37",
"8. c #A96D38",
"9. c #CE543A",
"0. c #C1523A",
"q. c #D1583C",
"w. c #D1573D",
"e. c #C37A2C",
"r. c #C97E2C",
"t. c #C67F30",
"y. c #825C52",
"u. c #8E5B43",
"i. c #8A734A",
"p. c #896858",
"a. c #926A5A",
"s. c #996F55",
"d. c #A86B46",
"f. c #A26541",
"g. c #AE7358",
"h. c #967661",
"j. c #B97F69",
"k. c #CB7957",
"l. c #468332",
"z. c #4B8534",
"x. c #508737",
"c. c #B6833B",
"v. c #BA863C",
"b. c #BE8438",
"n. c #C7802F",
"m. c #CA812E",
"M. c #C88332",
"N. c #CE8B36",
"B. c #C68838",
"V. c #D28F39",
"C. c #D08C36",
"Z. c #CD933F",
"A. c #D6943B",
"S. c #D9963C",
"D. c #DC9A3E",
"F. c #E09D3F",
"G. c #998254",
"H. c #A48A57",
"J. c #B6995D",
"K. c #BB904B",
"L. c #B8866C",
"P. c #BB9E61",
"I. c #B09164",
"U. c #B28E6C",
"Y. c #BDA062",
"T. c #CE9041",
"R. c #DE9E41",
"E. c #D19748",
"W. c #C09D5B",
"Q. c #C49B55",
"!. c #C6865E",
"~. c #E19F41",
"^. c #DFA043",
"/. c #DFAB58",
"(. c #E4A242",
"). c #E5A648",
"_. c #E3B25D",
"`. c #D89A6F",
"'. c #CD8C71",
"]. c #CD9775",
"[. c #D89873",
"{. c #D28969",
"}. c #E88C66",
"|. c #C3A363",
" X c #D5A27C",
".X c #E7BC6A",
"XX c #E7BA66",
"oX c #E5A77C",
"OX c #E9AF77",
"+X c #EAC371",
"@X c #F1C873",
"#X c #667F82",
"$X c #6D8385",
"%X c #74898A",
"&X c #7A9191",
"*X c #829897",
"=X c #829897",
"-X c #FDAB86",
";X c #F7A984",
":X c #EBB686",
">X c #FCBB8D",
",X c #F9B489",
"<X c #FEC08F",
"1X c #FFC391",
"2X c #F3CCAF",
"3X c #C4C2C7",
"4X c #F5E6DD",
/* pixels */
"                                                                                                    ",
"                                                                                                    ",
"                                                                                                    ",
"                                    + + + + + . + + + + + + +                                       ",
"                                  N V V V V V V m m m m m m i                                       ",
"                            # # + ' @X+X+X+X+X+X).~.^.^.~.(.v.# # +                                 ",
"                          # G.I.I.' B N N B B B u u u u u u C 6.7.7.3 +           + # @             ",
"                        s k H.Y.|.' 4 6 6 6 6 6 6 6 6 4 1 1 i v.c.c.m 6           6 , @             ",
"                      O ' +Xq + O U ^.^.R.R.R.D.R.R.R.B.5.4.:.# @ # v.v.#     + 3 ~.U +             ",
"                    0 G.' I >.<.>.K._._._._._._._./.^.A.V.e.5.K K K D I <.M + >.<.C.S +             ",
"                  + q @X' + v.).)._..X.X+X.X+X.X+XXXD.^.^.n.4.e.e.e.> 3 (.U + c.D.e.A +             ",
"                  O 0 @X' X v.).+X_.R.^.^.^.^.^.^.^.^.R.~.~.A.4.4.4.> > n.D + 3.e.e.A +             ",
"                # ] ' ' ] Y E._._.^.^.^.R.R.R.R.R.R.R.R.~.R.A.4.4.4.K Z Z L Y A K e.Z +             ",
"              @ # |.|.+ Y )..X.XF.F.^.^.~.R.R.R.R.R.R.R.R.R.A.4.4.4.e.3.+ Y (.3 > e.Z +             ",
"                # |.|.+ Y (.XX.X^.R.F.R.R.R.R.R.R.R.^.~.R.n.n.4.4.e.e.1.+ S r.1 1 e.Z +             ",
"                # |.|.@ Y (.XXXXR.R.R.R.R.R.R.R.^.D.V.V.V.n.4.4.4.4.#.Z @ y $.: : K a +             ",
"                # |.|.+ Y (..X.XR.R.R.R.D.^.R.R.R.S.4.4.4.4.4.4.4.5.1 + # # @ # # #                 ",
"                # |.|.@ Y (..X.X^.F.R.^.R.F.V.m.m.n.e.H > 1 1 < 1 1 H.P.P.P.P.P.J.c.I +             ",
"                # J.Q.+ Y (._._.^.R.R.A.A.A.7.#.#.%.:.I B B N N s i Q._._._._._./.D.T +             ",
"                $ v.v.+ Y (.^.^.R.R.~.n.e.r.S + @ @ O ' @X+X+X+X/.R.t.e.4.e.4.4.e.e.Z +             ",
"                # Q.J.. Y (.(.^.(.<.m t t t U H.H.G.<.c.T.Z.T.T.N.t.h t t t y y y y 6               ",
"                # |.W.@ Y (.B.v.v.U 7 5 3 , i.+XXXXXR.n.:.1.1.1.1.1.s 8 8 , + + + +                 ",
"                # v.v.@ Y (.6 @ . ] +X+XXXR.B.e.e.e.r.J . @ @ $ % % '.;X;X` +                       ",
"                # v.v.@ 6 I i.i.>.c.E.E.T.V.:.m D M a T a.a.` @ + @ / a.>Xp.+ @                     ",
"                # 6.6.: $ : |.XX(.M.2.2.2.2.D + @ # % a.-X-X[.7 7 , % N 1Xh.% & &                   ",
"                + $ u Z.Z.T.M.r.r.H $ $ $ $ o h w P [.;X>X>X>X:X:X,X:X:X>X}.;.0.-.#                 ",
"              m L I Y N.A.C.$.H K t @ ) ` ` P j j &.-X>X1X1X>X1X].h.2X2X1X}.w.w.=.# @               ",
"            + Y ).(.D.5.5.2.1 + @ + # {.-X-Xk.@.O.,.>X1X>X1X1X1Xp.+ 3X4X1X}.9.w.=.#                 ",
"            + S m.m.2.1 > > y p p < # [.1X1X!.@.@.f.1X1X1X1X1X1Xp.O 7 ( 1X}.9.w.=.#                 ",
"            + a #.#.S @ $ < w g j y < h.L.L.s.G @.,.`.`.[.>X1X1XU./ 6 d [.k.9.w.=.#                 ",
"                @ @ @ @ 2 e e g O.J f & + + 4 f @.+.+.O.O.:X1X1X>X1X,.O.+.=.9.w.=.# @               ",
"                        & > J O.+.F h g.j.j.u.e g j g G +.f.d.d.d.d.&.O.F a r r r                   ",
"                          # h J +.F g [.-X-Xj.O.g f f F @.G G G @.G @.G p < + + +                   ",
"                            @ > +.J g oX1X1X,XoX@.f f f g g g g g f g p # @                         ",
"                              : 2 4 <  X1X1X<X>X{.s.< < < < < < < < < >                             ",
"                                + + # ].:X:X:X:XoXL.= # + @ + @ + @ @ +                             ",
"                                      % 5 x.x.x.c z  .Q X                                           ",
"                                    # k k k x l.x v ^ ! Q =                                         ",
"                                  # # x b # l l.l.R l ^ ..9 $                                       ",
"                                    @ # ; R R l.c l . ( &XK.6.$                                     ",
"                                    @ 5 k z.R b k 5 ~ ..&XI.i.# #                                   ",
"                                  @ % b z.l.v l * W &X&X&X#X} #                                     ",
"                                + [ ].[.I.c k @ X.$X&X%X#X#X} % #                                   ",
"                                + p.1X-X].k 9 W %X&X%X#X| { ! @                                     ",
"                                + y.-X;X{.@ { *X&X&X.. . .- @                                       ",
"                                  s / / s . 7 Q %X&X..! 9                                           ",
"                                    + + # = = = | $X#X~ *                                           ",
"                                      + =  . . .- W &X$X| - +                                       ",
"                                    # 4 t _ ( W = 7 ( _ ` d y #                                     ",
"                                  # @ p g e o O     X r +.+.J # @                                   "
};
