/* XPM */
static char *__resized[] = {
/* columns rows colors chars-per-pixel */
"50 50 176 2 ",
"   c None",
".  c #030305",
"X  c #06070A",
"o  c #0B060A",
"O  c #07080B",
"+  c #09090E",
"@  c #19130D",
"#  c #0D0C13",
"$  c #0C0E1A",
"%  c #100E17",
"&  c #110F18",
"*  c #0E1113",
"=  c #0E111F",
"-  c #13121C",
";  c #191518",
":  c #1C1A1B",
">  c #181315",
",  c #230D13",
"<  c #2D0D13",
"1  c #310C16",
"2  c #2D1918",
"3  c #3C131D",
"4  c #38280C",
"5  c #0F1428",
"6  c #0E1325",
"7  c #141422",
"8  c #1C1D25",
"9  c #12162B",
"0  c #191C29",
"q  c #16182A",
"w  c #171B31",
"e  c #181C33",
"r  c #171E3C",
"t  c #191E39",
"y  c #321F20",
"u  c #172C2F",
"i  c #1F2132",
"p  c #1D2A33",
"a  c #19203F",
"s  c #1D3437",
"d  c #1F373A",
"f  c #222223",
"g  c #322322",
"h  c #3D2325",
"j  c #372A2C",
"k  c #212232",
"l  c #2B2736",
"z  c #2D2B32",
"x  c #232639",
"c  c #23283A",
"v  c #392B32",
"b  c #20343B",
"n  c #45101E",
"m  c #531B19",
"M  c #551D17",
"N  c #621F1E",
"B  c #422B0E",
"V  c #41230A",
"C  c #5A2115",
"Z  c #59380D",
"A  c #66390C",
"S  c #793709",
"D  c #672615",
"F  c #481420",
"G  c #521720",
"H  c #49282A",
"J  c #512C32",
"K  c #543236",
"L  c #5D393B",
"P  c #66363D",
"I  c #76470E",
"U  c #6F4414",
"Y  c #7B5212",
"T  c #1A2344",
"R  c #1B2448",
"E  c #2A2E45",
"W  c #2B3245",
"Q  c #233D42",
"!  c #2D3149",
"~  c #2B3745",
"^  c #31354F",
"/  c #333753",
"(  c #343954",
")  c #373D59",
"_  c #3A3F5E",
"`  c #523A46",
"'  c #6B3E45",
"]  c #274549",
"[  c #28464B",
"{  c #244044",
"}  c #334247",
"|  c #2C4851",
" . c #38425D",
".. c #3B4361",
"X. c #3D4B66",
"o. c #3E4F68",
"O. c #395465",
"+. c #3E526A",
"@. c #375C65",
"#. c #366066",
"$. c #3D6C73",
"%. c #3F7178",
"&. c #4B4D53",
"*. c #484A4D",
"=. c #694D4C",
"-. c #744D4F",
";. c #60545D",
":. c #7D6158",
">. c #415D71",
",. c #416273",
"<. c #446B7A",
"1. c #43737D",
"2. c #44787F",
"3. c #6E6E74",
"4. c #913A13",
"5. c #AB3D18",
"6. c #8D4C14",
"7. c #8E5911",
"8. c #845511",
"9. c #905410",
"0. c #944614",
"q. c #A24D0D",
"w. c #A14211",
"e. c #B74418",
"r. c #BE481B",
"t. c #AF5E1A",
"y. c #B26612",
"u. c #D75B09",
"i. c #C34E12",
"p. c #CC5215",
"a. c #C35D1E",
"s. c #DE5A10",
"d. c #E65F08",
"f. c #DE6D0E",
"g. c #C36517",
"h. c #D26412",
"j. c #D97310",
"k. c #EB630C",
"l. c #F3660C",
"z. c #FB6B0A",
"x. c #FC730C",
"c. c #F4770E",
"v. c #E66613",
"b. c #ED7E12",
"n. c #E77215",
"m. c #935A5D",
"M. c #885B59",
"N. c #806158",
"B. c #946965",
"V. c #9B736B",
"C. c #AE7974",
"Z. c #D78618",
"A. c #F78012",
"S. c #AF897C",
"D. c #B8887F",
"F. c #467681",
"G. c #477C84",
"H. c #487F87",
"J. c #7C7F85",
"K. c #498088",
"L. c #948A95",
"P. c #93979E",
"I. c #B49D98",
"U. c #9C9AA3",
"Y. c #A19DA7",
"T. c #A5A6AE",
"R. c #ACACB6",
"E. c #CA988B",
"W. c #DBA798",
"Q. c #E5B1A1",
"!. c #E9B4A2",
"~. c #EEB9A6",
"^. c #B9BAC4",
"/. c #BEC1CA",
"(. c #D2D5E0",
"). c #DBE1EB",
/* pixels */
"                                                                                                    ",
"                                                                                                    ",
"                                                                                                    ",
"                                                                                                    ",
"                                                                                                    ",
"                                              .   D y.U 0.y.                                        ",
"                                              < D e.v.g.e.h.I Z @                                   ",
"                                            B 6.p.l.l.x.l.l.l.f.8.                                  ",
"                                          7.j.x.z.z.z.z.z.z.z.x.Z.4                                 ",
"                                        A b.k.p.l.z.z.z.l.z.z.x.A.I                                 ",
"                                        A q.a.n.z.z.l.l.z.z.x.A.x.7.                                ",
"                                        Y Z.x.z.z.z.r.a.z.z.z.b.x.9.                                ",
"                                          D s.z.k.5.t.c.k.u.e.4.h.S                                 ",
"                                          1 D v.w.U h.i.-.=.3 M 4.                                  ",
"                                            V i.m 2 m G I.I.P H                                     ",
"                                            4 C n ' B.V.Q.!.E.B.:                                   ",
"                                              o n 2 I.W.!.!.!.D.:                                   ",
"                                                1 , K m.W.Q.W.:.                                    ",
"                                              - 1 H P J L M.=.                                      ",
"                                          { @.$.} , 1 h                                             ",
"                                        b ,.H.H.F.[ Q u                                             ",
"                                      | +.F.H.F.1.F.K.[                                             ",
"                                    p >.1.K.F.X. .X.F.[                                             ",
"                                  0 c O.K.H.1.W ( ..G.|                                             ",
"                                ]  .b $.H.H.2.^ c ..<.$.                                            ",
"                              b 1.k Q K.F.H.<._ x ) ,.F.s                                           ",
"                              ] ,.i { K.K.K.>._ x / o.<.#.s                                         ",
"                              c / i  .+.<.1.+._ E k ) ..<.1.@.[ [ { * V.E.:.j                       ",
"                                W > k ( ......../ # ^ .. .>.F.G.K.1.> C.!.:.>                       ",
"                                ; H H j l l l l k X 0 x ^ ) ..X.>.O.# H L h                         ",
"                                  Q } j g g g 2 >         0 k E / ! X                               ",
"                                  $.H.%.$.$.) / ^ +             X +                                 ",
"                                  $.K.H.K.G.+._ ( #                                                 ",
"                                * O.<.F.<.>..._ _ E                                                 ",
"                                + !  ....._ .._ / #                                                 ",
"                                    0 k e k k k e r $                                               ",
"                                      . # % & & 7 T 6 .                                             ",
"                                        . . # - - 7 a 9                                             ",
"                                        o $ - - 7 e R 6                                             ",
"                                      # - - - - t R R 9                                             ",
"                                    $ 7 - - 7 w R R T 6                                             ",
"                                6 r R T t e T R R r $ X                                             ",
"                                r R R R R R R e 9 $ O .                                             ",
"                              &.W T T R R T w % # & #                                               ",
"                            > ^.T.8 7 w q 7 # # & &                                                 ",
"                            K.U.j o + - - & # - & .                                                 ",
"                            /.:.      # # f 8 + #                                                   ",
"                          z P.v         f U.L.j                                                     ",
"                            :             ` L./.H                                                   ",
"                                          R.(.(.T.3.&.                                              "
};
