/* XPM */
static char *__resized[] = {
/* columns rows colors chars-per-pixel */
"50 50 188 2 ",
"   c None",
".  c #020203",
"X  c #050409",
"o  c #0B070C",
"O  c #0A090F",
"+  c #080406",
"@  c #170B0B",
"#  c #1C110C",
"$  c #060810",
"%  c #0C0B13",
"&  c #0C0E1A",
"*  c #0F0311",
"=  c #110F18",
"-  c #100E17",
";  c #13121C",
":  c #19191D",
">  c #24180A",
",  c #2A0B14",
"<  c #390D19",
"1  c #29161B",
"2  c #2A1617",
"3  c #3B1419",
"4  c #2D100E",
"5  c #0B0F20",
"6  c #0D1223",
"7  c #0F1428",
"8  c #141521",
"9  c #141C22",
"0  c #131629",
"q  c #15182C",
"w  c #1C1D2B",
"e  c #1F1F25",
"r  c #151A33",
"t  c #181C34",
"y  c #171F3E",
"u  c #191E39",
"i  c #231E21",
"p  c #281F27",
"a  c #331D20",
"s  c #3C1D25",
"d  c #1B202D",
"f  c #142325",
"g  c #1F2232",
"h  c #18203B",
"j  c #1C3134",
"k  c #2E212B",
"l  c #202123",
"z  c #322323",
"x  c #3E2629",
"c  c #34252D",
"v  c #202334",
"b  c #2A2D33",
"n  c #26293B",
"m  c #28293A",
"M  c #22343D",
"N  c #26393E",
"B  c #333439",
"V  c #430C19",
"C  c #571A1A",
"Z  c #47290F",
"A  c #6B2C17",
"S  c #623911",
"D  c #723218",
"F  c #792E18",
"G  c #431924",
"H  c #481B26",
"J  c #50222D",
"K  c #4D2B32",
"L  c #532B32",
"P  c #463337",
"I  c #563437",
"U  c #422729",
"Y  c #663638",
"T  c #78460E",
"R  c #5A433D",
"E  c #1A2243",
"W  c #1C2549",
"Q  c #302E40",
"!  c #2B3247",
"~  c #233D42",
"^  c #2D334B",
"/  c #293D49",
"(  c #333445",
")  c #31344F",
"_  c #323651",
"`  c #343A55",
"'  c #393E5D",
"]  c #373C5A",
"[  c #2A2E46",
"{  c #5A3F47",
"}  c #6B3A41",
"|  c #254145",
" . c #2B4349",
".. c #2D4752",
"X. c #3A435F",
"o. c #364B5A",
"O. c #2E5257",
"+. c #3B4261",
"@. c #3B4A63",
"#. c #345C62",
"$. c #3E536A",
"%. c #395662",
"&. c #3E6D74",
"*. c #3E7077",
"=. c #514A51",
"-. c #4E5154",
";. c #53555A",
":. c #60494A",
">. c #734147",
",. c #6C544E",
"<. c #795D56",
"1. c #405B6F",
"2. c #5C5C61",
"3. c #405D71",
"4. c #625C63",
"5. c #416375",
"6. c #446C7A",
"7. c #43737C",
"8. c #6D6E74",
"9. c #71757A",
"0. c #903E0A",
"q. c #82281E",
"w. c #843D13",
"e. c #963817",
"r. c #A53816",
"t. c #854B13",
"y. c #92461D",
"u. c #895711",
"i. c #945910",
"p. c #A5470B",
"a. c #BB5B0E",
"s. c #B74A1B",
"d. c #996213",
"f. c #A36412",
"g. c #B96810",
"h. c #D55B0C",
"j. c #CB5212",
"k. c #CC5518",
"l. c #C4581D",
"z. c #D25213",
"x. c #E05A11",
"c. c #C3650F",
"v. c #DF720F",
"b. c #DF6514",
"n. c #DA7213",
"m. c #EA670E",
"M. c #F4660C",
"N. c #FB6A0A",
"B. c #F36B0D",
"V. c #F6710D",
"C. c #FB740D",
"Z. c #F1780F",
"A. c #E56B10",
"S. c #F37410",
"D. c #855C59",
"F. c #805253",
"G. c #8E6362",
"H. c #936763",
"J. c #AA7F75",
"K. c #B27B77",
"L. c #B17674",
"P. c #D88219",
"I. c #EF8213",
"U. c #F78312",
"Y. c #B9857D",
"T. c #467681",
"R. c #477B84",
"E. c #487E86",
"W. c #867B86",
"Q. c #488088",
"!. c #488087",
"~. c #BF9485",
"^. c #9F9AA4",
"/. c #A29BA6",
"(. c #AEB2BA",
"). c #B4B5BE",
"_. c #AAA7B3",
"`. c #D2988E",
"'. c #D69E92",
"]. c #D7A596",
"[. c #E4B09F",
"{. c #EBB6A4",
"}. c #ECB8A5",
"|. c #E5B1A0",
" X c #E8CAB7",
".X c #C7CBD5",
"XX c #D3D6E1",
"oX c #DDE4EE",
/* pixels */
"                                                                                                    ",
"                                                                                                    ",
"                                                                                                    ",
"                                                                                                    ",
"                                                        S     t.                                    ",
"                                                  o @ C s.P.D b.i.                                  ",
"                                                  2 F z.h.B.A.j.A.c.T                               ",
"                                                f.g.A.M.N.N.N.N.N.C.I.u.                            ",
"                                              i.C.N.M.M.N.N.N.N.N.N.U.d.                            ",
"                                            > a.k.l.A.N.N.N.N.N.N.C.C.n.>                           ",
"                                              t.n.S.N.N.M.k.B.N.N.V.C.v.>                           ",
"                                              A M.N.N.M.s.P.C.N.N.h.p.h.>                           ",
"                                              3 e.j.B.e.y.Z.k.y.A C p.0.                            ",
"                                                * 0.j.Z T r.Y _.I a 3                               ",
"                                                  w.q.a K J G. XY.<.z                               ",
"                                                  # < G H.].|.{.}.|.,.                              ",
"                                                    , , z K.'.}.{.'.P                               ",
"                                                    , G K L F.K.].Y.                                ",
"                                            f | ..O.k 3 } } a 2 I U                                 ",
"                                          | 7.!.!.Q.#.3 3 1                                         ",
"                                        9 #.Q.R.E.E.*.H V                                           ",
"                                      | &.7.$.@.$.R.*.G V                                           ",
"                                    #.R.E.@.g ^ &.R.*.G V                                           ",
"                                  j 7.R.3.! v X.R.R.*.H <                                           ",
"                                ; o.6.$.) m ' 3.R.R.E.~ +                                           ",
"                                v 5.5.` = _ ' 3.E.E.E.~                                             ",
"                                8 ..R.5.~ ^ ' 3.E.E.E.~ .                                           ",
"                                  d 6.Q.7./ _ X.3.T.R.~ % ;                                         ",
"                                  = %.R.E.6.f ) _ ` X.~ g ` g X                                     ",
"                                    _ 1.7.E.#.i z a 1 p ) ' ] _ m 8 R <.z                           ",
"                                    v ] @.o.:.<.z b  . . .M ^ ` ! B Y.L.U                           ",
"                                    X w ^ P '.}.~.( 3.R.T.&.M = 5 I L.>.@                           ",
"                                    8 v n ( { J.<.m +.+.! v h h 0 k x                               ",
"                                    g ] ' ' _ Q _ ] ] w - - q t E E r &                             ",
"                                    X g ' ' +.' X.` d - ; - ; ; r E W 7                             ",
"                                    & ; ( ( m m v ; % O O % % % 8 u r &                             ",
"                                  $ 0 e (.).{ ;.r r t ; ; ; ; ; u E &                               ",
"                                  $ 0 b .X/.c B u W W t t t q q y r                                 ",
"                                  6 6 2.W.p - % y W E y r 0 5   $                                   ",
"                                & r % ;.i & ; O 6 6 5                                               ",
"                                0 E & B : = ;                                                       ",
"                                r W 8 = ; ; = X                                                     ",
"                              X h u ; ; 8 ; %                                                       ",
"                              6 E t ; ; = = X                                                       ",
"                              u q ; ; ; ; - .                                                       ",
"                                X o O O O                                                           ",
"                                -.9.B .                                                             ",
"                                4./.=..                                                             ",
"                              l (..XW.1                                                             ",
"                              : .XoXXX^.8.-.                                                        "
};
