/* XPM */
static char *__resized[] = {
/* columns rows colors chars-per-pixel */
"50 50 192 2 ",
"   c None",
".  c #010203",
"X  c #060609",
"o  c #09080E",
"O  c #1B0C0D",
"+  c #150709",
"@  c #1A130A",
"#  c #070912",
"$  c #0D0C13",
"%  c #0B0E1A",
"&  c #130C14",
"*  c #110F18",
"=  c #1B0E12",
"-  c #0D101C",
";  c #0F1B1D",
":  c #051010",
">  c #151115",
",  c #14121C",
"<  c #101C1E",
"1  c #18161A",
"2  c #2B130D",
"3  c #390B16",
"4  c #360E18",
"5  c #29171A",
"6  c #3E141D",
"7  c #311E1F",
"8  c #38171B",
"9  c #2F1010",
"0  c #0E1223",
"q  c #0F1428",
"w  c #141421",
"e  c #12162A",
"r  c #16182B",
"t  c #1B1D2A",
"y  c #161825",
"u  c #161A31",
"i  c #181C33",
"p  c #171E3C",
"a  c #181F3D",
"s  c #2B1F25",
"d  c #3C1922",
"f  c #142224",
"g  c #1A262D",
"h  c #16202B",
"j  c #1E2232",
"k  c #19203E",
"l  c #1A2436",
"z  c #1D3337",
"x  c #2C222B",
"c  c #21202F",
"v  c #322020",
"b  c #3D2225",
"n  c #222434",
"m  c #2D2B34",
"M  c #232639",
"N  c #242A3B",
"B  c #2B2735",
"V  c #392C35",
"C  c #23353C",
"Z  c #303134",
"A  c #323338",
"S  c #4E0D1C",
"D  c #43101C",
"F  c #5A1E1A",
"G  c #512F0E",
"H  c #49320D",
"J  c #5A2316",
"K  c #6A3D0E",
"L  c #762B16",
"P  c #7A2918",
"I  c #603810",
"U  c #712C10",
"Y  c #570F20",
"T  c #521020",
"R  c #5C1224",
"E  c #601224",
"W  c #45282D",
"Q  c #46262C",
"!  c #522B32",
"~  c #4C3138",
"^  c #5A3438",
"/  c #573437",
"(  c #6A430E",
")  c #7B460E",
"_  c #6A4513",
"`  c #1A2344",
"'  c #1B2548",
"]  c #2B2E44",
"[  c #2B3147",
"{  c #2E334B",
"}  c #293B45",
"|  c #32354C",
" . c #363642",
".. c #2F3E50",
"X. c #323651",
"o. c #343A55",
"O. c #373C5A",
"+. c #3A3F5E",
"@. c #483C44",
"#. c #653C41",
"$. c #29494D",
"%. c #294449",
"&. c #32454B",
"*. c #2C4C52",
"=. c #3A415F",
"-. c #364B5E",
";. c #2E5257",
":. c #34575D",
">. c #3B4361",
",. c #3C4C65",
"<. c #345B61",
"1. c #3E536B",
"2. c #3C5D6B",
"3. c #385967",
"4. c #3A666C",
"5. c #3D6B72",
"6. c #3D6771",
"7. c #3F7077",
"8. c #5A4C55",
"9. c #634B46",
"0. c #7E474E",
"q. c #665049",
"w. c #415E72",
"e. c #645861",
"r. c #446B7A",
"t. c #426576",
"y. c #43747C",
"u. c #626569",
"i. c #707378",
"p. c #893D17",
"a. c #864C0E",
"s. c #8F4716",
"d. c #895310",
"f. c #855912",
"g. c #AB4415",
"h. c #B44316",
"j. c #AB5F10",
"k. c #8F6013",
"l. c #A16111",
"z. c #C35C0F",
"x. c #C95415",
"c. c #D85612",
"v. c #DB6B0F",
"b. c #DF710F",
"n. c #C46814",
"m. c #D96816",
"M. c #EC610D",
"N. c #F3650C",
"B. c #FB6A0A",
"V. c #FC730C",
"C. c #FC7A0E",
"Z. c #E36B10",
"A. c #E26011",
"S. c #EC7312",
"D. c #EF7E11",
"F. c #805153",
"G. c #896967",
"H. c #926461",
"J. c #986A65",
"K. c #907066",
"L. c #9F7870",
"P. c #B47A77",
"I. c #EE8313",
"U. c #FC8110",
"Y. c #FF9115",
"T. c #467681",
"R. c #477C84",
"E. c #487F87",
"W. c #7B7F84",
"Q. c #498189",
"!. c #488087",
"~. c #86888F",
"^. c #8A8E94",
"/. c #90959B",
"(. c #BB9083",
"). c #9F9AA4",
"_. c #A298A4",
"`. c #9EA2A9",
"'. c #B1ABB6",
"]. c #A7AAB2",
"[. c #D69E92",
"{. c #C79288",
"}. c #CBA092",
"|. c #D9A697",
" X c #ECB8A5",
".X c #E9B4A2",
"XX c #BABBC5",
"oX c #C3C9D2",
"OX c #CFD5DF",
"+X c #D3D4DF",
"@X c #D6DAE4",
"#X c #DDE3ED",
/* pixels */
"                                                                                                    ",
"                                                                                                    ",
"                                                                                                    ",
"                                                                                                    ",
"                                                                                                    ",
"                                                        I     K                                     ",
"                                                    O 2 g.d.J n.H                                   ",
"                                                    L h.c.Z.v.A.b.l.H                               ",
"                                                  l.v.N.B.B.B.B.B.V.)                               ",
"                                                D.V.N.B.B.B.B.B.B.V.d.@                             ",
"                                              a.x.x.m.B.B.B.B.B.B.V.I.f.                            ",
"                                              ( n.D.B.B.N.m.C.B.B.U.Y.k.                            ",
"                                              _ m.B.B.B.x.m.C.B.M.z.b.d.                            ",
"                                                J h.M.g.s.S.x.p.F L U                               ",
"                                                  3 g.2 U P ^ G.d 8                                 ",
"                                                  G P & W ! G.}.J.9.                                ",
"                                                  @ 6 D H.|..X.X X(.                                ",
"                                                    9 R Q P.[..X XK.                                ",
"                                                <   O 4 Q ! 0.{.|.q.                                ",
"                                            ;.:.y.C S O 0.^ 7 W /                                   ",
"                                        < 4.R.R.E.&.Y O #.5                                         ",
"                                    z <.y.r.t.1.1.2.d D D                                           ",
"                                z 6.y.r.2.o.M { t.T.V E 3                                           ",
"                                6.!.t.=.X.y { =.R.!.&.Y 3                                           ",
"                              z T.T.>.[ r ] +.w.R.E.&.S 8 =                                         ",
"                              $.E.t.o.*   ] >.T.E.E.5.y C g           9.H.5                         ",
"                            :.T.T.>.|     X.>.T.E.E.5.; C -.*.      : q.P.0.                        ",
"                            %.E.R.>.M   t O.=.2.R.E.7.f g o.o.f f $.2. .F.^                         ",
"                            <.!.r.=.n   * [ =.>.1.w.R.4.N +.=.4.r.w.>.| >                           ",
"                          ; 5.E.2.=.n   & s B B ] o.2.6.N =.+.,.w.>.=.X.                            ",
"                            { ,.>.o.n t ] x 7 7 v s x [ * X.>.+.=.| M t                             ",
"                              e s ~ G.A @.O.o.-.:.&.%.%.f n O.n i                                   ",
"                                b P.L.{ +.+.+.w.!.E.!.!.;.g j .                                     ",
"                                7 ^ V O.+.+.+.1.R.E.:.} t p k e                                     ",
"                                    e [ =.+.+.>.r.<.< $ w i a ' a 0                                 ",
"                                  # 0 w n ] X.X...g * w , * r ' ' q                                 ",
"                                # p u > * * * $ o o * > , , , i ' q                                 ",
"                                q ` r , , , o         . # , , ` ' q                                 ",
"                                u ` w , , * .           $ , r ` ` -                                 ",
"                              - ` i , , , $             * i ' ' a                                   ",
"                              e ` , , , * X           * , i ' ' k #                                 ",
"                            u ` i , , , *           o , , i ' ` q                                   ",
"                          o e u y , , $ X           $ , w a ` a .                                   ",
"                          # , , , w , o             # , , w i e                                     ",
"                          & > - , * $                 $ , * > %                                     ",
"                          ^.i.A X                     /.~.> .                                       ",
"                        m XXW.>                     Z oX+XV .                                       ",
"                        ].).@.                        i.`._.e.                                      ",
"                      u.@X@X8.+                           u.u.Z                                     ",
"                      Q.#X#X'.#.                            . .                                     "
};
