/* XPM */
static char *__resized[] = {
/* columns rows colors chars-per-pixel */
"50 50 178 2 ",
"   c None",
".  c #030204",
"X  c #060508",
"o  c #0A090E",
"O  c #120D0E",
"+  c #110508",
"@  c #19110C",
"#  c #070912",
"$  c #0D0C14",
"%  c #0B0E19",
"&  c #110F18",
"*  c #110F17",
"=  c #0E101B",
"-  c #0F1A1B",
";  c #0D1116",
":  c #1B1315",
">  c #14121C",
",  c #121B1E",
"<  c #191A1B",
"1  c #280B13",
"2  c #3A0F1A",
"3  c #2D1A1C",
"4  c #35121C",
"5  c #3B121B",
"6  c #371A19",
"7  c #3C290C",
"8  c #36201E",
"9  c #0E1326",
"0  c #151423",
"q  c #1B1B24",
"w  c #10162B",
"e  c #14192D",
"r  c #1B1D2B",
"t  c #131A21",
"y  c #151A32",
"u  c #181C34",
"i  c #171E3C",
"p  c #181F3B",
"a  c #381821",
"s  c #182427",
"d  c #1F2132",
"f  c #19203F",
"g  c #1F363A",
"h  c #27252B",
"j  c #352423",
"k  c #392A29",
"l  c #212435",
"z  c #272937",
"x  c #23373D",
"c  c #313335",
"v  c #382A35",
"b  c #421D0F",
"n  c #40151E",
"m  c #501D11",
"M  c #572F13",
"N  c #743308",
"B  c #672719",
"V  c #481D25",
"C  c #541021",
"Z  c #422426",
"A  c #45262C",
"S  c #4F2831",
"D  c #542A32",
"F  c #4F3133",
"G  c #563336",
"H  c #702322",
"J  c #60363B",
"K  c #67420F",
"L  c #70470F",
"P  c #6B4112",
"I  c #1A2344",
"U  c #1B2448",
"Y  c #2A2D44",
"T  c #233D42",
"R  c #2D324A",
"E  c #2B3544",
"W  c #31354F",
"Q  c #323651",
"!  c #343954",
"~  c #373C59",
"^  c #3A3F5E",
"/  c #623940",
"(  c #733E46",
")  c #264247",
"_  c #274348",
"`  c #29494D",
"'  c #384146",
"]  c #2B4C50",
"[  c #314355",
"{  c #3B405F",
"}  c #314C58",
"|  c #33545C",
" . c #3B4362",
".. c #3C4964",
"X. c #3E526A",
"o. c #345C62",
"O. c #3A656D",
"+. c #3D6C73",
"@. c #3F7077",
"#. c #48454A",
"$. c #474D52",
"%. c #5D5059",
"&. c #5A5A5F",
"*. c #6A4648",
"=. c #76484B",
"-. c #67504A",
";. c #70504C",
":. c #7E5655",
">. c #405A6F",
",. c #5C5F63",
"<. c #415D71",
"1. c #675B64",
"2. c #426174",
"3. c #436D7A",
"4. c #426877",
"5. c #407077",
"6. c #43747D",
"7. c #43787F",
"8. c #7B6F79",
"9. c #6F7277",
"0. c #72747A",
"q. c #893715",
"w. c #9E3A15",
"e. c #A33D16",
"r. c #894913",
"t. c #924016",
"y. c #8B5510",
"u. c #945811",
"i. c #9C470A",
"p. c #BD510D",
"a. c #A44616",
"s. c #A65916",
"d. c #B66311",
"f. c #A34023",
"g. c #C54E15",
"h. c #DC5613",
"j. c #E25D11",
"k. c #C16712",
"l. c #D26215",
"z. c #DB7511",
"x. c #EA620D",
"c. c #F5670C",
"v. c #FB6B0A",
"b. c #F66A0B",
"n. c #E8720E",
"m. c #FC720C",
"M. c #F27B0F",
"N. c #E96811",
"B. c #E47114",
"V. c #F87B10",
"C. c #845356",
"Z. c #916662",
"A. c #9C6A67",
"S. c #957369",
"D. c #856A72",
"F. c #A87671",
"G. c #BA837D",
"H. c #467681",
"J. c #477B84",
"K. c #487E86",
"L. c #797C81",
"P. c #877E88",
"I. c #488087",
"U. c #488189",
"Y. c #938F98",
"T. c #BB9083",
"R. c #A2A7AE",
"E. c #AAA8B2",
"W. c #B5B6BF",
"Q. c #CB998D",
"!. c #C68A85",
"~. c #DAA698",
"^. c #E2AD9D",
"/. c #EAB5A3",
"(. c #EAB5A3",
"). c #C3C3CD",
"_. c #C3C9D2",
"`. c #E0E7F1",
/* pixels */
"                                                                                                    ",
"                                                                                                    ",
"                                                                                                    ",
"                                                                                                    ",
"                                                      s.@ q.u.                                      ",
"                                                  m w.l.u.p.k.P                                     ",
"                                                @ a.j.c.m.b.b.B.L                                   ",
"                                                y.M.v.v.v.v.v.m.y.                                  ",
"                                              d.N.j.v.v.v.v.v.v.d.                                  ",
"                                              p.f.B.v.v.v.v.m.V.z.7                                 ",
"                                              y.z.v.v.j.M.v.v.M.z.7                                 ",
"                                              B x.v.g.s.m.v.h.q.i.                                  ",
"                                              2 e.x.q.d.x.a.B B N                                   ",
"                                                b a.M w.B D.*.a                                     ",
"                                                P H D / C.~.~.*.                                    ",
"                                                  2 D Q.^.(.(.T.                                    ",
"                                                  1 5 C.!./.(.S.                                    ",
"                                                  + a S J F.Q.-.                                    ",
"                                        , s _ ] O.h V ( Z 3 F                                       ",
"                                    , +.+.5.K.U.U.' 5 A C                                           ",
"                                  | 3.H.H.H.2.<.H.o.a 5 5 s                                         ",
"                                ) K.4.>. . .~ d R o.a 1 x T               ;.Z.                      ",
"                                o.H.>.^ ! Y d r ~ +.4 h O.T             k G.Z.                      ",
"                              g 7.O.~ Y >   d  .6.7.c T ~ E |       ` +.$.F.G                       ",
"                              ] J...! >     W { <.K.+.T t W 2._ - O.K.<.! A                         ",
"                              +.H. .Y     q ~ ^ <.K.@.x % W X.3.5.H.3. .~ q                         ",
"                            ) K.<.~ q     Y { { ..H.K._   r ~ ..<. . .~ ~ r                         ",
"                            o.J.X.!     O z W ~  .4.H._     Y ~ { { ~ ! R                           ",
"                            } X.~ Y     3 Z 8 h Y ~ ~ ,       r l l r                               ",
"                            u !  .l   > W l O 8 8 : Y                                               ",
"                            : v z q   d ^ ~ ! R c j :                                               ",
"                            k A.(     z  .{ ~ ..5.O.,                                               ",
"                              S.;.    Q ^ ^ { { <.H.+._                                             ",
"                                      ~ { ^ { ~  .>.4.T e                                           ",
"                                    % d l ! ! ! Y d z w I 9                                         ",
"                                    e e & & $ $ * * 0 i I i #                                       ",
"                                    i u > > & X * > > 0 0 u w                                       ",
"                                  # i 0 > > o   o > > > u I y                                       ",
"                                  y u > > $       # > 0 I I I %                                     ",
"                                % r > > > $         $ 0 f I U e                                     ",
"                            o $ 0 > > > & X         $ & w I U i                                     ",
"                      < 0.E.q > > > > > X           o 0 0 f U U 9                                   ",
"                    0._.P.8.h > > > > $             * & > f U U y                                   ",
"                    R.E.#.$.o > > > > o           X & 0 > u U U f #                                 ",
"                  ' W.%..     > > > >               $ > 0 0 p Y i                                   ",
"                  0.P.        O > > o                 o $ O & u r                                   ",
"                  ,.#.        $ > $                       X X L.L.                                  ",
"                                o o                         h Y.1.                                  ",
"                                                              S.).%.                                ",
"                                                              U.`.E.&.                              "
};
