/* XPM */
static char *__resized[] = {
/* columns rows colors chars-per-pixel */
"50 50 176 2 ",
"   c None",
".  c #030203",
"X  c #0B070C",
"o  c #09080D",
"O  c #080308",
"+  c #1B0C0B",
"@  c #12060A",
"#  c #060810",
"$  c #0B0B12",
"%  c #1C0E11",
"&  c #110F18",
"*  c #0C101F",
"=  c #0C1316",
"-  c #13121C",
";  c #1A141B",
":  c #191A1D",
">  c #151517",
",  c #2D130C",
"<  c #271208",
"1  c #3B1E0E",
"2  c #330D13",
"3  c #3C0C17",
"4  c #370E18",
"5  c #2A1517",
"6  c #3D111B",
"7  c #341E1B",
"8  c #0F1428",
"9  c #0F1427",
"0  c #151523",
"q  c #12162A",
"w  c #1B1E2C",
"e  c #181924",
"r  c #161C33",
"t  c #161E3B",
"y  c #191E3A",
"u  c #241D23",
"i  c #331B22",
"p  c #361721",
"a  c #122022",
"s  c #192C2F",
"d  c #1E2231",
"f  c #18203F",
"g  c #1B2F32",
"h  c #232229",
"j  c #2A262A",
"k  c #3D292A",
"l  c #372427",
"z  c #212636",
"x  c #24263A",
"c  c #2A2839",
"v  c #332B33",
"b  c #21323A",
"n  c #313234",
"m  c #353739",
"M  c #510F1F",
"N  c #41101D",
"B  c #4F290B",
"V  c #4A320D",
"C  c #66201A",
"Z  c #752C17",
"A  c #603810",
"S  c #441E25",
"D  c #5F1225",
"F  c #412B29",
"G  c #472929",
"H  c #5F352E",
"J  c #502A30",
"K  c #473834",
"L  c #5C3439",
"P  c #67363A",
"I  c #1A2344",
"U  c #1B2448",
"Y  c #2A2D44",
"T  c #322F43",
"R  c #223E42",
"E  c #2E324A",
"W  c #2A3D4A",
"Q  c #2B3847",
"!  c #30344E",
"~  c #3C394E",
"^  c #333752",
"/  c #333954",
"(  c #373B59",
")  c #3A3F5E",
"_  c #453441",
"`  c #543D44",
"'  c #28464B",
"]  c #29484D",
"[  c #274549",
"{  c #32474E",
"}  c #2B4B50",
"|  c #35415B",
" . c #38435D",
".. c #2E5156",
"X. c #3B4462",
"o. c #3A4D63",
"O. c #365262",
"+. c #345C62",
"@. c #395A68",
"#. c #3C656E",
"$. c #366269",
"%. c #3D6B72",
"&. c #3F6271",
"*. c #3D7076",
"=. c #57575C",
"-. c #644646",
";. c #69524A",
":. c #77534F",
">. c #6B5554",
",. c #795E57",
"<. c #415E72",
"1. c #426174",
"2. c #446C7A",
"3. c #417279",
"4. c #66676C",
"5. c #6A617F",
"6. c #6F7378",
"7. c #7F757F",
"8. c #8D3A0C",
"9. c #802D1B",
"0. c #873F19",
"q. c #A53C14",
"w. c #8B490D",
"e. c #8D4616",
"r. c #8A5311",
"t. c #825010",
"y. c #995E11",
"u. c #925314",
"i. c #B9590E",
"p. c #AA4518",
"a. c #B34316",
"s. c #A15B17",
"d. c #976212",
"f. c #BF650E",
"g. c #C0500C",
"h. c #CA5317",
"j. c #D95813",
"k. c #C7640E",
"l. c #DF6414",
"z. c #D96A15",
"x. c #D97210",
"c. c #EC610D",
"v. c #E4660F",
"b. c #F56A0C",
"n. c #FB6B0A",
"m. c #F3650C",
"M. c #FB730D",
"N. c #F9780E",
"B. c #E26B11",
"V. c #E57614",
"C. c #F07F12",
"Z. c #80454E",
"A. c #835655",
"S. c #8E6260",
"D. c #9A6966",
"F. c #98736C",
"G. c #A16F6B",
"H. c #FF8912",
"J. c #A78075",
"K. c #BF807D",
"L. c #467681",
"P. c #477C84",
"I. c #487F87",
"U. c #7B7D83",
"Y. c #867887",
"T. c #488088",
"R. c #8B8790",
"E. c #999DA4",
"W. c #C89288",
"Q. c #C9A49C",
"!. c #D8A697",
"~. c #E3AE9D",
"^. c #EBB6A4",
"/. c #ECB8A5",
"(. c #C0C5CE",
"). c #C6CAD3",
/* pixels */
"                                                                                                    ",
"                                                                                                    ",
"                                                                                                    ",
"                                                                                                    ",
"                                                A   r.d.                                            ",
"                                            + , p.u.a.V.                                            ",
"                                            Z a.j.B.j.j.k.t.                                        ",
"                                          d.z.c.n.n.n.n.n.x.                                        ",
"                                        r.C.b.n.n.n.n.n.n.V.V                                       ",
"                                        i.h.v.n.n.n.n.n.n.N.r.                                      ",
"                                        y.B.M.n.m.l.n.n.M.H.r.                                      ",
"                                        s.b.n.n.h.z.M.n.v.k.w.                                      ",
"                                        4 p.c.q.0.j.p.0.C 8.B                                       ",
"                                        X , g.1 k.8.U.Y.5 <                                         ",
"                                          B 9.+ H P Q.Q.:.l                                         ",
"                                            N N S.~.^./.~.,.                                        ",
"                                              D L !.^./.!.K                                         ",
"                                            @ 4 J -.G.W.G.                                          ",
"                                        ' +.5 + Z.P % F k                                           ",
"                                      a 3.L.v 3 P S                                                 ",
"                                      +.P.I.{ M S 6 %                                               ",
"                                    ] P.P.L.#.; 3 p g                                               ",
"                                  R 3.P.o./ @.: 2 j [ s                                             ",
"                                } 3.P.o.Y  .L.%.b W W O.                                            ",
"                              ..P.P.<.x ^ 1.I.T.] d ! &.}                                           ",
"                              } I.L.X.x  .3.I.T.} d / X.&.+.' R -.F.;.                              ",
"                              %.I.<.Y Y =.&.T.T.%.w / ) X.<.P.*.-.K.:.                              ",
"                            : %.I.<.I E / o.3.3.%.= Y / ) ) &.@.l J i                               ",
"                              %.I.2./ u k c Y | b     - d Y / x                                     ",
"                              W I.L.X.T 7 7 G G 5           $                                       ",
"                              x &.L.X./ 0 d k F 5                                                   ",
"                              q ( X./ ` F.~ @.$.a                                                   ",
"                                ! E e D.~.>.| L.[                                                   ",
"                                $ w E K ` ~ ) #.s                                                   ",
"                                    e w 0 r w r q                                                   ",
"                                      . X X q U I #                                                 ",
"                                        & - 0 f t                                                   ",
"                                        $ - - 0 t 9                                                 ",
"                                          & - 0 y 8                                                 ",
"                                        X - - 0 y 9                                                 ",
"                                      . o - w I I $                                                 ",
"                                    $ o - q I U t                                                   ",
"                                : - - $ - y U U t                                                   ",
"                              n E.h $ $ 0 I U U q                                                   ",
"                              6.).j $ - - t U U 8                                                   ",
"                              E.Y.; $ $ - 0 I I *                                                   ",
"                            m R.i . $ o $ - r t                                                     ",
"                            n =.        j U.u O                                                     ",
"                              >           (.Y.@                                                     ",
"                                          (.).7.4.                                                  "
};
