/* XPM */
static char *L2FhqD7__2__2__dragged__resized[] = {
/* columns rows colors chars-per-pixel */
"50 50 180 2 ",
"   c None",
".  c #0D111F",
"X  c #0D1423",
"o  c #121524",
"O  c #1A1424",
"+  c #151A25",
"@  c #1B1B24",
"#  c #231B25",
"$  c #2D1E24",
"%  c #162125",
"&  c #1B2127",
"*  c #192528",
"=  c #1A3429",
"-  c #222126",
";  c #2B2425",
":  c #2C2A2A",
">  c #24262B",
",  c #342223",
"<  c #352A25",
"1  c #322D29",
"2  c #382A26",
"3  c #393129",
"4  c #372A32",
"5  c #26323C",
"6  c #343230",
"7  c #223728",
"8  c #63371E",
"9  c #6B391E",
"0  c #402927",
"q  c #4B2E22",
"w  c #402722",
"e  c #443326",
"r  c #493425",
"t  c #4C3B2A",
"y  c #513021",
"u  c #5A3420",
"i  c #563C27",
"p  c #543E29",
"a  c #583828",
"s  c #48393A",
"d  c #603620",
"f  c #663920",
"g  c #683A20",
"h  c #683D29",
"j  c #1E402B",
"k  c #25482B",
"l  c #23532D",
"z  c #2C532C",
"x  c #325B2C",
"c  c #305739",
"v  c #35632D",
"b  c #376D32",
"n  c #397330",
"m  c #5D4127",
"M  c #56442E",
"N  c #574D3C",
"B  c #574935",
"V  c #5A503E",
"C  c #74422A",
"Z  c #7E462A",
"A  c #724D28",
"S  c #734626",
"D  c #7D5328",
"F  c #6B5231",
"G  c #675132",
"H  c #755731",
"J  c #745A35",
"K  c #447D31",
"L  c #497E39",
"P  c #4B693A",
"I  c #353F47",
"U  c #583E40",
"Y  c #38494F",
"T  c #3D4D54",
"R  c #5A4542",
"E  c #40545B",
"W  c #5E5048",
"Q  c #634544",
"!  c #66544A",
"~  c #79574E",
"^  c #436346",
"/  c #706245",
"(  c #786544",
")  c #706E4A",
"_  c #4E666B",
"`  c #5C6C70",
"'  c #5A767A",
"]  c #5A7478",
"[  c #596D62",
"{  c #6B7E7E",
"}  c #617779",
"|  c #804729",
" . c #83482A",
".. c #894B2B",
"X. c #894927",
"o. c #855728",
"O. c #865829",
"+. c #96662E",
"@. c #856335",
"#. c #8E6936",
"$. c #956C36",
"%. c #9A7137",
"&. c #A26629",
"*. c #AE6D2A",
"=. c #A4682A",
"-. c #B06F2A",
";. c #B3702A",
":. c #BD762B",
">. c #BD782D",
",. c #A57839",
"<. c #B77A32",
"1. c #C37A2C",
"2. c #C97F2D",
"3. c #C07E31",
"4. c #89764E",
"5. c #856C5A",
"6. c #BF7C5D",
"7. c #B47558",
"8. c #B47B66",
"9. c #43812D",
"0. c #468231",
"q. c #4E8435",
"w. c #4C853B",
"e. c #5A8856",
"r. c #618E5E",
"t. c #5F846A",
"y. c #6D9074",
"u. c #749175",
"i. c #BD853A",
"p. c #C7802F",
"a. c #C8802F",
"s. c #C78131",
"d. c #C98433",
"f. c #CD8935",
"g. c #CB8B39",
"h. c #C58D3C",
"j. c #D18C36",
"k. c #D28E38",
"l. c #CD933E",
"z. c #D4923A",
"x. c #DC9B3F",
"c. c #D9973C",
"v. c #BC866A",
"b. c #C38C43",
"n. c #CD9341",
"m. c #DE9E41",
"M. c #D19A4B",
"N. c #D39440",
"B. c #C89B51",
"V. c #E19F40",
"C. c #DFA043",
"Z. c #DAA54F",
"A. c #DAA552",
"S. c #E3A142",
"D. c #E0A54A",
"F. c #E6A94B",
"G. c #E2AA51",
"H. c #E5B35D",
"J. c #D99B7C",
"K. c #D6B46C",
"L. c #E5B660",
"P. c #E7BD6C",
"I. c #E9BE6B",
"U. c #E3A37A",
"Y. c #E3BE70",
"T. c #EAC16E",
"R. c #ECC472",
"E. c #6D8283",
"W. c #7F8A85",
"Q. c #749381",
"!. c #799588",
"~. c #7E9592",
"^. c #7F9898",
"/. c #829795",
"(. c #829997",
"). c #839999",
"_. c #E6A381",
"`. c #FFAD87",
"'. c #FFB088",
"]. c #FFCA96",
/* pixels */
"                                                                                                    ",
"                                                                                                    ",
"                                                                                                    ",
"                                        o X X X X X X X o o                                         ",
"                                        o : V N N N B M > o                                         ",
"                                  o + + X V R.T.R.R.L.S.M X o o o                                   ",
"                            X X M ,.+.O.+ V R.H.Z.F.D.S.M @ O.+.,.M X o                             ",
"                          3 3 3 J F.g.;.@ N R.G.x.x.x.S.M @ ;.f.S.H < < 1                           ",
"                        X $.m.m.Z.R.l.-.@ V R.G.C.m.m.S.M @ -.d.C.x.c.1.o.X                         ",
"                    X t $.B.H.H.H.G.f.*.@ B H.C.m.m.m.S.M @ -.d.m.m.m.z.<.D e X                     ",
"                    - G F.H.P.T.H.x.d.*.@ M D.C.m.m.m.S.M @ -.d.m.m.m.S.z.1.i @                     ",
"                o - h.A.T.Z.C.C.C.S.d.*.@ V R.F.x.m.m.S.M @ *.d.m.m.m.m.l.:.:.*.@ o                 ",
"                o - l.G.R.G.m.m.x.C.d.;.@ B H.S.m.m.x.S.M @ *.d.C.m.m.C.z.:.:.;.- o                 ",
"                @ : N.A.T.G.m.x.C.x.d.*.@ M V.x.m.m.m.S.M @ -.d.m.m.m.m.z.:.:.;.; @                 ",
"              X #.l.P.H.C.C.x.C.m.m.d.-.@ M S.m.m.m.m.S.M @ -.d.m.m.m.m.z.:.:.:.-.D X               ",
"              X %.F.P.H.C.C.C.x.m.m.d.-.@ M S.m.m.m.x.S.M @ *.d.m.m.m.m.z.:.>.>.1.O.X               ",
"              X %.F.I.H.m.m.m.m.m.C.d.-.@ M S.m.m.m.m.S.M @ -.d.m.m.m.m.z.:.:.:.1.o.X               ",
"              X %.S.D.D.m.m.m.m.m.m.d.-.@ M S.x.m.m.x.S.M @ -.a.m.m.m.S.z.:.:.:.1.O.X               ",
"              X $.c.z.c.m.m.m.m.m.m.d.-.@ M S.m.m.m.m.S.M @ -.d.m.m.x.z.f.:.1.:.1.o.o               ",
"              X o.1.:.d.V.m.m.m.m.m.d.-.@ M S.m.m.m.m.S.M @ -.d.m.S.x.1.:.:.:.1.1.O.o               ",
"          X X o < r e A f.d.d.d.j.S.d.-.@ M S.x.m.m.m.S.M @ -.a.S.j.d.1.:.:.A 3 e < X X +           ",
"          6 6 6 1 1 : p =.=.&.&.<.c.d.-.@ M S.m.m.m.m.S.M @ -.d.c.<.+.=.=.=.m : : 1 1 : 1           ",
"      o > K.Y.Y.A.m.m.$.X o o o r a.1.;.@ M S.m.m.m.m.S.M & ;.1.2.r X X + X $.C.m.m.m.x.l.- +       ",
"      o - b.M.M.g.d.f.i.4.4.4.@.H m m i o p j.f.f.f.f.f.p X m m m H @.@.@.@.<.f.f.d.d.g.i.@ o       ",
"      o & =.-.*.-.-.*.b.I.I.I.S.%.@ & & X r -.-.-.-.*.-.r X & - + %.S.S.V.V.p.*.*.*.*.*.=.# o       ",
"      o + # # @ # # O p g.2.2.3.n.K.A.i.@ o @ @ @ @ @ @ . & h.l.n.s.a.2.2.2.i @ # # @ # # o +       ",
"        O o 1 ~ 4 O 0 t C A A A $.A.N.d.( / / / / F F F F H d.l.k.+.A A A A r , O 4 ~ 4 O o         ",
"          o Q `.Q O  .h o o o X e >.:.>.I.R.R.R.T.S.S.S.S.V.:.;.:.e X o o X q 8 O Q `.Q o           ",
"          . Q `.U O |  .C C C C a : : 2 <.f.d.d.d.a.a.a.a.:.2 ; ; q u u u u d d O Q `.Q .           ",
"          o U 8.U O  ...........h 2 , , D o.O.O.O.O.O.O.O.D < ; $ y f f f f 9 d O s 8.s o           ",
"              O O @ | ..............9 d + o o o o X o o o @ d 8 f 9 f f f f f d # O O               ",
"                    , a ........ .9 g f y y y y r y y r y y 8 8 f f f f f f 2 $                     ",
"                    o , h |  . .C 9 f f f g f g f g f g f f f f f f 9 f u u $ o                     ",
"                        O y g f g g g g 8 8 8 f 8 8 8 8 d d f g f g f g q O                         ",
"                          $ , , , , , 0 7.6.6.6.6.6.6.6.7.7.0 , , , , , ,                           ",
"                          O O O + & @ : J._.U.U.U.U.U.U._._.> + + O O O +                           ",
"                              X 7 0.K L /.u.q.q.q.q.q.q.[ ] z l l * o                               ",
"                            @ k x 0.0.w.~.y.0.0.0.0.0.0.t.y.b b b k = +                             ",
"                          + * L 0.K 0.q.~.y.0.0.0.0.0.0.y./.w.K K v l + o                           ",
"                        X z K 0.v % v q.~.y.0.0.0.0.0.K y./.w.v % k l o o                           ",
"                      s ! ^ n n z o ^ r./.Q.e.w.0.0.w.e.Q.^.e.c X j l + O                           ",
"                    X ! ].) l x j . ` ).(.(.).e.0.0.e.(.^.^.' E o j l + o                           ",
"                    X R '.J.v.7 + X ` ).(.(.(.!.Q.Q.!.^.^.^.E.T o % *                               ",
"                    X B v.v.8.> o o ` (.E.E.E.~.(.(.~.E.E.E.' E o o o                               ",
"                        X o o     o ` ~.T Y Y { ).).{ Y Y T ] T o                                   ",
"                                  o ` (.E.} _ T I I T _ _ _ ] T o                                   ",
"                                  o [ /.W.{ _ 5 . X 5 _ ] ' ' E o                                   ",
"                                  . q g g r o         o ] ).' T +                                   ",
"                                                      o W 5.! s X                                   ",
"                                                      o a ..9 q o                                   "
};
