/* XPM */
static char *d6dkea2_482fe7a3_f5b0_4f14_81a1_9c7dead570a3_5__dragged__resized[] = {
/* columns rows colors chars-per-pixel */
"50 50 25 1 ",
"  c None",
". c black",
"X c #091618",
"o c #2B2119",
"O c #2D3634",
"+ c #4B3B26",
"@ c #61442A",
"# c #6F4F29",
"$ c #3E4940",
"% c #495B43",
"& c #6D5C4C",
"* c #677F64",
"= c #826136",
"- c #B16A3D",
"; c #BF7C37",
": c #957A50",
"> c #967B51",
", c #E28E38",
"< c #928873",
"1 c #928874",
"2 c #C8A072",
"3 c #E8B660",
"4 c #B1AA9A",
"5 c #DDC191",
"6 c #F3E0CA",
/* pixels */
"                                                  ",
"                                                  ",
"                          # #;                    ",
"                         #3;#3;#                  ",
"                      ;#;;;3;3;3;                 ",
"                     #3;3;#;;;;3;#                ",
"                     #;;3#;3;;;;;#                ",
"                     #;#;;3;#;;#;#                ",
"                     ###;#;#;;;###+&              ",
"                     ######;#;####+1&             ",
"                   +++##########++14&+            ",
"                 &+1&1++&####+++41&14+O           ",
"                +41&&4&14++++41&4&4&4+,           ",
"                OOO114&&114111&1141&&+X           ",
"               X,%$O+&14&&11&&14&1&1&+X           ",
"              X%-*%%++&4141&411&&&&&++X           ",
"              X***,%+++&11&11&1&&&&+++            ",
"              =***%O+&&++&&&&&&&&&++&+            ",
"              X::==O+&&&&+++++++++&&&+            ",
"              XOOOO==+&&&&&&&&&&&&&&&+            ",
"              X@*OOOO+&1&&&&&&&&1&&1&+            ",
"               o@=@@@+&4&&&&11111&&1&+            ",
"                XXXXX+&411&&14441&&41&+           ",
"               &&2522+&141&&14441&141&+           ",
"               X11&&&+&141&&11441&144&+           ",
"               X1111&+&1441&11XXX&1441+           ",
"               X6,oOO+&1441&XX11X&1441+           ",
"               X,-o$$++144XX&&11X&1441&+          ",
"                Xo$%%X+&XX&&&&XX&14441&+          ",
"                X%%ooXXX&111XX11&11141&+          ",
"       .....    oooo-X&11&XX&&1&1111111&+         ",
"    O..&&&&&.   X%%$X&&&XX411&&&111&&&&&+         ",
"    O.&&&++++.  X**%X&XX+&411&&11&&&+++++         ",
"    .<&&+OOOO+XX&X---X--++111&&&&+++++  +         ",
"   .<<<+O$$$XX+&&&XXXX---+111+&++X                ",
"   .<<&O$%$$X+++&XX X-----+&&++$OX                ",
"   .<&O$-%$$X++XX    X-OOO-+++OOX                 ",
"   .<&O$%%%$$XX.     XO$$$XXXXXX                  ",
"    .&&O$%%%$OO&&.  XXO$$$$X                      ",
"     ...$%-$O&&&&&.X*X>=>>>X                      ",
"       .$$$O&&&&&&&.$$$$$$$X                      ",
"        .$O<<&&,,,,&.$$$OOOX                      ",
"        ..<<<<,%%%$,.OOOOOX                       ",
"        .&<<<,%%$$$-.XXXXX                        ",
"        .&&<,%$,-O$-.                             ",
"        .&&,%$,*O.-.                              ",
"         .&,%$-%*O.                               ",
"          .,$$O.%*.                               ",
"           .,---..O                               ",
"            ...                                   "
};
