/* XPM */
static char *d6dkea2_482fe7a3_f5b0_4f14_81a1_9c7dead570a3_12__dragged__resized[] = {
/* columns rows colors chars-per-pixel */
"50 50 25 1 ",
"  c None",
". c black",
"X c #091618",
"o c #2B2119",
"O c #2D3634",
"+ c #4B3B26",
"@ c #61442A",
"# c #6F4F29",
"$ c #3E4940",
"% c #495B43",
"& c #6D5C4C",
"* c #677F64",
"= c #826136",
"- c #B16A3D",
"; c #BF7C37",
": c #957A50",
"> c #967B51",
", c #E28E38",
"< c #928873",
"1 c #928874",
"2 c #C8A072",
"3 c #E8B660",
"4 c #B1AA9A",
"5 c #DDC191",
"6 c #F3E0CA",
/* pixels */
"                                                  ",
"                           # #;                   ",
"                          #3;#3;#                 ",
"                       ;#;;;3;3;3;                ",
"                      #3;3;#;;;;3;#               ",
"                      #;;3#;3;;;;;#               ",
"                      #;#;;3;#;;#;#               ",
"                      ###;#;#;;;###+&             ",
"                      ######;#;####+1&            ",
"                    +++##########++14&+           ",
"                  &+1&1++&####+++41&14+O          ",
"                 +41&&4&14++++41&4&4&4+,          ",
"                 OOO114&&114111&1141&&+X          ",
"                X,%$O+&14&&11&&14&1&1&+X          ",
"               X%-*%%++&4141&411&&&&&++X          ",
"               X***,%+++&11&11&1&&&&+++           ",
"               =***%O+&&++&&&&&&&&&++&+           ",
"               X::==O+&&&&+++++++++&&&+           ",
"               XOOOO==+&&&&&&&&&&&&&&&+           ",
"               X@*OOOO+&1&&&&&&&&1&&1&+           ",
"                o@=@@@+&4&&&&&1111&&1&+           ",
"                 XXXXX+&411&&&1141&&41+           ",
"                &&2522+&141&&&1141&141+           ",
"                X11&&&+&141&&&1441&141&+          ",
"                X1111&+&141&&&1XXX&141&+          ",
"                X6,oOO+&141&&XX11X&141&+          ",
"                X,-o$$+&144XX&&11X&141&+          ",
"                 Xo$%%X+1XX&&&&XX&&141&+          ",
"                 X%%ooXXX&11&XX11&&441&+          ",
"        .....    oooo-X&11&XX&&11&1441&+          ",
"     O..&&&&&.   X%%$X&&&XX41&&11&1411&+          ",
"     O.&&&++++.  X**%X&XX+141&&&1&111&&+          ",
"     .<&&+OOOO+XX&X---XX++&441&+&+11&+++          ",
"    .<<<+O$$$XX+&&&XXXX--++141&+&+++++++          ",
"    .<<&O$%$$X+++&XX  X---+111&+++OOX&&+          ",
"    .<&O$-%$$X++XX    X-OOO+&&++O$$OX             ",
"    .<&O$%%%$$XX.      X$$$O+++$$$$OX             ",
"     .&&O$%%%$OO&&.    X$$$$$XXOOOOX              ",
"      ...$%-$O&&&&&.   X=>>>=X XXXX               ",
"        .$$$O&&&&&&&.XX>$$$$$X                    ",
"         .$O<<&&,,,,&.$$$OOO$X                    ",
"         ..<<<<,%%%$,.$OOOOOOX                    ",
"         .&<<<,%%$$$-.OOOOOOX                     ",
"         .&&<,%$,-O$-.XXXXXXX                     ",
"         .&&,%$,*O.-.                             ",
"          .&,%$-%*O.                              ",
"           .,$$O.%*.                              ",
"            .,---..O                              ",
"             ...                                  ",
"                                                  "
};
