/* XPM */
static char *L2FhqD7__2__4__dragged__resized[] = {
/* columns rows colors chars-per-pixel */
"50 50 176 2 ",
"   c None",
".  c #0D111F",
"X  c #0D1423",
"o  c #121524",
"O  c #1A1424",
"+  c #151B25",
"@  c #1B1B24",
"#  c #231B25",
"$  c #2D1E24",
"%  c #162125",
"&  c #1C2027",
"*  c #192528",
"=  c #1B3829",
"-  c #222126",
";  c #2B2425",
":  c #24232B",
">  c #2C2A2A",
",  c #242D2C",
"<  c #342223",
"1  c #352A25",
"2  c #322D29",
"3  c #382A26",
"4  c #393129",
"5  c #372A32",
"6  c #26323C",
"7  c #343230",
"8  c #223728",
"9  c #63371E",
"0  c #6B391E",
"q  c #402927",
"w  c #4B2E22",
"e  c #402722",
"r  c #443326",
"t  c #493425",
"y  c #4C3B2A",
"u  c #513021",
"i  c #5A3420",
"p  c #563C27",
"a  c #543E29",
"s  c #583828",
"d  c #47373A",
"f  c #603620",
"g  c #663920",
"h  c #683A20",
"j  c #683D29",
"k  c #1E412B",
"l  c #25482B",
"z  c #24542D",
"x  c #27572E",
"c  c #3A563B",
"v  c #2E5930",
"b  c #34632D",
"n  c #376D32",
"m  c #5D4127",
"M  c #56442E",
"N  c #574D3C",
"B  c #564838",
"V  c #5A503E",
"C  c #74422A",
"Z  c #7E462A",
"A  c #724D28",
"S  c #734626",
"D  c #7D5328",
"F  c #6B5231",
"G  c #675132",
"H  c #755731",
"J  c #745A35",
"K  c #447D31",
"L  c #497E39",
"P  c #353F47",
"I  c #583E40",
"U  c #38494F",
"Y  c #3D4D54",
"T  c #5B4542",
"R  c #40545C",
"E  c #414D52",
"W  c #634544",
"Q  c #694C48",
"!  c #77594E",
"~  c #635447",
"^  c #436346",
"/  c #6F6044",
"(  c #706245",
")  c #786544",
"_  c #6E724B",
"`  c #4E666C",
"'  c #59696B",
"]  c #5C6C70",
"[  c #5A767B",
"{  c #587174",
"}  c #597961",
"|  c #677B7D",
" . c #804729",
".. c #83482A",
"X. c #894B2B",
"o. c #855728",
"O. c #865829",
"+. c #96662E",
"@. c #856335",
"#. c #8E6936",
"$. c #956C36",
"%. c #9A7137",
"&. c #A26629",
"*. c #AE6D2A",
"=. c #A4682A",
"-. c #B06F2A",
";. c #B3702A",
":. c #BD762B",
">. c #BD782D",
",. c #A57839",
"<. c #B77A32",
"1. c #C37A2C",
"2. c #C97F2D",
"3. c #C07E31",
"4. c #89764E",
"5. c #BF7C5D",
"6. c #B47558",
"7. c #B27965",
"8. c #BA7F69",
"9. c #43812D",
"0. c #468231",
"q. c #4F8436",
"w. c #4C853B",
"e. c #5A8856",
"r. c #618E5E",
"t. c #5F846A",
"y. c #6D9074",
"u. c #749175",
"i. c #BD853A",
"p. c #C7802F",
"a. c #C8802F",
"s. c #C78131",
"d. c #C98433",
"f. c #CD8935",
"g. c #CB8B39",
"h. c #C58D3C",
"j. c #D18C36",
"k. c #D28E38",
"l. c #CD933E",
"z. c #D4923A",
"x. c #DC9B3F",
"c. c #D9973C",
"v. c #BC866A",
"b. c #C38C43",
"n. c #CD9341",
"m. c #DE9E41",
"M. c #D19A4B",
"N. c #D39440",
"B. c #C89B51",
"V. c #E19F40",
"C. c #DFA043",
"Z. c #DAA54F",
"A. c #DAA552",
"S. c #E3A142",
"D. c #E0A54A",
"F. c #E6A94B",
"G. c #E2AA51",
"H. c #E5B35D",
"J. c #D99A7B",
"K. c #D6B46C",
"L. c #E5B660",
"P. c #E7BD6C",
"I. c #E9BE6B",
"U. c #E3A37A",
"Y. c #E3BE70",
"T. c #EAC16E",
"R. c #ECC472",
"E. c #6D8283",
"W. c #749381",
"Q. c #799588",
"!. c #7E9592",
"~. c #829795",
"^. c #829997",
"/. c #839999",
"(. c #E6A381",
"). c #FFAC87",
/* pixels */
"                                                                                                    ",
"                                                                                                    ",
"                                                                                                    ",
"                                        o X X X X X X X o o                                         ",
"                                        o > V N N V B M ; o                                         ",
"                                  o + + X V R.T.R.R.H.S.M X o o o                                   ",
"                            X X M ,.+.O.+ V R.H.D.D.D.V.M @ O.$.,.M X X                             ",
"                          4 4 4 J F.g.;.@ N R.G.m.C.x.V.M @ ;.f.D.H 2 1 1                           ",
"                        X $.m.m.Z.R.l.-.@ V R.F.x.C.m.V.M @ ;.d.m.m.x.1.D X                         ",
"                    X y $.B.H.H.H.G.g.*.@ M H.D.x.C.m.S.M @ -.d.m.m.m.z.<.D r X                     ",
"                    - G F.H.P.T.H.m.d.*.@ M D.m.m.m.m.S.M @ -.d.m.m.m.S.z.1.p -                     ",
"                o - h.A.T.Z.C.C.C.C.d.*.@ V T.F.x.C.m.V.M @ -.d.m.m.m.m.z.:.:.=.@ o                 ",
"                o - l.G.R.G.m.m.x.C.d.-.@ B H.D.m.m.m.V.M @ *.d.C.m.m.C.z.:.:.;.- o                 ",
"                @ > N.A.T.G.m.x.m.m.d.-.@ M V.V.m.m.m.S.M @ *.d.m.m.m.m.z.:.:.;.; @                 ",
"              X #.l.P.H.C.C.x.C.m.m.d.-.@ M S.m.m.m.m.S.M @ *.d.m.m.m.m.z.:.:.:.-.D X               ",
"              X %.F.P.H.C.C.C.x.m.m.d.-.@ M V.m.m.m.m.V.M @ *.d.m.m.m.m.z.:.>.>.1.O.X               ",
"              X %.D.I.L.m.m.m.m.m.V.d.-.@ M V.m.m.m.m.S.M @ *.d.C.x.m.C.k.:.:.:.1.o.X               ",
"              X %.S.D.D.m.m.m.m.m.m.d.-.@ M S.m.m.m.m.V.M @ *.d.m.m.m.S.z.:.:.:.1.O.X               ",
"              X $.c.z.c.m.m.m.m.m.m.d.*.@ M S.m.m.m.m.S.M @ *.d.S.m.x.z.g.:.1.:.1.o.o               ",
"              X O.1.:.d.V.m.m.m.m.m.d.-.@ M V.m.m.m.m.S.M & *.d.m.V.x.1.:.:.:.1.1.O.o               ",
"          X X o 3 r r A f.d.d.d.k.V.d.-.@ M V.m.m.m.m.S.M @ *.d.V.k.d.1.:.1.A r r 1 X X +           ",
"          7 7 7 2 1 > M =.&.&.&.<.x.d.-.@ M V.V.m.m.m.V.M @ *.a.c.<.+.=.&.&.M > > 2 2 2 2           ",
"      o : K.Y.Y.A.x.x.$.X o o o t a.1.;.@ M V.V.m.m.m.S.M @ ;.1.1.t X + o . $.C.m.x.x.x.l.- o       ",
"      o - b.M.M.g.f.f.i.4.4.4.@.H m m p o M f.f.f.f.f.j.y + m m m H @.@.@.@.<.f.d.g.g.d.i.@ +       ",
"      + & &.*.*.-.-.*.b.I.I.I.S.%.* & @ X t -.*.-.-.-.-.t . & & @ %.S.V.V.V.1.*.-.*.-.-.=.@ o       ",
"      o + # # @ # # O p d.2.2.1.n.K.Z.i.@ o @ @ @ @ @ @ o & i.z.n.s.a.2.1.a.M @ # # O # # + o       ",
"        o O 3 ! 5 O 5 s A A A A $.A.N.g.) ( ( ( / F F F F H l.g.k.+.A A A A t < O 5 ! 5 o +         ",
"          o W ).W O ..j o o o X t ;.:.>.I.R.R.R.T.S.V.S.V.x.:.:.:.r X X o o w 9 O W ).W o           ",
"          o W ).W #  . .C C C Z s ; > 3 >.g.d.d.d.a.a.a.a.>.4 ; ; w i i i i f f O W ).W o           ",
"          o I 7.d O  .X.X.X.X.X.j 3 < < D o.o.o.O.O.O.O.O.D < ; ; u 0 g g g h f O d 8.d o           ",
"              o O @  .X.X.X.X.X.X.X.j 9 @ o X X X + + o X @ f 9 g g g g g g g f O O O               ",
"                    < u X.X.X.X...j h h u u t u u u t u u u 9 9 g g g g g h e $                     ",
"                    o < j Z  . .C h h g h h h h h h h h h h g g g g g g g u < O                     ",
"                        # u h g h h h h 9 f f g 9 9 9 9 9 i g 0 g g 0 h w o                         ",
"                          $ < < < < < 3 6.5.5.5.5.5.5.5.5.6.q < < < < < <                           ",
"                          O O O @ @ @ > J.(.U.U.U.U.U.U.(.J.> + @ o O o +                           ",
"                              X 8 K K L ~.u.q.q.L q.q.q.} ] v z z * X                               ",
"                            @ l b 0.0.w.~.y.9.9.q.K 0.0.t.E.n n n l = +                             ",
"                          o % K 0.K 9.w.Q.y.9.9.9.0.0.0.y.!.w.0.K b z + o                           ",
"                          o + x l % b q.~.y.9.9.0.0.0.9.y.!.w.b & l z z = X                         ",
"                          o + z k o ^ r.~.W.e.e.9.9.e.e.u.!.e.Y X k x x c Q d                       ",
"                          + + z k X ] /.~.~./.e.9.9.e././.Q.[ R X k x x _ ).T X                     ",
"                              * % X ] /.^.^.^.Q.u.W.Q././.!.[ R o % , v.J.).T X                     ",
"                              o o o ] ^.E.E.E.!.!./.!.E.E.E.[ R o X # 7.8.8.T X                     ",
"                                  o ] !.Y U U | /.^.| U U Y { R o     o o +                         ",
"                                  X ] ^.E.| ` Y U U Y ` ` ` { Y .                                   ",
"                                  o { !.!.E.` 6 . X 6 ` ' ' ' E +                                   ",
"                                  X R [ [ Y o         o t j h t X                                   ",
"                                  o T ( ~ d o                                                       ",
"                                  o j X.g e o                                                       "
};
