/* XPM */
static char *Background__1__resized[] = {
/* columns rows colors chars-per-pixel */
"50 50 220 2 ",
"   c None",
".  c #141A25",
"X  c #1D1D25",
"o  c #1B1927",
"O  c #2D1E23",
"+  c #241C29",
"@  c #162426",
"#  c #1A2628",
"$  c #1C3229",
"%  c #1E3B2A",
"&  c #1D2831",
"*  c #232125",
"=  c #2B2325",
"-  c #28252B",
";  c #352223",
":  c #342A26",
">  c #332C2A",
",  c #3A2929",
"<  c #263A2A",
"1  c #3D332A",
"2  c #39312A",
"3  c #222A34",
"4  c #232C37",
"5  c #3A2A34",
"6  c #243735",
"7  c #373636",
"8  c #61371F",
"9  c #64381F",
"0  c #442B23",
"q  c #4C2D22",
"w  c #452A27",
"e  c #502F21",
"r  c #423226",
"t  c #4C3223",
"y  c #46392B",
"u  c #4C3C2B",
"i  c #483629",
"p  c #533222",
"a  c #5C3520",
"s  c #543B26",
"d  c #5C3B27",
"f  c #523D2A",
"g  c #583729",
"h  c #413C35",
"j  c #493638",
"k  c #553C3A",
"l  c #663920",
"z  c #6A3B21",
"x  c #643C29",
"c  c #6A3E29",
"v  c #613720",
"b  c #713E23",
"n  c #26462B",
"m  c #2C542D",
"M  c #31582D",
"N  c #314F33",
"B  c #36692E",
"V  c #3E7131",
"C  c #3D6E30",
"Z  c #54412C",
"A  c #59442C",
"S  c #444739",
"D  c #5B4A33",
"F  c #564538",
"G  c #5C513D",
"H  c #4C4D35",
"J  c #634427",
"K  c #6B4927",
"L  c #64452A",
"P  c #69452B",
"I  c #654B2D",
"U  c #6B4B2A",
"Y  c #7C4529",
"T  c #734E2A",
"R  c #754227",
"E  c #6B502F",
"W  c #73532E",
"Q  c #7C542B",
"!  c #7F592D",
"~  c #664C39",
"^  c #6E5432",
"/  c #665236",
"(  c #715531",
")  c #7B5C33",
"_  c #725C3B",
"`  c #704530",
"'  c #437933",
"]  c #446738",
"[  c #79603C",
"{  c #2E3C46",
"}  c #323E47",
"|  c #583E40",
" . c #334145",
".. c #36474C",
"X. c #3F6144",
"o. c #5A4643",
"O. c #45545B",
"+. c #575755",
"@. c #525340",
"#. c #684947",
"$. c #77564A",
"%. c #6B554A",
"&. c #4C7645",
"*. c #516F50",
"=. c #776446",
"-. c #696B50",
";. c #495C63",
":. c #4E6267",
">. c #54676A",
",. c #586D71",
"<. c #5D7578",
"1. c #66797B",
"2. c #6D7167",
"3. c #854A2B",
"4. c #884B2B",
"5. c #855B2C",
"6. c #895C2B",
"7. c #825E32",
"8. c #8D583C",
"9. c #825138",
"0. c #8F622E",
"q. c #94642D",
"w. c #9B652B",
"e. c #9C6A2F",
"r. c #8C6433",
"t. c #85663A",
"y. c #936934",
"u. c #9B6C32",
"i. c #936C39",
"p. c #9C723B",
"a. c #A56D2E",
"s. c #AA6C2A",
"d. c #B4722B",
"f. c #BD772B",
"g. c #A36E30",
"h. c #A67232",
"j. c #AA7332",
"k. c #A3763B",
"l. c #AB7C3B",
"z. c #A97838",
"x. c #B37A33",
"c. c #BA7E34",
"v. c #B27D39",
"b. c #B47730",
"n. c #B06F2A",
"m. c #C37B2D",
"M. c #C27F30",
"N. c #845C53",
"B. c #9A7844",
"V. c #8C6456",
"C. c #9E795C",
"Z. c #896D4C",
"A. c #A77E41",
"S. c #A3735A",
"D. c #857861",
"F. c #AB7463",
"G. c #43812F",
"H. c #458232",
"J. c #4B8334",
"K. c #64883F",
"L. c #4F8541",
"P. c #528546",
"I. c #56864C",
"U. c #5D8A59",
"Y. c #61865B",
"T. c #6D8A50",
"R. c #5F8460",
"E. c #668D67",
"W. c #6C8F73",
"Q. c #698978",
"!. c #738C79",
"~. c #6D9074",
"^. c #73917C",
"/. c #718562",
"(. c #BC8135",
"). c #B9853C",
"_. c #B6863F",
"`. c #C68433",
"'. c #C78938",
"]. c #CE8E3A",
"[. c #C98836",
"{. c #CF913D",
"}. c #D4923A",
"|. c #DC9A3E",
" X c #D8963C",
".X c #D18E37",
"XX c #948A54",
"oX c #AC8445",
"OX c #AE884B",
"+X c #B78A46",
"@X c #AD8D55",
"#X c #B6865B",
"$X c #AE9056",
"%X c #968965",
"&X c #849376",
"*X c #B98564",
"=X c #A69374",
"-X c #C9964B",
";X c #DE9E41",
":X c #D39C4A",
">X c #C49248",
",X c #E09F41",
"<X c #DDA248",
"1X c #D9A753",
"2X c #CAA35D",
"3X c #E1A042",
"4X c #E1A64B",
"5X c #E2A84E",
"6X c #E3AD54",
"7X c #E3B15A",
"8X c #E7B157",
"9X c #E2B360",
"0X c #CBA660",
"qX c #677E80",
"wX c #6C8282",
"eX c #748A89",
"rX c #769285",
"tX c #7A938D",
"yX c #76918A",
"uX c #7E9492",
/* pixels */
"                                    . o * 7 7 S h 1 2 - @ .                                         ",
"                                  * # * > %.=.=.=.[ / 1 = # # =                                     ",
"                              i y 2 : > F XX2X2X2X-XoXD 1 : : i y                                   ",
"                      = > y D [ y.Q J h G $X7X6X<X<X_.E u f T y.r.A 1 :                             ",
"                    Z H A / [ _.>Xg.Q f @.$X8X4X,X3X).( A K w.'.).) A Z i                           ",
"                  D [ i._.+X+X:X-Xz.Q f ~ $X8X4X,X3X).( A K q.'.].).z.e.Q A r                       ",
"                D t.oX+X1X1X1X1X:Xz.Q f D OX5X4X,X,X).^ A U q.'. X X X'.x.5.J t                     ",
"              I t.OX1X7X9X7X6X<X].h.Q f D oX4X3X,X,X).^ A U q.'.|.|.<X|.[.b.0.z i                   ",
"            1 [ +X:X7X7X<X5X<X<X].a.T Z D oX5X3X,X,X).( A U q.'. X;X,X|.}.(.n.w.s .                 ",
"            Z t.1X8X8X1X,X,X,X,X].a.Q Z D +X5X3X,X,X).( A U q.'.|.;X<X,X.X`.`.d.J X .               ",
"          Z / B.1X8X1X4X<X|.;X;X].a.Q Z D _.<X3X,X,X).( A U q.'.|.|.,X;X.X`.m.d.T 0 :               ",
"        2 D i.+X1X8X5X3X;X,X;X|.].j.T Z A k.,X,X,X,X).( A U q.'.|.|.,X,X.X`.m.f.w.T s :             ",
"        1 ^ +X1X9X6X,X,X,X,X;X|.].j.Q Z A _.|.,X,X,X).( Z K q.'.|.|.,X|..X`.m.f.f.s.K 2 *           ",
"        1 ^ +X1X7X5X<X|.,X|.,X|.].j.Q s Z k.;X;X,X<X).( Z K q.'.|.|.3X,X.X`.f.m.m.n.K : *           ",
"        1 ^ _.:X1X<X<X,X;X;X;X|.].a.Q t A _.,X,X,X3X).( A K q.'.|.|.,X|..X`.f.f.m.n.K : *           ",
"        1 / v.{.|.<X|.,X;X,X;X|.].a.Q Z Z ).3X3X,X,X).( A K q.'.|.|.|.}..Xm.m.f.m.n.K 0 *           ",
"      + : J e.c.`.}.|.|.;X;X;X;X].j.Q Z A _.;X,X;X,X).( A K q.'. X|. X.X`.m.f.n.d.s.J = X           ",
"      = > i 5.q.h.M..X:X}.}.].;X].a.Q s A z.;X;X,X,X).( A K q.'. X}.[.`.f.d.s.w.w.0.s : *           ",
"    N j h u A T Q 0.g.a.g.j.x.`.[.a.Q s A _.3X3X<X,X).^ A K q.[.[.b.s.w.w.w.5.Q U K Z r 1 y         ",
"2 S / $._ _ ^ W W ) Q Q 5.5.0.g.j.q.T i A z.,X|.,X,X).^ A A 0.j.j.0.5.! Q Q T T ^ ^ W ( ( E Z       ",
"2 G B.+X+X>Xc.v.k.t.$._ _ ( ( 5.Q K Z 1 Z a.}. X}.}.(.U t s J Q ! W ( ^ ^ ) y.h.(.(.c.c.`.z.U 1     ",
"> u 7.A.k.z.z.z.k.A.B.B.B.i.r.7.( I Z > 1 ! g.h.g.g.! Z 1 r A U ! r.y.e.u.u.u.h.h.a.j.j.j.q.A :     ",
"+ : u x P P L ` 7.k.+X>X>X(.l.A.i.[ A 1 : Z U E K K Z r : Z I ) u.z.(.(.(.b.w.Q K J J P P x , O     ",
". O 5 k #.~ i g P W 7.7.7.7.r.k._.p.i.[ [ =.t.[ [ ) ! ^ ( r.u.(.g.0.5.5.Q W K s 2 : k ( F j : X     ",
"  + 5 | N.$.j w k g t i t g I r.z.v.oXOX$X$X@XOX_.oXz.z.z.j.(.d.q.P s i r t t t + + #.V.#.j 5       ",
"    j $.F.V.| g c x g t t g g P T 5.p.+X-X-X-X>X'.(.[.(.(.e.0.W J p 0 0 0 0 e p ; + $.F.$.| 5       ",
"    j #.N.N.j g b Y c c c x x d d L W r.k.p.p.u.u.u.e.e.0.Q J s p e e e e e a a ; + #.V.$.|         ",
"      j k j 5 g Y 3.3.3.3.3.Y c x p t s s f s s Z s s s s t t t p v v 9 9 9 9 a ; + 5 | |           ",
"          5 ; w x b 4.4.3.3.3.R x a p e e t t e t t t t t e a a v l l 9 l v p q ; + - 5             ",
"              w w g b 3.3.3.Y b z z 8 a p p p p a p p p a a 8 8 9 l 9 z a p w ;                     ",
"                ; w p z 9 b b z l l 9 8 8 8 8 8 8 8 8 8 9 9 9 9 l l 9 9 p 0 ;                       ",
"                  ; w q p p e p p g c 9.8.8.8.8.8.6.8.8.9.U v p e e e q 0 ;                         ",
"                    O O O = ; = , f $.S.*X*X#X#X#X#X#X#XS.$.k > = O O O O                           ",
"                        o o * < N ] -.%X=X%XXXXXXXXXXX%XD.+.S < $ # o +                             ",
"                        @ $ < M ] &.Y.!.&XT.T.K.K.K.T.2.E.*.X.m n $ @ X                             ",
"                      # < M C ' ' J.Y.~.W.I.J.J.J.J.P.E.Q.R.U.V B m % # @                           ",
"                    $ < m B ' ' V &.U.~.~.I.G.G.J.G.P.E.~.E.I.V B m % @ @                           ",
"                  < n B B ' B M N &.U.^.~.I.H.H.H.J.P.E.~.E.*.m n % % @ @                           ",
"                k @.] ] B B M n N *.~.rX^.E.P.J.H.J.U.~.~.W.*.N % n % @ @                           ",
"                o.-.Z.-.] M m < N >.rXtXyX~.Y.I.P.Y.~.rXyXQ.>. .< % $ @ @                           ",
"                o.V.*X%X-.S $ & } 2.uXuXuXeX!.!.W.rXeXeXeXwX:.{ 4 # @ @                             ",
"                o.$.V.V.%.h # & } ,.eXqX1.1.wXtXyXeXwXqXqXqX;.{ & @                                 ",
"                  j j j j >   3 } >.1.<.>.>.1.eXeX1.,.:.;.,.;.{ 4                                   ",
"                              3 { 2.eX1.,.:.O.O.O.O.;.:.,.,.;.{ 4                                   ",
"                              3 7 +.2.2.>.O.{ & @ { ..>.<.<.;.} 4                                   ",
"                              + > k %.~ k 7 &     & } :.<.1.:.} 6                                   ",
"                                = s x x g           { +.2.2.+.7 4                                   ",
"                                                      g P ` g :                                     ",
"                                                                                                    ",
"                                                                                                    "
};
