/* XPM */
static char *Untitled_2_resized[] = {
/* columns rows colors chars-per-pixel */
"50 50 162 2 ",
"   c None",
".  c #0F1422",
"X  c #0E1821",
"o  c #121524",
"O  c #1A1A25",
"+  c #151824",
"@  c #231E24",
"#  c #321F22",
"$  c #162A26",
"%  c #192D27",
"&  c #172626",
"*  c #1E392A",
"=  c #242025",
"-  c #2D2225",
";  c #342324",
":  c #3D2624",
">  c #3B2D27",
",  c #332629",
"<  c #3C2F2B",
"1  c #332B27",
"2  c #243729",
"3  c #3D3027",
"4  c #3C312A",
"5  c #2D2C31",
"6  c #392E34",
"7  c #2A343D",
"8  c #3D3933",
"9  c #333230",
"0  c #64371E",
"q  c #452923",
"w  c #452A24",
"e  c #463227",
"r  c #4B3326",
"t  c #433429",
"y  c #4B3829",
"u  c #4A372B",
"i  c #5B3421",
"p  c #533A26",
"a  c #553328",
"s  c #513B29",
"d  c #5E3928",
"f  c #443C33",
"g  c #483E31",
"h  c #493A3C",
"j  c #663920",
"k  c #6A3B21",
"l  c #633E2D",
"z  c #713F28",
"x  c #244A2B",
"c  c #27432A",
"v  c #304B2C",
"b  c #2A502B",
"n  c #22582D",
"m  c #2F602E",
"M  c #3B6E2E",
"N  c #3D702F",
"B  c #397231",
"V  c #5B442D",
"C  c #5A4733",
"Z  c #6C4B2B",
"A  c #67462D",
"S  c #79442A",
"D  c #7E5229",
"F  c #6F5231",
"G  c #407630",
"H  c #2C3740",
"J  c #3F5950",
"K  c #564041",
"L  c #585242",
"P  c #43585F",
"I  c #485559",
"U  c #6C4E49",
"Y  c #765E55",
"T  c #7F5B52",
"R  c #676848",
"E  c #4A5E63",
"W  c #445761",
"Q  c #4E6469",
"!  c #4E6064",
"~  c #556A65",
"^  c #5D7073",
"/  c #617273",
"(  c #637379",
")  c #804627",
"_  c #84492A",
"`  c #8B4C2B",
"'  c #875828",
"]  c #8D5D2B",
"[  c #81552A",
"{  c #805D32",
"}  c #8A573F",
"|  c #94612B",
" . c #9A632B",
".. c #A56A2C",
"X. c #A96E2D",
"o. c #AF722D",
"O. c #B3732D",
"+. c #BD762A",
"@. c #BD792D",
"#. c #AC7938",
"$. c #B47A35",
"%. c #C27A2C",
"&. c #C17E30",
"*. c #A4664A",
"=. c #A37B41",
"-. c #8F7161",
";. c #857869",
":. c #907162",
">. c #43812F",
",. c #488633",
"<. c #4B843A",
"1. c #4D8344",
"2. c #528647",
"3. c #5F8171",
"4. c #72937B",
"5. c #AB803B",
"6. c #B5813B",
"7. c #BC853A",
"8. c #BB8036",
"9. c #C68232",
"0. c #C88331",
"q. c #CF8C37",
"w. c #C7893B",
"e. c #D28F38",
"r. c #D28E37",
"t. c #CE913D",
"y. c #D6943B",
"u. c #DE9D3F",
"i. c #D8953B",
"p. c #AD8643",
"a. c #B78B48",
"s. c #B88743",
"d. c #B9914F",
"f. c #A1955C",
"g. c #BA9252",
"h. c #BD9D5F",
"j. c #B4995D",
"k. c #988B75",
"l. c #A89867",
"z. c #C08F47",
"x. c #C39249",
"c. c #DF9F41",
"v. c #C59C57",
"b. c #E29F40",
"n. c #D6AB5F",
"m. c #D8AA5B",
"M. c #E2A142",
"N. c #E2A64A",
"B. c #E6A84B",
"V. c #E3AF58",
"C. c #E5AC51",
"Z. c #E5B35B",
"A. c #E8B257",
"S. c #CF9D78",
"D. c #DEB565",
"F. c #E5B661",
"G. c #758A8C",
"H. c #759381",
"J. c #78938C",
"K. c #799092",
"L. c #819796",
"P. c #829A96",
/* pixels */
"                                                                                                    ",
"                                                                                                    ",
"                                                                                                    ",
"                                                                                                    ",
"                                                                                                    ",
"                                                                                                    ",
"                                                                                                    ",
"                                                                                                    ",
"                                                                                                    ",
"                                                                                                    ",
"                                                                                                    ",
"                                                                                                    ",
"                                            + 9 8 8 1 +                                             ",
"                                        3 3 = j.D.n.5.= 3 4                                         ",
"                                    4 s p.w.r h.B.M.6.r 9.#.y 1                                     ",
"                                  > =.C.Z.w.r g.B.M.6.r 9.M.i.] ,                                   ",
"                                4 #.Z.F.N.9.r a.M.M.6.r 9.c.c.e.' 1                                 ",
"                                A Z.V.c.c.9.r d.M.M.6.r 9.c.c.q.%.p                                 ",
"                              t 5.V.N.c.c.9.r 6.M.M.6.r 9.c.c.q.+.] >                               ",
"                              V V.D.c.c.c.9.r 6.M.M.6.r 9.c.c.q.+.%.p                               ",
"                              V N.N.c.c.c.9.r 6.M.b.6.r 9.c.c.q.+.%.p                               ",
"                              s 0.e.c.c.c.9.r 6.M.M.6.r 9.b.y.%.+.%.r                               ",
"                            O - e [ 9.%.y.9.r 6.M.M.6.r 9.y.@.+.D r - O                             ",
"                          C j.g.6.[ t t | O.e 6.b.b.6.e O.| e t { 6.6.6.t                           ",
"                          4 $.$.O.s.v.a.F t @ ] o.o.] @ t F 7.7.$.O.O.O.>                           ",
"                          O , 6 - Z #.X.x.x.C t g t 4 V w.$.X.o.Z # < , O                           ",
"                            K :.q d , : D ..v.m.m.y.t.9...D - - r # :.K                             ",
"                            K Y q ` _ _ a , [  .| | | [ ; q 0 0 0 ; Y K                             ",
"                              O : S ` ` ) 0 w ; # # # : 0 j j k i ; +                               ",
"                                  q z S z 0 0 0 0 0 0 0 j j k i ,                                   ",
"                                    , q w q } *.*.*.*.} w w w ;                                     ",
"                                      o 2 v k.l.f.f.l.;.2 & o                                       ",
"                                      c G ,.4.2.>.>.1.3.B m %                                       ",
"                                    o x b M 4.2.,.>.2.4.N x x %                                     ",
"                                    + * $ ~ J.4.<.<.4.J.J $ n R U                                   ",
"                                      & + ( P.P.H.H.P.K.W . L S.T                                   ",
"                                        o / ^ ! G.G.E Q W . 6 h 6                                   ",
"                                        o ^ G.Q H H E ~ I o                                         ",
"                                        . I / 7     5 A u .                                         ",
"                                        o l A @                                                     ",
"                                                                                                    ",
"                                                                                                    ",
"                                                                                                    ",
"                                                                                                    ",
"                                                                                                    ",
"                                                                                                    ",
"                                                                                                    ",
"                                                                                                    ",
"                                                                                                    ",
"                                                                                                    "
};
