/* XPM */
static char *Background_resized[] = {
/* columns rows colors chars-per-pixel */
"50 50 223 2 ",
"   c None",
".  c #0B0E21",
"X  c #0D1323",
"o  c #051023",
"O  c #121624",
"+  c #1D1725",
"@  c #151925",
"#  c #1C1C24",
"$  c #181B29",
"%  c #231C25",
"&  c #2A1D24",
"*  c #231B2A",
"=  c #301F24",
"-  c #142325",
";  c #192B27",
":  c #192927",
">  c #1B3729",
",  c #1C2430",
"<  c #242125",
"1  c #2C2525",
"2  c #23232B",
"3  c #2C2829",
"4  c #332424",
"5  c #362B26",
"6  c #3C2B25",
"7  c #382729",
"8  c #233929",
"9  c #3A322A",
"0  c #3D3026",
"q  c #332630",
"w  c #2A363B",
"e  c #393531",
"r  c #383736",
"t  c #2A2D34",
"y  c #0A0D1B",
"u  c #64371E",
"i  c #68391F",
"p  c #422A22",
"a  c #4C2D22",
"s  c #462B27",
"d  c #502E21",
"f  c #443326",
"g  c #4D3324",
"h  c #4E3826",
"j  c #453A2C",
"k  c #4B3C2C",
"l  c #45352C",
"z  c #533224",
"x  c #5B3422",
"c  c #553C26",
"v  c #593E26",
"b  c #553B28",
"n  c #4A3638",
"m  c #543B37",
"M  c #603720",
"N  c #663920",
"B  c #6A3B21",
"V  c #6B3E29",
"C  c #713F23",
"Z  c #54311F",
"A  c #1F402B",
"S  c #21442B",
"D  c #2A4A2A",
"F  c #27462A",
"G  c #2A572D",
"H  c #335C2B",
"J  c #305136",
"K  c #37662D",
"L  c #39702F",
"P  c #3A7031",
"I  c #5B442B",
"U  c #5A442C",
"Y  c #484237",
"T  c #594A35",
"R  c #48563D",
"E  c #604327",
"W  c #6D4C2A",
"Q  c #624A2E",
"!  c #7B4529",
"~  c #724C28",
"^  c #774527",
"/  c #7A522A",
"(  c #77542E",
")  c #624C30",
"_  c #6A4631",
"`  c #7C5D34",
"'  c #745831",
"]  c #6E4F38",
"[  c #437B32",
"{  c #497535",
"}  c #2E3A44",
"|  c #303F49",
" . c #3C4C53",
".. c #374751",
"X. c #45575C",
"o. c #545757",
"O. c #51504D",
"+. c #684C48",
"@. c #7D5750",
"#. c #6F534A",
"$. c #517054",
"%. c #736752",
"&. c #485D63",
"*. c #5A6A6E",
"=. c #51686E",
"-. c #556E73",
";. c #5C767B",
":. c #597579",
">. c #4C6368",
",. c #767167",
"<. c #65797B",
"1. c #667B7D",
"2. c #6B6B64",
"3. c #894B2B",
"4. c #84492A",
"5. c #82592C",
"6. c #8E5C29",
"7. c #835628",
"8. c #905E2A",
"9. c #91583D",
"0. c #8A5439",
"q. c #94612B",
"w. c #9D6429",
"e. c #9E6B2F",
"r. c #8F6A36",
"t. c #876536",
"y. c #956C35",
"u. c #906D3B",
"i. c #9A7137",
"p. c #A46A2B",
"a. c #A96B2A",
"s. c #A26629",
"d. c #BC762B",
"f. c #BF782B",
"g. c #B5722B",
"h. c #A6783A",
"j. c #B87B33",
"k. c #AA702E",
"l. c #C27A2C",
"z. c #C07F32",
"x. c #815C53",
"c. c #836F4A",
"v. c #957A4A",
"b. c #8B6254",
"n. c #9E6F5E",
"m. c #8B7851",
"M. c #947858",
"N. c #89764E",
"B. c #A1705F",
"V. c #B87D67",
"C. c #A97362",
"Z. c #847D71",
"A. c #44812F",
"S. c #468232",
"D. c #4A8334",
"F. c #4E863D",
"G. c #518644",
"H. c #57884F",
"J. c #5C8A58",
"K. c #618B5A",
"L. c #698F6E",
"P. c #668C6B",
"I. c #6C8E76",
"U. c #72927D",
"Y. c #6E9077",
"T. c #B9843A",
"R. c #C9812F",
"E. c #C78332",
"W. c #CA8533",
"Q. c #CE8934",
"!. c #C48B3B",
"~. c #CB8B3A",
"^. c #D38E37",
"/. c #D38E38",
"(. c #D6943C",
"). c #DB9A3E",
"_. c #DA963C",
"`. c #E19E3F",
"'. c #998254",
"]. c #8F865C",
"[. c #B38644",
"{. c #A6955E",
"}. c #BB9A5C",
"|. c #B08C6E",
" X c #C99246",
".X c #DE9E41",
"XX c #D39C4C",
"oX c #D49845",
"OX c #C5954E",
"+X c #E29F40",
"@X c #DFA144",
"#X c #DDA34A",
"$X c #D5A556",
"%X c #CFA052",
"&X c #E0A245",
"*X c #E1A54A",
"=X c #E3AA4F",
"-X c #E2AC53",
";X c #E2AF59",
":X c #E4B15A",
">X c #E9B65C",
",X c #C78A66",
"<X c #C8896B",
"1X c #D38E73",
"2X c #DD9577",
"3X c #C5916F",
"4X c #E3997A",
"5X c #D3AD64",
"6X c #E6BC6A",
"7X c #EABF6B",
"8X c #E6B864",
"9X c #E6A37E",
"0X c #ECC06C",
"qX c #667D80",
"wX c #6B8487",
"eX c #748A8B",
"rX c #798E8E",
"tX c #7B948C",
"yX c #769384",
"uX c #7D9492",
"iX c #829898",
"pX c #B89A82",
"aX c #EEB786",
/* pixels */
"                                      O O @ @ $ $ @ @ @ @ O O                                       ",
"                                  O X @ q T c.c.c.%.c.` 0 X O O O                                   ",
"                              9 9 0 4 @ e N.5X$X$X$X%X XI O : 5 6 9                                 ",
"                        X o 3 ' r.q.~ : J '.0X:X-X=X=X&XQ @ 6 / y.r.k - X X                         ",
"                      9 9 9 Y T.oX^.s.< r '.6X#X)..X.X.XQ # U a._.!.` k 0 5 1                       ",
"                    l t.h.T.[.%X$X/.w.< e M.8X@X`..X.X.XQ # c a.^.).T.h.e.7.c 1                     ",
"                  k ` [.$X-X-X:X#X/.w.< e v.-X@X.X.X.X.XQ # c a.^.@X).).^.j./ I 5                   ",
"                - ` #X;X6X7X8X=XoX^.w.* 9 u.@X@X.X.X.X.XQ # c a.^..X@X.X).).R.q.h @                 ",
"            3 U h.$X8X-X#X*X#X@X_.W.w.< e '.>X@X.X.X.X.X) # c a.^.@X.X.X.X).Q.d.a.7.%               ",
"            < ) !.>X6X-X@X.X.X.X(.^.w.< 9 v.;X@X)..X.X.X) # c a.^.@X.X.X.X).R.l.l.w.< X             ",
"            : T T.>X6X-X@X.X.X.X(.^.w.< 9 u.@X.X.X.X.X.XQ # c a.^.+X.X.X.X).R.T.l.w.@ o             ",
"          l Q u.%X>X:X#X.X.X.X.X_.W.w.: 9 t..X.X.X.X`.@XQ # c a.^.@X.X.X.X).W.f.l.a.I f             ",
"        O I T.;X0X:X.X.X.X.X.X.X(.W.w.< 9 r..X.X.X.X.X.X) # U s.^.`..X.X@X_.W.l.d.l.d.~ 1 @         ",
"        @ I T.$X7X-X)..X.X.X.X.X(.^.w.< 9 r..X.X.X.X.X.X) # c a.^..X.X.X.X).W.f.d.l.g.~ 1 @         ",
"        @ I T.#X:X=X.X.X.X.X.X)._.Q.w.< 9 r..X.X.X.X.X.XQ # c a.^.&X.X.X@X).W.l.d.d.d.~ 1 @         ",
"        X T T.#X&X@X@X.X.X.X.X.X_.Q.w.< 9 r..X.X.X.X.X.X) @ c a.^.@X)..X).).R.l.l.l.g.~ 1 O         ",
"        O b p.z.W.^.`.`..X.X.X.X(.Q.w.< 9 r..X.X.X.X.X.XQ # c a.^.+X.X).~.R.l.f.f.l.f.W 1 O         ",
"        O l 7.s.s.T.)._.oX_._..X(.Q.w.< 9 r..X.X.X.X.X.XQ # c a.^..X).^.E.d.d.d.a.s.w.E 3 O         ",
"    . X X < f h h q.^.W.Q.Q.^.)._.Q.w.< 5 r.`.)..X.X.X.XQ # c a.^.`.^.Q.R.f.f.a.~ h h 5 @ X o       ",
"  e Y Y Y Y j l j W 6.6.6.6.w.j.Q.Q.w.< 9 y.&X&X.X.X@X.XQ @ U a.Q.~.k.q.6.6.6./ I j j j j k j 9     ",
"@ +.}.6X6X$X&X.X).` , < 3 2 6 7.s.g.8.< 9 r.).).).).).).I # h w.g.q.c 1 2 < 2 k i.).).).).)._.t.9 @ ",
"O U h. X X X~.z.R.[.'.'.M.v.r.Q I c g @ 5 / E.E.E.E.R.R.I @ 1 h c I ` y.y.y.y.k.d.W.R.E.E.E.E./ 6 @ ",
"@ f ( 6.q.8.8.8.6.[.$X$X$XXXj.t.T T j # 1 N 8.6.q.6.q.6.f O 1 Y U ) h.!./.~.~.T.k.q.q.q.6.q.6.I 1 O ",
"O % 1 1 1 1 4 4 1 5./.~.~.W.~.XXOXOXy.- X : 3 1 1 1 1 1 @ # Y h.T.T.E.W.R.W.R.a.I 3 4 1 1 1 4 < $ O ",
"  O * n x.+.q = s b b v v b W v. X(.!.v.m.m.m.m.c.t.t.t.t.r.h.E.^.z.7.E v v v c d = + n x.x.* .     ",
"    q #.4XC.m s 4.z $ + $ + 1 ^ 8.s.j.8X0X7X0X0X:X*X+X`.`.).W.g.a.6.g % O @ @ % d d * @.2X1Xq .     ",
"    q #.aXC.n s ! V z z z g z v E B /  XXXXXXXXX).^.^.Q.^.E.k.W E v a p 6 p p a x Z % @.2X1Xq .     ",
"    q +.V.b.n s C 0.3.3.3.3.! l 1 # 6 q.a.a.s.s.s.s.e.s.s.q.W 1 @ 1 a M i u u N i x % +.V.V.q       ",
"        + * * s V 3.3.3.3.3.4.4.! C Z % @ # # # # # % : : & 4 x N N N N N N u i N d % + * *         ",
"              = s V 3.3.3.3.4.! C C u p p p p p p p p 6 p p Z u N N N N N N N x a =                 ",
"                * a ^ ! 4.4.^ C B N i x M M M M u u M M M M u u i N N N N N x a = %                 ",
"                  & p x B i ^ B B i i i u u u u u u u u u u u i B N B N N M p = %                   ",
"                    * 7 a d d d d d x 0.9.9.9.9.9.9.9.9.b.3.! z d a d d a a & +                     ",
"                      & & & & & 1 < j |.1X<X,X,X,X,X,X,X<X|.b.9 & & & & & &                         ",
"                          O $ 8 F F O.|.3X|.{.{.{.{.{.{.|.|.2.S > ; $ @ $                           ",
"                          @ : H A.A.G.tXtXK.F.D.D.D.D.D.$.:.$.G G D ; -                             ",
"                      $ @ F [ [ A.A.G.tXyXJ.D.A.S.S.S.S.L.tXP.$.P P G S ; X                         ",
"                    : 8 F K [ K H K G.tXyXK.A.A.S.S.S.S.L.tXP.G.K G G S ; X                         ",
"                    @ G L A.{ D 8 H F.tXyXJ.[ A.S.S.S.A.L.tXL.F.D : A S ; X                         ",
"                  +.%.{ P L H 8 8 $.L.uXtXY.K.[ S.S.G.K.yXuXU.J.J @ A S ; @                         ",
"                X M.aXM.$.J S ; } *.iXiXiXiXiXH.G.H.P.uXuXuXwXqX| - > > ; @                         ",
"                X b.aX3X|.] - @ w *.iXuXrXiXrXU.U.U.yXuXuXuXwX;.| @ - -                             ",
"                X +.B.n.n.+.X @ w *.uX1.<.<.1.iXiXuXeXqXqXqX;.:.| X @                               ",
"                  2 2 2 2 2   @ } *.eXX.X...X.rXiXrX<.&. . .&.-.| O                                 ",
"                              @ } *.uXeXwX;.>.} w } ..>.=.=.-.:.| X                                 ",
"                              @ t O.,.,.2.o...$ y @ w ..-.wXqX:.| X                                 ",
"                              @ < h _ _ U e ,         , =.uXwX:.| O                                 ",
"                                % a i i d & O         O O.Z.,.2.w O                                 ",
"                                                      @ z 3.! i 4 @                                 ",
"                                                                                                    "
};
