/* XPM */
static char *Untitled_3_resized[] = {
/* columns rows colors chars-per-pixel */
"50 50 165 2 ",
"   c None",
".  c #070F23",
"X  c #0F1222",
"o  c #151623",
"O  c #1A1424",
"+  c #111822",
"@  c #1D1C24",
"#  c #241B24",
"$  c #281B24",
"%  c #162526",
"&  c #1C2A26",
"*  c #1A3728",
"=  c #1C2834",
"-  c #252226",
";  c #2C2325",
":  c #28252B",
">  c #332423",
",  c #3C2521",
"<  c #312529",
"1  c #3A2C2B",
"2  c #392C26",
"3  c #233125",
"4  c #3F3228",
"5  c #212C33",
"6  c #28303B",
"7  c #4A2B1E",
"8  c #56311F",
"9  c #402622",
"0  c #462D24",
"q  c #492C25",
"w  c #532F21",
"e  c #512F28",
"r  c #4C3425",
"t  c #4F3C2B",
"y  c #5B3321",
"u  c #543B27",
"i  c #5C3D26",
"p  c #593528",
"a  c #5F3F2A",
"s  c #523827",
"d  c #433332",
"f  c #4F3837",
"g  c #4B3C3C",
"h  c #623720",
"j  c #613B26",
"k  c #693A20",
"l  c #6A3B28",
"z  c #2A472C",
"x  c #23482B",
"c  c #2C4F29",
"v  c #325A2C",
"b  c #315830",
"n  c #39722F",
"m  c #58442E",
"M  c #464036",
"N  c #524738",
"B  c #574938",
"V  c #6D4827",
"C  c #634228",
"Z  c #6F4B28",
"A  c #714E2A",
"S  c #754328",
"D  c #7C5229",
"F  c #6D4F30",
"G  c #664C30",
"H  c #6F5538",
"J  c #6D5534",
"K  c #765630",
"L  c #70573B",
"P  c #7B5938",
"I  c #427D2E",
"U  c #2E3F43",
"Y  c #4E3D40",
"T  c #33424B",
"R  c #3B4A51",
"E  c #594443",
"W  c #565546",
"Q  c #634E48",
"!  c #6A5B46",
"~  c #715B40",
"^  c #736146",
"/  c #786C5C",
"(  c #4C5C62",
")  c #475C62",
"_  c #4D656A",
"`  c #52686C",
"'  c #577D66",
"]  c #667D7F",
"[  c #85492A",
"{  c #8B4C2C",
"}  c #8D5C2B",
"|  c #81552A",
" . c #925E2A",
".. c #865035",
"X. c #9B642C",
"o. c #9D692E",
"O. c #876839",
"+. c #8C6937",
"@. c #956B35",
"#. c #966F38",
"$. c #9D773E",
"%. c #997036",
"&. c #A86A2A",
"*. c #A1692D",
"=. c #AE712D",
"-. c #B6762F",
";. c #A16D32",
":. c #A97130",
">. c #A5793D",
",. c #B47730",
"<. c #B47C34",
"1. c #B87E39",
"2. c #C37B2C",
"3. c #8D764D",
"4. c #8D7850",
"5. c #896E60",
"6. c #937262",
"7. c #42812E",
"8. c #458231",
"9. c #4C8344",
"0. c #56894E",
"q. c #528747",
"w. c #548050",
"e. c #5F8C5D",
"r. c #6A8F6F",
"t. c #668E6C",
"y. c #6D9173",
"u. c #B4813B",
"i. c #B98138",
"p. c #C68A39",
"a. c #D38E37",
"s. c #D48F38",
"d. c #CC913E",
"f. c #D59037",
"g. c #D5923A",
"h. c #D9963C",
"j. c #DE9B3E",
"k. c #E3A03F",
"l. c #9B8352",
"z. c #B18543",
"x. c #BB995A",
"c. c #8F8F62",
"v. c #A08069",
"b. c #AA9663",
"n. c #AE976A",
"m. c #B39B78",
"M. c #C5944A",
"N. c #C49346",
"B. c #DF9E41",
"V. c #DFA042",
"C. c #D7A653",
"Z. c #E3A242",
"A. c #E2A549",
"S. c #E8AB4D",
"D. c #E4AC53",
"F. c #E0AF58",
"G. c #E4B15B",
"H. c #E8B65E",
"J. c #EEBA5F",
"K. c #6B7F82",
"L. c #6C8183",
"P. c #738988",
"I. c #789684",
"U. c #7E9691",
"Y. c #819A94",
/* pixels */
"                                                                                                    ",
"                                                                                                    ",
"                                                                                                    ",
"                                                                                                    ",
"                                                                                                    ",
"                                                                                                    ",
"                                                                                                    ",
"                                                                                                    ",
"                                                                                                    ",
"                                                                                                    ",
"                                                                                                    ",
"                                                                                                    ",
"                                                                                                    ",
"                                                                                                    ",
"                                            + M 4.3.J @ o                                           ",
"                                        < #.A ^ J.S.u.r ;.m @                                       ",
"                                      O.M.F.X.L D.k.u.i g.d.o.4                                     ",
"                                    O.G.H.V.X.J A.Z.u.i a.Z.j.X.0                                   ",
"                                  4 C.G.B.j. .H S.Z.u.i a.B.h.2.A                                   ",
"                                  $.G.Z.B.j. .F V.Z.u.i a.B.h.2.&.r                                 ",
"                                ; N.H.j.B.B. .F Z.Z.u.i a.B.h.2.2.u                                 ",
"                                : i.B.V.B.j. .F Z.Z.1.i a.Z.g.-.2.u                                 ",
"                                o u  .f.f.j.X.F Z.Z.u.i f.h.2.&.V ; .                               ",
"                              ! l.#.P C C -.} Z Z.k.u.y p.| j A @.@.O.-                             ",
"                              F 1.-.u.x.z.G 2 s =.=.} ; t @.i.<.,.,.o.@                             ",
"                              # d < m ;.o.M.>.N B m t K p.:.*.D > d < +                             ",
"                              O 6.f l q q Z @.C.C.h.f.,.D s > q , 5.Y                               ",
"                                E 9 [ { { p q i i m i s , 8 k k , Y                                 ",
"                                    e [ { S h 7 7 7 7 w k k k w $                                   ",
"                                      q y w h ........S 8 8 w $                                     ",
"                                        O 3 W m.b.b.n./ & @ O                                       ",
"                                        x 7.0.t.7.7.9.' n x                                         ",
"                                      z n c ' t.7.7.0.r.b x %                                       ",
"                                    Q c.b 5 P.Y.e.q.I.I.U * %                                       ",
"                                    E v.N = K.K.P.Y.K.K.T +                                         ",
"                                          U K.` ( ( ( _ T                                           ",
"                                          5 ! W =   R L.T                                           ",
"                                                    < P 1                                           ",
"                                                                                                    ",
"                                                                                                    ",
"                                                                                                    ",
"                                                                                                    ",
"                                                                                                    ",
"                                                                                                    ",
"                                                                                                    ",
"                                                                                                    ",
"                                                                                                    ",
"                                                                                                    ",
"                                                                                                    ",
"                                                                                                    "
};
