/* XPM */
static char *abstract_blue_white_pixels_design_1017_27176_resized[] = {
/* columns rows colors chars-per-pixel */
"50 50 192 2 ",
"   c #058DB4",
".  c #0E90B4",
"X  c #0797BF",
"o  c #1A91B4",
"O  c #1794B8",
"+  c #1399BE",
"@  c #259CBE",
"#  c #349EBD",
"$  c #3FA3BF",
"%  c #0197C0",
"&  c #009AC4",
"*  c #1C9EC2",
"=  c #239FC2",
"-  c #0BA3CC",
";  c #1EA5C9",
":  c #1AA8CE",
">  c #16A3CC",
",  c #0EACD5",
"<  c #11ADD5",
"1  c #1FA9D1",
"2  c #15B0D6",
"3  c #1DB1D7",
"4  c #1CB1D9",
"5  c #25A2C5",
"6  c #2CA4C5",
"7  c #26A7C9",
"8  c #2AA6C9",
"9  c #25AACF",
"0  c #2BAACC",
"q  c #35A1C1",
"w  c #3AA6C5",
"e  c #35ACCD",
"r  c #3DADCC",
"t  c #2DAFD2",
"y  c #31ADD0",
"u  c #26B3D7",
"i  c #2BB2D6",
"p  c #25B4D9",
"a  c #2BB6DB",
"s  c #33B2D4",
"d  c #3CB4D5",
"f  c #34B6DA",
"g  c #39B5D9",
"h  c #30B8DA",
"j  c #3BBBDC",
"k  c #35BCE0",
"l  c #41AAC7",
"z  c #40ABC8",
"x  c #4DAFCC",
"c  c #50ABC7",
"v  c #52ACC8",
"b  c #47B2CE",
"n  c #4BB4CE",
"m  c #54B3CD",
"M  c #59B1CC",
"N  c #45B5D3",
"B  c #4BB5D2",
"V  c #45BAD7",
"C  c #4EB9D6",
"Z  c #44BDDC",
"A  c #4CBDDB",
"S  c #54B6D2",
"D  c #5DB7D3",
"F  c #55BAD5",
"G  c #5CBBD5",
"H  c #53BDDA",
"J  c #5CBEDA",
"K  c #60B2C9",
"L  c #60B8CF",
"P  c #68B9CF",
"I  c #69B3C9",
"U  c #64BBD4",
"Y  c #6ABDD4",
"T  c #62BFD8",
"R  c #73BED3",
"E  c #44BFE0",
"W  c #4AC0DE",
"Q  c #53C2DF",
"!  c #5CC3DD",
"~  c #6EC1D6",
"^  c #64C3DC",
"/  c #6CC4DC",
"(  c #6EC8DE",
")  c #74C0D5",
"_  c #7CC2D5",
"`  c #73C4DA",
"'  c #7BC5DA",
"]  c #75C8DE",
"[  c #7BC8DD",
"{  c #41C0E0",
"}  c #4CC2E2",
"|  c #54C4E2",
" . c #5BC5E1",
".. c #5DC8E2",
"X. c #63C6E1",
"o. c #64C9E3",
"O. c #6CCBE4",
"+. c #62C9E8",
"@. c #73C7E1",
"#. c #74CDE4",
"$. c #7CCDE3",
"%. c #73CEE9",
"&. c #76D0E7",
"*. c #7CD1E7",
"=. c #76D1E8",
"-. c #7CD2E9",
";. c #82C3D5",
":. c #8CC6D5",
">. c #82C6D9",
",. c #83CADD",
"<. c #8BCBDD",
"1. c #93C8D7",
"2. c #93CCDC",
"3. c #9CCDDB",
"4. c #95D0DF",
"5. c #9DD0DE",
"6. c #A0D1DF",
"7. c #A8D4DF",
"8. c #83CDE1",
"9. c #8CCDE2",
"0. c #92CEE1",
"q. c #84D2E6",
"w. c #8CD2E5",
"e. c #84D4E9",
"r. c #8CD6EA",
"t. c #86D8EF",
"y. c #8ED8EC",
"u. c #93D4E5",
"i. c #9BD4E3",
"p. c #94D7E9",
"a. c #9BD6EA",
"s. c #94D9EB",
"d. c #9CDCEC",
"f. c #9EDCF0",
"g. c #93DAF0",
"h. c #A4D5E2",
"j. c #AAD6E2",
"k. c #A2D8E6",
"l. c #ADDAE6",
"z. c #A3DDED",
"x. c #ABDDEC",
"c. c #B4DBE5",
"v. c #BADDE6",
"b. c #B3DEEA",
"n. c #B9DEE8",
"m. c #A2DEF0",
"M. c #9FE3F3",
"N. c #A5E0EE",
"B. c #ACE1EE",
"V. c #B3E2EE",
"C. c #BCE2ED",
"Z. c #A4E0F1",
"A. c #ACE2F1",
"S. c #B4E4F2",
"D. c #BBE6F2",
"F. c #B4E8F6",
"G. c #BDE8F3",
"H. c #BDE8F9",
"J. c #C6E0E7",
"K. c #C3E4EC",
"L. c #CAE5ED",
"P. c #C4E8EF",
"I. c #CEE8EF",
"U. c #D2E8ED",
"Y. c #DCEBEE",
"T. c #D1E6EC",
"R. c #C3E6F2",
"E. c #CAE7F0",
"W. c #C4EAF4",
"Q. c #CCECF5",
"!. c #C4EBF9",
"~. c #CCECF9",
"^. c #D2EEF5",
"/. c #DAEDF2",
"(. c #D3EFF9",
"). c #CFF0F6",
"_. c #D4F0F6",
"`. c #DBF1F6",
"'. c #D5F1F9",
"]. c #DCF3F9",
"[. c #E3EEF1",
"{. c #E3F2F6",
"}. c #EBF4F6",
"|. c #E4F5FA",
" X c #EAF6FA",
".X c #E5F8FC",
"XX c #EDF9FC",
"oX c #F4F7F7",
"OX c #F8F8F7",
"+X c #F0F6F8",
"@X c #F3FBFC",
"#X c #FEFEFE",
/* pixels */
"Q.`.y.C.i.e.d.'.S.Z.J N...A._ d.8.L.W.] V.,.Q.|.t.y._ S.@XF.8.K.-.N.B.N.s.W.`.B.O.O.S 2 ^.~ a.$.A.Q.",
"Q.S.V.D.N.V.d.a.r.] H Q.z.p m.d.(.Z.(.] r.[ -.^ p.F = G /.A.h.{.'.|.Q.d.D.#Xw.#.#XG.; Q @XG.#XU A ].",
"B.#X#Xq.o.#X}.$ _./.x.#XXX-.Z.G.].e.{.#.E.G.o.~ w.;.A ! $.S.m.].Y.' G.B.i.e.s Y.[ W.W |.#Xe.] >.c.'.",
"r.@XC.{.j _.p.r O.Q.0. .d.#XY L.D.r.V.S.r.| ^.].N.b.$.D.d.j W.@XB 5 @Xe.G > M.#X` t.N.Z.I.z.9 9.~.d.",
"*. .O /.t.w.' B.N Z 5  .e.M.q L.+.s.z.$.s.]. XQ.W.,.V.d.Q.J V.@Xr.5.V.m.B.) q.N.s.&.A.Q.I.{.%.XX|.r.",
"s.$.B %.Q.W.;.K Y.#.[ 2.Z y n.W.o.W.!.W.*.g.#X^.p.L.V.&.#.L.X./ #XA.5.S.s.m K.e.o.F._.D.}.] S.).S.S.",
"s.|.H.S.S.h.B.. ( } G.K.Z u.`.q., z.V.*.-.5 ` _ x.#XW.+X, s.z.- 8._ ! ~.G.a.#X_.K.;.[ *.; d @Xj.e.$.",
"o.p.~.].O.c.W.H * o.V.].U |.y.%.- s.~ Z S.c.a.H @X#XXXQ.A.W.#XZ.%.n S c./.XXS._.u.e [ }.a.|.].U.XXs.",
"x.G.A.m.| R.<.Z./. X@Xq.C.` 9 0.I.|.Y.P.B.].S._.G z ' Q ` #X..Q.V.y.:.c.B.V.Y U W.} O.%.r.r.].'.#Xz.",
"|...V.S.z.{.$.`.#X].e.z.#X( C.D.S._.#XN.&.A.o.].Q.( H W.9.e.s.S.~ U D.r.} C.w.C..X].O.G.| p.^.Q.V.^.",
"y.A.6.E.-.k.[ #X`.p.A.A.z.F.D.G._.Q.x.>.S S.o.D.^.d.e.#X^ m C.=.  J.).'.^ ^ j.#XQ.J.W.j Z d.].p.%.#X",
"( ,.u.V.S.Q.{.{.r.e.o.Q.G.*.{ S.6 ^ .X}.U.!.d.A.{._ @XXXP OXq.G C.r.N.].U.Q.) ! V.K.Q.e.o.i ;.( } h ",
"W.Q ].*.s.#X[.R N .Xd.@XQ.| e.d.N B.#X5.s.XX*., x.C.G ^.OXr.Z @.) '.G.}._.@XV.6 ` D.N.<.{.a w.E.*.0 ",
"Q.z.G.q.^.C.h.#XB 8.@X .B.XXS.@Xl.I.K._ y.p e.W  .#X^ =.#XB.+.D.5 #Xd.z.|.#XQ.a.{.z.d.! _.G.!.#X..] ",
"B.Y c.h.W.# OX' i !.@X(.+Xr.V.B.V.K.@X#.V.B.{.y./ 1.` B ` u.].d.; x._.q.].#X@X_.1.{.Q.+.`._.M 7.<.`.",
"W.Q._ ( %.,.` w.e.s._ {.*. Xl.c.'.` ,.W..X_.h.L.h.C OX# l.e.<.g ( j r.Q.#X#X#X#XD V.&.d.B.#./.P f #X",
"XX!.~.'.Q.*.r.#Xp.N.B.s..XW.&.A.#XA.u @XQ.#.Z a.+Xe._.z.Q.#XB.S.~ B.q.x.Q.#XW.D.$.].^.N.S.| (.(.e.e.",
"{.a (.@X|.p.'.I.,.d.@XZ.x.#Xd.W |.'.|.|.G.R !.h.L.|.s.Q.z.S.V.#XO._.q.<.W.d.d.e.' p.#X^ d. Xp.+X|.} ",
"z.x ].#X'.Y V.w.z.W.s.`./ <.a ! %.A.=.r.2.q.{.r.B.2.p.P S S.^.W.Q.s.^.0 e m a.W.!. .Z X 2.#XXX| p.D.",
"Y ;.E.d.#X#XK.0 ].s.s.#X#XQ.&.e.k 2.0 r.V.*._. .%.p.#.V.E.2.Q.e C XXp.p.W.k.S N.@XA e k.<.Q.XXt.l o ",
"G.z.E.#._.{.k.B m.N..X_.#XS.D.V.| 9 = ~ b.XXa.!.y.D.&.Y e.e.D.G.G.XX7 C.e.e.#Xe.#XB.#.O.m.C.3.V.! x.",
"h.L.Y 8._ ` (.D.-.a.s.! m.S.$.&.X.%.s.U ].F.' [.#XP.#._.x...S.j V.V.~ ].`.Q.#Xj V.w.#.O.V.XX<.Y XXs.",
"}.] g._ G O.W.d.@X>.w.).- C.Y ~ 2.@XS.V.@Xx.A.|.`.V.s.W.*.2 q.o.{ j D.d.#.Q._.S.^ ;.~.^.W.s.W.&.e.C.",
"{.D.a.I P.W XX^.<.{..Xz.q c.p.w S.K. XQ.}.X.S.| $.>.s.s.B.y.Q.V._.2.w.u.s._.! x.w.n.V.XX#XV.#X_.8.i.",
"n.,.#Xn.i.e.z.#.  ! *.U.2.S.W !.j.l.q.O.c.0.#Xr.#XO._.V.z.y.W.%.L.#X%.>.#Xz.Q.6.*..XG V.@XO.s.E.^.].",
"S.@.x.>.D.o.B.d.h s.c.E.c.#X_.! L.{.c B.W.&.d.#XK.&.k.Y $.j z.XXj.8.s.p.W.d.s.d. .~.G.|.D.y. .D.i.R.",
"8.U ,.-.l.z.A.D.! .X].N.].XXy.3 F.[ > N V.N.@.C.v | k./.g.B.|.@X@Xc.8.r p.{.S.Z XX@X .G..X_.E.].` p.",
"c.7 ^ W.2.e.-.S.U.`.^ r.O.C.B W.] m.s.' e.N.p.[ l B (.+XS.`.W.(.e.S.+Xc.Q.W.|.#X}.}.G.! I._.z.W.W.|.",
"O.i.<.XXA.y.i.w.N._.F o.u.2.U @X9 N.@X{.q.#Xk.s.~ j.]./.{._.#X`.o.j A..X^.#XF.S.p.^ s./ 3._.x.!.i.x.",
"Y z.#X@XS.A.,.m.V.y.u.d.B.Q S.N.&.u q.G.(.#XU.c.L.#X'.l.Q.8.,.e.8.z.f.`.S.@XQ.e.C.e.Q.W.] XXR.t ^ `.",
"C X.].D.#XD.V.x.N.{.$.j.p.e.}.o.V.Q.s.].].S.@XXX#XXXw.[ m.Q.5 A i.V.#X#X#Xr.W.#X#X#Xe.Q.G. X9.$.r.Q.",
"] w.h.V.D.!.9.x r.! w.).V._.#Xo.m.G.XXz.D.y.h.`.V.|.b.! Q.]./ W.Q.e.].].@XQ.[ p.A.|.r.*.Q.x.T 8.m.o.",
"c./.9.#.B.O.XX] @X] R u.W.S.S.Z.i.i.#X_.N.e.K.(.].W.A.Q.B.Z.A.| ].XXQ. X#X XX.@.J k./ ].(.~.Y.l.@X_.",
"(.@X|.D.'.4 XXG.].) L.<.<. X%.@XU.3.h.S.S.a._.#Xd.G.!.d.D.m >.q.}.4.Q.0.d.<.|.(.E.$.t Q.#X` A.#XV._.",
".Xk.j.A.|.A.D.|.@X$.#X@X[ (.^.A.].*.D w.#X#XW.Z.).n.C.r.e.~ u.G.{.k.D.8.o.b./.j. X.Xq.r L.C.].2.B.R ",
"~.}.x.o.{.#Xo.].XXA.K./ y.].u.x.c./ }.D.` :.].r.#Xu.d.E.-.*._.G.D.s.4.].~.d.U x.B.j.r.d x.XXd.b.z.C.",
"XX#X@X(._.a.A.C k.@X}.C.D.m.s 2.#XY.#X4.C.[ ^.Z :.e.` C w $.W.#.~ D.F x d.V.p.^.N.V e.Q.q.*.^.XX_.XX",
"v.G.*.S._.XXD.X.V.N.d.].S.N.` h.` O.XX$.W.f.@XO.K.*.( #.: q.y.( R A.(.d.%.e {.(._.a Q.B.s.| #X) Q s.",
"x.m.d.o.s.*.r.Q.N.W.W &.,.h.q.V.Q z.| A.#XF.[ ^ #X|.XXD.d.r.U +Xq q.#X#X.Xp.oX].o.O.|.V.@Xa.h.|.Q.s.",
"Q.z.XXd.p.*.A.x.@X_.o.].q.g #.r.S._.V.1.XXXXR $.XX|.X.N.V.Z.I.S x.D.@Xr.9 8 Q Q.^.o.!.| ^.q.v.K.#Xz.",
"@XW.3.q._...!.r s.#XW.#X].k.+ ,.8.=.#Xb.r.|.}.m.`.s.{.G.Q.`.#Xq.G.S.N.j w.U D.W.b.6.N.&.]./.r.p.#X#.",
"_ [ Q.s.'.q.A K.C.d.-.'._.r.p.}.e. X@X#Xh.K.e.Q.-.S.`.e.y.V.^.z.Q.'.y.8 c.].s.Q.F.^ ].{.y.O.@ !.f.D.",
"X x.#X@X/.' { !.S.@X@Xs.XX`.Y s.x.].9.i.s.s t.XX^ G.V.:.d.G.#X#X(.a Z.! 0 .Xk.U W.@.#X>.p.R.8.#XXX/.",
"+ U z.s.#XB.o.d.@XQ.#Xj.l.#X}.S s.%.S.~.b w w.` ! u.`.7 u.-.Q.W.8.g e. .o. .a.G.<.i B.{.r.%.( F R.j.",
"x.r.d.s.z.Q.'.W.#X#X,.r F.O.S.@.u.{.#Xh.c.#Xi.l.2.,.+X&.`.q.V.j  .^.#XQ.XXC.8 XXV.i e 8 , s.c.0 @X/.",
"4 S.W.z.m.S.Q.u.@X|.z.b ^.! XXC o k.'.e.+X<./.) ;.;.5.G.V.' #.v.] ^.OXXXI.y._ XX,.^ S A.S.} & V ].@X",
"s.N. XD.~.|.2.s.z.O.p.-.] ( #X_ Q.d.*.B.W.d.Q  .d.x.q.r.^.O._.G.k.U c.j.B.r.x.D.E.S.*.-.].S.o.%.|.'.",
"z.'.s.d.A. X+Xd._.u ; w.e.o.S._...d.|.s ~ _.Q O.W.2.( -.OXW.C.8.z.Z ].{.V.! ' q.d.].W.t.a. X#X'.Z z.",
"A.! $.j / r.*.D.#XQ.W.$.G.D.d.OX! B. XE U W.p.z.d.L z.|.0.s.c.P +Xl.Q.G.i.7 @XS / V.].W.*.N.@XQ.Y D.",
"G.* ) B Y ! ..D.Q.^.Q.2.Q.^.].l.l.@XD.r.Q.(.}.@X-.<.w.V.R.}.|.d. X@XXX=.H >.R.;.<.1._.^ 5.z.S.W.' 8."
};
