/* XPM */
static char *brow_1_resized[] = {
/* columns rows colors chars-per-pixel */
"50 50 77 1 ",
"  c #251207",
". c #2E1707",
"X c #23140A",
"o c #2A170C",
"O c #26180F",
"+ c #2D190C",
"@ c #331B0A",
"# c #3B1E0A",
"$ c #2B1C11",
"% c #351E10",
"& c #3C210E",
"* c #372012",
"= c #3D2312",
"- c #44230C",
"; c #4B260D",
": c #4F280F",
"> c #50270C",
", c #542A0E",
"< c #5B2D0F",
"1 c #442612",
"2 c #492710",
"3 c #452916",
"4 c #4D2A12",
"5 c #542C12",
"6 c #5B2E11",
"7 c #563115",
"8 c #5D3215",
"9 c #5D3318",
"0 c #5C3A1B",
"q c #602F0F",
"w c #61300F",
"e c #602F10",
"r c #643212",
"t c #6E3612",
"y c #663817",
"u c #6D3916",
"i c #633619",
"p c #66381A",
"a c #6B3B1A",
"s c #703712",
"d c #733A14",
"f c #793E17",
"g c #733E1B",
"h c #7B3F18",
"j c #6A411B",
"k c #7C4117",
"l c #74411D",
"z c #7D421B",
"x c #794A1F",
"c c #734720",
"v c #7D4520",
"b c #7E4921",
"n c #83451C",
"m c #86481E",
"M c #894A1F",
"N c #814721",
"B c #864A22",
"V c #8D4C22",
"C c #914F23",
"Z c #825122",
"A c #8D5224",
"S c #945225",
"D c #995427",
"F c #965926",
"G c #9C5A26",
"H c #965428",
"J c #9C5628",
"K c #9E5929",
"L c #A25D2A",
"P c #9C6029",
"I c #A6622B",
"U c #AA652C",
"Y c #AE692D",
"T c #B26D2F",
"R c #B4702F",
"E c #B36F30",
"W c #B57130",
/* pixels */
"K7=DUGdsdVJApKUJJJGJCkDH7$=cUUGSLLJnffnMIUA7yVJJJY",
"IZ-BUIkkFLSaAIJDDJJShdVz7cKLFNddCJJDDnfskGUSa5pfdf",
"sw:AIRUYYLBvPJVnMCVfssgiNULJnsuMJJJJLLJnsdkkMg5rst",
"w;pDGIYIJJVgAmdussstsu8pJJLJVfkSJJJLYTTIMkskMDp;w,",
"#;dMDJJJDDDrrssstssssq5BLJJJJDSDJJDDGYTYGSCSDDk->;",
" 6sskCDDCndr;qsstrrrt,&vJDDDJJJJJDVfnDLLLJJDSk6#@q",
"4,ttssnndsss#,rr,452;559CVnVCDDCndssdhCDDJSVhr@.#,",
"A2wtstststts;;55gSLJJJHaaCMffnksssnndssnMkdte;6gAU",
"Sl;wssststts,@iSJLEELJLN6NJVdssdhVJSfsstssuw-6hCKY",
"Skl:rssttssr25CJJLEEUJJCpeMCdssnDJDnstsdstw+-tshMG",
"CfSi6tssssr,OlJJJUEEYJJJg,tdsssfDJMssssrw<-+-rstsd",
"CkDA6<rrw6;-@vJJLUEEYJJJN>;6tssdDCdttr<57jFKi<tssu",
"GJUTV652&7ld,xJJJLUULJJJMf,#,essVkrw<-=bUUYRF76ssu",
"DGUEUHa%1FMsuzHJJJDCMMMnnl;:,,<6<8r5&O0RFkGYUu#6ss",
"nSLUUJD97USAVpVJJJVsttstr46mSBr-@iBSx4lUmfCGCd @,<",
"shMCJHDvpFYRL7rVCVdssts6-rDURWLgazVJSazJDSGMgt#=;;",
"stsknhnCavUTLu;wfdsssss:;mUTTUGgnCDJC8rMDCVdt6pCDH",
"tsststsnptDJAd;#,ssssst--fMFCnd;gCCSVp-rnhsse6nSJJ",
"tttsssts4,kMft< @>,<qwq@.wdsswq#qddfdt,#6ssr>rdzVV",
",ttststt#;stssw.---;::;@@;qqw8y9;tssst,@@,e;,tsfnh",
":,utsss< #tstt;,ddstqww<&*-wlAUKi6sst66i544-,tsMDH",
"r.tssr<-@#;,<,>kSCVVCGGl&;uGYRRRFiqq,pVLJVvci,,hVH",
"< -,>,;>r<@#:<xKTRTYYYIl>kIRRRTIFg-5aDUTEYYYIN95tf",
"-#-;;<snnq-,dCUWULLLLSdwtmIUIFAzfd2vJDDLUEWWEEFai-",
"qnnknnVDC65sVYWUJLLDB6><tkSJndtttr6CmzzznSJUUEULB@",
"nSLILLLLB6esSUKVBNnv4;e,qdMndstttt5fsssddfnMCSDHCe",
"smITTYYYAirfLISBNut5,tstkSSfdknnzd,ttsddddddfffhhu",
"ssMITRWYVttDTTIJDBu4tsdmGUGCMSLIJV6r<qsssssssstt,-",
"qsdMLLLDi<hLEEULJJB,tdVLUULJLUTTLH1rr;;,<<<,>>,6ii",
"#sssmVnr-qhJYULCmVC5rzLLTULJLTTTJV*xCgr,<--,,6igBC",
".,ttddt#@rsnVBzfddz5enLUTLJDLTTUJz#hSJSVBp-;,eefhh",
",;<sst,;5<tssstttt,#tnJLLLVnDLULJp,tfVJJJa9zgie>,-",
"skdrt69GKyettstq,-..dBJJDnfdCLDBd=-rsdNDBpBIILJN9%",
"nIPl:1ZWRA8rt6,ri6-.rhBDndtsBVnr@+X@>esu5pHUEEELV3",
"kGWPaaAWRU8@@6NCCCN6;tdfdtstdu,@%5i,,,>-#eCLYYLLDl",
"ukGUJblIYUg+4BJJJJDCi,ststtsq>iNADJDnutge5nCJLJDVn",
"tthDJSgBDVeaVJJIYULJCuesttdqezCUEEEELCCDN6tffhnfs6",
";ttkDJvzVs,NJJLYEEYILBersr-@gJLLEEEEUJLJHp,rtss,;,",
"g;tfJSgnCnggHJLYEEEELDa@;&o@inDLLUULLJJJJC52te;,ed",
"d,snJN8MJDHigVDJIEEUJHe#;%2<;rfnVJLJJJJJDLi-,,6thC",
"r;snSy,nCCJi-tfnHLLLHz,re6dh2,tsdhVDCnhBJCe,ttdnDL",
",;sfz;,sddh2%#esdhnVBe,BVCLJd-<sstdddsdfnd-6NHCHUL",
".#t51@45ese7Ng4rstsds,uHHJYUCr.6sstdtttdd>-fHLLLEL",
";>yaVASVl6#anVi#,tsse;nJVVLLLC-%ettststs,#tDLTEEYL",
"szJUYSnnHN5gdhii94ue##CCffCLLH6g;;rtsst,#tDLTEEELJ",
"dCUUFftsVJ96seBLHa1@O1JVsdCDCgaHJv4@>r;1zDLYEEEYDg",
"dSLJDCVMCJv6e6FETLCl3=VCdsfds#uCJIFN4++5VDDLTTELr-",
"dCJJJLYTELH6;iHITUHHCpaJztss>-tdkMCSHN3%,NDJLULL,>",
"sdhCDITEEUJ5-rnDLJJJDNaDntse#<sstsddnVa%5sfznMCM6-",
"tssshCLUULH1,sdnDJDVhe>Vnss->sssststtdn9>stssssst@"
};
