/* XPM */
static char *snow_41_resized[] = {
/* columns rows colors chars-per-pixel */
"50 50 71 1 ",
"  c None",
". c #BDC5C5",
"X c #BEC5C5",
"o c #BEC6C6",
"O c #BFC6C6",
"+ c #BEC7C7",
"@ c #BFC7C7",
"# c #BFC8C8",
"$ c #C0C7C7",
"% c #C1C9C9",
"& c #C2C9C9",
"* c #C1CBCB",
"= c #C3CACA",
"- c #C1CCCC",
"; c #C5CCCC",
": c #C7CDCD",
"> c #C8CECE",
", c #C8CFCF",
"< c #C5D3D3",
"1 c #C6D4D5",
"2 c #C6D5D5",
"3 c #C7D6D7",
"4 c #CAD0D0",
"5 c #CDD3D3",
"6 c #CED3D3",
"7 c #CED4D4",
"8 c #CFD4D4",
"9 c #CADADB",
"0 c #CADCDD",
"q c #CBDDDE",
"w c #CBDEDF",
"e c #CCDEDF",
"r c #D4D9D9",
"t c #D5D9D9",
"y c #D7DBDB",
"u c #D7DCDC",
"i c #D8DCDC",
"p c #D9DDDD",
"a c #CDE0E2",
"s c #CEE2E3",
"d c #CEE3E4",
"f c #D0E6E7",
"g c #D2E9EB",
"h c #D3EBED",
"j c #D5EEF0",
"k c #D5EFF1",
"l c #D6F1F3",
"z c #D6F2F4",
"x c #D7F2F4",
"c c #D7F3F5",
"v c #D8F2F4",
"b c #D9F2F4",
"n c #DAF3F5",
"m c #DDF3F5",
"M c #DEF3F5",
"N c #DFF3F5",
"B c #E0F4F6",
"V c #E2F4F6",
"C c #E4F4F6",
"Z c #E6F5F7",
"A c #E7F5F7",
"S c #E8F5F7",
"D c #E9F5F7",
"F c #EAF5F7",
"G c #ECF6F8",
"H c #EFF6F8",
"J c #F1F6F8",
"K c #F2F6F8",
"L c #F3F7F9",
"P c #F5F7F9",
"I c #F6F7F9",
/* pixels */
"    zzzzzzzzzzzzzzzzzzzzzzzzzzzzzzzzzzzzzzzzzz    ",
"  DCCCCCCCCCCCCCCCCCCCCCCCCCCCCCCCCCCCCCCCCCCCCD  ",
" PPIIIIIIIIIIIIIIIIIIIIIIIIIIIIIIIIIIIIIIIIIIIIPP ",
" PPPPPPPPPPPPPPPPPPPPPPPPPPPPPPPPPPPPPPPPPPPPPPPP ",
"PPPPPPPPPPPPPPPPPPPPPPPPPPPPPPPPPPPPPPPPPPPPPPPPPP",
"PPPPPPPPPPPPPPPPPPPPPPPPPPPPPPPPPPPPPPPPPPPPPPPPPP",
"PPPPPPPPPPPPPPPPPPPPPPPPPPPPPPPPPPPPPPPPPPPPPPPPPP",
"PPPPPPPPPPPPPPPPPPPPPPPPPPPPPPPPPPPPPPPPPPPPPPPPPP",
"PPPPPPPPPPPPPPPPPPPPPPPPPPPPPPPPPPPPPPPPPPPPPPPPPP",
"PPPIPPPPPPPPPPPPPPPPPIPPPPPPIPPPPPPPPPPPPPPPPPIPPP",
"PPPGCVSKPPPPPPPPPKSVCGPPPPPPGCVSKPPPPPPPPPKSVCGPPP",
"PLZbzzxNJPPPPPPPJNxzzbZLPPLZbzzxNJPPPPPPPJNxzzbZLP",
"CMvccxcxCPPPPPPPCxcxccvMCCMvccxcxCPPPPPPPCxcxccvMC",
"zxxgq9dknHIPPPIHnkd9qgxxzzxxgq9dknHIPPPIHnkd9qgxxz",
"cla*oX+2jBKIIIKBj2+Xo*alccla*oX+2jBKIIIKBj2+Xo*alc",
"w1#XooXo0xmAFAmx0oXooX#1ee1#XooXo0xmAFAmx0oXooX#1w",
"oXo&,4;O-hcxxxch-O;4,&oXooXo&,4;O-hcxxxch-O;4,&oXo",
"oO:rppi7$3kccck3$7ippr:OooO:rppi7$3kccck3$7ippr:Oo",
">6yppppp4+<sfs<+4pppppy6>>6yppppp4+<sfs<+4pppppy6>",
"ppppppppt%.O+O.%tppppppppppppppppt%.O+O.%tpppppppp",
"ppppppppp5@ooo@5pppppppppppppppppp5@ooo@5ppppppppp",
"pppppppppi8;=;8ippppppppppppppppppi8;=;8ippppppppp",
"pppppppppppiuippppppppppppppppppppppiuippppppppppp",
"ppp    ppppppppppp    pppppp    ppppppppppp    ppp",
"pp      ppppppppp      pppp      ppppppppp      pp",
"         ppppppp                  ppppppp         ",
"         ppppppp                  ppppppp         ",
"          ppppp                    ppppp          ",
"                                                  ",
"                                                  ",
"                                                  ",
"                                                  ",
"                                                  ",
"                                                  ",
"                                                  ",
"                                                  ",
"                                                  ",
"                                                  ",
"                                                  ",
"                                                  ",
"                                                  ",
"                                                  ",
"                                                  ",
"                                                  ",
"                                                  ",
"                                                  ",
"                                                  ",
"                                                  ",
"                                                  ",
"                                                  "
};
