/* XPM */
static char *snow_37_resized[] = {
/* columns rows colors chars-per-pixel */
"50 50 98 2 ",
"   c None",
".  c #BDC5C5",
"X  c #BEC5C5",
"o  c #BEC6C6",
"O  c #BFC6C6",
"+  c #BEC7C7",
"@  c #BFC7C7",
"#  c #BFC8C8",
"$  c #C0C7C7",
"%  c #C0C8C8",
"&  c #C1C8C8",
"*  c #C1C9C9",
"=  c #C2C9C9",
"-  c #C1CBCB",
";  c #C2CACA",
":  c #C3CACA",
">  c #C3CBCB",
",  c #C4CBCB",
"<  c #C1CCCC",
"1  c #C4CCCC",
"2  c #C5CCCC",
"3  c #C6CDCD",
"4  c #C7CDCD",
"5  c #C7CECE",
"6  c #C8CECE",
"7  c #C8CFCF",
"8  c #C5D3D3",
"9  c #C6D4D5",
"0  c #C6D5D5",
"q  c #C7D6D7",
"w  c #C9D0D0",
"e  c #CAD0D0",
"r  c #CBD1D1",
"t  c #CCD2D2",
"y  c #CDD3D3",
"u  c #CED3D3",
"i  c #CED4D4",
"p  c #CFD4D4",
"a  c #C8D8D9",
"s  c #C9D9DA",
"d  c #CADADB",
"f  c #CADCDD",
"g  c #CBDDDE",
"h  c #CBDEDF",
"j  c #CCDEDF",
"k  c #D0D5D5",
"l  c #D0D6D6",
"z  c #D1D6D6",
"x  c #D2D7D7",
"c  c #D3D8D8",
"v  c #D4D9D9",
"b  c #D5D9D9",
"n  c #D5DADA",
"m  c #D6DADA",
"M  c #D6DBDB",
"N  c #D7DBDB",
"B  c #D7DCDC",
"V  c #D8DCDC",
"C  c #D8DDDD",
"Z  c #D9DDDD",
"A  c #DADDDD",
"S  c #CDE0E2",
"D  c #CEE2E3",
"F  c #CEE3E4",
"G  c #D0E6E7",
"H  c #D2E9EB",
"J  c #D2EAEC",
"K  c #D3EAEC",
"L  c #D3EBED",
"P  c #D5EEF0",
"I  c #D5EFF0",
"U  c #D5EFF1",
"Y  c #D6F1F3",
"T  c #D6F2F4",
"R  c #D7F2F4",
"E  c #D7F3F5",
"W  c #D8F2F4",
"Q  c #D9F2F4",
"!  c #DAF3F5",
"~  c #DDF3F5",
"^  c #DEF3F5",
"/  c #DFF3F5",
"(  c #E0F4F6",
")  c #E1F4F6",
"_  c #E2F4F6",
"`  c #E4F4F6",
"'  c #E6F5F7",
"]  c #E7F5F7",
"[  c #E8F5F7",
"{  c #E9F5F7",
"}  c #EAF5F7",
"|  c #ECF6F8",
" . c #EFF6F8",
".. c #F1F6F8",
"X. c #F2F6F8",
"o. c #F3F7F9",
"O. c #F5F7F9",
"+. c #F6F7F9",
/* pixels */
"T T T T T T T T T T T T T T T T T T T T T T T T T T T T T T T T T T T T T T T T T T T T T T T T T T ",
"` ` ` ` ` ` ` ` ` ` ` ` ` ` ` ` ` ` ` ` ` ` ` ` ` ` ` ` ` ` ` ` ` ` ` ` ` ` ` ` ` ` ` ` ` ` ` ` ` ` ",
"+.+.+.+.+.+.+.+.+.+.+.+.+.+.+.+.+.+.+.+.+.+.+.+.+.+.+.+.+.+.+.+.+.+.+.+.+.+.+.+.+.+.+.+.+.+.+.+.+.+.",
"O.O.O.O.O.O.O.O.O.O.O.O.O.O.O.O.O.O.O.O.O.O.O.O.O.O.O.O.O.O.O.O.O.O.O.O.O.O.O.O.O.O.O.O.O.O.O.O.O.O.",
"O.O.O.O.O.O.O.O.O.O.O.O.O.O.O.O.O.O.O.O.O.O.O.O.O.O.O.O.O.O.O.O.O.O.O.O.O.O.O.O.O.O.O.O.O.O.O.O.O.O.",
"O.O.O.O.O.O.O.O.O.O.O.O.O.O.O.O.O.O.O.O.O.O.O.O.O.O.O.O.O.O.O.O.O.O.O.O.O.O.O.O.O.O.O.O.O.O.O.O.O.O.",
"O.O.O.O.O.O.O.O.O.O.O.O.O.O.O.O.O.O.O.O.O.O.O.O.O.O.O.O.O.O.O.O.O.O.O.O.O.O.O.O.O.O.O.O.O.O.O.O.O.O.",
"O.O.O.O.O.O.O.O.O.O.O.O.O.O.O.O.O.O.O.O.O.O.O.O.O.O.O.O.O.O.O.O.O.O.O.O.O.O.O.O.O.O.O.O.O.O.O.O.O.O.",
"O.O.O.O.O.O.O.O.O.O.O.O.O.O.O.O.O.O.O.O.O.O.O.O.O.O.O.O.O.O.O.O.O.O.O.O.O.O.O.O.O.O.O.O.O.O.O.O.O.O.",
"O.O.O.+.O.O.O.O.O.O.O.O.O.O.O.O.O.O.O.O.O.+.O.O.O.O.O.O.+.O.O.O.O.O.O.O.O.O.O.O.O.O.O.O.O.O.+.O.O.O.",
"O.O.O.| ` _ [ X.O.O.O.O.O.O.O.O.O.X.[ _ ` | O.O.O.O.O.O.| ` _ [ X.O.O.O.O.O.O.O.O.O.X.[ _ ` | O.O.O.",
"O.o.' Q T T R / ..O.O.O.O.O.O.O.../ R T T Q ' o.O.O.o.' Q T T R / ..O.O.O.O.O.O.O.../ R T T Q ' o.O.",
"` ^ W E E R E R ` O.O.O.O.O.O.O.` R E R E E W ^ ` ` ^ W E E R E R ` O.O.O.O.O.O.O.` R E R E R W ^ ` ",
"T R R H g d F U !  .+.O.O.O.+. .! U F d g H R R T T R R H g d F U !  .+.O.O.O.+. .! I F d g J R R T ",
"E Y S - X X + 0 P ( X.+.+.+.X.( P 0 + X X - S Y E E Y S - X X + 0 P ( X.+.+.O...( U a @ .           ",
"h 9 # X X o X o f R ~ ] } ] ~ R f o X o X X # 9 j j 9 # X X o X o f R ~ ' } { )                     ",
"X X o * 7 e 2 O < L E R R R E L < O 2 e 7 * o X X X X o * 7 e 2 O < K R T                           ",
"X o 4 v C Z V i $ q U E E E U q $ i V Z C v 4 o X X o 4 v C Z V u % s                               ",
"6 u N A Z Z Z Z e + 8 D G D 8 + e Z Z Z Z A N u 6 6 u N A Z Z Z C                                   ",
"Z Z Z Z Z Z Z Z b * . O + O . * b Z Z Z Z Z Z Z Z Z Z Z Z Z Z                                       ",
"Z Z Z Z Z Z Z Z Z y @ X o X @ y Z Z Z Z Z Z Z Z Z Z Z Z Z Z                                         ",
"Z Z Z Z A A Z Z Z C p 2 : 2 p C Z Z Z A A Z Z Z Z Z Z Z                                             ",
"Z Z Z N x l v C Z Z Z V B V Z Z Z C v l x N Z Z Z Z Z                                               ",
"A Z x , @ O & r V Z Z Z Z Z Z Z V r & O @ , x Z Z Z                                                 ",
"x t & X o o o O y Z Z Z Z Z Z Z y O o o o X & t n                                                   ",
"@ o o o o o o o ; n Z Z Z Z Z n ; o o o o o o o                                                     ",
"o o o o o o o o o e C A Z A C e o o o o o o o                                                       ",
"o o o o o o o o o @ e v m v e @ o o o o o o                                                         ",
"o o o o % & O o o o o % = % o o o o O & %                                                           ",
"o X % r c v k 1 o o o o o o o o o 1 k v z                                                           ",
"$ > k Z A Z A n , o o o o o o o , n A A                                                             ",
"c M Z Z Z Z Z A k @ o o o o o @ k A Z                                                               ",
"A Z Z Z Z Z Z Z V 3 X o o o X 3 V Z Z                                                               ",
"Z Z Z Z Z Z Z Z Z v 2 O o O 2 v Z Z                                                                 ",
"Z Z Z Z C V Z Z Z Z N z p z N Z Z Z                                                                 ",
"Z Z V p 4 2 e v Z Z Z A A A Z Z Z                                                                   ",
"C n 7 O X X o ; c Z Z Z Z Z Z Z Z                                                                   ",
"5 ; o o o o o X 4 V Z Z Z Z Z C                                                                     ",
"X o o o o o o o @ z A Z Z Z Z c                                                                     ",
"o o o o o o o o o > c Z Z Z c 3                                                                     ",
"o o o o X o o o o o * w t w *                                                                       ",
"o o o * 7 e 2 @ o o o o o o o                                                                       ",
"X o 4 v C Z V i % o o o o o o                                                                       ",
"6 u N A Z Z Z Z e o o o o o o                                                                       ",
"Z Z Z Z Z Z Z Z b * o o o o o                                                                       ",
"Z Z Z Z Z Z Z Z Z y @ X o o                                                                         ",
"Z Z Z Z A A Z Z Z C p 2 : 2                                                                         ",
"Z Z Z N x l v C Z Z Z V B V                                                                         ",
"Z Z x , @ O & r B Z Z Z Z Z                                                                         ",
"b u * X o o o O i Z Z Z Z Z                                                                         "
};
