/* XPM */
static char *bomb_detonating_explosion_animation_cartoon_design_element_set_isolated_vector_horizontal_2BKR1CH_removebg_preview__3__resized[] = {
/* columns rows colors chars-per-pixel */
"50 50 226 2 ",
"   c None",
".  c #171718",
"X  c #261F1E",
"o  c #2B231A",
"O  c #33271B",
"+  c #1D1E21",
"@  c #2A2524",
"#  c #2C2A2B",
"$  c #262323",
"%  c #342D29",
"&  c #39332B",
"*  c #353331",
"=  c #3D3C3C",
"-  c #3A3835",
";  c #302E30",
":  c #48361E",
">  c #583519",
",  c #482F1A",
"<  c #6E3D1C",
"1  c #433A27",
"2  c #523B25",
"3  c #443B34",
"4  c #653F21",
"5  c #5D491C",
"6  c #75461C",
"7  c #4C4129",
"8  c #43423D",
"9  c #4B4537",
"0  c #594A38",
"q  c #5B5233",
"w  c #524227",
"e  c #634A2A",
"r  c #685329",
"t  c #74572B",
"y  c #655833",
"u  c #704E2F",
"i  c #766A37",
"p  c #73662F",
"a  c #444344",
"s  c #4B4A45",
"d  c #4C4B4C",
"f  c #474848",
"g  c #564D47",
"h  c #53524F",
"j  c #5B5547",
"k  c #4F4E51",
"l  c #545353",
"z  c #5C5C5C",
"x  c #585757",
"c  c #635242",
"v  c #635D58",
"b  c #6B634D",
"n  c #756747",
"m  c #63625D",
"M  c #6A6559",
"N  c #5F5E60",
"B  c #615E62",
"V  c #646363",
"C  c #6C6C6B",
"Z  c #696766",
"A  c #726E68",
"S  c #72716D",
"D  c #7A766A",
"F  c #6E6C70",
"G  c #747473",
"H  c #7C7C74",
"J  c #767779",
"K  c #7C7C7B",
"L  c #787777",
"P  c #89561E",
"I  c #B9681C",
"U  c #925A22",
"Y  c #89652A",
"T  c #997428",
"R  c #8C6B35",
"E  c #997834",
"W  c #867933",
"Q  c #A66623",
"!  c #A6782E",
"~  c #BB7725",
"^  c #AF7831",
"/  c #B05918",
"(  c #D9761B",
")  c #D86819",
"_  c #E97815",
"`  c #F67A14",
"'  c #CA7725",
"]  c #D57823",
"[  c #887051",
"{  c #837E69",
"}  c #807E7A",
"|  c #7F807D",
" . c #95833A",
".. c #AA8738",
"X. c #B5963D",
"o. c #B18930",
"O. c #BFA33F",
"+. c #F88717",
"@. c #F7971D",
"#. c #C18529",
"$. c #D88527",
"%. c #C89839",
"&. c #D49530",
"*. c #E08222",
"=. c #F68E24",
"-. c #E79527",
";. c #F79623",
":. c #F69533",
">. c #D9B03A",
",. c #EEA12D",
"<. c #F8A829",
"1. c #FBB32B",
"2. c #F9B62E",
"3. c #E5A838",
"4. c #F5A935",
"5. c #EEB337",
"6. c #F8B533",
"7. c #FCC435",
"8. c #FCC33A",
"9. c #FCCB3A",
"0. c #F9C939",
"q. c #FAD339",
"w. c #EBCC3F",
"e. c #FEE93D",
"r. c #898359",
"t. c #988B56",
"y. c #8F8349",
"u. c #AA984A",
"i. c #A79758",
"p. c #B28F4B",
"a. c #B8AB58",
"s. c #B7A749",
"d. c #8D8467",
"f. c #948C68",
"g. c #84837C",
"h. c #8C8574",
"j. c #948F75",
"k. c #AA9A69",
"l. c #B6A764",
"z. c #AFA07D",
"x. c #C49A55",
"c. c #CB9F45",
"v. c #D4A645",
"b. c #CCBC45",
"n. c #D3BB4E",
"m. c #CBB15A",
"M. c #DCB659",
"N. c #C4AA51",
"B. c #F7BA45",
"V. c #EDB75D",
"C. c #F6BD54",
"Z. c #EDA84D",
"A. c #C0AF6D",
"S. c #F0AB65",
"D. c #F19543",
"F. c #DCD25C",
"G. c #EBC645",
"H. c #F6C949",
"J. c #FBD344",
"K. c #F6D549",
"L. c #F5C956",
"P. c #F5D757",
"I. c #E1CF53",
"U. c #FAE749",
"Y. c #F9E559",
"T. c #F6ED50",
"R. c #DBC86E",
"E. c #E2D268",
"W. c #F3DA68",
"Q. c #F1D672",
"!. c #F0C86B",
"~. c #FAED64",
"^. c #EFE862",
"/. c #7F7E80",
"(. c #807E81",
"). c #7F8080",
"_. c #848484",
"`. c #8C8B8B",
"'. c #898886",
"]. c #918E8A",
"[. c #98948C",
"{. c #939394",
"}. c #9B9A98",
"|. c #A39D99",
" X c #A5A08A",
".X c #B4A68A",
"XX c #AAA897",
"oX c #B9B394",
"OX c #A6A6A6",
"+X c #B6B3AC",
"@X c #C3B797",
"#X c #C8BE8E",
"$X c #C3BFB6",
"%X c #DACE96",
"&X c #F7D888",
"*X c #E8D696",
"=X c #ECD18D",
"-X c #CAC7BA",
";X c #D6CFAD",
":X c #F0DCAD",
">X c #FAE9A6",
",X c #FFF1B9",
"<X c #F7E9B2",
"1X c #FBE58F",
"2X c #D1CEC9",
"3X c #D5CCC7",
"4X c #D4D1CD",
"5X c #DFDBD5",
"6X c #DBD7D2",
"7X c #CFCCC5",
"8X c #E0DCD5",
"9X c #E3DEC5",
"0X c #F4EBC6",
"qX c #FEF5CA",
"wX c #FDF2C2",
"eX c #E8E6DA",
"rX c #FFF7D2",
"tX c #FDF6DB",
"yX c #EAE5E0",
"uX c #EEEAE5",
"iX c #F4EEE7",
"pX c #F6F1EB",
"aX c #F9F4ED",
"sX c #FEFCEB",
"dX c #FCF6E4",
"fX c #FDFBF4",
/* pixels */
"                                                                                                    ",
"                                                                                                    ",
"                                                                                                    ",
"                                                                                                    ",
"                                                                                                    ",
"                                                    '._._.                                          ",
"                                                  K D { G L                                         ",
"                                                K G { d.V Z F G K _.{.                              ",
"                                                S V t.t.x M M Z S K _.                              ",
"                                        . . .     v N.    u.n v C G (.`.                            ",
"                                T.T.9 f - = f o u.  G.K.K.O.g     A h.].{.                          ",
"                                s. .m _.Z V V # p J.9.9.0.u.l.Y.I.a.k.'.{.                          ",
"                              l J G ).`.'.K z + 5 7.8.8.K.W.K.q.P.      {.                          ",
"                          8 V `.{.).`.).Z f @ o ..8.7.6.8.8.9.9.q.U.^.[.                            ",
"          g./.  V   T.w.i Z `.{.`.`.{.J - 7 R c.6.1.1.H.H.3..... .b.                                ",
"        } G       E.F.p l _.`.{.{.`.).= u 3.L.L.<.:.!.Q.E b C K C j                                 ",
"      `.H C k.U.e.q.i # C C B v F ).l j M.B.&XL.4.&X>Xk.0 K {.`._.F a                               ",
"        K V y.w.e.q.Y : 9 & e 6 r g & oX1X1X>X!.*X%X>Xv.! 0 F {.'.K N *                             ",
"              K.q.7.2.&.#.#.<.=.` ^ z.<XwXwX,X;XM D d.v.6.~ 0 M k Z Z f ;                           ",
"          ~.w.2.9.7.@.1.<.1.<.6.:.=.<XrXqXqXrX XB {.'.[ _ ` &.Y = C N f # W U.  L K                 ",
"        _.  0.( ' ~ ( <.<.;.;.4.Z.D.:XtXtXtXtX|.`.}.{.(.[ Z.C.' e j i p r T w.G.t.S L               ",
"        `.    e & 1 2 ' ,.] I p.=X.X XtXtXdX7X}.OX{.`.J A [.^ ) ' ^ $.;.1.2.0.K.t.z C L             ",
"          ~.I.9 k x = 0 z. XD 3 g v = -XsXuXH OXOX(./.$XyXuX6X{ 0 g 5 ,.2.7.q.K.P.F.d.S |           ",
"          T. .8 l l K 4XpXaXaX3XG _.x K sXpXS C {.} 3XaX6X+XuX6XZ f X Q @.<.2.0.G.s.r.A K           ",
"            y f l V 8XaXaXpXpXaX+XH | s eXfX4Xd /.(.pXpX3X`.yXaX].@ , ' +.+.<.G.[ 0 x C K           ",
"            q k l ].pXiX8X8XiXpX2XL `.8 7XfXsX| l `.aXaXpXiXpXaX'.> _ :.1.1.1.7.w.u.[ D }           ",
"          E.r d l {.aXiX[.[.iXaX+X| S | eXdXsX;Xd g 3XaXpXaXaX8X[ ) ` +.<.7.0.K.P.I.a.f._.          ",
"            1 f x F yXaXuXuXaXyX_.).s 9XtXtX-X].XX].v $XuXuX3XZ / @.-.T T 0.q.M.g.m S }             ",
"            9 8 N z ].8XuXuX4X].'.L j 0XqX0XA Z H oXj.b [ { c > ) *.r & e G.P.m.A S | _.            ",
"          ^. .* l V V G K } } C L D oXwXqX Xx `.`.} } A c 4 Q 4.3.t 8 f y G.    g.g.`.              ",
"            i.# = x F J K _.V n %X>X,X,X,X;Xh.V (.`.(./.B 3 ' 4.Y 8 l a q                           ",
"              - ; = f c b v q x.>X,X>X,X:X%X<Xd.B (./.Z 3 Y 6.4.e k k = i                           ",
"              u.O @ > ~ ' x.=X&X&X&X>X%Xv h f.z.0 z g R #.-.1.o.3 x f 3 v.L.                        ",
"            Q.H.Y 6 $.:.c.R.&XV.4.x.c s m g.Z m.X.R x.5.2.<.o.2 l l = 1                             ",
"                S.S.V.l.j 9 q Q ] w l J K ).C l.B.c.p.Y -.-.e h l a -                               ",
"            $X  S.R.h.h.G V s P ' g F F G G C q q 9 9 0 *.,.e s f * y                               ",
"            +X@X&X*XD } C m f Y &.0 B Z Z C C V z V B j *.=.P 3 ; &                                 ",
"            OX|.@X  .Xj.k k k & ! u l N N N N v N z x 0 ] @.o.O w p.                                ",
"            `.L D   &X%X- # 8 = U $.e d l x x x l k k a 4 _ =.X.m.L.                                ",
"                    *Xh.a % o 1 %.=.6 = d d d d f = ; $ > ] +.<.n.f.                                ",
"                      x x A.X.>.<.I o $ # # # @ X O > Y v.P.5.! n M                                 ",
"                      Z C   Y.q.5.>.e 7 r 1 @ t ! %.Z.B.  k y.n l Z                                 ",
"                      G J l.a.i.E.W.    C.    C.B.    L.  d j v v C                                 ",
"                        | h.g.| XXXX{.          C.  J     z z V C                                   ",
"                                {.}.XX                J S S F S                                     ",
"                                                                                                    ",
"                                                                                                    ",
"                                                                                                    ",
"                                                                                                    ",
"                                                                                                    "
};
