/* XPM */
static char *bomb_detonating_explosion_animation_cartoon_design_element_set_isolated_vector_horizontal_2BKR1CH_removebg_preview_resized[] = {
/* columns rows colors chars-per-pixel */
"50 50 237 2 ",
"   c None",
".  c #1B1A1B",
"X  c #151515",
"o  c #0C0C0E",
"O  c #1F1F22",
"+  c #29282B",
"@  c #342C25",
"#  c #383737",
"$  c #34312B",
"%  c #443827",
"&  c #553F23",
"*  c #413F3F",
"=  c #65501F",
"-  c #574824",
";  c #45413B",
":  c #524637",
">  c #4A452A",
",  c #6C5627",
"<  c #645535",
"1  c #725D2D",
"2  c #7A632C",
"3  c #776136",
"4  c #474746",
"5  c #575349",
"6  c #555557",
"7  c #504E4F",
"8  c #625943",
"9  c #645E53",
"0  c #6B6348",
"q  c #7C744A",
"w  c #756F57",
"e  c #746D51",
"r  c #646365",
"t  c #767468",
"y  c #797978",
"u  c #8A5C27",
"i  c #98722D",
"p  c #987B34",
"a  c #8A6828",
"s  c #A9792D",
"d  c #A77C32",
"f  c #8A7856",
"g  c #8F7B50",
"h  c #887D63",
"j  c #837D75",
"k  c #998832",
"l  c #B4852D",
"z  c #A78432",
"x  c #B89335",
"c  c #A6862F",
"v  c #C59937",
"b  c #D4992C",
"n  c #E69D29",
"m  c #D8A83A",
"M  c #D7B43D",
"N  c #CBAB3F",
"B  c #FDAD24",
"V  c #FDAF29",
"C  c #F5A92A",
"Z  c #FDB42C",
"A  c #FCBA2C",
"S  c #F8B32A",
"D  c #E7AB37",
"F  c #FBAB33",
"G  c #FAA635",
"H  c #E5B136",
"J  c #E5B23A",
"K  c #EBB839",
"L  c #FDB532",
"P  c #F4BC36",
"I  c #FDBC33",
"U  c #F3B43A",
"Y  c #F5BC3B",
"T  c #FABA3A",
"R  c #F6B437",
"E  c #EFA92F",
"W  c #DEC138",
"Q  c #FBC22E",
"!  c #FCCE2F",
"~  c #EAC439",
"^  c #FDC334",
"/  c #FDCC35",
"(  c #FDC43A",
")  c #FECA3B",
"_  c #F5C63B",
"`  c #EBD83D",
"'  c #FDD335",
"]  c #FCDA35",
"[  c #FCD33A",
"{  c #FBDA3B",
"}  c #F6D73D",
"|  c #FDE73B",
" . c #988546",
".. c #9C8354",
"X. c #B28945",
"o. c #B7964A",
"O. c #A98B53",
"+. c #AA9B59",
"@. c #B7975A",
"#. c #B18F56",
"$. c #B5A65D",
"%. c #BDA459",
"&. c #BBA84D",
"*. c #978669",
"=. c #958B77",
"-. c #9C9476",
";. c #8D856A",
":. c #A59765",
">. c #B59964",
",. c #A99C79",
"<. c #B59E74",
"1. c #ABA465",
"2. c #BAA566",
"3. c #ABA178",
"4. c #B9AD70",
"5. c #C89D4A",
"6. c #C59A52",
"7. c #CBA448",
"8. c #D6AA47",
"9. c #D8B747",
"0. c #CBA558",
"q. c #D7AB56",
"w. c #C5B34F",
"e. c #E2B442",
"r. c #EBB947",
"t. c #F3B543",
"y. c #F5BC44",
"u. c #E4B956",
"i. c #EEAC42",
"p. c #C8AA68",
"a. c #C5AB78",
"s. c #C8B772",
"d. c #D0B165",
"f. c #E3B767",
"g. c #DAC856",
"h. c #D8C34E",
"j. c #E6C94A",
"k. c #F9CB45",
"l. c #FAC845",
"z. c #F9D546",
"x. c #FACD53",
"c. c #F5C856",
"v. c #FBD352",
"b. c #FAD25C",
"n. c #F9D857",
"m. c #E9D14E",
"M. c #FEE342",
"N. c #F6E249",
"B. c #FAE559",
"V. c #D4C970",
"C. c #F7CB64",
"Z. c #EFD566",
"A. c #FAD868",
"S. c #F9CC76",
"D. c #FBDA7A",
"F. c #F8D872",
"G. c #E8CC74",
"H. c #FBE464",
"J. c #FAE379",
"K. c #838384",
"L. c #8A8885",
"P. c #8C8C8C",
"I. c #878689",
"U. c #918D88",
"Y. c #999689",
"T. c #949492",
"R. c #979699",
"E. c #9C9C9D",
"W. c #9A9995",
"Q. c #8F9391",
"!. c #A49B88",
"~. c #ADA186",
"^. c #B2AB89",
"/. c #A0A19D",
"(. c #A8A49A",
"). c #BBB491",
"_. c #9EA0A2",
"`. c #A3A3A3",
"'. c #ABABAB",
"]. c #A9A9A7",
"[. c #B2B2B2",
"{. c #BBBBBB",
"}. c #B8B8B8",
"|. c #B1AFAE",
" X c #C2BC9D",
".X c #CDB885",
"XX c #BFC1BF",
"oX c #D6CA93",
"OX c #DCD39C",
"+X c #CCC48C",
"@X c #F4DC8B",
"#X c #F9D885",
"$X c #E8DB99",
"%X c #F4DD90",
"&X c #FBE58C",
"*X c #FCE787",
"=X c #FBE595",
"-X c #FCE994",
";X c #F9E69C",
":X c #FBF184",
">X c #D4CBA0",
",X c #D5CEA9",
"<X c #DBD2A8",
"1X c #CDCAB8",
"2X c #D9D2BA",
"3X c #D0C9A9",
"4X c #E7DDA4",
"5X c #E8DCA4",
"6X c #E8E1A5",
"7X c #FDEBA4",
"8X c #FCEDAC",
"9X c #F8E8A6",
"0X c #EAE1B9",
"qX c #FDEEB3",
"wX c #FAEEBB",
"eX c #F4E8B4",
"rX c #FDF0B5",
"tX c #FDF1BD",
"yX c #CDCCCA",
"uX c #C2C2C2",
"iX c #D7D4C5",
"pX c #CECDD1",
"aX c #D3D4D3",
"sX c #EEE6C3",
"dX c #E9E4CA",
"fX c #F4ECC6",
"gX c #FEF3C4",
"hX c #FEF4CC",
"jX c #FEF6D3",
"kX c #FEF7DA",
"lX c #FFF8DC",
"zX c #FEF8D5",
"xX c #EFEAD4",
"cX c #FFFAE4",
"vX c #FFFBEC",
"bX c #F9F5E1",
"nX c #FFFDF1",
/* pixels */
"                                                                                                    ",
"                                                                                                    ",
"                                                                                                    ",
"                                            {.}.}.{.                                                ",
"                                            uX}.}.}.{.                                              ",
"                                          yXyXuXXXXXXX                                              ",
"                                          pXaXiXyXyX2X6X3XXX'.                                      ",
"                                        2XaXiX4X4X1X$X:X,X}.+Xs.                                    ",
"                      }.[.'.          @X@X4X6X*X*X+XV.*XOX3XB.g.Y.W.W.`.                            ",
"                    [.'.`.E.R.R.^.v.  C.C.A.H.H.Z.w 6 q V.&Xm.g.~.2.=.R./.                          ",
"                    '.E.R.P.L.L.>._ } ( I ^ ] ' ` - + + g C.S k.r.z ; =.p.                          ",
"                    E.T.I.:.$.*.8._ / I I ^ ] ] ' x # # 1 Y A ^ _ , < q.y.                          ",
"                    R.I.*.7.^ M J A / I I ^ ~ M } b @ @ z ( ( ( Y c K T 8.d.s.                      ",
"                  R.P.y ..C B A I ^ / / ^ ^ p 2 } Q x v l._ ( ( ( ( ( ( T y.<.                      ",
"                  T.=.1.8.V B n s K ' ' / ) c :.n.) ) ) ) ( ) ( ( ( ( ^ ( y.~./.                    ",
"                  P.;.9.| / S i ; d / z.[ / n.7X;Xn.) ) ) ( e.M ( ( ( ( ( ( g.V.                    ",
"                  4.0.J | | W 5 6 < m A.J.v.F.8X5X9Xx.^ ) k.3 < 8.) ( ( J _ |                       ",
"                ~.9.Y T Q M.$.6 r 6 2 v.7X7X7XOXw >X7Xx.( m 5 7 k k.) x % k N.                      ",
"                T.9 , m Z / h.0 5 0 o.k.=XwXrX).4 ^.hX7Xx.b & < 8.) k.2 + > w.*.=.                  ",
"            `.R.I.* O a L A } F.9X9X;XD.;XrXwXeX).<XgXgX;Xu.J 9.) ) _ , % p K y.e.r.y.l.y.          ",
"          |._.T.=.;.h X.R L I v.-X8X9XqXeXtXgXgXhXhXhXhXhXqX7X;X=X&X*Xj.K ( l.x.( I I L Y           ",
"          '.E.U.>.C.S.T V Z Z ( G.4X-.eXoX>XgXhXhXhXjXzXjXjXhXgXgXtX&Xk.) ^ l.D.x.I A T             ",
"          '.W.I.j a.S.R Z Z L S e.@X+XwXfX).dXjXjXzXkXkXkXjXjXhXgX8Xv.) ) ( v.J.z./ A 0.U.          ",
"            !.,.#.6.t.F S L A R P b.qXgXgX).sXzXkXlXlXbXkXjXjXjXgXF.^ ) / ] z.N.z.^ I @.=.          ",
"          '.W.%.G V B B Z A A _ k.C.9XtXhX,XxXkXlXcXcXvXcXkXkXjX9XC.b.A.A.J.w.- 1 m I T r.u.        ",
"          '.E.!.8.L Z A m ~ v.J.%XqXrXtXgXhXjXlXcXcXvXvXcXcXzXjXgXwXrXrX8X*Xg.2 = m e.7.0.          ",
"          [.`.T.:.~ } z.< q -X7X4XOXwXgXfXsXzXlXcXvXvXnXvXcXlXjXhXgXtX8XH.{ [ T I 8.f               ",
"            ].^.m.| | m.3 0 ;X7X8XeXqX0X,XsXkXlXcXvXnXnXvXbX2X2XsXhXtXrX*Xn.] ) ^ K @.              ",
"            |.a.G ^ ! ] ~ j.J.-X7XqXrXgXgXhXjXlXbXvXnXvXvXxXdXjXhXgXqXoX$X-XH.M.M ..*.              ",
"              a.6.d D S ^ ^ ) k.b.D.9XwXgXhXjXkXlXcXcXcXcXlXlXjXhXqXA.r.&.n.N.| ` +.y               ",
"              `.4 $ #.F V L I I I I c.qXgXhXjXzXkXlXlXbXlXlXjXhXhXtXA._ x _ ' ' ] z.3.              ",
"              [.U.>.i.G G G G I I y.@XtXtXgXhXjXzXzXkXkXjXjXjXhXgXtX=Xl.H P s i K ~ 3.              ",
"                .Xy.F G G G G T l. .f 0XgXtXgXhXhXhXjXzX2XfXhXwX^.4XqXb.^ x @ % m U q.              ",
"                  f.X.& u G L I Z.t 9 G.D.@XwXgXhXhXhXhX XoXqX0Xh ,XwXG.^ H - @ o.p.u.              ",
"                    5 7 & G I [ j. .x Y I C.wXgXhXhXgXgX$Xx c.D.;XqXOXs.z.A l a i.f.                ",
"                    ; 4 s L ^ / ^ ^ T I I F.qX8XgXhXtXgXF.P P ( 9.%.1.%XB._ I ( L y.                ",
"                      g q.R Z L L I I A I D.@Xb.=XgXtX7Xk.^ ^ T H J } B.B.` &.q.y.t.                ",
"                        (.q.F L L L I I ^ v.k.^ x.=XrXD.) ^ I I I Z Q ] | M.4.                      ",
"                      |./.,.D F L L Z I ^ / ^ ^ ^ b.-Xz.^ ^ I Z Z Z A | &.1.V.                      ",
"                        `.<.0.o.R I Z A ^ ^ I L I [ n.] ^ A Z Z Z B A } *.K.r $                     ",
"                        ].~.U.@.T D D I Y L L I A ^ ] ~ D L Z B Q S A z.1.  + .                     ",
"                            U.p.@.h g 5.O.m I Y U ^ W - < s C Z } 7.m 9.  o X .                     ",
"                            E.!.K.y # 4 t %.( %.p.H , * 4 : b Z ] :.#.  X . .                       ",
"                            `.E.W.y # r K.>.u.Y.  o.* 5  .N E 8.g.1.P.  o . .                       ",
"                              '._.R.K.P.T.3.              s.7.>.Y.Y.                                ",
"                                '.].`.E.                    ,.!.R.E.                                ",
"                                                                                                    ",
"                                                                                                    ",
"                                                                                                    ",
"                                                                                                    "
};
