/* XPM */
static char *bomb_detonating_explosion_animation_cartoon_design_element_set_isolated_vector_horizontal_2BKR1CH_removebg_preview__1__resized[] = {
/* columns rows colors chars-per-pixel */
"50 50 90 1 ",
"  c None",
". c #595959",
"X c #616161",
"o c #636363",
"O c #696969",
"+ c #6A6A6A",
"@ c #6B6B6B",
"# c #6D6D6D",
"$ c #6E6E6E",
"% c #6F6F6F",
"& c #707070",
"* c #717171",
"= c #727272",
"- c #737373",
"; c #747474",
": c #767676",
"> c #777777",
", c #787878",
"< c #7A7A7A",
"1 c #7B7B7B",
"2 c #7C7C7C",
"3 c #7D7D7D",
"4 c #7E7E7E",
"5 c #7F7F7F",
"6 c #828282",
"7 c #838383",
"8 c #848484",
"9 c #858585",
"0 c #868686",
"q c #878787",
"w c #888888",
"e c #898989",
"r c #8B8B8B",
"t c #8D8D8D",
"y c #8E8E8E",
"u c #8F8F8F",
"i c #909090",
"p c #919191",
"a c #929292",
"s c #939393",
"d c #949494",
"f c #959595",
"g c #969696",
"h c #979797",
"j c #989898",
"k c #999999",
"l c #9A9A9A",
"z c #9B9B9B",
"x c #9C9C9C",
"c c #9D9D9D",
"v c #9E9E9E",
"b c #9F9F9F",
"n c #A0A0A0",
"m c #A1A1A1",
"M c #A2A2A2",
"N c #A3A3A3",
"B c #A4A4A4",
"V c #A5A5A5",
"C c #A6A6A6",
"Z c #A7A7A7",
"A c #A8A8A8",
"S c #A9A9A9",
"D c #AAAAAA",
"F c #ABABAB",
"G c #ACACAC",
"H c #ADADAD",
"J c #AEAEAE",
"K c #AFAFAF",
"L c #B0B0B0",
"P c #B1B1B1",
"I c #B2B2B2",
"U c #B3B3B3",
"Y c #B4B4B4",
"T c #B5B5B5",
"R c #B6B6B6",
"E c #B7B7B7",
"W c #B8B8B8",
"Q c #B9B9B9",
"! c #BABABA",
"~ c #BBBBBB",
"^ c #BCBCBC",
"/ c #BDBDBD",
"( c #BEBEBE",
") c #BFBFBF",
"_ c #C0C0C0",
"` c #C1C1C1",
"' c #C4C4C4",
"] c #C6C6C6",
"[ c #C7C7C7",
"{ c #C9C9C9",
/* pixels */
"                                                  ",
"                                                  ",
"                                                  ",
"                                                  ",
"                                                  ",
"                                                  ",
"                  Gg                              ",
"             (L QTPFf5                            ",
"            )_)WQTIKAe                            ",
"           ((``/QTIKFp8        ~R                 ",
"         YE~/((^QTPJDsr       KUL                 ",
"        VITE!~~QEYPHBf       VZDV                 ",
"        dKITEWEEYIJFBk        vbk                 ",
"        aFLPUYUUPKGSNg                            ",
"         CJKKLLKHGDCxf                KEY         ",
"         6hkSHHFmBMxg                 Y^QH        ",
"          %<uxnhs                    DJUIF        ",
"             57q                    lMZDSCnjw     ",
"                                   9dzbnncja0=    ",
"                                   1qpfggdir4@    ",
"                                     9rtte05$     ",
"                                     ,4652,#      ",
"                  JYEB        Znd      *          ",
"      /WU        nVFHd       dnzq                 ",
"     REUG         xMa         8q+                 ",
"    mJKHC         86                              ",
"    vAZVM                                         ",
"    3yhvi                                         ",
"      &-+                                         ",
"                                                  ",
"                          GC                      ",
"                        AJSn                      ",
"                        aVNf       YFBxa          ",
"             W~!W       ,7f8      (EHNli0         ",
"           [{`YYPJC       o       QYGMky5         ",
"           '{_JJGSm              JPHCvgq          ",
"           )]~ASZBk              zAVnki1          ",
"           /[RMNmbf              <yzf9>O          ",
"           Z]Pzxzki                ;*             ",
"           cWNhggs2                               ",
"            #12:<=X                               ",
"             .                                    ",
"                                                  ",
"                                                  ",
"                                                  ",
"                                                  ",
"                                                  ",
"                                                  ",
"                                                  ",
"                                                  "
};
