/* XPM */
static char *__resized[] = {
/* columns rows colors chars-per-pixel */
"50 50 219 2 ",
"   c None",
".  c #000F12",
"X  c #021416",
"o  c #0B1616",
"O  c #051718",
"+  c #061819",
"@  c #0B1B1B",
"#  c #0C1718",
"$  c #141D1A",
"%  c #171917",
"&  c #221E1A",
"*  c #16201C",
"=  c #1C211C",
"-  c #0E211D",
";  c #24231B",
":  c #2A231B",
">  c #2A291E",
",  c #3B2C1C",
"<  c #34281B",
"1  c #39311E",
"2  c #0B1F20",
"3  c #0F2322",
"4  c #122322",
"5  c #1A2522",
"6  c #1B2C2A",
"7  c #1B2B25",
"8  c #232723",
"9  c #252924",
"0  c #2B2B21",
"q  c #292E29",
"w  c #332D21",
"e  c #3A2E21",
"r  c #2B332C",
"t  c #26362C",
"y  c #3B3122",
"u  c #33332B",
"i  c #3B352A",
"p  c #393B2E",
"a  c #343627",
"s  c #2B3734",
"d  c #2C3A35",
"f  c #273632",
"g  c #343C35",
"h  c #3C3D33",
"j  c #323E39",
"k  c #412D1C",
"l  c #422B16",
"z  c #4C341D",
"x  c #44321E",
"c  c #52371F",
"v  c #433423",
"b  c #4D3A25",
"n  c #453C2C",
"m  c #4C3526",
"M  c #543C23",
"N  c #5C3E24",
"B  c #523E2A",
"V  c #593825",
"C  c #4C3F30",
"Z  c #663F28",
"A  c #2C4535",
"S  c #35443C",
"D  c #3C433B",
"F  c #374738",
"G  c #3B503D",
"H  c #49442B",
"J  c #58422B",
"K  c #444234",
"L  c #4B4333",
"P  c #4B4C3C",
"I  c #4B4339",
"U  c #5C4A35",
"Y  c #5A4836",
"T  c #42553C",
"R  c #535E3E",
"E  c #5A502F",
"W  c #684727",
"Q  c #744C25",
"!  c #74482A",
"~  c #7C5126",
"^  c #79552E",
"/  c #634C34",
"(  c #634F3C",
")  c #6C4B35",
"_  c #6E5534",
"`  c #64523E",
"'  c #625738",
"]  c #725434",
"[  c #775938",
"{  c #704E32",
"}  c #6D643F",
"|  c #75633D",
" . c #394C41",
".. c #3C5845",
"X. c #494B41",
"o. c #574E42",
"O. c #425B42",
"+. c #425C4B",
"@. c #5C5546",
"#. c #665341",
"$. c #695644",
"%. c #6D5945",
"&. c #6E5A49",
"*. c #665945",
"=. c #755D47",
"-. c #466245",
";. c #4C6449",
":. c #506D56",
">. c #587658",
",. c #51684E",
"<. c #77634A",
"1. c #6C6955",
"2. c #756250",
"3. c #7B6A55",
"4. c #7A6B59",
"5. c #647556",
"6. c #6E724F",
"7. c #7B7363",
"8. c #814F1E",
"9. c #914D2D",
"0. c #8C5927",
"q. c #8B5A29",
"w. c #875428",
"e. c #915C29",
"r. c #9A5E28",
"t. c #895833",
"y. c #965938",
"u. c #884A2C",
"i. c #A75C27",
"p. c #A75B34",
"a. c #9D622A",
"s. c #9F6027",
"d. c #876437",
"f. c #9C6D34",
"g. c #94653C",
"h. c #936A36",
"j. c #A3642C",
"k. c #AA692D",
"l. c #B36D2D",
"z. c #BE722F",
"x. c #A96637",
"c. c #B8663C",
"v. c #A77739",
"b. c #B87331",
"n. c #C3742F",
"m. c #CC782F",
"M. c #C27530",
"N. c #C47A34",
"B. c #CC7B32",
"V. c #C67635",
"C. c #C0663A",
"Z. c #8C6849",
"A. c #946B4A",
"S. c #8C734A",
"D. c #997847",
"F. c #806E5C",
"G. c #877358",
"H. c #917655",
"J. c #997751",
"K. c #BB6D44",
"L. c #A77448",
"P. c #BD7D55",
"I. c #B17752",
"U. c #AE7551",
"Y. c #8B7D6A",
"T. c #867864",
"R. c #C47244",
"E. c #C67D52",
"W. c #C06C41",
"Q. c #71805D",
"!. c #5C8264",
"~. c #668161",
"^. c #B3813E",
"/. c #C9863C",
"(. c #D38236",
"). c #D4893C",
"_. c #D78B3D",
"`. c #BA8A44",
"'. c #BA845C",
"]. c #AC8244",
"[. c #8D816E",
"{. c #92846E",
"}. c #958974",
"|. c #9D917E",
" X c #959169",
".X c #B88B62",
"XX c #B08F66",
"oX c #BCA173",
"OX c #D38D46",
"+X c #CA9649",
"@X c #D79647",
"#X c #C6885B",
"$X c #D79A58",
"%X c #CF8E4D",
"&X c #EC994B",
"*X c #DCA24D",
"=X c #E6A34C",
"-X c #E5A754",
";X c #F8A857",
":X c #EEB358",
">X c #F0B558",
",X c #CD9D6E",
"<X c #CA9568",
"1X c #D29465",
"2X c #CF9F70",
"3X c #CEA576",
"4X c #D3A474",
"5X c #D9AA79",
"6X c #D4AB7B",
"7X c #D7A26C",
"8X c #E4A872",
"9X c #A79A87",
"0X c #ACA391",
"qX c #DAB685",
"wX c #C0AD9A",
"eX c #E1BE8B",
"rX c #E6BB93",
"tX c #E2C08E",
"yX c #E7C592",
/* pixels */
"                                                                                                    ",
"                                                                                                    ",
"                                                                                                    ",
"                                                                                                    ",
"                              m.(.a.w.m.(.                                                          ",
"                          k.w.z.=X^.0.(.=X).                                                        ",
"                          /.)./.(.OX+Xn.f.b.m.B.n.~                                                 ",
"                        l._.:X(.).=X/.s.a./._.n.a.a.q.    #.                                        ",
"                      M w.^.=XB.-X+Xk.f.).=X/.a.e.M.e.W &.4.` #.                                    ",
"                    @ & z a.m.m.=X^.f.>X>X/.a.a.B.B.e.<.|.0X}.4.( B                                 ",
"                  - G 0 z 0.n.B.B.m./.>X>Xf.s.).-X(.0.] 7.{.3.T.F.` b                               ",
"                  + A > z ~ e.n.s.w.j._.:X/./.=X_.B.0.<.}.9X2.2.Y.|.4.C                             ",
"                4 d { k / L.g.a.v.v.r.w.OX(._._.M.j.w.[ }.0XY.Y.}.9X[.#.J                           ",
"              X 7 ' t.z Z.5X'.g.`.@Xj., j.l.n.m.M.~ Q _ F.9X|.9X9XT.7.@.n v                         ",
"                0 } F x G.6X4X,Xh.^.`.k Q Q r.n.k.Q W ] 3.[.[.[.4.o.S K X.K m                       ",
"                7 R ^ J v %.qX2Xd.^.+XQ p.w.~ W k , W [ &.2.2.X.j S X.b.rX7.$ b                     ",
"              X = E K b { [ *.6X<XL.d.w.c.0.c z 9.9.W ( #.h D D F O.>.V.&XS.4 =                     ",
"                $ 1 n J A..XG.qXtXS.l z Z 9.u.h.1XE.{ U @.s j  .} S.~.S.L.<.d 6 @                   ",
"                  $ v V A.7XeXrXtXXXU J V p.m.OXeX4X) L X.s  . .d.v.>.!.!.:.O.G -                   ",
"                    ; & 8.OX2XqXqXtX5X<XW.V.n.OXqX<XJ 8 d f s S S F ;.>.!.~.>.T -                   ",
"                  = A.m d.-X#X2X3X6X<XR.-Xf.j./..XJ $ 7 d s s d d K [ d.S.H.S.] *                   ",
"                  5 .XU.{ d.-X#X.X'.#X@Xv.J z c J c * 9 / { _ ] _ / L K L X.C 8 +                   ",
"                  5 '.E.y.! D.+X$X$X$Xv.c z N Q Q ~ p q e b ^ / U L d ..-. .6 X X                   ",
"                2 u A.L.W.9., @X*X+X].w.z c 0.m.n.~ U r @ $ v n h h P 5.~.@.q # w >                 ",
"              @ q &.2.Y.I.9., l.q.n E z.~ 1 x q.N.q.Q H t ; # v J W ] ^ ^ { m : p.e                 ",
"            X p &.2.Y.}.}.1.% W L 7 y z.! p 9 Q -Xz.1 t d @ + @ $ $ * * * ; V p.c.e X               ",
"            X W $XwXo.7.Y.#.< p.^ > H @XQ 9 $ N /.J t 6 p H.,.d = % 7 ; 8..X9XZ.#XA.L               ",
"            . W &X8Xv *.F.o.< Z z $ L -X^ = ; ~ ^.= 4 K 3. X>.F u F F < k.;X7XZ.,X1XU X             ",
"              V p.i., I o.L , 1 > + a v.J $ ; d.+X> . <.oX>.;.1 p -.T 0 Z i.p.2..XJ.C               ",
"              > < w r d 4 > q.z.a.1 O 2 @ + O b l.x o '  X:.G 0 p +.O.S v e n 2.I.i X               ",
"            X t O.S S j 4 H *X(.q.y 2 t f @ < 0.n.Q = - * - - ; u  . . .4.Y.T.=.x.e X               ",
"            X t -.O. .u # H >X=Xf., + 7 r 2 N /.@Xb.z o O % % $ # 3 4 8 7.{.*.9 w e v               ",
"            6 r p a u u = v `.:Xv.1 O & 8 @ [ :X:X(.c o 0 ) =.=.( Y / ) o.h u 0 u Y B m             ",
"          + A F 1 w 0 q 8 , W @Xt.8 # & & o U +X-Xk.> ; =.<X5X4X1X#XE.P./ 4 4 B &.4.$.B             ",
"          = G ;.-.O.P 7     , j.e # & & & & o H @Xx o ' 5XtXeX6X,X1XK.I.P.Y $ B $.Y.T.#.B           ",
"        = y.4.>.:.T y.y     : = # $ & & & & o v b., o *.6XyXqX3X,X#Xc.P.R.N $ B &.Y.}.T.%.B B       ",
"      u Z.K.L.L.[ q L.i       O o.Z.y.u.& % $ % M r @ 8 P 1.1.P p / C.W.Z w y b J &.Y.Y.&.$.#.Y     ",
"    . p <X<XE.y.m $ Y 8 X     + A.1X#XK.[ ) e @ 9 S 4 + 6  . .6 # & N N w e B b b ( T.{.F.2.2./ b   ",
"      p H.H.Z.C     X O       + H.4X,X#XE.R.Z 4 t s - 4 f S S d i < + X e B b b b $.F.Y.T.$.#.Y     ",
"        # + +                 + H.3X2X<XE.c./ 6 O O O O 4 j h j *.<.;           b ( &.&.$.B m       ",
"                              # H.4X<XP.K.v $ @   + X X 0 S.S.;.6.[ &           b B B B B           ",
"                                p h p y e %           X t Q.Q.| } T $                               ",
"                                  .   X               f +.!.!.1.R A +                               ",
"                                                    X A >.:.:.-.-.F +                               ",
"                                                    O 5 d s d G G A +                               ",
"                                                    O 4 s s s g 6 -                                 ",
"                                                      2 4 2 4 $ -                                   ",
"                                                        X     O                                     ",
"                                                                                                    ",
"                                                                                                    "
};
