/* XPM */
static char *d6dkea2_482fe7a3_f5b0_4f14_81a1_9c7dead570a3_5__dragged___1__resized[] = {
/* columns rows colors chars-per-pixel */
"50 50 82 1 ",
"  c None",
". c #051717",
"X c #051718",
"o c #061718",
"O c #061818",
"+ c #211D19",
"@ c #221D1A",
"# c #221E1A",
"$ c #2C2017",
"% c #2D2017",
"& c #2D2118",
"* c #2A3634",
"= c #2A3734",
"- c #2B3734",
"; c #2B3735",
": c #4D3A25",
"> c #4E3A25",
", c #4E3B25",
"< c #4E3B26",
"1 c #664328",
"2 c #674429",
"3 c #734D25",
"4 c #734E25",
"5 c #744E25",
"6 c #744E26",
"7 c #3A4A40",
"8 c #3B4A40",
"9 c #3B4A41",
"0 c #3B4B41",
"q c #435E42",
"w c #435F42",
"e c #435F43",
"r c #445F43",
"t c #705B4B",
"y c #705C4B",
"u c #715C4B",
"i c #865F32",
"p c #865F33",
"a c #866033",
"s c #876033",
"d c #BC6338",
"f c #BC6339",
"g c #BC6439",
"h c #BD6439",
"j c #CA7830",
"k c #CA7930",
"l c #CA7931",
"z c #CB7931",
"x c #9A7A4D",
"c c #9B7A4D",
"v c #9A7B4E",
"b c #BA7E57",
"n c #BB7E57",
"m c #BB7F57",
"M c #BB7F58",
"N c #5E8163",
"B c #5E8263",
"V c #5F8263",
"C c #5F8264",
"Z c #EF882D",
"A c #F0882D",
"S c #948772",
"D c #948872",
"F c #948873",
"G c #948973",
"H c #958974",
"J c #F0B559",
"K c #F0B659",
"L c #F1B659",
"P c #F1B65A",
"I c #CE9E6F",
"U c #CE9F6F",
"Y c #CF9F6F",
"T c #CF9F70",
"R c #B2AA99",
"E c #B2AB99",
"W c #E2C08E",
"Q c #E2C18E",
"! c #E3C18E",
"~ c #E3C18F",
"^ c #F6E0C9",
"/ c #F7E0C9",
/* pixels */
"                                                  ",
"                                                  ",
"                                                  ",
"                                                  ",
"                                                  ",
"                                                  ",
"                                                  ",
"                                                  ",
"                                                  ",
"                   lz4jj                          ",
"                 j6jJ4jPj                         ",
"                 jKjjKz5zjj6                      ",
"                6jKzLj6jKz6l6<t,                  ",
"               .&6jjK6PKj4lz6FEFy>                ",
"              Xq&6jjjjPL6zPj6tGuGu:               ",
"              .-$43j65jPjKzz5GEyyRD>              ",
"             oqg&Yn6Lj&zljj66uRSRFFy<             ",
"             Xa=>!YU6P&65kj63uGGGy---<            ",
"             oqs:&WI6K6h64$%6tuu-=8Z/X<           ",
"             o1=:n&QI36h5&hh<u--8qBfZ-o           ",
"              .15TQQW&%&hlWI:y-8qZCNN09X          ",
"               X&jTWQ~ThzjQY&-=-8-wNNVqX          ",
"              on&LnYYIhK6jY$X--=;-sscxsX          ",
"              XYm&PnMML4$&&3X1isss----XO          ",
"              Xngf%KKK3&4lj67oX2*-=CN-X.          ",
"             oyyFg&l6=j3&6j66=&O22pss1Xfo         ",
"            XyyFGFo6-oj1*$Pl.0XXXXXoX%hgo         ",
"            XZ^&Fy&z6oP1o&l.8XTV-&-&Z/uUno        ",
"            .hZ&yy&XXXP1.6KoXTVw$re&hAtYmX        ",
"             &&--o6j6XXXXoj&oYBq%qq-&&tnX         ",
"            .q98=OLj6X*-X4j6XXXO&008GHyhX         ",
"            Xqr0$XKK5o@=XlPj&X@@.XX+HyXo<:        ",
"           o8%$&-$6K6X++XKKjX+nITnmnXX>yt>        ",
"           oqqr8X %z.++@@XK&XIQWYIhnb.<yHy<       ",
"          OhVV8hX &XX+@@@Oj&.Y~!IYhmgX,uFFy><     ",
"         .mnggXmo  Xnnh+#X&-OX87XXdgo<:<tHtyy<    ",
"         oIYno XX  XIYnng.=8X*98-+XX<:::yGGyt,    ",
"          oXo      XYIYng-XOXX=-*v+    :uuu::     ",
"                   .TYnfXX oXovvwv@    :><:       ",
"                    XXo.     XCNiro               ",
"                            oVVVqeO               ",
"                            o-;-qqX               ",
"                            X*---X                ",
"                             XXoo                 ",
"                                                  ",
"                                                  ",
"                                                  ",
"                                                  ",
"                                                  ",
"                                                  "
};
