/* XPM */
static char *output_onlinepngtools__2__resized[] = {
/* columns rows colors chars-per-pixel */
"50 50 50 1 ",
"  c None",
". c black",
"X c #051717",
"o c #051719",
"O c #061719",
"+ c #061919",
"@ c #2B2017",
"# c #2D2019",
"$ c #2A3835",
"% c #2B3835",
"& c #4D3B25",
"* c #4D3B27",
"= c #3B4A3F",
"- c #724D25",
"; c #744D25",
": c #744D27",
"> c #3B4A41",
", c #3B4C41",
"< c #425E42",
"1 c #445E42",
"2 c #6F5B4C",
"3 c #6F5D4C",
"4 c #715D4C",
"5 c #865E31",
"6 c #866033",
"7 c #BD6339",
"8 c #BD6439",
"9 c #CA7930",
"0 c #CA7931",
"q c #9B7A4D",
"w c #B97F57",
"e c #BB7F57",
"r c #BB7F58",
"t c #5E8063",
"y c #5E8263",
"u c #5E8264",
"i c #F0862B",
"p c #F0882D",
"a c #948872",
"s c #948A72",
"d c #948A74",
"f c #F0B65A",
"g c #F1B65A",
"h c #CE9E6F",
"j c #CE9F6F",
"k c #CF9F6F",
"l c #B2AA97",
"z c #B2AA99",
"x c #B2AC99",
"c c #F7E0C9",
/* pixels */
"                                                  ",
"                                                  ",
"                                                  ",
"                                                  ",
"                                                  ",
"                                                  ",
"                                                  ",
"                                                  ",
"                                                  ",
"                                                  ",
"                                                  ",
"                                                  ",
"                                                  ",
"                                                  ",
"                                ***&              ",
"                             &**3343&**           ",
"                          &**2224234333*&         ",
"                       &&&234433323343343&&       ",
"                    &**3424332assxxzldaa322&      ",
"                 *&&3222adszzzxxzsa333244434*     ",
"               3*44&**223dsa434423222aaaddsa3&    ",
"             &3aa4aa32&*3332234saasadssdaaaaa&    ",
"           &*3laxas2saz3&*23ssxzllzxzxzzxxxss2*   ",
"          &34az43dz2xdlax3*43saaxzxlzzxlzzzld4&   ",
"        Oo43aza3zssdza2xaa4&33322sadaxzzzxxxaa*   ",
"       +$X332a33d3sxs4sa3az3&443333334ssaslzls4*  ",
"      o%o3o*&*4244s3dxl34sxd*4saaaas3333323sas3*  ",
"      X%..-:-:&*3d44sxs4s3a32*aaxxzzxaaas233243*  ",
"     Oo.;9g9::-:*4s2a4zs33234&4adasxxzzxzxsassd*  ",
"    oe8:9g9:;9-:-*4s42s32%%$.*23ssaaddxzzxxxlzd*  ",
"   +e8of:g090f9::*23424.%=,==.*223dadsasdzxxsa2*  ",
"   o7Xg09900g9-9;:*s42.=<<<<<6.333334aaaada323*X  ",
"  XXoO::0:g90-f9::+2s.=<icup<q.**234433233&*&O+   ",
"  Xa4&o0:f90:g9-::o33.<18pytq,o**&*&&&&*OooOo     ",
" +s33*X:99:9:g9-:;o3.=<<<1u5=OOXooOOoooO          ",
" O2pc#,o-9f:99:::O42.$=7oooo+rkko                 ",
" O38p@<%o.0.-:-:ooO.OXX<#pcsoekko                 ",
" O$##<$#1yeeO:-Oret,@><<#8p3aOekO                 ",
"  O$$=#<yehho.Oejky<,#<<=##4aoeeo                 ",
"   OO%#<yjkko okkhwy<#=>%$%32o8X                  ",
"     Oo=eeeeO Orewe<#$$$$%222oo                   ",
"       Ooooo   ....OoOoOooXOo                     ",
"                                                  ",
"                                                  ",
"                                                  ",
"                                                  ",
"                                                  ",
"                                                  ",
"                                                  ",
"                                                  "
};
