/* XPM */
static char *__resized[] = {
/* columns rows colors chars-per-pixel */
"50 50 200 2 ",
"   c None",
".  c #070504",
"X  c #00060B",
"o  c #0B0F0E",
"O  c #0C120E",
"+  c #18130E",
"@  c #000F13",
"#  c #021517",
"$  c #091413",
"%  c #071819",
"&  c #0B1B1B",
"*  c #091817",
"=  c #151511",
"-  c #121F1D",
";  c #191813",
":  c #100C08",
">  c #241F13",
",  c #1B211C",
"<  c #10201E",
"1  c #23251C",
"2  c #28271D",
"3  c #2A291D",
"4  c #28271C",
"5  c #332B1E",
"6  c #372513",
"7  c #39301D",
"8  c #0F2120",
"9  c #132322",
"0  c #1D2624",
"q  c #1C2826",
"w  c #1C2B2A",
"e  c #152928",
"r  c #212620",
"t  c #252A23",
"y  c #2C2B23",
"u  c #242D2A",
"i  c #292E29",
"p  c #302D23",
"a  c #382F22",
"s  c #23312F",
"d  c #2D332C",
"f  c #333123",
"g  c #3A3428",
"h  c #2B3732",
"j  c #2C3935",
"k  c #323A33",
"l  c #333E38",
"z  c #47321A",
"x  c #593718",
"c  c #452C1D",
"v  c #4D3A24",
"b  c #4B3B2C",
"n  c #453726",
"m  c #523E29",
"M  c #543B25",
"N  c #463E33",
"B  c #673F28",
"V  c #2B4438",
"C  c #34423A",
"Z  c #3B4A3C",
"A  c #364738",
"S  c #3B523C",
"D  c #68401F",
"F  c #55412D",
"G  c #5C4328",
"H  c #5A502F",
"J  c #48443A",
"K  c #564331",
"L  c #5B4632",
"P  c #5D4935",
"I  c #504A3E",
"U  c #5E4B39",
"Y  c #50473C",
"T  c #45563D",
"R  c #50513E",
"E  c #624523",
"W  c #6B4925",
"Q  c #684B28",
"!  c #734E26",
"~  c #794E23",
"^  c #7A5126",
"/  c #775026",
"(  c #634E3B",
")  c #65513E",
"_  c #645E3F",
"`  c #7E623E",
"'  c #3C4D41",
"]  c #3F5844",
"[  c #594D41",
"{  c #544C41",
"}  c #435C41",
"|  c #495E41",
" . c #435B45",
".. c #595549",
"X. c #614F42",
"o. c #645242",
"O. c #6A5644",
"+. c #6D5945",
"@. c #6E5A49",
"#. c #665F45",
"$. c #745C46",
"%. c #715D4C",
"&. c #7D5E45",
"*. c #486045",
"=. c #48684D",
"-. c #546548",
";. c #73604E",
":. c #76724C",
">. c #6F6757",
",. c #756251",
"<. c #786654",
"1. c #7B6956",
"2. c #7D6C5A",
"3. c #647355",
"4. c #777759",
"5. c #824E29",
"6. c #855526",
"7. c #8A5827",
"8. c #945D29",
"9. c #965D28",
"0. c #945736",
"q. c #8E5631",
"w. c #8E612F",
"e. c #9D622B",
"r. c #96632B",
"t. c #997338",
"y. c #A4652B",
"u. c #AB692C",
"i. c #A7682C",
"p. c #B26A2C",
"a. c #A16D33",
"s. c #A87639",
"d. c #B37433",
"f. c #BA7834",
"g. c #BD6736",
"h. c #C1732F",
"j. c #C8762F",
"k. c #CB7A32",
"l. c #C77633",
"z. c #D07E34",
"x. c #C06937",
"c. c #966C4C",
"v. c #996C4B",
"b. c #966546",
"n. c #806E5C",
"m. c #81715E",
"M. c #9F7E5B",
"N. c #A86D49",
"B. c #B7744C",
"V. c #B37D57",
"C. c #857562",
"Z. c #847966",
"A. c #897A66",
"S. c #8B7D69",
"D. c #867866",
"F. c #6B805F",
"G. c #6A8462",
"H. c #B9823D",
"J. c #CC883D",
"K. c #C5833A",
"L. c #D78B3C",
"P. c #8F8451",
"I. c #BA835B",
"U. c #B18442",
"Y. c #8E816D",
"T. c #818966",
"R. c #90836F",
"E. c #9E8B64",
"W. c #928671",
"Q. c #958974",
"!. c #978A78",
"~. c #998E7A",
"^. c #9C917D",
"/. c #AA8962",
"(. c #CE9446",
"). c #DF9946",
"_. c #D79545",
"`. c #C7875E",
"'. c #E49A46",
"]. c #E59D48",
"[. c #E99147",
"{. c #E7A34C",
"}. c #CE9769",
"|. c #CF9869",
" X c #D29B6C",
".X c #C48A60",
"XX c #D4A272",
"oX c #F0A462",
"OX c #9E9481",
"+X c #A19784",
"@X c #A39986",
"#X c #A69D8A",
"$X c #A89F8C",
"%X c #AAA18F",
"&X c #ACA492",
"*X c #B0A996",
"=X c #B4AC9B",
"-X c #D0AF92",
";X c #CCBDA1",
":X c #E1C5A8",
/* pixels */
"                                                                                                    ",
"                                                                                                    ",
"                                                                                                    ",
"                                                                                                    ",
"                                                                                                    ",
"                                                                                                    ",
"                                                                                                    ",
"                                                                                                    ",
"                                                                                                    ",
"                                                                                                    ",
"                                                                                                    ",
"                                                              F F F m                               ",
"                                                        v m K @.@.@.( v m                           ",
"                                                  v M m O.O.+.%.%.@.@.O.O.U v                       ",
"                                            v v v o.( o.%.%.%.@.@.@.@.@.@.O.) L v                   ",
"                                        v v L U U %.@.@.%.m.m.D.Q.Q.!.Y.C.C.1.) U F                 ",
"                                      L L L @.2.2.2.D.D.S.+X+X@X%X#X^.Q.D.A.1.@.%.( m               ",
"                                F F v ( O.@.%.S.!.~.&X#X#X#X#X+XY.C.@.%.<.,.<.<.<.<.U               ",
"                            ,.( ) %.U m m O.@.%.Y.W.Y.,.%.,.,.,.;.;.;.2.Q.W.W.W.W.Q.2.F             ",
"                          ( D.S.<.C.Y.;.O.K F @.;.,.;.@.%.<.W.S.R.Y.Y.Q.Q.Q.Q.Q.Q.Q.W.U             ",
"                      v L C.~.@X!.R.m.D.S.Q.O.F F @.%.S.S.@X&X%X%X%X%X%X%X%X%X%X%X^.Q.;.F           ",
"                    F U %.+X!.D.W.@X1.~.~.*XS.D.( ( %.C.~.@X$X=X=X=X=X=X=X=X*X=X=X%X^.1.F           ",
"                  g ) 1.W.$XC.2.R.@XA.#X^.!.OX#Xn.L ( %.D.C.A.OX#X#X#X&X=X=X=X=X*X=X^.m.L           ",
"                & i %.2.+X~.1.!.~.R.^.%XW.1.@XW.Q.n.K O.@.@.@.,.S.S.S.Q.%X%X&X&X*X=X@X~.)           ",
"              9 w d O.+.2.n.+.C.2.D.#XOX2.W.Q.,.Q.%X%.F %.%.,.,.,.,.;.%.m.R.W.Y.+X&X*X^.<.F         ",
"            9 w y N y m F ) %.%.%.A.2.S.#X&X1.;.W.&XS.F ,.W.R.R.R.R.D.@.;.;.,.;.;.Y.Q.Q.1.F         ",
"            & u . 4 G W W G F ) D.2.;.S.*XOX,.A.1.!.1.( ( W.~.&X&X&X%X~.S.S.Y.1.+.,.<.<.%.F         ",
"          # # ; x r.H.8.! W E L ;.D.,.S.S.OXS.2.;.2.%.@.F C.~.+XOX%X=X*X%X@X#X^.S.C.C.m.D.K         ",
"        , K c z f.{.J.7.6.6.! E L 1.C.C.%.OXS.;.{ { { n F %.A.Q.Q.Q.#X@X&X=X=X=X%X@X@X@X^.U         ",
"        K B.q.a.J.{.u.6.d.d.^ ! G ( C.,.%.C.U [ j j s = a O.,.S.Y.Q.Q.Q.OX%X%X*X=X=X&X&XW.L         ",
"      t B.q.H (.a.].k.k.)._.9./ G ( ;.%.%.X.= h ' ' ' A + v %.%.1.R.Y.R.!.Q.Q.@X*X&XQ.R.;.b         ",
"      r q.g ).j.j.k.k.L.).e.i.8.! G 2.1.@.; l } *. .| | W + %.%.%.;.;.m.Q.R.W.Q.!.2.;.%.L ,         ",
"    % % , 1 w.r.p.s.'.k.i.s._.9.! y [ S.y i } f.;XG.f.-.` : F L %.%.%.;.<.<.<.1.o.F F y <           ",
"    9 ..N 5 v i.a.(.L.p.s._.d.^ / 1 Y n.+ A *.l.oXG.P.n.R = m F L L L L L L n i r , , &             ",
"  9 ..2.O.7 3 u.f.K.p.e.U.'.9.! / 1 { b r S } ` t.F.:._ e * 1 y 3 3 3 3 3 3 - # # # #               ",
"  9 A.c.A.f t W h.f.a.y.f.J.7.! E f [ + h  ._ A V } G h g J d # # # # # # #                         ",
"  < &.[.-Xp V 1 ^ K.H.6.l.9.! W 1 N X.= q C 0.1 1 V e , I.XXM.#                                     ",
"  < $.x.h.a ' w $ x ~ 6 ^ ! ! f - 9 o $ % & T 5 k.:XZ.u V.XXM.#                                     ",
"  & k c v Z h f ] :.B.L z ^ 7 ( N.3.Z 2 j S } 5 g.[.1.>.g .XM.#                                     ",
"    9 i d A f } F./. X+.$ > L I. XG.=.A g S } l x E ;.Z.t `.c.#                                     ",
"    % q w k f =.T. XXX;.X X $. XXXE.3.*.3 Z ] C i i @.>.2 N.K                                       ",
"      # & q i -./.|. X+.  # ;. X}.`.4.T f C C j h J %.o.- B                                         ",
"          # 8 I v.b.v.L     Q b.b.b.R 1 u s s s h { [ Y * #                                         ",
"              & & & & &     . . . . * & % % % % % % & &                                             ",
"                                                                                                    ",
"                                                                                                    ",
"                                                                                                    ",
"                                                                                                    ",
"                                                                                                    ",
"                                                                                                    "
};
