/* XPM */
static char *__resized[] = {
/* columns rows colors chars-per-pixel */
"50 50 196 2 ",
"   c None",
".  c #060504",
"X  c #00060B",
"o  c #090A09",
"O  c #0C110E",
"+  c #18130E",
"@  c #021417",
"#  c #091414",
"$  c #071719",
"%  c #0B1A1B",
"&  c #141512",
"*  c #121E1D",
"=  c #1B1B16",
"-  c #100C08",
";  c #231E12",
":  c #1C201B",
">  c #10201F",
",  c #23251C",
"<  c #28261D",
"1  c #2C291D",
"2  c #2B261B",
"3  c #352B1E",
"4  c #382A18",
"5  c #0F1F20",
"6  c #0F2221",
"7  c #142322",
"8  c #1C2624",
"9  c #1C2B2A",
"0  c #192927",
"q  c #232621",
"w  c #252A24",
"e  c #2C2B23",
"r  c #232C2A",
"t  c #292D29",
"y  c #322D22",
"u  c #23312F",
"i  c #2C322C",
"p  c #323024",
"a  c #3C3021",
"s  c #3C362B",
"d  c #37352B",
"f  c #2A3632",
"g  c #2C3A35",
"h  c #323933",
"j  c #323E38",
"k  c #473219",
"l  c #583718",
"z  c #452B1D",
"x  c #683F1F",
"c  c #4B3621",
"v  c #4D3B25",
"b  c #4A3B2B",
"n  c #403827",
"m  c #523F2A",
"M  c #563A24",
"N  c #463E33",
"B  c #673F28",
"V  c #2B4438",
"C  c #35433B",
"Z  c #3A4A3C",
"A  c #364738",
"S  c #3B523C",
"D  c #5C4123",
"F  c #54412D",
"G  c #5D452B",
"H  c #5A502F",
"J  c #48443A",
"K  c #554231",
"L  c #5A4632",
"P  c #5C4935",
"I  c #504A3E",
"U  c #5D4B39",
"Y  c #50473C",
"T  c #41553C",
"R  c #50533D",
"E  c #634423",
"W  c #6B4824",
"Q  c #684B28",
"!  c #744D25",
"~  c #794D23",
"^  c #7A5026",
"/  c #624F3C",
"(  c #684F39",
")  c #64513E",
"_  c #645E3F",
"`  c #7E633E",
"'  c #3C4D41",
"]  c #3E5844",
"[  c #584D41",
"{  c #435C41",
"}  c #495E41",
"|  c #435B45",
" . c #585549",
".. c #614F42",
"X. c #645242",
"o. c #6A5644",
"O. c #6D5945",
"+. c #6E5A49",
"@. c #655F45",
"#. c #755C46",
"$. c #715D4C",
"%. c #7D5E45",
"&. c #486045",
"*. c #48684D",
"=. c #546547",
"-. c #73604E",
";. c #76724C",
":. c #6F6657",
">. c #756351",
",. c #786654",
"<. c #7B6956",
"1. c #7D6C5A",
"2. c #657355",
"3. c #777759",
"4. c #824E29",
"5. c #855426",
"6. c #8A5727",
"7. c #945C28",
"8. c #965D28",
"9. c #8E5631",
"0. c #945736",
"q. c #8E602E",
"w. c #9D622A",
"e. c #96632B",
"r. c #997338",
"t. c #A5652B",
"y. c #AB692C",
"u. c #B26A2B",
"i. c #A16D32",
"p. c #A87638",
"a. c #B37432",
"s. c #BA7833",
"d. c #BD6736",
"f. c #C2742E",
"g. c #C8762F",
"h. c #CA7A31",
"j. c #C87634",
"k. c #D07E33",
"l. c #C06937",
"z. c #996D4C",
"x. c #976647",
"c. c #806E5B",
"v. c #81715E",
"b. c #9F7E5B",
"n. c #A4704E",
"m. c #B8744C",
"M. c #B0734E",
"N. c #847562",
"B. c #867864",
"V. c #897A66",
"C. c #8B7D69",
"Z. c #867866",
"A. c #6B805F",
"S. c #6A8462",
"D. c #AF803E",
"F. c #BE833C",
"G. c #CC893D",
"H. c #C58339",
"J. c #D78B3C",
"K. c #8F8451",
"L. c #B8835B",
"P. c #B18442",
"I. c #8E826D",
"U. c #818966",
"Y. c #90846F",
"T. c #9F8B64",
"R. c #928671",
"E. c #958974",
"W. c #978B78",
"Q. c #998E7A",
"!. c #9C917D",
"~. c #AB8962",
"^. c #CE9446",
"/. c #DA9745",
"(. c #C4855C",
"). c #E59C46",
"_. c #E79547",
"`. c #E7A44C",
"'. c #CE9769",
"]. c #CF9869",
"[. c #D29B6C",
"{. c #C58B60",
"}. c #D4A272",
"|. c #F0A462",
" X c #9E9481",
".X c #A19784",
"XX c #A39A86",
"oX c #A69D8A",
"OX c #A89F8C",
"+X c #AAA18F",
"@X c #ADA492",
"#X c #B0A997",
"$X c #B4AC9B",
"%X c #D1AF92",
"&X c #CDBDA1",
"*X c #E2C5A8",
/* pixels */
"                                                                                                    ",
"                                                                                                    ",
"                                                                                                    ",
"                                                                                                    ",
"                                                                                                    ",
"                                                                                                    ",
"                                                                                                    ",
"                                                                                                    ",
"                                                                                                    ",
"                                                                                                    ",
"                                                                                                    ",
"                                                              F F m m                               ",
"                                                        v v L +.+.+./ v m                           ",
"                                                  v v F o.o.o.$.$.+.+.o.o.P v                       ",
"                                              c v / ) X.$.+.+.+.+.+.+.$.$.o.) L c                   ",
"                                            U P / +.+.+.$.N.v.Z.E.E.E.C.N.N.<.X.U F                 ",
"                                      L L L o.1.1.1.Z.Z.C..X.XXX+XoX!.E.B.V.<.#.+.U                 ",
"                                F F v / o.+.>.C.E.W.@XoXoXoXoX XI.v.$.$.>.>.,.,.,.,.U               ",
"                              / ) $.L m m o.o.>.I.R.I.>.-.-.>.>.-.-.$.v.W.Y.E.R.E.R.1.F             ",
"                          U Z.C.,.N.I.-.O.K F o.>.>.>.+.+.,.I.I.Y.Y.Y.R.E.E.E.E.E.E.Y./             ",
"                      c L N.Q.oXW.I.1.V.I.R.o.K F $.$.C.I.XX@X@X+X+X+X+X+X+X+X+X+X!.E.-.F           ",
"                    L U $..XW.N.E.XX<.W.Q.#XC.N./ P $.N.W.oXoX$X$X$X$X$X$X$X$X$X$X+X!.,.F           ",
"                  s ) ,.R.OXN.1.R.XXV.+X!.W. X+Xv.L / $.Z.N.Z. X+XoXoX+X$X$X$X$X#X$X!.N.F           ",
"                $ i $.<..XQ.,.W.W.Y.!.+XR.<.oXI.R.1.L X.+.+.+.>.C.C.C.E.+X+X@X+X#X$XXXQ.)           ",
"              7 0 i o.o.v.c.+.Z.1.V.oX!.1.R.R.>.R.@X$.F $.-.-.-.-.-.-.$.v.R.Y.Y. X@X#X!.,.F         ",
"            % 9 t N e m m / $.$.+.V.1.I.oX@X<.-.R.@XC.F -.Y.Y.Y.Y.R.B.$.-.-.-.-.-.I.W.E.,.F         ",
"            7 9 . 2 D W W G m X.N.1.-.C.#X X>.V.1.W.,.) / E.!.@X#X+X+XQ.C.V.C.<.+.-.,.,.$.F         ",
"          @ @ = l e.F.7.! W E G >.Z.>.C.C..XC.v.$.1.$.$.F v.Q..X!.oX$X#XoX+X+X!.I.N.N.v.B.L         ",
"          m c k s.).G.6.5.5.! E P ,.N.N.$.!.C.$.[ [ Y n F $.V.E.E.Q.oX+X@X$X$X$X+X X+X X!.P         ",
"        K m.9.t.G.`.y.5.a.a.^ ! D ) N.>.$.B.U [ g g f & a o.-.C.I.E.R.R..X+X+X#X$X$X@X@XR.P         ",
"      w m.4.P ^.p.).g.h././.8.^ E / -.$.$...& f ' ' ' A + v $.$.<.Y.Y.Y.E.E.E.XX#X@XQ.Y.>.b         ",
"      , 0.A /.h.g.h.g././.w.t.7.! F 3.,.O.= g | &.] } &.Q + +.#.$.-.$.v.E.Y.Y.E.E.3.$.$.F :         ",
"    # $ = , q.w.u.p._.k.t.p.J.8.! 1 [ C.3 u ] F.&XA.s.=.` - F P $.$.+.-.,.,.,.,.o.F F e *           ",
"    >  .N 3 v t.i.^.J.u.p./.a.^ ! , Y c.+ A &.j.|.A.K.;.R & v m L P L L L P s t , : :               ",
"     .1.o.a 1 t.s.H.u.w.P.).8.W ^ , Y b , S { ` r.S.;.@.0 @ , < < < < < < < :                       ",
"  > C.z.V.y w W s.s.i.w.F.J.6.! E i X.+ f { @.A V ] D f s N d @ @ # @ @ @ @                         ",
"  > %._.%Xy V , ^ H.p.5.f.e.! W , J [ + 8 C 0., , g 0 8 L.}.b.@                                     ",
"  > #.l.f.y S r O l 5.4 ! ! ! a % > O # % % T 3 H.*XZ.r m.}.b.@                                     ",
"  * h z k Z h e ] 3.m.L k ^ 3 ( M.:.Z < g S { 3 d._.<.:.s {.T.@                                     ",
"    7 t f Z y { A.L.[.O.O , F L.[.S.*.A p T T j l x $.Z.w L.z.@                                     ",
"      7 9 h p *.U.].}.%.X X #.}.}.T.2.&.e Z ] C r r +.:.< n.K                                       ",
"      # % 8 w =.T.].[._     #.[.].(.3.T e C C g f [ $.X.= B                                         ",
"          $ 7 I z.x.z.P     / x.x.x.R < r u u u u [ [ Y $ @                                         ",
"              % % % %         . . . # $ $ $ $ $ $ $ % %                                             ",
"                                                                                                    ",
"                                                                                                    ",
"                                                                                                    ",
"                                                                                                    ",
"                                                                                                    ",
"                                                                                                    "
};
