/* XPM */
static char *__resized[] = {
/* columns rows colors chars-per-pixel */
"50 50 202 2 ",
"   c None",
".  c #060504",
"X  c #0C0F0E",
"o  c #0C120E",
"O  c #18130E",
"+  c #031516",
"@  c #091412",
"#  c #071818",
"$  c #0B1B1A",
"%  c #091817",
"&  c #151511",
"*  c #131E1C",
"=  c #191813",
"-  c #100C08",
";  c #241F12",
":  c #0F201F",
">  c #1D211C",
",  c #11201E",
"<  c #23251C",
"1  c #29271D",
"2  c #2A291C",
"3  c #29271B",
"4  c #322B1D",
"5  c #372513",
"6  c #39301E",
"7  c #0F2220",
"8  c #142321",
"9  c #1B2725",
"0  c #1D2B29",
"q  c #1A2927",
"w  c #252A23",
"e  c #2D2B22",
"r  c #292E29",
"t  c #222D2A",
"y  c #342F23",
"u  c #3E2F21",
"i  c #24312E",
"p  c #2D332C",
"a  c #323023",
"s  c #393529",
"d  c #2A3631",
"f  c #2D3934",
"g  c #323C34",
"h  c #313C38",
"j  c #49321B",
"k  c #593718",
"l  c #452C1C",
"z  c #4D3A24",
"x  c #4B3B2C",
"c  c #403829",
"v  c #543D26",
"b  c #523E2A",
"n  c #583A23",
"m  c #433E35",
"M  c #673F28",
"N  c #2B4437",
"B  c #394235",
"V  c #334837",
"C  c #3A4D3C",
"Z  c #36453B",
"A  c #3C533E",
"S  c #68401E",
"D  c #55412D",
"F  c #5E4429",
"G  c #5A502E",
"H  c #4D493E",
"J  c #484033",
"K  c #564330",
"L  c #5B4633",
"P  c #5D4936",
"I  c #51493D",
"U  c #5E4B39",
"Y  c #50473C",
"T  c #41553D",
"R  c #4F513E",
"E  c #50563D",
"W  c #634423",
"Q  c #6C4925",
"!  c #684B29",
"~  c #744E26",
"^  c #794E23",
"/  c #7B5126",
"(  c #624E3B",
")  c #684F39",
"_  c #65513E",
"`  c #7E623D",
"'  c #3B4C40",
"]  c #3E5844",
"[  c #594E41",
"{  c #544C41",
"}  c #445C42",
"|  c #455B44",
" . c #595649",
".. c #645241",
"X. c #6A5644",
"o. c #6D5945",
"O. c #6E5A49",
"+. c #655E42",
"@. c #745C45",
"#. c #715D4C",
"$. c #7D5F45",
"%. c #486045",
"&. c #47684D",
"*. c #546548",
"=. c #73604E",
"-. c #7D6240",
";. c #6F724E",
":. c #6B6A54",
">. c #756251",
",. c #786654",
"<. c #7B6856",
"1. c #7D6C5A",
"2. c #706B5A",
"3. c #687959",
"4. c #797658",
"5. c #7C714A",
"6. c #824E28",
"7. c #855526",
"8. c #8B5828",
"9. c #955D29",
"0. c #975D28",
"q. c #8E5631",
"w. c #935636",
"e. c #8F612F",
"r. c #9D622A",
"t. c #96632B",
"y. c #987438",
"u. c #A5652B",
"i. c #AC692C",
"p. c #A7682C",
"a. c #B26B2B",
"s. c #A16D33",
"d. c #BE6936",
"f. c #A97638",
"g. c #B47433",
"h. c #BB7A35",
"j. c #C1742F",
"k. c #C8772F",
"l. c #CB7B31",
"z. c #C77633",
"x. c #D07E33",
"c. c #966C4C",
"v. c #996C4B",
"b. c #966646",
"n. c #806D5A",
"m. c #81715E",
"M. c #9F7E5B",
"N. c #A3704E",
"B. c #B7754C",
"V. c #B0744E",
"C. c #847562",
"Z. c #857865",
"A. c #897A66",
"S. c #8B7D6A",
"D. c #867866",
"F. c #6B805F",
"G. c #698461",
"H. c #7F8A66",
"J. c #B9823D",
"K. c #CD883D",
"L. c #C8853A",
"P. c #D78B3C",
"I. c #8E8351",
"U. c #BA835B",
"Y. c #B28442",
"T. c #8E826D",
"R. c #818864",
"E. c #90846F",
"W. c #9F8B64",
"Q. c #928672",
"!. c #958A74",
"~. c #978B78",
"^. c #998E7A",
"/. c #9B917D",
"(. c #B18961",
"). c #A48A63",
"_. c #CE9446",
"`. c #DF9945",
"'. c #D89544",
"]. c #C8885E",
"[. c #E89D47",
"{. c #E59647",
"}. c #E7A34C",
"|. c #CF976A",
" X c #D39A6C",
".X c #D39F70",
"XX c #C48B60",
"oX c #D4A273",
"OX c #EFA462",
"+X c #9E9481",
"@X c #A19784",
"#X c #A29985",
"$X c #A69D8A",
"%X c #A89F8C",
"&X c #AAA18E",
"*X c #ACA492",
"=X c #AFA895",
"-X c #B0A996",
";X c #B4AD9B",
":X c #D0AF92",
">X c #CCBCA2",
",X c #E1C4A9",
/* pixels */
"                                                                                                    ",
"                                                                                                    ",
"                                                                                                    ",
"                                                                                                    ",
"                                                                                                    ",
"                                                                                                    ",
"                                                                                                    ",
"                                                                                                    ",
"                                                                                                    ",
"                                                                                                    ",
"                                                                                                    ",
"                                                              D D b                                 ",
"                                                        z b K O.O.O.( x b                           ",
"                                                    v b X.X.o.#.#.#.O.X.X.U z                       ",
"                                                  _ _ ..#.#.#.O.O.O.O.O.O.X._                       ",
"                                            P P U O.O.O.#.m.m.Z.!.!.!.T.C.Z.1._ U                   ",
"                                      L L L O.1.1.1.Z.D.S.@X@X$X*X&X/.!.Z.S.<.O.=.(                 ",
"                                  D z ( X.O.#.S.!.^.*X$X$X$X$X+XT.m.o.=.>.>.,.,.>.,.U               ",
"                              U _ #.P b b X.O.#.T.Q.T.>.#.>.>.>.=.=.=.m.Q.Q.Q.Q.Q.!.1.D             ",
"                          U C.T.<.C.T.=.o.K b O.>.>.>.O.O.,.Q.S.T.T.T.T.!.~.!.!.!.!.Q.U             ",
"                        L C.^.$X~.E.m.Z.S.!.X.K L O.#.A.S.#X*X&X&X&X&X&X&X&X&X&X&X/.!.=.            ",
"                      ( #.@X~.D.Q.#X1.^.^.-XS.Z.( ( #.C.^.$X%X;X;X;X;X;X;X;X;X;X;X&X/.<.D           ",
"                    ( ,.Q.%XZ.1.Q.#XA.%X+X~.@X&X1.P ( #.C.C.A.+X&X&X&X&X;X;X;X;X;X;X/.m.L           ",
"                $ p #.1.+X/.,.~.^.E.^.%XQ.,.#XT.Q.1.L ..#.#.O.>.S.S.S.Q.&X&X*X&X-X;X#X^._           ",
"              8 0 p o.o.1.1.O.Z.1.D.%X+X1.Q.Q.>.Q.*X#.D #.=.=.>.=.=.=.#.1.Q.Q.E.#X*X*X/.,.D         ",
"            * 0 e m 2 D D _ #.#.#.A.1.S.%X*X<.=.Q.*XS.D =.E.E.E.E.Q.Z.#.=.=.=.=.>.S.^.!.,.D         ",
"            7 0 . 3 F Q Q F D ..Z.1.=.S.=X+X>.A.1.~.,._ ( !./.*X*X*X&X^.T.Z.T.,.o.>.>.,.#.D         ",
"            + = k t.J.9.~ Q W F >.Z.>.S.S.@XS.m.#.1.#.#.D m.^.#X/.&X;X=X&X&X&X/.S.C.C.C.Z.L         ",
"          D j j h.[.K.8.7.7.~ W L <.C.C.=.+XS.#.{ { I c D =.A.!.Q.^.&X&X*X;X;X;X&X#X#X#X/.P         ",
"        K B.q.s.K.}.i.7.g.g./ ~ n ..C.>.#.Z.U { h f d & u X.=.S.T.~.Q.Q.+X*X&X=X;X;X*X*XQ.L         ",
"      w B.q.G _.s.[.k.L.{.P.0./ F _ =.#.#...& d C ' C B O x #.#.<.T.T.Q.~.Q.Q.$X=X*X^.E.>.x         ",
"      w q.s `.k.k.l.k.'.`.r.u.9.~ n m.<.O.= f | | | | %.Q O #.O.O.=.=.m.!.Q.Q.!.~.1.#.#.K >         ",
"      % * 2 e.r.a.f.{.x.i.f.P.t.~ 2 [ S.y r } h.>XF.h.*.e.X K L O.O.#.#.>.,.,.,.X.D D e *           ",
"    8  .m 4 j i.s._.P.a.f._.g.7.^ < I n.O V | z.OXG.I.n.R $ x b P P P L L P c r < > >               ",
"     .1.X.u 2 i.h.L.i.0.Y.[.9.Q / < { x < A | ` y.F.;._ q # < 2 2 2 2 2 2 2                         ",
"  , S.c.A.y w Q j.h.s.u.J.P.8.~ W y  .O d } +.N N } F N s J s +                                     ",
"  , b.{.:Xw N < ^ L.J.7.j.9.~ Q < m [ O q h w.< < N 9 9 U..XM.                                      ",
"  , O.j.j.e ' t @ k ^ 5 / ~ ~ 6 $ : o @ $ $ T 6 L.,XZ.r V..XM.                                      ",
"  $ g l z C p e } ;.B.L l ^ 6 ) N.:.C < f C } 4 a.{.,.2.m XXM.                                      ",
"    8 r p Z y } F.(..Xo.o < K U.|.H.&.Z s T | g k S @.D.w U.c.                                      ",
"      q 0 g a &.R. XoX=.    -.oX.X).3.| y Z ' Z w w #.:.3 V.J                                       ",
"          9 e *.W. X Xo.    @. X|.].3.T a g Z f f { #...= M                                         ",
"            8 H v.v.v.L     P b.b.b.E w t i i i i { [ I                                             ",
"              $ % $ %         . . . @ $ $ # # # # $ $                                               ",
"                                                                                                    ",
"                                                                                                    ",
"                                                                                                    ",
"                                                                                                    ",
"                                                                                                    ",
"                                                                                                    "
};
