/* XPM */
static char *output_onlinepngtools__2__resized[] = {
/* columns rows colors chars-per-pixel */
"50 50 204 2 ",
"   c None",
".  c #060504",
"X  c #0B0F0E",
"o  c #0C110F",
"O  c #18130D",
"+  c #081414",
"@  c #041618",
"#  c #07181A",
"$  c #0B1B1B",
"%  c #031516",
"&  c #151511",
"*  c #1A1511",
"=  c #111F1F",
"-  c #171914",
";  c #100C09",
":  c #231E13",
">  c #12201E",
",  c #1C211C",
"<  c #23251D",
"1  c #2A291E",
"2  c #29261B",
"3  c #342A1F",
"4  c #362513",
"5  c #39301D",
"6  c #0F2121",
"7  c #132323",
"8  c #1A2826",
"9  c #1D2B2A",
"0  c #1A2825",
"q  c #212620",
"w  c #252A23",
"e  c #2D2B23",
"r  c #242D2A",
"t  c #292E2A",
"y  c #352F22",
"u  c #22312F",
"i  c #2C322C",
"p  c #323024",
"a  c #3A3529",
"s  c #2B3632",
"d  c #2C3933",
"f  c #2A3834",
"g  c #333B33",
"h  c #333E38",
"j  c #47321A",
"k  c #583718",
"l  c #452B1E",
"z  c #693F1F",
"x  c #4D3B25",
"c  c #4D3C29",
"v  c #463624",
"b  c #513F2B",
"n  c #573A25",
"m  c #443D34",
"M  c #673F29",
"N  c #2B4438",
"B  c #344237",
"V  c #3B4A3B",
"C  c #364639",
"Z  c #3B533C",
"A  c #37503B",
"S  c #5C4125",
"D  c #54412D",
"F  c #5D452C",
"G  c #4F483E",
"H  c #474134",
"J  c #554431",
"K  c #5A4633",
"L  c #5B4935",
"P  c #5D4B39",
"I  c #504A3E",
"U  c #44553D",
"Y  c #555137",
"T  c #634424",
"R  c #6B4925",
"E  c #674B28",
"W  c #744D26",
"Q  c #794E23",
"!  c #7A5027",
"~  c #624E3C",
"^  c #63513E",
"/  c #635E3F",
"(  c #7D623D",
")  c #3B4D40",
"_  c #3E5A43",
"`  c #3F5442",
"'  c #534C41",
"]  c #594E42",
"[  c #435C41",
"{  c #495E41",
"}  c #425B45",
"|  c #5A5548",
" . c #474840",
".. c #645241",
"X. c #695645",
"o. c #6C5946",
"O. c #6E5B4B",
"+. c #665F44",
"@. c #745D46",
"#. c #715E4D",
"$. c #7D5E46",
"%. c #47664B",
"&. c #536547",
"*. c #72604E",
"=. c #76714C",
"-. c #6C6A56",
";. c #756351",
":. c #786754",
">. c #7A6956",
",. c #7D6D5A",
"<. c #687959",
"1. c #7A7459",
"2. c #7F7160",
"3. c #824E29",
"4. c #855426",
"5. c #885728",
"6. c #945D29",
"7. c #965D28",
"8. c #945736",
"9. c #8E5631",
"0. c #9D622B",
"q. c #96632C",
"w. c #8E6030",
"e. c #997337",
"r. c #A4652C",
"t. c #A7692D",
"y. c #AD682B",
"u. c #B26B2C",
"i. c #A16D34",
"p. c #A87639",
"a. c #B37433",
"s. c #BA7834",
"d. c #BE6736",
"f. c #C1742F",
"g. c #C8772F",
"h. c #C47A33",
"j. c #CA7B32",
"k. c #C97237",
"l. c #D17E34",
"z. c #C06937",
"x. c #966C4C",
"c. c #976848",
"v. c #806F5D",
"b. c #81725E",
"n. c #9F7E5A",
"m. c #98704B",
"M. c #A3704E",
"N. c #B8754C",
"B. c #B0744E",
"V. c #847662",
"C. c #857865",
"Z. c #897B66",
"A. c #8B7E69",
"S. c #897766",
"D. c #6B805F",
"F. c #6A8462",
"G. c #7F8B67",
"H. c #AF803F",
"J. c #BD823D",
"K. c #CC893E",
"L. c #C8853B",
"P. c #D78B3C",
"I. c #908351",
"U. c #BA835B",
"Y. c #B18443",
"T. c #8E826D",
"R. c #818865",
"E. c #90856E",
"W. c #9E8C64",
"Q. c #928671",
"!. c #958974",
"~. c #988E77",
"^. c #998E79",
"/. c #968A78",
"(. c #9C927C",
"). c #AA8A62",
"_. c #CE9447",
"`. c #DF9946",
"'. c #D79545",
"]. c #C7885E",
"[. c #E49B46",
"{. c #E59D48",
"}. c #E99147",
"|. c #E7A34D",
" X c #CD9769",
".X c #CF9869",
"XX c #D29B6C",
"oX c #C48B60",
"OX c #D5A06F",
"+X c #D4A372",
"@X c #F0A462",
"#X c #9E9481",
"$X c #A19783",
"%X c #A39A85",
"&X c #A69E8A",
"*X c #A89F8C",
"=X c #AAA28E",
"-X c #ACA491",
";X c #AFA895",
":X c #B0A996",
">X c #B4AD9B",
",X c #D0AF92",
"<X c #CCBDA1",
"1X c #E1C5A8",
/* pixels */
"                                                                                                    ",
"                                                                                                    ",
"                                                                                                    ",
"                                                                                                    ",
"                                                                                                    ",
"                                                                                                    ",
"                                                                                                    ",
"                                                                                                    ",
"                                                                                                    ",
"                                                                                                    ",
"                                                                                                    ",
"                                                              D D D                                 ",
"                                                        c c J O.O.O...x c                           ",
"                                                  x x b X.X.o.#.#.#.O.X.o.P x                       ",
"                                                  ^ ^ ..#.#.#.O.O.X.O.O.O.o.^ K                     ",
"                                            P P P #.O.O.#.b.b.V.!.!./.T.V.V.>.X.P                   ",
"                                      J L K O.,.,.,.C.C.A.$X$X&X-X&X#X!.C.Z.>.O.O.P                 ",
"                                  D x ^ X.O.#.A././.-X&X*X*X&X#XT.,.O.O.:.:.:.:.:.>.P               ",
"                              ~ ^ *.P b b X.O.O.T.E.T.;.#.;.;.;.;.;.;.,.Q.Q.Q.Q.Q.!.,.J             ",
"                          P V.A.>.V.T.*.X.J b O.;.;.;.O.#.;.Q.A.T.T.T.Q.Q.!.~.Q.!.!.Q.P             ",
"                        J C.^.&X!.E.V.V.A.!.O.D J O.#.A.A.$X-X-X=X=X=X=X=X=X=X=X=X(.!.*.D           ",
"                    J P #.$X^.C.Q.%X>.^.^.:XA.C.~ P #.V.^.&X*X>X>X>X>X>X>X:X>X>X>X=X(.>.D           ",
"                    ^ :.Q.*XC.,.E.%XZ.&X(./.$X*X,.P ~ *.V.V.S.#X&X=X&X-X>X>X>X>X:X>X(.b.K           ",
"                $ i *.,.#X(.:./.^.E.(.=XQ.>.%XT.Q.,.J X.O.O.O.;.A.A.A.!.&X-X-X-X:X>X%X~.^           ",
"              7 9 i O.o.,.,.O.V.,.Z.&X~.,.E.T.;.Q.-X*.D #.*.;.;.*.;.*.#.1.Q.T.T.$X-X;X(.:.D         ",
"            7 9 t m e b D ..#.*.#.Z.,.T.=X;X>.;.Q.-XA.D *.E.E.E.Q.Q.V.#.*.;.;.;.;.T.~.Q.:.D         ",
"            6 8 . 2 S R R F D ..V.1.O.T.;X#X;.Z.,./.>...~ !.(.=X-X-X=X~.Z.Z.T.:.O.*.;.:.#.J         ",
"            % * k q.J.6.W T T F ;.C.;.T.T.#XT.,.*.>.#.O.D b.~.%X(.=X>X-X=X&X=X(.A.V.V.V.C.K         ",
"          J l j s.{.K.5.4.4.W T J >.V.V.*.(.T.#.]  . .v D ;.Z.!.Q.~.=X=X-X>X>X>X=X#X%X%X(.Y         ",
"        J N.9.i.K.|.y.4.a.a.! W S ..V.;.O.C.P ] h h f O y X.;.Z.T./.Q.Q.#X-X=X;X>X>X;X-XQ.K         ",
"      w B.9.E _.i.{.g.g.`.'.7.! S ..*.#.O...& d V ) V C O c #.#.,.T.E.Q.!.!.!.%X;X-X~.T.;.c         ",
"      < 8.a `.h.j.j.g.'.`.0.t.q.R S ,.>.O.- g U %.} %.U R O #.O.O.*.*.1.Q.Q.Q.!.~.,.#.#.J ,         ",
"    @ $ , < w.0.u.p.`.l.t.p.P.6.W e | S.3 i U L.<X<.s.&.( X D L #.#.#.#.>.:.:.>.X.D D e >           ",
"    6 | H 3 x t.i._.P.y.p.'.a.! W < G v.O C { g.@XF.I.=.Y $ x b L L L L J K a t q , ,               ",
"    | 2.X.y 2 t.a.L.u.0.Y.{.6.W ! q  .c , Z %.( e.D.=.+.8 @ < e 1 1 1 2 1 1                         ",
"  7 C.m.S.y w R f.s.i.r.J.K.5.W T p ..& s _ / N N _ D d a H a @                                     ",
"  = $.}.,Xe N q ! L.H.4.f.6.W R , H | O 8 B 8.< 1 f 8 0 U.+Xn.                                      ",
"  = #.d.f.y Z r o k ! 4 ! W W y $ 6 X + $ $ U 3 L.1XC.r U.XXn.                                      ",
"  $ g l j V g p _ 1.N.K j Q 5 ~ M.-.V < d Z } 3 d.}.>.-.a oXW.                                      ",
"    7 i s V e [ D.U.XXo.X 2 J U.XXG.%.C a Z [ h k z *.C.q U.x.                                      ",
"      8 9 g p %.G..X+X*.    $.OXOXW.<.} e V ) B r r O.*.< B.H                                       ",
"          8 t &.I..XXXo.    @.XX X].<.U p g ) d f  .#...- R                                         ",
"          @ 7 G M.x.m.K     P c.c.c.Y w r u u u f ' ] ' #                                           ",
"              $ 6 $ $         . . . @ $ # # # # # # $ $                                             ",
"                                                                                                    ",
"                                                                                                    ",
"                                                                                                    ",
"                                                                                                    ",
"                                                                                                    ",
"                                                                                                    "
};
