/* XPM */
static char *d6dkea2_482fe7a3_f5b0_4f14_81a1_9c7dead570a3_1__dragged__resized[] = {
/* columns rows colors chars-per-pixel */
"50 50 24 1 ",
"  c None",
". c black",
"X c #091618",
"o c #2B2119",
"O c #2D3634",
"+ c #4B3B26",
"@ c #61442A",
"# c #6F4F29",
"$ c #3E4940",
"% c #495B43",
"& c #6D5C4C",
"* c #677F64",
"= c #826136",
"- c #B16A3D",
"; c #BF7C37",
": c #957A50",
"> c #E28E38",
", c #928873",
"< c #928874",
"1 c #C8A072",
"2 c #E8B660",
"3 c #B1AA9A",
"4 c #DDC191",
"5 c #F3E0CA",
/* pixels */
"                                                  ",
"                           # #;                   ",
"                          #2;#2;#                 ",
"                       ;#;;;2;2;2;                ",
"                      #2;2;#;;;;2;#               ",
"                      #;;2#;2;;;;;#               ",
"                      #;#;;2;#;;#;#               ",
"                      ###;#;#;;;###               ",
"                      ######;#;####+&             ",
"                      #############+<&            ",
"                    +++##########++<3&+           ",
"                  &+<&<++&####+++3<&<3+O          ",
"                 +3<&&3&<3++++3<&3&3&3+>          ",
"                 OOO<<3&&<<3<<<&<<3<&&+X          ",
"                X>%$O+&<3&&<<&&<3&<&<&+X          ",
"               X%-*%%++&3<3<&3<<&&&&&++X          ",
"               X***>%+++&<<&<<&<&&&&+++           ",
"               =***%O+&&++&&&&&&&&&++&+           ",
"               X::==O+&&&&+++++++++&&&+           ",
"               XOOOO==+&&&&&&&&&&&&&&&+           ",
"               X@*OOOO+&<&&&&&&&<<&&<&+           ",
"                o@=@@@+&3&&&<<<<3<&&<&+           ",
"                 XXXXX+&3<&&<<<<3<&&<&+           ",
"                &&1411+&3<&&<<<<3<&&<&+           ",
"                X<<&&&+&3<<&&<<33<&&3&+           ",
"                X<<<<&+&<3<&&<<XXX&&3&+           ",
"                X5>oOO++<3<&&XX<<X&&3&+           ",
"                X>-o$$++<3<XX&&<<X&<3+            ",
"                 Xo$%%X+<XX&&&&XX<&<3+            ",
"                 X%%ooXXX&<<&XX3<<&<3+            ",
"        .....    oooo-X&<<&XX&<3<&&3<+            ",
"     O..&&&&&.   X%%$X&&&XX<<&<3<&&3<+            ",
"     O.&&&++++.  X**%X&XX&<3<&&3<&&3<+            ",
"     .,&&+OOOO+XX&X---XOO+<3<&&<3&&3<+            ",
"    .,,,+O$$$XX+&&&XXXXOO++<3&&<3&+3<+            ",
"    .,,&O$%$$X+++&XXX-%XXXX+<<&&<&+<&+            ",
"    .,&O$-%$$X++XX  X%O%OOOX<<&&<&+++             ",
"    .,&O$%%%$$XX.   X%O%OOOX+<&&<&+$X             ",
"     .&&O$%%%$OO&&. X%O%OOOX+<++++$OX             ",
"      ...$%-$O&&&&&. XO%OOOX++ XOOOOX             ",
"        .$$$O&&&&&&&. X%OOOX    XXXX              ",
"         .$O,,&&>>>>&.XOOOOX                      ",
"         ..,,,,>%%%$>. XOOOX                      ",
"         .&,,,>%%$$$-. XXXX                       ",
"         .&&,>%$>-O$-.                            ",
"         .&&>%$>*O.-.                             ",
"          .&>%$-%*O.                              ",
"           .>$$O.%*.                              ",
"            .>---..O                              ",
"             ...                                  "
};
