/* XPM */
static char *__resized[] = {
/* columns rows colors chars-per-pixel */
"50 50 187 2 ",
"   c None",
".  c #0C0B0A",
"X  c #020201",
"o  c #100E0B",
"O  c #19140D",
"+  c #0E1A1C",
"@  c #0B1517",
"#  c #161A17",
"$  c #191815",
"%  c #131C1D",
"&  c #1B1A16",
"*  c #201F1C",
"=  c #211C16",
"-  c #1E211C",
";  c #24221C",
":  c #2D291F",
">  c #352D1F",
",  c #3E301D",
"<  c #121F21",
"1  c #152523",
"2  c #182322",
"3  c #212825",
"4  c #2B2A24",
"5  c #232E2B",
"6  c #2C2C28",
"7  c #332B23",
"8  c #2A342B",
"9  c #2A3128",
"0  c #323027",
"q  c #3D3224",
"w  c #35342B",
"e  c #3E342A",
"r  c #3B382D",
"t  c #273230",
"y  c #2E3833",
"u  c #2D3A37",
"i  c #343730",
"p  c #333A33",
"a  c #3B3A32",
"s  c #323F3A",
"d  c #3F3E38",
"f  c #4E2F1C",
"g  c #433525",
"h  c #4A3925",
"j  c #473728",
"k  c #413B2D",
"l  c #4B3C29",
"z  c #4C3726",
"x  c #553D26",
"c  c #433D34",
"v  c #374033",
"b  c #3C4434",
"n  c #36433C",
"m  c #3C423C",
"M  c #3A483E",
"N  c #4F402C",
"B  c #52412C",
"V  c #5B452A",
"C  c #424433",
"Z  c #4D4334",
"A  c #42423A",
"S  c #4F453B",
"D  c #43483D",
"F  c #4C493A",
"G  c #4A4A34",
"H  c #534432",
"J  c #594733",
"K  c #594835",
"L  c #504338",
"P  c #54493D",
"I  c #5D4D3B",
"U  c #55513C",
"Y  c #5A523C",
"T  c #654723",
"R  c #6B4C27",
"E  c #6D4E29",
"W  c #66492C",
"Q  c #754928",
"!  c #74522A",
"~  c #7A552A",
"^  c #624C33",
"/  c #604F3B",
"(  c #6D4F38",
")  c #62513C",
"_  c #6B553B",
"`  c #605C3E",
"'  c #755D3D",
"]  c #785336",
"[  c #68633F",
"{  c #72603F",
"}  c #3E4B41",
"|  c #3E5040",
" . c #434C42",
".. c #4D4B43",
"X. c #494E48",
"o. c #564D41",
"O. c #405242",
"+. c #4E5A43",
"@. c #555543",
"#. c #5C5344",
"$. c #525C43",
"%. c #5A5C44",
"&. c #53544A",
"*. c #5B564A",
"=. c #5E5A4D",
"-. c #5B5D54",
";. c #665544",
":. c #685747",
">. c #665B44",
",. c #6A5B43",
"<. c #655748",
"1. c #6C5C4B",
"2. c #655E4F",
"3. c #705E4E",
"4. c #645E50",
"5. c #705F50",
"6. c #6E614D",
"7. c #646140",
"8. c #72624D",
"9. c #7A684E",
"0. c #6A6153",
"q. c #6A675D",
"w. c #736452",
"e. c #756854",
"r. c #746B5C",
"t. c #7B6C5B",
"y. c #786B57",
"u. c #63755A",
"i. c #7D705F",
"p. c #797A58",
"a. c #736E60",
"s. c #7D7261",
"d. c #885D2D",
"f. c #8E5934",
"g. c #975E39",
"h. c #95632F",
"j. c #956630",
"k. c #9F6139",
"l. c #9D6D39",
"z. c #A36C32",
"x. c #BE6F3F",
"c. c #A57035",
"v. c #AD7335",
"b. c #A67338",
"n. c #BE7B37",
"m. c #B37C3C",
"M. c #856845",
"N. c #906E43",
"B. c #867448",
"V. c #997542",
"C. c #8F7153",
"Z. c #A67A44",
"A. c #B27C42",
"S. c #827563",
"D. c #857967",
"F. c #857A68",
"G. c #897D6B",
"H. c #967C61",
"J. c #748262",
"K. c #B9823F",
"L. c #C4863E",
"P. c #A88048",
"I. c #B28241",
"U. c #BD8B46",
"Y. c #8C816F",
"T. c #9F8A6E",
"R. c #8D8372",
"E. c #908674",
"W. c #938976",
"Q. c #968C7A",
"!. c #9B8E76",
"~. c #9A917E",
"^. c #A38966",
"/. c #AA9575",
"(. c #C78D44",
"). c #CB8D43",
"_. c #CF9549",
"`. c #D29447",
"'. c #C98D53",
"]. c #DAA050",
"[. c #938F82",
"{. c #9D9382",
"}. c #A49C8A",
"|. c #A09685",
" X c #ACA594",
".X c #B1AA9A",
"XX c #B8B1A1",
/* pixels */
"                                                                                                    ",
"                                                                                                    ",
"                                                                                                    ",
"                                                                                                    ",
"                                                                                                    ",
"                                                                                                    ",
"                                                                                                    ",
"                                                                                                    ",
"                                                                                                    ",
"                                                                                                    ",
"                                                                                                    ",
"                                                                                                    ",
"                                                                                                    ",
"                                                                                                    ",
"                                                                                                    ",
"                                                                                                    ",
"                                                                                                    ",
"                                                                z.U.K.I._.b.                        ",
"                                                            I.m.L.v.).).).].m.                      ",
"                                                          ~ m.`.U.c.).n.n.).c.                      ",
"                                                          ! h.l.m.).m.z.n.h.h.T                     ",
"                                                          ! ! ~ d.j.j.v.v.~ R V 1.                  ",
"                                                        l V R R R ! d.~ ~ R V ,.W.8.                ",
"                                                    8.6.8.e.) ) _ T T W J / G.s.Q.Y.B               ",
"                                                    q.s.s.{.s.F.D.:./ i.Y.i.{.Q.F.s.E               ",
"                                                  B U } 4.s.G.Y.S.Q.E.S.D.W.R.R.i.;.7               ",
"                                                1 { B.$.C l e.{.E.R.G.G.Y.D.5.w.w.J 4               ",
"                                                C u.J.B.G l K w.G.S.D.G.C.q.1.:.H l q               ",
"                                                Y p.p.>.r I ,.I I I / I / I I K / / l               ",
"                                                3 U G G I ^ ,.1.:.I I I I I / :.3.;.l               ",
"                                                & F D a Z l :.D.1.5.5.w.w.y.S.3.S.:.h               ",
"                                                  j h q 7 g 5.{.t.1.w.E.{.{.D.3.Y.w.B               ",
"                                                  P #.8.1.J ,.{.~.e.w.|.XX.XG.y.}.R.I               ",
"                                                  &.!.^.H.) :.~.}.y.e.~.{.[.s.S. X{.;.              ",
"                                                  -./.y.4.Z :.{..XQ.w.0.&.n i S. X X5.              ",
"                                                  e.'.h s k / ~..Xq.a a r.a.w s. X Xy.l             ",
"                                                  g B C M 8 q *.X...o.<...d <.Q..X XS.H             ",
"                                                    9 b , : 2 c 5.r.=.6 *.r.S.Q.{.}.D.I             ",
"                                    $ 7 7 7 =       0 w h l #.r.&.X.&.5.t.s.R.W.G.D.D.w.B           ",
"                                3 $ L 1.I I g O     M u.v C S 0 w E.{.S.1.s.G.t.1.J K I l           ",
"                                4 2.e.I r i w 4 & a S ' ] g W f.V D.~.S.,.w.;.H B h h   h           ",
"                                #.~.6.a } } 5 - k ;.S 4 = 7 g.A.f.8.G.8.K H 6 -                     ",
"                              o 2.S.D Y $.} 5 > j 0 6     z g.] _ ] / H r i 2                       ",
"                                #.0.m U +.O.n 3 # *       @ i n s 0 - & 2 1                         ",
"                                ; Z d s +.%.} p c <.e     1 i #.*.D -                               ",
"                                    . 5 @./ m <.5.5.<.7 5 M U 7.8.7.2                               ",
"                                      # y X.s.w.M.A.A.V.q t  .M n y 2                               ",
"                                      X 4 F.Q.^.V.7.` M.Q # t t 5 2                                 ",
"                                      . P Y.^.P.[ { D #.Q . + + +                                   ",
"                                      o P C.P.Y B.V.q ^ f                                           "
};
