/* XPM */
static char *__resized[] = {
/* columns rows colors chars-per-pixel */
"50 50 173 2 ",
"   c None",
".  c #080606",
"X  c #0A0806",
"o  c #0B0D0C",
"O  c #15120F",
"+  c #081215",
"@  c #121C1D",
"#  c #171714",
"$  c #271910",
"%  c #351F11",
"&  c #29251B",
"*  c #23241C",
"=  c #312A1E",
"-  c #112222",
";  c #1B2423",
":  c #1A2728",
">  c #222420",
",  c #222A26",
"<  c #2B2A22",
"1  c #222D2C",
"2  c #2E2F2B",
"3  c #362D24",
"4  c #392F22",
"5  c #2D332C",
"6  c #2F3C2F",
"7  c #353024",
"8  c #3A3123",
"9  c #3C332B",
"0  c #3B3A2D",
"q  c #343A2C",
"w  c #2D3836",
"e  c #343E36",
"r  c #3D3B31",
"t  c #343E38",
"y  c #3F3E38",
"u  c #422613",
"i  c #623A18",
"p  c #4B3727",
"a  c #473925",
"s  c #423629",
"d  c #453B28",
"f  c #4A3D2B",
"g  c #473825",
"h  c #453E33",
"j  c #364237",
"k  c #3C4134",
"l  c #36423B",
"z  c #3B4C3F",
"x  c #69451F",
"c  c #49402E",
"v  c #53432D",
"b  c #5B432B",
"n  c #5D482D",
"m  c #464134",
"M  c #4D4133",
"N  c #4D4A35",
"B  c #44443B",
"V  c #49473A",
"C  c #4D493D",
"Z  c #554633",
"A  c #574934",
"S  c #5A4936",
"D  c #52473B",
"F  c #534A3E",
"G  c #5D4D3B",
"H  c #5E503C",
"J  c #5D5D3F",
"K  c #6E4D27",
"L  c #644A2B",
"P  c #684A27",
"I  c #704F28",
"U  c #764426",
"Y  c #775329",
"T  c #7C562B",
"R  c #634F34",
"E  c #614D3A",
"W  c #6A4B34",
"Q  c #63533D",
"!  c #69573F",
"~  c #6E583B",
"^  c #7A5132",
"/  c #775B3C",
"(  c #68603D",
")  c #414E41",
"_  c #504F47",
"`  c #584E42",
"'  c #4B5443",
"]  c #4F5B43",
"[  c #4A5149",
"{  c #545441",
"}  c #595541",
"|  c #535C44",
" . c #5C5A43",
".. c #53534A",
"X. c #5A5449",
"o. c #5F594C",
"O. c #5C5A51",
"+. c #635342",
"@. c #685746",
"#. c #665C43",
"$. c #6B5B44",
"%. c #605649",
"&. c #6C5C4B",
"*. c #665A4C",
"=. c #705F4F",
"-. c #7B5E45",
";. c #675E50",
":. c #6C624B",
">. c #6A684B",
",. c #74604A",
"<. c #7C6A41",
"1. c #686052",
"2. c #6F685B",
"3. c #736453",
"4. c #786756",
"5. c #736857",
"6. c #7B6C54",
"7. c #746B5B",
"8. c #7B6D5B",
"9. c #7E7651",
"0. c #7D715F",
"q. c #6A6B62",
"w. c #677B60",
"e. c #737266",
"r. c #7D7361",
"t. c #8A5D2D",
"y. c #805F39",
"u. c #996630",
"i. c #9B6B34",
"p. c #90673A",
"a. c #9D753E",
"s. c #A26D33",
"d. c #A5743B",
"f. c #A1793F",
"g. c #AE793A",
"h. c #BC7A36",
"j. c #B27B3B",
"k. c #BA7D3A",
"l. c #856B46",
"z. c #877143",
"x. c #92704B",
"c. c #80715C",
"v. c #9F7E56",
"b. c #827563",
"n. c #857967",
"m. c #867968",
"M. c #8A7E6C",
"N. c #78815E",
"B. c #C5863E",
"V. c #B78341",
"C. c #BF8641",
"Z. c #BF8842",
"A. c #8C806E",
"S. c #938068",
"D. c #8E8271",
"F. c #8B897D",
"G. c #918673",
"H. c #948A76",
"J. c #958B79",
"K. c #988E7C",
"L. c #A98A62",
"P. c #B58F63",
"I. c #A09078",
"U. c #C38A44",
"Y. c #CA8B41",
"T. c #CE9246",
"R. c #CF9549",
"E. c #979386",
"W. c #9E9482",
"Q. c #A09685",
"!. c #A49C8B",
"~. c #ABA391",
"^. c #B4AD9C",
/* pixels */
"                                                                                                    ",
"                                                                                                    ",
"                                                                                                    ",
"                                                                                                    ",
"                                                                                                    ",
"                                                                                                    ",
"                                                                                                    ",
"                                                                                                    ",
"                                                                                                    ",
"                                                                                                    ",
"                                                                                                    ",
"                                                                                                    ",
"                                                                                                    ",
"                                                                                                    ",
"                                                                                                    ",
"                                                                                                    ",
"                                                                                                    ",
"                                                                                                    ",
"                                                                                                    ",
"                                                                  V.i.U.                            ",
"                                                            g.g.k.C.U.T.R.g.                        ",
"                                                            d.T.V.j.B.h.Y.s.                        ",
"                                                            t.u.g.B.s.h.u.t.b                       ",
"                                                            K Y T t.u.s.I P Q 8.                    ",
"                                                        Q H R L I I I L L $.b.H.G                   ",
"                                                      2.8.M.b.7.4.R ! 0.8.K.M.D.$.                  ",
"                                                    b J [ 8.M.M.m.G.n.m.D.J.M.4.f                   ",
"                                                  - ( c.| d +.K.J.M.D.M.b.1.3.E 8                   ",
"                                                  N w.N.! c S ! 4.4.8.4.=.@.E f f                   ",
"                                                  8 >.:.N A $.+.G S S S S G Q @.A                   ",
"                                                  @ V B m Z G 3.&.@.@.&.=.&.3.3.Z                   ",
"                                                    d d 4 8 G b.3.=.8.H.Q.8.4.n.A                   ",
"                                                    F &.6.! E J.D.8.K.^.^.r.8.W.*.                  ",
"                                                    ..I.M.-.G K.W.8.H.E.e.;.D.!.,.                  ",
"                                                    5.P.F B G K.~.*.C o...r H.^.r.                  ",
"                                                    S Y k j s r.q.B F X...C H.^.D.                  ",
"                                                      5 m 7 ; V %.*.h ..q.=.S.^.W.Q                 ",
"                                        # 9 9 4       q 0 s F ;.X...` H.H.4.G.~.!.:.                ",
"                                      > D $.N h =   ; ' >.h 0 B F.!.4.b.M.b.H.K.G.@.                ",
"                                      7.c.h t t , < F D b g & Q W.W.r.&.n.b.b.3.G Z f               ",
"                                    C M.o.V ' l > p h 2 3 ^ ^ v A *.$.S @.$.Z 0 5 Z                 ",
"                                      5.B } ] z 5 > # + , V R 8         3 h t w 1 ,                 ",
"                                      s r t | { l y ` < < o.{ :         - : 1 1 :                   ",
"                                        . , ' F X.&.l.-.s V X.,                                     ",
"                                          o 5 e.M.x.a.f.p.$ : -                                     ",
"                                          X F H.L.z. .) / u                                         ",
"                                          O X.v.l.<.z.s L %                                         ",
"                                            9 d. .~ | k $                                           ",
"                                              x y.W d 6                                             ",
"                                                i U                                                 "
};
