/* XPM */
static char *__resized[] = {
/* columns rows colors chars-per-pixel */
"50 50 142 2 ",
"   c None",
".  c #111512",
"X  c #1B201D",
"o  c #24221B",
"O  c #29231C",
"+  c #2B281E",
"@  c #3E2415",
"#  c #152122",
"$  c #192221",
"%  c #1D2828",
"&  c #2E2620",
"*  c #252A24",
"=  c #2B2C23",
"-  c #252C28",
";  c #352F24",
":  c #29312B",
">  c #303126",
",  c #3D3225",
"<  c #35332B",
"1  c #3C3629",
"2  c #35392D",
"3  c #3F382D",
"4  c #273831",
"5  c #393730",
"6  c #333B35",
"7  c #3D3F35",
"8  c #303D38",
"9  c #442C19",
"0  c #5C3D1C",
"q  c #443525",
"w  c #483727",
"e  c #473927",
"r  c #423728",
"t  c #453E2D",
"y  c #4B3F2D",
"u  c #453F32",
"i  c #364337",
"p  c #3C443C",
"a  c #3E4D3E",
"s  c #52422E",
"d  c #434336",
"f  c #4B4331",
"g  c #434038",
"h  c #4A443A",
"j  c #434C3E",
"k  c #4D4A3D",
"l  c #534533",
"z  c #584330",
"x  c #554836",
"c  c #5A4A35",
"v  c #504438",
"b  c #534A3D",
"n  c #5D4D3A",
"m  c #5F503F",
"M  c #6A4B25",
"N  c #624029",
"B  c #654D2E",
"V  c #6C4D2C",
"C  c #754B2F",
"Z  c #745129",
"A  c #63533D",
"S  c #605A3D",
"D  c #685A3C",
"F  c #705138",
"G  c #77693F",
"H  c #4D4A41",
"J  c #524E44",
"K  c #5B4F42",
"L  c #465146",
"P  c #4C5542",
"I  c #535345",
"U  c #535A43",
"Y  c #5B584E",
"T  c #645442",
"R  c #685747",
"E  c #605A42",
"W  c #6A5B43",
"Q  c #62594C",
"!  c #6C5D4A",
"~  c #635D50",
"^  c #6A6946",
"/  c #60644A",
"(  c #6A614F",
")  c #766040",
"_  c #7B6941",
"`  c #78644D",
"'  c #6C6353",
"]  c #64665D",
"[  c #696659",
"{  c #706050",
"}  c #776955",
"|  c #786955",
" . c #736A5A",
".. c #7B6D5B",
"X. c #7D705E",
"o. c #777B59",
"O. c #7E7D59",
"+. c #7F7A6B",
"@. c #845A2B",
"#. c #855535",
"$. c #82593B",
"%. c #915932",
"&. c #93632F",
"*. c #886239",
"=. c #976832",
"-. c #9B6932",
";. c #906939",
":. c #A06D33",
">. c #A57237",
",. c #AE7334",
"<. c #AF7D3D",
"1. c #B37737",
"2. c #B87635",
"3. c #B27D3C",
"4. c #926D45",
"5. c #887144",
"6. c #9E7D55",
"7. c #A67842",
"8. c #827563",
"9. c #867967",
"0. c #8E7D66",
"q. c #877B68",
"w. c #8A7E6C",
"e. c #BB833F",
"r. c #B98240",
"t. c #AC8257",
"y. c #A4865B",
"u. c #8C806E",
"i. c #90836D",
"p. c #858073",
"a. c #8E8370",
"s. c #918673",
"d. c #958976",
"f. c #968C7A",
"g. c #C28A43",
"h. c #C98940",
"j. c #D49749",
"k. c #9E9483",
"l. c #A29987",
"z. c #A69D8C",
"x. c #ACA492",
"c. c #B1A998",
/* pixels */
"                                                                                                    ",
"                                                                                                    ",
"                                                                                                    ",
"                                                                                                    ",
"                                                                                                    ",
"                                                                                                    ",
"                                                                                                    ",
"                                                                                                    ",
"                                                                                                    ",
"                                                                                                    ",
"                                                                                                    ",
"                                                                                                    ",
"                                                                                                    ",
"                                                                                                    ",
"                                                                                                    ",
"                                                                                                    ",
"                                                                                                    ",
"                                                                                                    ",
"                                                                                                    ",
"                                                                                                    ",
"                                                                                                    ",
"                                                                3.3.g.r.                            ",
"                                                            <.g.3.h.h.j.>.                          ",
"                                                            :.e.r.r.2.1.&.                          ",
"                                                            Z @.-.-.,.@.M S                         ",
"                                                          m B V Z Z C B D 9.|                       ",
"                                                      Q  .9.X...! A } | f.w.8.V                     ",
"                                                      D L ( q.u.w.w.9.s.w.8.m O                     ",
"                                                    j O.^ t A w.w.w.w...! R s                       ",
"                                                    / o.S f T n T T T n n c c                       ",
"                                                    2 b f c R { T T T T ! ! T                       ",
"                                                    > f , , ! w.{ ..w.s.X.X.{                       ",
"                                                      R ` D ! k.+...x.c.8.s.w.l                     ",
"                                                    6 u.0.! T l.d.| +.] Q l.k.c                     ",
"                                                    p t.x p m k.w.h I Y h l.z.!                     ",
"                                                      q d 2 = J Y K H J  .z.z.!                     ",
"                                            O & O     * 2 q u ~ Y J Q X.s.s.s...c                   ",
"                                        $ < T c y o   i / u v 1 ] k.| ..8.! c n l                   ",
"                                        k 8.b i 6 * 1 J z w C %.` s.! T u w                         ",
"                                        '  .h P 6 = r 3   + #.$.F m y 2 $                           ",
"                                        b J h U L : =       < a p o . #                             ",
"                                          O - U k H Q T + 4 h ( E :                                 ",
"                                            . 6 [ ..4.7.*.> p p 6 #                                 ",
"                                              h d.y.G I ) 9 # % #                                   ",
"                                              K 6.G 5.l z 9                                         ",
"                                              , ;.S S a O                                           ",
"                                                0 C N >                                             ",
"                                                                                                    ",
"                                                                                                    ",
"                                                                                                    "
};
