/* XPM */
static char *__resized[] = {
/* columns rows colors chars-per-pixel */
"50 50 180 2 ",
"   c None",
".  c #161A1B",
"X  c #1E221E",
"o  c #2D251B",
"O  c #172425",
"+  c #1C2627",
"@  c #1F2A2A",
"#  c #2E2722",
"$  c #2B2820",
"%  c #2B2A23",
"&  c #2B2E26",
"*  c #212B29",
"=  c #302C26",
"-  c #283128",
";  c #29312F",
":  c #3B3426",
">  c #34322A",
",  c #3D3329",
"<  c #33382A",
"1  c #3E3A2D",
"2  c #353E35",
"3  c #3E3F36",
"4  c #353F38",
"5  c #453826",
"6  c #463826",
"7  c #40382F",
"8  c #4B3B28",
"9  c #4E3F2C",
"0  c #5D3B21",
"q  c #403E30",
"w  c #403E36",
"e  c #394337",
"r  c #4E412E",
"t  c #50422F",
"y  c #5C412B",
"u  c #5E402B",
"i  c #464033",
"p  c #434134",
"a  c #4C4032",
"s  c #4B4632",
"d  c #4E4134",
"f  c #4D4335",
"g  c #4E4335",
"h  c #474238",
"j  c #45463E",
"k  c #4A433A",
"l  c #494739",
"z  c #4B453B",
"x  c #4A473E",
"c  c #484B3B",
"v  c #4F483C",
"b  c #4F4E3C",
"n  c #504333",
"m  c #504532",
"M  c #544533",
"N  c #534737",
"B  c #5D4731",
"V  c #584734",
"C  c #564835",
"Z  c #5A4A37",
"A  c #574F3B",
"S  c #50493F",
"D  c #5E4E3B",
"F  c #594F3F",
"G  c #5E4E3C",
"H  c #50533F",
"J  c #6B4F2F",
"K  c #704F28",
"L  c #6E512E",
"P  c #7C5427",
"I  c #675034",
"U  c #685237",
"Y  c #60543F",
"T  c #6E593C",
"R  c #6C583F",
"E  c #6D593F",
"W  c #7F5632",
"Q  c #70613F",
"!  c #71633F",
"~  c #404F40",
"^  c #5E4F40",
"/  c #525541",
"(  c #5E5443",
")  c #515944",
"_  c #5B5348",
"`  c #5A564A",
"'  c #5F594D",
"]  c #5E5C4F",
"[  c #5E5D52",
"{  c #625240",
"}  c #635240",
"|  c #635341",
" . c #645441",
".. c #605144",
"X. c #675745",
"o. c #685746",
"O. c #605B40",
"+. c #625F44",
"@. c #685947",
"#. c #6A5A46",
"$. c #6B5B49",
"%. c #6B5C49",
"&. c #6D5C4C",
"*. c #6E5E4C",
"=. c #6E5F4C",
"-. c #6F5F4E",
";. c #6F624D",
":. c #666A4F",
">. c #6B6849",
",. c #6D6F4D",
"<. c #70624F",
"1. c #656052",
"2. c #646055",
"3. c #6C675B",
"4. c #716151",
"5. c #736353",
"6. c #716450",
"7. c #746452",
"8. c #766754",
"9. c #766856",
"0. c #786B56",
"q. c #776B5B",
"w. c #7A6E5C",
"e. c #7C6D5C",
"r. c #7E6F5D",
"t. c #7E715F",
"y. c #7E725F",
"u. c #717066",
"i. c #797060",
"p. c #7D7160",
"a. c #7F7261",
"s. c #7F7361",
"d. c #7D7465",
"f. c #7D796C",
"g. c #80572A",
"h. c #83623B",
"j. c #976731",
"k. c #A36F35",
"l. c #A96F32",
"z. c #AE783A",
"x. c #B17C3C",
"c. c #8F6F44",
"v. c #906D41",
"b. c #87745C",
"n. c #89775F",
"m. c #967D51",
"M. c #817361",
"N. c #827562",
"B. c #817662",
"V. c #827662",
"C. c #857866",
"Z. c #877B68",
"A. c #887B69",
"S. c #887B6B",
"D. c #8A7D6A",
"F. c #8B7E6D",
"G. c #B6803F",
"H. c #BC813D",
"J. c #BE833F",
"K. c #C4823B",
"L. c #BD8540",
"P. c #BE8641",
"I. c #8B806F",
"U. c #97856A",
"Y. c #8B8171",
"T. c #8D8170",
"R. c #8E8371",
"E. c #8F8473",
"W. c #898578",
"Q. c #908573",
"!. c #918773",
"~. c #908474",
"^. c #918674",
"/. c #9C927E",
"(. c #C38B44",
"). c #9B9180",
"_. c #9C9280",
"`. c #A39B89",
"'. c #A8A08E",
"]. c #AFA797",
/* pixels */
"                                                                                                    ",
"                                                                                                    ",
"                                                                                                    ",
"                                                                                                    ",
"                                                                                                    ",
"                                                                                                    ",
"                                                                                                    ",
"                                                                                                    ",
"                                                                                                    ",
"                                                                                                    ",
"                                                                                                    ",
"                                                                                                    ",
"                                                                                                    ",
"                                                                                                    ",
"                                                                                                    ",
"                                                                                                    ",
"                                                                                                    ",
"                                                                                                    ",
"                                                                                                    ",
"                                                                                                    ",
"                                                                                                    ",
"                                                                                                    ",
"                                                                                                    ",
"                                                              z.G.(.P.                              ",
"                                                            x.L.J.K.H.                              ",
"                                                            g.j.k.l.P I                             ",
"                                                          #.U J K L R V.t.                          ",
"                                                        ] i.S.N.0.s.E.~.=.                          ",
"                                                      +.,.s 7.Q.T.F.e.*.t                           ",
"                                                      :.>.m } |  .{ G D Z                           ",
"                                                      q p r X.&.o.-.4.5.@.                          ",
"                                                      f Y C <.C.M.'.).a.y.                          ",
"                                                      1.U.%.8._.p.W.2.I.^.                          ",
"                                                      E T 2 ( f.S _ x Y.`.                          ",
"                                                        < : w ` z 3.q.R.].6.                        ",
"                                              7 ^ a o   ) n k u.d.D.Z.!./.;.                        ",
"                                            h w.l 4 % g d u 8 B.A.$.r.9.F M                         ",
"                                            v ' H ~ & $ . N B 6 V 9 i 3 ; >                         ",
"                                              = e / j .., b c       O @ +                           ",
"                                                X [ b.c.v.5 *                                       ",
"                                                # n.m.! A 0                                         ",
"                                                  h.Q O.1                                           ",
"                                                    W y -                                           ",
"                                                                                                    ",
"                                                                                                    ",
"                                                                                                    ",
"                                                                                                    ",
"                                                                                                    ",
"                                                                                                    ",
"                                                                                                    "
};
