/* XPM */
static char *__resized[] = {
/* columns rows colors chars-per-pixel */
"50 50 192 2 ",
"   c None",
".  c #2E120A",
"X  c #34140B",
"o  c #3C160D",
"O  c #3F190F",
"+  c #46180E",
"@  c #441810",
"#  c #4D1B11",
"$  c #541E13",
"%  c #5B1D14",
"&  c #631D13",
"*  c #542012",
"=  c #5C2214",
"-  c #5D2519",
";  c #612615",
":  c #6B2B17",
">  c #6E2718",
",  c #6F2918",
"<  c #652817",
"1  c #742B19",
"2  c #7C2C1C",
"3  c #7C251B",
"4  c #6C351A",
"5  c #7C321C",
"6  c #7D3A1F",
"7  c #7B401F",
"8  c #872F1F",
"9  c #85311D",
"0  c #8B341E",
"q  c #93351F",
"w  c #9A371F",
"e  c #8F3820",
"r  c #8F3223",
"t  c #933521",
"y  c #9B3622",
"u  c #943B21",
"i  c #9A3923",
"p  c #A33725",
"a  c #AF3625",
"s  c #A43925",
"d  c #A83A26",
"f  c #AD3628",
"g  c #A43C2B",
"h  c #AD3928",
"j  c #B53B2A",
"k  c #BB3B2C",
"l  c #B83826",
"z  c #FB1502",
"x  c #F51F07",
"c  c #F91B04",
"v  c #DF3516",
"b  c #D7351F",
"n  c #DA351C",
"m  c #D63B1E",
"M  c #D83A1D",
"N  c #EE260D",
"B  c #EA2A0E",
"V  c #E62C0E",
"C  c #F22209",
"Z  c #F72705",
"A  c #EF3D0C",
"S  c #F93504",
"D  c #F83805",
"F  c #E42E14",
"G  c #E92A10",
"H  c #E13215",
"J  c #E03018",
"K  c #E23E15",
"L  c #CF3725",
"P  c #CE3C25",
"I  c #CD3728",
"U  c #C53D2D",
"Y  c #CA3B2B",
"T  c #D43621",
"R  c #D13E23",
"E  c #FC3D2E",
"W  c #EE3737",
"Q  c #E73A37",
"!  c #ED3A36",
"~  c #EE373A",
"^  c #ED3938",
"/  c #E23F3A",
"(  c #F43636",
")  c #FB3434",
"_  c #F33A34",
"`  c #FA3B31",
"'  c #F23738",
"]  c #F13838",
"[  c #9E4325",
"{  c #995028",
"}  c #985529",
"|  c #A44427",
" . c #AD432B",
".. c #A74C28",
"X. c #AA4D29",
"o. c #B5412A",
"O. c #BB4D2E",
"+. c #BA462C",
"@. c #A85F2F",
"#. c #A9562C",
"$. c #BB542E",
"%. c #B0592F",
"&. c #BD592F",
"*. c #BC5930",
"=. c #B86331",
"-. c #F84305",
";. c #F74808",
":. c #F84D06",
">. c #F95E06",
",. c #F6520A",
"<. c #E85416",
"1. c #FC5D1E",
"2. c #F66C08",
"3. c #F87406",
"4. c #FA7D0A",
"5. c #EE6B1D",
"6. c #FB641C",
"7. c #FC6A19",
"8. c #F96A1A",
"9. c #FC7315",
"0. c #FC7B11",
"q. c #CD4025",
"w. c #C5422D",
"e. c #C9422B",
"r. c #C1492E",
"t. c #CA4A2E",
"y. c #D44725",
"u. c #DE5D28",
"i. c #C64A30",
"p. c #C84B30",
"a. c #C45532",
"s. c #CB5633",
"d. c #C15B30",
"f. c #CC5A35",
"g. c #D25D34",
"h. c #D95F30",
"j. c #FC4C27",
"k. c #FB432B",
"l. c #F64A2A",
"z. c #FB4A28",
"x. c #F6452F",
"c. c #F75226",
"v. c #FB5423",
"b. c #FA5B20",
"n. c #EC4335",
"m. c #F44131",
"M. c #CD6535",
"N. c #C76A36",
"B. c #D36035",
"V. c #D86637",
"C. c #D96B39",
"Z. c #D56738",
"A. c #D37339",
"S. c #DA743B",
"D. c #DB7E3C",
"F. c #E56E29",
"G. c #DC7B40",
"H. c #FA8B06",
"J. c #FC830D",
"K. c #FD8B09",
"L. c #FD9305",
"P. c #FE9A01",
"I. c #F6980C",
"U. c #F1991B",
"Y. c #FAA90A",
"T. c #F7B20E",
"R. c #FCBE04",
"E. c #F7AB11",
"W. c #F5A517",
"Q. c #EDB71F",
"!. c #E78739",
"~. c #F2AB25",
"^. c #EDA834",
"/. c #FDCA02",
"(. c #FBC603",
"). c #F5C414",
"_. c #F0C918",
"`. c #F8CD11",
"'. c #F3CE27",
"]. c #FBD02A",
"[. c #DD8647",
"{. c #E38542",
"}. c #E38B46",
"|. c #EB9345",
" X c #EA9C4C",
".X c #E29049",
"XX c #ECA44D",
"oX c #F1AC4E",
"OX c #EDCD4F",
"+X c #FAE583",
"@X c #FAE68B",
"#X c #FBF7DA",
/* pixels */
"                                                                                                    ",
"                                                                                                    ",
"                                                                                                    ",
"                                                                                                    ",
"                                                                                                    ",
"                                                                                                    ",
"                                                                                                    ",
"                                                ~ ^                                                 ",
"                                              _ z.j.!                                               ",
"                                            ' l.L.L.1.                                              ",
"                                            x.9.9.0.K.6.                                            ",
"                                          ' ` l.( _ v.0.l.~                                         ",
"                                                    ) k.x.' !                                       ",
"                                              ! ^   ^ '                                             ",
"                                              ) '                                                   ",
"                                              ) '                                                   ",
"                                              ) ( ~ '                                               ",
"                                              ` E x.) !                                             ",
"                                              6.0.0.j.'                                             ",
"                                            ` J.P.P.v.'     ' '                                     ",
"                                      ( ' ' j.H.P.P.v.(     ) )                                     ",
"                                      k.7.7.K.P.P.P.0.v.` m.1.E ( ^                                 ",
"                            ) ) _   _ 9.K.0.0.1.z.1.K.L.9.9.P.7.` ) '                               ",
"                        ^ ) ) ) ^   ` b.k.) ) ) ) ) E 1.7.v.6.K.J.z.)                               ",
"                        ) ) ` ) ' ) ) ! Q ( ( (     ^ ( ~   ) b.P.9.)                               ",
"                      ( ) 1.J.0.l.) '         OX'.`.        ^ ` 0.7._                               ",
"                      ) j.L.P.L.v.)     ).).@X#X+X`.(.I.E.    ' k.k.                                ",
"                      ) 7.P.H.7.` n.Q.T.2.T.+X@X].(./.3.S J.).  ^ ( '                               ",
"                      ) b.L.6.(   _.Y.-.c L././.(././.H.z c >.T.    (                               ",
"                        _ 6.z.    I.S z z D Y./././.R.,.z z z :.E.  ~ ( ] _                         ",
"                        ' k.'   I.S z z z z Z 2.3.3.-.c c c c c ;.W.  ( ) E b._                     ",
"                        ' (   U.A C x c z z z z z z z c x x x N x ,.~.  ( k.0.l.                    ",
"                        _   ^.<.V B N C c z z z z z c C C N G B B B 5.    ( k.!                     ",
"                      ] ]   F.H v H H B C Z c c c x C N G F H H v H <.!.  ( (                       ",
"                      (     y.M m M n F G B N N N N G F H K R T m m n u.    '                       ",
"                    ' ]   u.R y.q.R R T n F F F F J J T T T R R q.R R R {.  ) (                     ",
"            Q     ^ ) W   y.e.e.g | l T T b b b T T T I I I U y & a q.q.g.  ( ) ) ]                 ",
"          m.6.z.( ^ Q   G.Y Y e.t # & U I I I I L T I Y Y Y j < $ l e.q.t..X    ( ) '               ",
"          m.v._ (     oXS.e.e.e.U f 3 k Y Y Y Y Y Y Y Y Y U p t U w.U e.e.C.XX    ! ( '             ",
"        Q !       XX|.C.t.U U U U U U U U Y Y Y U Y U U U U U U U q.U e.e.w.B.|.oX    ' ~ n.        ",
"            XX}.S.g.w.t.g.U U U U U U U U U U U U U U U U U U U U U U U U s.B.r.C.{. X X            ",
"        XX{.f.w.k j a M.V.U U U U U U U U U U U U U U U U U U U U U U U U p.{.+.j w.p.g.D.XX        ",
"      [.f.i.i.h p y p &.C.U U U U U U U U U U U U U U U U U U U U U U U U s.D.i p s f h j f.}.      ",
"      a.f *.d.y t q q s $.w.k k k k j k k U U U U U U U w.t.U U U U U k k O. .y y w y y g j B.      ",
"      j t r 0 9 9 9 0 0 t s d d p p p O.s.r.k U U k p.g.B.O.k k k k j f f y y y y y t i p O.f.      ",
"      g 2 ; $ $ = 1 9 0 0 0 q 0 8 9 0 y $.A.S.S.C.G.A.*.d p p p p p y y t t y p g 8 1 2 t g  .      ",
"            X X X # 2 i y 0 0 9 2 > , 2 0 u | ....[ t r 0 0 u d  .g p y y p O.*.t % # -             ",
"                  . * %.$. .u 3 & # # % < 1 2 9 5 5 1 , , 2 u #.N.A.M.a.a.N.=.5 #                   ",
"                    X 4 @.@.6 # X X X o @ # = ; = = * # # # * * : 7 } } } 6 * X                     ",
"                                          X O O @ o X X .                                           "
};
