/* XPM */
static char *__resized[] = {
/* columns rows colors chars-per-pixel */
"50 50 197 2 ",
"   c None",
".  c #2B1209",
"X  c #34130B",
"o  c #3C160D",
"O  c #3E180E",
"+  c #41170E",
"@  c #421A0E",
"#  c #4D1B11",
"$  c #441B10",
"%  c #551E12",
"&  c #581D13",
"*  c #5B2214",
"=  c #632416",
"-  c #6C2317",
";  c #6F2619",
":  c #672918",
">  c #732A19",
",  c #7B2D1A",
"<  c #782419",
"1  c #7E301B",
"2  c #743A1C",
"3  c #822E1C",
"4  c #8B2A1C",
"5  c #85321C",
"6  c #8D341E",
"7  c #8B381F",
"8  c #92351F",
"9  c #883422",
"0  c #943521",
"q  c #9B3622",
"w  c #963821",
"e  c #9C3924",
"r  c #A23724",
"t  c #A33A25",
"y  c #AA3926",
"u  c #AE3928",
"i  c #AA3526",
"p  c #B03826",
"a  c #B33A28",
"s  c #BC3C2B",
"d  c #FC1601",
"f  c #F61E05",
"g  c #FA1A02",
"h  c #DB341B",
"j  c #D9391B",
"k  c #D23D1E",
"l  c #EE260B",
"z  c #EB2A0D",
"x  c #E72C0D",
"c  c #F52107",
"v  c #FA2003",
"b  c #F22309",
"n  c #F93904",
"m  c #E52D12",
"M  c #E13114",
"N  c #E03B16",
"B  c #CD3D26",
"V  c #C53D2D",
"C  c #CA3B2B",
"Z  c #CF3726",
"A  c #D33623",
"S  c #D23D22",
"D  c #FC3D2E",
"F  c #EE3A36",
"G  c #ED3639",
"H  c #E43E3C",
"J  c #EC3A39",
"K  c #EE3537",
"L  c #F53636",
"P  c #FB3434",
"I  c #F23B34",
"U  c #FA3A31",
"Y  c #F13638",
"T  c #F13838",
"R  c #864021",
"E  c #8C4123",
"W  c #9D4325",
"Q  c #8F5126",
"!  c #AD412A",
"~  c #A44B29",
"^  c #AB4728",
"/  c #BA4E2C",
"(  c #B4472C",
")  c #A35D2D",
"_  c #A9562B",
"`  c #BB512D",
"'  c #B5592D",
"]  c #BA5C2F",
"[  c #B1572E",
"{  c #B24431",
"}  c #BB5F31",
"|  c #AC622F",
" . c #F84504",
".. c #F54B07",
"X. c #F85B08",
"o. c #E64A18",
"O. c #FC5E1F",
"+. c #F76107",
"@. c #F86F08",
"#. c #F97107",
"$. c #FC7E0F",
"%. c #F67308",
"&. c #EB6819",
"*. c #FC6F16",
"=. c #FC641C",
"-. c #F66A1B",
";. c #FB6A19",
":. c #F46811",
">. c #FC7314",
",. c #FD7A11",
"<. c #F2711A",
"1. c #CD4126",
"2. c #C5422C",
"3. c #CB422B",
"4. c #C44A2F",
"5. c #C94B2C",
"6. c #D64121",
"7. c #C3502F",
"8. c #D75327",
"9. c #C54C31",
"0. c #CC4D31",
"q. c #CD5331",
"w. c #CB5A33",
"e. c #C15830",
"r. c #D15B33",
"t. c #EF462E",
"y. c #EB4A2E",
"u. c #F64F27",
"i. c #FB4B27",
"p. c #F2442E",
"a. c #FB432B",
"s. c #F24B2C",
"d. c #FA4929",
"f. c #EF5E23",
"g. c #FB5423",
"h. c #F75B22",
"j. c #FB5A21",
"k. c #ED4332",
"l. c #EB493A",
"z. c #F24031",
"x. c #CA6234",
"c. c #CC6B36",
"v. c #C06633",
"b. c #D26336",
"n. c #D36937",
"m. c #DA6F36",
"M. c #D96B39",
"N. c #D46938",
"B. c #DA703A",
"V. c #DA743B",
"C. c #E26F2D",
"Z. c #E07B3D",
"A. c #E85340",
"S. c #D67741",
"D. c #D87E42",
"F. c #E6774A",
"G. c #FA8506",
"H. c #FB8E07",
"J. c #FD820E",
"K. c #FC8C09",
"L. c #FD9405",
"P. c #FE9A01",
"I. c #FD9008",
"U. c #F59B0B",
"Y. c #F9AB0C",
"T. c #FBAF05",
"R. c #F7B70D",
"E. c #F9B00A",
"W. c #F6A610",
"Q. c #F1AD1E",
"!. c #F5BA11",
"~. c #F3B217",
"^. c #E6822E",
"/. c #F18021",
"(. c #EC9F2F",
"). c #E69438",
"_. c #EA9C3A",
"`. c #FCC404",
"'. c #FDCB02",
"]. c #F5CB0F",
"[. c #FDCD08",
"{. c #F3C813",
"}. c #FBCD13",
"|. c #F8D12B",
" X c #E18040",
".X c #E38A43",
"XX c #E7854A",
"oX c #EC9847",
"OX c #E89549",
"+X c #E99748",
"@X c #EEA74E",
"#X c #EBA951",
"$X c #F0AC50",
"%X c #F9E483",
"&X c #FBE888",
"*X c #FBE898",
"=X c #FCF7DA",
/* pixels */
"                                                J T J                                               ",
"                                                J                                                   ",
"                                                                                                    ",
"                                                                                                    ",
"                                                                                                    ",
"                                                                                                    ",
"                                                                                                    ",
"                                                                                                    ",
"                                                    T T                                             ",
"                                                  L U U T                                           ",
"                                                  a.J.J.i.                                          ",
"                                                J *.P.P.J.p.                                        ",
"                                                k.J.P.P.K.d.Y                                       ",
"                                T               k.J.L.>.d.U P L                                     ",
"                            s.-.*.g.I           F g.;.j.Y   J L                                     ",
"                          I j.,.P.L.>.s.          J j.O.L                                           ",
"                          U I p.=.g.*.-.            >.J.a.K                                         ",
"                        H       J J U u.            -.P.,.U J                                       ",
"                                      L             O.P.L.d.Y                                       ",
"                                  J             J P >.P.,.U                                         ",
"                                J P Y         k.D ;.L.P.g.P     L L T                               ",
"                            F z.U i.i.T F I j.J.K.P.P.L.=.P T   U a.D L                             ",
"                            U ,.J.I.H.,.;.*.$.,.=.;.,.j.*.=.z.L g.K.J.g.L                           ",
"                            T ;.L.P.P.P.J.=.D P P P U P a.>.,.g.>.P.P.K.D J                         ",
"                              p.J.H.>.>.a.P K           Y U g.,.L.K.g.j.D L                         ",
"                                J.=.T T         |.].      J L a.J.I.a.L J H                         ",
"                              z.=.s.    {.{.%X=X%X}.`.U.~.    L i.I.=.T                             ",
"                              T I     R.%.Y.&X*X|.'.'.@.n H.{.  L =.J.I                             ",
"                        s.d.k.F     E...g I.[.'.'.'.'.G.d v #.!.  t.J.-.s.y.                        ",
"                      h.K.L.;.J   Y. .d d  .T.'.'.'.`.X.d d g +.!.  u.J.K.J.f.                      ",
"                    s.K.P.H.<.  W. .g g d d n #.H.G.X.g g g g f X.~.l.a.,.P.<.                      ",
"                    u.K.I.d.  Q...b v g d d d d g d g g f c c c c :.(.Y i.I.-.                      ",
"                    T g.>.I _.&.x z b c g g d d d d f c b b z z l z /.  L ;.;.                      ",
"                      P U l.^.N h M x z c c g g f c c b z m M M M m o._.T a.*.p.                    ",
"                    J P L   8.j j j h m z l b b b l z m M N h S j j j C.  L =.a.Y                   ",
"                J P P P I m.6.S 6.S S h h m m x m m M M h S S S k 6.k 8.    a.D a.h.p.              ",
"                P L L L   8.S 3.2.C B S A A h h A M A A Z Z V 3.1.1.1.1.m.  L P D ,.>.I             ",
"            Y P P T       0.C s e q V C Z A A A A Z Z C C C V a ; 4 1.B r.    Y P D a.P J           ",
"          L P P L     $XZ.C V s 0 % < V C C C C C C C C C V s 9 - r 2.3.5.Z.oX      L P P L T       ",
"        L P L l.  $XoXM.2.V 2.2.C s a V C C C C C C C C V V V a V C V 2.V 2.w..X$X    Y L P P T     ",
"          F.XXOX.XM.0.0.V V V V V C 2.V V V V V V V 2.V V V V C V V V V V V 0.q.M.oX@X    A.  T     ",
"      #X+XV.r.4.s s q.M.V V V C V V V V V V V V V V V V V V V V V V V V V V r.Z.s 2.r.M.Z.OX        ",
"    XXM.5.( a i t i x.m.V V V V V V V V V V V V V V V V V V V V V V V V V V 7..X! u p a s 2.b..X    ",
"  S.9.a N.( r w 8 q ^ x.2.s V V s s s V V V V V V V V V V 2.2.V V V V V V s w.] e 8 e e e t a 7.D.  ",
"  9.i 0 ~ e 0 6 6 6 8 q y u a u i i u 9.2.V V V V V V 0.r.q.s s s s s s a u t q q q q w w r y w.x.  ",
"  ! 0 ; = * = : 1 5 6 6 7 w 0 8 6 8 w ^ c.B.b.x.b.M.B.x./ u y y i i i q q q 0 q q r 0 , 3 6 e { {   ",
"        $ o X O % 1 w 8 6 6 5 3 > > , 6 w ~ [ ] ' _ W 0 6 6 0 e t t r q q q r ! ` t ; * * >         ",
"              . X * [ / ^ e 3 - % # % = ; , 3 3 5 1 1 > > > 6 ~ } c.c.e./ ` x.v.E * $               ",
"                  X 2 | | E * + X X X + # % * = = * * # # % * * : 2 Q ) ) ) 9 * o                   ",
"                                          o O @ @ O X X .                                           "
};
