/* XPM */
static char *giphy_1_1__dragged___1__resized[] = {
/* columns rows colors chars-per-pixel */
"50 50 158 2 ",
"   c None",
".  c #050505",
"X  c #0C0C0C",
"o  c #140F09",
"O  c #1C140A",
"+  c #100F10",
"@  c #141314",
"#  c #171718",
"$  c #1D1B1C",
"%  c #1A1718",
"&  c #20170B",
"*  c #251A0C",
"=  c #2B1E0E",
"-  c #33100B",
";  c #201D1D",
":  c #2C200F",
">  c #30220F",
",  c #282118",
"<  c #332411",
"1  c #3A2913",
"2  c #3A2516",
"3  c #1F1F20",
"4  c #211F20",
"5  c #242324",
"6  c #2A2627",
"7  c #272728",
"8  c #282728",
"9  c #2C2A2B",
"0  c #312D2E",
"q  c #2F2E30",
"w  c #312F31",
"e  c #343234",
"r  c #3B3435",
"t  c #373638",
"y  c #393739",
"u  c #3B3A3C",
"i  c #4D1B10",
"p  c #4D210D",
"a  c #57250D",
"s  c #412E15",
"d  c #462B1F",
"f  c #453115",
"g  c #4A3517",
"h  c #4D3718",
"j  c #4F3818",
"k  c #543C19",
"l  c #583F1A",
"z  c #6B3510",
"x  c #433C3D",
"c  c #5C411B",
"v  c #784912",
"b  c #53422A",
"n  c #564636",
"m  c #7E4E28",
"M  c #664A32",
"N  c #6F553B",
"B  c #3F3E40",
"V  c #403F41",
"C  c #414042",
"Z  c #4F4445",
"A  c #484749",
"S  c #4B4A4B",
"D  c #584748",
"F  c #544B4D",
"G  c #57514C",
"H  c #4E4E50",
"J  c #535457",
"K  c #5B5B5C",
"L  c #5A5456",
"P  c #7E5F40",
"I  c #655456",
"U  c #645B59",
"Y  c #5F5F61",
"T  c #6E5F60",
"R  c #646465",
"E  c #6D6C6C",
"W  c #666668",
"Q  c #736365",
"!  c #7C6C6D",
"~  c #73726F",
"^  c #707071",
"/  c #777778",
"(  c #7B7B7C",
")  c #814F11",
"_  c #845313",
"`  c #885516",
"'  c #97671D",
"]  c #815B3E",
"[  c #9C6E23",
"{  c #A26F21",
"}  c #AE7B28",
"|  c #876645",
" . c #9A744E",
".. c #826B54",
"X. c #886B6D",
"o. c #8B6E70",
"O. c #857375",
"+. c #8A7879",
"@. c #917D7E",
"#. c #BA8831",
"$. c #C3983B",
"%. c #AA8158",
"&. c #CDA347",
"*. c #DAB24F",
"=. c #C39363",
"-. c #EBCD7B",
";. c #7F8081",
":. c #848484",
">. c #8B8B8B",
",. c #9A8586",
"<. c #939494",
"1. c #9C9D9D",
"2. c #A58C8E",
"3. c #AA9193",
"4. c #BA989A",
"5. c #A1A1A1",
"6. c #A7A8A8",
"7. c #AEAEAE",
"8. c #B9A1A3",
"9. c #AFB0B0",
"0. c #B2B2B2",
"q. c #BCBCBC",
"w. c #C7A6A8",
"e. c #CBAFB2",
"r. c #D7B8BA",
"t. c #D8B5B8",
"y. c #E0B9BC",
"u. c #F8E59A",
"i. c #F8E5A2",
"p. c #E9BEC1",
"a. c #BFC0C0",
"s. c #C2C2C2",
"d. c #C7C8C9",
"f. c #CBCBCB",
"g. c #D4D4D4",
"h. c #D8D7D7",
"j. c #D7D7D8",
"k. c #D7D8D8",
"l. c #DCDCDC",
"z. c #ECCACC",
"x. c #E9C3C6",
"c. c #F7CCCF",
"v. c #F8CBCE",
"b. c #EECED1",
"n. c #FCCFD3",
"m. c #FBD1D4",
"M. c #FCD6D9",
"N. c #FDDADD",
"B. c #F2D2D5",
"V. c #FFFDD0",
"C. c #FFDDE0",
"Z. c #DFE0E0",
"A. c #E3E3E4",
"S. c #ECECEC",
"D. c #E6E8E8",
"F. c #EFF0F0",
"G. c #F3F4F4",
"H. c #FEFEFE",
/* pixels */
"                                                                                                    ",
"                                                                                                    ",
"                                                                      z a   z                       ",
"                                                                      ` #.$.[ p                     ",
"                                                                  d ` } u.V.*.)                     ",
"                                                                n ] m [ -.i.&._                     ",
"                                                              P  .M 2 v ' [ `   i                   ",
"                                                              =.|   -                               ",
"                                                            %.%.                                    ",
"                                                  9 J K J n =.P                                     ",
"                                                  $ e R R U Q G K A                                 ",
"                                                @ $ y 3.e q V S K K H 5                             ",
"                                              @ @ $ E 1., 7 u u u u t                               ",
"                                        A R t 4 ; % ( K $ w C C C C t                               ",
"                                    S ( W S V w 4 ; 5 $ % 8 e u u u 5                               ",
"                                8 A 5.<.F V V V y 9 5 5 , $ $ 3 4 4 ; $                             ",
"                              q V C S V V C C C C V u e 9 8 5 4 3 5 5 8 t 8                         ",
"                          4 $ V V C V V V C V C V C C V t w 9 r t t u B C u 5                       ",
"                        $ t 4 B V u e V V C C V C C t 9 8 0 9 8 t C C C V C t                       ",
"                        0 t e w V e t C C V C V t 9 x T Q 7 e u t V C C C C B 8                     ",
"                      o.2.8 u t t u u V V C x 7 0 @.y.c.t.0 0 V B V C V C C C t %                   ",
"                    6 w.c.@.9 9 9 e 5 x B e 6 L e.N.m.M.t.e V r w B C C C C C y 5                   ",
"                    D x.M.x.2.U 5 w 0 0 w x O.b.C.N.C.M.4.9 V w w B C V C C C u 9                   ",
"                    Q M.r.r x 3.x y 4.t.w.r y 8.C.m.m.N.O.8 V 9 w y C C C C C u q #                 ",
"                    Q c.z.U + Q V D p.M.B.! X +.C.M.n.p.x r u q 9 u C C C C C u e %                 ",
"                      w.,.0 @ Q u F z.m.2.0 X +.y.b.C.3.9 V t q w V w 7 q u C y q $                 ",
"                      8 4 X 9 Z t r X.I 0 # $ 8 r Z Q y 9 V t q B B # 3 7 7 e t q %                 ",
"                      9 x u r w w 9 e u u u u t e e e 8 5 w t B C V 7 @ # 5 7 7 9                   ",
"                      5 e t B V u u V u A W ;.:.W u 0 u u u V V V C C y 5 @ 5 7 3                   ",
"                      t t e t u u A R <.d.D.F.G.S.1.e 8 u V C V C C C C V 9 + 3 7                   ",
"      ( <.:.          X t ^ / >.6.d.A.G.G.G.S.g.9.>.S 9 4 B C V C V V C V B 5 X 7 5                 ",
"    ( h.G.F.g.:.1.e . X q 1.l.F.G.S.A.g.s.9.1.5.q.Z.<.t 4 w C V C C C V B e q + # 8                 ",
"    E D.H.H.H.d.Z.>.; 8 5 $ 5.G.G.F.D.j.j.Z.S.G.G.G.1.t 5 5 B V V V C V t w 7 . X 8 5               ",
"    >.G.H.H.H.l.d.s.7       :.s.9.9.a.j.S.G.G.F.G.D.( t 5 5 u u V V u t e 8     . 5 7               ",
"      Z.H.H.H.H.5.>.        5 u B u C S W <.q.g.d.<.V 8 3 7 $ 5 9 u e w 5       . $ 5               ",
"      +.G.H.H.g.            5 t t 9 8 q e u B C A u w e y $ $ 7 7 w 9 5         5 S S               ",
"        Z.S.s.                      % 8 e u V B V V B V e @ 5 9 5 7             0.Z.l.5.            ",
"                                      X 3 7 9 e w e e e 3 @ 7 8               :.s.f.f.s.^           ",
"                                    . $ 7 5             X @ 5 8             >.D.H.H.H.H.h.          ",
"                                  . # 7 7                 @ 5 8             s.H.H.H.H.H.H.7.        ",
"                                  X 5 8                   X 5 8 7           e.H.H.H.H.H.H.q.        ",
"                                . $ 8 3                   . # 5 8 7         Y ^ >.h.q.<.0.          ",
"                                + 7 7                       . # 5 7 9 9 9 3 > = f b 1               ",
"                              . $ 8 3                           X @ $ 3 4 ; 1 < k c h *             ",
"                    f g g < O = , ,                                   . . o 1 < k c j *             ",
"                  1 c c c k < < < 1 >                                     O = 1 c c f *             ",
"                  * g c c c k k h g =                                 > h k j g c l 1 *             ",
"                    O > f j k k l j =                                 g c c c c l s :               ",
"                        O O = = > O                                   1 j j g f 1 =                 ",
"                                                                        O * * *                     "
};
