/* XPM */
static char *__removebg_preview_resized[] = {
/* columns rows colors chars-per-pixel */
"50 50 149 2 ",
"   c None",
".  c #020202",
"X  c #090605",
"o  c #0B0907",
"O  c #070708",
"+  c #0C0B0B",
"@  c #110E0D",
"#  c #13110E",
"$  c #0F1010",
"%  c #131313",
"&  c #181515",
"*  c #171817",
"=  c #1C1A17",
"-  c #161718",
";  c #171819",
":  c #1C1C1C",
">  c #201F19",
",  c #22211C",
"<  c #2A251D",
"1  c #1F1F21",
"2  c #201F20",
"3  c #1F2020",
"4  c #242424",
"5  c #2B2620",
"6  c #2D2922",
"7  c #282728",
"8  c #272828",
"9  c #2B2B2B",
"0  c #333127",
"q  c #3D3A2E",
"w  c #2F3031",
"e  c #333434",
"r  c #363738",
"t  c #3C3C3C",
"y  c #5C201B",
"u  c #6F261E",
"i  c #413E31",
"p  c #403F3F",
"a  c #752B21",
"s  c #494136",
"d  c #4E4A3B",
"f  c #534A3C",
"g  c #3E3F41",
"h  c #414141",
"j  c #464648",
"k  c #47484A",
"l  c #4A4B4C",
"z  c #5B5546",
"x  c #5A5845",
"c  c #5F5749",
"v  c #5E5C48",
"b  c #565443",
"n  c #4E4E50",
"m  c #525355",
"M  c #565759",
"N  c #57585A",
"B  c #58595B",
"V  c #625746",
"C  c #645947",
"Z  c #625A4A",
"A  c #6A5E4D",
"S  c #66634D",
"D  c #6B6551",
"F  c #6C6953",
"G  c #736D56",
"H  c #726E58",
"J  c #7C6E59",
"K  c #746653",
"L  c #7B775D",
"P  c #77745B",
"I  c #5E5F61",
"U  c #636466",
"Y  c #666869",
"T  c #6B6B6D",
"R  c #7C7A62",
"E  c #6D6E70",
"W  c #6F7072",
"Q  c #717171",
"!  c #767678",
"~  c #7B7C7E",
"^  c #902F24",
"/  c #873C2E",
"(  c #9D3427",
")  c #9C3528",
"_  c #9B3A2C",
"`  c #923224",
"'  c #993F32",
"]  c #A1372B",
"[  c #A1392D",
"{  c #A63D32",
"}  c #A93F34",
"|  c #9B4233",
" . c #A94136",
".. c #B0483C",
"X. c #855845",
"o. c #B44D42",
"O. c #BB584F",
"+. c #BF5D53",
"@. c #85755F",
"#. c #92715A",
"$. c #817E64",
"%. c #C16156",
"&. c #C6665C",
"*. c #C96A60",
"=. c #CE7067",
"-. c #D1746B",
";. c #868368",
":. c #8F8B6D",
">. c #95856B",
",. c #908B6D",
"<. c #9B8A6F",
"1. c #9B9677",
"2. c #979273",
"3. c #A89679",
"4. c #A19D7A",
"5. c #AC9A7B",
"6. c #A1927A",
"7. c #A5A17D",
"8. c #DE857C",
"9. c #848587",
"0. c #848588",
"q. c #9D9D9D",
"w. c #B2AD86",
"e. c #B8B38B",
"r. c #A2A3A5",
"t. c #AFB1B1",
"y. c #B7B7B7",
"u. c #E48D84",
"i. c #C9B38E",
"p. c #C5B18D",
"a. c #D5BE96",
"s. c #CFC99C",
"d. c #C9C396",
"f. c #D7C199",
"g. c #D9C098",
"h. c #E3CB9F",
"j. c #DDD7A5",
"k. c #E4CCA1",
"l. c #E4DDA9",
"z. c #E6E0AD",
"x. c #EFE8B1",
"c. c #F3EBB3",
"v. c #CCCDCD",
"b. c #CFD0D0",
"n. c #D0D1D1",
"m. c #E9E9E7",
"M. c #F5F5F4",
"N. c #F8F8F7",
"B. c #FDFDFD",
/* pixels */
"                                                                                                    ",
"                                                                                                    ",
"                                                                                                    ",
"                                                                                                    ",
"                                                                                                    ",
"                                                                                                    ",
"                                                                                                    ",
"                                                                                                    ",
"              '       |                                                                             ",
"              )       _                                                                             ",
"              ( ) _ ( (                                                                             ",
"        _ )   ] } _ } ( a u / #.,.F d                                                               ",
"          ( ] { &.&.+.[ ) ^ X.Z H P ;.$.q                                                           ",
"          _ { *.u.u.8.&.[ y %     # 0 F R o . . . o                                                 ",
"          )  .=.u.u.u.&.{ `           # + . . . . . + @                                             ",
"      _ ) ) } +.u.u.u.O.{ ( ) _       . . O + + + : % : 9 7 , &                                     ",
"            ) o.%.-.%...)             + 1 w t t t g t Y q.q.m 9 4 =                                 ",
"            ) [ ] o.] [ )           o 4 s h g g g g h 9.n.v.Q N T r 7 *                             ",
"          _ )   _ ] _   )         @ = e h p h t h l m N I B M r.N.y.l 4 &                           ",
"          |       (       |     % 4 7 t p h h l M N B B N N M I n.B.m.W = #                         ",
"                  _           o 4 9 e g g g l M I M M n m B N l N n.B.N.~ + X                       ",
"                            & 1 w t g g p j N N M n j h r t m B m Y v.B.N.Q O                       ",
"                            1 e r g g g j M N N M M k r g h r l B N U t.N.M.h .                     ",
"                          O 8 g p s h n M N N N I M B M j h m h m N N N T t.! O                     ",
"                          . 9 h g g n B B B B N M M M I M m m M m B B B n 3 - 3 o                   ",
"                        @ . 9 h g s k B B B B B M I M I M I I M B B B B B k $ - $                   ",
"                        X . 7 s h p g l N B B B M M M M I M M M M B B B B B t O X                   ",
"                        . . : r g p p p l N N N M I I M M M M I B B B B M B M 3 .                   ",
"                        . . + 4 p t p p h n B n g M I M M M I M B B B m w h N k o X                 ",
"                        . . . * t 9 p p g l m 8 + 3 j m I M M M B B B h O X * r 3 o                 ",
"                        . . . $ e : p p g n g O . O O - g m I M B B B 4 . i d : % O                 ",
"                        . . . X 9 % t p k t $ q 4.w.H + O g B M B B h . x l.c.4.X                   ",
"                        X . . . : + e h l : , :.c.c.c.2.@ $ l B B B 8 = d.c.c.7.O                   ",
"                          . . . O . 4 h l e + 1.c.x.c.x.$.. 8 N B n $ L c.x.x.S .                   ",
"                          . . . . . % t l k + 4.c.x.x.x.z.x O e r : , s.c.c.l.0 .                   ",
"                          . . . . . . 9 s j : b z.c.c.c.z.1.# . + : 4 S e.j.7.#                     ",
"                            . . . . . + r h e # v w.7.H i = w j n M g + % 6 # X                     ",
"                            o . . . . . o 8 t r * & % $ 8 j m n k w : 9 % . O                       ",
"                              X . . . . . . $ 7 r t t p h g e 3 # * : + . .                         ",
"                                . . . . . . . . + % : 4 3 # O . O O . . . +                         ",
"                            X + + # # + O . . . . . . . . . . . . . . . O +                         ",
"                          + : e t t g t e % . . . . . . . . . . . . + 8 7 o X                       ",
"                        + 4 t h g g h h h r : . . . . . . . . . O : t h s w + X                     ",
"                        % 9 t s g w 4 4 7 7 : 1 % . o . . o - 9 e 7 4 4 8 4 : 1 @                   ",
"                      X $ 9 h g 9 e I U U U Y ~ h d 6.= + r s g 4 l U U Y U E ! 7                   ",
"                      i O 9 e 9 1 M 0.0.0.0.~ I : V a.6 # r 9 4 3 T 9.9.0.0.! k % @.                ",
"                  k.k.p.s - + + O 2 U E E U k : < 5.k.<.< % + + + r T E T B r # f a.k.k.            ",
"                k.h.h.k.f.3.J A f f c Z Z A K >.i.k.k.k.i.>.K C f f c Z C D J 3.g.h.h.k.k.          ",
"                    k.k.k.k.k.k.k.k.h.f.k.k.k.k.k.h.h.h.h.k.k.k.f.k.h.h.h.k.k.k.k.k.k.              ",
"                                k.k.k.k.k.k.k.k.h.h.h.h.k.k.k.k.k.k.k.k.k.k.                        "
};
