/* XPM */
static char *__removebg_preview_resized[] = {
/* columns rows colors chars-per-pixel */
"50 50 141 2 ",
"   c None",
".  c #020202",
"X  c #0A0705",
"o  c #0B0807",
"O  c #070708",
"+  c #070809",
"@  c #0C0B0B",
"#  c #110F0F",
"$  c #13120E",
"%  c #0F0F10",
"&  c #141414",
"*  c #1A1714",
"=  c #1A1915",
"-  c #161718",
";  c #1B1B1C",
":  c #201E1E",
">  c #22211C",
",  c #29261E",
"<  c #1F1F20",
"1  c #242424",
"2  c #282620",
"3  c #2E2D25",
"4  c #2B2C2C",
"5  c #332F26",
"6  c #2F302F",
"7  c #333129",
"8  c #3B372D",
"9  c #3F382E",
"0  c #2F2F30",
"q  c #2F3031",
"w  c #333334",
"e  c #363738",
"r  c #3C3C3C",
"t  c #454334",
"y  c #484637",
"u  c #504E3E",
"i  c #785325",
"p  c #745229",
"a  c #3F4040",
"s  c #414141",
"d  c #464748",
"f  c #474849",
"g  c #4B4C4D",
"h  c #565342",
"j  c #5E5B47",
"k  c #4D4E50",
"l  c #4E5052",
"z  c #525355",
"x  c #565658",
"c  c #57585A",
"v  c #58595B",
"b  c #645A47",
"n  c #65624D",
"m  c #6F6B55",
"M  c #736652",
"N  c #746C56",
"B  c #786B57",
"V  c #796D58",
"C  c #75725C",
"Z  c #5F6063",
"A  c #626364",
"S  c #6A6B6C",
"D  c #7E7A60",
"F  c #6F6F70",
"G  c #717274",
"H  c #767678",
"J  c #7A7B7C",
"K  c #8A6431",
"L  c #A27A3F",
"P  c #EF5E29",
"I  c #F05927",
"U  c #F05928",
"Y  c #EF672C",
"T  c #F1602A",
"R  c #F06E2F",
"E  c #F17531",
"W  c #F37C30",
"Q  c #947746",
"!  c #83755E",
"~  c #8B7C64",
"^  c #F38233",
"/  c #F48B36",
"(  c #F59539",
")  c #F59C3B",
"_  c #EAA23E",
"`  c #F2A63F",
"'  c #F9A33E",
"]  c #878267",
"[  c #8E8A6E",
"{  c #938369",
"}  c #9C8F6A",
"|  c #969272",
" . c #A29D7A",
".. c #AD9B7B",
"X. c #B19F7D",
"o. c #DC9D41",
"O. c #ECA845",
"+. c #F3A640",
"@. c #F8A640",
"#. c #F7AF45",
"$. c #F9AD44",
"%. c #F9B046",
"&. c #F7B14B",
"*. c #F8B14A",
"=. c #F4B453",
"-. c #838486",
";. c #858688",
":. c #8D8D8D",
">. c #8E8F90",
",. c #979797",
"<. c #989898",
"1. c #B0AB84",
"2. c #BEAA87",
"3. c #B5AF88",
"4. c #B5B089",
"5. c #BBB58D",
"6. c #A1A1A2",
"7. c #B4B4B5",
"8. c #D4BE97",
"9. c #D7BF98",
"0. c #CBC699",
"q. c #CEC99C",
"w. c #D6C098",
"e. c #D2CD9E",
"r. c #E4CB9F",
"t. c #D9D4A1",
"y. c #E4CCA1",
"u. c #E1DBA8",
"i. c #E7E0AC",
"p. c #E9E2AD",
"a. c #EFE9AF",
"s. c #EBE5B0",
"d. c #EFE8B1",
"f. c #F2EBB3",
"g. c #C4C4C4",
"h. c #CBCBCB",
"j. c #D0D0D0",
"k. c #DCDCDC",
"l. c #E3E3E2",
"z. c #F5F6F6",
"x. c #FEFEFE",
/* pixels */
"                                                                                                    ",
"                                                                                                    ",
"                                                                                                    ",
"                                                                                                    ",
"                                                                                                    ",
"                                                                                                    ",
"                                                                                                    ",
"                                                                                                    ",
"                                                                                                    ",
"                                                                                                    ",
"            =.      &.                                                                              ",
"              %.  *.&.        *                                                                     ",
"              $.%.$.O.p i L } | ] m 7                                                               ",
"        *.#.#.) / / ` _ O.Q n n n N [ j >                                                           ",
"          #.( E U R ^ ` K *       * 8 C * . . . O                                                   ",
"          #.( U U U E ) o.          o . . . . . . . . & = *                                         ",
"      =.#.$.( R U P ^ ' %.*.        X . o - : ; 4 4 4 s k r 4 : *                                   ",
"            $./ W / ( *.            @ ; e r s s s r c h.l.6.8 r 4 2 *                               ",
"            $.#.@.$.#.#.          @ & r s s s y s s z >.6.H F j.,.f 1 ;                             ",
"          &.=.  #.%.  &.=.      @ < 2 s s s s s k x c c x x Z h.x.k.S ; #                           ",
"                &.            # ; 4 6 s a a d z v c v v v v g v h.x.z.:.- o                         ",
"                            @ - 4 e r s s s x v x x k s d x v l v g.x.x.<.% X                       ",
"                            1 2 e a a s s z c c x s r s e e k v v A 7.z.x.-..                       ",
"                          @ w w a a s s z c c c v c l r r f a g v v v J g.h.w .                     ",
"                          o e s s s f c v v v v v c v v k f x g x v x z e 4 q @                     ",
"                        O o e s s s z v v c v c v v v v v v c c v v v v x < @ ; o                   ",
"                        . + e s s s g v v v v v v v v c c v v v v v v v v l - + o                   ",
"                        . O w a a a s k c v v v v c v v v v v c v v v v v v s + .                   ",
"                        . . 4 e r s s s g c v x c v v c v c v v v v v g s c v 2 .                   ",
"                        . . # 0 r e s a s l z r 0 z v v v v v v v v v q @ 1 e a %                   ",
"                        . . . 2 e 0 s r s l s % . < 0 d c v v c v v c ; . ; * - -                   ",
"                        . . . : 0 2 s s d k < @ 2 4 + O 4 x v v v v a . h q.0.h .                   ",
"                        . . . o 4 ; r y k < > D u.u. .> . 6 v v v v ; > 0.f.f.N .                   ",
"                        X . . . ; % e d d & 3 5.f.f.f.5.> + f v v l % C f.a.d.u .                   ",
"                        X . . . O . 4 d k w ; q.f.d.f.f. .@ ; l l 4 2 e.f.f.t., O                   ",
"                          . . . . . & r f s - 3.f.d.d.f.f.D O & % O 7 4.i.f.1.$                     ",
"                          O . . . . . 4 s s ; t e.f.p.e. .u = < 6 d q - t n , O                     ",
"                            . . . . . o 0 s e - 3 j y > * 6 l v x d 1 < @ . .                       ",
"                            X . . . . . X ; w r 4 ; < 4 a g d e 1 - : = O . o                       ",
"                              X . . . . . . X - 4 w e r e 4 * O @ % O . . o                         ",
"                                . . . @ - ; - # O O o o O . . . . . . . X                           ",
"                                X - w r a a s r 4 % . . . . . . . . . O                             ",
"                                * w r s a a r s a w % . . . . . . o - . o                           ",
"                              o < 4 s s e 1 1 2 4 2 1 4 O . O % & ; 1 4 :                           ",
"                              @ & e s e < c G G G G H J ; w A G G G H -.d ,                         ",
"                      y.y.y.8.5 @ w 4 1 ; A ;.-.-.-.F e @ g -.-.-.-.H l & b y.y.y.y.                ",
"                y.y.r.r.r.r.y...9 * + @ + 0 Z A v k 4 O . - x A Z x r ; 9 2.y.r.y.r.y.y.y.          ",
"                y.y.r.r.r.r.r.y.9.X.{ ! M M V V C ~ { ~ B M B ! B ~ { ..8.y.r.r.r.r.r.y.y.          ",
"                      y.y.y.y.y.y.y.y.y.y.y.y.y.y.y.y.y.y.y.y.y.y.y.y.y.y.y.y.y.y.y.                ",
"                                  y.y.y.y.y.y.y.y.y.y.y.y.y.y.y.y.y.y.y.                            "
};
