/* XPM */
static char *__resized[] = {
/* columns rows colors chars-per-pixel */
"50 43 97 2 ",
"   c #090807",
".  c #060609",
"X  c #0C0B0C",
"o  c #110D0D",
"O  c #180F0E",
"+  c #15100E",
"@  c #1B130E",
"#  c #0E0D12",
"$  c #0F0E18",
"%  c #120E13",
"&  c #1A0E13",
"*  c #100F18",
"=  c #0F1011",
"-  c #131213",
";  c #1B1512",
":  c #1F1816",
">  c #15141B",
",  c #1A161B",
"<  c #17181A",
"1  c #1C191B",
"2  c #22160E",
"3  c #241713",
"4  c #241913",
"5  c #2B1D14",
"6  c #22131A",
"7  c #241D1B",
"8  c #2A1C19",
"9  c #311F15",
"0  c #321E1E",
"q  c #272014",
"w  c #2D211C",
"e  c #342116",
"r  c #3A2517",
"t  c #35251E",
"y  c #39261E",
"u  c #3C291E",
"i  c #171622",
"p  c #1A1B23",
"a  c #1D1C2A",
"s  c #291620",
"d  c #2D1A21",
"f  c #351D29",
"g  c #252121",
"h  c #21232C",
"j  c #24282E",
"k  c #342521",
"l  c #392620",
"z  c #372827",
"x  c #3D2920",
"c  c #3A202D",
"v  c #262535",
"b  c #262A30",
"n  c #292F36",
"m  c #2A2C39",
"M  c #2E323C",
"N  c #31363E",
"B  c #422616",
"V  c #432C1D",
"C  c #492F1E",
"Z  c #4D321F",
"A  c #54341F",
"S  c #5B371F",
"D  c #5D381F",
"F  c #62391D",
"G  c #432724",
"H  c #452E21",
"J  c #492F22",
"K  c #42272B",
"L  c #473021",
"P  c #4C3221",
"I  c #523521",
"U  c #583720",
"Y  c #573821",
"T  c #5C3820",
"R  c #5B3728",
"E  c #412333",
"W  c #463331",
"Q  c #4F3E35",
"!  c #553131",
"~  c #503E35",
"^  c #663D30",
"/  c #693C3D",
"(  c #584126",
")  c #59463C",
"_  c #604C24",
"`  c #71522D",
"'  c #6E4332",
"]  c #323740",
"[  c #333941",
"{  c #5D4A43",
"}  c #624D42",
"|  c #7A6052",
" . c #8F6938",
".. c #9F733C",
"X. c #9E7B6E",
"o. c #CA9B8C",
"O. c #EEB9A7",
/* pixels */
"I H x x H H L H L H H L L H H L H H H H H H L H P I P P P I I I S D F F S Z H t t x x x x H P I P P ",
"P P L H L H H H H H L x H H H H H H H H H H H H L I I P I I F F F S A P x t y x x H H H H L P Y I I ",
"P I I P H H H H H H H H H H H H H L L H H H H H L P P P S F F A L u y k u x H H H H H H H H P I P I ",
"P P I I P L H H H L H H L H H H H H H H H H L L P I P I D D J x k t t u H H H L H H H H L L P I P I ",
"P P P I I P P L L L H H H H u 5 k k w k t 4 ; u I I P I D A x t k t x H H H H H H H H H H P I I P I ",
"I I P P P Y I P P L H H H L 5 - 1 q w q q 1 ; @ V P P I S A x t t u H H H H L H H H L L P P P P I I ",
"P P I P P P I I I P P L H H V e : 7 : - - X % % @ e x P I I H t k H L H H H H H H H L P I P P Y F Y ",
"H L L I I P L P P I I P P P L P t   X ; ; k d K + ; H P I I I P V H H H H H H H L L P Y I P P F D P ",
"H H H L P I L H P P P P P I P C 4 : 7 7 $ | o.X.X 3 Z Z Z P I I I P J H H H H L P I I I P P I F D P ",
"H H H H P I P I P I I I P P P e ; 7 7 < - X.O.{   o r A A Y I P P I I P P J P P I I I I P P I F D P ",
"H H H H L P I I I S I S S Y A e - @ = = ! / | q X + 9 F D S D I P P P I I I I Y I I P P P I I F S P ",
"H H H H P I P I U F F F F F D e o X # ; ` L _ q = X + C C H C I I I J H P I I I I I H H I I I F A L ",
"L H H H L P P I F F A C V J A 4 : 1 X 1 ( .. .b j i = + w t l H I I P x H J P P P H x H P I I D I H ",
"H H H H P P I D F A t l t t 5 ; 1 - < M n w g ] [ M # - @ H H H P I I H u J P I P P P J J I T I P H ",
"H H H H P I I F Z t t t l k @ 6 < # a M [ N p M [ v = > + H H H H I I J J I I I U T I I I P I I P H ",
"H H H L P P T S u t t x x 9 - 1 = X = > M [ p n M > - - @ H H H H P I P I I D F F F F T I P P I P H ",
"H L H H P I D A k k x H V ; : < = X < = h [ h b h # < + w H H H H H I P I S F F D A S D D I P P P H ",
"H H H H P I S H t x H J e ; , > . X = - - N N > < - - X r H H H H P I P S F D P H x x V A U P P J H ",
"H H H H P I I u x H H L 4 1 1 - o X - - X p m > $ . X + e P P L P I P I D S Z t t k t t x P I P P H ",
"H H H P I I P x x H H H w 1 w 1 + = < ; - X i > # . $ , @ Z I I I I P I D I u t t x x x H P P P P H ",
"H H L P P P P x H H H H 5 > 1 w @ + - 1 7 - . > $ # - 1 : r A A I P P I S L t t H H H H H H P P P L ",
"P P I P P P I P H H H L 4 - 1 q 7 + # % , 1 # * # X = < 7 ; C Y I P P I I u k H H H H H H H P P P P ",
"Y I I P P P P I P L L P 4 - > 7 q ; . & ; % %   % o = < 1 7 ; V Y I P B B x x J H H H H H H J I I P ",
"I P I I I P P P P P P P C + < 1 ; d f ; & 6 6 6 6 o = < 1 7 q ; B I u G l w H H H H H H H H P I I I ",
"I I I I I I I P P P P P Z @ - < X s s 6 & X # i $ - = = < 1 7 ; O 3 0 J 5 5 H H H H H H H J I D D Y ",
"I I I I Y I I P J P I I U B = = # X o X - % i m M < > = = < - 1 d 6 s 3 V G H H H H H P P A F F A I ",
"L L P I I I I I P P I I D A 4 . X - 7 1 > $ v ] [ j - > ; X X 4 6 6 8 B I J H H H H P I I F S H x x ",
"H H L L P I I I I P I I D J t 3 o 7 < < = i m [ [ N < - ,   y ' ; 6 u P I J J P P I I P S D u k u H ",
"H H H H L L P I I P P I I H k 4 ; 7 > < # a ] [ [ [ b = , ; R G C Z Z H P P I I P P H P D A t x H L ",
"H H H L L L L P I I P P I H t 3 ; 7 1 - $ m [ [ [ [ N < - , + C I I H t x C P P H x x P D Z k u H H ",
"H H H H H H L L P P I P I I u + 7 1 < = i M [ [ [ [ [ j % < ; r I P x u H J P P P P H I T P k H H H ",
"H H H H H L H L H P P I J P C + 7 < < # h M [ [ [ [ n p . = , 2 H u H P I I Y S I I P P I P u H H H ",
"L H H H H H H H H H L I P L w ; 7 > 1 X = a m M m < # X * # > o t J I I S F D A S U I P I P x H H H ",
"H H H H H H J H H H L P Y L @ 7 1 < - X $ $ # # $ $ $ X i # - o V I I T D A V x u I D P I P H H J H ",
"H H H H H H H H H H H L A I 2 7 , 1 - # > $ i i i $ i X > ; % + Z I T D C t k t k u A S I I H H H H ",
"H H H L H H H J H H H L I C @ 7 , < # # $ i > * $ i $ # - z + + A U Z V k u H H H H P I I I P H H H ",
"L H L L L H L J H H P I Y r @ 7 < < = X @ % # % $ $ i $ k } X + I J u H H H H L L H H P I I I I P P ",
"I P P P L L L L J I I I P t X < < 1 = 5 I 5 0 f 3 ; X # , Q o + A P H H H H J H H H H H I I I P I I ",
"I P P I P I P P I P J J P r o % = - X 3 e J / V P P Z 9 8 ~ o o A P H H H H H H H H H P I I P I I I ",
"P P P P P P P I I I I I I r 6 3 B 4   3 ^ / y Z I I I I r & X @ J I I P H H H H H H H P I P P I I I ",
"I I I I I S D F F F F F D @ z 5 F S 9 G G 9 C I I Y I I r 6 z e P P I I I I I P P P P I I P P I I I ",
"I I U D F S S I A P P I C 5 W 0 r S 5 B A U I P I I I I e ) | k 4 B P P P P P I P I I I P P P P P I ",
"I I S A J H x l k t t x t O f E ; t H P S S A P I I I Y r w d c f 6 u I I P P H P P P L J P I I I I "
};
