/* XPM */
static char *output_onlinegiftools_3__dragged__resized[] = {
/* columns rows colors chars-per-pixel */
"50 50 68 1 ",
"  c None",
". c #D94F15",
"X c #DB5215",
"o c #DE5917",
"O c #E75C0F",
"+ c #E15714",
"@ c #E05B17",
"# c #E25E18",
"$ c #DD6118",
"% c #DF6B19",
"& c #FA6808",
"* c #EF6E13",
"= c #E46319",
"- c #E8671A",
"; c #E7681A",
": c #EA6C1B",
"> c #E6731C",
", c #EE731D",
"< c #E57B1C",
"1 c #EA7A1D",
"2 c #F1761D",
"3 c #F27A1E",
"4 c #F87D1C",
"5 c #F57F20",
"6 c #E6831E",
"7 c #EC811E",
"8 c #E68D1F",
"9 c #E8891F",
"0 c #FB821A",
"q c #F78A1C",
"w c #F88D18",
"e c #E9921F",
"r c #F5931A",
"t c #EC8820",
"y c #F78320",
"u c #F98621",
"i c #F58921",
"p c #FB8B22",
"a c #E59220",
"s c #EC9521",
"d c #ED9C22",
"f c #F69423",
"g c #FA9423",
"h c #F59B23",
"j c #FA9B24",
"k c #F7A325",
"l c #F9A325",
"z c #F6AC26",
"x c #F9AC26",
"c c #EBB526",
"v c #F4B026",
"b c #F8B327",
"n c #F7BE23",
"m c #F8BC25",
"M c #F8B728",
"N c #F7BE29",
"B c #F8BA28",
"V c #F7C020",
"C c #F7C429",
"Z c #F8C029",
"A c #F6CC2A",
"S c #F6D32B",
"D c #F5DC2C",
"F c #F5E42E",
"G c #F4EB2E",
"H c #F4F12F",
"J c #F4F530",
"K c #F3FE31",
/* pixels */
"                                                  ",
"                        XXXo=o    @@Xo            ",
"                X@=X   XXo@X=@XX=XX.X@XX          ",
"             X@;o==Xo.X=o;22,;=o@X,5,5:XX         ",
"         o@XXo@=,y1=;@@21jxjpuuy==upppp=X         ",
"        Xo@;,=:yppjf5y2-1jxgppppyyppppp,o         ",
"       X@@.::,upCxpxlpuyipjjjxppppppppp;.         ",
"       =o@>=oigjSjglxjggpxBDBJDlgNbxjup=o         ",
"      X=7gpyhACglgZjbGDbpADFCGKZSFxCSjj>          ",
"     XX$fjllpgxgllxjbGBxgDKFFKKZCFxBSjg1XX XX     ",
"     XXsgubApgSjxGbglSZZGFKK K JJKDxljpu5oX@@X    ",
"     .X,ppjAjjllCFZbxxbGGbGKKKKKKKKJljlpu5,yy=X   ",
"      @@yllbDABDJDDDSCCKKJK KKKK KKGxbbpppppp5o   ",
"     ==axAFAJKGZSJAD  KKK     KK  KKGJDjupppp,o   ",
"    Xo3>>xbBKKKGJKJJKKKK       K KKKKSZlupppp=X   ",
"   oo$A92lBbGK KKKKF    KK     KKKKKKKKBxgppp,X.  ",
"   ,,$CkgjpbJK  KKGlu      pp      KKKKDAxgu5@XX  ",
"   =#:igjxMDFFKKFBJGgFK              KKKAxg:X.X   ",
"   Xo:uxgMJKFFKKD   gZK          K K  KJlgp=XXX   ",
"   XooyxjgNGKKK KA  ppS        ZFKKK  KKABg=.X    ",
"   @XoyjxADFJKKKK   pjF  A    ZJKKKK KKDxl:XX     ",
"   #XX=5lCjlJK  K pjujG  jG      KK  KKBlh+.      ",
"   .o=.<NCglSGK   BGBSK   BK        KKKJAj3oX     ",
"   X,>;tkplNgbGKKbl                 KKKKBpp5;o    ",
"   oXX,:,5hlxMAKK                   KKKJCbbxp5o   ",
"  X=ooo@;XtlBAJKK              pp        AZDBu:   ",
"  XX=yy,==uggC KKGj                      AFBgp,X  ",
"  XX5ggbvvAbNxGGJKj                     KKKxuu,X  ",
" XXXybbxNMxACMlpp p                     KKZgj;o.  ",
" XXoygZDClMAKAlDSS          KK           GSbA=XX  ",
"  X,pljbjxAGKNxK K         KGDK          AAxb=.X  ",
"  X,gAxDjACS Gl          KGAljD         KJAlp,oX  ",
"  X,lCxFAAAS             JAjuppSKK    K  FMpp5X.X ",
"  .5ggAAACSDV             KDBgjAK     KK DBpi=..X ",
" X.1xpxlBFCDl              KKBDK       K AJd=XX.X ",
"  =iClglADKJFK pp           KF          KKFj5=XXX ",
"  ;pxsrmBGKKKK                         KKGAppyo.  ",
"  o5u5&VbAKK KK   lbJK                 KKZlxgyo   ",
"  X:,2lABxDK KKKKKGJK   K KKKK       K FSCjlu:o   ",
"  XX:2jbACDKK KKK KKKKKKK  JJKK      KJBxxbz=XX   ",
"   X@:uulFGKKFKJAAKKGDKFASGMCHKK  KKKDlAbxxpo.X   ",
"   X+:u0BFxbMbGFxSJKDNGNBljgDGFbSKKDGxuzCxl,X.X   ",
"    Xoy4gZCflSlggSNGDZSDC,,yxbBMASSSlpppgup=.XX   ",
"  X  X:4pBBSxhgppCBSDFDSs>=2;:fBbgAGgp5;ypu=.X    ",
"  X   oo<c<%>X8xpggNZjgi,=o==.=ugpjgp5;.=2;XX     ",
"          .o,,*w0pZw4u2;,:=@=oo=:u5==oXXXXXX      ",
"           o,0++341++;oo@oo.XoXXXoX.X.XXX.X       ",
"            o=oo0=XXXX       XXXX..X  .X          ",
"             X     XXX         XX.                ",
"                                                  "
};
