/* XPM */
static char *__resized[] = {
/* columns rows colors chars-per-pixel */
"50 43 104 2 ",
"   c #060607",
".  c #090606",
"X  c #080806",
"o  c #07070A",
"O  c #09070A",
"+  c #070808",
"@  c #0C0C0C",
"#  c #130E0C",
"$  c #15100E",
"%  c #1B130E",
"&  c #0D0D12",
"*  c #0F0E18",
"=  c #140D12",
"-  c #1A0E15",
";  c #0F1011",
":  c #131314",
">  c #1B1413",
",  c #1E1916",
"<  c #15141B",
"1  c #19161B",
"2  c #171819",
"3  c #1C191C",
"4  c #22160F",
"5  c #211514",
"6  c #251912",
"7  c #2C1D13",
"8  c #23141A",
"9  c #28161F",
"0  c #231C1B",
"q  c #2B1C1B",
"w  c #321F15",
"e  c #301E18",
"r  c #2F2016",
"t  c #29201C",
"y  c #332115",
"u  c #382315",
"i  c #36251E",
"p  c #39261E",
"a  c #3C291F",
"s  c #161520",
"d  c #1B1D23",
"f  c #1E1D2C",
"g  c #2A1720",
"h  c #2D1923",
"j  c #201E2F",
"k  c #321B27",
"l  c #341C29",
"z  c #1C2024",
"x  c #2F2822",
"c  c #20232B",
"v  c #352622",
"b  c #392720",
"n  c #352A25",
"m  c #3D2A20",
"M  c #3B2B2A",
"N  c #373125",
"B  c #3E312A",
"V  c #252434",
"C  c #272B32",
"Z  c #2A2F35",
"A  c #2B2D3A",
"S  c #3F2231",
"D  c #2E323B",
"F  c #31363F",
"G  c #442815",
"H  c #492B16",
"J  c #432C1E",
"K  c #4A2E1D",
"L  c #4D311F",
"P  c #54341E",
"I  c #5B371F",
"U  c #5D381F",
"Y  c #62391D",
"T  c #452E21",
"R  c #482F21",
"E  c #4D2D2B",
"W  c #473021",
"Q  c #4C3221",
"!  c #44342B",
"~  c #4A392E",
"^  c #523521",
"/  c #593720",
"(  c #5B3820",
")  c #402332",
"_  c #4F2E30",
"`  c #533030",
"'  c #5C3435",
"]  c #653A3B",
"[  c #5F462C",
"{  c #5A453D",
"}  c #74512F",
"|  c #73582C",
" . c #7B4B38",
".. c #323740",
"X. c #333941",
"o. c #5F4940",
"O. c #654442",
"+. c #7C6254",
"@. c #886333",
"#. c #937237",
"$. c #8A685E",
"%. c #9A786C",
"&. c #DCAB9A",
"*. c #EBB7A5",
/* pixels */
"^ T m m T T T T W T T T T T T T T T T T T T T W Q ^ Q Q Q ^ ^ ^ I U Y Y I L J v i i m m m T ^ ^ Q ^ ",
"Q Q W T W T W T T T W T T T T T T T T T T T T T Q ^ ^ Q ^ ^ Y Y Y I P R m b a m T T T T T T Q ^ ^ Q ",
"Q ^ ^ Q T T T T T T W T T T T T W W W W T T T T T Q Q Q / Y Y ^ K m b i p m T T T T T T T T Q ^ Q ^ ",
"Q Q ^ ^ Q W T T T T T T T T T W i r r m T T T T Q ^ Q ^ U Y R b v i i a T T T T T T T T W W Q ^ Q ^ ",
"Q Q Q ^ ^ ^ Q T W T T T T T T y > : > % > i a Q ^ ^ Q Q U I p v i v a T T T T T T T T T T W ^ ^ Q ^ ",
"^ ^ Q Q Q ^ ^ Q Q W T T T T y > 0 t q 0 0 % $ u ^ Q R ^ / ^ p i v b T T T T T T T T W Q Q Q Q Q ^ ^ ",
"Q Q ^ Q Q Q ^ ^ ^ Q Q W T W i $ , 0 0 3 , 2 : # w m T Q ^ ^ T p v T R T T W W T T T W Q ^ Q Q / Y ^ ",
"T W W Q ^ Q Q Q Q ^ ^ Q Q Q W K 7 : : @ : = - > O i T Q ^ ^ ^ R T T T T T T T T T Q Q ^ ^ Q ^ U U ^ ",
"W T T W Q ^ W T Q Q Q Q ^ Q ^ P u @ $ 0 < ; { O.. K Q Q Q ^ ^ ^ ^ R R T T T R T Q ^ ^ ^ ^ R ^ Y U Q ",
"T T T T Q ^ Q Q ^ ^ ^ Q Q Q Q p > t 0 3 ; +.*.%.@ u I P ^ ^ ^ Q ^ ^ ^ Q R R W Q ^ / ^ ^ Q R ^ Y U Q ",
"T T T T Q Q ^ ^ ^ / / / U P ^ 7 , 0 3 < , $.&.n # 6 Y Y Y U U ^ ^ R R ^ ^ ^ ^ ^ ^ ^ ^ R R ^ ^ Y I Q ",
"T T T T W ^ ^ ^ I Y Y Y Y Y U u $ $ o   T _ ~ 3 @ % H P T m K P ^ ^ R R ^ ^ ^ ^ ^ ^ T T ^ ^ ^ Y P T ",
"T T W T W Q Q ^ Y Y P K J K I u # 0 @ $ @.| #.N + : 6 i i v a T ^ ^ Q m R R Q R R T m T ^ ^ ^ ( ^ W ",
"T T T T Q Q Q Y Y L p v i v a 6 > < X 2 x } [ F C ; ; % a W T T R ^ ^ T m R Q ^ Q Q Q R R ^ ^ / Q T ",
"W T T T Q Q ^ Y P p i i i v q $ , 2 @ : Z z d X.D ; 2 # i W T T R ^ ^ R R ^ ^ / / ( ^ ^ Q Q ^ ^ Q T ",
"T T T T Q Q ( U a i b b m T % 0 1 @ @ : 3 X.z D z ; 2 @ i W T T T Q ^ R ^ ^ ( Y Y Y Y ( ^ ^ Q ^ Q T ",
"T T T T Q ^ U Q p v b T T J > 3 2 @ + 2 : Z z C < : : , J W T T T R ^ ^ ^ I Y Y U P I U U ^ R Q Q T ",
"T T T T Q ^ I K i b T T T w > 0 < @ $ 2 : d C 2 & 2 : i W K T T R R ^ Q ^ Y U Q T b p J P ^ ^ Q Q T ",
"T T T T ^ ^ ^ a b T T T T 7 > 1 : : 0 $ : : Z @ ; @ y ^ Q Q W W Q ^ R ^ U U R p i v v p m ^ Q Q T T ",
"T T T Q Q ^ Q b T T T T T # 0 2 + @ , , # 2 : @ ;   y ^ ^ ^ ^ ^ ^ ^ R ^ Y ^ a i i p m T T T ^ Q Q T ",
"T T W Q ^ Q Q T T T T T J # < 3 0 > = , , ; < @ @ & $ y L ^ ^ ^ ^ R Q ^ I T i v m T R T T T Q Q Q Q ",
"Q Q ^ ^ Q Q ^ R T T T T Q 7 ; 2 0 t > : 0 : @ @ & @ $ 2 7 H ^ / ^ Q J u P m i T T T T T T T Q ^ Q Q ",
"^ ^ Q Q R R Q ^ W W T Q ^ K # 2 2 0 t > # = > . ; @ ; 3 , $ 6 r K J E ] 7 b m T T T T T T T R ^ ^ Q ",
"^ ^ ^ ^ ^ Q Q Q ^ Q Q Q Q Q 7 # 2 < < : l g = = - = : 2 1 0 > $ 5 q ` e 6 b T T T T T T T T Q ^ ^ ^ ",
"^ ^ ^ ^ ^ ^ ^ Q R Q Q Q ^ ^ I % 2 2 : O k - g < = = ; 2 2 2 : k g h > K T T T T T T T T T R P U ( / ",
"^ ^ ^ ^ ^ ^ ^ ^ R Q ^ ^ ^ Y Y w ; 2 @ & O O & f d : : ; : : 6 > - 8 a Q R T T T T T T R Q ^ Y U P ^ ",
"W Q Q Q ^ ^ ^ ^ Q Q ^ ^ U U R p > ;   & : : s A X.z : : & y  .w 5 G ^ Q Q R T T T T Q ^ ^ Y I T m m ",
"T T T W ^ ^ ^ ^ ^ Q ^ ^ ( R b v 7 @ > : < & V ..X.X.c : 2 u p a Q ^ Q Q ^ Q R Q Q ^ ^ Q I U T i m T ",
"T T W T W W Q ^ ^ Q Q ^ ^ m v a % 0 t 2 * * A ..X.X.X.3 : 2 % K ^ ^ Q T Q ^ ^ ^ ^ Q T Q U P v b T T ",
"T T T T W W W Q ^ ^ Q Q ^ K i t $ 0 0 < & d D X.X.X.X.Z : 2 $ u ^ ^ R b a T Q Q T p T Q ( L i a T T ",
"T T T T T T W W Q ^ ^ Q ^ ^ T 6 2 t 0 < ; j D X.X...X.X.1 : 2 % L Q m p T R Q Q Q R T Q ( L i T T T ",
"T T T T T W T T T W ^ Q Q Q P r > t 1 : * V V D ..X...C : X 2 > 7 m T Q ^ ^ / I ^ ^ Q Q ^ Q m T T T ",
"T T T W T T T T T T W ^ Q W R 6 0 0 2 2   < j j V f < o * & & 2 4 K ^ ^ I U U I I / ^ Q ^ ^ m T T T ",
"T T T T T W T T T T T ^ ^ W p = t 3 2 : & * o & & * * & & s & : 6 ^ ^ / U P J p m P I ^ Q Q T T T T ",
"T T T T T T T T T T T W ^ Q p $ t 1 2 @ * < < s s s < < & < = ; 7 ^ ( U K i i v v a P / ^ ^ T T T T ",
"T T T T T T T T T T T Q ^ ^ y > t , < @ * < < < * s * s @ 9 x @ 7 / P J v a T T T T K ^ ^ ^ Q T T T ",
"W W W W T T R T T T Q ^ ^ Q % 0 0 < 2 @ # + & & * * * < = o.B   7 ^ a m T T T W T T T Q ^ ^ ^ ^ Q Q ",
"^ Q Q Q W W W W R ^ ^ ^ ^ Q % : < 2 2 @ 7 E q 7 w 8 = # o M M @ 6 Q T T T T T T T T T Q ^ ^ ^ Q ^ ^ ",
"^ Q Q ^ ^ ^ Q Q ^ Q R R R ^ 4 = = $ : > ' E J ^ ^ ^ K J 5 ! M @ 7 ^ T T T T T T T W T T ^ ^ Q Q ^ ^ ",
"Q Q Q Q W Q Q ^ ^ ^ ^ ^ ^ ^ 6 8 w %   $ e u ^ ^ ^ ^ ^ ^ ^ 6 = + w P ^ Q Q T W T T T T Q ^ Q ^ ^ ^ ^ ",
"^ ^ ^ ^ ^ U Y Y Y Y Y Y Y H > v G H u L L L Q ^ ^ ^ ^ Q ^ 4 n r J Q ^ ^ ^ ^ ^ Q Q Q Q ^ ^ Q Q ^ ^ ^ ",
"^ ^ ^ I Y U ^ ^ P Q ^ Q ^ u n M e L Y Y I P ^ Q ^ ^ ^ ^ Q q +.O.5 y K Q Q Q Q ^ ^ Q Q ^ Q Q Q Q Q ^ ",
"^ ^ I I R T b b p v p b b q - ) l 6 T ^ I I ^ Q ^ ^ ^ ^ ^ 6 n h S g 8 L ^ Q Q R Q Q W Q R Q ^ ^ ^ Q "
};
