/* XPM */
static char *__resized[] = {
/* columns rows colors chars-per-pixel */
"50 43 143 2 ",
"   c #040404",
".  c #0B0907",
"X  c #070709",
"o  c #0A0709",
"O  c #0C0B0C",
"+  c #100904",
"@  c #120E0D",
"#  c #15110E",
"$  c #1B120E",
"%  c #0D0D12",
"&  c #130E14",
"*  c #190E14",
"=  c #0E1017",
"-  c #121214",
";  c #1B1412",
":  c #1F1916",
">  c #15151A",
",  c #19161B",
"<  c #17191A",
"1  c #1C191B",
"2  c #23170F",
"3  c #331D0F",
"4  c #221612",
"5  c #231914",
"6  c #2B1C14",
"7  c #23131B",
"8  c #28161F",
"9  c #251E1B",
"0  c #2C1F18",
"q  c #311D14",
"w  c #331E1A",
"e  c #2E2017",
"r  c #28201C",
"t  c #332116",
"y  c #3A2416",
"u  c #36251D",
"i  c #39271D",
"p  c #312A1C",
"a  c #3C291E",
"s  c #161621",
"d  c #1A1B24",
"f  c #1D1D2A",
"g  c #291621",
"h  c #311B26",
"j  c #1D2125",
"k  c #22262B",
"l  c #332422",
"z  c #392720",
"x  c #342922",
"c  c #3D2920",
"v  c #362128",
"b  c #3C212F",
"n  c #3C2C2A",
"m  c #32312D",
"M  c #242334",
"N  c #272B31",
"B  c #282D33",
"V  c #282738",
"C  c #272A3A",
"Z  c #2A2B39",
"A  c #2E323D",
"S  c #32363C",
"D  c #383739",
"F  c #432B1D",
"G  c #492F1E",
"H  c #4D321F",
"J  c #4B3C1F",
"K  c #54341E",
"L  c #5A371F",
"P  c #5D381F",
"I  c #62391D",
"U  c #422722",
"Y  c #452E21",
"T  c #482F21",
"R  c #44272C",
"E  c #422C2A",
"W  c #473021",
"Q  c #4C3221",
"!  c #42322C",
"~  c #4C362A",
"^  c #4E382C",
"/  c #523521",
"(  c #593720",
")  c #563823",
"_  c #5B3820",
"`  c #543C2E",
"'  c #432434",
"]  c #443531",
"[  c #4A3731",
"{  c #4D3C35",
"}  c #503B30",
"|  c #5C3E3B",
" . c #633D29",
".. c #5E432F",
"X. c #554139",
"o. c #6A512A",
"O. c #785E2D",
"+. c #7A6232",
"@. c #333941",
"#. c #434448",
"$. c #484148",
"%. c #48494D",
"&. c #5F514C",
"*. c #5C595C",
"=. c #655045",
"-. c #695147",
";. c #645149",
":. c #675A57",
">. c #6B5952",
",. c #675D5D",
"<. c #735951",
"1. c #705D5A",
"2. c #756158",
"3. c #635F61",
"4. c #636067",
"5. c #6E6361",
"6. c #67696E",
"7. c #7A6964",
"8. c #776D6C",
"9. c #766973",
"0. c #747275",
"q. c #7A7071",
"w. c #74747C",
"e. c #927339",
"r. c #8C665E",
"t. c #846859",
"y. c #837375",
"u. c #867875",
"i. c #7D7E85",
"p. c #878183",
"a. c #8F8A91",
"s. c #999396",
"d. c #92939B",
"f. c #989198",
"g. c #A89CA2",
"h. c #A1A1AA",
"j. c #ADA3B0",
"k. c #BCB7BD",
"l. c #C99C8D",
"z. c #E3B19F",
"x. c #E8B4A2",
"c. c #E0E1ED",
"v. c #EDEDFA",
/* pixels */
"/ U a c W W W Y Y Y W Y Y Y W W Y Y Y Y Y Y Y W Q / Q W / / / K L I I I L H Y i z z z c c Y / ) Q Q ",
"Q Q W W W W Y Y Y W Y W a i y a W Y Y Y Y Y Y Y W / / Q / ) P I I P K Y c i i c c Y Y Y Y Y Q ) Q / ",
"Q ) K W Y Y Y Y Y Y W a $ # $ $ 4 t Y Y Y Y Y Y W / Q Q ) I I K T i u u z c Y Y Y Y Y Y Y Y W / Q Q ",
"Q Q / / W W Y Y Y W a ; 9 r r 9 : $ # 9 Y T Y Y Q / W / P I T i l ] { i Y Y Y Y Y Y Y Y Y Y / / / / ",
"Q W Q / / H Q W W W i $ ; r r r 9 9 ; O 6 Y Y W / / W / P K E c w 3.u.F Y T Y Y Y Y Y Y Y W / / Q / ",
") / Q Q Q ) / Q W W Y F e - : = # # R R @ 6 W / / Q Q / L H ;.q.z 5.u.F >.W Y Y Y Y Y W Q / Q Q ) K ",
"H Q / / Q / / / / Q H G a @ . ; : E X.r.9 # K / W c F Q ) / Y :.8.5.u.7.7.Y Y Y Y Y W Q / Q / ( P L ",
"Y W W Q / Q W W Q / J G $ r r r % <.x.l.; ; i G Y c U T / ) ..` ,.h.k.3.x } ^ Y W W / ) / W / P P H ",
"Y Y Y W / / Y Y T W Q F # r r > 4 -.z.>.. # 5 G W Q Q Q i c p.s.a.c.v.g.a.f.u.T W / / ) / T / P P W ",
"Y Y Y Y W / Q / / / K F # O O % U | X.x % O + $ 2 2 4 4 $ ; ; 9 *.d.j.y.v 8 y F / K ) / T Q / I P T ",
"Y Y Y Y W / H / ) K K t . @ - - O.o.O.J = O # % 5 5 9 5 9 1 : N w.3.4.$.9.[ / F t H / T Q ) K I P Q ",
"Y Y Y Y W / Q H F q $ $ r : O - p +.e.m @.j % = - , < s , > < i.D %.6.. 2.1.w  .U q w y / / ) P K T ",
"Y Y W Y W Q G 4 @ . ; 1 , > O O k N > A @.B = # % > > - > = #.0.; k D 6 Y Q G t 6 w w w q H ( P / Y ",
"Y Y Y Y W / $ , 9 5 ; O - O . O , 1 < k @.j # = X # # # $ ; w.X.@ # q F c T T K Q G y y G w H ) Q Y ",
"Y Y Y Y W / $ - < 1 9 9 5 ; O 7 7 ; > k N - < - # p a W W ~ &.a T / ) T T / ) ) ( ( ) T t 4 y ) Q Y ",
"Y W Y Y Q / H $ - < > < 1 1 & b 7 8 d j j - - ; u a c W W W F F Y T / W / ) P I I I I _ ) G Q / W Y ",
"Y W Y Y Q / P G # - - < < > o @ X > N , - % 5 F z c W Y Y Y Y Y Y T / / / L I I P L L P P / T / T Y ",
"Y Y Y W Q / L W u e ; - - < o O O s Z >   X 6 K W W W W Y Y Y W Y Q Q Q K I P Q Y z z F K ) Q Q W Y ",
"Y Y W Y Q ) K a a Y Y ; $ # . - @ O d < X % 6 ) / / Q Q Q Q W W T / Q Q P P W z u z u z z / / Q Q Y ",
"Y Y W W Q K Q a c Y Y Y W t & < 1 & % f % - 2 / Q / / / / / / / / / Q K P K a u z z z Y Y W / Q Q Y ",
"Y W W H / Q Q U Y Y W Y Y q o > , , O > % % 6 K ( ( P _ _ ) ) K K T W ) ( Y z p c Y Y Y Y W Q Q Q Y ",
"W Q Q / Q Q / W Y Y y e ; @ * & & % O % X % 3 I I I P ( K / ) / ) T Q L ) z z Y Y Y Y Y Y Y Q Q Q / ",
") / / Q W W Q H i ; - ; 9 9 : ; 7 7 7 7 7 & q L Q G c z z z F Q / / T K K u U W Y Y Y Y Y Y W / Q / ",
"/ Q / / / Q H 5 $ 5 r r 9 9 1 - & O O & O & @ u z u p a z a c a / ) Q ) T z Y Y Y Y Y Y Y Y Q / / / ",
"/ / / / ) K 5 9 r r 9 r r < < < = O s A j - - $ z c Y Y Y Y Y c W ) Q / Y c Y Y Y W Y Y Y G K P P _ ",
"/ K / / / 5 ; r 9 r r 1 < < - % > M A @.S j - # Y Y W Y Y Y Y W W / / Q W Y Y Y Y Y Y W W ) I I L Q ",
"W W W / a $ r r r r r 7 > < - f C S @.@.@.@.< O t W Y Y Y Y Y Y W / Q / / T Y Y Y W Q / ) I L U a Y ",
"W Y W G 2 : r r r r r < < % f M A @.@.@.@.@.N = ; U Y Y Y Y Y W Q / / W / Q W W Q Q / H L P a l z Y ",
"Y Y W t $ r r r 9 9 7 < - > M C @.@.@.@.@.@.@.< O t W Y Y Y W W / / Q Y Q / / / / W W Q P K u z Y Y ",
"Y Y W t ; r r r 9 9 , < % f M C @.@.@.@.@.@.@.N O ; Y Y Y W Q ) ) / G u a G W Q Y a Y Q P Q z c Y Y ",
"Y Y W e # r r r 9 1 < & % f M M Z @.@.@.@.@.@.d X ; W W W / ) / / W c a U W W Q W G Y Q ( Q p U Y Y ",
"Y Y G p ; : r r 9 , > O = % < f M C A A N k = = s < y Q / K ) Q W a Y Q K ) ) L _ ) Q Q ( Q c Y Y Y ",
"W Y Y Y $ 9 9 r 9 > > O d > % 4 - & % = % X > s V d y ) / / T U i Y / / ( P P ( ( _ / W ) Q a Y Y Y ",
"Y Y Y Y 9 ; 0 9 1 > - ; d % 0 Y G t $ @ > % & s f s F / / T c c Y / ) P I H F i a / L / / Q U Y Y Y ",
"Y Y W Y c ; 9 9 > < @ 7 , 2 U c Q / K F & % X & * 2 / Q Y c i Y / / L P G z z u u z ) L / Q G Y Y T ",
"Y Y Y Y Y y ; 1 < < = ! l F Y z c G / ) q % % h { 6 Q T T c U / / K K F z c c Y Y U H K ) / Q W Y Y ",
"W W Y Y Y Y y ; > : - X.Y H U u u z Y Q 6 % ; -.=.6 T / T c T / ) H U c Y Y Y W W Y W Q / / / / Q W ",
"/ / / W W W T i @ - - # G T Y a z i z i & = X { { 5 / / Y Y T / ) T Y Y Y Y Y Y Y Y Y W / / / Q / / ",
"/ Q Q / / / Q Q # ; . 2 H Q Q Q W T U 6 % 4 t { n 4 ) T Q / T / / Q G Y Y W Y Y Y Y W W / / Q Q / / ",
"Q Q Q Q Q Q Q Y 4 7 a K ) K ) / / / / G u G H ; g 4 K / / / / T Q / / W W W W Y Y Y W Q / Q H ) / K ",
"Q K / ) ) L I q l 9 K I I I I I I P ( ) / W H # E 0 H / Q / ) Q T Q / / / / / Q Q W W / ) Q / / / ) ",
") ) K P P L L q ! v 0 H K G K K K L P I L ) G z t.[ 5 y H K ) / ) Q Q Q Q / Q / Q / K ) H W W Q Q Q ",
"/ K L K G Y c ; 8 ' 8 5 z z u u z z G Q L L H 5 l h b 8 0 H / / / ) / / Q Q Q T W Q W Q T G / ) K Q "
};
