/* XPM */
static char *output_onlinegiftools_4__dragged__resized[] = {
/* columns rows colors chars-per-pixel */
"50 50 68 1 ",
"  c None",
". c #D94F15",
"X c #DC5316",
"o c #DF5917",
"O c #E05A17",
"+ c #E25E18",
"@ c #DE6418",
"# c #DE6A19",
"$ c #DF711A",
"% c #E56419",
"& c #E8671A",
"* c #E66B1A",
"= c #E96B1B",
"- c #E5741B",
"; c #ED731D",
": c #E37A1C",
"> c #EC7C1E",
", c #F0761E",
"< c #F27B1F",
"1 c #F57F20",
"2 c #E3841E",
"3 c #ED831F",
"4 c #E58B1F",
"5 c #F1821F",
"6 c #EF8620",
"7 c #EF8B20",
"8 c #F58320",
"9 c #F98621",
"0 c #F58B21",
"q c #FB8B22",
"w c #E59520",
"e c #ED9321",
"r c #E79B21",
"t c #EA9D22",
"y c #F59322",
"u c #FA9423",
"i c #F59B23",
"p c #FA9A24",
"a c #E6A322",
"s c #EAA423",
"d c #EDAD25",
"f c #F4A424",
"g c #F9A425",
"h c #F5AC26",
"j c #F9AC26",
"k c #EBB325",
"l c #ECBC27",
"z c #F4B327",
"x c #F8B227",
"c c #F3B927",
"v c #F8B628",
"b c #F7BD28",
"n c #F8BC28",
"m c #ECC027",
"M c #ECC628",
"N c #EDCC29",
"B c #F6C429",
"V c #F8C229",
"C c #F6CC2A",
"Z c #EED12A",
"A c #F6D32B",
"S c #F5DB2C",
"D c #EFE62D",
"F c #F4E42D",
"G c #F4EB2E",
"H c #F4F22F",
"J c #F4F530",
"K c #F3FD31",
/* pixels */
"                                                  ",
"                  g;        A444@                 ",
"              bVnVBi0#X X o=yqqqyBr:              ",
"          &9xbgSvu=%--%+.=;<qbbqgSKN>=O.          ",
"          ,gACBFq9=%O%%*%<<yqbCxAKKKbx2*%         ",
"       %,qjHKK  AAASn>o%89gvpbS       Gg0>%       ",
"       ;qCK        KKF3Xo,qpFKKKKKK    JHj,       ",
"      &yAG    KJGGAxxjid600vKGvhxvGGJK   Au%      ",
"     =ySK    KSxppq88;8gGGCFSg=oO&55hSJ   Cy=     ",
"     0S    KKBq9;<%+==%<xS Gp=o=,,=o=qVAu  Au;    ",
"   &;CK   KFbq91=,;%&1<<qB Gn>;ggqq8%OiGNZ  vy    ",
"   9qSK  KKx9q8*#%upq8qqpvK Kh=BCupq;o8  K  KjO   ",
"   0pF   KSuq8:-a7bFN-8uVBBK x5;3vGB<%=vcAK Kho   ",
"  egxK  KJjbAi6=<%8gAN0,59jCHHp9pfCJb83iycH KS3   ",
"  fpx  KKJvSV<*i<+*9xKV8=%0jHSuggfVbC9;;>pG KJ0.  ",
"  qq0m KKKKv9=,p>%,9xKAqq,:gHx;ADDf=7=;dbpGHvS3X  ",
"  qxim KK Ggq=qpq,9gCKbpu8=uCe&nGJ0@3X=shpGGpx5.  ",
"  e Fb K KCq9<pvuuxGKFpbp1;0=+=%>hVe:o>90yJF0f>X  ",
"   c   K Jgq<,quqvJKGfuf<&y0XO8=*%>;=9hBhjJbe2=X  ",
"   lJ  KKJpq,;qqqpFJC=hfXO8%.O9qq*o>qpFjqAJnFfo   ",
"   9jG  KKCq<%;,9qpp99i*%7;+%<qqqqgqquvgvKSq6*    ",
"  %0jAuqpFHgg7OX%%*==>6*<2-iVCCBCgpqqqVGGCgq6%    ",
"  3AJ qgBCKCgpg>%%=pg<fdr2SApppppvSCg9<06*=9Vy%X  ",
" oy  x9gupSFJghp9uxggVK JJvp=%%%%&yFJCu<%XX%9pr.# ",
";=g  jpu,3jbFAxxvvvgvS  KSu,X...XX;VKKxq<OOo;0k4o ",
"qqFBVgp0XoyggbGGJJSGK KGby=+O;3%+o%pGKGgq=&;;;zD# ",
"qq xqCp%..=AJxyppA   KKbq8O=9CJh;X%pHKKxq<=qq9xD$ ",
"9uGx9p5O.o+ih9998gG  JFvq8O<VbhVjO%<BKKFn8%8bgBD$ ",
"=qMVg=+%%,yxhxx3=8v  KJGp9;qp<O;0%o%jKFKSp<8vgCk  ",
"%%fKB<%9pbS GGBnquAKKAGSCj<<=OXX+-%+gFV  x9bKSrX  ",
" X5nVgquFKGgqpj0jgGKSqgAKG>=8;%.:yooynv  CxS      ",
" X%qqVppH Auq99>SVJKCqqpGF0o<<XX*9oojFb  KK Dw    ",
"  %8qggS  Jjq=+%0bKbu9q150p-oO%eBhX;9>wFnBKA:     ",
"   +%kBK  Cqq<oo%9Gx9q<OO+-;=>Vvh>%t*.wx99jg      ",
"   .o;gF Ggqqg>%.=jVgq<O*+ooo*6;%%<*%=jq>%<f      ",
"   X%=<C Gp9qqu&.O1SSqq&.o=oooo;=;;+8quq,=== G    ",
"     o3FKJjqqug8O.&nBpq8=o+;189;==,9pvCpq>i9<0    ",
"     &xK  Hjuqqq<+&9ppu,%==o%&ypqpqbS  SCAV0k     ",
"     &fH   JAjqq999gguvi4hf1&%<qpBCK     Kh=      ",
"   XX8qCJK   HgppppAC8hJKKSppppppgJ  J   H3       ",
"     #ripbFK  GGGGbpu<qvx KGGGGGGG  z0C  A:       ",
"      #:zigbxSGvxp9qjASjqpqBFGH   Kz%X-sf>B       ",
"       X##s30i0<,;6SGASCx0=ybjBACAd*   oo         ",
"          XX#>8%;>uFS9==h0O%2::<<%o   w           ",
"           X.69*;qizC3##=y# ...==X    w   S       ",
"             wk   f%32wM#:*                       ",
"                      rJD2o    XX                 ",
"                      amaa                        ",
"                                                  ",
"                                                  "
};
