/* XPM */
static char *__resized[] = {
/* columns rows colors chars-per-pixel */
"50 43 200 2 ",
"   c #050506",
".  c #0B0B0C",
"X  c #110D0D",
"o  c #14100E",
"O  c #19120F",
"+  c #0D0D12",
"@  c #130F12",
"#  c #170F16",
"$  c #0E1010",
"%  c #141314",
"&  c #1B1413",
"*  c #1E1815",
"=  c #15141A",
"-  c #1A161A",
";  c #17181B",
":  c #1C191B",
">  c #21160F",
",  c #221614",
"<  c #231914",
"1  c #2B1D15",
"2  c #21151B",
"3  c #241D1B",
"4  c #2C1C1C",
"5  c #311D19",
"6  c #2B211B",
"7  c #2C231C",
"8  c #342217",
"9  c #382515",
"0  c #36251D",
"q  c #39261D",
"w  c #3C291E",
"e  c #171621",
"r  c #1C1D23",
"t  c #1C1C2A",
"y  c #2C1A23",
"u  c #351E26",
"i  c #1F2128",
"p  c #1F2230",
"a  c #21232B",
"s  c #292A2C",
"d  c #352422",
"f  c #392720",
"g  c #3D2A21",
"h  c #3C222D",
"j  c #3D3327",
"k  c #232534",
"l  c #292C35",
"z  c #2B2D3B",
"x  c #2B3037",
"c  c #2D323B",
"v  c #31343C",
"b  c #3B3638",
"n  c #472919",
"m  c #442C1E",
"M  c #492E1D",
"N  c #512F19",
"B  c #4E311F",
"V  c #53341F",
"C  c #5A361E",
"Z  c #5D381F",
"A  c #62391D",
"S  c #452E21",
"D  c #482F21",
"F  c #473022",
"G  c #4C3221",
"H  c #43322D",
"J  c #4C3529",
"K  c #4D392D",
"L  c #523521",
"P  c #583720",
"I  c #5A3821",
"U  c #5A3729",
"Y  c #543B2C",
"T  c #583E2D",
"R  c #4D3A32",
"E  c #483838",
"W  c #533D33",
"Q  c #533F39",
"!  c #613F2F",
"~  c #4E403E",
"^  c #564033",
"/  c #5C4334",
"(  c #55423A",
")  c #5A453C",
"_  c #6D462E",
"`  c #634533",
"'  c #684A36",
"]  c #604738",
"[  c #353747",
"{  c #363C44",
"}  c #3E455C",
"|  c #5E4941",
" . c #574848",
".. c #484E57",
"X. c #5D515A",
"o. c #634C43",
"O. c #674C47",
"+. c #734A48",
"@. c #6A5347",
"#. c #65524C",
"$. c #69564E",
"%. c #725A4D",
"&. c #645553",
"*. c #695959",
"=. c #755C53",
"-. c #705D5B",
";. c #7A625A",
":. c #595B6C",
">. c #665E65",
",. c #635B73",
"<. c #6A656A",
"1. c #7A6B65",
"2. c #746568",
"3. c #6D6474",
"4. c #6A6B77",
"5. c #756D75",
"6. c #9F7D3B",
"7. c #806D6C",
"8. c #88776D",
"9. c #897871",
"0. c #887A7B",
"q. c #A18274",
"w. c #5D6780",
"e. c #5F6B95",
"r. c #6E6F85",
"t. c #777488",
"y. c #7A7A97",
"u. c #7B7EAE",
"i. c #867C85",
"p. c #877D87",
"a. c #827E93",
"s. c #7B829C",
"d. c #7F81A6",
"f. c #7887BA",
"g. c #858082",
"h. c #8B848C",
"j. c #88878C",
"k. c #91878B",
"l. c #9F918D",
"z. c #8A8795",
"x. c #948A94",
"c. c #9B9299",
"v. c #BB9587",
"b. c #A89A96",
"n. c #8986A4",
"m. c #988FA4",
"M. c #9392AB",
"N. c #9C98A8",
"B. c #8A8FB4",
"V. c #858BB8",
"C. c #8B92B9",
"Z. c #9798B5",
"A. c #9B9CBA",
"S. c #AEA4AA",
"D. c #B2A7A4",
"F. c #B0ACBC",
"G. c #BCB2B3",
"H. c #B8B9BE",
"J. c #C3B7B5",
"K. c #E0B2A0",
"L. c #8994C5",
"P. c #969DC8",
"I. c #9CA2C9",
"U. c #9CA5D5",
"Y. c #A8ACCB",
"T. c #B5B5C9",
"R. c #A2A8D1",
"E. c #AAB3DA",
"W. c #B5B7D4",
"Q. c #B8BBD7",
"!. c #B0B8DD",
"~. c #A1ACE1",
"^. c #A5B0E2",
"/. c #AAB4E3",
"(. c #A4B2EB",
"). c #ACB9EF",
"_. c #B1BAE5",
"`. c #B2BDEB",
"'. c #A9BAF8",
"]. c #B1BEF1",
"[. c #C1BEC7",
"{. c #BCC3E7",
"}. c #BAC6F7",
"|. c #C6C2C7",
" X c #C8C8D7",
".X c #D0CED9",
"XX c #CDD0DC",
"oX c #D5D2DA",
"OX c #C8D0F1",
"+X c #CDD2F1",
"@X c #CBD4FB",
"#X c #CED8FF",
"$X c #D7DBF6",
"%X c #DCE1FB",
"&X c #EBEBF4",
"*X c #E4E7FA",
"=X c #EBEDFF",
"-X c #EEF1FB",
";X c #F3F4FE",
":X c #F8F9FE",
/* pixels */
"L S w g S S F S F S F S S F S S S S S S S S S F G L G B ^ @.D.&X*X|.G.&XJ.b.9.R 0 0 0 g g S G L G G ",
"G G F S S S S S m F S S S S S F S S S S S S S S F G V o.G.oX$X#X`.T.W.`.}. X!.Z.h.1.$.D S F G P G L ",
"G L L G S S S S g F S S S S S S S S F S S S S F M ^ 8.|.%X}.R.z.>.~ 4.y.t. .r.R.{.OXT.7.Y F G L G L ",
"G G L L G F F S F S S F S S S S F S S S S S S S ^ b.%X+X_.i.( g 0 0 g g H S R R *.Z./._. Xk.L V G L ",
"G G G L L L G S F m F m S S S S S S S S S S m ^ D.#X}.M.=.I q d f 0 g S S S S m S Q M.B.~.F.%.L G L ",
"L L G G G L L G F F F F S S S F S S F S m F / l.+X'.M./ L L f 0 0 g S S S S S S S S ( 2.U.(.N.^ L P ",
"G G L G G G L L L L G F S S F m S m S F F ^ D.*X}.!. .L L L D f 0 g S S S F F S S S S L $.n.U.;.Z C ",
"S S F L L G F G G L G G G G B B F F G G Y 8..X}.}.p.S G L L L D S S S S S S S S S D L L G W y.m.` G ",
"S S S F G L S S G G G G B w 9 w B B L V ' |.OX'.{.| B G G L G L L G S S S S F S D L L L L G -.Z.7.B ",
"S S S S G L G L G L L B 8 * * > < 8 m M 9.&X#X).x.T L L P L L G L L L G S G G G L L L U D M @.R.A.B ",
"S S S S G G G L V V L V < 6 6 7 6 * o O g.:X@XP./ P Z A A Z I V B X.,.L L L L L P L G D B L @.P.d.G ",
"S S S S F L L L C A A A n 1 : < % * u , g.;XE.Z.;.A A L S S K 2.$.u.C.2.0.U L L L L S S V L ` k.d.F ",
"S F S S G G G L A A V m S 1 . % & 0 +.O.k.-X}.x._ C S q 0 d H h./.+X*X+Xk.) J G D S g S G L L p.V.H ",
"S S S S G G L Z A B 0 d 6 & 3 3 % ;.K.q.j.-XE.=.V g f q S S X.N.}.=X;X-X[.a.W M D L D D G G L p.V.S ",
"S S S F G G V A V q f 0 < & < % 2 ' v.o.j.XXy.X.f 4 0 0 1 < s :.E.=X;X&X>.J V C P C P L L G V p.V.S ",
"S S S S F L C Z w f f f , X . . w ` Y 9 j. Xe.r.b & & & 3 < X [ L.P. XQ.h.D m Z A A A I L G L a.V.S ",
"S S S S G L P V 0 0 1 < & * * . w %.6.M j.:X{.C.:.; : : ; a } : t w.x.E >./ U n n M C A Z L O.I.Y.D ",
"S S S S G L C m & & . % : : = . ; s 9 x ..H.+Xf.s.i ; % ; a } ;   v -.G m N M 0 u 9 5 w V P 2.^.h.S ",
"S S S S L L V < * 3 < * @ % . . i r $ x c 4.|.}.^.E O < O 6 > < , 9 D L Z Z M 0 5 5 D 4 0 L :.R.*.m ",
"S S S G G L G 1 % ; : : 3 * * 2 7 * ; s x x [.-X}.t.V V V V V V L L D L Z V g 0 f 0 0 1 9 #.Z.N.T m ",
"S S F G L G G g 1 % % = ; : % 2 * - = a l . <.&X{.3.C C Z P P L L D D P P S f 0 S S S m Q A.T.%.D D ",
"G G G L G G L D S 0 < % ; % %     % l r = . H 9.S.n.=.` V V L L L Q K P L f f S S S m ) Z.`.0.G G L ",
"L L L G G S L G F F F q < & X . $ = l t + . 9 V -.Y.(.t.H j j B L ) W V V f g S m J >.P._.i.Y L G L ",
"L L L L L G G G L B 9 9 8 9 , = - $ = = . + 0 g 0  .A.E.C.t.( j L V M L m q S W &.a.E.P.5.L G L L L ",
"L L L P L P G q 1 > * * & & . % = = + e $ . 6 9 g w ) i.Y.].E.z.&.O.#.#.#.3.<.Z.(.I.3.Q S S L C I P ",
"L L L L L G 8 < 3 3 6 : : % + & # # @ @ o X 6 j S S S S ) c.W.Q.!.)./.Y.`.@X/.L.y.&.S m G L A A C L ",
"F F G L B 8 < 7 6 3 : ; = % * * & # # - & @ < M S S S S S J | 1.0.0.0.b.|..Xx.E S S G L L A C S f g ",
"S S S F 8 ; 6 6 6 : ; = % < 7 6 - @ = l ; % O w S S S S S S m S L L D J ] ] Y F G G L G Z Z w d g S ",
"F F F w & 6 6 * & + . . X - & = - @ k { x 3 $ 1 S S S S S S S G L L L S D V G L L D S G Z V 0 f S S ",
"j m F w & & o o * = % = % . . . + e v { } v r 1 S S F S S S G L L L S q w D G G S g g L Z B f g S S ",
"m m M 8 & * ; ; ; = % . + = = = t c { { } v c * w S F S G L L P L D w g S D L G G D S G I G f S S S ",
"S S 8 * 6 : ; % + + + . t z z z [ { { { b v } s 0 F F G G L L L D g S D L L L P P L G G P D f S S S ",
"F m < < ; ; % . + = = . e { { { { { { { { { l r 3 D G L L L D S w D B L P Z Z C P P L D L G S S S S ",
"S w & ; ; & 1 & + e + + e e a c { { c l r = = e % M L L B D S d S B L I A V m f g V C L L G g S S S ",
"S q @ = % 7 S w 3 & & r p ; X * 3 7 7 8 % = p k - M L G S g d S L V ! C S 0 f f 0 f L P L L S S S S ",
"S 0 % % < m F m S w 0 2 e & 0 0 q m L L 1 ; t - < M G G D w S L L V N n q g g S S S D C L L G S S S ",
"G q o & 0 M F F F 0 ) O.u 8 g 0 f 0 S G w % y d 8 G G L S w D P L L g S S S D S S S S G L L L L G G ",
"V M o > F M F G M 0 ) %.J m S g w 0 f S B 0 | o.w B L G S S D L L D S S S S S S S S S D L L L G L L ",
"L G > > B G G G w < d g F G G G G S S g M q ) R q L L G L L D D L L S S S S S S D S S D L L G L L L ",
"G G 0 1 F G B L 0 y 5 m C C L L L L G B B m g d 8 V L G L L L D L L L D S S S S S S S D L G G L L L ",
"L L L L V C Z C 5 1 9 A A A A A Z Z C L L M < y 1 L L G L L L L D G L L L L L G G G G L L G G L L L ",
"L L L Z A C C M 0 H 5 M L L B V V C Z A P B g =.g 8 M V G L L L L L G G G G G L G L L G G G G G G G ",
"L L C V G S g 5 , h u 2 q d d f g g m G C V w H h u 4 m G L L L L L L L G G G D G G G G S G L L L L "
};
