/* XPM */
static char *__resized[] = {
/* columns rows colors chars-per-pixel */
"50 43 187 2 ",
"   c #0B0B0C",
".  c #110E0D",
"X  c #14100E",
"o  c #1B130F",
"O  c #0F0E11",
"+  c #140E12",
"@  c #150F17",
"#  c #0F1012",
"$  c #141314",
"%  c #1C1513",
"&  c #1E1815",
"*  c #151619",
"=  c #1A161A",
"-  c #17181A",
";  c #1C191C",
":  c #221615",
">  c #231914",
",  c #2B1D15",
"<  c #25151C",
"1  c #29161C",
"2  c #251D1A",
"3  c #2C1D1B",
"4  c #321D1B",
"5  c #2A201B",
"6  c #322116",
"7  c #3A2313",
"8  c #35251D",
"9  c #39261D",
"0  c #3D291E",
"q  c #181724",
"w  c #1B1C24",
"e  c #1D1E29",
"r  c #301A23",
"t  c #1E212A",
"y  c #2A2221",
"u  c #272728",
"i  c #23252D",
"p  c #362521",
"a  c #372426",
"s  c #3A2720",
"d  c #3C2920",
"f  c #3C2B29",
"g  c #3B3323",
"h  c #2A2F36",
"j  c #2B2D39",
"k  c #342D32",
"l  c #372939",
"z  c #2A3036",
"x  c #2E333C",
"c  c #30363E",
"v  c #422817",
"b  c #442C1D",
"n  c #4A2F1D",
"m  c #502F19",
"M  c #4C311F",
"N  c #53341E",
"B  c #5B371F",
"V  c #5E381E",
"C  c #60371C",
"Z  c #62391D",
"A  c #452E21",
"S  c #482F21",
"D  c #412D2D",
"F  c #522E29",
"G  c #473023",
"H  c #4C3221",
"J  c #46332B",
"K  c #4D372A",
"L  c #4E382C",
"P  c #523521",
"I  c #583720",
"U  c #563824",
"Y  c #5B3922",
"T  c #553B2B",
"R  c #593D2B",
"E  c #402432",
"W  c #473431",
"Q  c #443833",
"!  c #4D3A34",
"~  c #4B3B3C",
"^  c #513C33",
"/  c #543B3A",
"(  c #663C21",
")  c #4D413C",
"_  c #574237",
"`  c #5C4333",
"'  c #5C433A",
"]  c #67442C",
"[  c #664838",
"{  c #644C3D",
"}  c #7F6327",
"|  c #2D314D",
" . c #333447",
".. c #343A42",
"X. c #4D3D40",
"o. c #3B4354",
"O. c #4A454B",
"+. c #534243",
"@. c #594848",
"#. c #4B495D",
"$. c #544B55",
"%. c #5B4C50",
"&. c #594E5B",
"*. c #634C42",
"=. c #614448",
"-. c #6A5346",
";. c #65514B",
":. c #6D564C",
">. c #765A49",
",. c #6D5A52",
"<. c #665759",
"1. c #715E54",
"2. c #7B5F56",
"3. c #6B625F",
"4. c #766054",
"5. c #71615A",
"6. c #434A67",
"7. c #5A5365",
"8. c #595670",
"9. c #605766",
"0. c #696468",
"q. c #736C6B",
"w. c #796A68",
"e. c #6C6774",
"r. c #766872",
"t. c #786E7C",
"y. c #846A5C",
"u. c #946F65",
"i. c #85756E",
"p. c #857874",
"a. c #897B78",
"s. c #96857B",
"d. c #98847D",
"f. c #AE8679",
"g. c #4F5D8F",
"h. c #5C628E",
"j. c #6A6B89",
"k. c #7A738B",
"l. c #7B7794",
"z. c #7B7B9C",
"x. c #817583",
"c. c #857D86",
"v. c #827D94",
"b. c #7F839D",
"n. c #7987BB",
"m. c #8C8187",
"M. c #968985",
"N. c #9E948F",
"B. c #85819A",
"V. c #958C91",
"C. c #989297",
"Z. c #BA8F81",
"A. c #A49797",
"S. c #898BA7",
"D. c #8787A8",
"F. c #9895A7",
"G. c #8C91B8",
"H. c #9899B5",
"J. c #A29DAA",
"K. c #ABA6A7",
"L. c #B3A6A7",
"P. c #AEABB5",
"I. c #A1A3BB",
"U. c #B2ACB7",
"Y. c #BBB5BD",
"T. c #D5AD9D",
"R. c #8F99C9",
"E. c #9B9FC3",
"W. c #95A1CF",
"Q. c #A2A4C3",
"!. c #ABAAC2",
"~. c #A5ABCD",
"^. c #A9ABC9",
"/. c #B9B7C7",
"(. c #A4ADD8",
"). c #ABB0D3",
"_. c #B3B7D5",
"`. c #BDBED2",
"'. c #BDC1DD",
"]. c #BAC2E5",
"[. c #CBCBCF",
"{. c #C5C4D4",
"}. c #C7CCE1",
"|. c #CDD2ED",
" X c #DCDEE3",
".X c #D5DBEE",
"XX c #D3D9F7",
/* pixels */
"P A 0 d A G A A A A G A A A A A A A G A G b A b M P *.c.P.|.^.M.] V Z V B 0.].}.J.C.a.W 0 A P P H P ",
"H H G A G b G A A A b G A A A A G b A A A A G ^ ,.a.F.l.k.r.[ Z Z B N G 0 J 8.b.^.H./.i.G G H P P H ",
"H P P H A b b G A A G b A G A A A A A A b _ p.P.^.B.<.^ I C Z I b d 9 p 0 0 A G X.7.z.I.5.G H P H P ",
"H H P P H G A A G A b G G b A A A G G G 5./.'.H.%.T S H ( C S s p 8 p 0 A A A A A G ~ 9.5.K H P H P ",
"H H H P P H H G G b G A A G A A A b K M./.D.7.! N P S P I N 9 r p 9 s A A A G A S A b A A H P U H P ",
"P P H H P P P M M G A A A b G A A A w.`.z.Q H P P H S P I P 0 9 9 d G A A G b A A A A G H H :.x.;.Y ",
"H H H P H H P P P H M G A A A A A G V.H.+.H P P S d A H P P S s 9 d G A A A G A A A G H P H ` k.I.L.",
"A G H H P H H H H P P H H H M G G ,.D.@.P P P H A 0 A S P P P S A A b A A A b G A H P P P H M Y x.XX",
"A A A G H P G A H H H H M M P M R V.0.N P M G G A H H H H P P P P H S A A A G b H P P P P S P Z [ G.",
"A A A b H H M P H P H P M M H H U >.R M G G b P P P P P I P P H R R U M H S H H P P P P H H P Z V @.",
"A A A A G N P P P N B v 5 , 6 0 A A 0 d 0 H P P P I Z Z Z Y ] a.A.a.1.:.U M N P P P P S S P P Z B n ",
"A A G A H P H P Y Z m > 2 2 > > : % 5 0 H P P N V Z Z N S 5.P._.v.{ <.!.N.2.` P P P A A P P P Z P b ",
"A A A A G M H P Z Z v > 2 5 2 & & o + 4 M P P V Z Y b 8 ~ !.R.&.U P F 7.!.Y.1.n H A d A H P P Y P A ",
"A A A A H P P V Z M 0 5 % $ $ $ s / D : b N V Z N d 9 d p.V.+.b S P P A ~ c.N.{ H H H S S P I P H A ",
"A b A A H H P Z N 9 9 3 % % & 2 u.Z.2.o 8 N V P 0 9 0 _ N.! 9 8 9 9 S S @.m.A.y.I I P P P H P P H G ",
"A G G A G N B B 0 9 8 & 2 5 $ p f.T.W + 5 b P 0 y 9 9 0 q.r.5 F A 3 4 b k.J.>.( Z Z Z V P H H P H 7.",
"b G b G H P V M 9 p 9 % .   . / =.{ % # - & 5 > & > > o 0. Xh.y : 4 r k G.J.] C V B B V V P H H J j.",
"A A G b H P B b 5 , , % & . . w.s.} y i t * % & 2 2 2 = h K.~.g.|  .h.n.].4.v n b 9 s b N P H P S +.",
"G A A G P P M > % . % ; w $   6.e.g ....i - $ - - $ - $ X h F.W.(.B.H.'.C.0 7 4 3 8 8 p 0 P H H S G ",
"A A A G P H , = 2 % + + .     6.b.6.o.x - - * % & & > & & > ) 3.i.[ R { [ M 8 3 A 7 4 d d H P H P p.",
"A A G M H M > % = ; 2 > & $ 1 l S.n.o.w # t & v N N B N N M m M N H H N B G p p 8 4 4 b A A H M ;.{.",
"H H H P H H b > $ * * - ; $ < = K.].o.q # - v C Z V B N B N N N P H S N N 0 p A A A b A A G M M <.~.",
"P N P H H H N M 6 % $ - $       0..X8.  # 7 V B M b d 0 p d g M P P H P M 0 d A A A A A A b G T v.c.",
"P M n 0 H H b 7 9 , X $ .   ; ; h [.].| X b M g 9 9 p 9 0 0 0 b P P H N G s A A A A A A A G @.D.F.-.",
"P n 5 o 7 6 & & ; 2 5 5 &   = 2 o o. X[.#.a 9 9 0 d d G b A A A S P H P A A A A A A A S A ^ F.U.>.B ",
"b > $ o 5 & 5 5 5 5 2 = #   @ * $ # C.[.H.#.f b b G A G G A A A A P P H A A A A A A A S / t.A.y.Y M ",
"> $ $ X 5 5 5 5 5 2 = - # X % @ $ $ &.b.P.I.e.! J G G A A A A A S P P P H A A A A K -.k.Q.L.>.J 9 A ",
"X - $ X > 5 > 5 2 = - $ $ 2 & = % . & ..0.K.{.W.z.&.A A A G b b P P S S P P S H U M.J.J.d.-.A p s S ",
"  - - . - 5 5 5 = * $ X 2 2 - * + t h $ w Q 5.s.F.<.b G G @.&.) :.y.{ 5.i.r.w.{ T 1.' T Y M 9 9 A A ",
"X - - - # o ; 5 ; + $ ; w * * # t ....x -   0 b T G A b L C.).H.Q._.H.Q.E.(.m.' A s b S B P 9 s A A ",
"6 $ - - - # # X $ * * * $ $ $ i ........c y 8 b G A b G K -.4.4.,.%.$.O.%.:.R H H S A H Y n p A A A ",
"b 6 o X - - - - O       O w j ............z , G A A G M N N N M b 0 A H H P I I P P P S I S s A A A ",
"b b g 6 > > > > > %   e j ................i > G A A H P P P S A 0 A P P Y V V N I Y P H P H d A A A ",
"G G b G A b A b A , O w j c ..........x w $   6 H P P P P S s s A P P V Z N b 9 0 N B P P H A A A A ",
"b G G b A G A A A > e w $ & u u u u y $ @ q t > P P P H A s s A P P Y B b s p s p 0 N B P P A A A A ",
"G b G G A A A A 9 : w e > n 9 3 5 9 b > * q * 3 P H H H S s A P P N N b s d d A A A G N P P H A A A ",
"G b G G b G A A s *.f : b H d p p 0 A 6 @ 2 % v P H H H S d S P P P s A A A A A G A A H P P P P H H ",
"P P P H b G G b f :.>.d S H A d s 9 p 6 p *.J b P H P P A A S P P S A A A A A S b A A H P P P H P P ",
"P P H H H P H 7 3 J G H H P H H H A A 9 d -.p n P P P H H P H P P P A A A A A A A G A G P P H P P P ",
"H H H H H H M 5 r 3 M P N P P P P P P b 9 W < b P P P H P P P S P P P S S A A A A A A H P H H P P P ",
"P P P P N V n 3 1 m Z Z Z Z Z Z Z V I P 9 < : b P P P H P P P P H H H P P P P H H H H P P H H P P P ",
"P P I V Z V v f d 9 H H P M N N N B V Z v ^ *.8 v P P P H P P P P P H H H H H P P H H P H H H H H H ",
"P P I P H b 5 3 E 1 3 s p 9 p p p 0 b N v J D a r 8 P P P H P P P P P P P H S S H G M H H H P P P P "
};
