/* XPM */
static char *output_onlinegiftools_5__dragged__resized[] = {
/* columns rows colors chars-per-pixel */
"50 50 72 1 ",
"  c None",
". c #DA4F15",
"X c #DB5315",
"o c #DE5917",
"O c #E05B17",
"+ c #E25E18",
"@ c #DD6418",
"# c #DF6819",
"$ c #DF701A",
"% c #E56419",
"& c #E8671A",
"* c #E56A1A",
"= c #EA6B1B",
"- c #E4741B",
"; c #ED731D",
": c #E07A1C",
"> c #ED7C1E",
", c #F0761E",
"< c #F37C1F",
"1 c #F57F20",
"2 c #E5831E",
"3 c #EC831F",
"4 c #E38B1F",
"5 c #EB891F",
"6 c #F1811F",
"7 c #E3911F",
"8 c #ED8C20",
"9 c #F58320",
"0 c #F98621",
"q c #F48B21",
"w c #FB8B22",
"e c #E59420",
"r c #EC9421",
"t c #E69E21",
"y c #EC9B22",
"u c #F49322",
"i c #FA9323",
"p c #F49C23",
"a c #FA9B24",
"s c #E6A222",
"d c #EBA523",
"f c #E7AE24",
"g c #EBAC24",
"h c #F4A324",
"j c #F9A225",
"k c #F4AB26",
"l c #F9AC26",
"z c #EAB425",
"x c #EBBB26",
"c c #F5B327",
"v c #F8B227",
"b c #F2B927",
"n c #F7B728",
"m c #F8B628",
"M c #F7BE29",
"N c #F8BB28",
"B c #EDC127",
"V c #EDC328",
"C c #EECC29",
"Z c #F6C429",
"A c #F8C329",
"S c #F6CB2A",
"D c #EDD32A",
"F c #EEDB2B",
"G c #F6D32B",
"H c #F5DB2C",
"J c #EFE02C",
"K c #F5E42D",
"L c #F4EB2E",
"P c #F4F22F",
"I c #F4F530",
"U c #F3FE31",
/* pixels */
"                     X                            ",
"                       k*  P                      ",
"                  47 o*SZ3yF                      ",
"                lZ<<ihVK Z-                       ",
"                  ;qN     *.X     X               ",
"                  *<=p   L8$zy@X&*                ",
"           .  PVZj6=*wG  ULF PZy0;o               ",
"          CzzfIUUSl<<wlN    UU La>o               ",
"         eKHAGULUPjwlawwiNGLZA  Ha:X Xo$7         ",
"      #.$PGillmaZUGSV-=9;9wSAwNUUMk- fezFJx       ",
"      s.2Su0la<wA  y*XX&%=<amwwMIKl8 qq*VI7       ",
"      X@zp<00,&i   lhr,,,<<,9j-9vS i&pq-zz        ",
"       &q0;&;<,iLUGaZp,;=O&;,q%=0mINqlp+*%>       ",
"       .2v;X+;0aSUIZ6OXohy%&&<,X1SU wGH90qq       ",
"      +&uS<X+1wSPUUc%Xo,pZp>XO=O;axFvaZMcHN<0     ",
"   XXXph<w;X=9jLUUb-+=;<O&>q+XX;,=XeKa<jSLc0<     ",
"  o*5$Cpal6ru1jGIUk;&%&XXX+O=oo>O&,qSiawwq*;;X    ",
"  %uZubGK ZKG<0GULq=Oq<X.O<+-d#&XO9waaKNi1<%+=82  ",
"  hLAiLUHjSlKh9aIc%X&hqOX;<o*uo%%;wwaiGlSGjq;0<o  ",
"  AUGHPZiiamcawNKq&%=ic>90<%<MtoO,wili99imHHmq&.X ",
"X3L  UNa<kGN0wwvZy&XX;Gmma1=AUG<=<wlKko&0wlLUl<oX ",
"8SU  AwlVpi><00jam0%.oqpa;&qLPmwwwwlAqo%0wwGUHir@ ",
"iHU USp>Zr%-@&&1wZv9oXoo&%=wlGZ00waGc*.%0waK Pl9%X",
"wG  Lzp;<;%$>eX=0lKj;&=%X;wiALNalmHIqO.&0wwa  LAp:",
"aG zLKM39a3%9k;>90kMali00jiiAIILIUUHi%X&wwwaL UGi*",
"q  d Mp%<Gf%uZg%>00iavSHGLGHLL   ISHk%Xevw0iSUUPd*",
"9  aSv<*,GKanLH==&oo&=yzI   U   GZic-ooqiwwiK  Gay",
" v  li&=jLHipHS*+X.o%;e*tFU    Im9pp0>=00wwM  ULi<",
" KU Hi*&0SGlaii;>>>k;o*>cVCvZLK h=;hMa0wallH IHp= ",
" v  UG*+9ip6wwiMKlie;%o#-;<lavHUvw0lKSaiNU   l9O  ",
" h   Z3o=0kzewKULv;=9acZp81ilANLHiw1hK L   UKa;;  ",
" #ZU  Lu=<ak;a UZe90jNpi<i9=;jwlIGikqlGGLLLSNb%%X ",
" OhP  La&o;,uK Im;<0jAvvZLl9o=;pvAvKS066aaaiji&.  ",
" O0H  UKb%X+iKUSju%<aLU UULM<%+hlGHja;XX=90wjw6O  ",
"  dFIUUUUZkhvUUIHGq<lGGGUULjw9o<iAKj9+XXXX=ij0<X  ",
"   zAGSIIUUISH Kijwqdliilvva00==jlGZ>XXo>*<SG<+   ",
"   FkiiGGGUHhHUNww0>Cj0<<w0jiw<;jlLGw;,uGlavZrXX  ",
"    @9aKlaMa1hLk,<wcLv0o&90ji0=9aNPKjajMHl0aZr+   ",
"     uqmivZj1;pa&*6iSS0=,30<<0,0jK jAAivGjlSj0    ",
"      ;q0;,ww%#d0&%%99289u;%<0waGP  w0jK  Pj0<    ",
"       y%X=;,+Xhj0<O&=oe*&10waiSUUU  ZIU SN00     ",
"           X++*SHaw>,<=,==aSmLKU UU  Svka=&<      ",
"           XX==cIPSj0<0099iMZMUUUU   Mq%OXX       ",
"            X++2ZL  NaaaiwwaGHUUU    Pb           ",
"             %;X=jL  IPPHvSIUUU   xH 3            ",
"             ;c<=iA  U  UUUU     z0ld<            ",
"              kNawHU            USi000            ",
"                liZGLU        UZva0               ",
"                 jlNZLPGUUUUU Hl0w                ",
"                    lllivAP                       "
};
