/* XPM */
static char *__resized[] = {
/* columns rows colors chars-per-pixel */
"50 43 142 2 ",
"   c #0A0608",
".  c #0C0C0D",
"X  c #120E0C",
"o  c #15100E",
"O  c #1E140D",
"+  c #0E0E12",
"@  c #120E12",
"#  c #180E14",
"$  c #110F18",
"%  c #0F1011",
"&  c #141314",
"*  c #1B1513",
"=  c #1E1815",
"-  c #15151A",
";  c #1A161B",
":  c #17181C",
">  c #1C191B",
",  c #211714",
"<  c #231A15",
"1  c #2B1D15",
"2  c #24151B",
"3  c #28171E",
"4  c #241D1B",
"5  c #2D1C1C",
"6  c #331E1D",
"7  c #2F2017",
"8  c #26211E",
"9  c #2D201B",
"0  c #322016",
"q  c #35251E",
"w  c #3A261D",
"e  c #3D291E",
"r  c #1A1721",
"t  c #171822",
"y  c #1A1B24",
"u  c #1C1C29",
"i  c #201E24",
"p  c #2C1B22",
"a  c #301B22",
"s  c #361F28",
"d  c #1E2125",
"f  c #222224",
"g  c #2C2A27",
"h  c #22242A",
"j  c #24282D",
"k  c #372621",
"l  c #392720",
"z  c #3D2920",
"x  c #332F28",
"c  c #3A2A29",
"v  c #262437",
"b  c #272B31",
"n  c #292D34",
"m  c #2B2C3B",
"M  c #2D313A",
"N  c #402517",
"B  c #432C1E",
"V  c #492E1D",
"C  c #4C311F",
"Z  c #54341F",
"A  c #5A371F",
"S  c #5D381F",
"D  c #62391D",
"F  c #402620",
"G  c #452E21",
"H  c #482F21",
"J  c #43262B",
"K  c #473021",
"L  c #4C3221",
"P  c #423329",
"I  c #49352C",
"U  c #523521",
"Y  c #583720",
"T  c #5B3922",
"R  c #50372B",
"E  c #54392B",
"W  c #583B2A",
"Q  c #4A3632",
"!  c #4D3934",
"~  c #513E35",
"^  c #5A3D33",
"/  c #524222",
"(  c #5A4234",
")  c #50403B",
"_  c #5B453E",
"`  c #634736",
"'  c #61483A",
"]  c #64513E",
"[  c #7E6330",
"{  c #343B43",
"}  c #383E46",
"|  c #3B4148",
" . c #4F4045",
".. c #594A4B",
"X. c #564A54",
"o. c #564E5E",
"O. c #5B4E5A",
"+. c #614D44",
"@. c #604E49",
"#. c #64524C",
"$. c #6E564B",
"%. c #74524C",
"&. c #775D4E",
"*. c #6A5953",
"=. c #63545B",
"-. c #755850",
";. c #73605A",
":. c #78655F",
">. c #5E5463",
",. c #575D63",
"<. c #505B7A",
"1. c #635C6A",
"2. c #62686F",
"3. c #7A6761",
"4. c #796975",
"5. c #856934",
"6. c #80675C",
"7. c #A47C72",
"8. c #A87A70",
"9. c #90817C",
"0. c #77758F",
"q. c #7A7589",
"w. c #717A8E",
"e. c #7D7B94",
"r. c #73759B",
"t. c #777BA5",
"y. c #938582",
"u. c #958A8C",
"i. c #8C8493",
"p. c #818898",
"a. c #8D899C",
"s. c #948B92",
"d. c #8C89A4",
"f. c #9191AB",
"g. c #8589B2",
"h. c #9494B3",
"j. c #9599BD",
"k. c #D6AD9C",
"l. c #929FC8",
"z. c #9FA4C6",
"x. c #99A7CB",
"c. c #A5ABD3",
/* pixels */
"U G z G G G G G G G K G G K G G K B B I #.*.P G L U U L L U U U Y D D D A L z z w c q.c.h.) Z U L L ",
"L L K G G G G G G K G G G G G C B I +.a.j.e.R K K L U L U U D D D A Z G z w w z z K Q  .>.I C U L U ",
"L U U L G G G G G G G G G G G B ( s.z.t.X.I K G L L L L U D D U G e k q z z G G G G K B G K L U L L ",
"L L U U L K G G G G G G G G K ..f.g.O.I B K z K L U L L D D G z q k q z G G G K G G G K K L L U U U ",
"L L L U U U L K G G G G G G P 0.r.! B G K G K K U U L U T A k q k q z G G G H G K G K G G K U L L U ",
"U U L L L U U L L K G G G G H  .I B K G G G L U U L L U Y A k q q z G G G G G G G G K K L L L L Z U ",
"L L L U L L U U U L L H G G G G K G G K K L U U H z G L U U G q z G G G G G G G G K K L U L L A D U ",
"G K L L U L K L L U U C ( R L H K K K L U U U L z z z L U U U L c G G G G H G G G K L U U L U S S U ",
"K G G K L U K G L L C ' y.#.U L U U U U U L G G L L L L L U U U U L H H G G G H H U U U U H U D S L ",
"G G G G L U L U L U U 9.c.O.L L U U U H G G H U U U U U Y U L L U U U L H H L L Y U U U H H U D S L ",
"G G G G K L U U A A A :.4.W U U H G G l G H U U U A S D S A S U L H H U U U U U U U U H L U U D A L ",
"K G G G L U L U A D D D D D A U L z q z H U U U S D D Z B G C U U U H G U U U U U U G H U U U D Z K ",
"G G K G K L L U D D A B G V A U U H l z L U U D D A G q q q l G U U L G H H H L H G z F U U U T U K ",
"G G G G L L U S D C k 0 5 9 w C U U G z U U S D Z z k l G G G G L U L G z H L U L U L L H U U Y L K ",
"G G K G L L U D C k < , = , O 7 B U G e L U Y U z q z G G G G G H U U H H U U Y Y Y U U U H U U L K ",
"G G G G L L S S e 0 * 8 8 8 4 = X 1 B G L U U z q z G G G G G G H H U L U U T D D D D T U U H U K B ",
"K K K K U U S C k w 7 < = & & 5 J 6 < N L U U V k z K z K K z K G H U U U T D D S A A S S U H U H G ",
"K z K K L U A K k e e < & * * %.8.-.X 0 U Z U U K L V V V w w z B H L L Z D S L G l l B U U U H H G ",
"K z K z L U Z e w K 7 , 8 = p 7.k.) X , e C C C C B e e 1 6 I w , w V L D S H l q k q k z U U L H H ",
"K K K K U U C e z z < o . & L ^ ] = . & o < 1 7 7 = < < = * , 6 a a N V Z Z e q k w l G G H L L L G ",
"K K B L Z L C q 0 7 * * & . / 5.[ g j : + & > > 4 : : : : % . @ 5 B U U w w 6 q z G G G G H L L L P ",
"K L L U C e 7 = o * = - &   d x g { { u % . & * - & : * - X o 7 C B B V w 6 q q e G G G G G L U L L ",
"U U U L C 7 - > 4 = * % . @ ; ; - M M % : % 1 0 7 < < , , , 1 K U U C Z C 6 q B 1 w V G G G H U U U ",
"U L U U Z e = * : > > > # p 2 2 & M u % & 1 B e k w k z z z z z L A C Z V e G G q e G G G G H U U U ",
"U U U U U U V 7 * & - : % .   ; d d - & * q k q z z G G G G G G L U L L G G G G G G G G G H U S S U ",
"U U U U Y U U L B 0 = * . o & + y $ . X 1 k z G G K K G G G G G H U L U L G G G G G G H L Z D S Z Z ",
"L K L L U U U U C V w 7 o > 4 * .   + & q z G G G G K G G G G G H U U L L G G G G H L U U D A G z e ",
"K K K K U U U U B 1 < * . & & - + $ @ & e G G G G G G G G G G G L U L L U L L K L U U L A S e k e *.",
"z K K z K K U V < = ; & * ; # * @ # # * e K G K G K G G G G K L U U L G L U U U L L G L S Z q w ..u.",
"K K K K K K K 7 ; - & = 4 = & % y i @ @ 7 G G G G G G K G K L U U U H l e G L L G z z U T L c o.a.*.",
"K K B V B e 7 o & . & > ; & & - { { j & = B G G G G K K L U U U U L z l G H L L L H G L T =.r.t.@.G ",
"z K w 7 7 = : * & % o . . d u b } } } n & w G G K G K L L U U U G e G L U U Y Y Y U L L &.s.1.~ G G ",
"K q < = > : : & % . - t t d.l.<.{ { { } h 0 G G G L L U U U L G l G U U Y S S Y Y T U L ` ' e B G G ",
"7 = > > - & % + $ + u v m ,.p.x.w.| } } { 8 B K L L U U U H z l G U U A D Z B w e Z A U U C z G G G ",
"O : : : * @ - : + + $ u M { M ,.2.} b h : & q L U U U L G l w G U U S S G q k k k z A U U U G G G G ",
". : * < w 6 * & X t t $ & f h f y = + @ u u 1 Z U L L L H l G L U Z Z B w z z G G z G A U U L L G H ",
". : = e V K z q 5 ; r < B B q 1 q 9 & u u & w A L L L U G w L E E R P c P H G K K G G L U U U U U L ",
". * e L L V K w +._ 6 e U H G B k w = ; c 5 C U U L U U G G ( i.h.d.6.#.L G K G G G G L U U U L U U ",
"o O C L U U V 0 ~ +.G G L U L L L L w k $.P V U U U U L U U ^ ;.3.:.-.@.G G G G G G G L U L L L U U ",
"7 O C C K L w 8 5 V C U A U U U U U C w _ 9 C U U U U L U U L V V U L L K K G G G G G L U L U U U U ",
"C N U Z Z Z 6 p N D D D D D D D S A A N 5 * B U U U U U U U U L H L U U U U U L L L L U U L L U U U ",
"U U A S D Z w c w L L U L Z Z U A S S V Q ~ 1 B U U U U L U U U U U L L L L U L U L U L L L L L L L ",
"U U S Z V e 3 c a 1 l k k q q k w w B e I ! s p e U U U U L U U U U U U L L L H L K L L L L U U U U "
};
