/* XPM */
static char *pngtree_you_win_game_interface_creative_design_png_image_2974563_removebg_preview_resized[] = {
/* columns rows colors chars-per-pixel */
"50 50 116 2 ",
"   c None",
".  c #9897BF",
"X  c #9FA2B8",
"o  c #8B8DC6",
"O  c #8685CC",
"+  c #8E8DCC",
"@  c #928EC6",
"#  c #908FC9",
"$  c #8F90C7",
"%  c #9697C0",
"&  c #9893C6",
"*  c #9B9BC7",
"=  c #9494CC",
"-  c #9894C9",
";  c #9A9ACC",
":  c #8586D3",
">  c #8C8CD4",
",  c #8D8BDC",
"<  c #908FD4",
"1  c #918EDB",
"2  c #8E90D3",
"3  c #8E90DB",
"4  c #9392D3",
"5  c #9A95D5",
"6  c #9398D1",
"7  c #9B9BD5",
"8  c #9394DC",
"9  c #9A96DD",
"0  c #9798DF",
"q  c #9C9BDB",
"w  c #A19ECD",
"e  c #A09DD6",
"r  c #A29FDB",
"t  c #9EA0CD",
"y  c #9FA0D4",
"u  c #9FA5DC",
"i  c #A2A3CB",
"p  c #A3A3D4",
"a  c #A6A8D1",
"s  c #AAACD4",
"d  c #A3A3DC",
"f  c #A8A6DA",
"g  c #A5A9DC",
"h  c #ADAFDB",
"j  c #B3AED6",
"k  c #B0AEDA",
"l  c #B3B1DB",
"z  c #BBBADB",
"x  c #8E8DE3",
"c  c #8C8EEA",
"v  c #928EE3",
"b  c #928FEB",
"n  c #8E90E3",
"m  c #9493E4",
"M  c #9995E3",
"N  c #9699E3",
"B  c #9C9AE2",
"V  c #9493EC",
"C  c #9995EC",
"Z  c #9799EB",
"A  c #9B9BEC",
"S  c #8F8FF8",
"D  c #948EF1",
"F  c #8E91F2",
"G  c #9594F3",
"H  c #9A95F4",
"J  c #9699F4",
"K  c #9B9AF4",
"L  c #9594FA",
"P  c #9A96FC",
"I  c #9699FC",
"U  c #9C9AFC",
"Y  c #A29DE4",
"T  c #A09DEB",
"R  c #A19DF6",
"E  c #A19CFC",
"W  c #9DA1E5",
"Q  c #9DA0F5",
"!  c #9FA3FD",
"~  c #A3A3E3",
"^  c #ABABE4",
"/  c #A3A4EC",
"(  c #A9A6EA",
")  c #A5A9ED",
"_  c #ABABEB",
"`  c #B2AFE2",
"'  c #B1ADEA",
"]  c #AEB0EE",
"[  c #B3B3EA",
"{  c #B6B8EC",
"}  c #BEBEEF",
"|  c #A3A3F4",
" . c #A8A6F3",
".. c #A7AAF3",
"X. c #ACACF4",
"o. c #A3A3FC",
"O. c #A8A5FE",
"+. c #A5A8F9",
"@. c #ABADFB",
"#. c #B1AFFE",
"$. c #ADB2F4",
"%. c #AEB0FC",
"&. c #B2B4F3",
"*. c #B6B9F3",
"=. c #BBBCF5",
"-. c #B4B5FC",
";. c #B6BAFB",
":. c #BABCFC",
">. c #BEC2FD",
",. c #C5C4E6",
"<. c #C4C7F4",
"1. c #C6C9F3",
"2. c #C0C1FD",
"3. c #C3C8FF",
"4. c #C9CCFF",
"5. c #D3D9FE",
/* pixels */
"                                                                                                    ",
"                                                                                                    ",
"  w = > 3 , 3 3 > 4 1 < 4 = l                                         s p   ~ 4 4 3 3 8 0 8 > o - j ",
"  # > m F G F G G V C C 1 O d                                         = = } ] 0 3 n Z A V C 8 4 e   ",
"    4 , K I S S I U L H H m M ^                                     d = 7 1.*.N N +.! +...W 2 ;     ",
"    ^ 4 : c Q %.%.o.U U U P C (                                     q 2 8 1.2...W @.%.@.%.) y s     ",
"        o 0 $.3.%.K L U U P b m d                                 d 0 m m >.>.@.! Q ! +..._ ]       ",
"            >.$.Z n H U P U K , 6                                 ~ A J N ..-.o.J V V Z A &.        ",
"            &.B n G Q U L L E 8 o i                             7 q Q Q V ! ! I L H C v 8           ",
"            7 2 Z ! I L F G K B = %                             8 8 Z Z J I U P P U A 1 =           ",
"            + : Z K c V K  ...] h s                           ( 8 m K I I I P P H H A r p           ",
"            7 0 +.| Q +.;.  $.      X                         M C K I I I U U P H R ~ `             ",
"            [ ( ..-.-.;.-./ 8       % i                     ~ b G P I I U P P L H M '               ",
"              ^ B  .X. .K m 2 g     e @ &                   M V I U I I E U P L b 9                 ",
"                e 1 C G J J N ~     ` @ w                 B x G I I I I U U E H 1 ~                 ",
"                ` < M A I U F N         z               &.A v K I U U U I U R C 1 {                 ",
"                  7 8 A P I G m         ,.              ( A H I J I ! I I I V m ~                   ",
"                    q m V P J N ~     l k j             / K K K F J I I ! F , 0                     ",
"                    ^ m V K V m ~   :.d d f i         q M G K K J I I I I V 8 ~                     ",
"                      u 0 Z m N ^   _ 8 B ( 5         4 C H J W @.! I I F 3 W                       ",
"                      ^ 9 8 m (     T , C X.q _     X.V K K Z ..>.+.I J , 9                         ",
"                        d > 4     _ A v | 2.2.M | O.U U U K A ;.5.| F V > '                         ",
"                          + Y     ~ m b | 2.:.m H P P P U K Q :.4.| c n B                           ",
"                          p       q x V  .  ;.C H L I U U P K @.#.E m , *.                          ",
"                                ^ 9 v b W   &.A H P U U U H G R C C M Y                             ",
"                              p 7 Y R , 3   [ N N K P K E K H L H v 9                               ",
"                              w 5 _ -.8 0     u N J K U E R H P H M r                               ",
"                                ~ ( >.^ g     W N V K o.E E R H M Y                                 ",
"                                ` 9 =.{ h     W 8 x K O.O.E E R 1                                   ",
"                                  ` r {         u 8 C O.O.H b v _                                   ",
"                                    4 ~ =.        ) K O.E H v Y                                     ",
"                                    5 9 q d       ..C D D b M Y                                     ",
"                                    Y M 1 < 6     | V L E H M f                                     ",
"                                    M M M M N     +.L P H H M f                                     ",
"                                    1 D H H A &.;.| G L L b 9 s                                     ",
"                                    Y R P H x @.-.| L P E H 9 a                                     ",
"                                    Y C L L J %.;.o.L P E H M i                                     ",
"                                    Y b D J E ;.&.| D P P H 8 w                                     ",
"                                    r C b D J   ;.| J U P L M e                                     ",
"                                    ^ ( R H A     X.K U E P C r                                     ",
"                                    [ -.#.O.Q :.>.X.K L P L C d                                     ",
"                                    f  .R K C X.>.X.H L P H M d                                     ",
"                                    5 M C V b / ;.X.H G P H M d                                     ",
"                                    5 M H R K / *.%.H D H R M f                                     ",
"                                    5 N H H K A   -.K L K A 9 p                                     ",
"                                    7 M C K G K &.-.K V A m 4 p                                     ",
"                                    ; 2 8 m C v | #.| M 9 6 = t                                     ",
"                                    i ; = 4 8 q X.-.( r f t *                                       ",
"                                                                                                    ",
"                                                                                                    "
};
