/* XPM */
static char *pngtree_you_win_game_interface_creative_design_png_image_2974563_removebg_preview__2__resized[] = {
/* columns rows colors chars-per-pixel */
"50 50 112 2 ",
"   c None",
".  c #8E8EBF",
"X  c #9595B1",
"o  c #9798BD",
"O  c #A6A5BA",
"+  c #8C8CC4",
"@  c #8987CA",
"#  c #8D8CCB",
"$  c #928FC6",
"%  c #918DCF",
"&  c #9797C4",
"*  c #9393CD",
"=  c #9599CB",
"-  c #9B9CCD",
";  c #8E8CD4",
":  c #8E8CDB",
">  c #908ED5",
",  c #918EDC",
"<  c #8F91D5",
"1  c #9493D5",
"2  c #9895D5",
"3  c #9499D4",
"4  c #9B9AD4",
"5  c #9493DB",
"6  c #9895DD",
"7  c #9599DC",
"8  c #9C9CDC",
"9  c #A09ED6",
"0  c #A39FDC",
"q  c #9FA2CE",
"w  c #9DA1DE",
"e  c #A0A2CF",
"r  c #B5B4CE",
"t  c #A3A2D6",
"y  c #AEADD7",
"u  c #A3A2DD",
"i  c #ABA7DF",
"p  c #A5A9DA",
"a  c #A8AADF",
"s  c #B1B1D6",
"d  c #B3B2DD",
"f  c #8F8DE4",
"g  c #8E8FE9",
"h  c #938FE3",
"j  c #928FEA",
"k  c #8E94E3",
"l  c #8F93E9",
"z  c #9493E4",
"x  c #9996E4",
"c  c #969BE5",
"v  c #9B9AE4",
"b  c #9593EC",
"n  c #9996EC",
"m  c #969AEC",
"M  c #9B9BEC",
"N  c #968EFD",
"B  c #9594F4",
"V  c #9996F3",
"C  c #9699F4",
"Z  c #9A9AF4",
"A  c #9695FA",
"S  c #9A96FB",
"D  c #9699FB",
"F  c #9B9AFC",
"G  c #A19EE4",
"H  c #A19EEC",
"J  c #A39FF2",
"K  c #A09DFC",
"L  c #9FA1E4",
"P  c #9DA2EB",
"I  c #9EA1F7",
"U  c #9FA0F9",
"Y  c #A5A4E4",
"T  c #A7A8E4",
"R  c #ACABE4",
"E  c #A4A3EB",
"W  c #A9A6EA",
"Q  c #A6A8EC",
"!  c #ACABEC",
"~  c #B0ABE6",
"^  c #B2AEED",
"/  c #ADB4E8",
"(  c #B3B0E5",
")  c #B9B6E6",
"_  c #B3B3EC",
"`  c #BABBEC",
"'  c #A4A2F3",
"]  c #AAA7F0",
"[  c #A7A9F6",
"{  c #ADACF5",
"}  c #A3A3FB",
"|  c #A9A5FB",
" . c #ABAAFB",
".. c #B1AEF3",
"X. c #B1AEFB",
"o. c #AFB2F7",
"O. c #ADB0F9",
"+. c #B4B3F4",
"@. c #BCBAF5",
"#. c #B4B4FB",
"$. c #BAB5FB",
"%. c #B7B9FD",
"&. c #BDBCFD",
"*. c #C1BEFE",
"=. c #BFC0EB",
"-. c #BEC2F5",
";. c #BEC1FD",
":. c #C2C4F4",
">. c #CBCAF5",
",. c #C2C3FD",
"<. c #C9C5FC",
"1. c #C5C8FF",
/* pixels */
"                                                                                                    ",
"                                                                                                    ",
"      O X o e - $ * 2 4 1 # &                                   & * < 5 5 7 7 5 2 * * y             ",
"      r s =.>.@.v z z n n 1 *                                   * 5 m n l b l m b x # i             ",
"        >.,.+.' Z Z K K A j >                                   * m C A F D D D Z n , ~             ",
"        _ E n j A F K K S j 5                                   2 Z C C F D D D F n , ^             ",
"        T H b A F F K } F b 5                                   7 C D C D D S S D C h ^             ",
"        W M S S F F K F V z 4                                   5 b C [ C D S S F S j ..            ",
"        G n V S F F K Z n M Y                                   > x J %.E M C S K V j ^             ",
"        W V N S K } I C n .._                                   1 x {   p v V Z K H x ^             ",
"        $.| S S F } } n J *.*.                                  2 v #.  p v B Z V V h ^             ",
"        &.| V A C F Z B J *.@.                                  , 5 X.  p c V A S V z ..            ",
"        $.| n V F Z B B J X.W                                   > ; !     x A D S V h ..            ",
"          ! n b Z F Z F S z 5                                   + #       z B D S V z +.            ",
"          ! 5 V } K F Z S b 6                                 - + -       5 l l C C b #.            ",
"            > b F K F F S b ,                                             W c l m C b  .            ",
"            8 M F F } F S j 6                                         y     [ m c C l O.            ",
"            2 z B } } K K n 6                                     R * + u   #.P c m g O.            ",
"            a z j F K F S b 6                                   t 1 , h M #.{ P P m g  .            ",
"              { b Z K S S b 6                                   * h F S V F K M c c l #.            ",
"              &.M Z Z A S j 6                                 e 3 n F S N S F Z c c z #.            ",
"              +.c M C C K | ]                                 q 7 B D S N N K K m c c +.            ",
"        +     o.z Z C C K X.{                                   5 b N N K K C j l k 5 +.            ",
"        * 4    .M V C S K J G                                   3 n S K K | x 5 v v : +.            ",
"        > 4 ;.| Z V Z F S Z ,                                   3 m C D D O.R     ! , +.            ",
"        # 5 &.} V A C F S n >                                   7 m C D B         ! : ^             ",
"        @ 1   } C C C F S b :                                 = < m C B z {     T v : !             ",
"        # 3   | Z C C Z K n >                                 3 7 P l b m +.@.Y 6 x M $.            ",
"        * u   [ I Z D F S n 5                                 4 7 c l m  .*.W z b Z J $.            ",
"        4 T    .} U D S S V 5                                 8 7 7 k P &.&.M B F V : +.            ",
"        1 8 ;.#.U F S S S n z                                   3 : z %.,.' S A A V h *.            ",
"        % z %.#.M C F S K b 6                                   2 v  .;.O.Z B N V V H               ",
"      4 # 6 #.,.v m Z U F z 5                                   2 H &.&.m C C A C Z '               ",
"      4 > v #.  w z m Z Z n 5                                 2 > G &. .z C D S F V W               ",
"        > M  .  3 7 m Z V V n +.                              2 > v #.Z n D F F Z j 0               ",
"        > x H   3 c Z F S S n ..                              2 5 W #.m Z S S K Z , >               ",
"        2 z H   L E F C S K z W                               6 v $.#.b Z C S S V , 2               ",
"        9 x J   +. .U C F K h 1                             Y 6 E ,.$.z Z D S S n , 9               ",
"        9 5 H X.' I F F F K n 1 u                           G 5 Y :.Y m Z A ' #.| H `               ",
"          % x $.M b D D A C Z z 8 8                       Y 1 v +.` 7 c Z S X.$.] W                 ",
"          4 2 <.| D D D D D K Z n z v                   8 8 > Y 1.+.7 c K |  .' G 0                 ",
"          d T <. .Z D D D F F F S C j b v E Q Q E H M h z v z / -.E v M  . .H 5 2 ~                 ",
"              @.v Z Z D D D F F D D A B b z z z n b B b C M v   ! c m Z | P 1 * i                   ",
"              ) # 5 Z I I D D U F S F } F Z B n V S F K S b P -.E l B B m 1 * p                     ",
"                - < z m I D D D F F D D D F Z D F D D F S B o.,.[ S D B z 1 p                       ",
"                  L 5 k l D B D F D D D Z F F D D D A A A C ;./ P D N j E !                         ",
"                      c c m l D D D D D D F D C b b Z Z n M @.4 ; n j z                             ",
"                          7 < : b A S D D D Z b 5 c Q +...+._ t * *                                 ",
"                              _ G , f z j : : 1 w (         ) d                                     ",
"                                            y y s                                                   "
};
