/* XPM */
static char *pngtree_you_win_game_interface_creative_design_png_image_2974563_removebg_preview__3__resized[] = {
/* columns rows colors chars-per-pixel */
"50 50 104 2 ",
"   c None",
".  c #A5A8B6",
"X  c #A6A9BD",
"o  c #8B8AC3",
"O  c #8B8BCE",
"+  c #908DCB",
"@  c #8F90C1",
"#  c #9796C7",
"$  c #9699C6",
"%  c #9A9AC4",
"&  c #9495CB",
"*  c #9996CB",
"=  c #9C9DCC",
"-  c #8D8CD3",
";  c #8E8CDB",
":  c #918FD3",
">  c #928EDB",
",  c #8C92D3",
"<  c #9494D4",
"1  c #9996D2",
"2  c #979CD3",
"3  c #9B9BD5",
"4  c #9493DC",
"5  c #9994DD",
"6  c #9799DA",
"7  c #9B9BDC",
"8  c #A19EDC",
"9  c #9FA0D3",
"0  c #9EA2DD",
"q  c #A2A4CB",
"w  c #A1A3D4",
"e  c #ACAAD7",
"r  c #A2A2DB",
"t  c #A7A8DD",
"y  c #ABACDD",
"u  c #B7B7DB",
"i  c #8F8EE0",
"p  c #8F8EEB",
"a  c #928EE4",
"s  c #938EEC",
"d  c #8F93EB",
"f  c #9494E4",
"g  c #9996E5",
"h  c #9699E3",
"j  c #9B9AE4",
"k  c #9594EC",
"l  c #9995ED",
"z  c #9798EB",
"x  c #9B9BEC",
"c  c #928EF2",
"v  c #948EF9",
"b  c #9694F3",
"n  c #9996F3",
"m  c #9699F3",
"M  c #9B9AF4",
"N  c #9695FA",
"B  c #9A96FC",
"V  c #9699FB",
"C  c #9B9AFC",
"Z  c #A19EE2",
"A  c #A097F6",
"S  c #A19CF6",
"D  c #A19DFD",
"F  c #9DA0E3",
"G  c #9EA1EC",
"H  c #9EA1F4",
"J  c #A3A3E4",
"K  c #A8A6E4",
"L  c #A5A8E3",
"P  c #ACABE3",
"I  c #A3A3EB",
"U  c #A9A6EC",
"Y  c #A6AAEA",
"T  c #ABABEB",
"R  c #B0AFEE",
"E  c #ADB0ED",
"W  c #B1B2E4",
"Q  c #B7B8E7",
"!  c #B2B2EA",
"~  c #B8B6EB",
"^  c #BCBCEE",
"/  c #A3A3F4",
"(  c #A5A8F1",
")  c #ABACF3",
"_  c #A4A4FB",
"`  c #A9A7FE",
"'  c #A7A8FC",
"]  c #ACACFC",
"[  c #B0AEFB",
"{  c #AEB1F4",
"}  c #AEB0FC",
"|  c #B4B4F4",
" . c #B9BBF6",
".. c #B2B4FC",
"X. c #B8B6FA",
"o. c #B6B8FB",
"O. c #BCBDFD",
"+. c #BDC1F0",
"@. c #BEC0FF",
"#. c #C3C1F5",
"$. c #C1C3FC",
"%. c #C5C8FA",
"&. c #CACBFF",
"*. c #D5D6FF",
/* pixels */
"                                                                                                    ",
"                                                                                                    ",
"                                                                                                    ",
"  * < 7 4 , , , < 1                       8 < 4 f f 5 > +                       .       * < > > + e ",
"  - a z d d m z f -                       O k l n n n k 4 P                     X       < f b n > y ",
"  > d V V V V m z f                     t 4 M B n N C n g 3                             j M M l -   ",
"  j m V V V V d f (                     L x D B C B B C g r                       r r   { H n n :   ",
"  U d V H H d G ..O.                    r _ C B D D B b k K                     r O , U O.H b x 3   ",
"  | f k C M h Y   | w                   6 _ V B B C N b / )                   w O h x z ) H M k r   ",
"    f s n b / %.{ j *                   4 C B V f x x / $.U  .                7 f M m z / M C ; P   ",
"    g k B c _  .j f 4                   - M B m I Y ( O.*.J T                 g M M b M b M B -     ",
"    Z k B n ` R x M > P                 > N V M o.} ' O.X.x j                 f n B B N b N l -     ",
"    K l n A [ / l n f R               y f V V C ..( k _ x k 4                 f N B B M k z f 1     ",
"      k D D C M n n l Z               P x B B B M m N C B n 4 W             P f N B b ( 7 r Y =     ",
"      a D D C C M M n g               U l B V V V V C C B V f P             L a b C z {             ",
"      f c D B n C D M j             %.U l V B H V V V V B b 4 J             J f V H z G             ",
"      j a V b V M m l g             #.) l B B C H V M V C H k 4             7 l C b z G X.W @       ",
"      U i M H ` _ M l g !           #.) n C B C C C V C H ` x ,             : n _ f z | ) 5 &       ",
"      ! > / } ..} H x g P           ^ | l _ B B V V M C _ ] M ; !           ; n M d ( &.Z a r       ",
"        4 / ] ( ] H g g 7         u W  .n C V B V V M C C ' M f L         R a B m x o.@.S a P       ",
"        < g / M } I h h 7         q 9  .M B V N n M M C B B V x 7         U l B k (   / b a         ",
"        2 f z G @.J g g 6         % = $.x b B V m M D C B V B n 4         j b B M @.! k c a         ",
"        t 4 h F   0 6 f - W       $ = %.M M B V / S M A B B B n 4         f b B H @.I l b A         ",
"        P 4 h 0   Y I I 4 T       * 2 %./ B B M ) ..x C D B B B > Q       > B b z ..G l s Z         ",
"          4 6     ( } } G K     ! < 1 O./ M M z     j n D B C D a t       ; C l x { S l a T         ",
"          < 6   L h H / M j     Y > 6 $.] C b h     7 k A B C A a 3     P f M k { ! x n >           ",
"          2 2   0 4 n b M f     I f x $.} _ h 6     7 g B B B C k <     K g k z   Y l l <           ",
"          t 3 +.7 x C B b f     l b M ..' M f 7     1 g A B C B M 4     j g f G   J k l Z           ",
"          W w   6 z B C V f     a v M ] _ l 4 2       5 A A B B S 4  .  6 h h I   j k x T           ",
"                0 g M C B b ....b b M O.] f <         5 n B D B M f )   z f F | E f x / ~           ",
"                J g n D C B _ ' C N F &.( > 3         5 v B B D C z _ ] z f F   ) f x Y             ",
"                Z l C B B B C H B B I $.A > 8         Z s A B B C M C V p h F   / k z h             ",
"              R g M B B B B M V V V ( o.l 4 8         Z s N D B B v v B m z (   M b m x             ",
"              Z l B B B C V V H N V ` ..l j             g n D B B D n D z x   ) k b z J             ",
"              4 k B N N H V C V V B ] ] s g             5 l C v B B M k ; j   / b b g E             ",
"              4 b B B b C M M B V C _ ' s 5             1 g B N B k f J F Y o.x b z 4               ",
"              J b H } H x M V V H B C C k 4             * 5 A D V x {      .) h l x 7               ",
"              J i _ o.( m V C B C V m M l 5               7 n C M H |       ) n n l 2               ",
"              3 4 H ' M V B B C b C b M l U               7 n B B V x h F O.] n B l 7               ",
"                4 H } / B C B C B C m n g                 7 b B B B M k x ..' B C s J               ",
"                < k ] S n B C C C B V f f                 5 s D C B B M x _ D N B b U               ",
"                7 4 [ ( s C B B C V V f 4                 Z l B C B C M M / ` n A s                 ",
"                7 > | R f x B N C V V i 0                   f n C B C V n / ] M n Z                 ",
"                8 5  .^ 8 j S B B N m 4                     j k C B B M m S [ n g Z                 ",
"                  5 ~       ] C B B b f                     7 f M M C B n _ X.Z > K                 ",
"                  < P #.    / B b B z 6                     7 < A l B N D S [ l : K                 ",
"                  W R 7 > a c v c f - r                     e o : g l n n b l > 1                   ",
"                    W 1 : > a a > < #                         % = 8 5 a > 5 5 1 =                   ",
"                                                                                                    ",
"                                                                                                    "
};
