/* XPM */
static char *pngtree_you_win_game_interface_creative_design_png_image_2974563_removebg_preview__4__resized[] = {
/* columns rows colors chars-per-pixel */
"50 50 88 1 ",
"  c None",
". c #8887CD",
"X c #8C8BCC",
"o c #9797C7",
"O c #9799C3",
"+ c #9C9DC5",
"@ c #9594CB",
"# c #9894CD",
"$ c #9B9BCD",
"% c #8F8ED4",
"& c #8E8BDB",
"* c #938ED3",
"= c #918DDB",
"- c #8D91D2",
"; c #8E90D9",
": c #9493D4",
"> c #9997D4",
", c #9C9BD4",
"< c #9492DE",
"1 c #9997DC",
"2 c #9598DC",
"3 c #9C9ADB",
"4 c #A19CDD",
"5 c #9EA1C2",
"6 c #A0A3C5",
"7 c #A2A5C8",
"8 c #A4A5D5",
"9 c #A8A4D6",
"0 c #A6A9D3",
"q c #AAABD5",
"w c #A5A6DA",
"e c #A6A8DA",
"r c #A9AADB",
"t c #B0B4D6",
"y c #B0B2DA",
"u c #8F8EE4",
"i c #928EE3",
"p c #938FEB",
"a c #9493E4",
"s c #9996E4",
"d c #9B9AE1",
"f c #9593EC",
"g c #9895EC",
"h c #9599EC",
"j c #9B9BED",
"k c #938FF0",
"l c #9594F3",
"z c #9996F5",
"x c #9798F4",
"c c #9A9AF4",
"v c #9796FA",
"b c #9996FC",
"n c #979AFC",
"m c #9A9AFC",
"M c #A19FEB",
"N c #A09CFC",
"B c #9FA1F3",
"V c #9FA0F9",
"C c #A3A3E5",
"Z c #A6A8E5",
"A c #AAABE5",
"S c #A4A3EB",
"D c #A8A6EE",
"F c #AAAAEB",
"G c #B4AFE4",
"H c #AFB1E1",
"J c #AFB0ED",
"K c #B3B3ED",
"L c #B8B6EE",
"P c #B5BAEF",
"I c #BABEEA",
"U c #A4A3F3",
"Y c #A8A5F3",
"T c #A9ABF6",
"R c #A4A3FC",
"E c #A7A8FA",
"W c #ACACFC",
"Q c #AEB1FB",
"! c #B4B4F4",
"~ c #B7B8F0",
"^ c #B8B9F2",
"/ c #B4B4FC",
"( c #B9B6F9",
") c #B5B9FE",
"_ c #BCBDFE",
"` c #BDC0FA",
"' c #C2C3FD",
"] c #C7CAFF",
/* pixels */
"                                                  ",
"                                                  ",
"                                                  ",
"           +#@*<<a=<;----;<<<:>0                 q",
"           $*=pzzklllhhhlllvf==4G                r",
"           GGDNNbbmmnnnVnvbbvpiM~                H",
"           9MMNzbbmmmVnnnnvvbpgM                 ^",
"           $#<gzmmmmnnnnnnbbvgsM                 `",
"           $>igbmmmmnnnVnnbnvpaC                 q",
"           ,1sgbbmmmnnnmnnnmvfaC                 +",
"           ,1pkzbbmmVnmnnnbbzpaS!                +",
"           +>sgbbbmmmmVmmmbmvaaS                  ",
"           $3szNmNbbnncnmcccga<C                  ",
"           4dglNmmmzBQ/TBjhhaaaC                  ",
"           3sklbzcghU`])QUBjhddZ                  ",
"           3skkbmmchBQ/QEVcxhu<CL                 ",
"           3MkkmRERNBcmmmvcvhaaCL                 ",
"           ,sgzNRQWEcvxnvcmNcsaCK                 ",
"           4<plNRQWUcmzbmzmmxa<dK                 ",
"           4sikbRWEccmmmmmmccaaSK                 ",
"           4sikbRWTcvmbbbmNcchaS!                 ",
"           41fzmNRmcvvbbbbzmjaaCK                 ",
"           3sfcmmvlvzmbbbbzmca<CL                y",
"           wdscmmcvxmmmlflcYTYD!                 r",
"           ,3acRVnxxhha<sMT__(J!                Zr",
"           >>sMEVBha223AL'`^F>-,r               9e",
"           $,3FQQEVBS^    J4:..,                09",
"           ,,Z!``)QQ``]'!DjsaasCK               0r",
"           $>,C!QTTTTUUYMgkzclgMF               ee",
"           $:>3jchxBjghczkzzzggD!               ee",
"           ,3afhxnnxzmNzzzzzNkgM(               ee",
"           ,3shlcmmnmmmmmNNzzkMM(               rr",
"           33sgcmmmmbmmmbmbmbkgY(               ee",
"           ,1ghzmmNmmbbbbbbbzkpM/               we",
"           ,3ggzmmmmmbbbbbbmzkkM(               8e",
"           ,3sgzmNmmmmmmmmmmbkgU/               80",
"           ,1gglmmmmnbmmmmmmblfM!               qr",
"           >1ahczmmmbnmmbbbmzppM!               00",
"           >1sgcmmmmmmmmNmzzzffS                ++",
"           $1sgccmmnbbnmmmmmviiS!               66",
"           $3sjllccmmnnVVnmxfiuS^               66",
"           4CSUccvvcmmnmmxvxlhaF                65",
"           rK//WRczmnnnmnnmRREE(                77",
"           rL''/TcxcnVmVmvcmRRY!                 t",
"           8F(/WNhhzmmmbnvllffaC                  ",
"           @4CUMhpfmmbbbmcvhfi=ML                 ",
"           5>>safllklbmNzgfi=*:w                  ",
"           6+@@:&&&&&&==****##$0                  ",
"                                                  ",
"                                                  "
};
