/* XPM */
static char *pngtree_you_win_game_interface_creative_design_png_image_2974563_removebg_preview__5__resized[] = {
/* columns rows colors chars-per-pixel */
"50 50 104 2 ",
"   c None",
".  c #8D8CC2",
"X  c #8D8CCC",
"o  c #918DCB",
"O  c #9193C3",
"+  c #9896C4",
"@  c #9A99C5",
"#  c #9293CD",
"$  c #9895C8",
"%  c #9B9BCD",
"&  c #8A87D0",
"*  c #8D8CD4",
"=  c #8C8BDA",
"-  c #918ED5",
";  c #928FDD",
":  c #8E90DC",
">  c #9394D4",
",  c #9895D3",
"<  c #9698D4",
"1  c #9B9AD4",
"2  c #9493DC",
"3  c #9996DB",
"4  c #9798DA",
"5  c #9B9BDC",
"6  c #A19DDC",
"7  c #9FA2CD",
"8  c #9EA1D6",
"9  c #9FA0DC",
"0  c #A1A3CE",
"q  c #A4A5D3",
"w  c #ACAAD5",
"e  c #A3A3DC",
"r  c #A6A8DA",
"t  c #ABABDC",
"y  c #B0B3DB",
"u  c #8E8DE5",
"i  c #928EE4",
"p  c #928FEB",
"a  c #8F92E2",
"s  c #9493E3",
"d  c #9997E5",
"f  c #9799E4",
"g  c #9B9BE4",
"h  c #9594EC",
"j  c #9996EC",
"k  c #9799EB",
"l  c #9A9BEC",
"z  c #958FF2",
"x  c #928EFE",
"c  c #9594F4",
"v  c #9996F3",
"b  c #969AF4",
"n  c #9A9AF4",
"m  c #9696FB",
"M  c #9996FD",
"N  c #9699FC",
"B  c #9A9AFC",
"V  c #A19FEF",
"C  c #A09EF3",
"Z  c #A19EFD",
"A  c #9EA1E4",
"S  c #9EA1E9",
"D  c #9FA1F5",
"F  c #9DA0FA",
"G  c #A3A2E4",
"H  c #A9A4E4",
"J  c #A6A9E3",
"K  c #AAABE3",
"L  c #A3A3EB",
"P  c #A8A6E9",
"I  c #A7ABEB",
"U  c #ACACEB",
"Y  c #B1ABE0",
"T  c #AEB1E1",
"R  c #AFB3EA",
"E  c #B3B2E6",
"W  c #BCBFE6",
"Q  c #B3B4EB",
"!  c #BCB6ED",
"~  c #B7BCEF",
"^  c #B9BAEB",
"/  c #A3A4F3",
"(  c #A6A9F4",
")  c #ABACF3",
"_  c #A4A3FD",
"`  c #A9A6FC",
"'  c #A7A9FB",
"]  c #ACABFD",
"[  c #B2ADF5",
"{  c #B1AEFD",
"}  c #AEB0F3",
"|  c #AFB0FF",
" . c #B3B4F3",
".. c #B3B9F1",
"X. c #B9BBF3",
"o. c #B3B3FC",
"O. c #B9B5FD",
"+. c #B6B9FB",
"@. c #BCBBFC",
"#. c #BEC0F9",
"$. c #C3C4F4",
"%. c #C7C5FF",
"&. c #C6C8F9",
"*. c #CECEFB",
/* pixels */
"                                                                                                    ",
"                                                                                                    ",
"      7 X > > > 3 2 s s 2 - o $                                       + . X # > > * > > > 2 2       ",
"      5 = k k j j v v M v v s , w                                     1 o ; s h h h h c c h = >     ",
"      A s b n n B Z Z M M M v 2 #                                     5 i v v m N N N m N c = X     ",
"      I l F b b v B M x x M c 2 <                                     3 i M M M M M m N N N * X     ",
"      R L ( n n N B M M _ ] ] / V X.                                  3 i M M M M B N N N c a       ",
"      t J ) l k n N n N ` o.| _ g U X.                                3 p v M m B N N N B c s       ",
"      0 K  .f c n n b k n _ / k s P R !                               3 s m M N N N b N N m u       ",
"      0 ^ #.f k F B b b n M b h h /  .K q                             5 i M M m F F b b b c l       ",
"            f h v N N N M M M z h / @.r @                             3 p M M M N N F b B c /       ",
"            L n M m M B M M M Z v j   0 O @                           f h m M M N F N N b h V       ",
"          E | | ] _ Z Z B M M Z v s   r < 1 ^                         4 u N N N N N F N v z g       ",
"          9 / } ] ' Z M M M M M c h     G g g                         A h b b F N N N F v C [       ",
"        Q 3 f k n b b M M M M M c n     ) V * K                       4 a F b b N F N N z { @.      ",
"        g s c b B n N B Z Z Z M N b ] X.) C & 5 E                     4 : b b b N N N N h O.!       ",
"        - h n B B N M B M M M M v u / I V g ; 3 G                     3 s n n b N N N b n +.Y       ",
"        3 h N M N B B B B M v B c p    .V g d v j g                   3 s n B N N N N b ` #.e       ",
"        G s v B B B M B B v N N h h     P V v Z v h P                 g k B B M F B b l +.+.1       ",
"        P s b M M N N m c m b D / L     V v v M M z j                 3 p m M M B N h A   U > .     ",
"        V p v M N N B B N b F |   Q   G s n M M M m h G               3 i m m m B n f A   G X #     ",
"      e h z M M F N N N x c D }     ! K V h M M M B v = r             1 i M M x N b l +.  f : <     ",
"      G v M N B F b F N N c l I       e - v Z M M M b s 8             5 h B c c n k S   } k a 4     ",
"      V z M v n B N N F N c l G       % o j Z M m m N k > r           3 s h i l f s f   l k a g     ",
"      6 p M ` ` _ b c N N c l G       w # ; Z B m m N F : < J         5 s V ] @.+.) [ o.i p ; 3     ",
"      5 s B O.O.] B m N b c k G         Y - i n N m N F h : A         3 ; V #.        ] p z i V     ",
"      5 d C { { _ B N F b b k A           6 ; n B N N F b h 4 G       2 = j [ ) [     ` c v d d     ",
"      6 i C ` ` B m m B S h k S             d p N N N N N b s < E     V z v V > < K O.` Z z ; 3     ",
"      5 i v ] { _ M M B l h l G             G = b B N N N B k * e     g z C k l f L o.` v N i 3     ",
"      5 s j g ` n c B n F n j G               ; h v M N B B n f f L o.n M N c n c n _ _ h n s 3     ",
"      A s n C o.D h B B B h 2 V               Y 2 i B M M B M n n C ` Z M B B Z B B _ ] n n s 2     ",
"      e s l G   I s u a h s j K                 6 2 n M M M M n B v M B M M B B m N _ ' h k 2 5     ",
"      9 s f 5       I ( D k 3 5                   e s c Z M v M B v m M M v B B m N ] o.n k s 4     ",
"      5 : f < T         ( k f 9                     > p M M M M Z M M M B B Z _ M Z ] +./ k : 4     ",
"      5 : 2 K X.X.}   D h s d H                     9 f j v M Z _ M B B B N B N N v _ ( k k > 4     ",
"      8 2 f +...S g k a p v l L                       5 d i M ` ] Z B B B N v b N N B _ k k > 1     ",
"      e 5 S &.U s h h b n b v L                       t 5 s C { { M v M M B N N B B M B k s > <     ",
"      % > ) +.L h b M Z B b v L                         e X d O.O.Z m m B B M M B M N n k 2 <       ",
"      O > @.] n b v B B B v j V                           . 5 #.@.C c z M B B B M M M N l 2         ",
"      % 8 *.) n m M B B B v j G                           q E %.O.j v m M B B M M M M M v f         ",
"      7 t *./ c m M B B B h k G                               $.U j v M B B B M M M B M v f         ",
"      q Q +.l c M B B B b k f e                                 # 3 n B B B B M M M B M v -         ",
"      y @.( k c N B N N N h k G                                 O > v B M B B N B B B N h &         ",
"      #.#.g k v M B N N B b j G                                 q > v M M B M n b B B m h 3         ",
"      $.Q g k n B N N B B v j V                                   < h v M M v n n n b c i )         ",
"      X.V s j B B N m M n n d V                                   5 d v v M M B B _ n k d X.        ",
"      H ; ; h b b b c j d d 1 %                                     1 f j p c n / ] +.+...          ",
"        6 5 f 2 s f 3 3 1 1 @                                         % o - ; 2 2 4 1 8 0           ",
"                                                                                                    ",
"                                                                                                    "
};
