/* XPM */
static char *green_2_resized[] = {
/* columns rows colors chars-per-pixel */
"100 100 14 1 ",
"  c #5F752C",
". c #60762D",
"X c #64792F",
"o c #697C2F",
"O c #677B30",
"+ c #6B7D31",
"@ c #6E8033",
"# c #748435",
"$ c #788736",
"% c #7B8937",
"& c #798738",
"* c #7D8B38",
"= c #808B37",
"- c #818E3A",
/* pixels */
"      .oooo+##+#######******===========*--***%#@@@#$%=%%##@#$%==---------=*=-===*%#@@@@@ooX.        ",
"    ...ooooo+###$*%%$%****==--===-===-==----*%$####%===%$###$$%=---------*==--==%%###@@@@oX         ",
"    ......ooo##=****%**---------------------=-%$##%=----%%$#$$%=----------------%%##@@@@XXXX        ",
"    ... ...oo##$******------------------------%%#$%=----=%%##$%=----------------%%##@@  X    ...    ",
"       ....oo##$********----------------------*%$$%==-----*%$$$%----------------%$##@        X X  X ",
"      ..o.oo###$$$*$****---------------------***#$%=-----=**$#%%----------------%%$@@ @  XX        .",
"       .oo+#######@$#$$*----------------------**$$%=------=*$$%%----------------%%#@@     X      . .",
"        o#+#####$$$$@#$*----------------------**$#%%------*%$%%=----------------=%#@@@@ X    X  ....",
"  .. .XX#####%%%**&####*---------*%**---------**##%*------%%%%**--------------**==%$@@@@  X     XXXX",
"  ... X@@###%%**-**$##&*-------*-%$%*----------*%#%%-----=%%%%*---------------**==$##@@@@XX@@@@@@O@@",
"   ...O@###%**---*&&#$&*------*&$$$%*---------*%##$%*---**%%**----------------**%$##@@@@@@@@@@@@@@@@",
"  .... O+$$%*----**&##$&*-****&&##$%*-------***%$#%%*---**%%*----------------***$$#@ @ @@#@@#####@##",
"@    OO@@#**-----*&#####&&&&&#&##$%*--**------%%###%*---*%**----------**--**@@#$$$@@  @@@###########",
"@ XX   @@$*------*&##@#@&&&#&####$%*****------%$###$*--*%**------------*-***@@###@@@    @@###$$%$$#$",
"@@@   X@#&*-----*&#@@@@@#########$%%%%$*-----**$###$*-**%%------------***$%#@@@@#@@     @@@$%%*=****",
"@@@XX @@@*------*##@@@@@@@##@##@#$$$%##%*-----*$###%*-**%%------------**$$@@@ @@@@@    @X@#$%=--****",
"@@@@@@@@#$*----**%@@@   @@@@@@@@#######$----**$###$$*-****-----*****-****#@@@  @.@.. ...@@#&--------",
"$###@@#@#**-----%$@@@   XXXXXXX@@#####$**---**$###$%--****----******--***#@@    .........@&*--------",
"%%$###@#$$-----*%$@@    .XXXXXX@@@###&$*---***####$*-**$***--***$$**--**#@@@    ... .. .@@&*--------",
"%%%#####$**-----%$#@@@ @.  . ..X@@####**--****$###*****$$**--**$##$*---*#@@@@   .....   @@#**-------",
"==*%####%**-----*$##@@@ X  ..  .X+@##$**----*$##%%=--**$%*---***###$*--*$##@@@ @..... .@ @@@&***----",
"=***%%$%--------**$#@@@@X......XXO@##$**----%$$$%*=---$$%***--*$###$**--$$##@@@@........@@@@&&&*---*",
"==--==%%--------***###@@XXX.. ...O+@#$*----*$$***----**$$#**--**$##&**-**$####@@.....  . @@@###&*&**",
"**=--===----------**$##@@@X.... .X+@#$*---**$#**------*$##%*****$##***--**$###@@. .....   @@@@@@##**",
"%%==---------------***$##@@ . X...O@@&&****$$$**-----***####%%*%$###&**--&&###+O..... .....OOO++@@@#",
"$%=------------------*%##@@  X  ...@@#&&*$$##$*------***$$###$%######***-&&&#@+O.. .........X.XO@@@@",
"##*------------------***@@@   . ..XO@####$$##$*--------*#$#######$#&$&**--&##@+O.  .... . ...... @@@",
"##%*-----------------***#@@ X   ..X@@########$**--------*%$####$&**&$$**-&&###@+@ .. ..... ..... .X.",
"@#$%==----------------**$@@       O+@#######%*----------*****%$%****#&&&&&&###@+O..... ...  .... ..X",
"@##%==-----------------*$#@@      OO@#######%-------------******---&&#&&&&#####@@........ ....... ..",
"@@#$==-------=**-*-----*$@@      OOO@#$####%%*----------------**--*&###@@#@#####@... ....... ... ...",
"@###*=-------*%%***---**$@@@      O@@#&*%%%***--------------------*&&#@+@@@@###@@.. ... ......X..X.X",
"&++-&-----=&+&&&##%%*--&#+OX.... XX@#$**---------------------------*&#@  @@@@###@+X. .......OOOOOO+O",
"++&+------+=&&++###%%%###+o..... X@##**----------------------------*&@@     +@#@@O..... ...OO+@@@@@@",
"&&&------==++&&&######&#+O......XO@#%*=-----------------------------&@@    @++@+OX... ....+@@@@@#@##",
"&&&&-*---++&&+++#+#+##++Oo......X+@#**-----------------------------*&#@@    .XO+X........O+@&&&&&&&&",
"====-&&-+-+*&++++++++++OX......X@@#$%*--------------------------*--*&&+O   ..... OX  ....X@@&&***&**",
"====*-+++++++++++o++OOOOX......O@@##%*--------------------------****&@+O  ......   ......X@#&**-*-**",
"==-=-++OO+++OO.....X..........XO@@#$**--------------------------&&&&#@@+ ......   ...... .@#&*------",
"===&++OXXO++XX. ........ .....o+@###%*--------------------------######@+.  ..... X ... .@X+@#&**----",
"===++++X............ .. .. . .X+@###$$***-----------------*--***&###@#@O........ X  ......XO@&&&----",
"=+===+X........... ............X@@@@##&***----------------*****&######@O. ....... .... ...XO+@##&***",
"+=+++XX.XXX.............. ......Xoo@@@#$**-----------------&$$&####@@OO.............. . ....OO+#&&&&",
"++++++XXOOOOX....... . ... ..... X XO@###*----------------*&&#&###@@OOO....... . .. .... . ..O++@###",
"XXXX+++++#++XX...... . ...  ....   OO@##**--------------**$$#####@@+........X  ........... ....O@@##",
"..XX+++++##++XX....X.... .... ..X  XO@#%*----------------***&####@@+........ ... ..............O+@@#",
"  X+++&+##&+++++OOOO...........  X X@@$%*-----------------*****&##++X.......    .... ...........O+@@",
"  X+&+&=$&##&+++++++OX... ... ..  XO@##%*------------------****$&#@+........X X XXX ...  . ... ..+@@",
" .Xo+&&&**$####+##+##+O... ........X+++&&---------*****--------*&@@+O ...XOOOO OOO++O...     @  .O@@",
".X++#&&*-**&$#$$&####@+OO .. .. ...X++&#%&=-=-%=--**$**------***&&@+X...XO+++OOO@@@@+OO. @      O+@#",
"+++++&&=--***&&****&###+O.........oo++#&##%##%%##$###$**---****$@@OOX .X+@@@@@@+@@@@@@@+@     @@+@@#",
"=++=#&*------**--***&##+O.. ....X.++++++#+######@@#@###$*****$$@+OOX  XX+@@&######&@&@@@@@@  @OO+@@&",
"$$+&&=&------------*&$$++O.....XO+++++++++++#+#+@OO@@@#$#*#####+OX   XXO@#########@@@@@@ @@@@+@@@#&&",
"$=&&&=---------*---**&##+O....XX+++++OOOOOO+++++OXOO@@#######@@+OXXXXXO@@#@@@#@#@#@@+O@@O@@@#@##&&&*",
"====----------***---**##+OX...Xo++++X......XXXXXX  O@@@###@+@#@++O++O+#@#@@+++##@@OOO.OO@######&&&*-",
"====--------**&&**--**##+O....X++++o............   OO@@@@++O+@@@@+@@@@@@@@OOO+@##@O.  OO@@####&&&*--",
"%%%=----------$#$**-**&#@XX..X++++X..................OO++OO.O+###@@@###@@+XX O+#@@O   .O+@###***----",
"#$%%*---------&##$*-*$##@@O.OO@@+o.XX.X...............OOO...O+@@@+@@@@@@+OX  O+@@OO    OO@#&&*----**",
"###%%*-------**&#$%-*$$#@@OO@@@@OXoO++OoX... ...............++++OOOOOOOX.....XO+OO.  .OO@##&*---**&&",
"@###$%--------**$$%--*&#@@@@@@#@++O++++OX.......OXXO.... . O++@+O  OXXXX.... .OOO.. .XO@@#&&*---**&&",
"@###$&---------%$$%--***&##@#####++####+OX....XO++++.......X++++X . ............X....O+@##&*---**&&&",
"#@##$&*--------%#%%---**$&$$$$$#$$&#####OX...XO++##+O......X+##+OXX ........ ... . ..O@@@&&&****&&**",
"+###&*-------=$$##%*-----*********%####+OX...XO+###+OX.....X+##+@OO............. ... XO@@@#&**&&&**-",
"###%**----&%%%%###%*-------*-----*&&###+X.....O+####O......XO++++++O... ..... . ..   XOO@@@####&&&--",
"#$===---**$$$#####$$***----------***##@@O...  +@###@O.........OO++@O......... .........XXXO++@##&**-",
"$$====-=%$$@@@#@@##$%%*----------**$###@OOX.OO+@##@@X...........OO@++X.. ....O.........XXXXO+@##&&*&",
"====---%@@@@@@@@@@@#$$%*--------**&&####@+OOO+#####@.............O+@@O.... OOOO.. .. .XXXXXX+@#%***&",
"$$==-*%%@@@@@@  X@@##$$%****-*--*$######@@@@@@##&&@+O.............+@@@.. ..O+++O.....XXo+OO+@##***&#",
"#%%%%%##@   @  XXX@@@@@$$%##*%$$@#@@@@@#@@@@@##&$&@O............ .O@OO.. XXO@#@oO. .XX+#@@@@#$***&&#",
"###$##@+@    X     @@@@@###@$$#@@@@@@@@@@@+@@###**@+.......XXX...OOOOO..  XO@##@OOXXO+######$***-&&#",
"######@o       .   @ @@@@@@@@@@@OOOOOOXXOOXO+@@&*&@+.....OOOOOXXOOO@OO.. XXO@##@++O++@######$*****&&",
"#@##@++X@  XX@.@@      @@@@@ @ @O.....XX . XO+#&*#@+OO..O@@@@@O@O@@@X...  XO@##@###+####$$$#$$****&&",
"###+@o...Xo@@@@@@ X @    @@   @ XXXX X       @#$$$#@.@ .@@@###@#@@@OO  ...OO@#######$**-*****$$$&&**",
"+##oo. ..o@@##$#@@@             o@+OOXXX @  X@##$$#@@@@@@#########@@OO.... O@@####$$**--**-**$$$&&**",
"#@oo. ..o@@$%%$$@@@           @@@@#@@+OO@@@@@@##*$###########$$*###@@+OOX  O@@###$****--*----***&&&&",
"@@@oo..o@@$%**%$#@@@@ @        @@@#@@@@@@@@###%%*$$###$$*$$#$****$*##@@+OOOO@##$$**----------***&###",
"#@oooooo@#**-=-*$##@@@  @     @@+@@@@oO@@@##%%****$##$$$*$****--*****##@@@@@@#%***--------------&&&#",
"###@@o@@#$*-----$$#@@@@         XO+@@@@O@@#$%*****$$##******--------***##@###****---------------&&&@",
"####@@##%*------**$###@@@@       Xoo@@@O@@#$#%*****$$$*****---------******$****-----------------&&##",
"##$$$$$%**------**$$####@@@@ @  XXO@@@Oo@@@#$#$*--***$*$&***------------*****------------------*&&#&",
"*******---------*-*****###@@@@@ @@@@@@ @@@ @@@#$**-**%$$**-------------------------**-**---*-**%&#&&",
"***-*-----------------**&###@@@@@@@@#@@@ @@  @##*---**$$%**-----------------------***********%*#&#&&",
"*****------***--------**######@@@@@@@@@ @X  @@##**--**%$$%----------------------***###$####$$$##&&--",
"******----*&&&**-----***%####&#&@@@@@@ @O@XXX@#$**--****$$*---------------------**####@@#@######&&&-",
"*$$$&**---*&&#&*--**--**&#&*%*%%##@@    @@ X@@#$*-----**$$%***------------------$$##@@OOo+++####&&&&",
"$$##&**---*&##&&********&#*****%$#@@  @@@O@ @@$**------*%$%%**------------------*$##@@OX.XOO+++###&&",
"@$#$&&----&&####$#$#***$$&*---**#@@  @ @@@ O@@***-----***%$$****----------------*$###oXX...XoO+#@###",
"@@@#&*---**###@@####*##*&*------@@@@  @ @XXO@@$$***--*-***%%****----------------**$##@o ....XoO++@@@",
"@@@@@%%***&###++@@@@@##$&*------*%@@@ @@@@ @@@@@%%$%****%***%%%%-----------------*&$#@++X.   .O.OOOO",
"@@@@@@%%###@@@@@   @@@@#**------%%@@ @       @@@@##@%%%%$%******--*--------------*&&##@++XO. .. ...X",
" @ @@@##@@@@+@ .    @@@$**------%$@@@  @     @ @@@@@$##$#$$*****------------------**&#@@++O... .....",
"   @@@@@@@@@@        @@@***-----$@@@           @@@@@@####$$%****----&--------------*&$$@#@+OO.......",
"  @   @ @ .. @       @@@**------%#@@              @@@##$***%%***-&$$&---------------*&$##@#+OO  ....",
"        ..            @@**------#@@@       @        @##$****%%*%*&$$%%--------------**$$###@+OO.....",
"    @   ...          @@#$**----*@@@ @      @       @@@#%*-**%%$%*&$##$*---------------&$#####+O.....",
"        ...        @ @@@#$*----*@@@    @ @ @@ @   @@@@#%*--*%%$$&$###$*--------------*&&#####+O.....",
"     @       @        @@@%**---**#@@@@@@@@@@@@@@    @@@$%*==-*%$#####$----------------*$$@###+OO....",
"      @@@@         @ @@@#%**----**@@@@@@@@$@@@@@@@ @@@#@%%==-*%%$#$$&&*---------------*$##@@+OO.....",
"    @@@@@@@@@      @@@@@***-----*%@@#@##@@$$@@@@@@@@@@@@%*---***&&$&&**---------------*$##@@O. O. . ",
"     @@@@@@@        @@@@**-*---***%###$#@@$$@@@@@@@@@@@@#**--****&&&**---*-----------**&#@@OO.      "
};
