/* XPM */
static char *Crate_resized[] = {
/* columns rows colors chars-per-pixel */
"50 50 44 1 ",
"  c #020101",
". c #130C07",
"X c #191009",
"o c #23160C",
"O c #25180D",
"+ c #291A0E",
"@ c #3E2613",
"# c #3F2816",
"$ c #442A16",
"% c #492D17",
"& c #452C18",
"* c #4C2F19",
"= c #4E311A",
"- c #52331C",
"; c #58361F",
": c #57381F",
"> c #5C3B21",
", c #623E23",
"< c #664125",
"1 c #6A4327",
"2 c #6D4428",
"3 c #71472A",
"4 c #754A2C",
"5 c #7A4D2E",
"6 c #7F502F",
"7 c #82522F",
"8 c #845330",
"9 c #895732",
"0 c #8C5933",
"q c #935E35",
"w c #966036",
"e c #996237",
"r c #976139",
"t c #9D6438",
"y c #A1673A",
"u c #A56A3B",
"i c #AA6D3D",
"p c #AE703E",
"a c #B0713F",
"s c #AB6F41",
"d c #AF7143",
"f c #B47543",
"g c #B87745",
"h c #B97846",
/* pixels */
"3qagggggahhggaggahhggggggggfggfggggggggggggghhaat4",
"95yfggghhhhhhhhhhhgggggggggggggggggggggggggghahi78",
"aw5tppe1wappapppppppppppppppppapppppppppat,tapy79u",
"hfq5yp< >appppppppppppppppppppppppppppppa, ;ay5quy",
"hhpq6tw:0aaapppppppapppppppppapppppppppiaq;0u70put",
"haiiq5tyutyytuyuyyyuyyyyuyuuyyyyyyyyyyyyyyuy70uput",
"hh<@qw566666666688868778678788888889878788830q$>yy",
"ha&.7y69qwwwe5:=====--======*=--==-;,qqqqq97a0X$yt",
"hhe8it8tp00ahp4<222>25221112<<53,5,,dhpy7iy8gp9tut",
"hhaapt8teX+uphp545525055665534069,7uhdp>.,y6fppaut",
"hhpppe8tu->ipphp545150556455330574uhfpp8@9u8fdppiq",
"happpt8eaiiipppgd541505546553305,shpsippidt6gppput",
"hhpppe8eiipppppags5<595555553475igfpppppiuq7gapauy",
"hhpppt66tupppppidgd449555555316uhpiipppdut77gappiq",
"hhappt6:6tupppppppfd6655555533uhppppppiut7;7gdppit",
"happpe6%=6tuppppppdgd53555535uhppppppiut7=@7gapaut",
"ggppsy9,$=8quppsppppgd536544ugdpppppput8-%,9gdapuy",
"hgppst973$=7typspppppgd4335uhdpppppput8-$,48gappuq",
"hgppst7,5,$=7qssppppppfd63ugppppppdut8-%,548gdppuy",
"ggipiy7577,%=8qspppppppftshfppppsdur8=$59448gdppiq",
"ggipdt7754,5**7rtppppppighppppppdut8;=,98548gdpput",
"hgppdt7,54,94&*7tupppppfgppppppput8-&,,q6548gdpput",
"hfppst7455,q83&=6typppdhpppppppur8;=,5,r6546gdaput",
"hgppst7457,9853&=6tupfgdppppppue8-$,9,,r8548gdpput",
"hgppit8,54288552&=7yfhppppppput7;$,55,,r7547happut",
"ggppiy87542985552=3dgapppppputy4;,7777,97548happut",
"ggipst845419855544uhppppppputuap7,7757,q7448haaaut",
"hgppiy84541885544uhppppppputuppgs7,75,,r7547haipuy",
"gfppiy8,54198535uhppppppaueuppppgd4,54,05547haaput",
"ggpppy875518835shfpppppputupppppdgd445497547gaaput",
"ggppst8,541865uhppppppputuipppppsdfd5,,r7547gapput",
"ggppst9755155uhapppppaue97typpppsssgd7,97547gapput",
"ggpppy7454,8shdsppppput8-=7tysssapppgs577478hdssuy",
"hgppit749,,shfpppppput8-@$*7tysspppppgs744,9hdpfiq",
"gfppiy855,dhspppppaut8-%,,%*7rusppppppgi7,79gfppuy",
"ggppst845uhfappppaut8-$,97,%*7tupppppppgi4,9gpppiq",
"ggppiy7,igapppppdyt7-$,5778,--7rypppppppgs,7gfppuy",
"ggppit7tgappppppst7=$47555,7,$=7tuipppppshi7fspput",
"ggippt8yfppppppit8=@,q555,85,,;=7typpppapfy8gapput",
"hgppiy8tp,4ipput8-#>795555757,9=*7typpp0>wy8fppput",
"hhppit8tt.oyaut8-$,3795555453303$*7euia: ,y8faaaut",
"hauyiy8yp,4iit8-$,7,5955545533053%*7tuiq,ty8fayuut",
"ha-o9y8qiuiyy9-$,54258554555339551%-7euiput7fqO=yt",
"hh-o0y44877777,,5554574555555575553145557743yqO=yt",
"hguyy70pfsfspffffffffffffffdaaggfffffffssffq5yyyuy",
"hhpu70t5tfpfpfpfaadaddaadfadaaaaaasfaaafay5tq5yayt",
"aay70a, ,ippppipppipaaipaaaappppiaiaaiaia< >pq5yiy",
"ay60aa0*9pppppppapapppaaiiaappppaaiaaiaaa0*8ppq5yp",
"u70iiiuuiuiuiuuiuiiuiuiiuiuiuiuiiiiuiiuiiuuiiuiq5q",
"49uytttytttttyttyetettyeteyeeyttttttetttttttttyi04"
};
