/* XPM */
static char *__removebg_preview_resized[] = {
/* columns rows colors chars-per-pixel */
"50 50 174 2 ",
"   c None",
".  c #AD1479",
"X  c #B11880",
"o  c #BF1C8E",
"O  c #AD2986",
"+  c #CC1F98",
"@  c #C2208F",
"#  c #C52894",
"$  c #C82B96",
"%  c #CC249B",
"&  c #C63599",
"*  c #CA339B",
"=  c #C93B9A",
"-  c #D325A1",
";  c #D029A0",
":  c #DC27A8",
">  c #DD29AA",
",  c #E02BAE",
"<  c #E42BB1",
"1  c #E92DB6",
"2  c #E72EB8",
"3  c #EE2EBB",
"4  c #F12FBD",
"5  c #E530B4",
"6  c #E63BB2",
"7  c #E730B8",
"8  c #ED32BB",
"9  c #E938BE",
"0  c #F13DBD",
"q  c #CA44A0",
"w  c #CF46A9",
"e  c #D246A5",
"r  c #DA4DAB",
"t  c #CB5AB1",
"y  c #DE58B5",
"u  c #DF5ABC",
"i  c #E243B2",
"p  c #E248B2",
"a  c #E94CB7",
"s  c #EC4DBE",
"d  c #E556BD",
"f  c #EA55B8",
"g  c #E35DBC",
"h  c #EC5ABB",
"j  c #DD62BC",
"k  c #C276B3",
"l  c #CE75B8",
"z  c #CB78B9",
"x  c #E164BC",
"c  c #F42FC1",
"v  c #F435C1",
"b  c #F932C6",
"n  c #F43FC7",
"m  c #FC33C9",
"M  c #FA3BCB",
"N  c #EC4CC3",
"B  c #F543C7",
"V  c #F743CC",
"C  c #FD45CE",
"Z  c #FD48CC",
"A  c #EB59C7",
"S  c #EC51C8",
"D  c #F65DC4",
"F  c #F353CE",
"G  c #FC5BCA",
"H  c #ED5AD2",
"J  c #F553D1",
"K  c #F65CD4",
"L  c #D973C9",
"P  c #DB73D0",
"I  c #E762C2",
"U  c #E16FC2",
"Y  c #EE6EC7",
"T  c #EE69CB",
"R  c #F661C4",
"E  c #F962C7",
"W  c #F565C9",
"Q  c #FC64CA",
"!  c #F568CD",
"~  c #FA6BCD",
"^  c #E373CD",
"/  c #ED72CC",
"(  c #E87CCE",
")  c #FC70CE",
"_  c #EC6DD3",
"`  c #F562D3",
"'  c #F26CD3",
"]  c #FB69D0",
"[  c #F664DA",
"{  c #F56ED9",
"}  c #F96FDF",
"|  c #E474D4",
" . c #EB71D7",
".. c #EE79D6",
"X. c #EA72D8",
"o. c #F272D1",
"O. c #FC71D4",
"+. c #F674D8",
"@. c #F67ADE",
"#. c #FC7CDC",
"$. c #FC67E1",
"%. c #F96DE1",
"&. c #FA76E3",
"*. c #F27DE1",
"=. c #FA7EE3",
"-. c #FA7DE9",
";. c #DC84CC",
":. c #DD8ED1",
">. c #DE9CD5",
",. c #E680D5",
"<. c #E48CD1",
"1. c #E681DD",
"2. c #EB8ADA",
"3. c #F585DD",
"4. c #F889D9",
"5. c #E39EDA",
"6. c #EB9CDC",
"7. c #DFA1D8",
"8. c #E0A3D4",
"9. c #E1A8D6",
"0. c #E4A5DC",
"q. c #E6AADF",
"w. c #E5B8DD",
"e. c #ED84E4",
"r. c #EE8EE6",
"t. c #EF89E9",
"y. c #F285E4",
"u. c #F68FE0",
"i. c #FD88E6",
"p. c #F583E9",
"a. c #FC86E8",
"s. c #F58CEB",
"d. c #FA8BEB",
"f. c #EB93E2",
"g. c #F495E2",
"h. c #F398E2",
"j. c #F393EA",
"k. c #FC94ED",
"l. c #F78EF0",
"z. c #FD8EF1",
"x. c #F692F3",
"c. c #FB92F3",
"v. c #FA98F6",
"b. c #FC95FA",
"n. c #FE9AFE",
"m. c #EBA0E3",
"M. c #E7AFE4",
"N. c #EBAEE5",
"B. c #EEAFEA",
"V. c #F5A4E7",
"C. c #FAA2E7",
"Z. c #F0A4E9",
"A. c #EBBBE6",
"S. c #EDB3EA",
"D. c #EEBDEA",
"F. c #F2B5ED",
"G. c #FAA7F5",
"H. c #FCA3FC",
"J. c #FDACFD",
"K. c #F7B7F2",
"L. c #FBB3F2",
"P. c #F5BDF2",
"I. c #FABFF7",
"U. c #FCB5FB",
"Y. c #FCBCFD",
"T. c #E6C1DD",
"R. c #F9C3F7",
"E. c #FAC8F6",
"W. c #FDC5FE",
"Q. c #FDCCFE",
"!. c #F7D0F5",
"~. c #F8D5F5",
"^. c #FCD0FC",
"/. c #FDD8FD",
/* pixels */
"                                                                                                    ",
"                                                                                                    ",
"                                                                                                    ",
"                                                                                                    ",
"                                                                                                    ",
"                                                                                                    ",
"                                                                                                    ",
"                                                                                                    ",
"                                                                                                    ",
"                            :.                                                                      ",
"                          r.U.f.m.l                                                                 ",
"                          l.v.Z.R.F.                                                                ",
"                          F @.Z.g.!.w.                                                              ",
"                        d N d.{ ! E.D.                                                              ",
"                        ( _ l.i F v.Z.                                                              ",
"                        T -.-.g N } *.                                                              ",
"                        S %.K 2.s v [                                                               ",
"                        9 V B ,._ 0 `                                                               ",
"                        7 b v *.v.K B                                                               ",
"                        > 3 8 *.n.$.v                                                               ",
"                        . + 1 X.x.H <                                                               ",
"                          @ % w L t ;                                                               ",
"                            O e 2.A.                                                                ",
"                          r h o.j.S.                                                                ",
"                      k j R T x.j.S.                                                                ",
"                    8.R.6.j y.y.j.0.                                                                ",
"                  9./.>.  j d.y.3.5.                                                                ",
"                  P.W.f.    W ] Y >.                                                                ",
"                  R.Y.s.    6 0 d 7.                                                                ",
"                  G.H.n.P    .K A q.                                                                ",
"                  l.n.b./   t.p.^ M.                                                                ",
"                  o.n.#./ u p.s.;.S.                                                                ",
"                  | c.4.E.U.b.e.;.K.                                                                ",
"                  o.#.V.Q.J.n.1.U K.                                                                ",
"                  R ~ L.j.p.n.1.x L.>.                                                              ",
"                  E ! j.Y ' n.e.y G.N.                                                              ",
"                  E R ' W +.n.s.y k.P.                                                              ",
"                  D R E Q @.n.l.g i.W.>.                                                            ",
"                  a D Q Q @.n.b.I #.U.D.                                                            ",
"                  e i E Q y.n.n._ O.n.~.                                                            ",
"                  & q R Q u.H.n.*.~ z.^.T.                                                          ",
"                    $ R Q g.J.n.d.W =.J.B.                                                          ",
"                      p G y.Y.n.H.4.~ c.s.                                                          ",
"                      % M { W.Y.W.L.) O.)                                                           ",
"                    = a b F U.^.Q.Q.C.) f                                                           ",
"                  * G Q C m d.W.Q.Q.Q.L.<.z                                                         ",
"                  5 C C M m F k.Y.W.Q.Q.Q.W.2.                                                      ",
"                  o : 1 c 3 m C [ -.a.k.d.&.F #                                                     ",
"                          X % : < 2 5 7 , - o                                                       ",
"                                                                                                    "
};
