/* XPM */
static char *__removebg_preview_resized[] = {
/* columns rows colors chars-per-pixel */
"50 50 209 2 ",
"   c None",
".  c #B60C66",
"X  c #BC0F6A",
"o  c #BF0566",
"O  c #AF1E6F",
"+  c #B81271",
"@  c #BE207D",
"#  c #C30567",
"$  c #CC0067",
"%  c #C5056A",
"&  c #CB036A",
"*  c #C9086F",
"=  c #C50A69",
"-  c #CC0B74",
";  c #D10A74",
":  c #D10E7C",
">  c #CD127D",
",  c #CE197F",
"<  c #D3137F",
"1  c #B42087",
"2  c #B43C8C",
"3  c #BF2892",
"4  c #B63490",
"5  c #D20F80",
"6  c #CD1582",
"7  c #CC1D87",
"8  c #CE1B8B",
"9  c #D31284",
"0  c #DC178D",
"q  c #D51C8B",
"w  c #D61988",
"e  c #DB1B94",
"r  c #DD1E9A",
"t  c #DB1792",
"y  c #E01B94",
"u  c #E11F9C",
"i  c #C42187",
"p  c #D6278C",
"a  c #C92A98",
"s  c #D72297",
"d  c #D82494",
"f  c #C23898",
"g  c #C7359C",
"h  c #D03294",
"j  c #D53A9C",
"k  c #DB2DA6",
"l  c #CF36A4",
"z  c #D232A5",
"x  c #DA3CA3",
"c  c #D630A9",
"v  c #DC33AC",
"b  c #D639AB",
"n  c #E224A2",
"m  c #E325A9",
"M  c #E826AA",
"N  c #E42CAC",
"B  c #E12FB0",
"V  c #EC2BB4",
"C  c #E527B0",
"Z  c #F22CB4",
"A  c #F32EBE",
"S  c #E531B4",
"D  c #ED32BC",
"F  c #E637B8",
"G  c #F132BB",
"H  c #F930BE",
"J  c #BC4094",
"K  c #B7599B",
"L  c #BB66A9",
"P  c #C34599",
"I  c #C74A9F",
"U  c #C0619B",
"Y  c #CD4AA1",
"T  c #C14DA5",
"R  c #D34DA5",
"E  c #D443A6",
"W  c #C358AE",
"Q  c #DA53AD",
"!  c #D252AA",
"~  c #C45CB2",
"^  c #DC5EBD",
"/  c #DA58B4",
"(  c #E641A6",
")  c #E448B8",
"_  c #E453B4",
"`  c #E35AB6",
"'  c #EC5BBC",
"]  c #EA56BB",
"[  c #CA67B9",
"{  c #D565B5",
"}  c #C474B4",
"|  c #C77CB8",
" . c #D172BC",
".. c #E864BE",
"X. c #F82FC2",
"o. c #F433C3",
"O. c #FA32C5",
"+. c #F03BC2",
"@. c #FE33CB",
"#. c #FC3BCB",
"$. c #F53FCA",
"%. c #F840C5",
"&. c #F945CA",
"*. c #F749CD",
"=. c #E45CC2",
"-. c #ED55C9",
";. c #F35EC3",
":. c #F959C9",
">. c #FC4FD6",
",. c #FC54D9",
"<. c #FA5BD9",
"1. c #F755D4",
"2. c #CF6DC3",
"3. c #D06FC2",
"4. c #D679CB",
"5. c #DD7CD3",
"6. c #D77AD1",
"7. c #EC63CB",
"8. c #F461C5",
"9. c #FD65CB",
"0. c #F963C7",
"q. c #E57FCE",
"w. c #ED64D2",
"e. c #F963DE",
"r. c #F969DE",
"t. c #F662D8",
"y. c #E17DD4",
"u. c #EA7ADD",
"i. c #F677D8",
"p. c #F863E1",
"a. c #F674E2",
"s. c #F27BE3",
"d. c #F977E6",
"f. c #CB81BD",
"g. c #C989BC",
"h. c #D180BC",
"j. c #CF8CC4",
"k. c #D285C5",
"l. c #D389C2",
"z. c #D480CF",
"x. c #DA93CD",
"c. c #D195C5",
"v. c #D781D2",
"b. c #DD81D3",
"n. c #DC99D3",
"m. c #DC9CD8",
"M. c #E490CF",
"N. c #E98BD3",
"B. c #E684DF",
"V. c #EA87DD",
"C. c #E897D6",
"Z. c #E29BDC",
"A. c #EA9ADC",
"S. c #FA90DE",
"D. c #D5ABC9",
"F. c #D7B6CD",
"G. c #D8B9CC",
"H. c #DEA1D8",
"J. c #DBBED0",
"K. c #E2A4DB",
"L. c #F1A1DF",
"P. c #EC8BE6",
"I. c #E988E3",
"U. c #F382E6",
"Y. c #F386EA",
"T. c #F985EC",
"R. c #F38BEC",
"E. c #F889EA",
"W. c #EB98E7",
"Q. c #F996E8",
"!. c #F69AEB",
"~. c #FD8DF3",
"^. c #F48DF0",
"/. c #F594F0",
"(. c #FB94F6",
"). c #FC9FF7",
"_. c #FD95FA",
"`. c #FE9AFE",
"'. c #EDACE4",
"]. c #E5AFE0",
"[. c #F1AFEB",
"{. c #F9A9EA",
"}. c #F5A4E9",
"|. c #EBB2E5",
" X c #F9B2EE",
".X c #FAA3F3",
"XX c #FCA6FC",
"oX c #FDACFC",
"OX c #F8A9F6",
"+X c #FCB3F5",
"@X c #F4BCF2",
"#X c #FCB9F4",
"$X c #FBB1FB",
"%X c #FCBCFC",
"&X c #E3D2DF",
"*X c #E7C3E3",
"=X c #F1C4EF",
"-X c #E5D1E1",
";X c #F6C4F3",
":X c #FCC4FB",
">X c #FDCBFE",
",X c #F8C3F6",
"<X c #FCD3FC",
"1X c #F1E2EB",
"2X c #F9E0F7",
"3X c #F7EEF5",
"4X c #FCF5FB",
"5X c #FCFCFC",
"6X c #F8F1F5",
/* pixels */
"                                                                                                    ",
"                                                                                                    ",
"                                                                                                    ",
"                                                                                                    ",
"                                                                                                    ",
"                                                                                                    ",
"                                                                                                    ",
"                                                                                                    ",
"                                                                                                    ",
"                            g.H.W.b.                                                                ",
"                          c.@XoX/.v.y.                                                              ",
"                    G.F.j.@XXX`.(.b.  E                                                             ",
"                    3X6X|.oX_.(.`./.                                                                ",
"                    5X5X[.`._.^ 7.u.                                                                ",
"                    3X2X!.R.u.=.- M                                                                 ",
"                    x.A./.R.^ s - 9 k                                                               ",
"                    v u.R.h q 6 * & 7                                                               ",
"                    1.`.7.$ & # & & +                                                               ",
"                  U w.`.j $ $ $ $ &               T [ k.n.Z.Z.|                                     ",
"                J.1X5./.p $ $ $ $ &         z ) u.T.T..X+X:X:XoXI.~                                 ",
"                -X5X  ^.p $ $ $ $ &       S O.<.r.r.d.Q.!.{..X`.`.^.=.8.Q                           ",
"                -X4X;XU.< $ $ $ $ $ # . a O.O.*.d.(.Q.{. X{.Q.(.`.`.u.0.8./                         ",
"                D.=XV.i.9 $ $ $ $ $ $ #   l b Y.`..X:X>X>X>X>X+X`.`.Y.;.' I                         ",
"                  [ 7.<.y $ $ $ $ $ $ #   F s.`.`.oX>X:X:X:X>X:X`.`.Y.Q                             ",
"                    i.*.k - $ $ $ & #     $.~.`.`.XXoXXX`.`.oX$X`.`.I.                              ",
"                    M.&.e % $ & $ &       S <.~._._._.`._.`.`.`.`.`.y.                              ",
"                  *XL.#.X.e % & $ &       a N +.,.e.a._.`._.`.`.`.P.                                ",
"                   .-.G D u * & $ $ % X m O.V D <.T.~._.`.%X<X<X*X                                  ",
"                    @.F d & $ $ $ $ & % q k 1 3 4 W 6.I.P.W.].F.                                    ",
"                    O.G   $ $ $ $ $ # < j !                                                         ",
"                    S o.z = $ $ $ ; p ( ] ' ..Q                               2                     ",
"                      B G w $ ; & # h ` 8.9.9.9.8.' Q Q R { 6.3.2.2.[ | l.k...Q                     ",
"                        k < $ ; t ; # O   Q ' 0.9.9.9.9.9.i.i.i.E.(.(.$X:XQ.8.                      ",
"                          q & & : n 0 * .     ! ` ' 8.9.0.9.i.(.`.`._.oX>X#XL.} L n.K.              ",
"                          i ; $ & - M Z y < i         J P I 4.6.I._.XX%X>X<X>X:X;X'.                ",
"                            & $ $ & - r O.O.O.o.+.B.B.v.z.6.B.P.).%X>X>X>X>X>X|.l.                  ",
"                            & $ $ ; u 0 t Z @.@.@.<.(.`.`.`.$X%X:X>X>X>X@XK.f.                      ",
"                            = $ $ & < V O.O.@.>.<.p.Y.).XX:X>X#XN.x.m.j.                            ",
"                            % $ $ $ $ - u X.>.~.`.`.`.XX:X>X>X:X'.|                                 ",
"                            # $ $ $ & & % > ) P.(.`.`.%X>X>X:XC.| } K     J J                       ",
"                            # $ $ $ $ $ 6 > & i / R.OX,X[.>X>X:X{.C.N.b.{ P                         ",
"                            X $ & & & $ x q & - +   | k.| l.h.l.l.l.}                               ",
"                              & & 9 9 * :.e & w *                                                   ",
"                              $ & M s E e.t - e %                                                   ",
"                            @ & 9 O.o.U.>.t e t &   v f                                             ",
"                        b ] _ 7 V @.#.p.@.r V : # z B                                               ",
"                    I _ &.#.&.G @.@.@.#.O.A m % q D v                                               ",
"                  j ) :.:.&.@.@.@.@.@.@.@.@.C m F v                                                 ",
"                      g g l v B D o.o.o.o.o.S c                                                     ",
"                                                                                                    "
};
