/* XPM */
static char *__removebg_preview__1__resized[] = {
/* columns rows colors chars-per-pixel */
"50 50 230 2 ",
"   c None",
".  c #AF0F67",
"X  c #B40D66",
"o  c #BB0A66",
"O  c #BB0B69",
"+  c #BC0767",
"@  c #AD156B",
"#  c #B4126A",
"$  c #BF116B",
"%  c #BB1778",
"&  c #B1247D",
"*  c #C50266",
"=  c #CC0067",
"-  c #C5046A",
";  c #CB0269",
":  c #C1096C",
">  c #C00867",
",  c #C40C73",
"<  c #C90A72",
"1  c #CB0D79",
"2  c #C90974",
"3  c #D20C78",
"4  c #C41275",
"5  c #CB1479",
"6  c #D2117F",
"7  c #D8117F",
"8  c #AE1E82",
"9  c #B72B87",
"0  c #B93994",
"q  c #AE3285",
"w  c #CD1283",
"e  c #CA1D82",
"r  c #CE1A8A",
"t  c #C81B86",
"y  c #D31383",
"u  c #D3168B",
"i  c #D31A8E",
"p  c #DB1789",
"a  c #D71B92",
"s  c #DC1D95",
"d  c #DC1E9A",
"f  c #E11B95",
"g  c #C52A8F",
"h  c #D5248B",
"j  c #C12B93",
"k  c #C62D9A",
"l  c #CA2B99",
"z  c #D6239F",
"x  c #DD229B",
"c  c #D92C93",
"v  c #C33195",
"b  c #C9369A",
"n  c #D63B9D",
"m  c #E3219E",
"M  c #E02C92",
"N  c #D427A1",
"B  c #DD21A0",
"V  c #DB2BA3",
"C  c #DB2EAB",
"Z  c #CC33A3",
"A  c #CF3CA3",
"S  c #D233A3",
"D  c #D738A8",
"F  c #DC3BB1",
"G  c #DF35B3",
"H  c #E325A3",
"J  c #E922A3",
"K  c #E429AC",
"L  c #E92AAD",
"P  c #E328A7",
"I  c #E332AE",
"U  c #E03AAF",
"Y  c #EB2BB3",
"T  c #EE2FB9",
"R  c #E62BB2",
"E  c #F12DB5",
"W  c #F22EBC",
"Q  c #F82FBC",
"!  c #E332B2",
"~  c #EC32BA",
"^  c #ED3BBE",
"/  c #E735B5",
"(  c #F232BE",
")  c #BD7F9F",
"_  c #AD6792",
"`  c #BF51A8",
"'  c #BD66A7",
"]  c #BF79AF",
"[  c #C4469B",
"{  c #C6449C",
"}  c #CD46A4",
"|  c #C849A1",
" . c #D84DAB",
".. c #D74BAA",
"X. c #CA59AC",
"o. c #C252AA",
"O. c #D552AB",
"+. c #DA53AC",
"@. c #D550A7",
"#. c #C55CB3",
"$. c #DC54B9",
"%. c #DC58B5",
"&. c #E349B7",
"*. c #E45AB6",
"=. c #ED5BBD",
"-. c #E655B9",
";. c #F05ABD",
":. c #E742A6",
">. c #CD6EB6",
",. c #EF62BF",
"<. c #F52FC1",
"1. c #F432C2",
"2. c #F932C5",
"3. c #FE33CB",
"4. c #FC3BCC",
"5. c #F03DC1",
"6. c #DC5DC0",
"7. c #EC46C4",
"8. c #F742CA",
"9. c #FA44CC",
"0. c #FA48CE",
"q. c #F645C6",
"w. c #E656C4",
"e. c #F453CD",
"r. c #F65AC5",
"t. c #FB4ED4",
"y. c #FC42D0",
"u. c #FC59D9",
"i. c #F85AD6",
"p. c #CF6BC0",
"a. c #D86BC6",
"s. c #CF73C1",
"d. c #D47CCD",
"f. c #DA78CD",
"g. c #D979D1",
"h. c #EF60C1",
"j. c #E96CCE",
"k. c #F561C4",
"l. c #F963C6",
"z. c #FE66CB",
"x. c #FA6ACD",
"c. c #E27CCD",
"v. c #F764DD",
"b. c #F764DA",
"n. c #EB72D5",
"m. c #EC75D9",
"M. c #E67AD9",
"N. c #F976D5",
"B. c #F97BDA",
"V. c #EE69D4",
"C. c #FA62E0",
"Z. c #FB6BE1",
"A. c #F766E1",
"S. c #F973E4",
"D. c #F67EE4",
"F. c #FB7AEA",
"G. c #F876E5",
"H. c #BD87AB",
"J. c #C580BA",
"K. c #C599B4",
"L. c #CD8FC2",
"P. c #D289C2",
"I. c #D786C8",
"U. c #D898CB",
"Y. c #D680D2",
"T. c #DB81D4",
"R. c #DF9BD5",
"E. c #DA96D0",
"W. c #CE9CC4",
"Q. c #E282DB",
"!. c #E68BDC",
"~. c #E49AD8",
"^. c #F680DA",
"/. c #CEAFC2",
"(. c #D6B6CB",
"). c #DDA1D5",
"_. c #E4A3DC",
"`. c #E3A5D2",
"'. c #E1B6DA",
"]. c #E68AE0",
"[. c #EA8AE4",
"{. c #EE8BEA",
"}. c #E987E3",
"|. c #F485E8",
" X c #FA84ED",
".X c #F38BEA",
"XX c #FB8FEC",
"oX c #F487E1",
"OX c #E995E4",
"+X c #FA96E9",
"@X c #FA9EEC",
"#X c #F796E8",
"$X c #FC86F2",
"%X c #F58EF0",
"&X c #FC8EF4",
"*X c #F692F2",
"=X c #FB93F5",
"-X c #FB9CF6",
";X c #FD96FB",
":X c #FE9AFE",
">X c #E8A7E2",
",X c #F9AAEB",
"<X c #F8A2E8",
"1X c #F6B7EF",
"2X c #FCA3FC",
"3X c #FCABFC",
"4X c #FBABF2",
"5X c #FAB4F3",
"6X c #FBBCF5",
"7X c #FCB5FD",
"8X c #FCBDFC",
"9X c #F7BCF3",
"0X c #E6B1E1",
"qX c #DDC6D7",
"wX c #E6D0DD",
"eX c #E1C6D9",
"rX c #EEC3E7",
"tX c #EFDEE9",
"yX c #F1D0EE",
"uX c #FCC4FC",
"iX c #FDCBFE",
"pX c #F8C4F5",
"aX c #FCD3FD",
"sX c #F8D7F7",
"dX c #F4C8EE",
"fX c #F1E3EC",
"gX c #FCEDFC",
"hX c #F8EFF5",
"jX c #FDF3FD",
"kX c #FEFEFE",
/* pixels */
"                                                                                                    ",
"                                                                                                    ",
"                                                                                                    ",
"                                                                                                    ",
"                                                                                                    ",
"                                                                                                    ",
"                                                                                                    ",
"                                                                                                    ",
"                                                                                                    ",
"                          L.)._.>X!.!.f.s.                                                          ",
"                    ] ).dX8X7X2X:X{.T.c.Q.Q.a.                                                      ",
"        (.wXeXH.  R.dXuX3X:X:X:X:X:X[.        } S                                                   ",
"      (.kXkXkXtXU.uX3X:X:X;X-X=X:X:X:XOX          b q                                               ",
"      fXkXkXkXjX_.2X:X:X:X*XM.{ ..j.F.F.6.                                                          ",
"      eXkXjXgXdX!.;X*X[.M.M.|.&.- - h 1.^                                                           ",
"      _ U.>X_.!.=X-X*X|.m.D r K 6 = ; y Y                                                           ",
"        S 7.n.=X:XM.b e e d a , 5 ; = * w l                                                         ",
"      n 8.$X:X:X.X5 = = = = , : : ; = = O                                                           ",
"    H.j e.;X:X:X%.; = = = = ; = = = = = X                             [ o.#.p.s.I.E.~.).~.~.~.E.J.#.",
"K.fXhX  o.*X:X;Xg = = = = = = = = = = = o                 Z C &.w.n.|. XXX$X X+X5X5X5X6XuXiX8X8X3X<X",
"qXkXkXkX  Q.:X.X5 = = = = = = = = = = = ;             G ~ 2.3.t.Z.v.b.b.Z.S.D.+X+X<X<X<X4X4X-X;X:X:X",
"qXjXjXjXyX!.:XV.1 = = = = = = = = = = = = : # O @ q ~ 3.3.2.2.8.u.S.$X=XXX+X+X<X,X,X5X5X,X#X+X+X-X:X",
"H.rXaXpXc.n.;Xe.6 = = = = = = = = = = = = = = = X     D Z N $.|.:X:X:X;X,X6XuXiXaXiXiXiXiXiXiXpX5X:X",
"    >.%.n.t.Z.y.J ; = = ; = = = = = = = = = ; O       G 7.G.=X:X:X:X:X:XuXiXiXuXuXuXuXuXuXiXiXiXiX3X",
"      / OXB.9.1.K x , ; = = = = = = = = = > #       C 2.u.:X:X:X:X:X:X:X3X7X3X2X:X:X2X:X:X:X3X7X8X2X",
"      R.`.j.t.2.d 1 : * ; = = = = = = = .             I 1.u.F.$X&X:X;X;X;X:X:X;X:X:X:X:X:X:X:X:X:X:X",
"    /.gXrX^ 3.2.2.E d i + = = = = = = = >           k k N K ! 5.8.t.i.b.C.Z.G.&X:X:X:X:X:X:X:X:X:X;X",
"    ' c.w.3.( I ( ( Y i < = = = = = = = = : # $ 5 H 2.2.T Y Y T 1.e.D. X$X$X*X;X:X:X:X3X6XiXaXaXaXsX",
"      ~ 3.3.Y   U y ; = = = = = = = = = = * ; - : r C C l 8 8 k k 9 0 ` #.f.M.Q.}.{.{.{.OX>X0X'.(./.",
"      ! 3.3.1.    4 = = = = = = = = = ; = = : y h n @.O.                                            ",
"        C 1.3.( D   4 ; = = = = = * ; 3 c M c :.;.;.=.=.l.k.*.+.@.                                  ",
"            C ( Q / c ; = = ; 6 ; = * > 4 n +.%.,.r.l.l.z.z.z.z.z.l.k.w.-.*.@.@.+.+.} } >.d.g.d.p.>.",
"                V L p ; = = ; 6 f f y ; ; o #         O.*.=.r.l.z.z.z.z.z.z.z.z.x.z.z.x.N.N.N.N.^.oX",
"                  9 x 7 = = = = : y m P m p 3 ; : X             O.*.*.,.=.r.l.l.l.l.l.l.z.x.B.+X;X:X",
"                      i ; ; = = = = ; 3 f Y ( E f s p 6 5 t j                   0 [ [ [ { X.T.T.f.a.",
"                      9 5 = = = = ; ; 2 ; 2 6 x W 2.2.2.2.2.2.2.1.1.7.m.OX[.Q.Y.Y.Y.d.d.g.T.}.].[..X",
"                        o = = = = = ; 3 s f f p p a f W 3.3.3.3.3.3.3.y.A.&X:X:X:X:X:X:X2X2X7X7X8XuX",
"                        . = = = = = = ; - w H E 2.Q Q 3.2.3.3.t.u.v.C.C.C.G..X-X:X2X2X8XuXiXiXiX6X<X",
"                        @ = = = = = = = = = ; 2 y B Y 2.3.9.F.;X:X:X:X:X:X:X;X:X3XuXiXiXiXiXiXiXpX6X",
"                        # = = = ; = = = = ; = = = ; 4 1 u P n.%X|.%X:X:X:X;X:X7XuXiXuXiXiXiXuX1X~.I.",
"                        O = = = = = = = = = = = = 5 D - = ; : t j } f.{.%X:X9XpXiX~.>XaXiXiXiXuXuX9X",
"                          > = = = = = ; - ; = = *  .e.u = ; = * r : #       ] U.I.X.P.P.P.P.P.P.P.P.",
"                            ; = ; = * a R 2 = = b F.9.a * = * a d = o           }                   ",
"                          # ; = = = w <.3.d : A .Xv.3.s = * w T y = :         D                     ",
"                          % = = - i <.3.3.~ $.;X X4.3.s * w <.P ; = +       ! D                     ",
"                l ..=.=.k.+.h 1 B 2.3.3.3.2.b.F.0.3.2.u a <.T 1 = = O   F ( P 9                     ",
"        } ..-.;.8.4.4.4.9.0.^ W 3.3.3.3.3.3.4.3.3.3.1.L 3.T w : < 1 N ~ 1./ v                       ",
"    k U &.;.r.r.r.e.0.4.3.3.3.3.3.3.3.3.3.3.3.3.3.3.3.3.3.R z B L ~ / G                             ",
"            b 0 b A Z D C I ! ~ / T 1.1.1.<.<.1.1.1.1.1.~ ~ ! C Z                                   ",
"                                              0 k j                                                 "
};
