/* XPM */
static char *__removebg_preview__2__resized[] = {
/* columns rows colors chars-per-pixel */
"50 50 153 2 ",
"   c None",
".  c #B41E81",
"X  c #B62C89",
"o  c #BE3B94",
"O  c #DA329B",
"+  c #C435A0",
"@  c #E62CA9",
"#  c #EE2CAD",
"$  c #E033A0",
"%  c #EB30AF",
"&  c #EF2FB3",
"*  c #EC33B4",
"=  c #E53BB4",
"-  c #E838B4",
";  c #F138B6",
":  c #F134BB",
">  c #F13BBE",
",  c #B04A95",
"<  c #BA4996",
"1  c #AF52A0",
"2  c #B156A0",
"3  c #B65DA4",
"4  c #BB5FA5",
"5  c #B353A9",
"6  c #BE50A9",
"7  c #BF5CAD",
"8  c #BB63A4",
"9  c #B66AAA",
"0  c #BC6FAA",
"q  c #B876B1",
"w  c #BD7DB2",
"e  c #CE479F",
"r  c #C7499F",
"t  c #C349A6",
"y  c #DD44A8",
"u  c #C255A7",
"i  c #C850A2",
"p  c #C45CAE",
"a  c #DD4DB5",
"s  c #C756B4",
"d  c #C558B1",
"f  c #CA5BB6",
"g  c #CA5BBA",
"h  c #DD5CB5",
"j  c #D65EBA",
"k  c #EB49BE",
"l  c #EA53BD",
"z  c #E45ABC",
"x  c #EA5CBA",
"c  c #C760B5",
"v  c #C869B3",
"b  c #C160B8",
"n  c #D764BF",
"m  c #D168BF",
"M  c #C176B0",
"N  c #CE78BF",
"B  c #E160B7",
"V  c #F333C2",
"C  c #F43CC3",
"Z  c #FD3ECF",
"A  c #F34BC4",
"S  c #E65EC5",
"D  c #EB5AC4",
"F  c #EF58CB",
"G  c #F25FD2",
"H  c #CF68C3",
"J  c #DE62C1",
"K  c #D56CC4",
"L  c #D96EC5",
"P  c #D66FC9",
"I  c #D571C4",
"U  c #D975CB",
"Y  c #DF76D5",
"T  c #DE79D3",
"R  c #E762C4",
"E  c #E06FC6",
"W  c #F36FC9",
"Q  c #E376CD",
"!  c #EE73CC",
"~  c #E866D1",
"^  c #EB6FD3",
"/  c #FA6DD3",
"(  c #F867DE",
")  c #F56EDB",
"_  c #F969DB",
"`  c #E57CDA",
"'  c #EC7ADA",
"]  c #F775D4",
"[  c #F579DE",
"{  c #FD7FDC",
"}  c #FB6FE4",
"|  c #F970E0",
" . c #F37DE4",
".. c #CF8DB7",
"X. c #CF86C0",
"o. c #D185C5",
"O. c #D48AC7",
"+. c #DC85CE",
"@. c #D790C8",
"#. c #DB92CD",
"$. c #DB9CD1",
"%. c #E383D0",
"&. c #ED89D6",
"*. c #E585DB",
"=. c #EA83DC",
"-. c #E88CDB",
";. c #F980DF",
":. c #E993D7",
">. c #EC9CDF",
",. c #F594DB",
"<. c #E0A4D1",
"1. c #E0A2D9",
"2. c #EB84E3",
"3. c #ED89E6",
"4. c #EF8BEA",
"5. c #F982E0",
"6. c #F68CE3",
"7. c #F586EA",
"8. c #F38CEC",
"9. c #FB8BEB",
"0. c #F292EF",
"q. c #FE83F1",
"w. c #F68EF0",
"e. c #FB8DF1",
"r. c #F592F2",
"t. c #FB93F4",
"y. c #F99CF3",
"u. c #FD97FB",
"i. c #FE99FE",
"p. c #E5A5E0",
"a. c #E8A6E3",
"s. c #EBAAE6",
"d. c #ECA4ED",
"f. c #EFAEE8",
"g. c #F4A6EF",
"h. c #F2AAEE",
"j. c #EDB0E9",
"k. c #F1B7EE",
"l. c #FAA5F1",
"z. c #F6ACF3",
"x. c #FBA5FA",
"c. c #FCABFC",
"v. c #F9B3F5",
"b. c #F4BCF2",
"n. c #FCB2FB",
"m. c #FDBAFD",
"M. c #F7C2F4",
"N. c #F8C1F6",
"B. c #FCC4FC",
"V. c #FDCCFE",
"C. c #FBD8F7",
"Z. c #FFD0FF",
"A. c #FCD9FD",
/* pixels */
"                                                                                                    ",
"                                                                                                    ",
"                                                                                                    ",
"                                                                                                    ",
"                                                                                                    ",
"                                                                                                    ",
"                                                                                                    ",
"                                                                                                    ",
"                                                                                                    ",
"                                                                                                    ",
"                                                                                                    ",
"                                                                                                    ",
"                                                                                                    ",
"                                                                                                    ",
"                                                                                                    ",
"      X t s g f p                                                                                   ",
"  o a ~  .t.t.u.t.=.Y P c                                                                           ",
"2.8.u.c.n.z.n.n.c.c.c.v.v.s...                                                                      ",
"i.u.i.x.i.x.z.v.B.B.V.V.V.A.C.<.                                                                    ",
"i.i.i.i.u.7.k ( e.t.t.6.y.c.x.c.U                                                                   ",
"i.i.i.i.i. .= : V C ; $  .i.7.' 8.                                                                  ",
"u.i.i.i.i.u.' y O @ & * _ t.S R r.5                                                                 ",
"i.i.u.i.t.2.%.,.W - : V Z A a k '                                                                   ",
"i.i.u.w.=.>.V.V.l.) > & ; D ^ - +                                                                   ",
"} _ l h f.V.V.n.i.u.| ~ [ t.s .                                                                     ",
"# # : F -.h.c.i.y.i.i.u.u.i.K                                           <                           ",
"k _ q.u.r.*.3.r.u.u.i.i.i.8.c                                         Q t.L                         ",
"z J ` 7.*.        I =.2.m                             P E x e r n ! 9.u.i.t.u                       ",
"9.] ! &.:.#.#.#.O.o.+.N q w q 9 9 8 8 2 1 3 v L ` 4.t.u.9.;.;.9.t.u.i.u.i.u.n                       ",
"u.x.B.V.Z.Z.V.Z.V.V.V.V.V.V.V.B.N.b.M.M.b.v.y.i.i.i.u.i.i.i.i.i.i.i.i.i.i.w.2.b                     ",
"t.0.d.s.a.j.k.b.M.V.V.V.V.V.V.V.V.V.B.m.c.i.i.i.i.u.i.i.i.i.i.i.i.i.i.i.i.i.3.                      ",
"/ 5.0.8.2.U p , 0 o.@.$.1.1.s.g.x.x.i.i.u.u.i.i.i.i.i.i.i.i.i.i.i.i.i.i.u.2.p                       ",
"k x B E c                       s K ` 8.w.u.i.i.i.i.i.i.i.i.i.i.i.i.8.` j                           ",
"                                        6 f P Y ` 3.4.w.0.r.8.4.4.*.L i                             ",
"                                                                                                    ",
"                                                                                                    ",
"                                                                                                    ",
"                        4                                                                           ",
"                                                                                                    ",
"                                                                                                    ",
"                                                                                                    ",
"                                                                                                    ",
"                                                                                                    ",
"                                                                                                    ",
"                                                                                                    ",
"                                                                                                    ",
"                                                                                                    ",
"                                                                                                    ",
"                                                                                                    ",
"                                                                                                    "
};
