/* XPM */
static char *__removebg_preview__1__resized[] = {
/* columns rows colors chars-per-pixel */
"50 50 169 2 ",
"   c None",
".  c #B01F80",
"X  c #B92287",
"o  c #BC238F",
"O  c #B32C85",
"+  c #B2318D",
"@  c #C01A8F",
"#  c #C21B91",
"$  c #C11E99",
"%  c #C62795",
"&  c #CD269A",
"*  c #C43090",
"=  c #C7329B",
"-  c #CB3E99",
";  c #D127A0",
":  c #D42AA3",
">  c #DC2AAB",
",  c #E72AA4",
"<  c #E82BA4",
"1  c #E32CAB",
"2  c #ED2CAE",
"3  c #E438AC",
"4  c #F130AB",
"5  c #E32CB3",
"6  c #EB2EB5",
"7  c #EB2DB8",
"8  c #F12EB5",
"9  c #F22EBD",
"0  c #E531B5",
"q  c #ED31B3",
"w  c #E43DB3",
"e  c #EC3BB5",
"r  c #EB30BA",
"t  c #F231B4",
"y  c #F332BC",
"u  c #F931BE",
"i  c #F239BD",
"p  c #AA488B",
"a  c #B873A3",
"s  c #CB429B",
"d  c #C942A6",
"f  c #D845A6",
"g  c #D64CAB",
"h  c #C557A9",
"j  c #CF59AE",
"k  c #D649B7",
"l  c #D85ABA",
"z  c #E143AE",
"x  c #ED42B7",
"c  c #ED45BB",
"v  c #E74EBC",
"b  c #EC4DBE",
"n  c #F145BF",
"m  c #E653B4",
"M  c #E95ABD",
"N  c #C661B1",
"B  c #CC67B4",
"V  c #CC69BA",
"C  c #D66ABE",
"Z  c #F32EC1",
"A  c #F634C3",
"S  c #FA33C5",
"D  c #F93CC6",
"F  c #FE32CB",
"G  c #FC3CCB",
"H  c #E84FC1",
"J  c #F542C4",
"K  c #F348C5",
"L  c #FB43CB",
"P  c #FA4BCC",
"I  c #E652C3",
"U  c #E65EC4",
"Y  c #EC58C1",
"T  c #ED56C8",
"R  c #E75BCD",
"E  c #EA59C9",
"W  c #F655CE",
"Q  c #FB52CC",
"!  c #FB5BCB",
"~  c #FA4CD0",
"^  c #F757D1",
"/  c #F954D3",
"(  c #FA5AD1",
")  c #FB56D8",
"_  c #FA5DDB",
"`  c #D36DC7",
"'  c #D372C5",
"]  c #D776CB",
"[  c #DD7CD4",
"{  c #E266C9",
"}  c #E369CA",
"|  c #F462C4",
" . c #F964C7",
".. c #FD64CC",
"X. c #E971C5",
"o. c #EB73C9",
"O. c #EC67D1",
"+. c #E56DD0",
"@. c #ED6CD4",
"#. c #F065D1",
"$. c #F964DD",
"%. c #F46DDA",
"&. c #FA69DA",
"*. c #E67AD5",
"=. c #EB7CD9",
"-. c #F571DD",
";. c #FB74D9",
":. c #F27EDF",
">. c #FB7ADB",
",. c #FB65E1",
"<. c #F969E1",
"1. c #EE7DE2",
"2. c #FB73E2",
"3. c #F57CE5",
"4. c #FA7CE6",
"5. c #FC7AEA",
"6. c #B880A5",
"7. c #DB8DC1",
"8. c #DF96D2",
"9. c #DB98D1",
"0. c #E281C3",
"q. c #E181D3",
"w. c #E582DB",
"e. c #EF83DE",
"r. c #E38ED8",
"t. c #F580DE",
"y. c #E19AD6",
"u. c #E295D8",
"i. c #EA9EDC",
"p. c #DEA6D8",
"a. c #DDABD4",
"s. c #DABED0",
"d. c #EB84E3",
"f. c #F282E5",
"g. c #FA84E7",
"h. c #F08BE4",
"j. c #F086E9",
"k. c #FB83EC",
"l. c #F48CEC",
"z. c #FA8CEC",
"x. c #EF93EB",
"c. c #FD84F0",
"v. c #F68EF0",
"b. c #FC8DF3",
"n. c #F692F2",
"m. c #FC94F5",
"M. c #FD98F7",
"N. c #FD96FA",
"B. c #FE99FE",
"V. c #F0A9ED",
"C. c #EFB1EA",
"Z. c #F0B7EC",
"A. c #F2BCED",
"S. c #FCA2FC",
"D. c #FCAAFC",
"F. c #F4BDF0",
"G. c #FBB4FC",
"H. c #FCBAFC",
"J. c #E3CEDB",
"K. c #E5D2DF",
"L. c #EEDBE7",
"P. c #FCC3FC",
"I. c #FDCCFD",
"U. c #F8D5F7",
"Y. c #FED6FF",
"T. c #ECE4EB",
"R. c #FDEDFD",
"E. c #F7F2F7",
"W. c #FDF5FE",
/* pixels */
"                                                                                                    ",
"                                                                                                    ",
"                                                                                                    ",
"                                                                                                    ",
"                                                                                                    ",
"                                                                                                    ",
"                                                                                                    ",
"                                                                                                    ",
"                                                                                                    ",
"                                                                                                    ",
"                                                                                                    ",
"                                                                                                    ",
"                                                                                                    ",
"                                                                                                    ",
"                                                                                                    ",
"                                                                                                    ",
"                                                                                                    ",
"                                                                                                    ",
"                                                                                                    ",
"                                                                                                    ",
"                                                                                                    ",
"                                                                                                    ",
"                                                                                                    ",
"                                                                                                    ",
"                                                                                                    ",
"                                                          V ] [ ' N                                 ",
"                                    6.K.T.J.          j e.B.B.B.B.m.w.                              ",
"                                ` ' a.R.W.W.p.q.B   = %.m.B.B.B.B.B.B.d.                            ",
"                            l l.B.n.u.A.F.i.w.B.d.+ R M.B.B.B.B.B.B.B.D.9.                          ",
"                          H b.B.B.B.n.*.{ O.b.B.d.d g.G.H.D.B.S.D.G.H.G.A.                          ",
"                        0 5.B.B.N.B.B.B.B.B.B.B.j.k b.S.P.P.D.D.I.I.I.H.V.                          ",
"                      > ~ N.B.m.1.B.B.B.B.B.B.B.n.R b.B.M.G.H.S.D.H.D.D.x.                          ",
"                    o A ) k.B.d.3.B.B.B.N.m.B.B.B.4.$.m.B.B.B.B.B.B.B.B.h.                          ",
"                    > F G ~ m.3.v.B.N.2.^ ( >.M.B.m./ 5.m.z.B.B.B.M.N.m.z.C p a                     ",
"                    y F F F 5.m.N.B.5.G F F L ;.m.B.5.^ b.^ ,.N.M.v.d.%._ } 8.U.E.s.                ",
"                  : F F F F ) N.B.B.,.F F F F L ;.m.B.&.2.2.F <.z.z.B.5.~ } C.Y.W.L.                ",
"                  5 F G G F G c.B.B.<.F F F F F P >.M.m.g.z./ _ N.n.B.B.4.:.r.C.P.8.V               ",
"                  5 G L ~ F F $.N.B.5.F F F F F F Q >.m.B.M.2.&.B.B.B.B.B.z.n.d.w.n.N.w.            ",
"                  z ..! P G F G @.N.b.G F F F F F F ! >.m.B.z.-.m.B.B.B.B.M.B.B.B.B.B.B.w.          ",
"                  f .. .W ~ F F w f.B.) F F F F F F L ! &.m.m.M f.B.B.B.B.B.B.B.B.M.B.B.w.          ",
"                  m ......^ ~ F S I n.5.F F F S u F F P L ..M i 4.B.B.B.B.B.B.B.=.j.B.l.            ",
"                g  .|  ...! / F F y O.c.G F S t 4 F F F A q y A 3.B.B.B.B.B.m.@.U N.v.h             ",
"              s  .| 7.0. ...L F F F A L G S 8 y y F F i e A F e n.B.m.m.4.:.T c g.k.g               ",
"            % n ....X.o.....Q A F F F F Z 6 u S y A e x D F u e $.$.&.W x n r J W 3 .               ",
"          X 7 F L ! ! ......! i F F S t 6 S F r e v K F F F 2 S F S y 2 A A t t 1 *                 ",
"      - m f P L F F G G L L L S u 9 t y F F i H W L F F S 4 8 S 8 2 t A 8 , 4 1 & O                 ",
"    ; J ! ! ! P L F F F F F F S Z S F F F S D G F F F u , < 6 6 y S S y y y 7 :                     ",
"    0 S F D S A S S S F F F F F F F F F F F F F F F F u 8 u F F F F S A 1                           ",
"          $ # # # # & ; : > 5 5 7 r Z Z 9 Z 9 Z Z 9 Z Z A 7 r 7 5 5 >                               ",
"                                                                                                    "
};
