/* XPM */
static char *giphy_2__dragged___1__resized[] = {
/* columns rows colors chars-per-pixel */
"50 50 147 2 ",
"   c None",
".  c #FF5756",
"X  c #FF5855",
"o  c #FF5758",
"O  c #F55C5D",
"+  c #FE5858",
"@  c #FE605E",
"#  c #FF4F67",
"$  c #FF4E6B",
"%  c #FF5164",
"&  c #FF5E60",
"*  c #FD5B6D",
"=  c #FF4677",
"-  c #FF4579",
";  c #DD6767",
":  c #DC6867",
">  c #DC6968",
",  c #D66D6C",
"<  c #C27C7C",
"1  c #E16666",
"2  c #E86666",
"3  c #E06866",
"4  c #E66868",
"5  c #FF6362",
"6  c #FD6D6C",
"7  c #F16A6B",
"8  c #FE7170",
"9  c #F27778",
"0  c #FF3A8B",
"q  c #FF3695",
"w  c #FF3994",
"e  c #FF339B",
"r  c #FF30A4",
"t  c #FF579A",
"y  c #FF5F9D",
"u  c #FC7E84",
"i  c #EC6D9A",
"p  c #FF619C",
"a  c #FE54A4",
"s  c #FE4ABD",
"d  c #F86BA1",
"f  c #FD7CAD",
"g  c #FF1ACC",
"h  c #FF0FDF",
"j  c #FF17D3",
"k  c #FF1AD2",
"l  c #FF11DD",
"z  c #FF38DB",
"x  c #FF09ED",
"c  c #FF05F4",
"v  c #FF01FE",
"b  c #FF0DFE",
"n  c #FF16F7",
"m  c #FE16FE",
"M  c #FF18FE",
"N  c #FF22FE",
"B  c #FF2CFE",
"V  c #FF37F7",
"C  c #FF31FE",
"Z  c #B746FF",
"A  c #BD58FD",
"S  c #CC4AD6",
"D  c #FF4AFF",
"F  c #FE56FD",
"G  c #FF5EFE",
"H  c #FE6BE0",
"J  c #FF63FE",
"K  c #FF76FF",
"L  c #FF7CFE",
"P  c #74AEBA",
"I  c #6EB7B7",
"U  c #3DD7D7",
"Y  c #35DCDC",
"T  c #3BD9D9",
"R  c #19EFEF",
"E  c #0EF6F6",
"W  c #01FFFF",
"Q  c #13FBFB",
"!  c #26E6E6",
"~  c #2EE0E0",
"^  c #20EAEA",
"/  c #24FFFF",
"(  c #28FFFF",
")  c #2EF6F9",
"_  c #33FFFF",
"`  c #3CFFFF",
"'  c #48CFCF",
"]  c #4AC7DA",
"[  c #43D3D3",
"{  c #5BDDDD",
"}  c #56D6DA",
"|  c #63DEDF",
" . c #41FEFE",
".. c #55FFFF",
"X. c #5BFCFC",
"o. c #67FFFF",
"O. c #6BFCFC",
"+. c #73FDFD",
"@. c #7AFEFE",
"#. c #8F9E9E",
"$. c #9B9797",
"%. c #949A9A",
"&. c #989A9A",
"*. c #AC8A8A",
"=. c #A49198",
"-. c #A69A9A",
";. c #82A5A5",
":. c #FB8B8C",
">. c #C2A5A6",
",. c #FDB4B7",
"<. c #FF8CDF",
"1. c #FEBCC0",
"2. c #FDA3DD",
"3. c #FF8BE0",
"4. c #FF86EC",
"5. c #FF83FF",
"6. c #FF89FF",
"7. c #FF94FE",
"8. c #FF98FF",
"9. c #FFA2FF",
"0. c #FFAAFF",
"q. c #FFB6F7",
"w. c #FFB5FD",
"e. c #FFBEFF",
"r. c #B0DCE0",
"t. c #9AE5E6",
"y. c #81F9F9",
"u. c #8CFFFF",
"i. c #9DFFFF",
"p. c #A6FEFE",
"a. c #A9FEFE",
"s. c #B5FFFF",
"d. c #BAFFFF",
"f. c #F3C0C3",
"g. c #FED3D6",
"h. c #CCCBFD",
"j. c #FDDEE7",
"k. c #FFC0FF",
"l. c #FFCEF9",
"z. c #FFD1F8",
"x. c #FFDBFF",
"c. c #D0E4F8",
"v. c #C1FCFD",
"b. c #CAFFFF",
"n. c #D8FFFF",
"m. c #E4ECED",
"M. c #FEE1FF",
/* pixels */
"              M.e.0.w.w.q.q.q.q.q.q.q.q.q.q.q.q.q.q.q.q.q.q.q.q.q.q.q.q.q.q.q.q.q.l.                ",
"          0.K F V z s a t t t t t t t t t t t t t t t t t t t t t t t t t t t t t d ,.,.1.          ",
"      x.5.B v l e # o X o X X X X X X X X X X X X X . . X X X X . X X . X X X X X X + 5 9 t.o.@.v.  ",
"      K b v j - X X X X o o X o . o o X . . . . X o X . . . . . . X . o X . . . o o o o 3 Y W / a.  ",
"    L m v l - X o o o o o o o + . . o X X o . . X o X o . . o o o o o X o o X . X o o X 1 Y W / a.  ",
"  0.B v c q X X o o o o o o o + o o o X o o X o o o o o . . o . o o o o o o o o o X o X 1 Y W / a.  ",
"  K v v g % o o o o o o o o + . X X o o X o X X o X o X . . . o X o o X . o o o o o o o ; Y W / a.  ",
"e.D v c e X o o o o o o o o . . o X X o o o o o o o o X o o . . o o o o o o o o o o o o 1 Y W / p.  ",
"8.N v x - o o o o o o o o o o . . . o X o o o o X o . . . . . . o o o o X o . . o o o o ; Y W / p.  ",
"7.M v l $ X o o o o o o . o . . . . . . X X o o . . . . . . . . o o o X X X . . . . o o 3 T W / a.  ",
"6.M v j # o o X o o o O *.#.%.%.%.%.$.%.#.%.%.%.%.$.%.%.$.%.%.%.%.%.%.%.%.%.%.%.%.%.%.%.;.^ W / p.  ",
"6.M v j % o o o o o o 2 U E Q O.@.@.y.y.y.@.y.y.@.y.@.y.@.y.y.+.y.y.y.y.@.y.y.y.y.@.y.y.y.@.@.u.b.  ",
"6.m v j % o o o o o X 2 U W / s.                                                                    ",
"6.M v j % o o o o o X 2 U W (                                                                       ",
"6.M v j # o o o o o X 2 U W (                                                                       ",
"6.M v j % o o X o o o 2 U W (                                                                       ",
"6.M v j # o o o o o o 2 U W (                                                                       ",
"6.M v j # X o o o o o 2 U W (                                                                       ",
"6.m v j % X X X o o o 2 T W (                                                                       ",
"6.M v g # X X o X o o 2 U W (     9.L L 4.<.3.3.<.<.<.3.<.<.<.<.<.<.<.<.<.<.<.<.<.2.                ",
"6.M v j % X X X o X o 2 T W (     J v c r $ $ $ $ $ $ $ $ $ $ $ $ % $ $ $ # # $ $ * 6 6 :.m.b.n.    ",
"6.M v j # X X o o o X 2 T W (     G v c w X X X X X X X X X X X X X X X X X X X X X . . 2 | ` ..d.  ",
"6.M v j # X o . o o o 2 U W (     G v v q X + o + + o o o o X + X o o X o o o X o o o X ; Y W / p.  ",
"6.M v j # X o . o o o 2 U W (     J v v w X o o X o o o o + X + o X o X o o o o o X X o 1 Y W / p.  ",
"6.M v j % o o o X o o 2 U W (     G v c w X o o o o o o o o o o o X o X o o o X o . . . ; Y W / a.  ",
"6.M v j # X o o o o o 2 U W (     G v v w X o o o o o o o o o o o X X o o o X o X . o . 3 Y W / a.  ",
"6.M v j % X o o X o o 2 U W (     G v v w X o o o o o o o o o o o X X o X o o o o o o . 3 Y W / a.  ",
"6.M v j % X o X o o o 2 U W (     J b c w X o o o o X o . . . X X X o o X o o X o . o o 3 Y W / p.  ",
"6.M v j % o o o o X o 2 T W (     6.D F f 8 5 7 > : ; : ; ; ; ; ; > > : 1 . o o X o o . 3 Y W / a.  ",
"6.M v j % X o X o o X 2 U W (                 r.| { { { { { { { { } ] ] P O . o o o o . 3 Y W / a.  ",
"6.M v j % X X X o o o 2 U W (                   d.s.d.d.d.d.s.s.s.h.A Z S o . . . . o . 3 Y W / p.  ",
"6.M v j % X o o o o o 2 U W (                                     8.m v j # o o o . . . > Y W / p.  ",
"6.M v j % o o o X o X 2 U W (                                     8.m v j % . . . o . . 1 Y W / p.  ",
"6.m v j % X o o X o o 2 U W (                                     7.m v g % . . . o . . 1 T W / p.  ",
"6.M v j % X X o o X o 2 U W (                                     7.m v j % o X o o o . 1 Y W / a.  ",
"6.M v j % X o o o o o 2 U W (                                     8.m v j % X o X o o . ; Y W / p.  ",
"6.M v j % o o o o . . 2 U W /                                     8.m v j o X o o . o . 1 Y W / p.  ",
"6.M v j % X X o o . . 2 [ E ) c.z.z.z.z.l.z.z.z.l.z.l.z.z.z.l.l.z.7.n c j # X o . o o . 1 Y W / a.  ",
"8.M v j % X o X . . . O *.%.=.i t p p y p p t y p y p y p y y y p t w q 0 o o o o o o o ; Y W / a.  ",
"8.N v l $ o o X . o . . . . . . X X X X X X . . X X X X X X X X X X X X X X o o X X o o , ! W / a.  ",
"e.D v x = X X X . . X X X o X X . . . . . . . X X o X o X X X X o X X X o X X X o X . . < R W ` b.  ",
"  5.v v e X X X X . o X o X X o . . . . . . X . X . X o o o o o o o o X X o o X X o . X #.E W ..    ",
"  e.C v g o X X . X o X o X o o . . . . . . . X o X X X o X X . . o o o o . . . X . . 2 ' W W @.    ",
"    L m c w X X X . o X X . o X . . . . . . . . . o X X o o . . o X X o X o . . o o . $.E W / a.    ",
"      L m h = X X X X X X X o X . . . . . . . . o o X o . . . . X X o X X o . . X o < ~ W W O.      ",
"        6.B k - o o o X X o X o . . . . . . . . X o X o . . o . X o X o X . . . . < [ W W  .a.      ",
"          e.L H i u 7 5 X X . . . . . . . . . . . . . . . . . X . . . . . . O , #.~ W W ` p.        ",
"                  j.g.1.>.=.$.$.%.%.$.%.$.$.%.%.$.%.%.$.%.%.$.%.$.%.%.$.%.#.I Y Q Q _ @.d.          ",
"                        v.p.+.X.X.X.X.X.X.X.X.X.X.X.X.X.X.X.X.X.X.X.X.X.X.X.....O.i.d.              ",
"                                                                                                    "
};
