/* XPM */
static char *giphy_2__dragged___2__resized[] = {
/* columns rows colors chars-per-pixel */
"50 50 144 2 ",
"   c None",
".  c #BA7F7E",
"X  c #E55F5F",
"o  c #FF5756",
"O  c #FF5855",
"+  c #FF5758",
"@  c #FE5858",
"#  c #EC615F",
"$  c #FF4F65",
"%  c #FF4C6C",
"&  c #FF5065",
"*  c #FE5A6A",
"=  c #FF447C",
"-  c #DE6766",
";  c #DE6867",
":  c #DE6768",
">  c #DD6868",
",  c #C67979",
"<  c #D07272",
"1  c #E36464",
"2  c #E06867",
"3  c #E96666",
"4  c #FF6F6F",
"5  c #FC777A",
"6  c #FD7D7C",
"7  c #B9807F",
"8  c #FF807E",
"9  c #FF3B8D",
"0  c #FF3696",
"q  c #FF3892",
"w  c #FF329D",
"e  c #FF28AF",
"r  c #FF26B5",
"t  c #FF28B1",
"y  c #FF22BB",
"u  c #BD7F80",
"i  c #D54FB3",
"p  c #FE45A3",
"a  c #FF5CA7",
"s  c #FF5CA8",
"d  c #F364A7",
"f  c #FF1ACB",
"g  c #FF20C6",
"h  c #FF0AE6",
"j  c #FF0BE9",
"k  c #FF10E1",
"l  c #FF05F6",
"z  c #FF02FE",
"x  c #FF0CFE",
"c  c #F10EFE",
"v  c #FF10FE",
"b  c #F918F9",
"n  c #FF25FF",
"m  c #FF2EFE",
"M  c #FF34FE",
"N  c #B04FFF",
"B  c #B452FE",
"V  c #FF7FD8",
"C  c #FF45FE",
"Z  c #FF4DFE",
"A  c #FF5DFE",
"S  c #FE7EE7",
"D  c #FF65FF",
"F  c #FF69FE",
"G  c #FF7DFE",
"H  c #FF73F6",
"J  c #74B1B1",
"K  c #699FF7",
"L  c #61A1F9",
"P  c #3CD6D6",
"I  c #37DBDA",
"U  c #1BEEEE",
"Y  c #0BF7F7",
"T  c #00FFFF",
"R  c #0BF9F9",
"E  c #14F2F2",
"W  c #19F0F0",
"Q  c #1DFDFD",
"!  c #23FEFE",
"~  c #2CFFFF",
"^  c #34FEFE",
"/  c #39FFFF",
"(  c #4ECACA",
")  c #4BC6D6",
"_  c #40D5D5",
"`  c #52D3D6",
"'  c #5AD6D6",
"]  c #59D8D7",
"[  c #56DADA",
"{  c #65C6C6",
"}  c #6ADCDC",
"|  c #76D9F4",
" . c #4AE2E3",
".. c #47FEFE",
"X. c #4BFFFF",
"o. c #5FFFFF",
"O. c #6DFBFB",
"+. c #77FBFB",
"@. c #79FCFC",
"#. c #8F9D9D",
"$. c #999696",
"%. c #95969F",
"&. c #909D9D",
"*. c #AA8989",
"=. c #B78180",
"-. c #BB8180",
";. c #A29191",
":. c #9B98A1",
">. c #A981B1",
",. c #84A3A2",
"<. c #FE8585",
"1. c #F69899",
"2. c #FD9193",
"3. c #FEA6A9",
"4. c #BEACFD",
"5. c #FE87CF",
"6. c #FF81D5",
"7. c #FE84D8",
"8. c #FF82FF",
"9. c #FE97FE",
"0. c #FF99FF",
"q. c #FDA1E0",
"w. c #FFA4FF",
"e. c #FFACFF",
"r. c #B6CFD0",
"t. c #82FFFF",
"y. c #8DFFFF",
"u. c #94FDFE",
"i. c #9AFFFF",
"p. c #A4FFFF",
"a. c #ADFFFF",
"s. c #B4FEFE",
"d. c #B8FEFE",
"f. c #CCD5D6",
"g. c #FEC7CA",
"h. c #FECEE7",
"j. c #FFC2FC",
"k. c #E5DCFB",
"l. c #FFDCFF",
"z. c #D5E0E1",
"x. c #CAFEFE",
"c. c #D4FFFF",
"v. c #DDFEFF",
"b. c #E0FDFF",
/* pixels */
"                                                                                                    ",
"              e.0.G H 7.V 7.6.6.6.6.6.6.6.7.6.6.6.6.6.7.6.6.6.6.6.6.7.q.h.                          ",
"          e.F n b g q = % $ $ & & & & & & & & & & & & & & & & & & & & * 5 <.2.3.g.                  ",
"        w.M z h 0 & o o + + + o @ o o o o O o o o o o O o o o o o o o o + + o @ 4 1.r.i.            ",
"      w.m z j 9 + + + + + + + o @ + @ @ o @ @ o o o o + o o @ @ + + + + @ @ o o o o > { ..u.        ",
"      C z l w + + o + + + + + @ @ @ o o o @ @ o @ o @ @ @ o o @ + + + + o @ o o o o o < I ! @.      ",
"    G x z f $ o + o + + + + + o o o o o o @ o o o o o o @ o @ o @ + o + + + @ @ o + o o $.R ~ p.    ",
"  l.Z z l q o + + + + + + + + + + o o o @ o o @ o @ @ o o o @ o o @ o + + o @ @ + + + o 1 _ T X.    ",
"  w.n z k % O o O o @ o + + + + + o o + o o o o o @ + o + o o + o o o o o o o o + + + + + J T ! p.  ",
"  w.x z f & O O O @ @ @ + + + o o o o o o o o o o o o o o o o o o o o o o o o o o o o o o ;.Y T @.  ",
"  0.z z y @ o o + + @ + @ : 2 2 - : 2 : 2 - : > - - - > : - - : 2 - - 2 - # o o o o + + o u E T O.b.",
"  0.z z t @ O o o o o o < ( P P ` ] ' ' ' ' ] ' ' ' ' ' ' ' ' ' ' ' ` ) ) %.@ o o o o o o . E T ..x.",
"  0.z z t o o O o @ o o u E T ! p.a.a.a.a.a.a.a.a.s.a.a.a.a.a.a.a.a.4.B N i o o o O o o o . U T ~ d.",
"  0.z z t + o o o + o o u W T / v.                                  A z z r @ o o o o o o . E T ^ d.",
"  0.z z t o o o o @ + o u W T / v.                                  A z z r @ @ o o @ o o . E T ~ s.",
"  0.x z t o @ + o @ + o u W T / v.                                  A z z r @ o o o o @ o . E T ^ s.",
"  0.z z t @ o o o + o o u W T / v.                                  A z z r + o o o o o o . U T ^ s.",
"  0.z z t o o o o + + o u U T / b.                                  A x z r + o o o @ o o . E T ^ s.",
"  0.z z t o o o o o + o u E T / b.                                  D x z r + + o o o + o . E T ^ s.",
"  0.x z t @ + o + + + + u U T / k.j.j.j.j.j.j.j.j.j.j.e.j.j.j.j.j.j.F l z r + + o o + + o . E T ^ s.",
"  9.z z t + + + + + + o 1 &.,.%.d s a a a a a a a a a a d d a a a a p 0 w = + + @ o + + o . E T ~ s.",
"  9.z z e o + o o + + + + o o o o o O O o O O O O O O O O O O O O o O O o O o + o @ + @ o . E T ^ s.",
"  9.x z e o + o + + + + + + + o o o o o O o o o O O o o o o O O o o o o o o o o o o @ @ o . E T ^ s.",
"  9.z z t o o o o o + + + + o + o o o + o o o o o o o o o o o o o @ o o o o + o @ o o o o . E T ^ s.",
"  0.z z e o + + o + + + + + o + O o o @ o + o o o o o @ o o o @ O + o + + O + o o o o o o . E T ^ s.",
"  0.x z e o + o + + + + + + + + @ o o o + + o o o o o @ o @ o o + o + O O + o + o o o o o . E T ^ s.",
"  9.z z t o o + + o + + + + + + @ o o o + o o o o o o o o @ + o o O o O + + + o o o o o o . W T ^ s.",
"  0.z z t + + + + o + + + + + + @ o o o o @ o o o o o + o o o @ o O o O + O O + o o o o o . E T ^ s.",
"  9.z z t + + + + o + + o o o o o o O O o O o o o o o O o o O o o O O o o o + o o + o + o . W T ^ s.",
"  0.z z t + o o + + o + 1 $.#.&.#.#.#.#.&.&.#.&.#.#.#.&.&.#.#.#.#.#.#.#.#.. + + o o + + o . U T ^ s.",
"  0.z z t + + o + + o o . U T Q O.+.+.+.+.+.+.+.+.+.+.+.+.+.+.+.+.+.| L K u + + o + + + o . E T ^ s.",
"  0.z z t o + + + + o o . U T / c.                                  9.c c g o + + o + + o . E T / s.",
"  0.z z e o o o @ + o o u E T / v.                                  G v z r + o + o + + o . E T ^ s.",
"  0.x z t + o @ + + o o u W T / v.                                  8.v z y + o o + + o o . E T / s.",
"  0.z z r o o o o + + o -.W T / b.                                  8.x z r + + + + + + o . E T ^ s.",
"  9.z z t @ o @ @ o + o -.W T / v.                                  8.x z r + + + o + o o . E T ^ s.",
"  9.x z t o o o o o o o 7 W T / v.                                  8.x z t + o o o o o o . U T ^ s.",
"  0.z z t + + + + + + o -.W T / b.                                  8.x z r + o o o o o o . E T ^ s.",
"  9.x z t o o o o + + o -.W T / v.                                  8.x z r + o o o o o o . E T ^ d.",
"  0.z z t o o o o + o o -.W T / b.                                  8.x z r + o o o o o o . E T ^ a.",
"  0.z z e O O O o o O O . W T / b.                                  8.x z r o O O O o o O . W T ^ s.",
"  0.z z e O O O o o O O 7 W T / b.                                  8.x z t o O O O o o o . W T ^ s.",
"  0.l z e O O O o o o O -.W T / b.                                  G x z r o o O O O o o 7 E T ^ s.",
"  0.z z e O O O o o o O -.W T / b.                                  8.x z r o O O O O o o . W T ^ s.",
"  0.z z e o O O O o o o 7 W T / b.                                  8.v z r + o O O O O o . W T ^ s.",
"  0.z z e O O O O o O o 7 W T / b.                                  8.x z r + o O O O O O . W T ^ s.",
"  0.x z e O o O o o o o -.W T / b.                                  8.v z r O O O O O O o . E T ^ d.",
"  j.F F 5.<.6 5 1 X 1 # *.E T / b.                                  e.F D 5.8 6 5 1 X # X *.E T ~ d.",
"              f.} [ [ [  .! Q X.b.                                              z.} [ [ [  .! ! X.d.",
"                u.@.@.t.t.y.t.i.                                                  u.t.t.t.t.t.t.i.  "
};
