/* XPM */
static char *giphy_2__dragged___3__resized[] = {
/* columns rows colors chars-per-pixel */
"50 50 138 2 ",
"   c None",
".  c #E95F5F",
"X  c #FF5656",
"o  c #FF5855",
"O  c #FF5758",
"+  c #F45B5C",
"@  c #FE5A59",
"#  c #E9605F",
"$  c #FF615D",
"%  c #FE4F67",
"&  c #FF4D69",
"*  c #E95F60",
"=  c #ED5A6C",
"-  c #FF5160",
";  c #F05F60",
":  c #FE5A72",
">  c #CF7473",
",  c #D57070",
"<  c #E66464",
"1  c #EA6161",
"2  c #FE6363",
"3  c #F76A6B",
"4  c #FE7E7D",
"5  c #FF3E82",
"6  c #FF2F9F",
"7  c #FF3695",
"8  c #FF319E",
"9  c #FF1FBF",
"0  c #FF2CA9",
"q  c #FF31A0",
"w  c #FA38A0",
"e  c #FF28B1",
"r  c #FF21BE",
"t  c #BB7899",
"y  c #FF579A",
"u  c #FD5F9E",
"i  c #FC4FA9",
"p  c #FD58AE",
"a  c #FE4DB2",
"s  c #FD77A6",
"d  c #FF16D4",
"f  c #FF11DB",
"g  c #F31EDD",
"h  c #FF3ECC",
"j  c #FF05F5",
"k  c #FF02FD",
"l  c #F00EFF",
"z  c #FF0DFE",
"x  c #EF12FC",
"c  c #FF14FE",
"v  c #FF19FF",
"b  c #F212FD",
"n  c #FE37E1",
"m  c #FF35EC",
"M  c #FF24FF",
"N  c #FF2AFE",
"B  c #F430FE",
"V  c #FF32FD",
"C  c #FF46FE",
"Z  c #FF4AFE",
"A  c #FD56FD",
"S  c #FF5CFE",
"D  c #FF67FF",
"F  c #FF72FF",
"G  c #FF7EFF",
"H  c #7FA9A9",
"J  c #69B8B8",
"K  c #62BDBD",
"L  c #5FA7F7",
"P  c #5EA2F9",
"I  c #64A1F6",
"U  c #67B0F8",
"Y  c #3DD6D6",
"T  c #00FFFF",
"R  c #0AF9F9",
"E  c #0FF4F4",
"W  c #11F4F4",
"Q  c #16FFFF",
"!  c #19FFFF",
"~  c #26E7E7",
"^  c #25FFFF",
"/  c #2DF9F9",
"(  c #34FFFF",
")  c #47CECE",
"_  c #5FC0C0",
"`  c #42D3D3",
"'  c #78D1F5",
"]  c #55FFFF",
"[  c #5BFEFE",
"{  c #7FEDF8",
"}  c #61FDFD",
"|  c #69FFFF",
" . c #67F3F3",
".. c #75FFFF",
"X. c #7AFAF9",
"o. c #8E9C9A",
"O. c #9F9393",
"+. c #939A9A",
"@. c #9A9C9C",
"#. c #A58F8D",
"$. c #AA8D8D",
"%. c #A59191",
"&. c #8BA1A1",
"*. c #A5A6A6",
"=. c #B8A4A5",
"-. c #FE9B9C",
";. c #DEB0B2",
":. c #FEADAE",
">. c #FEA9B0",
",. c #FEB6B7",
"<. c #FEB4BA",
"1. c #8290E0",
"2. c #FDB9D3",
"3. c #FDBFDA",
"4. c #FF84FF",
"5. c #FF90FF",
"6. c #FF9EFE",
"7. c #FEAEF1",
"8. c #FFA3FE",
"9. c #FFB6F7",
"0. c #FFB9F7",
"q. c #FFB5FD",
"w. c #F7BAFE",
"e. c #FFB9FF",
"r. c #82FCFC",
"t. c #8EFFFE",
"y. c #91FFFE",
"u. c #9EFFFF",
"i. c #ACFEFF",
"p. c #B9FBFC",
"a. c #FDC5C8",
"s. c #F2D0D2",
"d. c #FED9DC",
"f. c #FED2FF",
"g. c #C7F4F5",
"h. c #CBFDFE",
"j. c #E3FFFF",
"k. c #E9FFFF",
/* pixels */
"                f.e.q.q.9.9.9.9.9.9.9.9.0.9.9.0.0.9.9.9.9.9.9.0.9.9.0.f.                            ",
"            6.D C m h a i y y y y y y y y y y y y y y y y y y y y y u s :.,.a.d.                    ",
"        q.S v j d & % X o o o o o X o o X o o X o o o o o o o o X o X X @ ; 2 4 -.s.g.              ",
"      8.Z k j 0 O o o X o o X o X X X o X X X X o X X X X X X o O O O O O O O X @ 3 *. .t.          ",
"      A k k e O X X o X O O O O X X O X @ X X X X @ O X X X X X O O O O O O X X O X + H ^ ..        ",
"    5.c k d & O O O X X O O O O X X X X O X X @ X X X X X X X O O O O O O O X X X X X < ) Q r.      ",
"    C k j 7 O X X X O O O O X O X X O O X X X X X @ X @ O X X O O O O O X O X X @ X O X #.E ! i.    ",
"  6.M k f & X O X O O O O X O O X X X X @ X X X X X X O X X O X O O O O O O X X X O O X < Y T ] j.  ",
"  G z k r O X X o X X @ O O O O O X O @ X @ X X X O O X X X O X X X X X X X X X X X X X + J T ^ u.  ",
"  4.k k 0 X X X X X X X O X X X X X o X X X X X X O O O O X X X X X X X X X X X O O O O O &.R T ..  ",
"  F k k q X @ X X @ X X , +.+.+.+.+.o.o.#.# X X X O O O + $.o.+.+.+.o.+.+.> X X X O X X X O.R T |   ",
"  F k k 8 X O X O X X X O.E R / X.{ U I 1.= o X @ X O X 1 ` T W [ r.' L I t X X O O X X - #.R T } j.",
"  F k k q o @ X X O X X O.R T (   w.B l g & X X X O O X * Y T Q u.  A b x w O O X O O O X #.R T [ j.",
"  F k k 8 o X X X X X X O.R T ^   e.M k f & X @ X X X X * Y T Q y.  V k k q X @ O X O O X O.R T [ j.",
"  F z k 8 o X X @ X O X O.R T ^   e.N k f & X X X X O X 1 Y T Q y.  V k k 8 O O X O X O X $.R T [ j.",
"  F k k 8 o X X X X O X O.R T ^   e.M k f - X @ X X O X 1 Y T Q t.  V k j 8 O O X X O O X %.R T [ j.",
"  F k k 8 o X X X X X X O.R T ^   e.N k f & O O O X O X 1 Y T Q y.  V k k 8 X @ X X X X X %.R T [ j.",
"  F k k 8 o X X X X X X O.R T ^   e.M k f & @ X X O X X 1 Y T Q y.  V k k 8 X X X X X @ X #.R T [ j.",
"  F k k 8 o X X X X X X O.R T ^   e.N k f & X X X X X X 1 Y T Q t.  V k k 8 X @ X X X @ X #.R T [ j.",
"  F k j 8 o X X X - X X O.R T ^   e.M k f - o X X X @ X * Y T Q t.  V k j 8 X X X X X X X %.R T [ j.",
"  F z k 6 o o X X X X X O.R T ^   e.N k f & X @ X O O X 1 Y T Q y.  V k k 8 o o X @ @ X X %.R T [ j.",
"  F k k 6 X X o X X X X O.R T ^   e.M k f & X X O O O O 1 Y T Q y.  V k j 8 X X o o X X X %.R T [ j.",
"  F k k 6 o - X X X X X O.R T ^   e.N k f & O O O X O X 1 Y T Q y.  V k j 8 X X o X X X X %.R T } j.",
"  F k k 6 o X X X X X X O.R T ^   e.N k f & X O O O X X . Y T Q t.  V k j 8 X O X X X @ X #.R T [ j.",
"  F k k q o X @ X X O X #.R T ^   e.M k f & X @ O X O X * Y T Q y.  V k k 8 @ O X O O O X %.R T [ j.",
"  F k k q o X X X X O X O.R T ^   e.N k f % X X X X O X * Y T Q y.  V k j 8 X O O X O O X %.R T [ j.",
"  F k k 8 o X X X X X X O.R T ^   e.N k f & X X X O O O 1 Y T ! y.  V k k 8 X @ X O O O X #.R T [ j.",
"  F k k 7 @ X X X X X X O.R T ^   e.N k f & X O @ X X X . Y T Q y.  V k j q X X X O O O O #.R T [ j.",
"  F k k 8 o X X O X O X O.R T ^   e.N k f & O O X O O X 1 Y T Q y.  V k j 8 X O X X O O X %.R T [ j.",
"  F k k q o X X O X O X O.R T ^   e.M k f & @ X O O O X 1 Y T Q y.  V k k 8 X X O O O O X %.R T [ j.",
"  F k k 8 o @ X O O X X O.R T ^   e.N k f & X O O X O X 1 Y T Q y.  N k j q X X O O X O X %.R T [ j.",
"  F k j 8 o @ X X X X X O.R T ^   e.M k f - X X X X X X . Y T ! y.  V k k q X O O O O O X %.R T [ j.",
"  F k k 8 o X @ X O X X O.R T ^   e.N k f & X X O O O X 1 Y T Q y.  V k k 8 X X X X O O X %.R T [ j.",
"  F k k 8 o X X @ X X X O.E T ^   e.N k f & X O O X O O 1 Y T Q y.  V k k 8 o X @ X O O X %.R T [ j.",
"  F k k 8 X O X X O O X O.R T ^   e.M k f & X O X O O X * Y T Q t.  N k k 7 X X @ O X O X %.R T [ j.",
"  F k k 8 o X @ X X O X O.R T ^   e.N k f & X X O O O X 1 Y T Q t.  V k k 8 X X X X O O X %.R T [ j.",
"  F k k q o X @ X X X X O.R T ^   e.N k f & X X O X X O 1 Y T Q y.  V k k 8 X X O O X O X %.R T [ j.",
"  F k k 8 o X X X X X X O.R T ^   e.N k f - o X O O X X 1 Y T ! y.  V k k 8 X @ O X O X X #.R T [ j.",
"  F k k 8 o X X O O X X O.R T ^   e.N k f & o X X X O X 1 Y T ! y.  V k k 8 X X X O X X X %.R T [ j.",
"  F z k 8 o X X X X X X %.R T ^   e.N k f & o o X X X X 1 Y T ! y.  V k j 8 @ X X O X X X %.R T [ j.",
"  F k k 8 o o X X X X o #.R T ^   e.M k f & o o X X X o # Y T ! y.  N k k 8 X X X X X X o %.R T [ j.",
"  F z k 8 o o X X X o X O.R T ^   e.N k f & o o X X X o # Y T Q y.  V z j 8 @ o X X X X o #.R T [ j.",
"  F k k 8 o X o X X O X O.R T ^   e.M k f & X o X X X o # Y T Q y.  V k k 8 X o X o X X X %.R T [ j.",
"  F k k 7 o o o X O X o O.R T ^   e.N k f & o o X X X X 1 Y T ! y.  V k k 8 X o X X X X o %.R T [ j.",
"  F k k 8 o o X X X X X O.R T ^   e.N k f % o o X @ o o . Y T Q y.  V k k q O X o o X X o #.R T [ j.",
"  F k k 8 o o o o o X X O.R T ^   e.M k f % o o X X X o . Y T ! y.  V k j 8 X o X X o X X #.R T [ j.",
"  4.N N p $ X o X X X X O.R T ^   e.C M n : o @ o o o o . Y T Q y.  C N N i $ @ X o X o X $.R T [ j.",
"        3.:.:.;.+.O.+.+.K R T ^         7.,.:.:.=.+.+.+.&.~ T ! t.        2.:.:.;.@.+.+.+.K R T [ j.",
"              h.} [ [ [ [ ] ] |                 t.[ [ [ [ ] ] [ i.              p.[ [ [ [ [ ] ] t.k.",
"                                                                                                    "
};
