/* XPM */
static char *giphy_2__dragged___4__resized[] = {
/* columns rows colors chars-per-pixel */
"50 50 131 2 ",
"   c None",
".  c #FF5756",
"X  c #FF5855",
"o  c #FF5758",
"O  c #FE5959",
"+  c #FF4E6B",
"@  c #FF5163",
"#  c #F15F61",
"$  c #FE5F61",
"%  c #FA536D",
"&  c #FF586C",
"*  c #FF4677",
"=  c #FF4874",
"-  c #FF4579",
";  c #DD6767",
":  c #DC6867",
">  c #DF6669",
",  c #DC6969",
"<  c #C67676",
"1  c #E46565",
"2  c #E26867",
"3  c #E06668",
"4  c #E46868",
"5  c #E86B6B",
"6  c #F06060",
"7  c #FE6B6B",
"8  c #F37979",
"9  c #FF3596",
"0  c #FF3991",
"q  c #FF329A",
"w  c #FF579A",
"e  c #FF589A",
"r  c #F27F80",
"t  c #FD7E83",
"y  c #EF6A9A",
"u  c #FF609C",
"i  c #FB7A9F",
"p  c #FF54A5",
"a  c #FE4CBA",
"s  c #FA6DA1",
"d  c #FF1CC7",
"f  c #FF0FDE",
"g  c #FF16D6",
"h  c #FF1ED1",
"j  c #FF13DA",
"k  c #FF39D9",
"l  c #FF0CE7",
"z  c #FF0BE9",
"x  c #FF05F4",
"c  c #FF00FF",
"v  c #FF0CFE",
"b  c #FF12FE",
"n  c #FF26FE",
"m  c #FF29FE",
"M  c #FF35F6",
"N  c #FF3DFF",
"B  c #FF65DF",
"V  c #FF42FE",
"C  c #FF53FF",
"Z  c #FF65FF",
"A  c #FF6EFF",
"S  c #FF74FF",
"D  c #FF7AFF",
"F  c #34DCDC",
"G  c #38DADA",
"H  c #1FEBEB",
"J  c #00FFFF",
"K  c #1CFCFC",
"L  c #2CE2E2",
"P  c #23E9E9",
"I  c #2CFFFF",
"U  c #31F7F9",
"Y  c #32FFFF",
"T  c #3CFFFF",
"R  c #54C5C5",
"E  c #4DD6DC",
"W  c #52DBDC",
"Q  c #5BDDDD",
"!  c #56E0E0",
"~  c #55FFFF",
"^  c #5BFCFC",
"/  c #64E2E2",
"(  c #64FFFF",
")  c #6BFAFA",
"_  c #70FFFF",
"`  c #79FEFE",
"'  c #949A9A",
"]  c #A48F8E",
"[  c #AA8B8B",
"{  c #A39399",
"}  c #A59A9A",
"|  c #86A3A3",
" . c #BEA0A1",
".. c #FD9596",
"X. c #FD999B",
"o. c #FB83B1",
"O. c #FDB3B5",
"+. c #F1B9BD",
"@. c #D294DA",
"#. c #FF8CDF",
"$. c #FF9CDE",
"%. c #FDBFC0",
"&. c #FF8CE0",
"*. c #FF83FF",
"=. c #FF97FF",
"-. c #FF9AFF",
";. c #FFA9FF",
":. c #FFB6F7",
">. c #FFB8F7",
",. c #FFB5FD",
"<. c #FFB9FF",
"1. c #8DE9EA",
"2. c #81F9F9",
"3. c #8FFFFF",
"4. c #94FEFE",
"5. c #AAE8E9",
"6. c #A1FFFF",
"7. c #AEFAFB",
"8. c #B6FFFF",
"9. c #BCFFFF",
"0. c #FECED2",
"q. c #FDD9DE",
"w. c #FFC2FF",
"e. c #FFCEF9",
"r. c #FFD1F9",
"t. c #FEDDFF",
"y. c #CEE0F7",
"u. c #C1FFFF",
"i. c #CFFFFF",
"p. c #D8FFFF",
"a. c #E3EEEF",
/* pixels */
"                r.w.,.,.,.:.:.:.:.:.:.:.:.:.:.:.:.:.>.:.:.:.:.:.:.:.:.:.:.:.:.:.:.:.e.              ",
"            <.A C M k a p w w w w w e w w e w e w w w w w w w w w w w w w w w w w w o.O.O.0.        ",
"          S m c f q + o . . X X X X X X X X X X X X X X X X X X . X X . X X X X X X O $ $ 8 1.( 2.p.",
"        C v c h - o . . . . . . X . . X o o X X . . . . X . . . o . . o . . X X . o o o . 4 G J T u.",
"      Z b c j * . o o o o o o o X . X X o o o o o o o X . . . . o o o o o o . . X . X o . 1 G J Y u.",
"    <.m c x 0 X o . o o o o o o . . o X o X X o X X o o . . . . . o o o o o o . o . o o . 1 G J Y u.",
"    S c c d @ X . . . o o o o o . o o . X o o o o o X o . o . o . o o . o . . . o o o X . 1 G J Y u.",
"  r.N c x 9 X X . o o o o o . . . . o o o X o X o X o o . . o . . o . o . o . . . o o o . 1 G J Y 9.",
"  w.m c z - X o o o o o . . . . . . . . X X o o o X . . . . . . o . o . . o . . . . . . . 1 G J Y u.",
"  ;.b c j + o o o o o o . . . . . . . . o . . . . . . . . . . . . . . . . . . . . . . . . 1 G J Y u.",
"  -.v c g @ o o o o o o O ' ' ' ' ' ' ' ' ' ' ' ' ' ' ' ' ' ' ' ' ' ' ' ' ' ' ' ' ' ' ' ' | H J Y u.",
"  -.v c g @ o o X o . . ; F J K ) ` 2.2.2.` 2.2.` 2.` 2.2.2.2.` 2.2.2.2.` ` 2.2.2.` 2.2.2.` ` ` 3.  ",
"  =.v c g @ o o o o . . , L J I 8.                                                                  ",
"  -.v c g @ . . X o o . , L J I                                                                     ",
"  -.v c g @ o . X o o . , L J I                                                                     ",
"  -.v c g @ o o o o . . , L J I                                                                     ",
"  =.v c g @ o o o o o . , L J I                                                                     ",
"  -.v c g @ X o . o o . , L J I                                                                     ",
"  -.v c g @ . o o o o o , P J I                                                                     ",
"  -.v c g @ o o . o o o 3 R L E @.#.#.&.#.#.#.#.#.#.#.&.&.#.#.#.#.#.#.#.#.#.#.#.#.#.$.              ",
"  -.v c g @ . o . o o o o 3 , > % + + + + + % + + + + + + + + + + + + + + + + + + + & 7 7 ..a.i.p.  ",
"  -.v c g @ X o o . o o o o . . . X X X X X X X X X X X X X X X X X X X X X X X X X . . . 5 / T ( i.",
"  -.v c g @ X . o . o o o o o o X o X o o o o X o o o X o o X . o o X o X . . o o o X o . 1 G J Y u.",
"  -.v c g @ X . . . o o o o o o o o o X o o o o o X o X o X o . X o o o X . o . X o o X . 1 G J Y u.",
"  -.v c g @ . . o o o o o o o . o X X X X o o . X o . o . o X o . . o . o . . o . o . . . 1 G J Y 9.",
"  -.v c g @ . o X o o o o o o o o . X . o o . . X o . . o . X o . . . o o . . . o . . . . 1 G J Y u.",
"  -.v c g @ X o o o o o o o o o o X . . o o . . o . . . . . o o . . . . . . . . . o . . . 1 G J Y u.",
"  -.v c g @ . o o o X o o o o . . . X . . . . . . . . . . . . . . . . . . . . . . . . . . 1 G J Y u.",
"  -.v c g @ o o o o o o o 1 , 2 , ; : : , ; ; ; : : > , ; ; ; ; ; ; : : , : ; , ; ; ; : ; < F J Y 9.",
"  -.v c g @ o o X o o X 1 R F F W Q Q Q Q Q Q Q Q Q Q Q Q Q Q Q Q Q Q Q Q Q Q Q Q Q Q Q Q ! U I ~ i.",
"  -.v c g @ . o o o o o , L J K 4.9.8.8.8.8.8.8.8.8.8.8.8.8.8.8.9.8.8.8.8.8.8.8.8.8.8.8.8.8.8.9.u.  ",
"  -.v c g @ o . o o o o , L J I                                                                     ",
"  =.v c g @ o o o o o . , L J I                                                                     ",
"  -.v c g @ o o X o o . , L J I                                                                     ",
"  -.v c g @ X o o o o . , L J I                                                                     ",
"  -.v c g @ o . o o X o , L J I                                                                     ",
"  -.v c g @ . o . o . . , L J I                                                                     ",
"  -.v c g @ X . o o o . , F J U y.r.r.r.e.r.r.r.r.r.r.e.r.e.r.r.r.e.r.r.r.e.r.r.r.r.r.              ",
"  ;.b c g @ . . o . . . O [ ' { y e u e u u e u u e u u u u e u u e u u u e u u u u i X...O.        ",
"  w.m c j @ X X o . X . . . . X X X X X X X . . X X X X X X X X X X X X X . X X X X X o X 8 5.3.6.  ",
"  t.V c z = X X . . X . X . . . . . . . . . X . . . . . . X . . X X . . . . . . X X X o . 2 F J Y u.",
"    D c x 0 X X . . X o o O X . . . . . . . . X X X . . . . . . . . . . . . . . . X o X . 1 G J Y u.",
"    ,.m c d @ X . . X X X o o X . . . . . . . X X o . . X . . . X . . . . . . . X X . o . 1 G J Y u.",
"      *.v x 0 X . X X o o o X o . . . . . . . . X o . . . . . . . X . . . . . . . . o X . 1 G J Y 9.",
"        S v j = X X X . X X X o . . . . . . . . o o o X . . . . . . X . . . . . . . . . . 1 G J Y u.",
"        r.D m h * X X . X . X X . . . . . . . . o X o o . . . . . . . . . . . . . . . . . 1 G J Y u.",
"            ;.D B y t 7 o . . X . . . . . . . . . . . . . . . X . . . . . . . X . . . . . 1 G J Y 9.",
"                    q.0.+. .} ' ' ' ' ' ' ] ' ' ' ' ' ' ' ' ' ' ' ' ' ' ' ' ' ' ' ] ' ' ' | P J Y u.",
"                          7.4.) ^ ^ ^ ^ ^ ^ ^ ^ ^ ^ ^ ^ ^ ^ ^ ^ ^ ^ ^ ^ ^ ^ ^ ^ ^ ^ ^ ^ ^ ^ ~ ~ _ i.",
"                                                                                                    "
};
