/* XPM */
static char *giphy_2__dragged___5__resized[] = {
/* columns rows colors chars-per-pixel */
"50 50 141 2 ",
"   c None",
".  c #FF3F7E",
"X  c #BC7D7E",
"o  c #EF5C5B",
"O  c #FF5757",
"+  c #FF5855",
"@  c #FF555B",
"#  c #F25A5A",
"$  c #FC5958",
"%  c #FF4E62",
"&  c #FF4C6A",
"*  c #FF5260",
"=  c #FF417E",
"-  c #DC6969",
";  c #DB6677",
":  c #D9647E",
">  c #CB7473",
",  c #C07B7D",
"<  c #D17473",
"1  c #E36666",
"2  c #EA6161",
"3  c #FF6261",
"4  c #FC6768",
"5  c #FF6C6D",
"6  c #FE6F70",
"7  c #FD6D79",
"8  c #FE7979",
"9  c #FF3A8E",
"0  c #FF3595",
"q  c #FF3990",
"w  c #FF349B",
"e  c #FF2BAB",
"r  c #FF31A0",
"t  c #FF29B5",
"y  c #FF24BA",
"u  c #FF4281",
"i  c #F5468D",
"p  c #FF5680",
"a  c #FF1EC6",
"s  c #FF13D6",
"d  c #FF12DC",
"f  c #DE1FFF",
"g  c #FF0FE2",
"h  c #FF0AEB",
"j  c #FF17EE",
"k  c #FF05F6",
"l  c #FF08F7",
"z  c #FF01FE",
"x  c #FF09FE",
"c  c #FF12FE",
"v  c #FF1EFF",
"b  c #E023F8",
"n  c #FF2DF1",
"m  c #FF22FE",
"M  c #FF2AFE",
"N  c #FF3AF3",
"B  c #FF36FC",
"V  c #FF3BFF",
"C  c #FD65C0",
"Z  c #FF4AEE",
"A  c #FF51EE",
"S  c #FF49FE",
"D  c #E45AFC",
"F  c #FF53FE",
"G  c #FF5EFE",
"H  c #FF69F4",
"J  c #FF60FE",
"K  c #FF6DFF",
"L  c #FF72F7",
"P  c #FF7FF0",
"I  c #FF70FF",
"U  c #7FA8A7",
"Y  c #76AEAE",
"T  c #64BBBB",
"R  c #6EB4B4",
"E  c #38DBDB",
"W  c #1BEDEF",
"Q  c #0DF7F7",
"!  c #04FEFE",
"~  c #0CFFFF",
"^  c #12FFFF",
"/  c #1AFFFF",
"(  c #12F3F3",
")  c #25E7E7",
"_  c #24EBEC",
"`  c #2DE1E2",
"'  c #27FFFF",
"]  c #34FFFF",
"[  c #54C7C6",
"{  c #51C8C8",
"}  c #5FEEEE",
"|  c #4FF7F7",
" . c #43FFFF",
".. c #48FFFF",
"X. c #5CFFFF",
"o. c #69E0E0",
"O. c #65FFFF",
"+. c #6DFFFF",
"@. c #71FEFE",
"#. c #7CFDFF",
"$. c #8F9D9D",
"%. c #9D9696",
"&. c #929E9E",
"*. c #AE8A89",
"=. c #B98383",
"-. c #8C9FA0",
";. c #9C82BB",
":. c #A198B9",
">. c #87A3A3",
",. c #88A3A3",
"<. c #89B9BD",
"1. c #A4AFB1",
"2. c #ACB3B3",
"3. c #B4BABA",
"4. c #EC8183",
"5. c #FE8B96",
"6. c #FE9698",
"7. c #C2B7BA",
"8. c #FDB8B9",
"9. c #FEB1B4",
"0. c #82ACE8",
"q. c #FF82FF",
"w. c #FF94FF",
"e. c #FF9DFF",
"r. c #FFA5FF",
"t. c #FFA8FE",
"y. c #FFB0FF",
"u. c #95C4C4",
"i. c #84FFFF",
"p. c #98FFFF",
"a. c #A5FFFF",
"s. c #ADFFFF",
"d. c #EFC3C7",
"f. c #FEC5C7",
"g. c #FDD3E1",
"h. c #FFC4FF",
"j. c #E1D4FE",
"k. c #FEDFFE",
"l. c #CDFFFF",
"z. c #D2FFFF",
"x. c #FEE1FF",
/* pixels */
"                                                                                                    ",
"              K F M M n n n n n n n n n n n n n n n n n n n n n n n Z H P                           ",
"        y.K m x l s e 9 u u = = = = = = = = = u = = = = u = = = = = u u p 5.9.f.                    ",
"      r.S x z h r & + + @ + + + + + + + + + $ $ $ + + + + + + + + + $ + + @ O 5 p 1.O.@.            ",
"      S x z g 9 + + + + O O O O + + O O O O O O O $ O O $ $ + + O $ O $ O O O O # 2 %._ ..s.        ",
"    q.x z h 9 + $ + + + + + O O O O O O $ O O O O O O O $ $ + + O $ O O O O O O + + $ ,.Q ] s.      ",
"  h.V z z y @ + + + + O + O O O O O O O O O O $ O $ O O O O O O O O O O O O O O + + + 2 [ !  .l.    ",
"  r.c z h = + + $ O O O O O O O O O O O O O O O O O O O O O O O O O $ O O O O O + + + + *.( ~ i.    ",
"  G z z a @ + O O O O O O + O + O + O O O O O O O $ + $ + @ + + O O $ O O $ O O O O + O 1 E ! ]     ",
"  F z z e + + + + O + $ + O O @ O O O O O O O O O O + + O O + @ O O O O O @ O O O O O O # T ! / a.  ",
"  S z z 0 + + + + O O $ $ # # # # # o o # # # # # # * 2 o # # o o o # o # $ + + O O O O + Y ! ~ p.  ",
"  S z k q + + + O + + + =.T T <.3.3.3.3.3.3.3.3.3.3.3.3.3.3.3.3.3.3.:.;.;.; + + O O O + O ,.! ! #.  ",
"  S z k 9 + O O O O O O &.! ! O.                                  j.D f b i + + O O O O O $.Q ! +.  ",
"  S z k q + O O O O O O &.! ! +.                                    V z k 9 + + O O + + O U ! ! @.  ",
"  S z k 9 + + + O O O O &.! ~ +.                                    V z k 9 + O O O + O O $.! ! @.  ",
"  S z k q + O O + O O O &.! ! +.                                    V z k 9 + + + + O O O ,.! ! +.  ",
"  S z k 9 + + O + O + O &.! ! +.                                    V z k 9 + O + O + O O U Q ! +.  ",
"  S z k 9 + + O + O O O &.! ! +.                                    V z k 9 + O O + O + O U ! ! @.  ",
"  S z k 9 + + + O O O + &.! ! +.                                    V z k 9 O O + + @ + O $.! ! +.  ",
"  S z k 9 + + + O O + + &.! ! +.                                    V z k 9 + O @ O + + O ,.! ! +.  ",
"  S z k 9 + + O O O O O &.! ! +.                                    V z k 9 + O + O @ + + ,.! ! @.  ",
"  S z k 9 + + O O O O + &.! ! +.                                    V z k 9 + + @ + + + O ,.! ! @.  ",
"  S z k 9 + + + O O O + &.! ! +.                                    V z k 9 + O + + O @ O U ! ! +.  ",
"  S z k 9 + + + O O O + &.! ! +.                                    V z k 9 + + + O + + O $.! ! @.  ",
"  S z k q + + + O O O O &.! ! +.                                    V z k q + + O O O + O >.! ! @.  ",
"  S z k q + @ + + O O O $.Q ! +.                                    V z k 9 + + + O O O + ,.! ! +.  ",
"  S z k 9 + + O + O O O &.! ! +.                                    V z k q + + O O O O O $.! ! @.  ",
"  S z k q + O O O O O O &.! ! +.                                    V z k q + + + + O O O U ! ! @.  ",
"  S z k q + O O O O + O &.! ! +.                                    V z k 9 + O O + O O O $.! ! @.  ",
"  S z k 9 + O O O O O O &.! ! +.                                    V z k 9 + O O O O O O ,.! ! +.  ",
"  S z k q + O O O O O O &.! ! +.                                    B z k 9 + O O O O O O ,.! ! +.  ",
"  S z l q + O O O O O O &.! ! +.                                    B k k 9 O O O O O O O >.! ! +.  ",
"  S z k 9 + + O O O O O &.! ~ +.                                    V z k 9 + + + + O + O ,.! ! +.  ",
"  S z k 9 $ + O O O O O &.! ! +.                                    V z k 9 + + O O O O O ,.! ! +.  ",
"  S z k q $ O O O O O O &.! ! +.                                    V z k 9 + O O O + O O >.! ! +.  ",
"  S z k q O O O O O O O &.! ! +.                                    V z k 9 + O O O O O O ,.! ! +.  ",
"  S z k q + O O O O O O &.! ! +.                                    V z k 9 + + O O O O O U ! ! @.  ",
"  S z k q + O O O O O O &.! ! #.x.x.x.x.x.x.x.x.x.x.x.x.x.x.x.x.x.h.B z k 9 + O O O O O O $.! ! +.  ",
"  F z k 9 O @ O O O O O %.) W 0.A A A Z A A Z A A A A A A A A A A Z j h h 9 + O O O O O # -.! ! +.  ",
"  F z k q + + O O @ O @ 1 X X : = = = . = = . . = . . . = . . = = = = = = @ + O O O O O O U ! ! +.  ",
"  I x z w + + O O O O O @ O O + O O O + + + + O + + O + + + + + + + + + + O O O O O O O O R ! ! i.  ",
"  t.m z y @ O O O O O O + O O O O O O O O O O O O + @ + O O O O O O O O O O O O O O O O o [ ! ~ a.  ",
"    J z d & + O O O O O O O O O O O O O O O O O + @ @ + O O O O O + O O O O O O O O O O > ) ! ' s.  ",
"    t.M k 0 + O O O O O O O O O O O O O + O O + O + + + @ O @ O + @ O O O O @ O O O O O ,.! ! X.    ",
"      e.v s & O O O O + O @ O O O O O O O O O O O + @ + O O O O O + @ + O O O O O O O > ` ! / a.    ",
"        w.B t % O O O O O O O O O O O O O O O O + @ O + O O O O O + @ + O O O O O O - [ ! ! @.      ",
"          r.L C 7 3 @ O O O O O O O O O O O O O O O O O O O O O O + O O O O O O + < [ ! ~ O.z.      ",
"              k.g.8.6.8 5 4 # # # # # # # # # # # # # # # # # # # # # # # o o > $.E ~ ] i.z.        ",
"                          d.7.2.2.2.2.2.2.2.2.2.2.2.2.2.2.2.2.2.2.2.2.2.2.2.u.o.| X.#.              ",
"                                                                                                    "
};
