/* XPM */
static char *giphy_2__dragged___6__resized[] = {
/* columns rows colors chars-per-pixel */
"50 50 145 2 ",
"   c None",
".  c #BB7F7E",
"X  c #FF5756",
"o  c #FF5855",
"O  c #FF555A",
"+  c #F55A5A",
"@  c #FB5959",
"#  c #ED605F",
"$  c #FF4F65",
"%  c #FF4C6B",
"&  c #FF5161",
"*  c #FE5075",
"=  c #D56E6E",
"-  c #DC6A69",
";  c #CD7373",
":  c #C37A7A",
">  c #C87878",
",  c #D37272",
"<  c #FE6464",
"1  c #FF6E6E",
"2  c #FE6F70",
"3  c #FE7E7E",
"4  c #B9807F",
"5  c #FF398D",
"6  c #FF3892",
"7  c #FF339B",
"8  c #FF2EA4",
"9  c #FF29AE",
"0  c #FF30A1",
"q  c #FF26B4",
"w  c #FF28B0",
"e  c #FF22BC",
"r  c #C6738B",
"t  c #FF1DC5",
"y  c #FF0EDF",
"u  c #FF20C1",
"i  c #FF2CC2",
"p  c #FF24C8",
"a  c #FF0AEB",
"s  c #FF1AE4",
"d  c #FF06F5",
"f  c #FF08F0",
"g  c #FF02FE",
"h  c #FF0DFE",
"j  c #FF14FE",
"k  c #FF19FE",
"l  c #DA32E7",
"z  c #DB31FB",
"x  c #FF24F2",
"c  c #FF2CF6",
"v  c #FF3AFC",
"b  c #FF32FB",
"n  c #FF42CB",
"m  c #FE65C3",
"M  c #FE7ECF",
"N  c #FF42FC",
"B  c #FF4CFD",
"V  c #FF5EFF",
"C  c #FF65FF",
"Z  c #FF6CFE",
"A  c #FF74FF",
"S  c #FF7FFF",
"D  c #69B6B7",
"F  c #70B3B3",
"G  c #4EB4FC",
"H  c #2FDFDE",
"J  c #3DD6D6",
"K  c #33DDDD",
"L  c #38D8D8",
"P  c #1DECEC",
"I  c #0CF6F6",
"U  c #0DF7F8",
"Y  c #00FFFF",
"T  c #0BFFFE",
"R  c #14F2F2",
"E  c #18F0F0",
"W  c #14FFFF",
"Q  c #1BFFFF",
"!  c #23E7E7",
"~  c #2AE2E3",
"^  c #22E9E8",
"/  c #23FEFE",
"(  c #2EFFFF",
")  c #34FEFE",
"_  c #3BFFFF",
"`  c #46CECF",
"'  c #4CCBCB",
"]  c #57C5C4",
"[  c #42D2D2",
"{  c #43E0DF",
"}  c #64D0F6",
"|  c #4FF7F7",
" . c #44FEFE",
".. c #4DFEFF",
"X. c #45F5F6",
"o. c #56FEFE",
"O. c #5AFEFF",
"+. c #65FFFF",
"@. c #6BFFFF",
"#. c #73FFFF",
"$. c #7BFFFF",
"%. c #8F9E9E",
"&. c #9D9696",
"*. c #939B9A",
"=. c #AD8A8A",
"-. c #B38585",
";. c #BB8180",
":. c #A39090",
">. c #86A5A5",
",. c #8EB2B2",
"<. c #D99B9D",
"1. c #E09C9F",
"2. c #FD9799",
"3. c #FD9B9C",
"4. c #FD9DA6",
"5. c #FDB4B6",
"6. c #FDBFCA",
"7. c #FCA0D9",
"8. c #FF81FF",
"9. c #FF89FF",
"0. c #FF94FF",
"q. c #FF9AFF",
"w. c #FFA4FF",
"e. c #FFABFF",
"r. c #FFB6FE",
"t. c #FFBDFF",
"y. c #84FFFF",
"u. c #8AFFFF",
"i. c #95FEFE",
"p. c #A3FFFF",
"a. c #B3FEFE",
"s. c #BCFEFE",
"d. c #FED2D5",
"f. c #FED2D9",
"g. c #FBD9DF",
"h. c #FFC5FF",
"j. c #E0DAFC",
"k. c #FFD4FF",
"l. c #C2FFFF",
"z. c #CCFEFE",
"x. c #D7FEFE",
"c. c #DFFEFF",
"v. c #DEF0F4",
"b. c #FDE0E3",
"n. c #E0FDFF",
/* pixels */
"                                                                                                    ",
"                                                                                                    ",
"  q.j h s i i i i m 6.d.b.                                          8.k h s p i i i M f.d.g.        ",
"  q.g g w O O O O < 1 1 <.| / O.n.                                  8.h g q O O O O < 2 1 <.X./ o.s.",
"  q.h g 9 o o o X X X o ;.E Y _ n.                                  8.h g q o o o o X X o . R Y ) a.",
"  q.g g w X o o o X X o ;.E Y ) n.                                  8.h g q o o o o o O o . R Y ) a.",
"  0.g g 9 o o o o X X o ;.E Y _ n.                                  S h g q o o o o o o X . E Y ) a.",
"  q.g g w o o o o X X X ;.E Y _ n.                                  8.h g q X o o o X X X . R Y ) a.",
"  q.g g w O o o o O o X ;.E Y ) n.                                  8.h g q X o X o X X o . R Y _ a.",
"  q.h g 9 O o o o o X X ;.E Y _ n.                                  8.j g q X o o o X X X . R Y _ s.",
"  q.g g 9 o X o o X X o ;.E Y _ n.                                  8.h g q O o o X X X o . E Y  .s.",
"  q.g g w o o o o X o o ;.E Y ) n.                                  8.h g q O X o X X o X . E Y _ s.",
"  q.g g 9 X o o o X o X . P Y _ n.                                  8.h g q X o o X X o o . P Y _ s.",
"  q.g g w X o X o X o X ;.E Y _ n.                                  8.h g q X X X o o X X . R Y _ s.",
"  q.g g w o o o o X X X ;.E Y ) n.                                  8.h g w X X o o X o X . E Y  .s.",
"  q.h g 9 O o o X X X o 4 E Y _ n.                                  8.h g q X o o o X X X . R Y _ s.",
"  q.g g 9 X X o X X o X ;.E Y _ n.                                  8.h g q X o o o O o X . P Y _ s.",
"  q.h g w X X X X X o o ;.E Y ) n.                                  8.h g q O X o o o X X . R Y _ s.",
"  q.g g w X X X X X X o ;.E Y _ n.                                  8.h g q O o o o X X X . R Y _ s.",
"  q.g g w O X X X X X o ;.E Y ) n.                                  8.h g q O X X o X X X . R Y  .s.",
"  q.g g 9 X X X o o X o ;.P Y _ n.                                  8.h g q O o o o o X o 4 R Y _ s.",
"  q.g g 9 X X X X o X X ;.E Y _ n.                                  8.h g w o O X X o @ X 4 R Y _ s.",
"  q.h g 9 X o X X X o X ;.E Y _ n.                                  8.h g q o o X X X X o . R Y _ s.",
"  q.g g 9 X X X X X X X ;.E Y ) n.                                  S h g q O o X X o X X . R Y  .s.",
"  q.g g w X X X X X o X 4 E Y _ n.                                  8.h g q X o o o X X X . R Y _ s.",
"  q.g g w o X X o o O X ;.E Y _ c.                                  8.h g q X X o o X X X . R Y _ s.",
"  q.g g w X X X X o o X ;.E Y _ c.                                  C g g e X o X X X X X . R Y _ s.",
"  q.h g w X X X X o o X , K Y )                                   A k g d 8 X X o o X X X . R Y  .z.",
"  q.g g w X X @ o O o O @ =.~ W $.                              Z k g g 9 & X O X o X o X . E Y  .z.",
"  w.j g w X X X o o o o X @ ;.K Q y.                          Z k g d 9 & X X X X X X o X 4 R Y  .z.",
"  h.v g e O X X o O X X X X X ;.K Q u.                      A k g d 9 O o X X X X X X X X :.U Y ..x.",
"    8.k a * o X X X O X X X X X . L Q $.                  C k g d 0 O o O X X X X X X X @ F Y Y +.  ",
"      Z k 9 O X X X X O X X O o X > J W #.              Z j g d 8 O X O o O o X X X X X . ! Y Q i.  ",
"        C x 7 O X O X X X X o X O X > J W y.          Z h g f 7 O o O o o O X X X X X ; [ Y W +.    ",
"          8.x 0 O O O X X X O o o X X ; [ W @.    k.V h g a 7 O o O o o o o O X X X > J Y W #.      ",
"            9.x 8 O X X X X X X X X O X , ` W +.j.Z h g f 7 O o o o o O O X o X O : L Y W O.        ",
"              0.c 8 O O X X X X X X X X X = ' T } z g a 6 O o X O o X X X X X X . K Y W +.          ",
"                q.c 9 O X X X X o O X X X X = ' U G l 5 X X o O O o X X X X X ;.K Y Q $.            ",
"                  q.b w & o X O o o O X X X X - ] ~ r X X X O X o X X X X O =.~ Y Q u.              ",
"                    q.c w & @ X O o o X o O X X - : @ X X X o X X X X X @ =.! Y Q u.                ",
"                      w.v q $ X X X X X X X X X X X O o o O X X o o X @ :.! Y / i.                  ",
"                        e.b e & o X X X X X X @ X o o o o X X X X O @ :.! Y / i.                    ",
"                          r.v e $ O O o X X X O X X o O X o X X X @ :.P Y / i.                      ",
"                            q.v u $ o O X O X X O X o O o O X X + &.P Y ( p.                        ",
"                              w.N t % o X X X X X X X X X X X + *.P Y ( p.                          ",
"                                w.B p % X X X X X X X X X X + %.E Y ( u.                            ",
"                                  t.Z n % X X X o O X X X # >.E Y ) u.                              ",
"                                      e.7.4.2.< X X @ + ; D I T ..a.                                ",
"                                              5.3.3.1.,.{ /  .#.l.                                  ",
"                                                    v.i.#.i.                                        "
};
