/* XPM */
static char *giphy_2__dragged___7__resized[] = {
/* columns rows colors chars-per-pixel */
"50 50 134 2 ",
"   c None",
".  c #FF3F7D",
"X  c #BD7D7D",
"o  c #ED5E5E",
"O  c #F35757",
"+  c #FF5757",
"@  c #FF5855",
"#  c #FF545A",
"$  c #F25B5B",
"%  c #FC5959",
"&  c #FF4D6A",
"*  c #FF4A71",
"=  c #FF417E",
"-  c #FF4E7E",
";  c #E45C78",
":  c #D16F6F",
">  c #C77E7E",
",  c #C87E7E",
"<  c #CD7272",
"1  c #E86261",
"2  c #E36262",
"3  c #F56666",
"4  c #FD6362",
"5  c #FE6E71",
"6  c #F77475",
"7  c #FE7576",
"8  c #FF3D86",
"9  c #FF3C8C",
"0  c #FF329C",
"q  c #FF29AE",
"w  c #FF4180",
"e  c #FE5383",
"r  c #FC6B9E",
"t  c #FF1DC6",
"y  c #FF1ACB",
"u  c #FF0FDE",
"i  c #FF15D5",
"p  c #FF2FC4",
"a  c #FF32C4",
"s  c #FF0EE3",
"d  c #FF09EE",
"f  c #FF06F4",
"g  c #FF00FF",
"h  c #FF13FE",
"j  c #FF1CFE",
"k  c #FF2CEE",
"l  c #FF2EF1",
"z  c #FF27FF",
"x  c #FF28FA",
"c  c #FF30F0",
"v  c #FF33FF",
"b  c #FF3BFF",
"n  c #BA6DC0",
"m  c #FF4FC3",
"M  c #FF55ED",
"N  c #FF42FF",
"B  c #FF57F4",
"V  c #FF5BFE",
"C  c #FF6BE8",
"Z  c #FF74EF",
"A  c #FF6EFF",
"S  c #FF70FF",
"D  c #FF7AFF",
"F  c #5FBFBF",
"G  c #63BCBD",
"H  c #69B9B8",
"J  c #1AEEED",
"K  c cyan",
"L  c #0CFFFF",
"P  c #17F0F0",
"I  c #11FFFF",
"U  c #1DFFFF",
"Y  c #22ECED",
"T  c #2FFEFE",
"R  c #3BFFFF",
"E  c #4ACECE",
"W  c #59C3C3",
"Q  c #47CFD0",
"!  c #46D0D0",
"~  c #46DADA",
"^  c #5CD2D2",
"/  c #5DEAEA",
"(  c #4DFFFF",
")  c #55FFFF",
"_  c #5EFFFF",
"`  c #6DE8E9",
"'  c #73EBED",
"]  c #63FFFF",
"[  c #75FFFF",
"{  c #7FFFFF",
"}  c #8E9E9E",
"|  c #BF8585",
" . c #8BA1A1",
".. c #9ABABA",
"X. c #A6B7B7",
"o. c #ACB3B3",
"O. c #BBB5B7",
"+. c #B6BABA",
"@. c #B8BABA",
"#. c #FE8586",
"$. c #FE8791",
"%. c #FE979E",
"&. c #FE9898",
"*. c #FE9FA1",
"=. c #FE9EB2",
"-. c #FCA5A5",
";. c #FCA8AC",
":. c #FDBBBD",
">. c #A393E9",
",. c #DFBDC1",
"<. c #FF81FF",
"1. c #FF96FF",
"2. c #FF9BFF",
"3. c #FFA4FF",
"4. c #FFAEFF",
"5. c #FFB3FF",
"6. c #86D8D8",
"7. c #9ACAFD",
"8. c #9EE4E4",
"9. c #83F7F8",
"0. c #8CF2FE",
"q. c #A0E3E3",
"w. c #BCE7EB",
"e. c #A6FFFF",
"r. c #ACFFFF",
"t. c #BAFFFF",
"y. c #FDCED3",
"u. c #FFC4FF",
"i. c #FFCFFF",
"p. c #FDD2F0",
"a. c #FEDEF8",
"s. c #C9E6E8",
"d. c #C2FFFF",
"f. c #D7FFFF",
/* pixels */
"                                                                                                    ",
"            D A N z x l l c l c l l l c l l l c l l l c l l l c c c c c l l c c c B a.              ",
"        2.A j g d y 0 w w w w = = = = = = w - w w = w = = = w = = = w w w w = = w e %.-.;.w.        ",
"      1.x g g y 9 # + @ @ @ @ @ @ @ @ @ @ @ @ % @ @ @ @ @ @ @ @ @ @ @ + @ @ @ @ @ @ + @ 3 ^ L U r.  ",
"      v g g p & @ @ @ + + + + + @ @ + + + + + + + % + + @ + + + # + + + + + + + @ + + + o E K I e.  ",
"    V g g i * + + @ + + @ + + + + @ + + + + + + + + + + @ + + + + + + + + + + @ + @ + + $ E K I e.  ",
"  3.j g f 9 + + @ + + + @ + + + + + + + + + + + + + + % + + + + + + + + + @ # @ + + + + 3 E K I e.  ",
"  A g g t # @ + + + + + + + + + + + + + + + + + + + + + + + + + + + + + + + @ + @ + + + $ E K I e.  ",
"  N g f 0 @ @ @ + + + + + + + + + + @ @ @ # # @ + % + + + + + + @ + + # @ @ + @ + @ @ @ $ E K I e.  ",
"i.b g f w @ @ @ @ + @ + @ @ + + + @ # # + @ @ @ + + + + + + + + @ @ + + @ # + @ + + + @ 3 E K I e.  ",
"5.v g s & @ @ @ + + + + $ $ $ o $ o o $ $ $ $ o $ o $ $ o $ o $ o o o $ O o O o O o o o 2 E K I e.  ",
"5.v g s & @ @ @ + + @ $ } G H ..O.+.+.+.+.+.@.+.+.+.+.+.+.+.+.+.@.O.@.@.+.+.@.@.O.+.+.@.+.' ) ] d.  ",
"5.v g s & @ @ @ + + @ o Q K L 9.                                                                    ",
"5.v g s & @ @ @ + + + o E K L                                                                       ",
"5.v g s & @ @ @ + + + o E K L                                                                       ",
"5.v g s & @ @ @ @ + @ o Q K L                                                                       ",
"5.v g s & @ @ @ @ + @ o E K L                                                                       ",
"5.v g s & @ @ @ @ @ @ o E K L                                                                       ",
"5.v g s & @ @ + @ + @ o Q K L _                                                                     ",
"5.v g s & @ @ + + + @ o ! K L 7.D D D D D D D D D D D D D D D D D D D D D D D D D 2.                ",
"5.v g s & @ @ @ + + + $  .F G n a a a a a a p p a a a p a a a a p a a a a a a a p m =.-.:.          ",
"5.v g s & @ @ @ + + + + % $ $ + # + # + # # # # # # # # + + # # # % # # # # # # # + 4 4 6 6.) _ t.  ",
"5.v g s & @ @ + + + + + + + + + + + + + + + + + + + + + + + + + + + + + + + + + @ + + @ $ E K I e.  ",
"5.v g s & @ + + + + + + + + @ + + + + + + + + + + + + + + + + + + + + + + + + % + + + + 3 E K I e.  ",
"5.v g s & @ @ + + + + + + + + + + + + @ + + + + + + + + + + + + + + + + + + + + + + + + 3 E K I e.  ",
"5.v g s & @ @ @ + + @ + + + + + + + + # + + + + + + + + % + + % + + + + + + + + + + + + $ E K I e.  ",
"5.v g s & @ + + + + + + + + + + + + @ @ + + + + + + + + + + + + + + + + + # + + + + + + $ E K I e.  ",
"4.v g s & @ + + + + + + + + + + + + # + @ + + + + + + % + + % + + + + @ + + + + + + + + $ E K I e.  ",
"5.v g s & @ @ + @ + + + + + @ @ + + + + @ @ + + @ @ @ @ + O O @ @ @ + + @ @ @ @ + O O @ $ E K I e.  ",
"5.v g s & @ + + @ # + % : X X > > , > < > , , , , , > > r X < X , , , > > , > , r X < X | ~ L U e.  ",
"4.v g s & @ + + @ @ @ o W P Y ` q.q.8.8.q.q.q.q.q.8.q.q.q.q.8.q.q.q.8.q.q.q.q.q.q.8.8.q.8.9.[ 9.    ",
"5.v g s & + + + # + + o E K L                                                                       ",
"5.v g s & @ + + + + + o E K L                                                                       ",
"5.v g s & @ + + + + + o E K L                                                                       ",
"5.v g s & @ + + + + + o E K L                                                                       ",
"4.v g s & + + + + + + 1 E K L                                                                       ",
"5.v g s & @ + + + + + o Q K L                                                                       ",
"5.v g s & @ + + + + + o Q K L 0.                                                                    ",
"u.b g s & @ @ + + + + o W J Y >.M M M M M M M M M M M M M M M M M M M M M M M M M Z                 ",
"  N g s & @ + + + + @ % : X X ; . . . . = = = w . . = . = = . . = . . . . = . = . - $.&.-.s.e.r.f.  ",
"  V g s * @ + + + + + + @ + + @ + @ + @ @ @ @ + + + @ + @ @ + + @ @ @ + + + @ @ @ @ + + O ^ U T r.  ",
"  D h f 9 @ + + + + + + + + @ # + % + + + + + + + + + + + + + + + + + + + + + + @ @ + + o E K I e.  ",
"    b g q + + + + + + + + + + + + + + + + + + + + + + + + + + + + + + + + + + + + + + + $ E K I e.  ",
"    1.h s * @ + + + # + + + + + + + + + + + + + + + + + + + % + + + + + + + + + + + + + 3 E K I e.  ",
"      S h q @ @ + + + + + + + + + + + + + + + + % + + + + + + + + + + + + + + + # @ + + $ E K I e.  ",
"        D k 9 # + + + + + + + + + + + + + + + + + + + + + + + + + + + + + + + + @ + + + $ E K I e.  ",
"          2.C r 5 % + + + # + + + + @ + + + + + @ @ + + + + @ @ + + + + + + + + + + @ @ $ E K I e.  ",
"              p.y.;.#.7 5 4 $ $ O O O $ $ O O O O $ $ $ O O O $ O $ O $ $ O $ O O O $ $ 1 E K I e.  ",
"                          ,.O.o.o.o.o.o.o.o.o.o.o.o.o.o.o.o.o.o.o.o.o.o.o.o.o.o.o.o.o.o.X./ R ( t.  ",
"                                                                                                    "
};
