/* XPM */
static char *giphy_2__dragged___8__resized[] = {
/* columns rows colors chars-per-pixel */
"50 50 177 2 ",
"   c None",
".  c #FF3E7C",
"X  c #BE7C7C",
"o  c #EE5E5E",
"O  c #F45757",
"+  c #FF5757",
"@  c #FF5855",
"#  c #FF555A",
"$  c #F25B5B",
"%  c #FD5959",
"&  c #F35857",
"*  c #FF4C6B",
"=  c #FF5162",
"-  c #FE596A",
";  c #FF427E",
":  c #FF4979",
">  c #EB527C",
",  c #FD5A7E",
"<  c #D66C6C",
"1  c #DB6B6B",
"2  c #DC6767",
"3  c #D6706F",
"4  c #C37C7C",
"5  c #C87D7D",
"6  c #C77578",
"7  c #D57171",
"8  c #E46565",
"9  c #E96262",
"0  c #E06868",
"q  c #FE6C6D",
"w  c #FF6667",
"e  c #FE6374",
"r  c #FD787B",
"t  c #FF3E86",
"y  c #FF3B8B",
"u  c #FF3596",
"i  c #FF2EA5",
"p  c #FF24B7",
"a  c #B9779E",
"s  c #FF4180",
"d  c #FE6F88",
"f  c #E648A8",
"g  c #FF1FC3",
"h  c #FF19CD",
"j  c #FF17CD",
"k  c #FF0FDF",
"l  c #FF16D6",
"z  c #FF13DC",
"x  c #FF18D0",
"c  c #EA2FCE",
"v  c #FF27C3",
"b  c #FF32C4",
"n  c #FE3BC1",
"m  c #FF27DC",
"M  c #DF1FFF",
"N  c #FE0EEC",
"B  c #FE0FE4",
"V  c #FF00FF",
"C  c #FF0CFE",
"Z  c #FF0FF2",
"A  c #FF11FC",
"S  c #FF1CFD",
"D  c #FF30EF",
"F  c #E22BFD",
"G  c #FF2EF1",
"H  c #FF23FE",
"J  c #FF2CFD",
"K  c #FF3AFF",
"L  c #FF30F8",
"P  c #B962EB",
"I  c #DD4CC3",
"U  c #FF52ED",
"Y  c #FF44FF",
"T  c #FF4CF9",
"R  c #FF53FE",
"E  c #FF5AFF",
"W  c #EC6FEB",
"Q  c #FF62FF",
"!  c #FF6FFF",
"~  c #FF7EFF",
"^  c #FF74F3",
"/  c #5EBFBF",
"(  c #7CABAB",
")  c #6AB6BA",
"_  c #5FC0BF",
"`  c #36DBDB",
"'  c #38DADA",
"]  c #19EFEF",
"[  c #17EFEF",
"{  c #16F0EF",
"}  c #00FFFF",
"|  c #0CFDFD",
" . c #14F2F2",
".. c #13FFFF",
"X. c #1CFFFF",
"o. c #1AF5FD",
"O. c #2DE1E1",
"+. c #20EBEB",
"@. c #27E5E5",
"#. c #32ECEC",
"$. c #23FFFF",
"%. c #2BFEFE",
"&. c #32FFFF",
"*. c #3AFFFF",
"=. c #3FF0F1",
"-. c #4DCBCB",
";. c #55C7C6",
":. c #5BC1C1",
">. c #41D2D2",
",. c #49DFDF",
"<. c #6AC0C0",
"1. c #7ECECE",
"2. c #71D1EA",
"3. c #56EEEF",
"4. c #49FFFF",
"5. c #42FFFF",
"6. c #54FFFF",
"7. c #5BFDFD",
"8. c #52F1F1",
"9. c #6DFFFF",
"0. c #60FFFF",
"q. c #7AFFFF",
"w. c #75FEFE",
"e. c #969999",
"r. c #AB8A8A",
"t. c #BC8080",
"y. c #A49898",
"u. c #9984BD",
"i. c #8AA0A0",
"p. c #9DB9BC",
"a. c #A3A6B9",
"s. c #ACB3B3",
"d. c #ACB7B8",
"f. c #ABB8B9",
"g. c #A1BBBB",
"h. c #B9B7B9",
"j. c #C08383",
"k. c #CF9091",
"l. c #FD848A",
"z. c #FE9597",
"x. c #FD9EA0",
"c. c #C0B7B9",
"v. c #F9A4A8",
"b. c #EEB8BB",
"n. c #9EBCE8",
"m. c #FDBED6",
"M. c #FD85ED",
"N. c #FF80FF",
"B. c #FF8AFF",
"V. c #FF96FF",
"C. c #FF99FF",
"Z. c #C8B2FC",
"A. c #FEA2E5",
"S. c #E2ADFC",
"D. c #FFA0FF",
"F. c #FFABFD",
"G. c #FFB4FF",
"H. c #FFBDFF",
"J. c #99E7E7",
"K. c #8AFFFF",
"L. c #85FAFA",
"P. c #9EFFFF",
"I. c #94FEFE",
"U. c #A0E2E2",
"Y. c #A8EBEC",
"T. c #BEEEF0",
"R. c #A5FFFF",
"E. c #ABFFFF",
"W. c #B2FFFF",
"Q. c #F8C4C7",
"!. c #CEDBFE",
"~. c #FFCBFF",
"^. c #FFD1FF",
"/. c #C1FFFF",
"(. c #C6FBFF",
"). c #D0FFFF",
"_. c #E4FEFF",
/* pixels */
"                                                                                                    ",
"  D.J H J G G G D D G G G G D D G G G G D G D G D G G D G G D G D G G T ^                           ",
"  V.C V B t ; ; ; ; ; ; s ; ; ; ; ; ; s s ; : s s ; ; ; ; ; ; ; : ; s s : d v.Q.                    ",
"  C.C V l # @ @ @ @ @ @ @ @ @ @ @ @ @ @ @ @ @ % @ @ @ @ @ @ @ @ @ @ @ % @ @ + w l.k.p.7.P.          ",
"  V.C V l = @ @ @ + + @ + + + + @ @ + + + + + + + % + + @ + + + + + % + + + + + % @ < ;.%.q.        ",
"  V.C V l = @ @ + + + % @ + + + @ @ + + + + + + + + + + + + + + + + + + + + + + @ @ @ < >.| q.      ",
"  V.C V l = @ @ + + + + + @ + + + + + + + + + + + + % + + + + + + + + + + % + + @ + + @ r. ...K.    ",
"  V.C V l = @ @ @ + + + @ + + + + + + + + + + % % + + + + + + + + + + + + + + + @ + + @ o ;.} &.    ",
"  V.C V l = @ @ @ @ @ + @ + + + + + + + + + + + + + + + + + + + + + + + + + + + + + + + @ e.| | 9.  ",
"  V.C V l = @ @ @ @ + @ @ @ + + + + + @ + + + + + + + + + + + # @ @ + + + + + + + + + + @ X [ } 4.  ",
"  V.C V l = @ @ + + + + @ $ $ $ $ $ $ o $ $ $ $ $ $ $ o $ $ $ $ o $ $ $ $ $ + + + + + + @ < O.} %.  ",
"  V.C V l = @ @ + + + @ 9 ( ) ) p.f.f.f.f.f.f.f.f.f.f.f.f.f.f.f.f.f.a.u.u.a % + + + + @ @ 0 ' } &./.",
"  C.C V l = @ @ + + + @ 1 O.} X.R.                                  S.F M c = @ + + + + @ 8 ' } &./.",
"  V.C V l = @ @ + + + @ < O.} X.W.                                  C.C V h = @ + + + + @ 8 ' } &./.",
"  C.C V l = @ @ + + + + < O.} $.W.                                  C.A V h = @ @ + + + @ 9 ' } &./.",
"  V.C V l = @ @ + + + + 1 O.} $.W.                                  C.C V h = @ @ @ + + @ 8 ' } &./.",
"  V.C V l = @ @ @ @ @ @ 1 O.} $.W.                                  C.A V h = @ @ @ + + # 8 ' } &./.",
"  V.C V l = @ + @ # @ # 1 O.} $.E.                                  D.A V h = @ @ + + @ @ 8 ' } &./.",
"  V.C V l = @ + @ @ + @ 1 O.} $.W.                                  C.C V h = @ + + + + @ 8 ' } &./.",
"  V.C V l = @ @ @ @ @ @ < O.} o.Z.~ ~ ~ ~ ~ ~ ~ ~ N.N.~ ~ ~ ~ ~ N.N.Q C V x = @ @ + + + @ 8 ' } &.(.",
"  V.C V l = @ @ # @ @ # 9 ( :.) I b b b b b b b b b b b b b b b b b v g v i = + + + + + @ 0 ` } &.W.",
"  V.C V l = @ @ @ @ @ @ % % O $ # + + # # # # # # # + # # # # # # # # # # + @ + @ + + + @ 7 O.} &./.",
"  V.C V l = @ @ @ @ @ @ @ + + + + + + + + + + + + + + + + + @ @ + + + + + + + + + + + + @ X [ } &.  ",
"  V.C V z = @ + @ # @ + + + @ + + + + + + + + + + + + + + + + @ + + + + + + + + + + + + @ e.| } 4.  ",
"  V.C V l = @ @ + @ @ + + + + + # + + + + + + + + + + + + + # + + + + + + + + % @ @ @ + o ;.} | 9.  ",
"  C.C V l = @ @ @ @ + + + + + + + + + % + + + # + + % + + + + + + + + + + + + + # # @ # r. .} &.    ",
"  C.C V l = @ + + + + @ + + + + + + + + + % + + + + + + + + + + + + @ @ + + + + @ @ @ 1 >.} ..K.    ",
"  C.C V l = @ @ + + + @ + + + + + + + + + + + + + + + + + + + % @ # @ @ + # + + # # 1 :.} | 9.      ",
"  V.C V l = + + @ + @ + + + @ @ + @ @ @ + # + + + + @ @ % + + # @ # @ # # @ @ + & X -.} ..w.).      ",
"  V.C V l = + + @ # # @ O 6 X X a 6 $ @ + + + + + + + # + 9 6 X X 5 5 5 5 5 t.y.<.#.%.6.R._.        ",
"  C.C V l = + + @ @ @ # 2 >.{ #.n.P f @ + + + + + + @ @ @ 2 :.{ 8.J.U.U.J.U.J.L.q.q.P.              ",
"  C.C V l = + + # @ @ @ 1 O.} %.!.E B u + + + + + + # @ @ + 4 ` ..q.                                ",
"  C.C V l = + + + + + + < O.} %.  G.R N y @ @ @ + + + + + + + t.@.X.K.                              ",
"  V.C V l = + + + + + + 1 O.} %.    G.K B s @ @ + + + + # + + + r.] %.I.                            ",
"  C.C V l = + + + + % + 1 O.} %.      F.K z ; @ + + + + + + % + @ e. .%.R.                          ",
"  V.C V l = + + + + + + 1 O.} %.        C.K l * + + + + + + + + # $ i. .*.P.                        ",
"  C.C V l = + + @ @ @ # 1 ` } %.          C.H h * @ + + + + + + @ + o ( | *.E.                      ",
"  V.C V l = + + # # @ @ 1 O.} %.            B.S p = @ + + + + + @ # @ o ) | 6.(.                    ",
"  V.C V l = + + @ @ + # 1 O.} %.              N.A p + @ + + + + @ @ # # 8 / ] 2.W U M.              ",
"  V.C V l = + + @ # @ @ 1 O.} %.                ! A i + + + + + # @ @ @ + 9 X X > . , z.z.x.(.R.W.  ",
"  C.C V z = + + @ @ @ # 2 O.} %.                ~.E Z u + @ # @ + + + + + @ # + @ @ @ # + 8 ,.X.4./.",
"  C.C V l = @ @ @ # @ + 1 O.} %.                  H.R N u + @ @ + + + + + + @ + @ @ + + + 9 ' } &./.",
"  V.C V l = @ # + + + # 1 O.} %.                    G.Y B t @ @ + + + + + + + + @ + + + @ 8 ' } &.(.",
"  C.C V l = @ + + + + # 1 O.} %.                      F.K B : @ + # + + + + + + + + + + @ 9 ' } &./.",
"  C.C V l = @ @ # @ @ @ 1 O.} %.                        D.J l : + + + + + + + + + + + + @ 8 ' } &./.",
"  C.C V l = @ # @ @ # # 1 O.} %.                          C.J h * @ + + + + # + + + + + # 8 ' } &.(.",
"  C.S C m - @ @ # @ @ @ 1 O.} %.                            V.R n e - @ + + + + + + + + @ 8 ' } &.W.",
"  ~.C.C.A.l.q q $ O & O < O.} %.                              ^.F.Q.z.r q w $ & $ & & & O 2 ' } &./.",
"              b.h.s.s.s.p.8.*.7.                                          Q.h.d.d.s.s.s.s.g.3.*.0.).",
"                                                                                                    "
};
