/* XPM */
static char *__resized[] = {
/* columns rows colors chars-per-pixel */
"50 50 138 2 ",
"   c None",
".  c #BE7D7D",
"X  c #F65757",
"o  c #FF5756",
"O  c #FF5855",
"+  c #FF545B",
"@  c #F55B5B",
"#  c #F95A5A",
"$  c #FF4A6F",
"%  c #FF5166",
"&  c #FF4775",
"*  c #FE4972",
"=  c #FF427F",
"-  c #D36D6D",
";  c #D86E6E",
":  c #CA7777",
">  c #C37A7A",
",  c #E56161",
"<  c #EA6363",
"1  c #E3636C",
"2  c #FF6263",
"3  c #FF666D",
"4  c #FE6D6E",
"5  c #FF706F",
"6  c #ED7D7D",
"7  c #FE7E7F",
"8  c #F47475",
"9  c #FF3D87",
"0  c #FF3695",
"q  c #FF3892",
"w  c #FF2FA2",
"e  c #FF2CAD",
"r  c #FF27B4",
"t  c #FF22BA",
"y  c #FF4183",
"u  c #FE4789",
"i  c #FF5B88",
"p  c #D47484",
"a  c #FC718E",
"s  c #FD7794",
"d  c #FF5AAA",
"f  c #FF59B1",
"g  c #FF65AF",
"h  c #FF0EE2",
"j  c #FF0AEB",
"k  c #FE11E0",
"l  c #FF07F0",
"z  c #FF0CF3",
"x  c #FF02FE",
"c  c #FF0AFF",
"v  c #EA1BFF",
"b  c #FF13FF",
"n  c #FF1EFF",
"m  c #EC20E9",
"M  c #FF2AF5",
"N  c #FF2DFF",
"B  c #FF3FFF",
"V  c #FF50C8",
"C  c #FD63C1",
"Z  c #FF42EC",
"A  c #FF43FE",
"S  c #FF56F5",
"D  c #FF50FE",
"F  c #FF66FF",
"G  c #FF6AFF",
"H  c #EA77FF",
"J  c #FE74F5",
"K  c #FF75FF",
"L  c #FF7CFE",
"P  c #64B9B9",
"I  c #77BCBC",
"U  c #7CBBBB",
"Y  c #799DD0",
"T  c #65A7E3",
"R  c #3ED5D5",
"E  c #18EEEF",
"W  c #01FFFF",
"Q  c #0BFCFD",
"!  c #0DF5F5",
"~  c #13F2F2",
"^  c #15FFFF",
"/  c #29E4E4",
"(  c #23E6E8",
")  c #24ECEC",
"_  c #38E5E5",
"`  c #33EEEE",
"'  c #2BFEFE",
"]  c #30FEFE",
"[  c #47CFCF",
"{  c #4BCCCD",
"}  c #41D4D4",
"|  c #59D2D2",
" . c #74C1C1",
".. c #6BDFDF",
"X. c #6DC1E1",
"o. c #44FDFD",
"O. c #4CFFFF",
"+. c #51FFFF",
"@. c #78E0E0",
"#. c #7CE9E9",
"$. c #6CE9F3",
"%. c #66FFFF",
"&. c #69FFFF",
"*. c #72FFFF",
"=. c #7EFFFF",
"-. c #939C9C",
";. c #A78E8E",
":. c #A98E8E",
">. c #B78382",
",. c #BC8080",
"<. c #8BA1A2",
"1. c #95BDBE",
"2. c #F38E8F",
"3. c #FE9A9A",
"4. c #FE9EB8",
"5. c #FF93D5",
"6. c #FF94DB",
"7. c #FEB4D0",
"8. c #FF85FE",
"9. c #FF88FF",
"0. c #FFA3FF",
"q. c #FFAFFF",
"w. c #FFB6FF",
"e. c #BDC1C1",
"r. c #84FFFF",
"t. c #8CFDFD",
"y. c #97F6F6",
"u. c #98F6F6",
"i. c #92FEFE",
"p. c #A3E9EA",
"a. c #ACFFFF",
"s. c #B6FEFE",
"d. c #BEFEFF",
"f. c #F2CBCD",
"g. c #FEC1F3",
"h. c #FFCFF4",
"j. c #FCD1F4",
"k. c #D7E6E8",
/* pixels */
"                                                                                                    ",
"                                                                                                    ",
"                                                                                                    ",
"                                                                                                    ",
"                                                                                                    ",
"                                                                                                    ",
"                                                                                                    ",
"                                                                                                    ",
"                    0.K D Z V f d d d d d d d d d d d d d d d d d d d d d d d d g 4.3.              ",
"                  L N z t = + o + o + o o o o o o o o o o + O + o o o o o o + o o 2 2 6 #.+.i.      ",
"                F c l w % O o o o o o o o o o o o o o o o O O O o o o o o o o o O o o ; / W %.      ",
"              L b x e + o o o o o o o o o o o o o o o o o o O + o o o o o o o o o o O ; / W &.      ",
"              A x k $ O O O o o o o o o o o o o o o o o o o o o o o o o o o o o o o o ; / W &.      ",
"            8.N x r O O O o o o o o o o o o o o o o o o o o o o o o o o o o o o o o o ; / W &.      ",
"            G c x q O O o o o o o o o o o o o o o o o o o o + o o o o o o o o o o o o ; / W &.      ",
"            G c l 9 O O o o o @ . ;.;.;.:.;.;.:.;.;.:.;.;.:.:.:.:.;.;.:.;.;.:.;.;.:.;.-.) Q &.      ",
"            F c z = O o o o o < { ! o.y.u.u.u.u.u.y.u.y.u.u.y.y.u.u.y.y.u.y.y.y.u.u.y.y.t.i.s.      ",
"            F c j y O o o o o < R W O.                                                              ",
"            F c l y O o o o o < } W O.                                                              ",
"            F c j = O o o o o < R W O.                                                              ",
"            F c l = O O o o o < } W O.                                                              ",
"            F c l y O O o o o < R W O.                                                              ",
"            F c l = O O o o o < R W O.  w.9.8.6.5.5.5.5.5.5.5.5.5.5.5.5.5.5.6.5.6.7.                ",
"            F c j y O O o o o < R W O.  8.c j u % % % % % % % % % % % % % % % % % 3 5 2.p.          ",
"            F c l y O O O o o < R W O.  8.x j & O O o o o o o o o o o o o o o o o o o ; _ ^ *.      ",
"            F c j = O O o o o < R W O.  8.x j & O O o o o o o o o o o o o o o o o o o ; / W %.      ",
"            G c l y O o o o o < R W O.  8.x j & O O o o o # o o o o o O o o o o o o O ; / W %.      ",
"            F c j y O o o o o < R W O.  8.x j & O O o o o o o o o o o O o o # o o o O ; / W %.      ",
"            G c l y O O o o o < R W O.  8.x j & O O o O o o O o O O O O O o o o o o o ; / W &.      ",
"            F c j = O O o o o < R W O.  w.K J s 4 8 - - - - - - - - - - ; X o o o o o ; / W &.      ",
"            F c l = O o o o O < R W O.            k.@...............T T Y 1 o o o o o ; / W &.      ",
"            F c l y O o o o O < R W O.                              8.v m & O o o o o ; / W &.      ",
"            G c l = O o o o O < R W O.                              F x j * O O O O o ; / W &.      ",
"            F c l = O o o o o < R W O.                              F x j * O O o o o ; / W &.      ",
"            F c l = O o o o o < R W O.                              F x j * O o o o o ; / W &.      ",
"            F c j y O O o o o < R W +.                              F x j * O o o o O - / W &.      ",
"            F c j = O # o o o < { ! $.h.h.h.h.h.h.h.h.h.h.h.h.h.j.g.S l k * o o o O o ; / W &.      ",
"            K c l y O o o o o # : >.p i i i i i i i i i i i i i i i u 9 y % o o + o o - ( W &.      ",
"            9.n x 0 O o o o o o o o o O O O o o O O O o o o o o O O O O O o o o O O O > ~ Q r.      ",
"              B x r o # o o o o o o o o o o o o O o + O o o o o o o o o O o o o O + O -.Q Q i.      ",
"              K b h * O o o o o o o o o o o o o o o o o o o o o o o o o o o O + o o < [ W ' a.      ",
"                F c t + O o o o o o # o # o o o o o o + o # o o o o o o o o o O o # <.Q W &.        ",
"                  G M e + o o O o o O o o o o o o o o o o o o o o + o o o o O O @ -.E W o.          ",
"                    0.J f a 2.4 @ X X X # X X X X @ X X X X X X X X X X X @ < ,.P ~ Q O.k.          ",
"                              f.e.1.U I I I I I I I I I I I I I I I I I I  .| ` ] o.r.              ",
"                                    =.                                                              ",
"                                                                                                    ",
"                                                                                                    ",
"                                                                                                    ",
"                                                                                                    "
};
