/* XPM */
static char *__resized[] = {
/* columns rows colors chars-per-pixel */
"50 50 135 2 ",
"   c None",
".  c #F65757",
"X  c #FF5757",
"o  c #FF5855",
"O  c #FF545D",
"+  c #F65A5A",
"@  c #FC5A5A",
"#  c #FF4F65",
"$  c #FF5165",
"%  c #F65A62",
"&  c #FF4973",
"*  c #FF437C",
"=  c #DF6767",
"-  c #D36D6D",
";  c #D56F70",
":  c #C17C7B",
">  c #D57171",
",  c #E56565",
"<  c #E96363",
"1  c #FB6363",
"2  c #FE6867",
"3  c #FF676E",
"4  c #FF6B6A",
"5  c #FF7577",
"6  c #FF3B8B",
"7  c #FF2AAB",
"8  c #FF28B0",
"9  c #FF24B9",
"0  c #FF4180",
"q  c #FE6791",
"w  c #FF5AAA",
"e  c #FF59B5",
"r  c #FF6EAB",
"t  c #FF1CCA",
"y  c #FF13D7",
"u  c #EF2CCA",
"i  c #FF3FC8",
"p  c #FF26D7",
"a  c #FF0FE2",
"s  c #FF08EF",
"d  c #FF06F2",
"f  c #FF00FF",
"g  c #FF0EFA",
"h  c #E915FF",
"j  c #FF13FF",
"k  c #FF1CFF",
"l  c #FF2CF2",
"z  c #FF25FF",
"x  c #FD29FE",
"c  c #FF35FF",
"v  c #FF38FF",
"b  c #AB73C3",
"n  c #837FF5",
"m  c #FF4CD1",
"M  c #EC49FF",
"N  c #FF45F1",
"B  c #FF4FFF",
"V  c #FF5EFF",
"C  c #FF74FE",
"Z  c #FF7FFF",
"A  c #76BCBC",
"S  c #64A8E4",
"D  c #69AFE2",
"F  c #3CD7D7",
"G  c #34DCDC",
"H  c #0BF7F6",
"J  c #01FEFE",
"K  c #0CFFFF",
"L  c #11F6F6",
"P  c #17FEFE",
"I  c #1CFFFF",
"U  c #26E5E5",
"Y  c #2BE2E2",
"T  c #2CF0F0",
"R  c #23FFFF",
"E  c #21F5F5",
"W  c #32FFFF",
"Q  c #55C5C5",
"!  c #40D8D8",
"~  c #4ADDDD",
"^  c #6FC2C2",
"/  c #7FC0C0",
"(  c #6ADFDF",
")  c #6AE0DF",
"_  c #70D8E0",
"`  c #5DE7E7",
"'  c #47FFFF",
"]  c #59F7F7",
"[  c #53FEFE",
"{  c #5FFEFE",
"}  c #6EE0E0",
"|  c #6FFFFF",
" . c #72FFFF",
".. c #7CFFFF",
"X. c #959999",
"o. c #9F9494",
"O. c #A68E8E",
"+. c #A88D8D",
"@. c #AD9695",
"#. c #9290B8",
"$. c #84A6A6",
"%. c #89A2A2",
"&. c #8DBDBE",
"*. c #FE9D9F",
"=. c #FEAAAE",
"-. c #FFADB6",
";. c #FFA0BB",
":. c #E1B4B6",
">. c #FEB4B7",
",. c #BBB9D4",
"<. c #8B93EC",
"1. c #FF81D9",
"2. c #FF93D5",
"3. c #FCB4C5",
"4. c #FF85FF",
"5. c #FF8EFF",
"6. c #FF95FE",
"7. c #FFA4FE",
"8. c #FFAFFF",
"9. c #F8B3FD",
"0. c #8BE4F3",
"q. c #84F6F7",
"w. c #83F8F7",
"e. c #85FAFA",
"r. c #95FEFE",
"t. c #9FFFFF",
"y. c #B6EFEE",
"u. c #A2FEFF",
"i. c #CFCCCD",
"p. c #EEC5C8",
"a. c #FECED1",
"s. c #E9CDFF",
"d. c #FFC3FF",
"f. c #FED3FF",
"g. c #C0FFFF",
/* pixels */
"                                                                                                    ",
"                                                                                                    ",
"                                                                                                    ",
"                                                                                                    ",
"                                                                                                    ",
"                                                                                                    ",
"                                                                                                    ",
"                                                                                                    ",
"                Z V N m e w w w w w w w w w w w w w w w w w w w w r ;.>.  a.                        ",
"            4.c g t 6 # O o X X X X X X X X O X X X X X X X O X X X O 1 4 5 *.p.y.g.                ",
"          C j f 7 $ o o X X X X X X X X X X X X X X X X X X X X X X X X o X X % @.` e.              ",
"        5.k f 9 O o o o X X X X X X X X X X X X X X X X o X X X X o X X o o X X @ X.E '             ",
"      f.v f a & o o X X X X o X X X X X X X X X X X X X X X X X o X X X X X X X @ < Q K {           ",
"      7.j f 8 X o o X X X X X X O X X X X X X X X X X X X X X X X X X o X @ X X @ o +.H R r.        ",
"      Z f d 6 o o X X X X o o X X X X X X X X X X X X X X X X X X X o o X X X X X o - U J [         ",
"      4.f d 0 @ o o X X O > +.+.+.+.+.+.+.+.+.+.+.+.O.+.+.O.+.+.O.O.O.: @ X X X X @ , G J W         ",
"      4.f d * o X X X X o %.L L ] q.q.q.q.q.q.q.q.q.q.q.e.q.q.q.0.<.<.b % X X X X X , G J R         ",
"      4.f d * o X X X X X $.J K t.                              9.x f t O X X X X X , G J I         ",
"      4.f d * o X X X X X A J K u.                              7.z f t O X X X X X , G J I         ",
"      4.f d * o X X X X X %.J K u.                              7.z f t O X X . X X , G J I         ",
"      4.f s * o X X X X X $.J K u.                              7.z f t $ o X X X X , G J I         ",
"      4.f s * o X X X X X $.J K u.                              8.z f t O o X X X X , G J I         ",
"      4.f s * o o X X X o o.F ! ,.2.2.2.2.2.2.2.2.2.2.2.2.2.2.2.1.p y 7 X o @ o X X , G J I         ",
"      4.f s * o o X X X @ + < < % $ $ $ $ $ $ $ $ $ $ $ $ $ $ $ # # $ $ @ X X X X X , G J I         ",
"      4.f d * o X X X X X X @ o X X X X o X X X O @ X @ o X X o X o X X X X X X X o , G J I         ",
"      4.f d * o X X X X X X O X X X X X X X o o @ X X X X X X X X X X X X X o @ X o , G J I         ",
"      4.f d * o X X X X X X X X X X X X X X X X o X X X X X X X X X o X X X X O X X , G J I         ",
"      4.f s * o X X X X @ X X X X X X X X X X X X X X X @ X X X X X X o X X X X X X , G J I         ",
"      4.f d * o X o X X X X X X X X X X o X X X X X o o o X X X o X X o X X X X X X , G J I         ",
"      4.f d * o X X o X X < - - - ; - - - - - - - - - - - ; - - - - - , @ X X X X X , G J I         ",
"      4.f d * o X o X X o X.Y Y ` } ( ( ( ( ( ( ( ( ( ( ( ( ( ( _ D S #.+ X X X X X , G J I         ",
"      4.f d * o o X X X X $.J K r.                              s.M h u O @ X X X o < G J I         ",
"      4.f d * o o o o o X $.J K u.                              d.v f t O o o X X X < G J I         ",
"      4.f s * o o o @ X X $.J K u.                              d.v f t $ o X o X o < G J I         ",
"      4.f d * o o o X X X $.J K u.                              d.v f t O X o o X X , G J I         ",
"      4.f d & o @ o o X . %.J K u.                              d.v f t O o X o X X , G J I         ",
"      4.f d * o X X X X X $.J K u.                              d.v f t O o X @ X o < G J I         ",
"      4.f d * o X X X X X $.J K u.                              d.v f t $ o X X X o , G J I         ",
"      4.f d * o X X X X X $.J K u.                              d.v f t O o o X o X , G J I         ",
"      4.f d * o X X X o X $.J L u.                              d.v f t O o X X X o , G J I         ",
"      4.f d * o X X X X X $.J K u.                              d.v f t $ X X o X X < G J I         ",
"      4.f d * o @ X X X X $.J K u.                              d.v f t O X X o o X , G J I         ",
"      4.f d * o X X X X o $.J K u.                              d.v f t O o o o X X , G J I         ",
"      6.z l q 4 2 + . . . %.J K u.                                B k i 3 4 1 + . X = G J I         ",
"            3.  :.&.A A A ~ P R u.                                      =.-.i./ A A ^ T P W         ",
"                     .        ..                                              ..         .          ",
"                                                                                                    ",
"                                                                                                    ",
"                                                                                                    ",
"                                                                                                    "
};
