/* XPM */
static char *__resized[] = {
/* columns rows colors chars-per-pixel */
"50 50 119 2 ",
"   c None",
".  c #F65757",
"X  c #FF5756",
"o  c #FF5855",
"O  c #FF5459",
"+  c #F65A5A",
"@  c #FA5C5B",
"#  c #FF4E65",
"$  c #FF5064",
"%  c #FF4972",
"&  c #FF447C",
"*  c #E65E75",
"=  c #E95F74",
"-  c #DA6C6D",
";  c #D07372",
":  c #D77778",
">  c #E56767",
",  c #EC6261",
"<  c #FE6362",
"1  c #FE6A69",
"2  c #FE7374",
"3  c #FF3C86",
"4  c #FF3A8E",
"5  c #FF28AF",
"6  c #FF28B2",
"7  c #FF24B8",
"8  c #FE638B",
"9  c #FE6693",
"0  c #FF5AAA",
"q  c #FF57B7",
"w  c #FF61A6",
"e  c #FF1CCA",
"r  c #FF0DE4",
"t  c #FF07EF",
"y  c #FF09EF",
"u  c #FC10E5",
"i  c #FF07F1",
"p  c #FF09F0",
"a  c #FF03FF",
"s  c #FF0CFD",
"d  c #FF16FF",
"f  c #FF1AFF",
"g  c #FF3AE9",
"h  c #FE2DF0",
"j  c #FF27FF",
"k  c #FF32F3",
"l  c #FD36FE",
"z  c #FF39FF",
"x  c #937BE0",
"c  c #FF4BD2",
"v  c #FF43EF",
"b  c #FF46FF",
"n  c #FF49FF",
"m  c #FE54FF",
"M  c #FF5CFF",
"N  c #FF65FE",
"B  c #FF68FE",
"V  c #FF7AFE",
"C  c #68B7B8",
"Z  c #76BCBC",
"A  c #78BCBC",
"S  c #3ADAD9",
"D  c #0DF6F6",
"F  c #04FEFE",
"G  c #0DFEFE",
"H  c #12F4F5",
"J  c #14FFFF",
"K  c #1AFEFE",
"L  c #24FFFF",
"P  c #28FFFF",
"I  c #36FFFF",
"U  c #3BFFFF",
"Y  c #4EDADA",
"T  c #51D8D8",
"R  c #6ECDCE",
"E  c #4AFEFE",
"W  c #55F6F6",
"Q  c #5CF7F7",
"!  c #64FEFE",
"~  c #6EFEFE",
"^  c #72FFFF",
"/  c #7DFFFF",
"(  c #8E9E9E",
")  c #9B9797",
"_  c #9A9798",
"`  c #939B9B",
"'  c #9A9898",
"]  c #AB8A87",
"[  c #A68E8E",
"{  c #A98D8D",
"}  c #B28585",
"|  c #A3908E",
" . c #A29292",
".. c #8F9FA0",
"X. c #86A5A5",
"o. c #89A4A4",
"O. c #FE8D8E",
"+. c #FF87AE",
"@. c #FDA1A1",
"#. c #F9B3B5",
"$. c #FDB4BB",
"%. c #8481F3",
"&. c #94B4EE",
"*. c #96B8F4",
"=. c #FEB7C6",
"-. c #FAB7CA",
";. c #FF83FF",
":. c #FFB3FE",
">. c #92C1C2",
",. c #99C3C4",
"<. c #8EFFFF",
"1. c #94F5F5",
"2. c #92FFFF",
"3. c #99FFFF",
"4. c #A6FDFD",
"5. c #E7C6C8",
"6. c #FDC4C5",
"7. c #F0C9CB",
"8. c #CCDFE0",
/* pixels */
"                                                                                                    ",
"                                                                                                    ",
"                                                                                                    ",
"                                                                                                    ",
"                                                                                                    ",
"                                                                                                    ",
"                                                                                                    ",
"                                                                                                    ",
"            :.V M v c q 0 0 0 0 0 0 0 0 0 0 0 0 0 0 0 0 0 0 0 0 w +.$.@.6.                          ",
"          ;.z d e 3 # O O X O O O O O X O O X X X o o o O O X X X X < < 2 O.#.8.4.                  ",
"        N d a 5 # o o o o o X o o X X X X X X X o O o O o X X X X X o O X X @ : R !                 ",
"      N d a 7 O o o O o O o O X X X X X X X X X O o O o X X X X X X X X X X X o ; S I               ",
"      l a r % o o O X X X X X X X X X X X X X X o O o O O o O o O o O o X X X X o  .D U             ",
"      d a 5 o o X o X X @ X X o X X X X X X X X O o O X o O o O o O o O X X X X o > S F ~           ",
"    V s i 4 o o X X X X O o X X o o X X O X o O o O O o X X X X o o X X X X X X O + C F I           ",
"    B a i 3 o o X X X X - { { { { [  .] , o X o O o X - ] { { { {  .} , X X X X o . X.F K 2.        ",
"    B a t & o X X X X X  .H H W 1.*.%.x * o o X X X o ` H D Q 1.&.x x * + X X X X X X.F J 3.        ",
"    N a t & o o X X X X ' F F E   m s p & o o X @ o o ( F G ^   l a u & o X X X X X X.F J <.        ",
"    N a t & o o X X X X ' G F U   n a i & o X X X X O ( F G ^   j a r % o X X X O o X.F J 2.        ",
"    N a t & o X X X o X ) F F U   n a p & o X X X X o ( F J ^   j a r % o X X X O o X.F J 2.        ",
"    N a t & o o X X o X ) F G U   n a p & o X X o O o ( F G ~   j a r % o X X X o o X.F J 2.        ",
"    B a t & o X o X X O ) F F U   n a t & o X X O X X ( F G ^   j a r % o X X X O o X.F J 2.        ",
"    B a t & o X X X X X ) F G U   n a t & o o X o o X ( F G ^   j a u % o X O o O o o.F J 2.        ",
"    B a t & o X X X X X ' F F U   n a i & o O o o O o ( F G ^   j a r % o X o O o o o.F J 2.        ",
"    B a p & o o o O o X ) F F U   n a y & o o O O o X ( F G ~   j a r % o O O o O o X.F J 2.        ",
"    B a p & o o O o o X _ D F U   n a p & o O o o O X ..F G ^   j a r % o o o o o o X.F J 2.        ",
"    N a p & o X o O X X ) F F U   n a p & o o O O o o ( F G ^   j a r % o o o O O o X.F J 2.        ",
"    B a i & o X X X X X ) F F U   n a t & o o O o O o ..F G ^   j a r % o O O o O o X.F J <.        ",
"    B a i & o o o O o o  .F F U   n a p & o o o X X X ( F G ~   j a r % o o o O o X o.F J 2.        ",
"    N a i & o O o O O o ) F F U   n a i & o o O X X X ( F G ^   j a r % o o O o O o X.F J 2.        ",
"    N a i & o o O o o X ) F F U   n a t & o o X X X o ( F G ^   j a r % o O X X X X X.F J 2.        ",
"    N a i & o o o o O o  .F G U   n a p & o X X X X o ( F G ^   j a r % o o X X X X X.F J 2.        ",
"    N a i & o o o O O o ) D F U   n a t & o X X X X O ..F G ^   j a r % o X X X X X X.F J 2.        ",
"    B a i & o o O o o O ) F F U   n a i & o X o X X o ..F G ~   j a r % o X X X X X X.F J <.        ",
"    B a i & o o o o X o ) F F U   n a t & o o X o O o ( F G ^   j a r % o O O o X X X.F J 2.        ",
"    B a p & o O O o X o ) F G U   n a t & o o X O o o ( F G ^   j a r % o o o O X X X.F J 2.        ",
"    B a p & o o X X X X ' F G I   n a t & o o O o O X ( F G ^   j a r % o o O o o o X.F J 2.        ",
"    B a p & o o X X X X ) F F U   n a i & o X o o o X ( F G ^   j a r % o O o o O o o.F J 2.        ",
"    N a i & o O X X X X ) F G U   n a p & o o O O o o ( F G ^   j a r % o O o O o X X.F J 2.        ",
"    N a i & o o o X o X ) F F U   n a p & o o O o O X ( F G ~   j a r % o o O o O X X.F J 2.        ",
"    N a i & o O X X X X ) D F I   n a t & o O o X X X ( F G ^   j a r % o O O o o X X.F J <.        ",
"    N a i & o o X X X O ) F F U   n a i & o o O X X X ( F G ^   j a r % o o o O o X X.F J <.        ",
"    N a i & o o X o o X ) F F U   n a p & o o o X X X ( F G ^   j a r % o o o o O o o.F J <.        ",
"    V j k 9 1 1 + . . . _ F F U   M j h 8 1 1 + . . . o.F G ^   b f g 8 1 1 @ . . . X.F J <.        ",
"          -.  7.,.Z A A T K K E             7.,.Z Z Z Y K L /         =.  5.>.Z Z Z Y K L 3.        ",
"                  ^         ^                 2.          ^                 2.          /           ",
"                                                                                                    ",
"                                                                                                    ",
"                                                                                                    ",
"                                                                                                    "
};
