/* XPM */
static char *__resized[] = {
/* columns rows colors chars-per-pixel */
"50 50 246 2 ",
"   c None",
".  c #F65757",
"X  c #F75757",
"o  c #FF5453",
"O  c #FD5555",
"+  c #FF5454",
"@  c #FF5554",
"#  c #FF5555",
"$  c #FF5654",
"%  c #FF5655",
"&  c #FF5755",
"*  c #FF5556",
"=  c #FF5457",
"-  c #FF5557",
";  c #FD5757",
":  c #FF5656",
">  c #FF5756",
",  c #FF5657",
"<  c #FF5757",
"1  c #FF5854",
"2  c #FF5954",
"3  c #FF5855",
"4  c #FF5955",
"5  c #FF5856",
"6  c #FF5458",
"7  c #FF555B",
"8  c #FF535C",
"9  c #FF555C",
"0  c #F35858",
"q  c #F55858",
"w  c #F65B5B",
"e  c #F15E5E",
"r  c #FB5858",
"t  c #FB5959",
"y  c #FB5A5A",
"u  c #FC5858",
"i  c #FF4B6B",
"p  c #FF4B6E",
"a  c #FF4C6E",
"s  c #FF5066",
"d  c #F85765",
"f  c #FE5C60",
"g  c #FE5D69",
"h  c #FF4775",
"j  c #FF4874",
"k  c #FF4479",
"l  c #FF427D",
"z  c #D36B6B",
"x  c #D26D6D",
"c  c #D36D6D",
"v  c #D06E6E",
"b  c #D26E6E",
"n  c #D26F6E",
"m  c #D56C6C",
"M  c #D86B6B",
"N  c #DE686A",
"B  c #E76363",
"V  c #E76565",
"C  c #E86363",
"Z  c #FF6363",
"A  c #FC6464",
"S  c #FC6A6A",
"D  c #FF6E6F",
"F  c #FE7777",
"G  c #FE797A",
"H  c #FF3399",
"J  c #FF3598",
"K  c #FF319F",
"L  c #FF29AE",
"P  c #FF29AF",
"I  c #FF2AAE",
"U  c #FF27B3",
"Y  c #FF28B2",
"T  c #FF5987",
"R  c #FE5B87",
"E  c #FF5A88",
"W  c #FF5B88",
"Q  c #FF5C88",
"!  c #E36E89",
"~  c #FD748B",
"^  c #FF5AAA",
"/  c #FF5AAB",
"(  c #FE5BAB",
")  c #FF5BAD",
"_  c #FF56BA",
"`  c #FC68A1",
"'  c #FF1DC6",
"]  c #FF17D0",
"[  c #FF12DD",
"{  c #FF14DD",
"}  c #FF20C2",
"|  c #FF22D4",
" . c #FF0FE0",
".. c #FF0DE2",
"X. c #FF02F9",
"o. c #FF00FB",
"O. c #FF00FF",
"+. c #FF03FF",
"@. c #FF05FF",
"#. c #FF12FE",
"$. c #FF19FF",
"%. c #FF1AFF",
"&. c #FF1BFF",
"*. c #FF1EFF",
"=. c #FF27FF",
"-. c #FF28FF",
";. c #FF29FF",
":. c #FF2CFF",
">. c #FF39FF",
",. c #FF47DD",
"<. c #FF42F8",
"1. c #FF41FF",
"2. c #FF42FE",
"3. c #FF50FF",
"4. c #FF67E2",
"5. c #FF66FF",
"6. c #FF70FF",
"7. c #FF73FF",
"8. c #FF7FFF",
"9. c #6EB3B3",
"0. c #6FB4B4",
"q. c #60BCBC",
"w. c #71B2B2",
"e. c #71B3B3",
"r. c #70B4B4",
"t. c #71B4B4",
"y. c #72B4B4",
"u. c #7BB6B6",
"i. c #76BBBB",
"p. c #77BCBC",
"a. c #76BDBD",
"s. c #78BCBC",
"d. c #3FD3D3",
"f. c #31DCDD",
"g. c #17EFEF",
"h. c #1CECEC",
"j. c #07FAFA",
"k. c cyan",
"l. c #07FFFF",
"z. c #08F9F9",
"x. c #09F9F9",
"c. c #0AF9F9",
"v. c #0EFFFF",
"b. c #15F7F7",
"n. c #10FFFF",
"m. c #12FFFF",
"M. c #13FFFF",
"N. c #14FFFF",
"B. c #15FFFF",
"V. c #2BE3E3",
"C. c #20F3F3",
"Z. c #2EFFFF",
"A. c #2FFFFF",
"S. c #30FFFF",
"D. c #36FFFF",
"F. c #3DFFFF",
"G. c #3FFEFE",
"H. c #3FFFFF",
"J. c #51CECE",
"K. c #40D7D7",
"L. c #6ADFDF",
"P. c #6BDFDF",
"I. c #44E1E1",
"U. c #55E1E1",
"Y. c #42FFFF",
"T. c #53F0F1",
"R. c #53FFFF",
"E. c #6AE0E0",
"W. c #64F7F7",
"Q. c #60FFFF",
"!. c #62FEFE",
"~. c #64FFFF",
"^. c #6EFFFF",
"/. c #6FFFFF",
"(. c #73FFFF",
"). c #A68D8D",
"_. c #A78D8D",
"`. c #A68D8E",
"'. c #A78D8E",
"]. c #A58E8E",
"[. c #A68E8E",
"{. c #A78E8E",
"}. c #A68E8F",
"|. c #AB8A8B",
" X c #AD8989",
".X c #AA8B8C",
"XX c #A88D8D",
"oX c #A98E8E",
"OX c #A98F8F",
"+X c #AA8E8E",
"@X c #B48484",
"#X c #B98182",
"$X c #BA8283",
"%X c #BD8080",
"&X c #A79090",
"*X c #8ABCBD",
"=X c #98BCBE",
"-X c #A9BBBB",
";X c #FE8083",
":X c #FD8A89",
">X c #FD9291",
",X c #FE9E9F",
"<X c #FD8AB6",
"1X c #FEA0A1",
"2X c #B6B3D1",
"3X c #FF91D5",
"4X c #FF92D5",
"5X c #FF93D5",
"6X c #FF94D5",
"7X c #CFBFC1",
"8X c #FBA2CD",
"9X c #FF85FE",
"0X c #FF86FF",
"qX c #FF8CFE",
"wX c #FF92FF",
"eX c #FF94FE",
"rX c #FF9EFE",
"tX c #FFA3FF",
"yX c #FFB6FF",
"uX c #AAC3C4",
"iX c #9FDCF3",
"pX c #8FFDFD",
"aX c #8EFFFF",
"sX c #97F6F6",
"dX c #99F6F6",
"fX c #93FAFA",
"gX c #95FFFF",
"hX c #9BFFFF",
"jX c #9DFEFE",
"kX c #BAFFFF",
"lX c #BCFFFF",
"zX c #BEFFFF",
"xX c #BFFFFF",
"cX c #E1C7C8",
"vX c #FFCED0",
"bX c #ECD0D4",
"nX c #FED4D5",
"mX c #FFCCF4",
"MX c #FFCEF4",
"NX c #FECFF4",
"BX c #FECFF5",
"VX c #FEC1FF",
"CX c #FFC4FF",
"ZX c #FDD6F1",
"AX c #FED0F5",
"SX c #C2FFFF",
/* pixels */
"                                                                                                    ",
"                                                                                                    ",
"                                                                                                    ",
"                                                                                                    ",
"                                                                                                    ",
"                                                                                                    ",
"                                                                                                    ",
"                                                                                                    ",
"              0X5.<.,._ ) ^ ^ / ^ ^ ^ ^ / ^ ^ ^ ^ ^ / ^ ^ ^ ^ ^ ^ / ^ ^ ^ ( <X1X,X                  ",
"          eX3.#.{ H i 8 - - = = * - * - = = * - * - 6 = * * - * = 6 * = = 6 f Z S uXR.(.            ",
"        8.=.O.] j 3 3 > < < < < < < < < < < > < > < < < < < < < < < < > < < > : t t.k.Z.kX          ",
"      CX>.O.[ h 2 < < < < < < < < < < < < < < < < < > < < > < < < < < < < < < < t t.k.A.            ",
"      7.@.X.J 3 5 < < < < < < < < < < < < < < < < < < < < < > > < < < < < < < < r e.k.A.            ",
"      >.O. .p 4 > < < < < < < < < < < < < < < < < < < < < < < < < < 5 < < < < < r e.k.A.            ",
"    tX;.O.} 9 3 < < < < , # # # # # # # # # # # # # # # # # # # # # @ # # @ @ + O w.k.Z.            ",
"      &.O.Y 5 > 5 < < , N |.XX+XoXoXoXoXOXoXoXoXoXoXoXoXoXOXoXoXoXoXoXoXoXOXoX+X&XJ.l.D.zX          ",
"      %.O.L 3 5 < < < # .Xg.b.W.sXdXsXsXsXsXdXsXsXsXsXsXdXsXsXsXsXsXsXdXsXsXsXsXsXfXpXjX            ",
"      $.O.L 5 5 < < < # }.z.m.^.                                                                    ",
"      %.O.I 5 5 < > < # {.c.N.                                                                      ",
"      $.O.L 5 5 < < < # `.x.N.                                                                      ",
"      $.O.L 3 > > < < # ).c.N.                                                                      ",
"      %.O.L 5 5 > < < # }.j.n./.                                                                    ",
"      $.O.L 5 5 > < < * #Xd.K.2X5X5X4X4X3X5X6X4X6X5X4X4X3X3X5X6X4X5X5X6X4X5X8X  nX                  ",
"      $.O.L < 5 < > < < w B C d s s s s s s s s s s s s s s s s s s s s s s g D G 7X  gX            ",
"      %.O.L < > > > < < < : : > > > > > > > > > > > > > > > > > > > > > > > : % r u.M.H.xX          ",
"      %.O.I > < < 5 < < < < < < < < < < < < < < < < < < < < < < < < < < < < < < t r.k.Z.            ",
"      $.O.L > > > < < < < < < < < < < < < < < < < < < < < < < < < < < < < < < < r e.k.S.            ",
"      $.O.P > < 5 > < < < < < < < < < < < < < < < < < < < < < < < < < < < < < < t t.k.S.            ",
"      $.O.I < < > < > < , # # # # # # * # # # # # # # # # # # * * # # # # # # # ; y.k.S.            ",
"      %.O.L 5 < < > 5 < e M m z x x x b x x x b b x x x x x x n n x x x b x x c v q.k.A.lX          ",
"      %.O.L 5 < < > 5 # @Xf.V.U.P.P.E.L.P.P.P.L.E.P.P.P.P.L.E.P.P.P.P.P.E.L.P.P.E.T.F.~.            ",
"      $.O.P 5 < > < < # ].j.v.Q.                                                                    ",
"      $.O.I > < < 5 < # '.c.N.                                                                      ",
"      %.O.L 5 > < < < @ {.c.N.                                                                      ",
"      %.O.I > < < < < o _.c.N.                                                                      ",
"      $.O.L 5 < < < > + [.z.M.~.                                                                    ",
"      %.O.L 5 < < < > @  Xh.C.iXmXMXNXNXMXMXAXBXNXNXNXNXNXMXNXMXNXMXMXNXMXBXZX                      ",
"    rX-.O.U 5 5 < < < , V %X$X! W W W W W E R Q W W W W W W W W T E W W W W ~ :X>XbX                ",
"      1.O.' 7 5 5 < < < : @ + $ & % % % % % $ & % % % % % % % % $ % % & % % % # y =XG.!.            ",
"      6.+...a 4 < > < < < > < < < < < < < < < < < < < < < < < < < < < < < < < < t 0.k.Z.kX          ",
"      yX:.o.K 5 > > > < < < < < < < < < < < < < < < < < < < < < < < < < < < < < r t.k.S.            ",
"        wX*...k 1 > < < < < > < < < < < > < < < < < < < < < < < < < < < < < < < r t.k.A.            ",
"          9X2.| l , $ * : < < > < < < < < < < < < < < < < < < < < < < < < < < , u e.k.S.            ",
"            VXqX4.` ;XF A q . . . . . . . . . . . . . . . . . . . . . . . . . X 0 9.k.A.            ",
"                      vXcX-X*Xs.p.p.p.p.p.p.p.p.p.p.p.i.p.p.p.p.p.p.p.p.p.p.p.p.a.I.B.Y.SX          ",
"                            hX                                                        aX            ",
"                                                                                                    ",
"                                                                                                    ",
"                                                                                                    ",
"                                                                                                    "
};
