/* XPM */
static char *__resized[] = {
/* columns rows colors chars-per-pixel */
"50 50 120 2 ",
"   c None",
".  c #BE7F7F",
"X  c #FF5756",
"o  c #FF5857",
"O  c #FF5658",
"+  c #F35D5D",
"@  c #FE5858",
"#  c #FF4D67",
"$  c #FF4C6A",
"%  c #FF5164",
"&  c #FF4A71",
"*  c #FF487C",
"=  c #D76E6F",
"-  c #DC6B6D",
";  c #CD7F7F",
":  c #E66564",
">  c #E86464",
",  c #E86468",
"<  c #E16D6D",
"1  c #FC6362",
"2  c #FE6471",
"3  c #FD7A7C",
"4  c #BD807F",
"5  c #CB807F",
"6  c #FF3E83",
"7  c #FF3D89",
"8  c #FF3990",
"9  c #FF2DA4",
"0  c #FF2BB0",
"q  c #FF22BE",
"w  c #FF3EB1",
"e  c #FF4180",
"r  c #CC7F80",
"t  c #D67E81",
"y  c #CE5BB2",
"u  c #F647AF",
"i  c #FF0FDC",
"p  c #FF11DD",
"a  c #FF21C0",
"s  c #FF31D9",
"d  c #FF0FE2",
"f  c #FF0DEB",
"g  c #FF10E0",
"h  c #FF05F3",
"j  c #FF01FF",
"k  c #FF17FE",
"l  c #FF1FFE",
"z  c #FF21FF",
"x  c #AD5DE2",
"c  c #B56BE2",
"v  c #FF4BDF",
"b  c #FF60DF",
"n  c #FF75D8",
"m  c #FE7EDB",
"M  c #FF4BE0",
"N  c #FF42F1",
"B  c #FF44FE",
"V  c #FF4AFF",
"C  c #FF55FF",
"Z  c #FF64FF",
"A  c #FF6BFE",
"S  c #FF7FFF",
"D  c #61BDBD",
"F  c #72B4B3",
"G  c #3CD6D7",
"H  c #1CECEC",
"J  c #0BF7F7",
"K  c #03FFFF",
"L  c #0AFCFC",
"P  c #16F1F1",
"I  c #11FFFF",
"U  c #1AFFFF",
"Y  c #2BE1E1",
"T  c #26FFFF",
"R  c #33F8FA",
"E  c #3DFFFF",
"W  c #5BC1C1",
"Q  c #5FCFCF",
"!  c #43D3D3",
"~  c #52D7D6",
"^  c #5EE0E0",
"/  c #5AEEFE",
"(  c #49FDFD",
")  c #55FFFF",
"_  c #5FFFFF",
"`  c #61FFFF",
"'  c #6FFEFE",
"]  c #77FFFF",
"[  c #78FFFF",
"{  c #939D9D",
"}  c #999998",
"|  c #AA8C8C",
" . c #B58585",
".. c #BC8181",
"X. c #BB8B8C",
"o. c #9896B0",
"O. c #84A6A6",
"+. c #8EABAB",
"@. c #CD8080",
"#. c #E98282",
"$. c #FE8C91",
"%. c #FE8799",
"&. c #E79495",
"*. c #FC9797",
"=. c #FEA5A6",
"-. c #FEB6B7",
";. c #FE85CC",
":. c #FD8CFF",
">. c #FF93FE",
",. c #F3B3FE",
"<. c #B6DDDE",
"1. c #BDDDDD",
"2. c #8DFFFF",
"3. c #91FFFF",
"4. c #9BFFFF",
"5. c #A3FFFF",
"6. c #C2C3DF",
"7. c #FFD8FF",
"8. c #FFE0FF",
"9. c #F1FDFF",
/* pixels */
"                                                                                                    ",
"                                                                                                    ",
"                                                                                                    ",
"                                                                                                    ",
"                                                                                                    ",
"                        7.                                          8.                              ",
"                    A C B N M M M v v v M v v v M v v v v v M v v v b n ;.                          ",
"                C k j i 9 6 $ # $ # $ # $ $ # # $ # # # # # $ # # # # $ 2 3 $.&.  '                 ",
"              V j j q & o o o o o o o o o o o X o o o o o o o o o o o o X X @ 1 ; Q ( 2.            ",
"            Z j j 0 % @ o @ o o o o o X O O o X o X O X o o X o O o O o o X X X X - ! T ]           ",
"          >.z j p $ o @ @ @ X X o @ X o X O X X X o X X X o o X X X X X o X o X X X  .P T           ",
"          A j j 9 o @ o o o X X X X o X o X X X X X O o O o o X X o X X X o O o X X + W K )         ",
"          V j h * o @ o @ o X X X X X X X X X X X X X X X X X X o o X X X @ o X X X X } L T 5.      ",
"          V j d $ @ o o O o @ : - - < < < < < < < < < < < < < < < < - - , O o o X X X  .J I 4.      ",
"          V j p $ @ @ @ o X > D Y ^ <.1.1.1.1.1.1.1.1.1.1.1.1.1.<.6.c x y O X X X X X . P L [       ",
"          V j p $ @ @ @ @ X > G K )                               :.z j a O X X X X X . P K [       ",
"          V j p $ o @ o X X > G K _ 9.                              l j a O X o O o X . P L ]       ",
"          V j p $ o @ o o X > G K _                                 l j a O O o @ o X . P K ]       ",
"          V j p $ o X X o X > G K _                                 z j a O O X X X X 4 P L ]       ",
"          V j p $ o X o o X > G K `                                 z j a O X X o X X . P K ]       ",
"          V j p $ o X X o X > G K _                                 l j q O o o o X X . P K ]       ",
"          V j p $ o X o X X > G K _                                 l j q O o o o o X . H K [       ",
"          V j p $ X o @ o X > G K _                                 l j q O O o o X X . P L ]       ",
"          V j p $ o O o O X : G K _                                 l j a O O O o o X . P K [       ",
"          V j p $ o X o o X > G K `                                 z j a O o @ X X X . P K [       ",
"          V j p $ o X O o X > G K `                                 z j a O O o X X X . P K [       ",
"          V j p $ o o O o X > G K _                                 l j q O O X X X X . P L ]       ",
"          V j p $ o O o o X > G K _                                 z j a O O O o X X ..P L ]       ",
"          V j p $ o o o o o : G K _                                 z j q O X X o o X . P L ]       ",
"          V j p $ o o @ X X : G K _                                 z j a O X X o o X . P K [       ",
"          V j p $ o X o X X : G K `                                 z j a O X X X X X . P L ]       ",
"          V j p $ o X X X X : G K _                                 z j a O X X X X X . P K [       ",
"          V j p $ X X o X X > G K _                                 z j a O O O @ o X . P K [       ",
"          V j p $ o O X o X > G K `                                 l j a O X O o o X . P K [       ",
"          C j p $ o O o o X > G K / ,.                            A k j a O o O O o X . P L [       ",
"          V j p $ o X O o @ + { F o.u w w w w w w u w w w w w w w w 0 0 8 O O o o X X ..P K [       ",
"          Z j f & o X X O o @ @ @ @ O O O O O O O O O O O O O X O O O O O @ O o X X X | J L 2.      ",
"          :.z h 7 o O o O o o X X X o X X X X o O O X o X O o o X O o @ o O X o X X X O.K U 4.      ",
"            Z j q O o X X X O o X O O X O X X X O O X X O X O O O O X X O O X X X X : ! K E         ",
"              C f 6 o O o @ O o @ X X X O X o X X X X X X X X X X X @ X o @ o O X o { L L '         ",
"                Z s * o X @ @ @ @ o X O X X X X X X X X o X o @ X X o X O @ X o @ | Y K )           ",
"                  S m %.3 1 @ @ X X X X X X X X X X X X X X X o X X X X X @ @ - O.H U `             ",
"                          -.=.*.#.t @.r 5 5 5 5 ; ; ; ; ; ; @.@.; ; 5 ; 5 X.+.~ R ) 2.              ",
"                                                                                                    ",
"                                                                                                    ",
"                                                                                                    ",
"                                                                                                    ",
"                                                                                                    ",
"                                                                                                    ",
"                                                                                                    "
};
