/* XPM */
static char *__resized[] = {
/* columns rows colors chars-per-pixel */
"50 50 147 2 ",
"   c None",
".  c #BF7E7E",
"X  c #ED5F5F",
"o  c #FF5757",
"O  c #FF5857",
"+  c #FF5758",
"@  c #F55D5C",
"#  c #FE5858",
"$  c #FF4F67",
"%  c #FF4D6A",
"&  c #EE5E60",
"*  c #FF5163",
"=  c #F55962",
"-  c #FF4773",
";  c #FF437B",
":  c #FE4F7E",
">  c #DC6C6C",
",  c #CE7475",
"<  c #C57979",
"1  c #C87B7A",
"2  c #D47272",
"3  c #E56565",
"4  c #EC6061",
"5  c #E16868",
"6  c #FD6363",
"7  c #FF6D6C",
"8  c #EE7272",
"9  c #FF3B8B",
"0  c #FF3893",
"q  c #FF329B",
"w  c #FF2CA7",
"e  c #FF2CA9",
"r  c #FF30A4",
"t  c #FF26B6",
"y  c #FF29B6",
"u  c #FF24B9",
"i  c #F72CBB",
"p  c #BF7F80",
"a  c #FF4083",
"s  c #FF1DC5",
"d  c #FF17D1",
"f  c #FF13DB",
"g  c #FF20C1",
"h  c #FF2AC0",
"j  c #FF26CC",
"k  c #FF28C9",
"l  c #FF36C1",
"z  c #FF27D7",
"x  c #FF0CE6",
"c  c #FF09ED",
"v  c #FF05F4",
"b  c #FF00FF",
"n  c #FE0DFF",
"m  c #FF1DF1",
"M  c #F614FF",
"N  c #FF13FF",
"B  c #FF1CFF",
"V  c #FF24E5",
"C  c #FE31E3",
"Z  c #FF30ED",
"A  c #FF27FF",
"S  c #FF29FC",
"D  c #FF37F1",
"F  c #FF34FC",
"G  c #FF3AFE",
"H  c #857FF8",
"J  c #FF42C1",
"K  c #FF4AC4",
"L  c #FF44D2",
"P  c #FE7ED0",
"I  c #FF46F5",
"U  c #FF43FF",
"Y  c #FF4BFB",
"T  c #FF52FF",
"R  c #FF5DFE",
"E  c #FF69FF",
"W  c #FF7AFF",
"Q  c #79AEAE",
"!  c #60BDBE",
"~  c #6AB8B8",
"^  c #6CB5B5",
"/  c #76B0B0",
"(  c #5EBFC0",
")  c #3FD4D4",
"_  c #3CD8D7",
"`  c #34DCDC",
"'  c #39D8D8",
"]  c #1DECEC",
"[  c #19E5FD",
"{  c #01FFFF",
"}  c #0AFEFE",
"|  c #0FF5F5",
" . c #1CFFFF",
".. c #1DF2F2",
"X. c #25E5E6",
"o. c #27EAEB",
"O. c #31E1E1",
"+. c #3BEDEF",
"@. c #24F6F6",
"#. c #23FEFE",
"$. c #2BFDFD",
"%. c #32FFFF",
"&. c #3BFFFF",
"*. c #4CCCCC",
"=. c #58C3C4",
"-. c #41D3D3",
";. c #51DEDE",
":. c #5BD3D3",
">. c #43FEFE",
",. c #54FEFE",
"<. c #64FEFE",
"1. c #69FFFF",
"2. c #70FFFF",
"3. c #7CFEFE",
"4. c #989999",
"5. c #919C9C",
"6. c #A58F8F",
"7. c #AB8B8C",
"8. c #B78384",
"9. c #82A6A6",
"0. c #88A1A8",
"q. c #A7B8BA",
"w. c #D48B8C",
"e. c #FE8485",
"r. c #FE93A2",
"t. c #FE91B5",
"y. c #F7A9AE",
"u. c #FDADAE",
"i. c #A19EFE",
"p. c #FE8FCB",
"a. c #FF86FE",
"s. c #FF8AFF",
"d. c #FF94FF",
"f. c #FF9DFF",
"g. c #FFA4FF",
"h. c #FFADFF",
"j. c #FEB2FF",
"k. c #FFB8FF",
"l. c #83FEFE",
"z. c #8CFEFF",
"x. c #93FFFF",
"c. c #9AFFFF",
"v. c #A4FFFF",
"b. c #FEC7CA",
"n. c #FFC1FF",
"m. c #FED3FF",
"M. c #D4FEFE",
/* pixels */
"                                                                                                    ",
"                                                                                                    ",
"                                                                                                    ",
"                                                                                                    ",
"                                                                                                    ",
"                                                                                                    ",
"        j.j.h.h.h.j.g.                                            n.j.h.h.h.h.j.                    ",
"      m.G N V l l l K t.                                          R N m l l l J p.                  ",
"      m.A b u + + + # 6 # w.+.} 2.                                T b f % + + # 6 6 8 :.} #.        ",
"      m.A b t + + + # # o < ] { 1.                                T b f % + O # o o 4 ) {  .        ",
"      m.A b u + O + # # o < ] { 1.                                T b f $ o O O o o 4 ) {  .        ",
"      m.A b u + # # # # o < ] { 1.                                T b f $ o + O + o 4 ) {  .        ",
"      m.A b u # + O O o o < ] { 1.                                T b f $ O # # O o 4 ) { #.        ",
"      m.A b t + O # O o o < ] { 1.                                T b f * O O # O o 4 ) { #.        ",
"      m.A b u o O + O O o < ] { 1.                                T b f $ # O # O o 4 ) {  .        ",
"      m.A b t o o o O O o < ] { 1.                                T b f $ # O O # o 4 ) {  .        ",
"      m.A b t + o O o o o < ] { 1.                                T b f $ O O # # O 4 -.{  .        ",
"      m.A b t + o o o o o < ] { 1.                                T b f $ O O O O o 4 ) { #.        ",
"      m.A b t o + O o o o < ] { 1.                                T b f * O + O O o 4 ) {  .        ",
"      m.A b t + O O o o o < ] { 1.                                T b f % # # O o o 4 ) { #.        ",
"      m.A b t + o + o O o < ] { 1.                                T b f $ O # O # o 4 ) { #.        ",
"      m.A b t + o # O O o < ] { 1.                                T b f % o O + O o 4 ) {  .        ",
"      m.A b u + # O + O o < ] { 1.                                T b f $ O O O o o 4 ) { #.        ",
"      m.A b u + o O + O o < ] { 1.                                T b f $ o + O # o 4 -.{ #.        ",
"      m.A b t + o # O # o < ] { 1.                                T b f $ O + O O o 4 ) { #.        ",
"      m.A b t + o O o O o < ] { 1.                                T b f $ O + o O O 4 ) { #.        ",
"      m.A b t + O + o O o < ] { 1.                                G b f $ O o + O O 4 -.{ #.        ",
"      m.A b t o o + O O o > -.{ >.                              R n b s * O o O O o 4 ) { #.        ",
"      n.A b t o o o O O o O < -. .2.                        k.Y b v g % O O + o O o X ) { #.        ",
"        T b u + + O + o o o o > =.$.l.                    g.U b v e * O o + O O o o 3 ` { #.        ",
"        f.B f % + + o O O o + o 3 ^ @.1.                a.F b c q + O o + O + o o o . ] { >.        ",
"          s.S w + o O O O o o O o 4 9...,.            W A b x 0 + O o + O # o o o 3 ( {  .z.        ",
"            W D r * O # O # O # O o @ 4.o.>.        T B b f a # o O # o O + o o 5 ~ }  .<.          ",
"              d.I y * O O O + o O O o # 7.O.#.    G N b d ; O # # O O # O O o 2 =.}  .l.            ",
"                  F i % O O O + o O o O O . ' #.i.M b s % # O # O O o O O O < ) { $.<.              ",
"                    T j - O O O # + # O O o 2 *.[ H i $ O o O O + O + o @ 8.` } &.z.                ",
"                      E z ; o o o + O O O + o > ~ 0.= o O O o + o O o @ 6.X.} $.v.                  ",
"                        W C 9 + O + O + O o o o @ @ O o o o O O o o @ 5.] } <.                      ",
"                          a.Z q # # O # o o o + o o o O o # o o o 4 Q | } 1.M.                      ",
"                            s.D w * O O + o o + o O o o o o o o > ! }  .3.                          ",
"                              g.Y y % + + o # o + o + o + O o , *.} $.x.                            ",
"                                  Y k % o O + # O O O o o o 8.' { %.z.                              ",
"                                    W L : # + o o o + o @ 6.X.} &.c.                                ",
"                                        P r.e.7 6 6 4 2 / ]  .,.                                    ",
"                                              b.u.y.q.;.$.,.3.                                      ",
"                                                                                                    ",
"                                                                                                    ",
"                                                                                                    ",
"                                                                                                    ",
"                                                                                                    "
};
