/* XPM */
static char *__resized[] = {
/* columns rows colors chars-per-pixel */
"50 50 119 2 ",
"   c None",
".  c #EE5F5F",
"X  c #FF5757",
"o  c #FF5857",
"O  c #FF5659",
"+  c #F7595A",
"@  c #FE5958",
"#  c #FE4E68",
"$  c #FF5163",
"%  c #FF4777",
"&  c #FF417E",
"*  c #DF6A6B",
"=  c #D66F70",
"-  c #DF6F70",
";  c #CC7676",
":  c #D47373",
">  c #DD7070",
",  c #D07878",
"<  c #E56767",
"1  c #EE6161",
"2  c #E26867",
"3  c #E56969",
"4  c #FE6465",
"5  c #FF6867",
"6  c #F16A69",
"7  c #E07171",
"8  c #ED7474",
"9  c #F37375",
"0  c #FF797E",
"q  c #FF3E87",
"w  c #FF3B8C",
"e  c #FF29AF",
"r  c #FF32AC",
"t  c #FF3CAC",
"y  c #FF27B4",
"u  c #FF22BC",
"i  c #FF37B9",
"p  c #FF38B9",
"a  c #FB40AB",
"s  c #FE74B7",
"d  c #FF19CD",
"f  c #FF14D8",
"g  c #FF37C5",
"h  c #FF3AC4",
"j  c #FF35C8",
"k  c #FF2BDA",
"l  c #FF0EE4",
"z  c #FF06EF",
"x  c #FF0AEB",
"c  c #FF05F3",
"v  c #FF00FF",
"b  c #FF0AFF",
"n  c #FF22F0",
"m  c #FF24FF",
"M  c #FF2AFF",
"N  c #FF3AFE",
"B  c #FF43FF",
"V  c #FF5BFE",
"C  c #FF62FF",
"Z  c #FF70F2",
"A  c #FF74FE",
"S  c #77AFAF",
"D  c #78B0AE",
"F  c #64BBBA",
"G  c #37D9DA",
"H  c #1BEDED",
"J  c #00FFFF",
"K  c #0AFFFF",
"L  c #16FFFF",
"P  c #2CE2E2",
"I  c #2FFFFF",
"U  c #32FEFE",
"Y  c #3FFFFF",
"T  c #46CFCF",
"R  c #4EC9CB",
"E  c #47D0CF",
"W  c #46D1D1",
"Q  c #48D6D6",
"!  c #5DD5D5",
"~  c #6DD6D7",
"^  c #6BD7D9",
"/  c #5BE2E2",
"(  c #4BE4FE",
")  c #4FEAFF",
"_  c #41FFFF",
"`  c #4BFFFF",
"'  c #5BFEFE",
"]  c #60F1F3",
"[  c #6AFFFF",
"{  c #7DFFFF",
"}  c #9C8EBA",
"|  c #A489AF",
" . c #89A4A4",
".. c #FB8787",
"X. c #FD8B8B",
"o. c #FD89B4",
"O. c #FC8DBA",
"+. c #FDA1A2",
"@. c #FEBABA",
"#. c #FD97CC",
"$. c #FF82FB",
"%. c #F589FB",
"&. c #FF8DFE",
"*. c #FF9EFF",
"=. c #F6A5FF",
"-. c #FFA0FF",
";. c #FFB2FF",
":. c #8FD8DB",
">. c #94D8DA",
",. c #8BFFFF",
"<. c #9CF5F8",
"1. c #A8FFFF",
"2. c #C7DADA",
"3. c #C8D9D9",
"4. c #FCC7C8",
"5. c #FFC8FF",
"6. c #C7FFFF",
"7. c #DFF1F2",
"8. c #D5FFFF",
/* pixels */
"                                                                                                    ",
"                                                                                                    ",
"                                                                                                    ",
"                                                                                                    ",
"                                                                                                    ",
"                    5.;.;.;.;.;.;.;.;.;.;.;.;.;.;.;.;.;.;.;.;.;.;.;.;.;.;.;.;.;.                    ",
"                C N M n k j j j h g g j j j g j j g j j j j g g j g g j g g j g #.                  ",
"            A M b z y q # O O O @ O O O O O O O O O O O O O O O O O O O O O O O 4 5 9 ^ K `         ",
"          &.m v l w O o o o @ o X o o O o o @ X o O o o o X O o O o o X X o X X X X . E J _         ",
"          N v z w o @ o @ o o o o o o o @ o X X X o X X X X o o X o o o o O @ X o X 1 E J _         ",
"        V b v e O o o @ o X X X o o X O O o o X X O o @ o X X X X X X X o X @ X X X 1 W J Y         ",
"        B v l % o @ @ o o o X o O X o X X X X O @ X X X o o o O X X X X X X X X X X . T J _         ",
"        N v d $ o @ o @ o o X X X X X X X X X X X X X X X X X X X X X X X X X o X X + E J _         ",
"        M v u X @ o @ o o + < 2 < 3 < < 3 3 < < < 3 3 3 3 < < < 3 3 3 < < 3 3 3 3 < : Q J _         ",
"        M v y o @ o @ o o : R G ~ 2.3.3.3.3.3.3.3.3.3.3.3.3.3.3.3.3.3.3.3.3.2.2.2.2.2.<.,.1.        ",
"        M v y o @ o @ o o ; H J Y                                                                   ",
"        M v y o X o X X X ; H J I                                                                   ",
"        M v y O O o o X X ; H J U                                                                   ",
"        M v y O O o X X X ; H J U                                                                   ",
"        M v y X X o X X X ; H J I                                                                   ",
"        M v y o O O o o X ; H J ) =.*.*.*.*.*.*.*.*.*.*.*.*.*.*.*.*.*.*.*.*.-.-.                    ",
"        M v y X o X o o X * S F } p p p p i i i i i i i p p i i i i p i i p p p O.                  ",
"        M v y o o O o O o @ + + + O O O O O O O O O O O O O O O O O O O O O O O @ @ 6 ! L '         ",
"        M v y X X X @ o @ o X X o o o X X X X X X X X X O X X X X @ o O X O O o O X 1 W J _         ",
"        M v y X O o @ X @ X X X o X X X O X X o X X X X X X O o O X o X O @ X X X X 1 E J _         ",
"        M v y X X o X o O X o X X X X X o o X o X O X X X X X X X X X X o X X X X X 1 T J _         ",
"        M v y O o O o O o o o X X o X X o X @ @ X X X X X X X O X X O X X X X X X X 1 T J _         ",
"        M v y o X X X @ o O X X X X X X X X @ @ X X X X X X X X X X X X X X X X X X 1 T J Y         ",
"        M v y X o X X X @ + 2 * * - - - > 7 7 7 7 7 7 7 - 3 > > 7 7 7 - 7 7 7 7 - 3 , Q K `         ",
"        M v y o X o o o o : W P / >.>.>.>.>.>.>.>.>.>.>.>.>.>.>.>.>.>.>.>.>.>.>.>.>.:.' ` {         ",
"        M v y X X O o X X ; H J U                                                                   ",
"        M v y O o o o o X ; H J U                                                                   ",
"        M v y X O o X o X ; H J U                                                                   ",
"        M v y X X o o o X ; H J I                                                                   ",
"        M v y X X o o o X ; H J I                                                                   ",
"        M v y X o O O o X ; H J ( %.$.$.$.$.$.$.$.$.$.$.$.$.$.$.$.$.$.$.$.$.$.&.                    ",
"        N v y O o X X o X <  .S | t t t t t t t t t t t t t t t t t t t t t t t O.@.4.7.6.8.        ",
"        N v u O o X o X X X o + X O @ O X o O O X O O X O O O O X X o O O X X O @ @ 1 ~ U [         ",
"        A b f # o X X O o o X X X X X o X X o X X X X o X X X @ X o o o X X X o @ o 1 T J _         ",
"          B c q o o X @ o @ X o @ o X X X X o O X X O o X o X o X X X O X @ o X o o 1 W J _         ",
"          &.M d $ o o o o X o o X O X X O o X X X @ X o X X X X X X X o o O X X X X < E J _         ",
"            &.B r O o o X X o o X X X X o o o o X X X X o X X X O o X O X X X X X X $ T J Y         ",
"                Z s s 4 o o o X X X X o X X X X X X X X X X X X X X o X X X X X X X . T J Y         ",
"                      @.+.X...6 - > > > > > * > > * > > > * > > > > > > * > > > - - ; Q K `         ",
"                                                                                                    ",
"                                                                                                    ",
"                                                                                                    ",
"                                                                                                    ",
"                                                                                                    ",
"                                                                                                    "
};
