/* XPM */
static char *__resized[] = {
/* columns rows colors chars-per-pixel */
"50 50 146 2 ",
"   c None",
".  c #BF7D7D",
"X  c #FF5756",
"o  c #FF5856",
"O  c #FF5758",
"+  c #FE5958",
"@  c #F65A5A",
"#  c #FF4F66",
"$  c #FF4B69",
"%  c #EE5C65",
"&  c #FF5262",
"*  c #FF437A",
"=  c #DD6B6B",
"-  c #D96B75",
";  c #C27D7D",
":  c #CE7374",
">  c #DA7474",
",  c #E56665",
"<  c #EC6161",
"1  c #E16969",
"2  c #FF6665",
"3  c #F26F6F",
"4  c #FE6C6D",
"5  c #BB807F",
"6  c #FF3D87",
"7  c #FF3C88",
"8  c #FF3793",
"9  c #FF3991",
"0  c #FF329D",
"q  c #FF2EA3",
"w  c #FF2CA9",
"e  c #FF25B6",
"r  c #FF29B0",
"t  c #FF24BC",
"y  c #E83DBE",
"u  c #BD748D",
"i  c #FF4986",
"p  c #FC4F9F",
"a  c #FB429B",
"s  c #FF5C9F",
"d  c #C77780",
"f  c #C57C80",
"g  c #C1768F",
"h  c #CE6893",
"j  c #C6769C",
"k  c #ED7F81",
"l  c #FE7892",
"z  c #E04BB2",
"x  c #FF19CA",
"c  c #FF1FEF",
"v  c #FF0EF7",
"b  c #FF00FF",
"n  c #FF1CF1",
"m  c #FF1DFF",
"M  c #FF23F5",
"N  c #FF20FA",
"B  c #FF2FFC",
"V  c #FF35FF",
"C  c #FF40C0",
"Z  c #C140F7",
"A  c #C951F3",
"S  c #FF4BEA",
"D  c #FF5EF8",
"F  c #FF6DF6",
"G  c #FF62FF",
"H  c #FF6BFE",
"J  c #FE74F6",
"K  c #FF76FA",
"L  c #FF78F8",
"P  c #7EABAB",
"I  c #76AFB0",
"U  c #77BBF7",
"Y  c #3CD7D7",
"T  c #30DFDF",
"R  c #38DADA",
"E  c #1DEBEB",
"W  c #0EF6F6",
"Q  c #04FFFF",
"!  c #0BFEFE",
"~  c #15F1F1",
"^  c #14FFFF",
"/  c #18FFFF",
"(  c #1AF3F3",
")  c #27E6E6",
"_  c #2CE2E2",
"`  c #25EAEA",
"'  c #21F3F3",
"]  c #2CFFFF",
"[  c #33F5F7",
"{  c #38F2F3",
"}  c #33FFFF",
"|  c #39FFFF",
" . c #47CFCF",
".. c #58D2D2",
"X. c #53EDED",
"o. c #42FBFC",
"O. c #4AFFFF",
"+. c #56FFFF",
"@. c #59FEFE",
"#. c #58F2F2",
"$. c #78E3F4",
"%. c #62FFFF",
"&. c #6CFFFF",
"*. c #72FEFF",
"=. c #7FFFFF",
"-. c #73F3F3",
";. c #9D9595",
":. c #989B9A",
">. c #A78F8F",
",. c #AA8D8D",
"<. c #BC8282",
"1. c #B28A89",
"2. c #B58888",
"3. c #A68F90",
"4. c #A99494",
"5. c #82A7A7",
"6. c #8CA1A1",
"7. c #95A9AA",
"8. c #A2A2A3",
"9. c #CC8485",
"0. c #CB8D8E",
"q. c #C28D8E",
"w. c #CB908F",
"e. c #CA8F90",
"r. c #FC8B8B",
"t. c #FE9495",
"y. c #FD9899",
"u. c #FE97BB",
"i. c #FEA4AF",
"p. c #FEACAC",
"a. c #FDB8BB",
"s. c #B9B7F0",
"d. c #C384F1",
"f. c #FF89F6",
"g. c #FF80FF",
"h. c #FE8DFC",
"j. c #FF9DF3",
"k. c #FFACFF",
"l. c #92ECED",
"z. c #81FFFF",
"x. c #8EFFFF",
"c. c #BCFFFF",
"v. c #F5C8C9",
"b. c #CEC9F2",
"n. c #C5F3F3",
"m. c #C1FAFB",
/* pixels */
"                                                                                                    ",
"                                                                                                    ",
"                                                                                                    ",
"                                                                                                    ",
"                                                                                                    ",
"        K H H F F F F F F F F F F F F F F F F F F F F F F F J F F f.j.                              ",
"        m b x 7 i 6 6 6 7 6 6 6 6 6 6 6 6 6 6 6 6 6 i 6 6 6 7 6 i 6 i l t.p.                        ",
"        m b e X o o o o o o o o o o o o o o o o o X o o o o o X o o + o + 2 3 8.X.&.                ",
"        m b e O o o O o o o o X O O o o O X o X X o o X O O X O X X X X X X X @ ;.` O.              ",
"        m b e O o o O + X X + X o X o O o X X X O o o O o o O o X X X X X X X X @ 5.! O.            ",
"        m b e O + + + + o X X X X O o O O o X X X X O X o o X o X X X X O X O X o = R Q *.          ",
"        m b e O + + + + X X X X X o X o O O X X X X o O O X o O X X X X X X X X O + I Q ]           ",
"        m b e O o + O o o o X X X X X X X X X X X X X X X X X X X X X X O o o o o X 3.W /           ",
"        m b e O o o o O X < 2.,.2.0.0.0.e.0.0.0.0.0.0.w.0.0.0.0.0.g u - O O O o O X <.~ Q +.        ",
"        m b e O o O o o X ; ) W #.n.n.n.n.n.n.n.n.n.n.n.n.n.n.n.b.A Z z O O o O o X ; ~ Q z.        ",
"        m b e O o o o O X . ~ Q ]                               k.m b e O O O O o o ; ~ Q z.        ",
"        m b e o X O o o X . ~ Q ]                               k.m b e O O X O o X ; ~ Q z.        ",
"        m b e O X X o o X . ~ Q }                               k.m b e O O O X o X ; ~ Q z.        ",
"        m b e O X O X o X . ~ Q ]                               k.m b e O O O O X X ; E Q z.        ",
"        m b e O o O X X X . ~ Q |                               k.m b e O O O X o X ; ~ Q z.        ",
"        m b e O X O O o X ; E W U J K K L L J L L K K K L K J L D v b e O X O o X X . ~ Q z.        ",
"        m b e O o o o o X , ,.;.h 9 8 7 9 9 9 9 9 9 9 7 9 9 9 9 8 7 8 * O o O X X X <.~ Q z.        ",
"        m b e O O o O X X X X X X o o o o o o o o o o o o o o o o X o o O O X X X X >.W ! *.        ",
"        m b e O O o O o X X X X o X X o o X X X X X X X X o X o o o o O O o X X o o P Q ^           ",
"        m b e O o O O o O o X X O o o o X X X O X o O X X X X O X X X X o O X X X = Y Q ]           ",
"        m b e O O X o O o O X X X X X X o O o o X X o X o O X o X X o O X X X X + 6.! ! &.          ",
"        m b e O O o o o o O o X o X X X O o O o X X O O X X O o X X O O O X X @ ,.E ! %.            ",
"        m b e O X X O O o o X X X X X X X O o o O o o X X X X X X X X X X o , 6.E ^ %.m.            ",
"        m b e O o O o O X < ; <.; ; % O O o O O X o X X = . . 9.9.9.0.9.q.7...[ o.z.                ",
"        m b e O X X o o X ; ) ~ $.d.y $ o O o o O O X X :  .~ -.l.                                  ",
"        m b e O X X X X X . ~ Q *.h.N t # O o o o O X o X . T ] z.                                  ",
"        m b e O X X X X X . ~ ! +.  L B t # X o O o X X o X <._ } z.                                ",
"        m b e O X X O o X . ~ ! +.    K N e & O O o O o X X o 2._ }                                 ",
"        m b e O o O o X X . ~ ! @.        m r & X O O o O o X O 2.) |                               ",
"        m b e O O o O X X . ~ ! @.          m r & O o O o O O X O 1.` |                             ",
"        m b e O X o o O X . ~ ! @.            M w O o O o O o o O O ,.) | s.J h.                    ",
"        m b e O o X X o X . ~ ! @.            K M w O O O O o O o o O <.:.j a p i.p.v.m.c.          ",
"        m b e O o o X X X ; ~ ! +.              K M w O o O O X o O X o o O o + o X 9.{ ] x.        ",
"        m b e O X X o X X . ~ ! +.                H M 0 O O o o o o o o O o O o X X ; ~ Q =.        ",
"        m b e O o X X X X ; ~ ! +.                  H n 0 O X O O O O o o o O o X X ; ~ Q =.        ",
"        m b e O o X X X X . E Q +.                    G c 0 O O o O o O o O X X X X ; ~ Q z.        ",
"        m b e O o X X X X . ~ ! @.                      G n 8 O o o O X o X X X X X ; ~ Q z.        ",
"        V m C + o X X X X . ~ Q @.                        K S s 4 O X o X X X X X X : ~ Q z.        ",
"            u.t.r.r.: > > 4.' / @.                              a.y.r.r.> > > > > > 3.' / z.        ",
"                                                                                                    ",
"                                                                                                    ",
"                                                                                                    ",
"                                                                                                    ",
"                                                                                                    ",
"                                                                                                    "
};
