/* XPM */
static char *brow_resized[] = {
/* columns rows colors chars-per-pixel */
"50 50 155 2 ",
"   c #3E1A06",
".  c #3C1E0B",
"X  c #271711",
"o  c #2C1B16",
"O  c #2E1E19",
"+  c #311B16",
"@  c #311D19",
"#  c #3F240F",
"$  c #3D2615",
"%  c #3C251C",
"&  c #312925",
"*  c #3C2F2B",
"=  c #441C07",
"-  c #472004",
";  c #44220E",
":  c #48220A",
">  c #4A280F",
",  c #51290D",
"<  c #412511",
"1  c #462914",
"2  c #4E2D16",
"3  c #40271E",
"4  c #442B1B",
"5  c #4D2D19",
"6  c #512E16",
"7  c #5B2F17",
"8  c #512F19",
"9  c #4C3017",
"0  c #4E311A",
"q  c #533117",
"w  c #5B3316",
"e  c #55321B",
"r  c #59351D",
"t  c #57381F",
"y  c #5C381E",
"u  c #60371B",
"i  c #623A1E",
"p  c #432C23",
"a  c #4D2F20",
"s  c #4E3221",
"d  c #4C332C",
"f  c #563421",
"g  c #593621",
"h  c #573923",
"j  c #5C3921",
"k  c #543B2B",
"l  c #5B3C2C",
"z  c #513D32",
"x  c #613624",
"c  c #613B22",
"v  c #693E24",
"b  c #623E2A",
"n  c #693F28",
"m  c #5D432D",
"M  c #564635",
"N  c #5D4832",
"B  c #574438",
"V  c #5C4B3B",
"C  c #674122",
"Z  c #6B4225",
"A  c #60442F",
"S  c #6C432C",
"D  c #6D4731",
"F  c #614A3C",
"G  c #574C42",
"H  c #5B4A44",
"J  c #58554C",
"K  c #5C584E",
"L  c #5E5950",
"P  c #635243",
"I  c #6A5140",
"U  c #63564B",
"Y  c #695249",
"T  c #64594E",
"R  c #6D5A4E",
"E  c #645851",
"W  c #755F54",
"Q  c #706158",
"!  c #74685E",
"~  c #7E685C",
"^  c #7D7169",
"/  c #706E70",
"(  c #7F7672",
")  c #7D7872",
"_  c #817266",
"`  c #80746C",
"'  c #857771",
"]  c #807972",
"[  c #8F7A76",
"{  c #8A817B",
"}  c #8E8580",
"|  c #8C8B8A",
" . c #978781",
".. c #978B87",
"X. c #929087",
"o. c #999188",
"O. c #949595",
"+. c #999595",
"@. c #9B9A9B",
"#. c #A38F8A",
"$. c #A29A96",
"%. c #A39F9D",
"&. c #AD9E99",
"*. c #9FA09D",
"=. c #A8A19A",
"-. c #A4A3A3",
";. c #ACA5A4",
":. c #ADA9A2",
">. c #ACACAC",
",. c #B1A7A1",
"<. c #B4ACA4",
"1. c #B5AFA9",
"2. c #B9AFA9",
"3. c #B6B1AA",
"4. c #BBB1A9",
"5. c #B6B4B4",
"6. c #B8B7B7",
"7. c #BFBAB5",
"8. c #B7B7B8",
"9. c #B9B9BB",
"0. c #C6B9AF",
"q. c #C0B7B3",
"w. c #C3BBB7",
"e. c #C2BDB9",
"r. c #C4C3BC",
"t. c #CEC5BC",
"y. c #C3C3C3",
"u. c #CCC6C2",
"i. c #C6C7C9",
"p. c #C7C9CA",
"a. c #CCCBCC",
"s. c #D0C5C4",
"d. c #D2CFCB",
"f. c #CDD1CF",
"g. c #DAD0C7",
"h. c #D3D1CD",
"j. c #DBD5CF",
"k. c #D2D2D2",
"l. c #DBD4D1",
"z. c #DCD9D6",
"x. c #D6D6D9",
"c. c #DCDBDC",
"v. c #E0DDD4",
"b. c #E0DDDD",
"n. c #DEE1DF",
"m. c #DEE0E0",
"M. c #E2E3E3",
"N. c #E9E5E4",
"B. c #E8E9E5",
"V. c #E7EBE9",
"C. c #ECECEB",
"Z. c #EDEEF0",
"A. c #EDF1F2",
"S. c #F1F1F2",
"D. c #FBF9FC",
/* pixels */
"y r c c w y y r C 3 @ v j y w y y r r y c e e y r r r 8 e y r 8 r y e 7 r r e e e 8 r r 6 q j t 6 8 ",
"c c r r y c y y Z p + S r r y y e y r r q r j y e r r r r e r y y 8 e y r 8 e y e 7 e q e y q q t e ",
"y y y c y y y u Z 3 @ S y c e r y y r r y y r e j r e y j r j 7 e y r e r y e q e y e y e q r r q e ",
"i y i r y y y r Z s + n y w i y w r u r w r j y e r y r 8 r e j r e e y e 8 e x e q e e e t q 6 g e ",
"y i y r i w j c C % @ S y i r r i y q y y y e r j r j e g g r r e j r e e y q q e r e e r 8 g t 6 e ",
"y r c i r i w 6 c p + b 8 q y y e y y y y w r t e j 8 r g r r r r q r y r e e y e e q e q e 8 e f f ",
"c c e y j e Y q.g.h.h.j.s.! 5 j y r y e y y e y r y r y j g g e j r t w y t e q r y e y q e r e 8 8 ",
"w y i y y g H -.u.i.i.i.5.Q f t e y w y w t y w e e r w 8 7 r r e e e e q q t t q q e e e r q 6 r g ",
"y i r y r u y < [ ;.@.$.$ e i r y y w r r e r r i r w r r e e r r r r e y y q e t e e w e e e y 8 8 ",
"y e y c y y i > w.D.Z.b.s i y y r r j r i r r r e r r r r r i r r e e r e q e y e t e t r q e e g e ",
"c y r w g y j 2 ,.c.f.u.s 0 t y y r w r e r r r y e c r e y 8 y r r e e r y e t w e e 9 e t e q e e ",
"r y c u j e U t.V.V.B.C.l.^ 0 y w r r i r r r r r r e e r r y e e r r r e e e e q t w e e q t q 6 g ",
"i y y y r r G X.5.6.9.9.*.T q u e y y q r r e e r r 7 y y r 8 e y e e r y e q t e e 9 q q t q e e 8 ",
"y r e y y y e . ..9.>.:.< e r y y r r y j u y y r t g r r r y r y e r q e q t e t y e y q r g 8 8 g ",
"e r i w w y i , 0.D.Z.c.9 t y q t y r r e e r r e e e e e e 8 r q e t e y q e e q q q w 8 6 8 t 8 8 ",
"i r r y i t j t &.a.y.7.l h i u r w y r e j j e y r g y u 8 r x e e w t e e e y e j q 9 j r 8 5 g e ",
"y w y y e 8 U j.Z.C.C.C.M.` 1 x y r e r j r e r g r 7 r e r r 8 e j r e e y e e e 8 e t q q j t 8 8 ",
"y y y e y u M ' -.>.>.>. .F f u q r y r 7 8 j g 8 r y e 8 r 8 y r q e r e q e g e 8 e e q y q q g 8 ",
"r y w y y w y = o.y.8.3.$ w e e j j e r r j r 8 j r e r y 8 y 8 e r y q e y e q q j q e e q t g 8 8 ",
"y r y y y t i : 4.D.C.z.2 w j j e e j r r r j r 7 r j e e r r y r q q y e q e j e q e r e e 2 8 g g ",
"y y r e y q m N :.a.y.r.F h r r j r 8 y e y e r j e e e r r e e e t t q e j e e 8 f e q e e g e 8 e ",
"r e c y y q U j.A.C.C.Z.C.] 5 r e y r x y e r 7 e e y r e e r r e e e y q q 8 j e e q e e 8 5 e e r ",
"c j e g r t z W +.-.-.%.^ F e x e y e 8 y r r r e y q r y e r e j e e q t t q q g g e g q g e 8 e 2 ",
"e e x r t e t # %.h.y.w.$ 7 g e e y r y e y r r y 7 r r q r e e q e j q e q t e q q q e q 8 q e 8 g ",
"r r e e y w y = 4.S.M.j.1 w r r e r r e j 8 y e e r y e 7 y e 8 t e q e e q q q t q e e 5 e e e 8 6 ",
"r j r r u r m F 3.k.a.u.Q A r e j r r r r r w e r r e e j e r y e e w t q e e t 8 j q 8 j e 8 5 f 8 ",
"e 8 y j e 5 T c.A.C.C.A.S.] 4 y r r e r j r r e y 8 e e e r e q e y e 6 e t e q e e f 8 q q g e 8 8 ",
"y r e w y x h P | @.O.+.T l r y 8 r u e 8 8 y e 8 r y 8 q e q r r q q t q q q j e 2 e e e g 6 8 f e ",
"g g e r t e r : &.x.p.r.> u e 8 j y e e r y e e y t q y y e t q 8 g r q e j e 8 8 j 8 g e 8 e g 8 8 ",
"r e r r e y w = 2.A.m.l.< 7 x g 8 e c 7 e e y e q q e e w e t f g 8 q j q 8 e j 8 e 8 e e t 2 8 j e ",
"r g e w y 8 m ~ e.c.k.d._ F 8 r j 7 6 r e t q t y q j e f g q e e g e e e r 8 8 8 f e 0 e 0 f 0 2 e ",
"e e j r j 8 K c.C.M.C.B.C.) 4 u 8 r e j r e t q q t q e e 8 e e 8 8 e h e q 8 g 8 e 5 e e 5 5 e e f ",
"c r 7 r e w d k { @.+.+.V k f j e e r q r y e t w t e y y t t e j e e 8 e r e 8 e g e f 8 g f q e 6 ",
"e e g r t r y ; 3.V.c.h.4 w q q y e q y e e q e t 9 e 9 9 q e 6 8 e r 8 f 8 f e 0 5 8 e 8 8 e e 2 g ",
"r c e e r r t   3.C.m.h.= 7 j e e e r e q e y q w e e e t q q t q 5 8 r e 8 8 g q e 5 8 g 2 5 e f 8 ",
"e e e e r 2 B [ u.M.c.x. .Y 8 r y e q e t t e e j e q y y q e e e j q q 8 j r 8 e g 8 q e 5 f e 8 8 ",
"e 8 r r e 0 K k.M.m.M.M.N.^ 4 y q q t t t 8 e t 9 e r 6 6 r w e t 8 8 e 8 8 8 g 8 2 t e 8 f 8 8 8 8 ",
"y u e e r r f s ( O.| | d s r e t t e q 8 e e e r t 8 e t e e e e e r 8 8 j 8 8 8 e 8 5 q e 8 e 8 8 ",
"8 8 r j w r r ; 1.V.c.d.a y t e q t j e r r e q e e 8 t e e y e 8 8 e f 8 8 8 g 8 g e f e 8 8 8 f 8 ",
"r j 8 8 e e r   <.N.c.d.. , t e y q e q q q e t e 8 g e q e 2 e r g 8 8 f g 8 r 8 8 5 5 e e e 8 8 6 ",
"8 e g e g 5 V #.h.b.c.c.&.R a 7 r e q y e e w q e e 8 8 e 8 e f 6 g e 8 8 8 8 e 5 e 5 t q 1 q e 5 f ",
"j e g e e 5 J i.b.m.b.b.x./ 4 e 9 t e q e e q 9 q e 6 r g 8 e 8 8 6 8 f g f 8 e 8 e 8 5 5 e 5 0 f 5 ",
"j 8 6 e g e 5 3 l p & k a f e j w q e r t y q y 6 e g 8 8 g g 8 g f e 6 8 8 e 8 e e e g 5 e e 0 6 f ",
"8 g g q 6 t g 8 l @ X b e 8 8 6 e e q q q 2 q q 8 q 8 6 6 8 8 8 6 8 8 8 r 8 6 8 5 6 8 8 0 2 0 f 5 5 ",
"8 g e 8 j e e e x a o D e e l 8 e e g e 6 r t 6 e e g e g 8 f g 6 8 8 g 8 e e g 0 j 5 5 h e 0 2 f 5 ",
"e 8 f r e 8 e r u & o j e e 8 e g e 5 e j 8 8 e y q 8 e 8 8 6 6 8 j 8 6 q g 8 5 2 5 0 e 2 2 h e 5 5 ",
"r e r 8 e j 8 e x a o j e 8 g r 8 8 f 8 q 8 g e 8 e f 8 6 7 8 f 8 5 8 g 8 5 2 h q 2 8 5 e g 5 5 a 7 ",
"r j 8 g e e r j x % o D e f e 8 j g e e e g 8 e g g 8 e g 8 g 8 8 g g 6 8 j 8 8 q h 8 f f 5 e f 8 f ",
"8 g g g g l f 8 n p @ b g g j g f f l g g g j f e f f f f f g g g f 8 l 7 f f l 8 f a f g g a a x f ",
"j x g f g f l x x p @ D g g g g b g f g e g f l x f b g g x f g g b f f g b 7 7 f l g f f f x x a g "
};
