/* XPM */
static char *gray_blue_2_resized[] = {
/* columns rows colors chars-per-pixel */
"50 50 117 2 ",
"   c #3C4137",
".  c #3D423B",
"X  c #41423D",
"o  c #434540",
"O  c #464A44",
"+  c #494B46",
"@  c #474A48",
"#  c #4C4E49",
"$  c #4B5047",
"%  c #4E524B",
"&  c #51554E",
"*  c #535B4E",
"=  c #535551",
"-  c #565A52",
";  c #595C56",
":  c #5B5D59",
">  c #5B6256",
",  c #5E625A",
"<  c #61645D",
"1  c #636A5E",
"2  c #67705F",
"3  c #646562",
"4  c #666A62",
"5  c #696C65",
"6  c #6C6E6A",
"7  c #6B7165",
"8  c #6E726A",
"9  c #6F786C",
"0  c #71746D",
"q  c #737B6D",
"w  c #737572",
"e  c #767B73",
"r  c #797C76",
"t  c #777779",
"y  c #777A78",
"u  c #7C7C7B",
"i  c #77806F",
"p  c #768071",
"a  c #7B8374",
"s  c #7F8876",
"d  c #7E837B",
"f  c #7F887A",
"g  c #808877",
"h  c #80827D",
"j  c #828A7A",
"k  c #7E7E80",
"l  c #7F8180",
"z  c #848484",
"x  c #888787",
"c  c #878984",
"v  c #898987",
"b  c #878788",
"n  c #888788",
"m  c #878889",
"M  c #8B8B8B",
"N  c #908F8E",
"B  c #8F908D",
"V  c #90918F",
"C  c #8E8E90",
"Z  c #908F90",
"A  c #8F9090",
"S  c #939393",
"D  c #979896",
"F  c #999997",
"G  c #9B9C9B",
"H  c #A19F9F",
"J  c #9EA09D",
"K  c #A0A09E",
"L  c #9F9FA0",
"P  c #A3A4A3",
"I  c #A7A8A6",
"U  c #A8A9A7",
"Y  c #A7A5A8",
"T  c #A7A8A8",
"R  c #ABABAB",
"E  c #AFB0AE",
"W  c #B0B1AF",
"Q  c #AFAFB1",
"!  c #B0AFB0",
"~  c #B4B4B4",
"^  c #B8B9B7",
"/  c #B7B6B9",
"(  c #BBBBBB",
")  c #C0C0BF",
"_  c #BFBFC0",
"`  c #C0BFC0",
"'  c #BFC0C1",
"]  c #C5C5C4",
"[  c #C8C7C7",
"{  c #C7C8C7",
"}  c #C8C8C7",
"|  c #C7C7C8",
" . c #C8C7C8",
".. c #C7C8C8",
"X. c #CBCBCB",
"o. c #D0D0CF",
"O. c #CFCED0",
"+. c #D0CFD1",
"@. c #CFD0D0",
"#. c #D3D3D3",
"$. c #D8D8D7",
"%. c #D7D7D8",
"&. c #DBDBDC",
"*. c #E0E0DE",
"=. c #DEDEE0",
"-. c #E0DFE1",
";. c #DFE0E1",
":. c #E4E4E4",
">. c #E7E8E7",
",. c #E8E8E7",
"<. c #E7E7E8",
"1. c #EBEAEB",
"2. c #F0EFEF",
"3. c #F0F0EF",
"4. c #EEEEF0",
"5. c #F0EFF0",
"6. c #F0F0F2",
/* pixels */
":.:.&.]  .^ 0 8 % ` 1.:.+.] X./ 5 7 5 ` ]  .] ] ] ] X.~ : : S ~ ] | ] _ D 5 j 8 4 0 r 0 3 0 0 b N u ",
":.:.:...X.I u 3 : +.,.:.$.] X.R u 3 5 ( ] ] [ ] ] ] X.( 4 % w M S D Z M w 0 5 u ~ $.*.%.( h < 0 r , ",
":.,.&. .{ M z 3 - ] 1.,.#. .~ M M 3 < ^ +.[ ] ]  .X.] G 8 3 - 5 u u h t 8 5 j #.<.,.<.<.1.&.v 5 a > ",
",.:.X.X.~ b u 7 & M ] ( R F z M M 8 : M ! ] ] ] ( I M b w a , & + % < q e 6 ] %.<.:.:.:.:.:.X.0 e ; ",
"+.X.] [ M M 0 r > O u b z z x S 6 7 , 4 b M Z N x z n z 3 8 D ~ I 0 0 j , G X.$.,.:.:.:.:.*.X.R 4 % ",
"]  .X.L b M 5 a a > = w N D v t 5 8 < o t M z x b n M 0 : ~ =.1.4.#.t 4 % (  . .-.,.<.,.,.O.] [ w ; ",
"X.] G z M z 8 a q 1 - : : 5 5 3 D T P w # u M x x M k = G #.-.:.:.1.E > > Q X.]  .%.&.$.X.[ ] X.l # ",
"I M z b M 0 5 w K I M 4 * < w ( X. .X.#.M = k N N z 3 0 ] [ :.:.:.<.' 3 = z ~ X. .[ ] ] [ [ X.] t : ",
"z M Z M w < b &.1.1.1.I 3 8 R X.] ] ] X.] : # < < 6 < G #.] o.:.:.#.] w & 0 M K ( [  .X.[ ` T M 7 > ",
"& 5 6 5 8 6 [ :.:.&.:.#.k ; T ( ` ] ] ^ D 5 7 7 4 u ; u ~ X.} X.X.[ R 6 < = z b x Z G G S b M w 7 1 ",
"& = 3 j 5 h X.+.:.:.$.[ ( : 3 b b z h 0 6 0 j e 7 w + < M G W ~ R F b 5 q ; , M M x z z x M d : q a ",
"I G u 4 < w X.[ X.X.]  .I < + > < = # + ; r a , Y &.M + 3 x v M z M w 8 1 a X & t z M M z w 7 q , 3 ",
"X.:.:.G ; = P X. .} ] I z 5 q e 4 u F R G w & O M #.,.V o , w k u 9 , 7 5 7 1 > & - = & # 8 a e 3 I ",
"X.:.:.<.x & 3 D P G M b z 5 , , P  .&.1.1.$.x # 3 T $.:.k > ; , 4 5 0 G I F z 4 1 q * e d 6 a 5 z ( ",
"#.:.:.,.` 3 = w M v M M 6 p > G #.] $.:.:.,.#.0 & b ] :.X.0 g g i w &.6.1.6.:.R 0 0 c -.4.S 5 r B ~ ",
"X.:.&.:.[ 0 7 , 3 t w 3 4 r 3 (  .] X.:.<.:.&.F # 3 K o.o.0 r g > t :.:.:.:.,.&.E O x :.1.E # x m J ",
"] &.,.,.( 0 c 1 # # o 4 p 4 3 ~ X.] ] X.$.#.+.I : + r M w r g j 2 = ( #.%.$.+.] +.3 O G T e = b S z ",
"( X.&.&.S 1 0 V W ~ G 6 8 3 6 S ] X.} ] ] ] #.F 8 > ; 3 7 0 7 7 r & u ] [ [ X.[ ~ w 5 * 8 r - u S b ",
"S R ] T 4 0 ` 1.1.1.5.%.h & 6 M M ~  .X.X.}  .h 9 j 8 q M K R K r : = M Y T I F u 7 r > 0 6 o < C b ",
"S M v 0 3 ~ #.:.>.:.:.-.| 3 : M x b S K K G M 5 a 8 5 ( #.#.o.o. .u # w x z z x 0 5 r ~ ` ] L : w M ",
"r t 8 , z X.) X.&.$.#.] O.S @ 6 M M z z v x 5 8 j , : z D F I ] X.( ; % b C M 0 , w &.1.1.,.2.~ = < ",
"= < a , z ( X.} ] ] ] ] @.L > & 3 h b b r 6 0 p s i - % = u z ~ X.X.r   = w 5 w 3 I %.:.:.<.<.&.w ; ",
"K d 1 : z M R ]  . . ... .B q q ; - : < 7 q > q i q 1 % - : z Z [ X.r q < ; a q 5 ~ | X.#.&.+.X.j 0 ",
"X.] w # z b b M F G F D S 4 7 , < q q p g < & 4 8 0 w , 4 - 3 z P G 3 6 v c 6 , t L X.] ] ] ] ] 5 u ",
"] X.P + 6 N b x b z z v w : V ] ] u q r 5 G ` ] @.&.&.X.D < & < 6 : 6 ] ,.*.v @ u M ~ X.} ] o.S : ~ ",
"] X.E ; & w M M M M M u ; P :.4.6.~ 7 4 R #.[ X.,.,.>.1.1.J , 7 q : ( 1.,.&.I & < M M ~  .+.R 4 : ~ ",
"] } ^ 7 1 = 5 u u w 8 , M #. .@.#.~ ; S O.] | ] #.:.:.:.&.[ 6 p q j @.X.X.X.R 4 & , z b F S 3 7 = D ",
"} o.~ 5 p 4 # @ ; 5 r * F ] | ] ( w & ~ O.[  .[ .. .@.X.} X.u r 4 ^  .] ] #.T 8 p - = 3 ; ; q q , 6 ",
"R ( z 4 7 M R G 8 4 p - u Z S Z w < , V ! _ ] ] | | ] ] ( ~ 0 5 v X.] { ] O.D 7 j a q 5 ; 8 r 8 = = ",
"t 8 < t ( :.4.1.#.w 0 % = w w 5 7 * & z z z M C Z S M M N r w < ~ X.] { ..O.d 8 2 g e 0 R &.=. .w @ ",
"4 q 8 ( #.:.:.:.1.] 5 7 , - & 0 0 ; # 3 C b z M M M M b t 7 e 5 F ( ] ] ] G 4 a q a 4 ^ &.,.:.1.X.6 ",
"g 4 ~ X.] :.:.:.>.$.7 e 0 5 R &.*.( < # 3 k z u t 6 5 4 = 0 4 z M M S S m 3 7 a j 4 d #. .:.,.:.#.K ",
"4 G O.] ] O.:.:.:.X.0 q 5 Q <.1.<.1.^ : ; - , 1 1 4 7 1 q * 3 M N M M k 6 p a q j > x +.] X.#.X.] ] ",
"6 O.[ |  .] [ O.+.( 8 7 d #...:.:.%.+.S 8 g p q 3 4 0 , 9 4 - z M M w 6 0 7 t r 8 > 6 X.X.X.[ [ X.X.",
"w T ] ] X.X.[ ` ` z 0 , w | {  .X.| [ ] 7 s 7 6 P ( ] ( v 5 ; < 3 < 0 q e / :.:.] 6 + M R ~ ( ( ~ T ",
"5 b M S F F F S u 4 f - 3 F ( .. .X.] ~ w 8 u ] O.&.>.,.:.F 8 p 7 q g 4 / &.1.:.1. .: , x z z b M w ",
": M b b z z z x 5 1 g q = w M S L G C k 5 4 ( ] #.:.:.&.:.#.w e a q 8 6 .. .&.,.&.o.D + 0 M M M r 3 ",
"% w Z b n M M 6 < , 6 5 ; ; b b z z M t , u  .] &.:.:.>.;.#.B , p j 1 3 T X. .O. .#.P > = ; 3 < 5 4 ",
": # t z b z w : 0 | %.~ 6 # 3 z M z w 0 , V #.] ] &.&.*.X.X.F < 1 s 8 & z L / ( ~ ~ 0 5 2 1 7 = w V ",
"` t o ; , 3 e 5 X.5.<.4.X.5 % % - 4 q a - b / { {  .X. .] ] d 8 8 1 5 > : u M M z 6 5 a q g 6 D O.&.",
"X.] 6 q p j 7 x :.:.:.:.&.I 4 p > 1 g q $ w S G ~ ^ ( ~ Y Z 3 : t ] S 8 % * 3 3 , e a a * * v &.:.:.",
"] X.I 5 j a , / #.:.,.:.X.] 0 a 9 1 1 > < ; v b b b z b M u , r ( 4.#.4 a 5 * . & p a s 9 > ] ,.:.<.",
"| ]  .w e 8 d +.] X.#. .] X.u r q z ] ~ 7 % < M S M M M u 3 3 L @.:.$.0 q 4 z S M w 1 , q 8 =.1.:.&.",
" . .] e i 1 S  . .X. . .X.} r q 0 $.2.:.K , O ; 6 t w 5 8 0 5 ~ X.,.X.3 e ] :.,.,.&.P 3 , w $.&.#. .",
"X.( D 5 q 3 z M F I R T K M 8 5 ! 1.*.O.I 7 * , - % , i j 1 6 ~ ..&.J = / &.:.:.:.,.<.~ - : ^ X. .[ ",
"G M z 6 4 0 C z b z b b M 6 5 c $.&.X.#.P q - 3 M J B 8 s , 3 Y #.] : 3 ] | #.:.:.:.+.O.A @ u Q ( _ ",
"b M 8 e < u M M x b M M 0 < 5 P X. .` ~ w = M X.1.4.:.d q 7 % h P e 4 = Y O.] | [ | ] X.( ; - k M b ",
"z 0 5 e - z M M M M u 5 8 q ; M L G S 0 = F %.,.:.:.:.M 8 q % O + 0 g * 5 / X.X.X.X.X.X.! 5 , ; k M ",
"3 9 1 5 - ; w w 5 4 6 7 > q < < 0 w 0 < S O.o.,.:.:.:.V 0 s 5 v F h 8 4 % 8 F Y R T P F 0 6 0 : = : ",
"3 w z d , : % , 1 9 0 u M r 4 > < 5 q r } [ X.,.:.:.#.S 8 8 R #.o. .( M > % : w k z k 6 5 5 u M 0 4 "
};
