/* XPM */
static char *prison_resized[] = {
/* columns rows colors chars-per-pixel */
"50 50 131 2 ",
"   c #141716",
".  c #131817",
"X  c #13161B",
"o  c #151A1D",
"O  c #191D1E",
"+  c #1C201F",
"@  c #20231F",
"#  c #171621",
"$  c #181720",
"%  c #161B21",
"&  c #1A1E22",
"*  c #1C1F28",
"=  c #1D2124",
"-  c #1E242A",
";  c #1F282E",
":  c #212426",
">  c #222825",
",  c #22252B",
"<  c #24292D",
"1  c #282E2D",
"2  c #2A302F",
"3  c #202330",
"4  c #252B32",
"5  c #2A2D34",
"6  c #2A2D39",
"7  c #2C3135",
"8  c #2D333B",
"9  c #313437",
"0  c #32353D",
"q  c #33393F",
"w  c #2F3540",
"e  c #323641",
"r  c #353B43",
"t  c #393D44",
"y  c #343C48",
"u  c #393E49",
"i  c #364045",
"p  c #3A4047",
"a  c #37404A",
"s  c #3C434C",
"d  c #3F484B",
"f  c #3E4550",
"g  c #3F4851",
"h  c #404246",
"j  c #41454D",
"k  c #43494E",
"l  c #414651",
"z  c #444B53",
"x  c #494D55",
"c  c #474D59",
"v  c #4A4E5A",
"b  c #475054",
"n  c #4A5055",
"m  c #47525D",
"M  c #4B535C",
"N  c #51555D",
"B  c #545A5F",
"V  c #4D5462",
"C  c #4F5862",
"Z  c #525662",
"A  c #545B63",
"S  c #595D66",
"D  c #545768",
"F  c #545D6A",
"G  c #5A5E6A",
"H  c #575E70",
"J  c #5B5E71",
"K  c #546164",
"L  c #596067",
"P  c #56616C",
"I  c #5C636C",
"U  c #5E6671",
"Y  c #5F6974",
"T  c #606267",
"R  c #61666D",
"E  c #64696F",
"W  c #626672",
"Q  c #646B74",
"!  c #686D74",
"~  c #666E7A",
"^  c #696E79",
"/  c #667077",
"(  c #67717C",
")  c #6B737C",
"_  c #70757D",
"`  c #72787E",
"'  c #6E7581",
"]  c #6F7983",
"[  c #727681",
"{  c #737A84",
"}  c #797D85",
"|  c #757D8A",
" . c #797E8A",
".. c #7C8186",
"X. c #77818C",
"o. c #7C838C",
"O. c #7E888E",
"+. c #7D8592",
"@. c #7E8993",
"#. c #7F8C99",
"$. c #81848D",
"%. c #81898D",
"&. c #828693",
"*. c #838A95",
"=. c #898D95",
"-. c #808698",
";. c #848D9A",
":. c #898E9A",
">. c #8D9196",
",. c #86909B",
"<. c #8B929D",
"1. c #8F989D",
"2. c #91949D",
"3. c #94999F",
"4. c #8B94A1",
"5. c #8F9AA3",
"6. c #9296A1",
"7. c #969BA3",
"8. c #9A9EA5",
"9. c #9A9FAA",
"0. c #9EA3AC",
"q. c #9FA8AC",
"w. c #A2A5AD",
"e. c #A3A9AD",
"r. c #A4AAB2",
"t. c #AAADB5",
"y. c #A9B0B6",
"u. c #ADB2BA",
"i. c #B2B7BD",
"p. c #B1B5C1",
"a. c #B2B9C1",
/* pixels */
"K P G Z t.j v P A D F H C e t.N s P F F D F F 8 7._ r L F F D F G 8 $.=.8 F G D F F P a ! w.v G G F ",
"4 4 : t e.r - < 5 h 6 < - < w.x O < < u 0 , < & >.^ o 1 : t r , < o } +.O < , e t , 4 % P 7.4 < < 6 ",
"8 : : e *.r = = 5 =.s * - 6 @.x : : , $.N & , , } S = , O _ W = < * Q ) = , % T  .= , = Z o.4 : = u ",
"5 O X 5 W 5 o O 8 a.k o % = W r   % - r.R X & % D z o & X 2.$.X & o x B o & X [ 8.% O   h I * % % x ",
"u A ~ [ ,.{ ( A t e.x b / ' ;.../ I e 7.I l ~ ( *.$.( W r %.} y Q ( +.*.( ! u ) >.r R ! X.;.' ~ c x ",
"a I ) ( ! ( ( U u 2.z Z ' ( / ( ) Q t =.D c ' ~ / ( ) ( u [ ( d ) ( ~ ! ' ' f W &.y ~ ' ' ~ ( ' C l ",
"6 = , 4 p 4 < = 7 O.y * 3 < i 4 , - - | M % < , r 8 , < % ! I % 4 - 8 r - 4 % D ' * 3 < 6 y - < * y ",
"0 : : q %.q = - 8 { p - : < o.k = - 4 ( n : < : ` D = , - Y I : : = W ^ = : * Z ~ : < % M { ; : : s ",
"- O X r i.t o O - I 8 X & < u.N o + % F p X & % w._ o & X M v X & X *.>.o & X f A o % X Q q.* O X 8 ",
"! I N M w.k x I Q +.) W N 0 w.N p U W X.` W S 0 2.^ e I R } ..W I 8 } %.9 G U { X.! U y W 7.k G T ( ",
"| ] ] F <.k U ] ] ) [ { ~ u :.M C { ] ' [ { ' u $.R c { ] ) ' ] ] f ) } a ' { ] ` ] ] M S ;.P { { } ",
"6 5 < y @.8 - < 4 y 5 < , 4 +.k = 1 4 e 8 , < = [ D % 5 ; w q ; 4 # W ^ * 4 , 8 e ; < * v } 4 6 4 6 ",
"5 : = q { r = : 5 ..i + : 5 ] z = = - { n & , > ~ D = > = Q I = > = U W : , & A ) = : = M ' 4 = = t ",
"5 O o 4 W 6 o O 7 i.k o O : R r . O : e.T o = o A l o = o <...o = . c Z o + X [ 0.O + . p L & # o x ",
"r k Z U | U A z i r.x a A G { E K n 8 8.I q A A ` ( K N 7 *...5 N A ) ` K B 8 ( <.6 M B ! { L D t x ",
"s ~ X.X.| X.X./ s 6.c I ..| | X.X.] s *.F C ..X.|  .X.| f } ) g X.X.| | o. .b Y O.d { ..X.| .. .P l ",
"5 < 6 6 y 5 5 < 6 @.p : 7 6 e 8 4 4 - ..M : 6 5 e 8 5 5 & ^ W & 5 < q q 5 5 & G ' - 5 4 8 r 4 5 , t ",
"9 , & 9 [ 9 : : 8 ] d = : < ) s = = 4 ) M & , * W N & , : R G : , & D R & : * Z ( , : % z ( , , , s ",
": % O r i.t O $ 4 W 8 o % 1 y.N X = % I s X : % 8.[ X & o C M o & X &.:.O & o z P % = X E q.= O X 0 ",
"N n p z r.s r x Z ' A x d 7 w.N 8 b M ) R x j 4 6.^ 6 x n ! ! x z 4  .=.4 k x U / M x 7 I 9.r z n A ",
";.@. .P 1.z ~ -.*.+.@.@.[ s 2.Z P &.@.+.@.*.o.f &.Q M +.@.@.@.@.+.x '  .l X.@.@.*.*.@.A P :.U +.@.#.",
"e 8 w a *.e 4 8 8 y w 7 5 5 &.z 4 8 8 r w 7 6 , { G - e 8 e y 6 8 , W ~ - w 7 q r 6 8 - Z  .8 0 8 8 ",
"5 = = w } r = = 4 ( r = : 1 [ k & : - Q l = > , ^ D = : & S Z % : & G W - : % n I = = + x ' 4 : = q ",
"7 + O 6 ! 5 O O 9 u.g X + : W i o + : q.I o = O D x o = o >.o.O = o M F O = . _ 7.= = . h W & & O x ",
"8 q k x ( n k q q t.z 6 k k / A f p 4 0.I 4 d d W I f d 3 *...; s f I Y l d < _ 6.3 p k F / l k 8 z ",
"f ' #.;.;.,.#.' h 7.v ~ #.;.#.;.;.| f :.L F @.;.;.:.:.@.g X.) m &.;.:.;.;.;.M ! *.l +.-.;.;.;.#.U z ",
"7 7 r 0 y 0 r 5 6 *.a < r 8 r q e w ; o.M < q q y r 8 r - ( W - q 0 y t w r - K } 3 0 0 r r 8 r 4 p ",
"8 = & 5 E 7 = = 8 | p = = : U t & - 3 ' n = : % F k % : = W I = : & v A % : % B ^ - , O h I : : = p ",
"5 & * t u.t % = 4 ^ q O O 1 t.N o = = W l # = * 7.` X = O A Z O = o o.*.X : $ x I % = . I 0.= & % r ",
"j r 7 s u.t 5 r d W x r 9 5 r.N , t p U N u r , 7.) - y y L L y r - o.:., t r A U p i , R 0.7 r y l ",
"4.;.+.P 6.z / ;.,.<.<.,.} s 6.D J ;.,.,.:.:.+.f &.! M *.:.<.,.,.&.v [ o.z -.;.<.<.4.;.F U >.Y #.,.<.",
"r t i d ;.r 8 y r u r t e 5 &.z 6 p r p r t r < } S 4 a y t t r t , W ^ , t r y y e t 4 M o.i i i i ",
"< , % q } q = = ; L 9 & = 1 [ l % - - A p % : - ^ A % : & n x & : & I W - : % j B = : % n ' < = = 9 ",
"7 : % 9 ( 8 O = 8 t.z % = , / s O = , 0.I % , & I M % : & =...& , X N I # , O ) 1.= = O l ! - = & z ",
"6 5 9 u W d 9 1 8 u.z , 9 r W x 9 7 3 w.R : e 0 G C 9 9 & =.o.& 9 7 B F e 0 * ` 3.= 7 7 x U q 9 < z ",
"j _ =.<.4.<.;.` k 7.n Q *.,.<.<.,.X.f <.I D *.:.<.<.,.*.z } ` n *.,.<.<.:.*.M Q *.s O.;.<.1.,.;.I x ",
"9 t f u f u s y 0 =.s e f a f d s i 6 O.C 7 g p a s s s 4 ) ! < s d d a a f 6 L | 4 d s a f a f 8 p ",
"7 & - 4 F 6 = + 6  .u & : : A w + : - ) n % - = M s % : = E L & = * k n = : o Z ( = = + t Z , = = i ",
"6 @ & t r.t & & 5 ) t O : 5 0.M o @ : Q x * : = >.! O : = P F % : O } %.% : = M Q : : o T 7., , = i ",
"q 1 : p p.t , 5 q R p 5 , 5 t.N = 5 8 G z 4 4 = 8._ O 7 4 A V 5 5 o o.>.= 6 1 c G 7 5 * R w., 4 4 y ",
",.@.X.P 7.x ~ *.:.4.<.,.[ d 6.C F *.*.<.4.,.} s *.^ M &.,.4.4.:.+.z ` o.f +.;.<.<.,.@.C I <.I +.;.,.",
"x c c b *.y a b l l l l d 7 *.c r v l l l z x 6 } L 8 v g l l z x 6 ! ` 6 n l l c l c 8 C @.g n x x ",
"< - = 8 X.q O = < Z 6 & = < { d % : = M q = : = ^ B % > = k h & - O I W = : % p x = = O x ' < = = 7 ",
"7 , = 8 ` q = = 8 w.k * - 6 ) d - : : 6.L = : : W M % : * o.` * : = F I = : % / =.= : = x ^ < : = l ",
"7 = : 7 U 8 : = 9 a.z & : 4 P s - < - w.R % < : A x = < # >.$.o < = n Z , < X [ 8.& < - s F 1 : = z ",
"s ! O.*.1.*.@.! j 9.v P O.*.1.,.@.[ p 1.I M o.@.1.<.@.X.l  .` l X.@.<.<.@.o.b ! *.u | &.,.1.=.O.A x ",
"r l C V M V C c e :.l f C V v V M n 8 &.Z y Z V m V m C e [ ^ e A M M m V Z e U  .7 M M V M M C a f ",
"6 * - 4 B 6 * & 6  .u # : , Z 0 : & - { v % , & x h & = # W G $ : % j x * - # Z ( - : & r v - - & t ",
"7 : = q 2.t = : 7 ' p = > 5 :.x O > < ^ v = , :  .R & , > R T = > % ^ ` = , = N ! - : O A &., : - p ",
"6 : & t t.t = = 5 I q = - < r.n O , < S h = , & 6._ X , = N v = , % o.=.% , : k A , < o T 0.: : : q "
};
