/* XPM */
static char *_d_illustration_with_floating_island_23_2151333201_removebg_preview__1__resized[] = {
/* columns rows colors chars-per-pixel */
"50 50 205 2 ",
"   c None",
".  c #0C111D",
"X  c #171D3B",
"o  c #191D39",
"O  c #101830",
"+  c #1C203D",
"@  c #24253F",
"#  c #161E40",
"$  c #1B2344",
"%  c #1B2649",
"&  c #1E284B",
"*  c #212643",
"=  c #252946",
"-  c #232B4C",
";  c #2B2E4A",
":  c #282B45",
">  c #2F324E",
",  c #34354C",
"<  c #242F52",
"1  c #253155",
"2  c #2B3354",
"3  c #26345A",
"4  c #2A375D",
"5  c #2F3A5B",
"6  c #313653",
"7  c #383A54",
"8  c #333C5A",
"9  c #363B59",
"0  c #2C3B63",
"q  c #2A3F66",
"w  c #323E63",
"e  c #383F61",
"r  c #413F54",
"t  c #3C445E",
"y  c #2F496F",
"u  c #344165",
"i  c #3B4363",
"p  c #35446B",
"a  c #38486F",
"s  c #38446A",
"d  c #3C4B73",
"f  c #394B75",
"g  c #42455E",
"h  c #47465A",
"j  c #714A57",
"k  c #454863",
"l  c #4D4D63",
"z  c #444C6A",
"x  c #484E6B",
"c  c #424764",
"v  c #534C61",
"b  c #4F536C",
"n  c #57576B",
"m  c #414C70",
"M  c #44547B",
"N  c #48577D",
"B  c #4E5C7F",
"V  c #465578",
"C  c #555A74",
"Z  c #545C78",
"A  c #705667",
"S  c #5B637B",
"D  c #656172",
"F  c #6E6A7A",
"G  c #686578",
"H  c #726B7C",
"J  c #756877",
"K  c #815966",
"L  c #836878",
"P  c #80717D",
"I  c #4D5C82",
"U  c #505E81",
"Y  c #536185",
"T  c #5B6B8B",
"R  c #586B89",
"E  c #5B7598",
"W  c #696B82",
"Q  c #626E8B",
"!  c #666982",
"~  c #6D7289",
"^  c #65728E",
"/  c #7A7684",
"(  c #777789",
")  c #6B7995",
"_  c #777C91",
"`  c #847A8A",
"'  c #927E8E",
"]  c #7E8294",
"[  c #75819C",
"{  c #7A819A",
"}  c #6D869E",
"|  c #6982A1",
" . c #758CA9",
".. c #7C8FAA",
"X. c #7996B5",
"o. c #7D9FC0",
"O. c #73BBD7",
"+. c #7EC2DA",
"@. c #82808F",
"#. c #848292",
"$. c #8B8D9C",
"%. c #83889C",
"&. c #868DA2",
"*. c #8D94A6",
"=. c #8192AB",
"-. c #8E95AB",
";. c #8390A6",
":. c #9598A9",
">. c #839AB7",
",. c #8C9BB3",
"<. c #899CB6",
"1. c #999FB1",
"2. c #A29FAA",
"3. c #8CA2BC",
"4. c #87A1B8",
"5. c #9BA2B3",
"6. c #98A6BC",
"7. c #A3ABBC",
"8. c #AAADBB",
"9. c #A4A7B6",
"0. c #B0AFB8",
"q. c #AAB0BE",
"w. c #B0ACB5",
"e. c #85A5C3",
"r. c #85A8C7",
"t. c #8BA8C5",
"y. c #96ABC3",
"u. c #8FB2CF",
"i. c #95B3CD",
"p. c #9DB5CE",
"a. c #99B7D1",
"s. c #9BBBD5",
"d. c #97B9D3",
"f. c #8CB4D2",
"g. c #A3AFC1",
"h. c #A4B1C4",
"j. c #ADB4C3",
"k. c #A4B5CB",
"l. c #ABB9CB",
"z. c #ADB8C7",
"x. c #B2B6C2",
"c. c #B4B9C6",
"v. c #BABCC5",
"b. c #B4BDCB",
"n. c #B8BEC9",
"m. c #B8B7C0",
"M. c #A4BFD4",
"N. c #ADBCD0",
"B. c #C1BEC4",
"V. c #9EC1D9",
"C. c #9DC9DA",
"Z. c #99C3D5",
"A. c #9ED0DF",
"S. c #80C1DA",
"D. c #BDC3CD",
"F. c #B3C0CF",
"G. c #A3C2D7",
"H. c #ABC4D6",
"J. c #A4C5DA",
"K. c #A9C6DA",
"L. c #ACCADD",
"P. c #A3CFDE",
"I. c #B4C3D2",
"U. c #BBC5D1",
"Y. c #BECAD6",
"T. c #B4C7D9",
"R. c #B5CFDC",
"E. c #BCCCDB",
"W. c #ADD2DE",
"Q. c #A2D2DF",
"!. c #B5D1DF",
"~. c #B9D2DE",
"^. c #ADCEE0",
"/. c #B4D2E0",
"(. c #BDD5E1",
"). c #BFD8E3",
"_. c #C3C4CC",
"`. c #C6C8CF",
"'. c #C9C8CE",
"]. c #C9C7CD",
"[. c #C4CBD4",
"{. c #CACDD4",
"}. c #C5CEDA",
"|. c #C5CBD4",
" X c #D1CED2",
".X c #CFD1D6",
"XX c #C5D1DC",
"oX c #CCD3DC",
"OX c #CFD9DF",
"+X c #D2D2D6",
"@X c #D3D5DB",
"#X c #D8D7DA",
"$X c #D5D9DE",
"%X c #DBDBDE",
"&X c #E0DEDF",
"*X c #C3DAE3",
"=X c #CDDCE4",
"-X c #C5D5E1",
";X c #D4DBE1",
":X c #DCDEE1",
">X c #D2D7E0",
",X c #E0DFE1",
"<X c #DEE1E4",
"1X c #E3E2E4",
"2X c #E8E6E8",
/* pixels */
"                                                                                                    ",
"                                                                                                    ",
"                                                                                                    ",
"                                                                                                    ",
"                                                                                                    ",
"                                                                                                    ",
"                                  ;X>X@X$X@X.X.X              :X                                    ",
"                                :X;X:X:X#X:X$X@X@X>X        :X%X                                    ",
"                              :X%X:X<X:X,X:X:X#X+X.X        #X:X@X                                  ",
"                  1X          :X1X1X1X1X1X,X:X%X@X.X@X    @X%X&X#X                                  ",
"                1X,X$X      :X1X1X1X1X1X1X1X&X%X#X@X{.  |. X%X%X%X@X      :X                        ",
"                1X1X#X      E.H.XX;X1X<X:X:X,X@Xl.g.j.  g.`.#X,X%X+XOX    ,X              1X%X      ",
"              <X%X%X%X+X    L.V.J.s.H.K.K.M.I.t.e.e.3.y.=.=.h.D.z.c.l.  :X&X#X            1X&X#X    ",
"            :X1X%X#X&X@X    L.).*X*XL.R./.L.G.i.G.M.p.3.*.9.n.c.j.v..X;X%X,X#X          ,X1X&X#X    ",
"            ;X1X%X X%X+Xg.  G.).).<X(.=X*X*X!.a.a.i.i.<.T ) 7.z.g.U.%X+X#X&X%X@X        ,X,X,X%X@X  ",
"            :X1X,X].g.y. .  t./.).=X(.=X=X(.J.u.i.i.4. .T &.8.n.].+X1X X X&X%X@X@X    :X,X,X,X:X{.  ",
"            ,X,X,X@X8.y. .  r.M.J.!.G.~./.J.V.L.K.V.i.X.N ) 6.h.j.1X1X#X X#X%X+XD.    XX{.>XU.n.D.  ",
"          XX;X$X>X[.j.j.,.| r.^.J./.~.~.L.s.L.L.S R d.3.E   t v 0.1X&X%X].8.F.j.q.    XX}.oX[.n.D.  ",
"          oX}.oX}._.c.k. .| o.s.J.(.*X*X!.V.L.4.. q o.X.,.j.H H %X2X1X#XD.1.j.q.7.    $X;XoX}._._.  ",
"          }.@X}..XU.g.&. .<.a.M.d.J.L.L.V.f.J.| O y o.e.7.D.z.F.XX@X|.D.x.8.D._.D.    E.XX;X{.{.|.b.",
"      1X  >X@X.X|.`.z.) <.T.-XoXXX~.E.T.G.a.M.e.[ <.l.F.Y.F.h.l.XX@XOX}.D.1.c.[.3.        ' A :.    ",
"      1X>XT.|.n.|.g.>.y.Y.}.oX-X=X:X;X:X:X;X>X>XoX$X@XOX}.I.h.Y.@X@X[.U.c.H A         F.5.` J -.j.  ",
"    2X1X,X{.7.K G T ..I.>X=X@X>X$X;X;X;X;X:X;X;X$X$X$XoXoX}.p.4.h.OX.X|.n.` j         $X@X{.|.{..X  ",
"    2X1X,X X9./ ' 6.b.E.oX$X;X-XOX;X:X<X:X:X:X:X$X;X$X$X@XXXl.=.>.3.G ~ Q v J -.j.    oX|.@X%X X{.  ",
"  1X2X1X1X#Xn.j.c.{.@X@X:X1X:X>XoXoX=X;X=X<X<X%XoXoXoXoXXXXXY.XXU.6.W C ^ &.5.w.x.      B Y _ (     ",
"  ;X:X$XoXU.x._.'.+X#X$X:X<X:X1X:XOX;X<X$XOX<X%XoXoXoX@X$X@X+XoX}.n.7.5.7.x.v.v.0.      V V w a     ",
"  OX;XOXOX.X].v.`.$X%X<X:X,X:X:X;X$X$X%X$X$X$X%X<X$X$X$X$X@X@X@X@X@X+X}.n.c.v.v.].XX(.-X.X{.:.      ",
";X=X;X;XXX[.q.x.D.@X1X1X1X1X1X1X1X1X&X:X<X$X$X$X@X$X$X%X#X%X%X%X$X.X[.l.N.|.U.Z.C.W.P.C.(.-XoXoX    ",
"=X:X1X:X#X+X_.v.D.$X<X1X2X1X2X1X1X2X1X1X1X1X1X&X&X&X&X&X&X%X#X+X.XI.k.k.oX&XH.O.O.A.Q.+.+.+.R.@X:X  ",
"  /.>X'.F.Y.5.q.D.@X,X1X1X2X1X2X1X<X2X1X2X1X1X1X<X:X%X%X$X#X.X.XD.k.y.oX,X%X$XXX!.!.W.C.J.R.oX#X:X<X",
"  l.:.L H ..) W :.'.<X1X1X2X1X1X<X1X<X2X1X1X1X1X&X%X#X$X$X.X`.D.j.6.h.&X1X1X1X1X,X<X<X%X&X%X%X%X#X:X",
";X}.c.8.7.c.q.S k ! 8.$X<X1X<X<X<X<X1X<X2X1X1X<X%X$X+X.X.X'._.0.9.( ] ,X1X1X1X1X1X<X&X:X&X%X%X%X+X;X",
"1X1X2X2X1X#X'.W c u m Q -.7.9.-...7.|.:X1X2X,X,X:X@X X'.`.B.x._ i # k #X1X1X1X1X1X,X:X%X%X#X#X+X{.  ",
"  c.x.@X].$.*.W z i s d f I I I Y Y T _ 1._.;X:X#X X'.B.0._ c # # * 7 2.%X@X].{.&X&X,X#X#X#X XB.    ",
"    I Y V 1     C i p f f f I I Y Y I M I I T _ &._ ~ Z e 1 & # $ > v ` *.{ B I ) 1.B._.v.2.#.$.    ",
"    I a 4 3       x e u a a f M N I I N I p 0 0 4 0 3 3 1 - - ; 7 n `     p p a p w z b x 8 G       ",
"      f w           x i i e i s d V M M M a u 0 0 3 3 < 2 7 r n W #.$.    p p p p 4 < < < 9 _       ",
"                      k 6 2 2 6 8 8 w u p u 4 1 < - - - , k D / / /         w u w 2 < < - n         ",
"                        2 < 1 1 2 2 2 1 - - & $ $ * * * : v F / D F         u w 0 < - = 9 ~         ",
"                        8 - < < 2 5 1 1 & & % $ # * # # = n / G n             i 8 - = 6 C           ",
"                          2 - - - 6 2 1 & & % $ $ $ + o , D / D G               x 2 > h             ",
"                            - - - 2 2 - & % $ $ # + X o , H @.(                                     ",
"                            2 - - - 6 - % $ $ $ X X o o h / $.                                      ",
"                                  8 g 7 - $ $ + $ + @ h D #.                                        ",
"                                    b h = + o o o o @ l /                                           ",
"                                      b : + o o o X ; F                                             ",
"                                        t * + + * , D                                               ",
"                                            6 t n                                                   ",
"                                                                                                    ",
"                                                                                                    "
};
