/* XPM */
static char *isometric_tropical_island_with_stones_105738_671_removebg_preview_resized[] = {
/* columns rows colors chars-per-pixel */
"50 50 180 2 ",
"   c None",
".  c #35231C",
"X  c #39251F",
"o  c #3C2722",
"O  c #3D2924",
"+  c #3F2E28",
"@  c #432C26",
"#  c #482F27",
"$  c #442E29",
"%  c #482F29",
"&  c #4C332D",
"*  c #50362F",
"=  c #4D3630",
"-  c #4E3830",
";  c #513730",
":  c #553C34",
">  c #593E36",
",  c #573F38",
"<  c #583F38",
"1  c #5B4037",
"2  c #5C423B",
"3  c #62463D",
"4  c #6A463C",
"5  c #64483F",
"6  c #6C493E",
"7  c #724A3F",
"8  c #043C45",
"9  c #04434B",
"0  c #0B454D",
"q  c #0D484F",
"w  c #11444B",
"e  c #064A53",
"r  c #0B4A53",
"t  c #054F59",
"y  c #094D58",
"u  c #134951",
"i  c #06525C",
"p  c #09525C",
"a  c #0D5257",
"s  c #165057",
"d  c #1F5055",
"f  c #12535C",
"g  c #195158",
"h  c #12585F",
"j  c #285458",
"k  c #3C5758",
"l  c #3A5B5E",
"z  c #0C5661",
"x  c #035C66",
"c  c #085A63",
"v  c #045E68",
"b  c #085965",
"n  c #105F69",
"m  c #165B62",
"M  c #295C63",
"N  c #06646B",
"B  c #0C636C",
"V  c #07686F",
"C  c #116167",
"Z  c #13656C",
"A  c #1F6269",
"S  c #066770",
"D  c #066E75",
"F  c #0E6D74",
"G  c #146E73",
"H  c #0A7379",
"J  c #167579",
"K  c #3E6063",
"L  c #346A6E",
"P  c #266A70",
"I  c #3B6F72",
"U  c #485858",
"Y  c #654A42",
"T  c #6A4D44",
"R  c #724D42",
"E  c #6D5047",
"W  c #67564F",
"Q  c #6D5249",
"!  c #725147",
"~  c #7B5145",
"^  c #72554B",
"/  c #7B564B",
"(  c #76584E",
")  c #7C5A4F",
"_  c #765A51",
"`  c #7B5D53",
"'  c #5D615E",
"]  c #6F655F",
"[  c #7F6157",
"{  c #75645C",
"}  c #7F665D",
"|  c #426265",
" . c #4D6061",
".. c #4A6C6C",
"X. c #576160",
"o. c #546C6C",
"O. c #497976",
"+. c #457473",
"@. c #5E7170",
"#. c #547171",
"$. c #636560",
"%. c #686663",
"&. c #636C69",
"*. c #7E6F69",
"=. c #6C746E",
"-. c #76746E",
";. c #7E706A",
":. c #637975",
">. c #687673",
",. c #707471",
"<. c #797772",
"1. c #815649",
"2. c #83594D",
"3. c #8A5A4C",
"4. c #905D4F",
"5. c #825D52",
"6. c #8C5E51",
"7. c #905F53",
"8. c #826156",
"9. c #8C6256",
"0. c #83645A",
"q. c #8A655A",
"w. c #8A685E",
"e. c #926255",
"r. c #996658",
"t. c #926A5E",
"y. c #9B6B5D",
"u. c #936659",
"i. c #876D65",
"p. c #8D6B61",
"a. c #916E63",
"s. c #9C6E61",
"d. c #8D7066",
"f. c #86746D",
"g. c #947166",
"h. c #9C7165",
"j. c #957369",
"k. c #9C756A",
"l. c #9D796E",
"z. c #867B75",
"x. c #8C7B73",
"c. c #8E7F78",
"v. c #947C73",
"b. c #9D7E74",
"n. c #A47466",
"m. c #A47669",
"M. c #A87769",
"N. c #A4796D",
"B. c #AB7B6D",
"V. c #A57D72",
"C. c #AA7E72",
"Z. c #7C827B",
"A. c #8D8178",
"S. c #988077",
"D. c #918179",
"F. c #9B837A",
"G. c #A58175",
"H. c #AB8275",
"J. c #A48479",
"K. c #AE867A",
"L. c #AE887D",
"P. c #B48475",
"I. c #B2877A",
"U. c #B88778",
"Y. c #B1897D",
"T. c #BB8B7C",
"R. c #AF8B80",
"E. c #A78C82",
"W. c #B48D81",
"Q. c #B88E81",
"!. c #AE9087",
"~. c #B59186",
"^. c #BC9385",
"/. c #BC968A",
"(. c #B2978C",
"). c #C18F81",
"_. c #C39284",
"`. c #C39688",
"'. c #C6998C",
"]. c #CE9F90",
/* pixels */
"                                                                                                    ",
"                        B p w                                                                       ",
"                w r t f p 0                               7.                                        ",
"                n q 8 9 r e r u                       H.B.n.n.5.                                    ",
"              n v z e t N e i p f                     _._.T.U.9.                                    ",
"            B D B z S N F Z x c                     T._.U.N.T.e.6                                   ",
"            H H i c D N i V a   w                   T.]._.U.P.1.6                                   ",
"          G     y N F i z c                       s.n.T.T._.P.4.7 3                                 ",
"                u G Z 9 C g                       y.B.U.B._.h.e.~ 4                                 ",
"                      e d W (.`.W.L.L.Y.L.K.Y.L.K.r.T.).U.m.4.4.3.6 8.                              ",
"                      M ] 4 n.I.V.m.m.h.h.H.L.I.K.9.y.y.r.e.y.3.1.~ ! K.Y.R.                        ",
"                      E.K.T 3 h.B.C.P.6.3.q.H.L.H.6.r.e.3.M.e.3.r.R R H.L.I.L.L.                    ",
"              ^.Q.W.Y.H.Y.V.8.'._.U.P.M.7.~ t.H.H.t.~ 3.y.n.r.7.q.4 q.H.H.H.H.K.L.L.                ",
"          /.Y.I.Y.L.H.m.n.h.y.T.).T.T.P.3.7 ! H.Y.I.l.q.t.2./ ~ ) a.K.G.*.' o.,.K &.x.L.R.          ",
"        ^.L.K.L.K.H.T.U.B.3.~ n.m.m._.e.2.~ ! m.n.k.K.I.K.H.H.H.K.Y.K.H.i.U s u u ..v.L.L.L.        ",
"      V.N.H.K.H.V.h.B.P.C.1.R ~ ~ u.9.~ 7 2.H.U.B.3.a.L.L.Y.Y.L.K.K.H.f.j r p i j A P D.Y.I.L.      ",
"      5.5.N.R.C.C.N.q.q./ 2.k.N.q.q./ 2.q.t.M.P.C.1./ I.I.C.V.N.N.N.N.b.<.>.&.Z <.v.O.+.J.K.K.W.    ",
"    '.W.R.R.K.I.Y.Y.K.V.V.V.K.V.V.H.L.L.Y.C.q.6.2.` g.H.C.C.C.C.C.C.N.K.Y.Y.F.#.J.H.V.>.A.K.K.Y.    ",
"    Q.K.R.I.K.K.K.K.Y.K.Y.K.I.V.n.n.H.Y.Q.I.C.l.n.C.H.K.C.C.C.C.U.n.e.e.g.C.K.K.Y.K.K.V.K.K.K.W.    ",
"    W.R.I.I.I.R.K.Y.K.I.K.V.B.C.Y.T.~.T.Y.Y.W.W.K.V.C.C.M.T.B.C.).T.u.3.3.q.k.Y.K.L.K.C.K.Y.K.W.    ",
"    R.W.I.R.I.B.N.N.N.N.m.V.v.x.z.J.J.c.v.J.J.K.K.n.U.'.U.C.).U.B.).B.4.e.6.4 a.Y.K.L.H.H.L.Y.^.    ",
"      l.R.C.V.V.K.I.C.K.K.x.X.j p | @.f k ' f.K.V.7.s.T.U.)._.C.B.B.r.3.1.7 ( ( K.Y.K.K.H.Y.Y.      ",
"      Q 5.m.I.R.I.R.R.I.Y.F.>. .0 q g d %.j.V.V.N.6.3.6.e.P.B.7.M.e.e.2.4 4 ~ q.K.K.K.Y.K.V.p.      ",
"      Y 3 N.W.K.K.I.I.Y.F.L x c 0 9 t e 0 l -.V.K.C.a.) 5.2.7 ~ R 5.( 4 ~ / t.Q.^.`.^.H.8.T `       ",
"        2 k.W.Y.L.Y.K.L.I D I ;...N G j z m K v.Y.K.C.C.C.l.a.q.w.h.k.l.H.H.H.C.I.h.) ` 2 `         ",
"        2 ( j.V.H.L.Y.:.J @.g.I.Z.N #.G.A.A.L.I.Y.K.I.V.C.C.C.K.Y.I.L.I.Y.Y.Y.I.H.> T ( E 0.        ",
"          T ` 0.p.j.b.+.%.Y : T i.L ,.I.Y.Y.Y.Y.K.Y.K.I.N.C.R.K.I.K.L.I.j.0.p.j.l.Q ^ T ` 0.        ",
"          Y ` 5.5.8.} { 2 ; ; 3 5 { D.~.Y.Y.Y.Y.W.Y.Y.W.W.Q.`.Q.~.Y.K.` 1 ! 8.0.! 3 _ T [ [         ",
"          2 ^ ` ` [ [ 8.2 , > T Q 8.k.L.H.q.` u.a.p.p.w.5.Q ` w.g.G.( & 3 [ w.0.3 T ! Q [           ",
"            ^ _ _ ` ` [ E , 1 5 ) d.p.a.0.& * > ` 8.5.8.^ , T T ^ 8.& & E 0.w.8.T ^ T ( `           ",
"          !.J.p.[ _ ` [ ` 2 , 5 ` p.g.p.w.: > 0.V.V.j.5.T Y Q Q 8.` & : ( p.b.V.l.w.Y ( _           ",
"            !.~.R.L.G._ _ Y 1 2 ! T T E T > : _ g.G.i._ Y Y Q _ 8.T # 2 _ 8.l.H.N.0.Y (             ",
"            ^ _ p.p.T 3 ( Y , 1 ! T T T > ; * Y Q _ , Q Y Y Q _ [ < & Y _ _ 0.( 4 > Y _             ",
"              : 1 - & 2 E Y , , T T 3 ( E > : Y Q Q 2 Q Y E ^ ^ _ - ; T ` ` W * > 2 ^               ",
"                2 2 & 1 Y Y , ; Y T < Y ^ 2 1 3 E T 2 Y Y Q T ^ T % > Q ` ` : Y E                   ",
"                : 2 , ; 2 5 1 ; 3 _ a.v.j.E T W W T , 2 T ^ 2 Y , & Y ! { Y 2 T                     ",
"                  , , : 2 2 > - 2 Y p.Q./.J.p.p.p.0.Y < Q Y : ; % : E E ^ 2 Y T                     ",
"                  , , : : 2 , - 2 2 Y p.b._ Y ` a.0.3 3 T > : - % > ! 3 - Y                         ",
"                    2 , , 2 3 2 2 3 2 Q : = 2 p.` > > Y 2 & & @ . < Q , +                           ",
"                            0.5.( Y ; Y , = 2 0.Y : > 3 & @ . . . & ; +                             ",
"                              8.` ^ 2 , Y & < ` 3 & ; ; # # . . . . o                               ",
"                              0.` ( E ; 2 & : W > & % & & % . o o +                                 ",
"                                ` ( E , + & - Y : ; 2 > : % O O O                                   ",
"                                  ( Q 2 O + = < > 6 T 2 & @ O O                                     ",
"                                  _ Q Y @ o @ ; 3 ( ! 1 $ O O                                       ",
"                                    Q T & o @ > E ( E 1 $ O                                         ",
"                                    W T 1 O @ 3 ` ` T 2 $ $                                         ",
"                                      Q 2 + $ ^ 0.Q 5 5 -                                           ",
"                                                0.W                                                 ",
"                                                                                                    "
};
