/* XPM */
static char *__resized[] = {
/* columns rows colors chars-per-pixel */
"50 50 188 2 ",
"   c None",
".  c #2D120A",
"X  c #31130B",
"o  c #3A150D",
"O  c #3E180F",
"+  c #42170E",
"@  c #44180F",
"#  c #401810",
"$  c #4C1C12",
"%  c #541D13",
"&  c #591E14",
"*  c #552114",
"=  c #5B2214",
"-  c #642416",
";  c #672618",
":  c #6B2418",
">  c #662A18",
",  c #6A2B19",
"<  c #762418",
"1  c #732B19",
"2  c #7C2C1B",
"3  c #77331B",
"4  c #822C1D",
"5  c #882A1F",
"6  c #85311D",
"7  c #8C331F",
"8  c #90351F",
"9  c #892E20",
"0  c #8D3521",
"q  c #853823",
"w  c #943521",
"e  c #9C3623",
"r  c #963921",
"t  c #9B3923",
"y  c #A33525",
"u  c #A93727",
"i  c #A43A25",
"p  c #AA3926",
"a  c #AD3B28",
"s  c #BA3728",
"d  c #B33A29",
"f  c #BD3C2C",
"g  c #FC1502",
"h  c #F61F06",
"j  c #FA1A03",
"k  c #DF3415",
"l  c #D6351E",
"z  c #DB331B",
"x  c #D73B1D",
"c  c #D93A1C",
"v  c #EE260C",
"b  c #EA290E",
"n  c #F52107",
"m  c #FA2303",
"M  c #F22309",
"N  c #F62C06",
"B  c #F73906",
"V  c #E42D13",
"C  c #E13115",
"Z  c #E73B10",
"A  c #CF3726",
"S  c #CE3C26",
"D  c #C53D2D",
"F  c #CA3B2B",
"G  c #C63E27",
"H  c #D23622",
"J  c #D13D23",
"K  c #F73D2F",
"L  c #FD3B2F",
"P  c #ED3737",
"I  c #EE3A37",
"U  c #EE353A",
"Y  c #E43E3A",
"T  c #EC3A39",
"R  c #F53636",
"E  c #FB3434",
"W  c #F33A34",
"Q  c #FB3831",
"!  c #F33738",
"~  c #F03938",
"^  c #844623",
"/  c #9F4E28",
"(  c #904725",
")  c #8F5125",
"_  c #AC4A2A",
"`  c #A24727",
"'  c #BE442D",
"]  c #B44B2C",
"[  c #BB4D2D",
"{  c #B6472F",
"}  c #A45C2C",
"|  c #AC582C",
" . c #BB522D",
".. c #B95D2E",
"X. c #B1552C",
"o. c #B95B30",
"O. c #BC612F",
"+. c #B26431",
"@. c #DA441C",
"#. c #F94505",
"$. c #F84B06",
"%. c #F95F06",
"&. c #EE4D12",
"*. c #E1521D",
"=. c #F75F1F",
"-. c #FC5E1E",
";. c #F96407",
":. c #FB7B09",
">. c #FC6D16",
",. c #FC621C",
"<. c #FB6A19",
"1. c #FC7314",
"2. c #FC7A11",
"3. c #CD4026",
"4. c #C3422D",
"5. c #C9412A",
"6. c #CB482E",
"7. c #C3482F",
"8. c #D64B26",
"9. c #C74C30",
"0. c #C94E30",
"q. c #CD5231",
"w. c #C45A31",
"e. c #CE5D35",
"r. c #C45230",
"t. c #D25B34",
"y. c #FC4C26",
"u. c #F6422D",
"i. c #FB432C",
"p. c #F64D29",
"a. c #FB4A29",
"s. c #FB5424",
"d. c #F85B21",
"f. c #E7433A",
"g. c #F34031",
"h. c #EA553D",
"j. c #DC662F",
"k. c #CF6337",
"l. c #CC6B36",
"z. c #C66835",
"x. c #D36236",
"c. c #D56E3B",
"v. c #DA6D39",
"b. c #D56937",
"n. c #D6733C",
"m. c #DB703A",
"M. c #DD783E",
"N. c #E76B24",
"B. c #E17B3C",
"V. c #DE6D40",
"C. c #FC8E07",
"Z. c #F68509",
"A. c #FC830D",
"S. c #FD890A",
"D. c #F88207",
"F. c #FD9405",
"G. c #FD9A02",
"H. c #F99309",
"J. c #F28414",
"K. c #F49818",
"L. c #F7A50F",
"P. c #F8AB0B",
"I. c #F7B60F",
"U. c #FCBD03",
"Y. c #F6B410",
"T. c #F3BB15",
"R. c #EC8E25",
"E. c #E68A3B",
"W. c #EC9C32",
"Q. c #FDCB01",
"!. c #FCCB0C",
"~. c #FAC707",
"^. c #F3CA14",
"/. c #F7C516",
"(. c #FBD017",
"). c #DD8142",
"_. c #E28542",
"`. c #E58B44",
"'. c #E79548",
"]. c #EB9A4A",
"[. c #E8984A",
"{. c #EEA44D",
"}. c #EEAB51",
"|. c #FBD84A",
" X c #FADE69",
".X c #F7E074",
"XX c #FAEFB5",
"oX c #FCF0B9",
/* pixels */
"                                                    Y T                                             ",
"                                                    T R T                                           ",
"                                                          f.                                        ",
"                                                                                                    ",
"                                                                                                    ",
"                                                                                                    ",
"                                                                                                    ",
"                                                                                                    ",
"                                                                                                    ",
"                                                                                                    ",
"                                                                                                    ",
"                                            R R T   ! !                                             ",
"                              T           I L L E i.y.L R                                           ",
"                                          u.1.S.1.S.F.2.a.R                                         ",
"                                        R -.C.G.G.G.G.F.,.E E ~                                     ",
"                                      ~ E p.a.2.G.G.G.1.Q ! R R                                     ",
"                                            E d.G.S.2.S.i.                                          ",
"                                            ! s.F.y.R <.s.                                          ",
"                                              ,.A.g.  d.y.                                          ",
"                                            ~ 1.S.Q U ,.1.Q W i.R T                                 ",
"                                          ! p.S.F.-.a.2.F.1.2.S.d.E                                 ",
"                                    ! i.d.d.A.G.A.A.S.,.A.G.G.G.S.u.                                ",
"                                    Q 1.G.S.2.1.i.i.y.Q ,.2.2.F.G.>.                                ",
"                          T R R     R 1.2.i.Q E E R E E Q E Q <.G.2.W                               ",
"                        W -.,.Q   ! a.2.i.E   ~ I   T ~ R T R L A.2.Q                               ",
"                      W <.G.A.K T E s.y.R I                 ~ E s.F.p.                              ",
"                    T ,.G.G.>.E E E R                         R E 1.d.                              ",
"                    K S.G.S.L E E E T     ^..XoX X(.~.P.T.      R i.a.!                             ",
"                    u.S.S.y.E ! E f.  Y.D./.XXoX|.!.Q.:.$.H./.  T R E E Q <.d.~                     ",
"                    W u.a.W       ^.L.#.N P.(.!.Q.Q.Q.F.j m ;.I.    R E ,.F.2.W                     ",
"                        E !     ^.H.B g g %.U.Q.Q.Q.Q.:.g g g $.P.    R Q 1.,.!                     ",
"                        R !   /.D.N g g g j #.:.H.H.;.m j j j j B K.  U E y.p.                      ",
"                        R R   J.N M m j g g g g g j g j m m M M h B K.  R E Q                       ",
"                        R h.R.Z b b M M j g g g g g j h M v v b b v &.W.  R R                       ",
"                      ~ ~ `.*.C C C V M M m h h h h M M v V C C C C C N.    E ~                     ",
"                      R h.N.x x c H Z V b v v M M M V V C C J J x x z 8.E.  R R                     ",
"            R W ~ ~ E E V.8.J J J J J H z V V V V C V H H H J S 3.3.J x j.    R E                   ",
"          T i.g.~ T T   x.3.5.5.D F S A H C H H H H H A H A F D 3.G 3.3.6.).  P E E E R             ",
"          ~ R         {.t.F G p 9 9 f F A A A A H A A F S F F d < < f 5.5.v.].    T R R Q           ",
"          T       }.].v.5.D 5.f u 9 y F F F F F A F F F F D D i e d D 5.G 6.t._.}.      ! R         ",
"              ].`.m.q.6.D D D D D 5.D D D D D F F D D D D D D D D 5.D D D D 6.q.v.'.{.      Y       ",
"      }.[.M.t.0.4.f x.x.D D D D D D D D D D D D F D D D D D D D D D D D D D 6.B.4.6.t.m._.'.[.      ",
"    `.b.6.f d u u p n.x.D D D D D D D D D D D D D D D D D D D D D D D D D D 7.`. .p d d f 7.x.).    ",
"  V.4.{ l.a y w w e ] x.f D D D f f f D D D D D D D D D D 5.D D D D D D D f r.l.i w w y t y a 7.V.  ",
"  ' e r X.e w 7 7 8 w i a d d d u u f 9.D f D D D f D 7.t.q.D D D f f f f a a t e e e w w y u [ k.  ",
"  a 9 : - - - , 3 7 7 7 8 8 8 8 7 8 w ] l.c.k.e.e.V.c.k. .a p p p p u y e e w w e y e 9 4 9 e _ ]   ",
"      * # o o @ - 7 w 8 7 7 7 4 1 1 2 7 t _ ..O.O.X.` r w 7 w t i i y e e e e i { _ 2 & & , q       ",
"              . X 3 o.] i w 4 : & $ & - 1 2 2 6 6 6 2 1 1 1 0 ` O.l.l.w.[ [ w.z./ ; $               ",
"                  O ^ +.| ^ & O X X o # $ % - ; - - = $ $ % % = > 3 ) } } } ( , @                   ",
"                                        . o O O # O o X X .                                         "
};
