/* XPM */
static char *Untitled_1_resized[] = {
/* columns rows colors chars-per-pixel */
"50 50 205 2 ",
"   c None",
".  c #38251B",
"X  c #2C2A26",
"o  c #2A292B",
"O  c #332B2A",
"+  c #372D2B",
"@  c #3F332F",
"#  c #2D2C33",
"$  c #382F34",
"%  c #2E3639",
"&  c #343333",
"*  c #393333",
"=  c #3E3935",
"-  c #34363C",
";  c #39363B",
":  c #36393C",
">  c #3B3B3B",
",  c #353937",
"<  c #443128",
"1  c #593B29",
"2  c #443532",
"3  c #4B3B34",
"4  c #463A38",
"5  c #523E36",
"6  c #3E413E",
"7  c #48423C",
"8  c #55423A",
"9  c #6D4126",
"0  c #6B432A",
"q  c #714226",
"w  c #724228",
"e  c #6D4331",
"r  c #78543D",
"t  c #343A42",
"y  c #3B3D42",
"u  c #3A3E48",
"i  c #343642",
"p  c #2E3845",
"a  c #413F44",
"s  c #3E4245",
"d  c #3D444A",
"f  c #3F4653",
"g  c #434344",
"h  c #4A4946",
"j  c #424349",
"k  c #45484D",
"l  c #494A4D",
"z  c #484446",
"x  c #5A4B43",
"c  c #5F5048",
"v  c #454A51",
"b  c #484A51",
"n  c #4D5154",
"m  c #644F41",
"M  c #65534A",
"N  c #775846",
"B  c #6D5A52",
"V  c #79635B",
"C  c #7F6A63",
"Z  c #AC551E",
"A  c #834E2B",
"S  c #9B592F",
"D  c #9C572D",
"F  c #855D3E",
"G  c #8C5C3C",
"H  c #845434",
"J  c #915734",
"K  c #995D3A",
"L  c #AB5E2E",
"P  c #A75829",
"I  c #B55A20",
"U  c #B95F27",
"Y  c #A25D36",
"T  c #AB5E32",
"R  c #A45B35",
"E  c #9F6134",
"W  c #BB652B",
"Q  c #AA6236",
"!  c #A6613B",
"~  c #A96139",
"^  c #A7673A",
"/  c #B26D3D",
"(  c #B86732",
")  c #B6713D",
"_  c #C56425",
"`  c #C86523",
"'  c #C2652A",
"]  c #C8662B",
"[  c #C56828",
"{  c #C66927",
"}  c #DB752E",
"|  c #DB752A",
" . c #CD7334",
".. c #C67338",
"X. c #D57433",
"o. c #DA7633",
"O. c #D77B35",
"+. c #DC7A34",
"@. c #D77739",
"#. c #D47B3A",
"$. c #DB7B3A",
"%. c #DA7739",
"&. c #C9752D",
"*. c #E17931",
"=. c #E17E39",
"-. c #E5772F",
";. c #835E45",
":. c #895C41",
">. c #845E48",
",. c #8A634B",
"<. c #9C6746",
"1. c #A36A44",
"2. c #AB6A45",
"3. c #AD6E50",
"4. c #A57250",
"5. c #B27655",
"6. c #AF6F47",
"7. c #8C7A70",
"8. c #977F76",
"9. c #B87D62",
"0. c #C87B43",
"q. c #D17F41",
"w. c #D87E42",
"e. c #DC823C",
"r. c #D6813D",
"t. c #E3833C",
"y. c #EA853B",
"u. c #EC8A3E",
"i. c #EB8437",
"p. c #F1893A",
"a. c #9E857C",
"s. c #BE8C76",
"d. c #DA8645",
"f. c #E38641",
"g. c #E58A42",
"h. c #EC8B42",
"j. c #E78846",
"k. c #C28F7A",
"l. c #C2997E",
"z. c #A28B83",
"x. c #AB948A",
"c. c #B59E9B",
"v. c #B29E96",
"b. c #AD9B98",
"n. c #AFA197",
"m. c #B4A19B",
"M. c #B9A19D",
"N. c #BCA396",
"B. c #BEAAA5",
"V. c #C9A08F",
"C. c #CBA795",
"Z. c #CDA896",
"A. c #C1A49B",
"S. c #CEAB9A",
"D. c #C6AB9E",
"F. c #D1AB9B",
"G. c #D0A793",
"H. c #CFB09C",
"J. c #C5ACA2",
"K. c #CFAEA2",
"L. c #D0ACA0",
"P. c #CAB5AB",
"I. c #CCB5A9",
"U. c #D4B3A5",
"Y. c #D2B6AC",
"T. c #D3BAAE",
"R. c #DABBAC",
"E. c #D8B5AC",
"W. c #CDBBB3",
"Q. c #D2BDB2",
"!. c #DABDB2",
"~. c #DBBFBA",
"^. c #D4C1B5",
"/. c #DBC2B5",
"(. c #D5C5BB",
"). c #DBC5BC",
"_. c #D7C8BE",
"`. c #DAC9BE",
"'. c #E2C0AE",
"]. c #E0C1B6",
"[. c #E1C6BC",
"{. c #E2CBBC",
"}. c #DCC6C1",
"|. c #DCCBC2",
" X c #D5C6C0",
".X c #DDD0C7",
"XX c #E2CDC5",
"oX c #EACEC6",
"OX c #E4CDC8",
"+X c #E4D2C5",
"@X c #E9D2C5",
"#X c #E6D4CB",
"$X c #EBD4CA",
"%X c #E6D9CB",
"&X c #ECD9CD",
"*X c #E9D8C7",
"=X c #F0D9CD",
"-X c #EDDCD2",
";X c #E8D7D0",
":X c #F2DDD4",
">X c #F3DFD8",
",X c #EFE1D5",
"<X c #EDE0D9",
"1X c #F3E0D6",
"2X c #F0E1D8",
/* pixels */
"                                                                                                    ",
"                                          Q.^.                                                      ",
"                                        ).>X:X|.                                                    ",
"                                      +X:X;X;X,XOX                                                  ",
"                                  W.+X2X@X/./.@X>X;X                                                ",
"                                 X-X:X{.~.R.R./.XX:XoX^.                                            ",
"                              P.}.:X`./.U.7.a.Y.).oX:X:X}.                                          ",
"                            .X:X$X{./.D.V O + C I./.`.:X1X|.                                        ",
"                          |.2X$X[.[.N.c X $ & X M A.!.).;X>XQ.                                      ",
"                        K.=X@X/.!.x.5 O s j s , X x x.!./.&X+XQ.                                    ",
"                      (.oXoX).R.a.2 * k v j j s - X 3 z./.{.&X:X(.                                  ",
"                    ^.:X&X[.).a.2 ; k j g s g g y y o 2 z.!.].#X,X^.                                ",
"                    &X-X).!.z.@ $ j j j g g g j j j s o = x.!.`.1X$X                                ",
"                  XX>XXX~.N.8 O j j j j j y j j j j s 6 X 8 A./.XX2X|.                              ",
"                B.+X#X(.Y.B O a j j j j j s j j j j j s > O V Y./.&X#X                              ",
"                XX,X+X/.8.+ : j g k j j j j j j j j j j j - O z.!.+X#XQ.                            ",
"                :X&X(.S.r . & - u j u j s a j u u s u u : & . N U.{.=X&X                            ",
"               X2X{.^.s.L / H 1 2 + $ ; ; ; u i & & O < 1 A Q P l./.OX:XQ.                          ",
"              .X-X/.I.2.' f.f.d.( S A 1 o # # o < A D ( O.i.e.W 3.R.OX1XXX                          ",
"              -X$X/.V.P  .y.i.u.X.+.#.:.t - > : 9 X.o.+.f.t.u.[ L S.).$X&X                          ",
"            W.:XXX].s.Z | u.u.e. .o.+.G : : > p 0 X.O.+.u.t.h.&.Z k.~.OX>XQ.                        ",
"            ).2X`.R.5.I t.u.u.u.X.%.+.:.t : > t 9 X.@.*.u.u.u.O.I 5.!.).1X}.                        ",
"            +X:X].U.3.U e.u.u.u.} @.*.;.y ; > t 9 X.+.t.h.u.u.+.I 3.E.`.-XXX                        ",
"            OX=X).F.1.W t.u.u.u.+.@.*.;.; - : % 9 X.o.t.h.h.h.O._ 2.U.^.-X}.                        ",
"            #X=X/.G.! [ =.u.u.h.=.O.*.;.y : 6 p 9 X.+.=.h.u.h.@._ ~ F./.-X|.                        ",
"            ).@X[.G.! ] =.u.u.h.=.%.-.:.i % : % q } -.=.p.h.h.$.` T F.).-XOX                        ",
"            ).%X{.C.Y ] f.h.h.j.6.r ) F 6 , s : 9 6.H 2.u.u.h.e.` ! F.`.#X~.                        ",
"            ;X%X/.C.J ( 0.O.t.^ K K <.B : & = & 5 :.P 1.<.e.r...W J K.`.&X[.                        ",
"            #X&X].C.J W 0.O.e.! ^ / ! c y : 4 > 5 E ( 4.F d.r.) W J K./.&XoX                        ",
"            &X&X(.C.R ] t.t.g.q./ G E N * ; t % 0 Q :.K  .f.t.O.[ K L.(.#XOX                        ",
"            &X$X(.C.T [ y.u.h.h.=...o.;.y > > t q X. .X.h.g.h.g._ ~ S./.=X}.                        ",
"            $X%X^.C.L [ t.h.h.j.*.+.*.;.: : : % w +.o.+.h.h.u.u.` Q S./.:X`.                        ",
"            +X%X/.Z.L [ t.h.u.h.o.%.-.;.y > : t q o.X.o.h.h.u.t._ Q S./.&X+X                        ",
"            T.%X(.Z.L [ $.h.u.h.o.%.o.;.: - > : w %.o.o.h.u.u.$.] Q S./.&X#X                        ",
"            ^.*X/.Z.L ' %.h.u.h.X.X.+.:.: ; > i w %.X.} u.u.p.+.` Q S./.&X;X                        ",
"            OX&X/.S.L _ @.y.i.y.| | +.G y i 4 p 0 +.} } u.y.g.d._ Q S./.&X#X                        ",
"            &X%X).C.L ` *.y.f.f.0./ 1.N v s k d c ^ ) 0.d.f.f.$.` T F.[.@X^.                        ",
"            XX%XXXC.L W e.0.4.N c z a a a 6 s s h h l m F 6.q.$.` Y F.{.&X.X                        ",
"            #X&X[.G.K ~ ,.c z u y y v j j 6 d z b v n k s y c ,.Q T F./.&X+X                        ",
"            #X*X'.C.N 3 y j j j j z k j j y k j j j j n k k d y 5 r F.`.:X).                        ",
"            #X%X/.A.2 & l l j j j j j j g s j j j g j j j j g d # 5 J./.&X$X                        ",
"            $X%X).N.2 : j j j j j j j j j y j j j j j j j j h d y 4 J./.:X#X                        ",
"            (.%X[.A.< : j j j j j g j j j j j j j j j j j j g j ; 4 J.(.&X$X                        ",
"            #X&X].A.2 , j j j j j j j j j a z j j j j j j j d s - 3 D./.&X#X                        ",
"            -X&X].c.2 , s s s d j s s g > s s j s s s s g g g s , 3 D./.&X#X                        ",
"            #X#X/.B.5 * 7 7 g g z z g g 7 g h g 7 g g 7 g g 7 h 4 8 K.(.-X#X                        ",
"          P.T.^.T.J.v.c.c.M.M.n.m.c.c.M.m.m.M.c.c.B.m.m.m.c.n.m.v.m.I.W.!.Q.P.                      ",
"          ).(.(./.`.).[.XX).`.).}.).).}.}.}.}.).).XX).).}.).(.).).)./.(.).(.).                      ",
"        $X$X$X$X$X$X$X$X$X$X$X$X$X@X$X$X$X$X&X@X$X$X$X$X$X$X@X$X$X@X&X@X@X$X$XOX                    ",
"      +X.X|..X}.}.}.}. X(.(.(.|._.(.(._.(.(.).(.W.(.(.(.|.(.`.|.|.|. X(.(.}._.}.                    "
};
