/* XPM */
static char *__resized[] = {
/* columns rows colors chars-per-pixel */
"50 50 130 2 ",
"   c None",
".  c #020101",
"X  c #090505",
"o  c #0C0906",
"O  c #070708",
"+  c #0C0B0A",
"@  c #110D0B",
"#  c #13120E",
"$  c #0E0E10",
"%  c #131312",
"&  c #191613",
"*  c #171813",
"=  c #1A1B16",
"-  c #1B1B19",
";  c #211D19",
":  c #1F2019",
">  c #23231D",
",  c #28251E",
"<  c #26281B",
"1  c #2D2A1F",
"2  c #242522",
"3  c #272821",
"4  c #2B2B24",
"5  c #2C2D29",
"6  c #322E2A",
"7  c #2F302A",
"8  c #323227",
"9  c #32332C",
"0  c #39362E",
"q  c #37382D",
"w  c #3A3A2F",
"e  c #363731",
"r  c #373831",
"t  c #3B3B34",
"y  c #3D3D39",
"u  c #403E34",
"i  c #403C38",
"p  c #3E4036",
"a  c #3F4038",
"s  c #434136",
"d  c #45443B",
"f  c #49463D",
"g  c #47483F",
"h  c #4A4A3E",
"j  c #454642",
"k  c #484642",
"l  c #474840",
"z  c #4B4B43",
"x  c #4E4E49",
"c  c #504E45",
"v  c #524E4A",
"b  c #4F5146",
"n  c #525346",
"m  c #5B5A46",
"M  c #53544B",
"N  c #59554C",
"B  c #57594B",
"V  c #5B5A4E",
"C  c #565750",
"Z  c #595651",
"A  c #5C5B53",
"S  c #5E5F5A",
"D  c #615E54",
"F  c #615E59",
"G  c #5F6155",
"H  c #62614E",
"J  c #636255",
"K  c #64645B",
"L  c #69665B",
"P  c #67695B",
"I  c #6C695D",
"U  c #716E5E",
"Y  c #676762",
"T  c #686760",
"R  c #6C6C62",
"E  c #716E64",
"W  c #6F7164",
"Q  c #747265",
"!  c #7A7566",
"~  c #75746A",
"^  c #79766B",
"/  c #77786D",
"(  c #7B7A6D",
")  c #7D7B72",
"_  c #817E73",
"`  c #827F78",
"'  c #7F8074",
"]  c #838275",
"[  c #898577",
"{  c #85847A",
"}  c #89867C",
"|  c #8B8C7D",
" . c #8E917F",
".. c #878980",
"X. c #8D8B82",
"o. c #918E83",
"O. c #908D88",
"+. c #8F9182",
"@. c #929285",
"#. c #979A87",
"$. c #939389",
"%. c #999788",
"&. c #9C9A8D",
"*. c #999793",
"=. c #9D9C93",
"-. c #A09E8E",
";. c #A19F94",
":. c #A3A28D",
">. c #A4A496",
",. c #A4A49B",
"<. c #A8A69B",
"1. c #ABA99D",
"2. c #A8A6A0",
"3. c #AEABA3",
"4. c #B1AEA6",
"5. c #B1AEA8",
"6. c #B4B3A6",
"7. c #B5B4AC",
"8. c #B9B7AE",
"9. c #BBBAAC",
"0. c #BDBBB1",
"q. c #C0BDB6",
"w. c #C1C0AE",
"e. c #C3C2B6",
"r. c #C4C4BB",
"t. c #C8C6BB",
"y. c #CECDC1",
"u. c #D0CFC1",
"i. c #D3D2C6",
"p. c #D5D2C8",
/* pixels */
"                                          &.Q H H m H  .1.1.3.                                      ",
"                                      t ~ 1.1.q.w.:.>.-.:.-.@.m 6                                   ",
"                                F w N <.%.%.D J U J P h ( &.%._ M 8.                                ",
"                            N ( p.1.t ] U ! _ Q ! ! H P L U E D p.=.^                               ",
"                        d ! 6.q.Q -.I H _ ! _ U E _ E ! L n f ] 4.L _ D I                           ",
"                      9 -.t.] U U U 6.s h I ( ` _ E R D D f w t.( E ( ( ( J w                       ",
"                  L ;.E D _ U U U ! [ @.8 D D i j v c c R 8 D 8.D I ! ] ( i k                       ",
"                D q.t._ h D _ _ I ( J 7.6 i 6 @ X @ @ ; u , L 4.{ I Q _ D N 6. .X.                  ",
"              J 3.Q _ ! N u _ T E N 6 , o @ o . X X . o o X 6 c F ( E L i  .} I ..'                 ",
"            z o._ U U I ` u I D Z ; & X X X . X X X X X X X o o ; k c E [ 1.D ^ / R P               ",
"            8.1.H _ ! U U E v & & @ o . . X X . O . X X @ X X o X @ & M X.} E I ) ~ Y               ",
"          , Z J I H U _ I f & . X @ X @ X . . X . X . X + X X X X X # % f F ~ F I W A =.2           ",
"          Z 4 c _ H I E u @ o . O O . . . . . . . . . . O . o . . o . o + j ~ R R n d V A 5         ",
"          >. .d u h D N @ X . . . . . . . . . . . . . . . . . . . . . . . - j Y V g >.,.;.`         ",
"        ] J -.u.[ 0 u @ X X . . . . . . . . . . . . . . . . . . . . . . . O - 7 h 1.X.] D 8.        ",
"        I U B ! 4.N @ X o X . . . . . . . . . . . . . . . . . . . . O O . . X # i _ ( ~ E 7.f       ",
"        I Q / { E 4 o X O O . . . . . . . . . . . . . . . . . . . . . . . O . . 4 I ( ( L { r.      ",
"      [ ( W R { c o # X O . . . . . . . . . . . . . . . . . . . . . . . . . . . X w ^ ^ F I 2.      ",
"      ~ Q J G W x + . O . . . . . . . . . . . . . . . . . . . . . . . . . . . . @ f ! Z D A o.$.    ",
"    ' a 4 q M C 2 . O O . . . . . . . . . . . . . . . . . . . . . . . . . . . . X ; z i f M T !     ",
"     .6./ G 7 r = . O . . . . . . . . . . . . . . . . . . . . . . . . . . . . . . & 6 D o.q.q.%.s   ",
"   .H ' ,.7.' = + . . . . . . . . . . . . . . . . . . . . . . . . . . . . . . . . ; 0 ;.<.] J _ s   ",
"  #.V W / Y A # . . . X . . . . . . . . . . . . . . . . . . . . . . . . . . . . X @ ; %._ I ( [ d   ",
"    B ' $.Y G * . . . . . . . . . . . . . . . . . . . . . . . . . . . . . . . . X X # 3.! J _ E h   ",
"  ' B / G ' Y * X X . X . . . . . . . . . . . . . . . . . . . . . . . . . . . . X . o 5._ J ! E s   ",
"  | h H G W b : . . . X . . . . . . . . . . . . . . . . . . . . . . . . . . . . X X @ 5.o.N ( D 8   ",
"  ' p R G j l : . . . . . . . . . . . . . . . . . . . . . . . . . . . . . . . . X X ; O.( Z L u 8   ",
"  h p b l C e : . . . O . . . . . . . . . . . . . . . . . . . . . . . . . . . . X X @ v v z c V 0 ;.",
"  6.,.7.r.2.G = . . . . . . . . . . . . . . . . . . . . . . . . . . . . . . . . X . ; 4.q.8.q.q.F 1.",
"   .B G ' C C : . . . . . . . . . . . . . . . . . . . . . . . . . . . . . . . . . X @ 2.) N F ( f ;.",
"   .P W W Y G : . . . . . . . . . . . . . . . . . . . . . . . . . . . . . . . . X X o 2.^ ~ ! ( h   ",
"  #.A P P G Y = . . . O . . . . . . . . . . . . . . . . . . . . . . . . . . . . X X o 4.` ^ I E u   ",
"  +.h H G ../ * . . . X . . . . . . . . . . . . . . . . . . . . . . . . . . . . . . @ 2.` D F L u   ",
"  W p W G / j : . . . . . . . . . . . . . . . . . . . . . . . . . . . . . . . . X o & X.T A D N w   ",
"  p < p e a e > . . . O O . . . . . . . . . . . . . . . . . . . . . . . . . . . X o @ F i 9 w f 4   ",
"    >.e.r.,.M > X . . . . . . . . . . . . . . . . . . . . . . . . . . . . . . . X X ; <.8.9.q.q.L   ",
"  ] H / P / j : . . . . O . . . . . . . . . . . . . . . . . . . . . . . . . . . O X & ;._ Z D ^ t   ",
"    G / / W G * . . . . . . . . . . . . . . . . . . . . . . . . . . . . . . . . . + & 5._ E ` _ s   ",
"    ~ / G Y G * . . . O . . . . . . . . . . . . . . . . . . . . . . . . . . . . X X @ 2.` ! ! R w   ",
"  ] G Q G W Y : . . . . O . . . . . . . . . . . . . . . . . . . . . . . . . . . X X @ 5.X.V I F 8   ",
"    g P W G x - . . . O . . . . . . . . . . . . . O . . . . . . . . . . . . . . . X & =.` D E c 0   ",
"  p < 5 5 j 5 : . . . . O . . . . . . . . . . . . . O . O . . O . . O . . . . . o X + Z i 8 w 6 4   ",
"    =.0.7.7.G - . . . O O . . . . X X O . . O O O O O O O O + O + O O + + + + O X o , ,.4.4.4.7.B   ",
"    a x Y Y C - . . . . . . . O X X O O + $ $ $ $ % % % % % $ $ % % $ % % % % $ # & o ;.E d N D 1   ",
"  / h b A A C - . . O O O O . O O + + $ $ % % * - - - * - - * - - - - - - - = = * : # =.K M G B 3   ",
"  W p l x x j 2 . O O O O O + $ # % * = - - 2 2 2 2 2 2 2 2 2 2 2 2 2 2 2 2 3 3 4 : : $.G A C x :   ",
"  G p g a x j : O . $ + + # * * = : : > 3 4 5 7 7 5 7 e 7 9 e 7 e 7 7 7 7 7 7 5 q 5 < $.V p l g :   ",
"  B 5 p r y a - O O % $ * = = : > 3 5 5 e e r r y r y t p t y p y r y y p r p p q p 8 ' b 5 r t *   ",
"  r < q e e y - $ $ - - - 2 5 5 7 e t a d a l z l z l l l l j l j l l z j x l l h h q B p 7 p 7 %   ",
"  : 4 7 r e y 2 % * 2 2 5 7 9 e y j l z b M b B b M b b b b b b b M M M M M B B b b p 8 3 8 9 9 :   "
};
