/* XPM */
static char *Untitled_2_resized[] = {
/* columns rows colors chars-per-pixel */
"50 50 217 2 ",
"   c None",
".  c #170501",
"X  c #1A0601",
"o  c #17050A",
"O  c #3A1607",
"+  c #37170B",
"@  c #381709",
"#  c #34190C",
"$  c #38190A",
"%  c #291511",
"&  c #261411",
"*  c #2A140F",
"=  c #382928",
"-  c #3D332B",
";  c #2C3136",
":  c #323537",
">  c #343836",
",  c #3B3835",
"<  c #3A373A",
"1  c #36393E",
"2  c #3C3B3C",
"3  c #383537",
"4  c #2C2F32",
"5  c #402819",
"6  c #5B2F17",
"7  c #5C3113",
"8  c #5C3018",
"9  c #61361B",
"0  c #452C2A",
"q  c #45372C",
"w  c #443A2D",
"e  c #4A3B2E",
"r  c #47362B",
"t  c #433B34",
"y  c #4D3D35",
"u  c #413D3A",
"i  c #4B3B37",
"p  c #56392F",
"a  c #58412F",
"s  c #4B4135",
"d  c #4C423B",
"f  c #56453B",
"g  c #69482F",
"h  c #6C442C",
"j  c #7C4B24",
"k  c #754A2D",
"l  c #794728",
"z  c #684733",
"x  c #6B4A34",
"c  c #624C3E",
"v  c #684737",
"b  c #6B533D",
"n  c #7D4D32",
"m  c #313B43",
"M  c #3C3D42",
"N  c #3F3F49",
"B  c #3E4245",
"V  c #3E4449",
"C  c #3A4451",
"Z  c #434345",
"A  c #4B4345",
"S  c #42444A",
"D  c #49474A",
"F  c #5B4A43",
"G  c #514745",
"H  c #484C55",
"J  c #524F52",
"K  c #595551",
"L  c #644E43",
"P  c #684E45",
"I  c #675144",
"U  c #6A5348",
"Y  c #645959",
"T  c #795743",
"R  c #79675B",
"E  c #7A6967",
"W  c #746D65",
"Q  c #8B4B1C",
"!  c #8D4C17",
"~  c #914C1D",
"^  c #844D24",
"/  c #824E28",
"(  c #944821",
")  c #98582D",
"_  c #8B5536",
"`  c #995E34",
"'  c #8F603C",
"]  c #95613E",
"[  c #AC693C",
"{  c #B76B38",
"}  c #B66A35",
"|  c #CE712F",
" . c #DB742E",
".. c #D5752F",
"X. c #C76D35",
"o. c #CD7235",
"O. c #CC7539",
"+. c #CD7B3D",
"@. c #C3743A",
"#. c #D27535",
"$. c #DC7533",
"%. c #D47A36",
"&. c #DC7935",
"*. c #D57739",
"=. c #D47B3B",
"-. c #DB7D3C",
";. c #D87638",
":. c #E77C2C",
">. c #E27C39",
",. c #835E4F",
"<. c #8C6447",
"1. c #9A6A46",
"2. c #9D7152",
"3. c #866356",
"4. c #A36C46",
"5. c #AA7249",
"6. c #B67544",
"7. c #A06E53",
"8. c #A57759",
"9. c #826F6D",
"0. c #987A66",
"q. c #847570",
"w. c #8D7E78",
"e. c #937A74",
"r. c #C67A43",
"t. c #D37E41",
"y. c #DE803B",
"u. c #ED812E",
"i. c #EB8436",
"p. c #E5833B",
"a. c #EC863A",
"s. c #EB8B3E",
"d. c #E98434",
"f. c #F08434",
"g. c #F08839",
"h. c #94837C",
"j. c #99867C",
"k. c #A8887B",
"l. c #AC957C",
"z. c #AF8D74",
"x. c #C8814F",
"c. c #E48441",
"v. c #EB8A43",
"b. c #E38947",
"n. c #CD9575",
"m. c #CC9779",
"M. c #CD997D",
"N. c #C49077",
"B. c #D09A7B",
"V. c #D29776",
"C. c #C88D6B",
"Z. c #938585",
"A. c #A88E83",
"S. c #A79489",
"D. c #B49588",
"F. c #AE9B91",
"G. c #A79A93",
"H. c #B79C93",
"J. c #BBA599",
"K. c #B8B0A7",
"L. c #C29A83",
"P. c #CB9C83",
"I. c #C39E9A",
"U. c #CBA286",
"Y. c #D3A689",
"T. c #C7A69C",
"R. c #D2AE96",
"E. c #C1ACA5",
"W. c #C7ACA9",
"Q. c #CCADA8",
"!. c #CDB0A4",
"~. c #CAB5AA",
"^. c #C6B6AC",
"/. c #D2B9AD",
"(. c #D8B9A9",
"). c #CDBBB3",
"_. c #C8B7B0",
"`. c #D3BDB4",
"'. c #DCBDB2",
"]. c #D4BAB9",
"[. c #E3BDA4",
"{. c #E1BFB3",
"}. c #DDC1AF",
"|. c #DBC3B5",
" X c #D6C4BB",
".X c #DBC4B9",
"XX c #DCC8BC",
"oX c #DED0BF",
"OX c #E6C4AD",
"+X c #E0C3B3",
"@X c #E1C4B9",
"#X c #E3CABD",
"$X c #EACCBB",
"%X c #EDD1BF",
"&X c #DCCAC2",
"*X c #D9C6C0",
"=X c #E2CCC3",
"-X c #EBCEC3",
";X c #E6CDC8",
":X c #E6D5C6",
">X c #E9D1C4",
",X c #E5D5C9",
"<X c #ECD4CB",
"1X c #E6D9CB",
"2X c #EADACC",
"3X c #E8D8C7",
"4X c #F1D6CD",
"5X c #F1D8CE",
"6X c #F4DAC6",
"7X c #EBD6D0",
"8X c #EDDAD3",
"9X c #E9DEDD",
"0X c #F2DCD3",
"qX c #F3DED8",
"wX c #EEE0D4",
"eX c #F2E0D3",
"rX c #F2E1DA",
/* pixels */
"                                            =X                                                      ",
"                                          >XeX<X                                                    ",
"                                      `.:X8X2XeX8X].                                                ",
"                                    Q.7XwX=X|.=XqX8X!.                                              ",
"                                I _ T.wXXX|.|.'.XX:Xz._                                             ",
"                                y ~ U.#X.X!.k.Q. X|.8.j G                                           ",
"                            I.K q ( l.+XT.U % L J.XX8.j , q.).                                      ",
"                           XZ.M y ~ D.H.y X . . i D.7.j 2 Z K._.                                    ",
"                        E.~.J S G ~ 3.0 X X . X o = n ^ Z : W _.E.                                  ",
"                        `.q.Z V y Q $ . X X X X . X 6 ^ Z M : G.&X~.                                ",
"                      >X_.G S V d Q # . X X X X . X 6 / S S M K #X1X                                ",
"                    &X6XW 2 B V d Q # . X X X X . X 6 ^ A S M , Z.rX&X                              ",
"                  /.rXR.d Z Z B s Q # . X X X o o X 7 ^ S S S M P |.qX'.                            ",
"                  =X0X0.d Z S Z s Q # . X X X X o X 7 ^ A N S M u z.0X,X                            ",
"                ~.:X[.U B B S V s Q # . X X X o o X 7 ^ Z S S S 2 ,.OX7XW.                          ",
"                >XrXn.t 1 d S V y Q # . X X X X o X 6 ^ A S Z M m a Y.8X&X                          ",
"              ).eX%Xx.k - ; : B e ! # . X X X X o X 6 j 2 m : ; 0 k C.%XwX/.                        ",
"              &XrX(.x.y.[ k p 4 5 ! # . X X X X X X 6 Q 4 = 8 k } y.x.OXrX.X                        ",
"              ;XqXR.O.u.d. .X.f - Q O . X X X X o X 8 ^ ; h #.-.d.p.t.[.rX2X                        ",
"            ).5X<XU.O.d.b.%. .I t Q O . X X X X X X 8 ^ u l  .x.p.i.o.Y.,X8X).                      ",
"            ).0X-XP.+.d.c.$.=.c r ! @ . X . X X . X 6 ^ < h $.-.s.p.@.U.:XwX X                      ",
"            XXeX#XM.#.a.v.>.;.L e ! @ . X X X X . X 6 ^ M x  .>.v.i.o.Y..XwX=X                      ",
"            >XeXXXB.#.a.v.$.;.L q Q # . X X X X o X 6 ^ < z  .>.v.d.| Y.|.8X;X                      ",
"            >X8X|.m.#.a.v.&.*.L q Q @ X X . X X X X 6 ^ 2 z $.c.v.d.o.U. X1X;X                      ",
"            4X2X|.m.%.a.v.>.*.I q Q @ . X X X X X X 6 ^ u v :.>.v.i.o.P.|.1X3X                      ",
"            #X,XXXB.*.a.v.-.=.c q Q O X X X X X . X 6 ^ , v >.>.s.p.o.M.|.1X<X                      ",
"            .X:X>XV.*.a.v.{ { U e Q O X X X X X X X 6 ^ u x } @.v.d.O.P.|.3X=X                      ",
"            0X2X.XN.{ %.@.) ` F r ^ O X X X X X o . 6 / 1 p _ ,.t.#.} L.#X1XXX                      ",
"            5X3X.XN.{ +.6.1.4.F r Q @ . X X X X . X 6 ^ t f [ 1.6.%.} L.|.3X<X                      ",
"            5X3X.XC.@.=.@.1._ F i ( O . X X X X . . 6 ^ 2 f ) ` @.#.} L..X1X<X                      ",
"            0X3X.Xn.=.v.b.r.{ F q Q O . X X X X . X 6 / 1 z { 6.v.s.O.P. X:X<X                      ",
"            4X<X.Xn.*.g.c.>.*.L q Q + . X X X X . X 6 ^ u x $.>.s.a.O.M.|.2X=X                      ",
"            5X7X.Xn.#.a.v.$.;.L q Q @ . X . X X X X 8 ^ < x $.-.s.a.*.M.|.:X<X                      ",
"            @X<X.Xm.#.g.v.$.;.L e Q @ . X X X X . X 8 ^ 2 x $.%.s.a.o.P.|.:X0X                      ",
"            '.,X|.n.o.g.v.$.;.L q Q @ . X X X X X . 6 ^ 1 g ;.%.s.a.#.M.|.:X0X                      ",
"            &X7X|.V.o.>.b.:.;.L , ! O . X . X X . X 6 / < l #.$.v.i.| P..X,X0X                      ",
"            7X1X XM.o.d.c.#.O.P w ! O . X X X X . X 8 / M k O.>.a.p.r.L.{.<X<X                      ",
"            7X,X|.m.| u.c.r.5.U s Q # . X X X X X X 8 / A v 6.t.a.d.O.P.#X:XXX                      ",
"            ;X2X-Xn.@.r.1.I f D a Q # X X X X X o X 8 / D D F T 4.=.#.B.*X1X7X                      ",
"            7X1X.Xm.1.c V m V C s Q # X X X X X . X 6 / A S H S V U 5.B.'.1X<X                      ",
"            8X,X.XA.d d S V S S s Q # X X X X X X X 9 ^ D S D H S 2 G D.@X2X=X                      ",
"            8X,X|.j.2 D S Z S B y ! # X X X X X o X 7 ^ D V S D S B , l.|.1X<X                      ",
"            7X,X@Xh.M S Z d V Z y Q @ . X X X X o o 6 ^ Z N S Z Z V B A.|.1X5X                      ",
"            .X,X#Xh.2 V S S S B y Q # . X . X o o X 6 ^ D Z S S Z S B A.|.3X0X                      ",
"            8X2X@Xh.M V S Z Z B s Q # . X X X X o X 8 / A Z B Z Z Z u S..X3X0X                      ",
"            2X<X|.h.< S V S V V y Q # . . . X X X X 8 / A M Z Z V B 2 S.|.3X8X                      ",
"            <X3X@Xj.- M N V V B e ! 5 % % % & % % * 9 / D S N N B 2 , S.+X<X8X                      ",
"          ^.`.`./.J.q.Y A i u > q Q 0.F.F.F.F.D.F.F.<.j M 1 2 u G Y h.K./.`.`.~.                    ",
"          .X.X X X.X*X).H.k.e.E R 5.J.&X.X.X.X@X*X*Xz.2.E 9.e.A.J./..X X X|.'. X.X                  ",
"        <X<X<X-X-X5X5X<X-X(.T.I.(.$X>X-X<X<X<X5X<X<X-X-X!.I.T.{.%X<X4X<X>X<X<X<X<X                  "
};
