/* XPM */
static char *__resized[] = {
/* columns rows colors chars-per-pixel */
"50 50 215 2 ",
"   c None",
".  c #020102",
"X  c #0A0302",
"o  c #0C0905",
"O  c #0C0C0A",
"+  c #080807",
"@  c #120502",
"#  c #140B04",
"$  c #1A0C04",
"%  c #130D0A",
"&  c #1A0E09",
"*  c #150705",
"=  c #0E130E",
"-  c #1C1105",
";  c #14120D",
":  c #1C140C",
">  c #151006",
",  c #120D12",
"<  c #131412",
"1  c #1B1512",
"2  c #161A13",
"3  c #1C1A15",
"4  c #1D1C1B",
"5  c #161519",
"6  c #220F04",
"7  c #241306",
"8  c #23140B",
"9  c #29170B",
"0  c #261A0D",
"q  c #2C1A0D",
"w  c #271906",
"e  c #331D0D",
"r  c #391F0D",
"t  c #211712",
"y  c #241C14",
"u  c #2B1C13",
"i  c #251D19",
"p  c #2A1E19",
"a  c #321E12",
"s  c #1E201B",
"d  c #2E200E",
"f  c #35210E",
"g  c #3C240E",
"h  c #272117",
"j  c #2C2215",
"k  c #23231D",
"l  c #2A241B",
"z  c #2C2B1D",
"x  c #342213",
"c  c #3B2513",
"v  c #332419",
"b  c #3A271B",
"n  c #332B1F",
"m  c #3C2B1C",
"M  c #3D2913",
"N  c #3C321B",
"B  c #252621",
"V  c #2B2622",
"C  c #2B2C24",
"Z  c #2A2B26",
"A  c #302421",
"S  c #322D24",
"D  c #3C2E22",
"F  c #322E29",
"G  c #2E3028",
"H  c #333126",
"J  c #34342C",
"K  c #3B352D",
"L  c #35382B",
"P  c #393B2E",
"I  c #3F3220",
"U  c #363632",
"Y  c #3A3531",
"T  c #373830",
"R  c #3A3B32",
"E  c #3D3F38",
"W  c #41260E",
"Q  c #452C16",
"!  c #4A2E14",
"~  c #422C1B",
"^  c #492F19",
"/  c #412610",
"(  c #46301D",
")  c #4D321A",
"_  c #493319",
"`  c #533A1C",
"'  c #55381B",
"]  c #412F20",
"[  c #433323",
"{  c #4B3523",
"}  c #4B3925",
"|  c #44352B",
" . c #433A2D",
".. c #4A3B2B",
"X. c #533C24",
"o. c #593E22",
"O. c #513B24",
"+. c #423D34",
"@. c #4D3F33",
"#. c #413E39",
"$. c #3D412E",
"%. c #3E4035",
"&. c #3F4139",
"*. c #4E412E",
"=. c #584229",
"-. c #434136",
";. c #494136",
":. c #45443A",
">. c #4A453B",
",. c #464A3D",
"<. c #4A4A3E",
"1. c #534B3D",
"2. c #564531",
"3. c #5E5038",
"4. c #624426",
"5. c #6A4E33",
"6. c #615137",
"7. c #474641",
"8. c #494641",
"9. c #4C4B42",
"0. c #4C4F48",
"q. c #524D45",
"w. c #574C48",
"e. c #4F5147",
"r. c #545346",
"t. c #5B5145",
"y. c #55544B",
"u. c #5A554B",
"i. c #5C5A4D",
"p. c #5D5C52",
"a. c #595755",
"s. c #65594B",
"d. c #615E52",
"f. c #625D59",
"g. c #665953",
"h. c #5E6058",
"j. c #5F6153",
"k. c #636254",
"l. c #6C6355",
"z. c #65645B",
"x. c #6A665B",
"c. c #66695A",
"v. c #6C6A5D",
"b. c #6A6957",
"n. c #726B5C",
"m. c #73715F",
"M. c #6D6D62",
"N. c #6F6C69",
"B. c #686560",
"V. c #726E61",
"C. c #736E6A",
"Z. c #6E7063",
"A. c #747364",
"S. c #797465",
"D. c #797866",
"F. c #74746A",
"G. c #79766A",
"H. c #7C7A6D",
"J. c #757869",
"K. c #7E7D72",
"L. c #777871",
"P. c #817D6F",
"I. c #827E72",
"U. c #7D806E",
"Y. c #81806E",
"T. c #848274",
"R. c #8A8475",
"E. c #848479",
"W. c #89867C",
"Q. c #8B897D",
"!. c #878B79",
"~. c #918975",
"^. c #8D8D83",
"/. c #928E81",
"(. c #958F89",
"). c #8F9283",
"_. c #949385",
"`. c #96948A",
"'. c #9A968D",
"]. c #97988B",
"[. c #9B9A8D",
"{. c #989386",
"}. c #9D9E97",
"|. c #A39A8B",
" X c #A09384",
".X c #A19E92",
"XX c #9FA196",
"oX c #A3A294",
"OX c #ABA493",
"+X c #A5A39A",
"@X c #ABA69C",
"#X c #ABAB9D",
"$X c #AEA897",
"%X c #B0AA9B",
"&X c #ADADA3",
"*X c #AFB2A2",
"=X c #AFB0AA",
"-X c #B4B2A5",
";X c #B6B6AC",
":X c #BBB7AB",
">X c #BEBEAE",
",X c #B7B8AC",
"<X c #BCBCB2",
"1X c #B3AEA3",
"2X c #C3BEAE",
"3X c #C1BEB6",
"4X c #BEC0B6",
"5X c #C0C0AF",
"6X c #C2C2BA",
"7X c #CBC9BD",
"8X c #C5C4B8",
"9X c #C8C8C1",
"0X c #D0CEC3",
"qX c #D2D1C6",
"wX c #EAEAE3",
/* pixels */
"                                          XXH.j.k.r.k.~.oX!.                                        ",
"                                      T F.#X#X4X4XoX$X~.oX].[.e.                                    ",
"                                0.7.u.XX].].j.b.m.k.b.i.J.[.[.U.y.3X                                ",
"                            r.K.7X*X:.U.A.D.D.A.m.U.k.b.k.b.Z.k.0X&XW.&X                            ",
"                        a.W.>X2XZ.[.x.c.T.D.H.v.A.H.v.A.A.r.>.E.:Xz.C.F.L.                          ",
"                      R +XqXA.H.A.v.2X-.>.b.H.I.P.A.b.k.k.>.P 7XH.G.A.A.H.x.8.                      ",
"                  z.&XG.p.T.S.n.k.D.Q.`.H d.d.:.:.e.9.y.k.J v.-Xp.M.F.K.J.>.&.#X                    ",
"                d.3X9XR.<.d.I.H.v.D.d.:XH E F o o O o l K S x.1XR.M.A.D.p.d.$X].oX                  ",
"              d.-XH.P.n.t.;.I.n.v.d.C B > O + . . X . O O ; h u.k.M.G.l.-.!.Q.v.^.`.                ",
"            8.`.E.A.n.n.I.+.B.q.9.h 1 X . . . + + . . . . X . ; 3 >.i.M.R.oXv.F.F.J.E.              ",
"          7.6X1Xk.H.H.S.v.V.q.; 1 % + X . . . + . . . . . + O o o ; 1 q.^.W.G.v.L.Z.N.XX            ",
"          B k.k.V.n.n.m.n.;.: > % X X ; . . . . . . + . . + X o X o ; < >.c.v.n.v.Z.p.XXU           ",
"          u.J <.V.d.v.S.;.: > ; 3 o O . . . . . . . . . . o . . + X o : : 1.l.n.v.<.<.j.B.          ",
"          #XT.-.;.q.g.>.% # : : 1 % . . . . . . . . . . . . . . + O % : 8 q @.g.s.>.oX#X'.          ",
"        L.c.oX7XH.V >.1 ; : h s ; o . X . . . . . . . . . . . . + 1 t p 8 $ 6 ..1.1X_.K.y.9X        ",
"        j.k.k.A.:Xy.% % % t 0 : > o . X . . . . . . . . . . . . X X V i p t y u  .I.H.G.F.<X        ",
"        Z.J.Z.!.x.l % 3 H j - # > o X . . . . . . . . . . . . + X # @ : A w.| t A B.I.G.M.^.wX      ",
"      !.T.c.c.U.r.o 3 1 1 : # > : > X . . . . . . . . . . . . . X $ i % t 8.w.i t | V.G.d.B.&X      ",
"      U.M.j.c.Z.:.< 1 p : # > 0 0 # X . . . . . . . . . . . . X X & 1 u & , | w.h @.C.g.i.u.^.      ",
"      &.z $.e.j.i o y : @ 8 x z 0 ; X . . . . . . . . . . . . X @ & t p 8 @ , | y.n >.;.J p.M.W.    ",
"      *XU.j.L U < X & $ - f M M 8 ; . X . . . . . . . . . . . X @ @ 7 u 9 $ * 8 | 1.A u./.7X<X'.    ",
"    c.U.*X*XU.s ; X @ $ f M M j 7 & X X . . . . . . . . . . . X @ @ 8 v v x q @ i @.n +XOXH.c.K.8.6X",
"    j.Z.Z.Z.p.< X X 7 m ` ~ g f 7 & . . . . . . . . . . . . . . @ # 8 b ~ { ^ 6 X j & '.I.z.V.!.%.;X",
"    j.U.!.M.B.4 X # b =.` ! g e w 8 X X . . . . . . . . . . . X X # 8 a Q X.o.^ t X & -XK.x.T.F.9.6X",
"    c.J.c.J.N.4 * A ..o.' ! r e q 8 X . . . . . . . . . . . . . X & 7 e Q ' 4.5.[ 1 > 1XD.y.J.Z.,.5X",
"    r.y.j.Z.0.3 & b @.o.' W q q 8 $ X . . . . . . . . . . . . . X % & 9 { ^ 4.5.} m $ $XQ.k.L.j.C <X",
"  J.,.J.p.>.r.i 9 ] X.! ' ~ q u 7 @ X . . . . . . . . . . . . . + @ t 7 c X.' 4.=.2.d ~.m.j.z.%.J 4X",
"  9.&.9.0.p.K j a ~ { { ! Q e 7 : @ . . . . . . . . . . . . . + + @ % q r Q ^ o.=.6.d 1.1.8.0.p.J =X",
"  5X#X&X9X+Xi.i p [ { ~ / r 6 $ : # X . . . . . . . . . . . . . + o # y b b g 2.=.3.N OX2X<X>X<Xh.4X",
"  _.u.d.K.i.i.y p D | a | e * $ 7 & X . . . . . . . . . . . . . + o > # 8 [ m 2.} *.- |.J.p.x.L.7.4X",
"  _.v.V.A.M.i.h p 1 1.w.p 6 6 8 8 $ X . . . . . . . . . . . . . + > ; O % y ;.6.N *.x $XF.M.L.U.0.9X",
"  /.p.A.p.c.k.: 1 | g.A @ 6 e a 8 $ X . . . . . . . . . . . . . . o y : 8 # l k.*.-.w OXU.F.z.N.E =X",
"  _.>.k.p.^.z.1 S +.p * * u r a u & X + . . . . . . . . . . . . + o : l i : @ u s.l.- $XT.r.x.c.&.<X",
"  H.q.A.u.K.9.V V i * * p a a a 9 & X X . . . . . . . + . . . . X o 3 h p u $ $ j n.n T.J.<.x.e.T 4X",
"  :.H R U 7.F i X & & 9 D b r a 9 & X X . . . . . . . + . . . . X o : d v m 9 6 @ y n >.:.&.T 7.C =X",
"  #X:X6X<X&Xa.i X $ 9 a ] r a a 9 $ X X . . . . . . + . . . . . X X - j c ( r 9 : % : +X7X<X8X<Xa.<X",
"  _.c.z.N.L.7.i $ 6 7 m ] r r a q & X X . . + . . + . . . . . . X @ 8 a r ^ / r - > % +XJ.y.B.J.T &X",
"  ).j.N.U.N.f.1 @ u ] ^ Q r r q 8 & X . . + . . . . . . . . . + X @ 8 q e ^ ! ^ d : # 1XR.H.K.U.&.*X",
"  _.U.F.B.N.f.i @ q { Q ^ / e 6 & X . . + + . . . . . . . . . . . X 6 9 r ^ ) ' c 0 @ OXT.M.L.J.J   ",
"  H.x.F.h.N.f.4 $ a ^ / / / 9 6 * . . + + + . . . . . . . . . . . X # 8 r ~ W ) X.N $ %XR.u.M.z.Z   ",
"  {.9.B.C.p.w.t t a ~ c ! M 7 X . . . . . . . . . . . . . . . . . . # $ q c g ^ ~ } [ OXR.i.n.r.J   ",
"  <.l F F :.S y u a ~ c ( a * X + + . . . . + . . X . . . . . . . X X # 7 e c } } ..( t.-.H P J k   ",
"  '.@X<X3X&Xl.h y x ] c b & X X o + . + + + + + o o o + + o O + o X X X - 0 x { } } *.{.$X:X-X:Xy.  ",
"  (.q.8.B.x.u.y 8 j | b 6 @ X X = + + = + + O O ; , < ; ; = = = < % ; o > 0 q N N [ x |.S.u.r.k.k   ",
"  I.q.w.d.d.y.h - S | v * * , , < = = = = = < 2 3 3 3 3 3 4 2 s 2 3 4 3 y i y z N *.u |.n.u.d.u.k   ",
"  C.:.9.9.y.1.i : j i & * , , , < < 5 = 2 s s s k k B B B k B s B B B B V j l j j ..v Q.l.d.p.0.4   ",
"  B.J 8.R 9.E h y y @ X 1 5 5 5 4 s s z C G J J J J J J J J J L U L L J L L J L l n S {.d.:.8.8.4   ",
"  p.F 8.U 7.R 4 3 ; O & < 5 4 s B Z G G G L L R R T T U R P R P R R R R R R P $.-.h l I.q.S U #.k   ",
"  E k U F U U B < = < k 4 k B C J T R &.:.:.,.,.,.,.,.,.,.,.,.,.,.,.,.,.,.,.,.9.7.%.G y.R G U Z 1   ",
"  % % 5 5 4 4 5 . . + O o O ; 2 s k C G L L P R P P P %.P P P L G L L L L L L L L $.z 2 O = 2 4 =   "
};
