/* XPM */
static char *Untitled_3_resized[] = {
/* columns rows colors chars-per-pixel */
"60 60 218 2 ",
"   c None",
".  c #150504",
"X  c #190600",
"o  c #120803",
"O  c #1B0905",
"+  c #120708",
"@  c #170C0A",
"#  c #1B0C09",
"$  c #220C08",
"%  c #2D130B",
"&  c #2B130B",
"*  c #351106",
"=  c #34130A",
"-  c #391209",
";  c #341C18",
":  c #2E1413",
">  c #37211D",
",  c #2C2A2D",
"<  c #352B24",
"1  c #332D2D",
"2  c #362723",
"3  c #38302E",
"4  c #292B32",
"5  c #2F373E",
"6  c #333234",
"7  c #3B3432",
"8  c #34353B",
"9  c #3A3639",
"0  c #3C3A3D",
"q  c #38393A",
"w  c #441E11",
"e  c #4D2313",
"r  c #432B25",
"t  c #493328",
"y  c #413D3E",
"u  c #473B36",
"i  c #543D34",
"p  c #593523",
"a  c #673E2B",
"s  c #7D451C",
"d  c #46413D",
"f  c #4A413E",
"g  c #5A453C",
"h  c #7E4A22",
"j  c #794C2A",
"k  c #674A36",
"l  c #76533D",
"z  c #393742",
"x  c #353942",
"c  c #3D3D42",
"v  c #363640",
"b  c #2E3640",
"n  c #423E41",
"m  c #493F41",
"M  c #3E4146",
"N  c #3E4349",
"B  c #434346",
"V  c #4B4543",
"C  c #424449",
"Z  c #474A4E",
"A  c #49494C",
"S  c #4D4844",
"D  c #564A46",
"F  c #444A51",
"G  c #575556",
"H  c #674D48",
"J  c #675248",
"K  c #665A54",
"L  c #765C54",
"P  c #745747",
"I  c #786157",
"U  c #7A6C67",
"Y  c #82461C",
"T  c #85491D",
"R  c #894C1E",
"E  c #854516",
"W  c #864D21",
"Q  c #894D20",
"!  c #81482C",
"~  c #924F2A",
"^  c #83532C",
"/  c #8E552A",
"(  c #825026",
")  c #93542B",
"_  c #98542D",
"`  c #965628",
"'  c #8A5636",
"]  c #985932",
"[  c #A75B2A",
"{  c #B55E23",
"}  c #A45E33",
"|  c #B65E32",
" . c #9E632E",
".. c #9E6233",
"X. c #9E643D",
"o. c #A4622F",
"O. c #BA662D",
"+. c #B3612C",
"@. c #AA6C3D",
"#. c #AA6534",
"$. c #B66633",
"%. c #B96234",
"&. c #BA6C36",
"*. c #B96C39",
"=. c #BB703A",
"-. c #BF7037",
";. c #C36828",
":. c #DB742D",
">. c #D7742F",
",. c #C46C39",
"<. c #C47234",
"1. c #CB743B",
"2. c #C8763A",
"3. c #D57532",
"4. c #DA7632",
"5. c #DD7A34",
"6. c #DB773A",
"7. c #D3793C",
"8. c #DB793B",
"9. c #D47736",
"0. c #CB702D",
"q. c #E3792D",
"w. c #E17C36",
"e. c #E37E39",
"r. c #E1763A",
"t. c #8A624B",
"y. c #996A4A",
"u. c #8F6A59",
"i. c #A66C42",
"p. c #AE7144",
"a. c #AA734B",
"s. c #BC7746",
"d. c #BA7D52",
"f. c #826B64",
"g. c #8A6F66",
"h. c #8D7B73",
"j. c #8C7570",
"k. c #917E76",
"l. c #9C7F78",
"z. c #8A7066",
"x. c #C87945",
"c. c #D87D43",
"v. c #C4764A",
"b. c #D7843C",
"n. c #E5843C",
"m. c #EA853C",
"M. c #E58A3D",
"N. c #EB893E",
"B. c #E98437",
"V. c #958279",
"C. c #99857D",
"Z. c #9C816E",
"A. c #A8826A",
"S. c #A3877D",
"D. c #CE8041",
"F. c #D28244",
"G. c #D98446",
"H. c #C78155",
"J. c #E58B43",
"K. c #EB8A41",
"L. c #E38646",
"P. c #F18843",
"I. c #D18B64",
"U. c #CEA07D",
"Y. c #9D8981",
"T. c #A58C85",
"R. c #B5958A",
"E. c #B99889",
"W. c #BC9D91",
"Q. c #B19F99",
"!. c #AC968C",
"~. c #BBA399",
"^. c #B6A5A0",
"/. c #DBA483",
"(. c #C4A196",
"). c #C6A89B",
"_. c #E6B898",
"`. c #C6ADA3",
"'. c #CBB5AC",
"]. c #CDB9AE",
"[. c #C6B3AA",
"{. c #D2B5AA",
"}. c #D9BAAB",
"|. c #CDBBB1",
" X c #C9B7B0",
".X c #D1BCB3",
"XX c #DBBEB2",
"oX c #DCBEB9",
"OX c #D7BBB8",
"+X c #D4AFA6",
"@X c #D7C2B5",
"#X c #DAC2B4",
"$X c #D4C5BC",
"%X c #DBC4BB",
"&X c #D7C8BF",
"*X c #DCCABC",
"=X c #DEC0AF",
"-X c #E4C4AB",
";X c #E2CABD",
":X c #E3C7B8",
">X c #DCCBC2",
",X c #DEC6C0",
"<X c #D9D0CA",
"1X c #E4CDC4",
"2X c #E4CAC2",
"3X c #E5D1C5",
"4X c #E9D1C7",
"5X c #EBD3C9",
"6X c #ECDACE",
"7X c #E5D3C9",
"8X c #F1D9C8",
"9X c #EEDCD1",
"0X c #F3DDD4",
"qX c #F2DBD5",
"wX c #F5E2D5",
"eX c #F3E1D8",
"rX c #FAE2D2",
"tX c #EEE2D4",
/* pixels */
"                                                          [. X                                                          ",
"                                                        $X6X9X$X                                                        ",
"                                                      .X6XwX0X0X%X                                                      ",
"                                                    >X0XeX3X3X0XwX*X[.                                                  ",
"                                                [.&XeX0X2XOX#X;X0XwX3X^.                                                ",
"        ' Q                                   @X7XeX6X%XoXoXoXoX%X6X9X*X|.                                L P '         ",
"        ` E 9                               `.5XwX7X#XoXXXR.R.XXoX&X0XwX9X.X                              u ! _         ",
"        / Y 6 M                           ,X,X7X5X%XoX{.g.; : f.{.2X2X5X0XqX%X                          B 9 j `         ",
"        / s q q                         *XwXtX6X;X=X{.f.& . X O L +XoXoX1XwXwX%X                      A 8 q h /         ",
"        / Y A C 9                     >XwX6X*X#X:X).L $ . . . X $ i W.XX#X;X0X0X'.                  G 0 0 A R W         ",
"        / T B Z V 0                 ).9X9X*XOXXXR.g $ X X . . X X O t W.=X@X*X0X2X].                n q B C Q W         ",
"        ) T y M C M               ].;X7X*X#X}.T.r X X X X X X X X O O t T.}.*X4XqX6X|.            C q q B B R Q         ",
"        ) T y C C C 9           @X0X0X1X:XXXl.; . X X X X X X . . O X . 2 S.XX#X;XeXqX|.        K q c M c C R W         ",
"        / Y B M C C n y       ].6X0X>X#XoXE.2 X X . X X X X X X X . . . X > S.XX#X3XwX5X].      M q C M B C R W         ",
"        / T d C B C C u H     >XrX3X#X#XR.i O X X X X X X X X X X X X . X X t (.}.:X6XeX*X    l 7 M N B C C R W         ",
"        ) T c C B C N n g A.}.wX9X#X=X).i X X . . X X X X X X X X X X O X X $ H ).XX%XqXtX@XZ.f 9 M C C B B R T         ",
"        ) Y n C B C N d t t._.wX<X@X}.I O X X X X X X X X X X X X X X X + X X $ g.}.@X>XrX-XL 7 B M M B B C T W         ",
"        / T 0 C B N M M c k U.8X&X@XR.; . X X X X X X X X X X X X X X X X X X . r (.OX&X4X/.g q C B C C B C Q W         ",
"        ) T n M d M q q 5 t A.-X-X{.H X X X X X X X X X X X X X X X X X X O . . # L |.>X-Xa.7 5 c c M B M V Q W         ",
"        ` s 8 8 5 q 6 < t ^ d./.XXY.: . X X X X X X X X X X X X X X X X X X X O X ; !.:XU.&.j r < 6 5 5 8 0 T T         ",
"        ` s 4 , < p a ' x.L.3.I.{.D X X X X X X X X X X X X X X X X X X X X X X X O K }.I.3.b.*.^ p t > , 6 T /         ",
"        o.s 4 7 #.2.1.M.m.m.3.v.E.2 X X X X X X X X X X X X X X X X X X X X X . X X 2 E.v.3.n.m.G.2.&.( , 6 T p.        ",
"        o.s x S -.8.>.b.n.m.3.v.u.# O X X X X X X X X X X X X X X X X X X X X X X . + u.v.4.m.B.n.4.5.` z B R p.        ",
"        o.s 8 V =.8.>.M.J.n.4.2.a + O . X X X X X X X X . X X X X X X X X X X X X X . a x.:.N.M.n.4.8.~ q 0 R p.        ",
"        o.s 8 d ,.r.4.m.P.P.4.,.e + O X o X X X X X X X X X X X X X X X X X X X X X o w &.:.B.N.B.4.6.~ 6 0 W p.        ",
"        o.s x S =.8.4.N.K.m.5.%.- X X X X X X X X X X X X X X X X X X . X X X X X X + - $.4.N.N.N.5.8.~ 0 n R @.        ",
"        o.h 8 f =.8.4.M.K.n.5.| = o X X X X X X X X X X X X X X X X X X X X X X X X + - $.4.M.N.N.e.5.~ 8 0 R @.        ",
"        o.s 8 f =.8.4.M.K.N.5.| * o X X X X X X X X . X X X X X X X X X X X X X X . O - $.4.N.N.N.e.8.) 6 0 T @.        ",
"        o.s x S =.8.4.M.K.N.w.| = o X X X X X X X X X X X X X X X X X X X X X X X O . - $.w.N.N.N.w.6._ 0 B R @.        ",
"        } s 8 d =.8.5.M.K.K.5.| = o X X o X X X X X X X X X X X X X X X X X X X X X . - $.4.N.N.N.w.6.` 6 z T @.        ",
"        o.s 8 f ,.8.w.K.N.N.w.$.* X X X X X X X X X X X X X X X X X X X X X X X X . . - $.4.m.P.m.w.8._ q 0 R @.        ",
"         .s z S =.7.e.J.J.J.b.$.* + X X X X X X X X X X X X X X X X X X X X X X X O + - #.5.J.K.K.e.8._ 0 0 T @.        ",
"         .Y 8 y @.&.1.7.x.D.<.} = . O X X X X X X X X X X X X X X X X X X X X X X X + = ] <.2.F.<.1.,.' 6 9 R @.        ",
"         .s z V @.&.1.x.x.b.<.} * . X X X X X X X X X X X X X X X X X X X X X X X X + = } 2.2.F.2.1.$./ 0 z Q @.        ",
"        o.Y z S #.%.1.1.2.7.;.[ * . X X X X X X X X X X X X X X X X X X X X X X X X . * ` 0.2.b.<.<.| ~ 0 c Q @.        ",
"        ] s 8 u =.7.w.K.J.M.w.$.* + X X X X X X X X . X X X X X X X X X X o X X $ X + - $.B.J.G.n.3.7.) 6 9 T @.        ",
"         .Y z S &.8.5.M.K.K.n.$.* o X X X X X X X X X X X X X X X X X X X X X X X . + - $.B.N.N.m.4.8.) 0 0 R @.        ",
"        ..Y z f =.8.4.M.N.M.w.| = o X X X X X X X X X X X X X X X X X X X X X X X O . - $.n.K.M.m.4.c._ q c Q @.        ",
"         .Y 8 y =.8.4.M.N.N.5.| = o X X X X X X X X X X X X X X X X X X o X X X X X . - $.e.K.K.m.4.8._ 9 0 R @.        ",
"         .s z S =.8.>.n.K.N.4.| = X X X X X X X X X X X . X X X X X X X X X X X X . . - $.e.K.N.m.4.c.) 0 c R @.        ",
"        ] s 8 V =.6.:.n.N.n.4.| * o X X X X X X X X X X X X . X X X X X X X X X X O + - %.w.K.K.m.3.8._ 8 z R @.        ",
"        o.Y 8 m s.7.:.m.N.n.3.$.% + X X X X X X X X X X X X X X X X X X X X X X X $ . = $.5.K.N.B.:.c._ 6 0 Q @.        ",
"        ..Y 9 S ,.4.:.e.L.n.>.{ = + X X X X X X X X X X X X X X X X X X X X X X X X X % O.q.L.N.B.:.w._ z c T @.        ",
"        ..Y 8 m &.3.3.n.n.n.:.{ * + X X X X X X X X X X X X X X X X X X X X X X . . X - ;.q.m.B.m.3.8.` 9 0 R @.        ",
"        ] T B G t.y.a.D.n.n.4.+.* + X X X X X X . X X X X X X X X X X X X X X X . O X = ;.w.B.n.F.a.y.P A A Q ..        ",
"        / Y 0 C B M g l y.s.2.{ * + X X X X X X X X X X X X X X X X X X X X X X . . X = O.7.d.y.l S A C C C R Q         ",
"        / Y 0 C Z N N M M k X.X.= . X X X X X X X X X X X X X X . X X X X X X X . O $ * i.X.D 0 M N Z A B B Q Q         ",
"        ) T n N N M C C C M d g % X X X X X X X X X X X X X X X X X X X X X X X X X X & D d B A A C N B C C Q Q         ",
"        ) T 0 C C C C C C F B < $ X . X X X X X X X X X X X X X X X X X X X X X X X X # 3 B Z C C M C C B C R Q         ",
"        ) T 0 C n C C C C C Z 1 O . O X X X X X X X X X X X . X X X X X X X X X X . . # 6 C M B C B N B B C R Q         ",
"        / Y B B B C C C C C C 1 @ . X X X X X X X X X X X X X X X X X X X X . X . . . # 3 M C C C B C C B B Q Q         ",
"        ) T y C B C B B C B y 1 @ . X X X X X X X X X X X X X X X X X X X X X X X X . # 7 C C C C C C B B A Q R         ",
"        / Y B M m B B B B C c , @ X X X X X X X X X X X X X X X X X X X X X X X X X X # v C m V V B B B C C Q Q         ",
"        / Y d N C C N C C C C , + . X X X X X X X X X X X X X X X X X X X X X X X X . # 9 C C C N M N N N C Q Q         ",
"        / T n C B C C C c c 9 2 # X O O $ O O X O O O O O O O $ O O O O O O O $ $ . + @ 3 0 z B N N M C C A Q Q         ",
"        / s 0 0 9 9 9 0 z V K U h.h.h.k.T.C.h.k.k.h.h.k.l.k.k.C.j.k.V.Y.k.k.C.Y.k.k.h.h.U D m y 0 9 0 0 0 C ( W         ",
"        ' j M A J J I U C.~.^. X|..X].]..X].].].].].|..X].].].].]..X@X].].|.].].].|.].|.[.^.T.j.f.I J D d N ^ ^         ",
"              ^.W.W.).{.;X4X9X6X4X3X4X4X1X4X5X5X3X4X5X4X4X1X6X5X4X4X4X5X4X4X4X1X4X3X4X1X6X5X2X{.).W.W.W.                ",
"              ).(.+X;X4X>X3X4X5X3X1X4X4X4X4X4X4X1X4X4X4X4X4X5X3X1X1X1X4X1X4X4X4X4X4X4X4X5X4X3X3X;X{.).(.).              ",
"              &XOX2X2X>X>X>X,X,X$X$X$X&X$X&X&X&X$X&X&X&X&X$X&X$X|.|.$X$X&X$X>X&X,X&X>X&X&X$X$X$X$X%XXX].].              "
};
