/* XPM */
static char *__resized[] = {
/* columns rows colors chars-per-pixel */
"50 50 232 2 ",
"   c None",
".  c #060302",
"X  c #0C0502",
"o  c #0C0906",
"O  c #0D0C09",
"+  c #060902",
"@  c #140B05",
"#  c #1B0C05",
"$  c #130E0A",
"%  c #1A0E0A",
"&  c #150704",
"*  c #1B1206",
"=  c #14110D",
"-  c #1C130C",
";  c #1B190F",
":  c #161410",
">  c #1B1512",
",  c #1C1A14",
"<  c #1A1B18",
"1  c #250D05",
"2  c #22150C",
"3  c #2A150C",
"4  c #24190D",
"5  c #2B1B0D",
"6  c #281605",
"7  c #351A0D",
"8  c #3C1C0F",
"9  c #231611",
"0  c #2A1611",
"q  c #231B15",
"w  c #2B1C14",
"e  c #231D1A",
"r  c #2A1E19",
"t  c #331E13",
"y  c #1E221E",
"u  c #35220E",
"i  c #3C250E",
"p  c #2B2213",
"a  c #24211C",
"s  c #2B231B",
"d  c #292619",
"f  c #332314",
"g  c #392513",
"h  c #3B2A15",
"j  c #34251A",
"k  c #332A1B",
"l  c #3C2C1B",
"z  c #3A2619",
"x  c #312D15",
"c  c #261F21",
"v  c #2B2621",
"b  c #2C2A24",
"n  c #2D2C29",
"m  c #272522",
"M  c #342C24",
"N  c #342E2C",
"B  c #3B2C23",
"V  c #3C3224",
"C  c #33332C",
"Z  c #39332C",
"A  c #3C3A2E",
"S  c #333123",
"D  c #3B3532",
"F  c #3C3B33",
"G  c #3C3B3A",
"H  c #393834",
"J  c #2F322E",
"K  c #442B0D",
"L  c #482B0D",
"P  c #422514",
"I  c #432C15",
"U  c #4A2E15",
"Y  c #442D1C",
"T  c #4B2E1A",
"R  c #412518",
"E  c #453114",
"W  c #4C3215",
"Q  c #45321C",
"!  c #4C331B",
"~  c #4E3A1C",
"^  c #52351B",
"/  c #543A1D",
"(  c #5B3D1D",
")  c #533716",
"_  c #48300E",
"`  c #462C21",
"'  c #453323",
"]  c #4B3422",
"[  c #4D3A23",
"{  c #48372A",
"}  c #533624",
"|  c #533B23",
" . c #5A3D23",
".. c #51362A",
"X. c #533C2A",
"o. c #5A3D29",
"O. c #433C3C",
"+. c #433A35",
"@. c #5C3E30",
"#. c #603E25",
"$. c #5B401D",
"%. c #62421E",
"&. c #5D4224",
"*. c #56422B",
"=. c #5D442B",
"-. c #5D482D",
";. c #554027",
":. c #44423C",
">. c #4D463D",
",. c #4C4A3D",
"<. c #464539",
"1. c #5B4530",
"2. c #5D4933",
"3. c #524A39",
"4. c #634424",
"5. c #684626",
"6. c #654925",
"7. c #6D4C26",
"8. c #62462A",
"9. c #694629",
"0. c #644A2B",
"q. c #6B4C2C",
"w. c #724C2D",
"e. c #6C522F",
"r. c #71512D",
"t. c #634B33",
"y. c #6C4D33",
"u. c #674C37",
"i. c #6D5234",
"p. c #6C533A",
"a. c #685438",
"s. c #745433",
"d. c #7A5836",
"f. c #73543A",
"g. c #75593A",
"h. c #7A5A3C",
"j. c #785636",
"k. c #704E36",
"l. c #454442",
"z. c #4E4B42",
"x. c #4E4C4B",
"c. c #484745",
"v. c #524D44",
"b. c #544D4C",
"n. c #4F5048",
"m. c #4E5042",
"M. c #545245",
"N. c #53534B",
"B. c #59544B",
"V. c #5D594C",
"C. c #595A47",
"Z. c #5B5B53",
"A. c #595654",
"S. c #675846",
"D. c #715740",
"F. c #7A5D42",
"G. c #745B42",
"H. c #615D54",
"J. c #635E5A",
"K. c #5F6053",
"L. c #7E6448",
"P. c #636255",
"I. c #65645A",
"U. c #6A665C",
"Y. c #6C6B5C",
"T. c #696558",
"R. c #736A5D",
"E. c #6E715E",
"W. c #71715D",
"Q. c #60604B",
"!. c #6A6662",
"~. c #6D6C62",
"^. c #696966",
"/. c #716E62",
"(. c #776D66",
"). c #6F7169",
"_. c #747265",
"`. c #75746A",
"'. c #7A766B",
"]. c #77796B",
"[. c #7B7A6C",
"{. c #787764",
"}. c #7C7B73",
"|. c #797974",
" X c #81613E",
".X c #805D40",
"XX c #836245",
"oX c #83684C",
"OX c #817C6D",
"+X c #827569",
"@X c #827D73",
"#X c #827D7A",
"$X c #7F8077",
"%X c #838276",
"&X c #85847B",
"*X c #8A867A",
"=X c #8B897D",
"-X c #88867B",
";X c #94897D",
":X c #8D8C83",
">X c #898683",
",X c #948D85",
"<X c #939286",
"1X c #94958A",
"2X c #9B938D",
"3X c #9A9A8D",
"4X c #9A9387",
"5X c #9C9591",
"6X c #9D9B93",
"7X c #A39C94",
"8X c #AA9B94",
"9X c #A49B96",
"0X c #A7958F",
"qX c #9EA193",
"wX c #A4A49A",
"eX c #ADA39C",
"rX c #ABAA9E",
"tX c #A2A194",
"yX c #B2A39C",
"uX c #AEAEA2",
"iX c #ABA8A4",
"pX c #B1ADA1",
"aX c #B4B4AB",
"sX c #BBBBAC",
"dX c #B1B1A2",
"fX c #BDBDB2",
"gX c #AEB0A5",
"hX c #BFC0B3",
"jX c #C7C5BA",
"kX c #D3D3C7",
"lX c #DADBD0",
"zX c #E5E5DF",
/* pixels */
"                                                                                                    ",
"                                                aX3X4XdX3X                                          ",
"                                          kXjX:X5X7X=X[.3XjXdXZ                                     ",
"                                      H.%X;X]._._.Y.P.P.P._.=XT.sXkX                                ",
"                                  fXaX7XF %X[.{./.*X'.(.U.U.v.*XsXW.qX                              ",
"                              lXaX6X'.-X}.H.].{.{.'.!.!.!.Z.v.sX$XW.W.$X1X                          ",
"                            F sX].Y._.[.7Xd V.W.R.Y.(.J.^.+.Z.2XQ.W.].[.n.M.                        ",
"                            N.P.&X[.U._.<X'.,.m.d a n N J.Z >XwX$XT.$X_.,.&XrX                      ",
"                        1X-X_.A ].'.H.(.M.,.q : O $ - & r 9 b.@X[._.].M.~.3X:X5X                    ",
"                      wXT.].T.C.H.(.H.V 2 ; X * d ; k 5 - 2 % Z 3.Y.Y.Z.6XT.`.:XwX                  ",
"                    aXY.@X/.%XR.>.V s $ % 9 e s k s { l h z l 2 p d Q.qX:X_.'.~.|.                  ",
"                    =XY._._.Y.U.+.= % s s B { V V l 2.[ ! | Q Q x ; p ,.Y.{.~.}.J.aX                ",
"                  d M.W.Y.T.Y.F @ 2 w ' g ;.| *.1.' g.&.&.q.$.-.$.K 6 p C.E.Y.Y.x.K.G               ",
"                gX=XA ,.C.{.A @ * f k 1.W 0.&.y.p...L.e.q.r.7.r.7.) E p S Q.K.,.Z.6XgX              ",
"                %X3XrXP.F c., ; 2 l ' a./ y.8.p.D...oXa.q.s.s.s.r.6.~ x ; x ,.^.aX&X|.zX            ",
"                Y.I.<XuX:., p p f ' ] D. .p.8.p.D.{ oXi.q.e.e.g.g.e.;.;.x 6 y |.|.|.$XkX            ",
"              =X~.E./.}.C = ; k h ;.&.h.o.j.y.p.D...L.i.i.q.i.g.d.s.8.2.Q f % H.@X|.).uX            ",
"              <X`.~.:Xx.= , 5 [ E $.%. Xo.j.y.f.f.X.h.6.s.q.s.g.d.s.9.y.X.l 4 d `.|.I.&XsX          ",
"              $XY.K._.N.: s l *.) 5.%.XX@.F.y.g.i.@.g.4.j.q.q.f.s.q.q.s.t.*.* V ~.I.K.^.hX          ",
"            ,.A <.C.B.N O B l t.4.5.( XX#.XXy.y.y.=.g.( q.q.k.y.r.6.4.g.-.;.2 = z.n.:.F :X          ",
"            hXrXn.F F ; @ ' ' a.&.6.6.h.6.g.&.-.G.-.G.&.0.8.F.k.k.8.o.p.-.1.p * v :.1XhXhX          ",
"            E.$XsX3Xd ; & B l { I I I I Q 2.X.X.S...D.] X.*.t.] R ` T ' V V * = C <XrX_._.].        ",
"            Y.$XI.].n n A.:X5XiXeX8XeXeXyXyX4X@XH.3.+XR.,X8XyX0X8X8X0XeX7X2X^.C , $X$XY.].C.        ",
"            K.]._.Y.n O c c.A.C M F D b.:.b Z a , N z.9 Z Z Z b.O.D O.N O.z.m : + <X].T.$XP.$X      ",
"            P.$X/.`.M o : A.>Xy > a b ~.V.: = = o b D O ; o Z #XO.e c : b.!.< O + <X$XK._.n.}.      ",
"            z.K.J.U.v o . O d = @ X X ; p % @ , $ s C q - & % r @ @ & O < : . . + 1X$X~.E.,.$X      ",
"            :.!.v.B.p - p k f u l V l l f h l l j f { l l h l g l Q Q f 0 f w 9 , }.K.K.<.J &X      ",
"            A.!.J.<.M u ! ;.~ -.&.$.&.6.) 6.W | ! f t.~ / / 4.$.6.$.6.&.T ] g 3 $ z.I.Z.Z.m.}.      ",
"            wXuXaX+Xl Q / j.9.h.6.$.7.d.%.s.%.s.t.| oXy.q.0.e.%.7.7.7.r.8.8.I u 2 <XsXwXgX=X:X      ",
"            V.Y.Y.R.x Y W i. .f.6.0.7.s.( j.5.k.2.X.L.8.0.q.e.q.r.5.%.e.=.0.h 5 # ;XR.H.~.K.>X      ",
"            (.].Y.T.k I I y.} f.y.w.q.h.#.d.o.u.t.X.D.#.8.y.s.8.j.9.&.e.X.*.g 5 * 4X%X{.`.Y.>X      ",
"            V.Y.V.OXk Q T i.} G.8.#.9.k. ..X4.u.t...f.o.9.k.f.9.q.6.q.a.X.2.h 5 @ <X*XY.Y.N.}.      ",
"            v.P.{.OXl g K y. .F.9.9.5.d.4.d.6.4.| @.XXL 4.5.f.9.w.w.4.w.@.u.` t % ,X|.Z.!.n.).      ",
"            Z M.H.M.x g ~ y.$.i.&.4.0.i.%.d.4.8. .} j.) 5.y.j.#.w.9.#.f...u.t w 9 J.A.x.c.l.        ",
"            H.U.R.>.f 5 6 g f Y Y ' Y I i ^ ! W ;.Y 1.] I ! ] 7 h Y z ` 0 z 9 > : J.^.).^.).        ",
"            iXpXrXR.<.@X2X2X5X3X5X5X2X0X4X+X+X(.S.{ R.(.(.'.4X0X9X0X5X7X5X9X#X^.n >X9X6XqX6X        ",
"            U.`.(.J.v F H x.A.l.G O.c.A.x.Z D n m J ^.n J N G x.l.l.l.H c.x.G n = 1X$X,._.E.        ",
"            U././.(.k : o Z.>X< : e M |.B.$ : : O y J : : O N #XG m e @ x.>Xe O + =X$X$X$X{.        ",
"            {.Y.U.U.M . X , y O : X X 9 r 2 & = O : v = $ - , v X X & - : e X o = <X$XT.Y.P.        ",
"            V._.T.R.s % % 9 2 2 0 0 0 0 1 0 0 9 q % t 0 2 0 1 & t 0 0 r * r 9 $ O 3X$XK.K.K.        ",
"            S v.>.>.r f 5 g g Y ! h I R 7 R Y ` ` 1 Y ` ` R P 8 T P I h 5 k w - @ Y.H.z.<.F         ",
"            {.[.@XH.M f I | E =._ / I W W | ! ....3 ..} } T  .T L } I ;.~ ' f 2 ; V.[.[.].&X        ",
"            =X:X*X'.M u i ~ W &.K W _ $.W ( I Q ] 3 o.U T U /  .U ) K ) ! ] f u - <X;X}.&X1X        ",
"            z.V.H.H.B t i ! ~ &.K ^ W  .! o.U U | 1  .T U ) / ^ W / K ) W Q h u % ;XY.M.N.          ",
"            <.v.B.B.Z 7 h ~ U &.K U W } P } T ] o.1 / } U ^ ^ ^ ) ) L ^ W I f 5 @ *XI.K.C.l.        ",
"            Z z.O.,.M 7 K ! T 8.U W ^  .8 ^ ] T X.1 } } P } I } ( U W } ! Q h 5 # *XV.N.n.l.        ",
"            A O.+.+.v 3 i I Y =.W I ^ X.8 T ] ` [ 1 T ..I ] g ` } T T | ' Q f 4 # [.z.H F           ",
"            N D A A M r j ' ' 1.! Q Q ..f ` ' { B # j ' ' ..z ` [ ] ] X.' Q f 4 * I.z.C J           ",
"              e v s , r                                                                             ",
"                                                                                                    "
};
