/* XPM */
static char *__removebg_preview_resized[] = {
/* columns rows colors chars-per-pixel */
"50 50 123 2 ",
"   c None",
".  c #BB750D",
"X  c #B77613",
"o  c #B97613",
"O  c #BD7B17",
"+  c #BB7A19",
"@  c #BF7F21",
"#  c #C47B0C",
"$  c #CB7F0F",
"%  c #C87F10",
"&  c #BE8124",
"*  c #BE8429",
"=  c #C6830B",
"-  c #C9830C",
";  c #CD8C0A",
":  c #D0900C",
">  c #DB9E0B",
",  c #DC8C15",
"<  c #D29617",
"1  c #E18F16",
"2  c #E39117",
"3  c #E69419",
"4  c #EC9A1B",
"5  c #E4AA0B",
"6  c #EDB50B",
"7  c #EFB90C",
"8  c #F0BB0C",
"9  c #EBA812",
"0  c #FAAC1E",
"q  c #E8B115",
"w  c #FCBA17",
"e  c #FAB11B",
"r  c #C28426",
"t  c #C3882F",
"y  c #C28932",
"u  c #C58F3B",
"i  c #CA9436",
"p  c #C6953E",
"a  c #C99539",
"s  c #DB9D3C",
"d  c #EF9E23",
"f  c #F4A020",
"g  c #FBA524",
"h  c #FAAA21",
"j  c #FAB229",
"k  c #FDCE07",
"l  c #F6C30B",
"z  c #F9C70D",
"x  c #FECF0B",
"c  c #FED00B",
"v  c #FDC511",
"b  c #FCCF10",
"n  c #FDD013",
"m  c #FCD01A",
"M  c #FCD324",
"N  c #FDD42A",
"B  c #FCD631",
"V  c #FCD834",
"C  c #FCD73A",
"Z  c #FBD83E",
"A  c #C99544",
"S  c #CD9B4B",
"D  c #CD9D50",
"F  c #CFA056",
"G  c #D0A155",
"H  c #EEB75F",
"J  c #D6AD66",
"K  c #D6AC6A",
"L  c #D9B263",
"P  c #D7B06E",
"I  c #D9B376",
"U  c #DAB578",
"Y  c #FBD944",
"T  c #FDDB49",
"R  c #FBDD54",
"E  c #F4D45D",
"W  c #FADE5E",
"Q  c #ECCF75",
"!  c #E9CC78",
"~  c #F7C879",
"^  c #EFD578",
"/  c #FAE26C",
"(  c #FAE170",
")  c #F7E17F",
"_  c #F9E37A",
"`  c #DEBD88",
"'  c #DFC08C",
"]  c #E1C28D",
"[  c #E5C98E",
"{  c #F8D38D",
"}  c #E3C89B",
"|  c #EED795",
" . c #EED895",
".. c #ECD699",
"X. c #FBE683",
"o. c #FBE78A",
"O. c #FCE88B",
"+. c #FAE893",
"@. c #FCEA9B",
"#. c #E8D5AF",
"$. c #EAD6B3",
"%. c #EEDCB3",
"&. c #EDDCBA",
"*. c #F1DDB7",
"=. c #F5E4A2",
"-. c #FBEDA4",
";. c #FCEEAE",
":. c #FBEFB4",
">. c #FCF0B5",
",. c #F4E8C2",
"<. c #F8EEC1",
"1. c #F1E5CD",
"2. c #FCF3C3",
"3. c #FBEED5",
"4. c #F5ECDB",
"5. c #FCF6D5",
"6. c #F9F2DC",
"7. c #F7F1E4",
"8. c #FCF5E6",
"9. c #FDF9E3",
"0. c #FEFBEB",
"q. c #FDFBF3",
"w. c #FFFEFD",
/* pixels */
"                                                                                                    ",
"                                                                                                    ",
"                                                                                                    ",
"                                                                                                    ",
"                                                                                                    ",
"                                                                                                    ",
"                                                                                                    ",
"                                                                                                    ",
"                                                                                                    ",
"                                                                                                    ",
"                                                                                                    ",
"                                                  * *                                               ",
"                                                p  ...A                                             ",
"                                              r ! V B Q *                                           ",
"                                              J W k k Z L                                           ",
"                                            r  .N k c n ^ y                                         ",
"                                            K o.x x x k W I                                         ",
"                                          & %.R k x c x N  .r                                       ",
"                                        o U +.n c x x x c R L o                                     ",
"                            . r y A F I [ X.M x k c c x k M =.} K S u * +                           ",
"                        + D } &.,.<.:.O.T n x x x x x x C >.q.w.w.q.7.1.$.` A X                     ",
"                        S 6.@.R C N m c k x c x x x x R 5.w.w.w.w.w.w.w.w.0.=.i                     ",
"                        F _ c c k k c x x x x x x n / 9.w.w.w.w.w.w.w.w.9.W m <                     ",
"                        O q c c k x x x x x x c m o.q.w.w.w.w.w.w.q.w.5.R c 6 =                     ",
"                          = 7 c c x c x x c k M -.q.w.w.w.w.w.w.w.w.2.Y k 7 -                       ",
"                            = 7 c x x x x k N :.w.w.w.w.w.w.w.w.w.>.B c 7 -                         ",
"                              - 7 x x x x Y 2.w.w.w.w.w.w.q.w.q.@.M c 7 =                           ",
"                                = 7 x k Y 5.w.w.w.w.w.w.w.w.q.X.m k 7 -                             ",
"                                  ; z R 5.w.w.w.w.w.w.w.w.9./ n c z ;                               ",
"                                  - E 9.w.w.w.w.w.w.w.w.5.R x k c l =                               ",
"                                  p 6.w.w.w.w.w.w.w.q.2.Y k x x c v -                               ",
"                                  K q.w.w.w.w.w.w.w.:.N k x c x x x :                               ",
"                                  ' w.w.w.w.w.w.q.@.M k c x x c k c >                               ",
"                                + #.w.w.w.w.w.q.{ j e w v k c x x c 5 o                             ",
"                                * 1.w.w.w.w.8.~ d , 3 f h w v x x b 9 .                             ",
"                                y 4.w.w.w.3.H , # . . % 1 f g 0 e h 4 #                             ",
"                                & &.w.q.*.s #           . - 3 f g g 3 #                             ",
"                                  A ] P r .                 o - , 2 -                               ",
"                                                                  o                                 ",
"                                                                                                    ",
"                                                                                                    ",
"                                                                                                    ",
"                                                                                                    ",
"                                                                                                    ",
"                                                                                                    ",
"                                                                                                    ",
"                                                                                                    ",
"                                                                                                    ",
"                                                                                                    ",
"                                                                                                    "
};
