/* XPM */
static char *Silver_1_resized[] = {
/* columns rows colors chars-per-pixel */
"36 36 93 2 ",
"   c None",
".  c #405D63",
"X  c #45646C",
"o  c #48676F",
"O  c #48686F",
"+  c #486770",
"@  c #4A6B74",
"#  c #4D6F78",
"$  c #4E717A",
"%  c #51747D",
"&  c #537781",
"*  c #557B85",
"=  c #577E88",
"-  c #587F89",
";  c #5A828D",
":  c #5D8692",
">  c #5F8894",
",  c #62848E",
"<  c #618793",
"1  c #618A96",
"2  c #638D9A",
"3  c #6B8F9C",
"4  c #65919E",
"5  c #6D919E",
"6  c #6793A1",
"7  c #6995A4",
"8  c #6B98A7",
"9  c #6E9CAB",
"0  c #7296A4",
"q  c #7298A6",
"w  c #739EAD",
"e  c #789FAE",
"r  c #70A0AF",
"t  c #72A2B2",
"y  c #7CA3B4",
"u  c #75A7B8",
"i  c #7DA7B8",
"p  c #77A9BA",
"a  c #7AABBC",
"s  c #7BAFC0",
"d  c #7DB2C4",
"f  c #80A7B8",
"g  c #83ACBD",
"h  c #92B2BD",
"j  c #99B3BB",
"k  c #85AEC0",
"l  c #83B2C4",
"z  c #89B3C4",
"x  c #85B6C9",
"c  c #8AB6C9",
"v  c #87B9CC",
"b  c #8BBACC",
"n  c #94BBC7",
"m  c #9ABAC5",
"M  c #93BCCC",
"N  c #8DBDD1",
"B  c #91BED2",
"V  c #9DC0CE",
"C  c #93C1D5",
"Z  c #99C1D4",
"A  c #96C4D9",
"S  c #9AC6DB",
"D  c #9DC8DB",
"F  c #A0C2D2",
"G  c #A4CADD",
"H  c #ACCBDA",
"J  c #B7CAD0",
"K  c #B6CED9",
"L  c #B7D5DF",
"P  c #9FCAE0",
"I  c #A3CDE3",
"U  c #A9D0E7",
"Y  c #A7D0E8",
"T  c #AED4EC",
"R  c #BBD7E3",
"E  c #BFDAE6",
"W  c #B2D6EB",
"Q  c #BDDBEA",
"!  c #B5D9F2",
"~  c #C4D3DB",
"^  c #C5DCE5",
"/  c #C2DEED",
"(  c #C2DEF1",
")  c #D4E7EF",
"_  c #CAE4F5",
"`  c #D1E5F3",
"'  c #D4E9F7",
"]  c #DAEBF5",
"[  c #D4EAF9",
"{  c #E0EFF9",
"}  c #EDF4F6",
"|  c #E4F1FA",
" . c #F2F8FA",
/* pixels */
"                        k x c b x p r 8 6 6 4 4                         ",
"                    c N C S S A C b l d a t t u p u                     ",
"                c b G / ] _ W U Y I A N x d d u p d a u                 ",
"            y b A / { ) G z f i y g a l v x d a r a C C C               ",
"          y z S W ^ M e 5 7 q q q q ; % 2 p d a t r F ' [ ` ~           ",
"        e l P I B e 5 e n H U T T Y B 9 * % 4 u t w y G _ _ _           ",
"        f B I b 0 0 c / ] [ ! G B b b d a 9 $ * 4 9 t t S Y I P         ",
"      6 k I b 7 e G ] | _ W C y 0 q l d d d u & $ 2 8 w 8 d d d a       ",
"    2 8 c B q w G ` _ T A H h l ; 1 d d d d d u % % 2 9 4 9 p p p 8     ",
"    7 9 l w q A ! ! Y B C ^ C p * > d d d d d a 7 @ ; 2 6 1 7 8 8 6     ",
"  1 7 t 9 & c T ! I C S R  .^ n , 1 d d d d d p r ; O > 2 1 4 8 8 8 2   ",
"  1 4 t * : I ! I B B M K } L z ; 1 d d d d d t r 8 @ % 2 1 1 7 8 8 6   ",
"  1 1 6 @ g ! I v N c g y J b u * < d d d d p t t 9 = o ; 1 ; 7 8 8 7   ",
"; < : * & I T v d d f i * j v u * 1 d d d d t t t t 4 X * : ; 2 8 8 8 1 ",
"> : = @ 2 W S d d t i : ; h b u = > d d d t t r t t 9 @ @ ; ; 2 8 8 8 4 ",
"> ; * o y T v d s w 9 7 t m b u = > d a t r t t r t r % o * ; : 8 8 8 6 ",
": ; % X y S d d d d d d p V C u * > u t t r t t r t r = X $ ; ; : : : - ",
": ; % X r d u a d d d d a g d u * ; r r r t r t t r 9 = X $ ; = & * * & ",
"< ; # X 5 i r t p p p p u g d u * ; r t r t t r t 9 6 * X $ ; = * * * & ",
": ; # X < r t t t t t t r g C t * ; r t t r t t 9 6 6 $ X @ ; * & * * * ",
"; ; # X ; 7 t r t t r t 9 g C t * ; r t t t r 8 6 6 2 $ X $ ; * * * * & ",
"; % $ X % 2 9 t t r r t r g x t * : r r r 9 8 6 6 6 : + O $ ; * * * * $ ",
"; ; $ O @ 1 4 r r t t t 9 g C r * ; t w 8 6 6 6 6 4 ; X @ $ ; & * * * % ",
"  ; % O X ; 1 4 r t r t r g d r * ; 8 7 4 6 6 6 4 : $ X @ & ; & * * *   ",
"  ; * @ o @ ; : 4 9 r r 9 g v r * * 6 6 6 6 6 2 : ; O O # ; & & & & $   ",
"  * = $ @ X = ; ; : 4 4 4 i v 9 * ; 6 6 6 6 > : ; $ X @ $ ; $ @ @ @     ",
"    ; % @ X @ ; ; ; ; : > f l 8 * ; 4 2 > > ; : * X + # * * @ @ @ @     ",
"    = = # @ X @ ; : ; ; ; r l 7 * & ; : ; ; ; ; + O @ $ ; $ + @ @ @     ",
"      ; & @ @ X @ ; ; ; ; 9 u > $ * ; ; ; ; = + X @ # = & @ @ @ @       ",
"        ; $ @ @ X O ; ; ; : : ; $ * ; : ; & X X @ @ & * @ @ @ @         ",
"        * = $ @ @ X X @ % ; ; ; ; ; ; % + X + @ @ $ = # @ @ @           ",
"          = = $ @ @ O X X X O @ O O X X o @ @ # $ = $ @ @ @ +           ",
"              = & # @ # @ @ o o O @ @ @ @ @ @ & = @ @ @ @               ",
"                = = % # @ @ @ @ @ @ @ @ # % = $ o X X o                 ",
"                    = = * & $ % $ % % * = % o . . .                     ",
"                        = = = = = = & # X . . .                         "
};
