/* XPM */
static char *___1__resized[] = {
/* columns rows colors chars-per-pixel */
"50 50 113 2 ",
"   c None",
".  c #030102",
"X  c #0B0203",
"o  c #140405",
"O  c #1C0405",
"+  c #170709",
"@  c #180808",
"#  c #230404",
"$  c #2C0304",
"%  c #330304",
"&  c #3C0304",
"*  c #3B0608",
"=  c #350C0E",
"-  c #2A1414",
";  c #3A1314",
":  c #3B1817",
">  c #341B1B",
",  c #3C1B1C",
"<  c #1F1F20",
"1  c #292A2A",
"2  c #352021",
"3  c #3F2424",
"4  c #302828",
"5  c #3E2A2B",
"6  c #373838",
"7  c #3B3B3B",
"8  c #440404",
"9  c #4B0304",
"0  c #4F0708",
"q  c #420A0C",
"w  c #540405",
"e  c #5C0304",
"r  c #421516",
"t  c #640305",
"y  c #6C0405",
"u  c #730102",
"i  c #7D0404",
"p  c #730508",
"a  c #412B2C",
"s  c #412F30",
"d  c #463C3C",
"f  c #4B3C3B",
"g  c #434242",
"h  c #4D4040",
"j  c #4C4C4C",
"k  c #544B4C",
"l  c #555555",
"z  c #5B5757",
"x  c #5D5959",
"c  c #625E5E",
"v  c #646464",
"b  c #6E6D6D",
"n  c #716F70",
"m  c #747475",
"M  c #7D7D7D",
"N  c #840203",
"B  c #8B0304",
"V  c #940204",
"C  c #9C0304",
"Z  c #A40203",
"A  c #AC0203",
"S  c #B30304",
"D  c #BB0204",
"F  c #C40203",
"G  c #CD0002",
"H  c #D00102",
"J  c #F52906",
"K  c #F33B06",
"L  c #F54A06",
"P  c #F54717",
"I  c #F8643B",
"U  c #F98D07",
"Y  c #FAAC07",
"T  c #FAA60B",
"R  c #FCAF0B",
"E  c #FCBE07",
"W  c #FCB50D",
"Q  c #FCBA09",
"!  c #FDAE15",
"~  c #FCC206",
"^  c #FDC903",
"/  c #FDC209",
"(  c #7F8183",
")  c #848484",
"_  c #8A8B8B",
"`  c #949494",
"'  c #9B9B9B",
"]  c #9FA1A1",
"[  c #A5A6A6",
"{  c #A7AAAA",
"}  c #AEAFAF",
"|  c #B3B3B3",
" . c #B7BABA",
".. c #BDBEBE",
"X. c #BEC0BE",
"o. c #CCC1BD",
"O. c #BEBFC0",
"+. c #C2C2C2",
"@. c #CACCCC",
"#. c #CFD0D0",
"$. c #D4D4D4",
"%. c #DADCDC",
"&. c #FECEC4",
"*. c #DFE1E0",
"=. c #E4E4E4",
"-. c #EBEBEB",
";. c #FEEFEC",
":. c #EFF0EE",
">. c #FEF1EE",
",. c #F3F3F3",
"<. c #FEF3F1",
"1. c #F8F8F7",
"2. c #FEFEFE",
/* pixels */
"                                                                                                    ",
"                                                                                                    ",
"                                                                                                    ",
"                                                                                                    ",
"                                                                                                    ",
"                            Q / !                                                                   ",
"                      T T T ~ E                                                                     ",
"                      P J K Y ^ Q !                                                                 ",
"                    &.I L U ~ ^ R                                                                   ",
"                  <.    W W Q /                                                                     ",
"                >.                                                                                  ",
"              ;.>.                                                                                  ",
"              >.                            O                                                       ",
"              <.                        o O w O                                                     ",
"              o.- 9 w #         # % O % & 8 B $ 9 9 % O                                             ",
"              2 y F S $ +   # w B V # 8 V V u % S F S B 9 #                                         ",
"              8 D A 9 . X 9 C G H V X X % 9 $ p G G G H F V & O                                     ",
"              % 8 O . X t D G G G F e O # y p e A G G G G H D w O                                   ",
"              o . . X y F G G G G G F A A H Z 9 A G G G G G G F t @                                 ",
"                o . e F H G G G G G G G G H G F D S S D G G G G F t O                               ",
"                  * S G G G G G G G G G F Z u 9 : # > r t Z G G G D 8                               ",
"                o e D G G G G G G G F N q a n { @.v j  .M , N G G G V #                             ",
"                X # 8 D G G G G H Z w d [ =.2.2.2.-.v n ,.O.5 N G G G w                             ",
"              X o p % B H G G H C = < O.2.2.2.2.2.2.=.l M 2. ., S G G B O                           ",
"            O $ % i 8 N G G G V , ' ) l -.2.2.2.2.2.2.=.j _ 1.z N H H S $                           ",
"            + 9 B i $ C H G Z : [ 2.,.b b 1.2.2.2.2.2.2.$.g [ n u G H G 9                           ",
"              o $ # w V D D 9 ) 2.2.2.=.j ) 2.2.2.2.2.2.2.O.7 4 B G G G e                           ",
"            O . X w Z $ B N k ,.2.2.2.2.$.g ' 2.2.2.2.2.2.2.) $ S G G G y +                         ",
"              8 C F F C S & ) 2.2.2.2.2.2.+.6 } 1.,.,.,.=.[ 5 B G G G G y . o                       ",
"              w G G G H Z - 6 +.2.2.2.2.2.2.{ 1 j f f f a q B G G G G G e . o +                     ",
"              & D G G H N c ' g %.2.2.2.2.2.M * N Z C C Z F G G G G G F 9 . % %                     ",
"              $ A G G G u m 2.M x -.2.2.2...; A H H H G G G G G G G G D %   * 9                     ",
"              O i G G H u m 2.,.x m 1.2.1.v u H G G G G G G G G G G G B #   8 w                     ",
"                9 F G H N z 2.2.=.j ` 2.@., S G G G G G G G G F G G G w   @ t *                     ",
"                # C G H Z 3 %.2.2.@.g | ) e G G G G G G G G G G G G C #   O p w #                   ",
"                  8 D G G e n 1.2.2.| 6 > C G G G G G G G G G G G F w       # w * o                 ",
"                  + p F H S q m %.1.%.7 e G G G F G F G G G G G G N O           O                   ",
"                    O N G G S w a k a t D G G G G G G G G G G H C $                                 ",
"                      # i F G F Z V Z F G G G G G G G G G G G C %                                   ",
"                        # t D H G G G G G G G G G G G G G F B $                                     ",
"                  # $     @ * N D G G G G G G G G G G F Z w #                                       ",
"                  # p $ $ # X X % t C S F D F F D A B 9 o . X o o o o + O                           ",
"                o X 9 w 8 * o . . . X # $ % & 8 % O . . . . . . . . . . . . . X X o                 ",
"                + o X o X X X X X X X . . X . . . . X X X X X X X X X X X X X o + @                 ",
"                                                                                                    ",
"                                                                                                    ",
"                                                                                                    ",
"                                                                                                    ",
"                                                                                                    ",
"                                                                                                    "
};
