/* XPM */
static char *___1__resized[] = {
/* columns rows colors chars-per-pixel */
"50 50 104 2 ",
"   c None",
".  c #030102",
"X  c #0D0304",
"o  c #130404",
"O  c #1C0505",
"+  c #150708",
"@  c #1B0608",
"#  c #1B090A",
"$  c #240404",
"%  c #2B0404",
"&  c #280E0F",
"*  c #340304",
"=  c #3B0304",
"-  c #350D0C",
";  c #3E0B0C",
":  c #291514",
">  c #391415",
",  c #3B1819",
"<  c #222121",
"1  c #352324",
"2  c #392222",
"3  c #3E2728",
"4  c #392929",
"5  c #303131",
"6  c #3E3334",
"7  c #3C3D3D",
"8  c #440405",
"9  c #4B0404",
"0  c #450D0E",
"q  c #4A0A0B",
"w  c #520405",
"e  c #5B0304",
"r  c #411314",
"t  c #620304",
"y  c #6B0405",
"u  c #620608",
"i  c #740203",
"p  c #7D0304",
"a  c #442426",
"s  c #413D3D",
"d  c #4B3D3E",
"f  c #454545",
"g  c #4C4243",
"h  c #4B4B4B",
"j  c #534B4C",
"k  c #535454",
"l  c #5C5656",
"z  c #5C5D5D",
"x  c #666465",
"c  c #6D6C6D",
"v  c #767777",
"b  c #777879",
"n  c #7B7C7C",
"m  c #830203",
"M  c #8C0203",
"N  c #930304",
"B  c #9A0204",
"V  c #A40304",
"C  c #AC0204",
"Z  c #B30203",
"A  c #BC0303",
"S  c #C40203",
"D  c #CC0102",
"F  c #D10102",
"G  c #F52405",
"H  c #F35209",
"J  c #F86E07",
"K  c #F56C09",
"L  c #F6740A",
"P  c #F68E0B",
"I  c #F9A40A",
"U  c #FBAE0D",
"Y  c #FCBE07",
"T  c #FBB50B",
"R  c #FDBD0D",
"E  c #FAA010",
"W  c #FEBA12",
"Q  c #FCC207",
"!  c #868787",
"~  c #87898A",
"^  c #8A8A8A",
"/  c #949495",
"(  c #969897",
")  c #97999A",
"_  c #9C9D9C",
"`  c #9FA2A2",
"'  c #A5A5A5",
"]  c #ACACAC",
"[  c #B1A8A6",
"{  c #AEB0AF",
"}  c #B3B4B4",
"|  c #B9B9BA",
" . c #C3C4C4",
".. c #CACBCB",
"X. c #D3D4D4",
"o. c #FECDCF",
"O. c #DFE1E1",
"+. c #E4E4E4",
"@. c #ECECEC",
"#. c #FEEEEC",
"$. c #FEF0EE",
"%. c #F3F4F4",
"&. c #FEF2F1",
"*. c #FFFFFF",
/* pixels */
"                                                                                                    ",
"                                                                                                    ",
"                                                                                                    ",
"                                                                                                    ",
"                                                                                                    ",
"                                                                                                    ",
"                                                                                                    ",
"                                                                                                    ",
"          W     R                                                                                   ",
"        U I I Q R                                                                                   ",
"        L G H T                                                                                     ",
"      T K G J Q T                                                                                   ",
"        E P U Y R                                                                                   ",
"      o.  R                     @ O                                                                 ",
"      #.                        $ e o % = = * % @                                                   ",
"    $.                      o o * M = p S A Z V m e %                                               ",
"    &.                  o . $ i p N * N F D D D F D V t $                                           ",
"    &.      O         % = . X 9 t = = m A D D D D D D D N *                                         ",
"    $.    = m 9 @   % N A m i e 9 y N * M D F D S S D F D C 8                                       ",
"      [ - V F i . O B D D D D D D D S V S S N u 0 r w m A D C =       @ $                           ",
"      : p D N O X p D D D D D D D D D D C e # 5 `  ._ j q C F B $ o . $ q 8 @                       ",
"      * A V $ . e S D D D D D D D D S M > n } z f ( @.%.b e S D y . . o $ e = + @                   ",
"      * y $ . O V D D D D D D D D D i 4 ] *.*.%.| k f ' X.a Z F Z * +     $ u 8 w O                 ",
"        o . o w S D D D D D D D D i 6 ..*.*.*.*.*.%.] h k 1 V D D i #     O = 8 %                   ",
"            o m D D D D D D D D M 4 ..*.*.*.*.*.*.*.*.@.~ & C D D V %                               ",
"            % V D D D D D D D Z * 7 ..*.*.*.*.*.*.*.*.*._ q S D D A =                               ",
"            @ 8 9 V D D D D D t x ! 7 ~ @.*.*.*.*.*.*.} 2 N D F D D w                               ",
"            . % 9 8 S D D D V 2 X.*...z h } *.*.@.| c , m D D D D D e                               ",
"            . % m * V D D D t v *.*.*.%.' f c ( d 0 i C D D D D D D e                               ",
"          $ % w M = M D D A r ..*.*.*.*.*.+.z $ M A D D D D D D D D e                               ",
"          @ = i t * p t A B d @.*.*.*.*.*.%.j m D D D D D D D D D S 9                               ",
"            X X . w N 8 A m 7 +.*.*.*.*.*.X., Z D D D D D D D D D Z =                               ",
"            o . o N D S D i < f ] %.*.*.*.| q S D D D D D D D D D N $                               ",
"              O p D D D D i c } f x X.*.*.` w D D D D D D D D D D t                                 ",
"              $ B F D D F m l *.+.n 7 / %.! t D D D D D D D D D C %                                 ",
"                8 A D D D V 3 O.*.*. .k k f m D D D D D D D D S t O                                 ",
"                @ i D D D S w ! *.*.*.%.! # V D D D D D D D D M $                                   ",
"                  @ m D D F V > ) @.*.%.n w S D D D D D D D B *                                     ",
"                    $ m D D D B ; g x g q Z D D D D D D D N *                                       ",
"                      $ u A D D A M p N S D D D D D D A i %                                         ",
"                $ %     # = p Z D F F F D D D F D A N = @                                           ",
"                * y $ % % X X $ e m V C Z Z C N y * X . X X X o o o o o #                           ",
"          o X . o u w 8 8 O . . . . o O $ O o . . . . . . . . . . . . . . . . X X o                 ",
"                + @ O O X o o X o X o X X X o o X o o o o X o o o + + # + o O                       ",
"                                                                                                    ",
"                                                                                                    ",
"                                                                                                    ",
"                                                                                                    ",
"                                                                                                    ",
"                                                                                                    "
};
