/* XPM */
static char *___1__resized[] = {
/* columns rows colors chars-per-pixel */
"50 50 118 2 ",
"   c None",
".  c #020102",
"X  c #0C0304",
"o  c #130404",
"O  c #1C0505",
"+  c #1E0608",
"@  c #161616",
"#  c #1A1313",
"$  c #230404",
"%  c #2C0304",
"&  c #250A0B",
"*  c #340304",
"=  c #3C0304",
"-  c #32100F",
";  c #331010",
":  c #3D1617",
">  c #3E1B1C",
",  c #2C2B2B",
"<  c #3B2224",
"1  c #382826",
"2  c #3C2C2E",
"3  c #343332",
"4  c #363838",
"5  c #3F3E3F",
"6  c #450304",
"7  c #4B0405",
"8  c #4B0608",
"9  c #420C0D",
"0  c #4B0B0C",
"q  c #540405",
"w  c #5B0404",
"e  c #5F0608",
"r  c #401112",
"t  c #620304",
"y  c #6A0203",
"u  c #690508",
"i  c #720303",
"p  c #7C0203",
"a  c #401F20",
"s  c #432D2E",
"d  c #463433",
"f  c #443B3B",
"g  c #4B3B3B",
"h  c #444444",
"j  c #4D4142",
"k  c #4D4B4B",
"l  c #544D4E",
"z  c #4E4F50",
"x  c #554F50",
"c  c #4F5151",
"v  c #565656",
"b  c #5C5A5B",
"n  c #675B5C",
"m  c #645F60",
"M  c #636363",
"N  c #686666",
"B  c #6A6B6B",
"V  c #727272",
"C  c #7B7B7B",
"Z  c #830203",
"A  c #8B0304",
"S  c #910304",
"D  c #9C0203",
"F  c #A30304",
"G  c #AA0303",
"H  c #B50304",
"J  c #BC0203",
"K  c #C40203",
"L  c #CD0102",
"P  c #D00102",
"I  c #F41804",
"U  c #F6640B",
"Y  c #F66D09",
"T  c #F67E0A",
"R  c #F7870A",
"E  c #FA820A",
"W  c #F78B09",
"Q  c #F7910A",
"!  c #F9970A",
"~  c #F9A807",
"^  c #FBA60B",
"/  c #FDBF05",
"(  c #FDBC0D",
")  c #FAAA11",
"_  c #FDB313",
"`  c #FEB71C",
"'  c #FEB91C",
"]  c #FEB122",
"[  c #FCC206",
"{  c #FEC00E",
"}  c #838483",
"|  c #8B8C8C",
" . c #8E9192",
".. c #939596",
"X. c #9A9B9B",
"o. c #A3A4A3",
"O. c #A9AAAB",
"+. c #ADB0AF",
"@. c #ABAEB0",
"#. c #AEB1B1",
"$. c #B3B5B4",
"%. c #BCBDBD",
"&. c #BEC0C1",
"*. c #C4C4C4",
"=. c #C7C9CA",
"-. c #CBCBCB",
";. c #CFD0D0",
":. c #D6D7D7",
">. c #D7DADA",
",. c #DCDDDD",
"<. c #E4E4E4",
"1. c #EBEBEB",
"2. c #FDE7E3",
"3. c #FEF1EF",
"4. c #EFEFF0",
"5. c #F4F5F5",
"6. c #FFF3F2",
"7. c #FFFFFF",
/* pixels */
"                                                                                                    ",
"                                                                                                    ",
"                                                                                                    ",
"                                                                                                    ",
"                          '                                                                         ",
"                        `                                                                           ",
"                                                                                                    ",
"                                                                                                    ",
"                                                                                                    ",
"                                                                                                    ",
"                                                                                                    ",
"    ]                                                                                               ",
"`     ^ {   ]                                                                                       ",
"( ( ! [ ^                                                                                           ",
"  R Y ~ E                           + O + O $ & $ $ +                                               ",
"  U I W [ _                       o % w O i D F D S Z t = $                       o                 ",
"_ Q T ^ )                       X X % A = Z P P L P P L K A 7 $           + +   & &                 ",
"  _ ) _                     $ O o w i A = i L L L L L L L L K p %       $ q q = O %                 ",
"                          + t * X 7 i 7 X q K L L H D D F K L L F =     & * * q 8 $                 ",
"    2.                  + i J 7 . . % 6 = F L G w > g j s 9 i J L G = X X o     O                   ",
"    6.      $ = * O   O t K L H p t D K J K Z ; @ v %.1.1.%.b 8 J L D + .                           ",
"    3.3.    = H G $ . * H L L L P L L L K y 2 #.=.C h b o.1.5.M i P L i X                           ",
"      3.6.n y L D X X Z L L L L L L L K y f ;.7.7.7.<.o.v h | X.r J L K 6                           ",
"          < S L w . = J L L L L L L L p f :.7.7.7.7.7.7.5.*.B 4 & G L P Z O                         ",
"          $ F A o . i L L L L K L L D < =.7.7.7.7.7.7.7.7.7.7.#.- H L L H *                         ",
"          O 7 O . X D L L L L L L K 6 v 1.7.7.7.7.7.7.7.7.7.7.| w K L L K q                         ",
"            o X . $ H L L L L L P D 1 v h | ,.7.7.7.7.7.7.5.o.> F L L L L y                         ",
"                  * J L L L L L L w | 5.$.b 5 C -.7.7.4.O.x 9 D L L L K L p O                       ",
"                  = S q y J L L H > ;.7.7.5.=.V 5 M o.l = Z J L L L L L L Z +                       ",
"                  = 6 = * y L L D g 5.7.7.7.7.7.,.} # y J P L L L L L L P p O                       ",
"                  % % 7 p * H P p N 7.7.7.7.7.7.7.&.r J L L L L L L L L L u O                       ",
"                  X $ 6 A % w H y C 7.7.7.7.7.7.7.X.q L L L L L L L L L L q                         ",
"                  o = p w X % J p 3 o.1.7.7.7.7.7.X.w L L L L L L L L L H *                         ",
"                    X o o 7 Z L Z , k k X.<.7.7.7.o.q L L L L L L L L L A $                         ",
"                    o X q J L L D d ,.$.b h | ,.7.#.0 K L K L L L L L K 6                           ",
"                      * H L L L K 9 @.7.5.%.N h } ..0 K L L L L L L L Z $                           ",
"                      + i L L L L Z j 1.7.7.7.-.V , 7 K L L L L L L G =                             ",
"                        $ A L L L K q B 1.7.7.7.7.M y L L L L L L J 7                               ",
"                          $ Z K L L H 8 k O.>.>. .: G L L L L L H 8 O                               ",
"                            $ u J L P J Z 0 a > 6 D L L L L L D = O                                 ",
"                      $ & O   + = A J L P K H H K L P L L F t $                                     ",
"                      o u 6 & $ . X * y S G J J J H F p 7 O . . o o o o o o O O                     ",
"                  o X . = t 6 $ . . . . X o $ $ $ $ o . . . . . . . . . . . . . . X X o             ",
"                      O O O O o X o o o o o X X X X X o o X o o X o o o O O o O O                   ",
"                                                                                                    ",
"                                                                                                    ",
"                                                                                                    ",
"                                                                                                    ",
"                                                                                                    ",
"                                                                                                    "
};
