/* XPM */
static char *___1__resized[] = {
/* columns rows colors chars-per-pixel */
"50 50 112 2 ",
"   c None",
".  c #030102",
"X  c #0C0203",
"o  c #140304",
"O  c #1B0505",
"+  c #170807",
"@  c #170708",
"#  c #190708",
"$  c #150808",
"%  c #1C0808",
"&  c #230404",
"*  c #2B0304",
"=  c #220908",
"-  c #320303",
";  c #3D0304",
":  c #390608",
">  c #271A1B",
",  c #2C1B1C",
"<  c #371415",
"1  c #3B1213",
"2  c #3D1C1C",
"3  c #281F20",
"4  c #1F2021",
"5  c #222324",
"6  c #3C2223",
"7  c #3C2D2E",
"8  c #2D302F",
"9  c #3E2F30",
"0  c #393B3C",
"q  c #430404",
"w  c #4C0404",
"e  c #460709",
"r  c #4A0608",
"t  c #460A0B",
"y  c #530404",
"u  c #5D0304",
"i  c #401111",
"p  c #640102",
"a  c #6B0304",
"s  c #630608",
"d  c #730203",
"f  c #7B0203",
"g  c #432D2E",
"h  c #434343",
"j  c #4E4646",
"k  c #4A4A4A",
"l  c #514748",
"z  c #574F4E",
"x  c #554F50",
"c  c #575757",
"v  c #5B5455",
"b  c #595959",
"n  c #646464",
"m  c #696564",
"M  c #676869",
"N  c #6C6B6B",
"B  c #747474",
"V  c #7B7C7C",
"C  c #850304",
"Z  c #8C0203",
"A  c #930304",
"S  c #9C0304",
"D  c #A20204",
"F  c #AB0204",
"G  c #B40204",
"H  c #BA0203",
"J  c #C40203",
"K  c #CC0102",
"L  c #D10102",
"P  c #F61805",
"I  c #F44906",
"U  c #F34508",
"Y  c #F6760A",
"T  c #F77B08",
"R  c #F6860A",
"E  c #F8970B",
"W  c #FC9B18",
"Q  c #FCAB07",
"!  c #FAA509",
"~  c #FAA80B",
"^  c #FCBE07",
"/  c #FCB40A",
"(  c #FCBD09",
")  c #FDBA10",
"_  c #FEB71C",
"`  c #FEB81D",
"'  c #FDC209",
"]  c #808081",
"[  c #86888A",
"{  c #8B8C8C",
"}  c #939393",
"|  c #9A9B9B",
" . c #A5A5A6",
".. c #A6A9A8",
"X. c #AAACAC",
"o. c #AEB1B1",
"O. c #B3B3B3",
"+. c #B7B9B9",
"@. c #B9BBBB",
"#. c #C3C4C3",
"$. c #CBCBCB",
"%. c #D4D5D5",
"&. c #D7D9D9",
"*. c #DBDBDB",
"=. c #DFE1E0",
"-. c #E3E3E3",
";. c #EAEBEB",
":. c #FDE7E6",
">. c #F2F2F2",
",. c #FFF2F0",
"<. c #F7F9F9",
"1. c #FFFFFF",
/* pixels */
"                                                                                                    ",
"                                                                                                    ",
"                                                                                                    ",
"                                                                                                    ",
"                                                                                                    ",
"                                                                                                    ",
"                                                                                                    ",
"                                                                                                    ",
"                                                                                                    ",
"                `                                                                                   ",
"                            _                                                                       ",
"                                                                                                    ",
"                                                                                                    ",
"                                                                                O O                 ",
"                                                  O = & O = o                 % & &                 ",
"                          `               # o O u f A A A Z d w - O         O & * &                 ",
"                      `                 X & u * D K K L K L K K G C q O     = * O O                 ",
"                                    o . . O C y q u G L L K K K L L J f * % o o                     ",
"    )                             X X X q a A y X a K J D f a d Z H K K S - . .                     ",
"    ' Q                         & r X . q d u O s J D q 7 N ] B l 1 C J L F * X O                   ",
"' / R ! ( )                   O d J Z u r ; w C J A < 5 h | %.<.<.@.7 Z K L A = o                   ",
"  Y P U ~ W                   w J K K K J J J K Z 6 X.*. .m h b | *.o.i H K K a X                   ",
"  E I T (           & * O % & S K K K K K K K A 6 +.1.1.1.1.=. .n h b > S K K G *                   ",
") ' ( /           * S A * . y K K K K K K K F 1 ..1.1.1.1.1.1.1.<.*.} , A K K K u                   ",
"`         :.      u K a X o A K K K K K K J y V 1.1.1.1.1.1.1.1.1.1.;.g D K K K C =                 ",
"            ,.,.v f S o . & G K K K K K K Z , $.1.1.1.1.1.1.1.1.1.1.[ r J K K K G *                 ",
"                , C w . . q J K K K K K K y 8 k ] $.<.1.1.1.1.1.=.V 1 D K K K K H ;                 ",
"                O r o . . y K K K K K L F 6 $.#.B h c | *.<.>.} 7 y F K K K K K J q                 ",
"                  $ X X X u K J G K K K C z <.1.1.-. .n h n v e A K K K K K K K K w                 ",
"                        + u H y - a J K p ] 1.1.1.1.1.1.*.M - G K K K K K K K K J y                 ",
"                          y D * a * Z L y | 1.1.1.1.1.1.1.B d K K J K K K K K K J q                 ",
"                          q C O a p w J y X.1.1.1.1.1.1.1.m C K K K K K K K K K G -                 ",
"                          = & ; d d - H y B -.1.1.1.1.1.1.B d K K K K K K K K K A %                 ",
"                          o X w s * * H p 4 h N @.>.1.1.1.{ u K K K K K K K K J y                   ",
"                            . . . * : H Z j $.[ k k { *.1.X.w K K K K K K K K S &                   ",
"                            $ . X C C J G 1 #.1.;.O.n h M V t J K K K K K K J w                     ",
"                              X q J K L K a v >.1.1.1.&.} 0 q J K K K K K K d %                     ",
"                                * A K K L H e V >.1.1.1.1.B s K K K K K K Z &                       ",
"                                  * f J K K G t x o.&.%.{ < D K K K K K A &                         ",
"                                  = % y D K L H f t 2 i y S K K K K J C *                           ",
"                                * *   % = y A J K J H H K L K K J S y O                             ",
"                              $ q s = O . . X - y f A D D D Z d q o . X X o X X o O o               ",
"                          % X . O y : o . . . . . . X X X o . . . . . . . . . . . . X X $           ",
"                                      O O O o $ % o $ $ $ $ % % o o o o                             ",
"                                                                                                    ",
"                                                                                                    ",
"                                                                                                    ",
"                                                                                                    ",
"                                                                                                    ",
"                                                                                                    "
};
