/* XPM */
static char *___1__resized[] = {
/* columns rows colors chars-per-pixel */
"50 50 119 2 ",
"   c None",
".  c #020101",
"X  c #0C0203",
"o  c #130404",
"O  c #1B0505",
"+  c #1B0708",
"@  c #140D0F",
"#  c #1B0809",
"$  c #151212",
"%  c #230404",
"&  c #2B0304",
"*  c #210B0A",
"=  c #330304",
"-  c #3B0404",
";  c #3E0B0B",
":  c #3D100F",
">  c #2A1414",
",  c #3D1415",
"<  c #3A1C1D",
"1  c #3C1F20",
"2  c #262221",
"3  c #292829",
"4  c #3E2B2C",
"5  c #3D3E3E",
"6  c #440404",
"7  c #4C0405",
"8  c #420709",
"9  c #440D0E",
"0  c #4A090A",
"q  c #540405",
"w  c #5D0304",
"e  c #560709",
"r  c #590608",
"t  c #401C1C",
"y  c #640203",
"u  c #6C0304",
"i  c #730304",
"p  c #7C0303",
"a  c #453536",
"s  c #473A3A",
"d  c #464646",
"f  c #4D4445",
"g  c #4C4A4B",
"h  c #564E50",
"j  c #4C5050",
"k  c #555353",
"l  c #5B5556",
"z  c #5D5C5C",
"x  c #625F60",
"c  c #646363",
"v  c #6A6A6B",
"b  c #6D7070",
"n  c #747474",
"m  c #7D7573",
"M  c #7C7D7D",
"N  c #840203",
"B  c #8C0304",
"V  c #920203",
"C  c #9B0203",
"Z  c #A30304",
"A  c #AB0204",
"S  c #B30203",
"D  c #BB0204",
"F  c #C40203",
"G  c #CC0102",
"H  c #D00102",
"J  c #F42807",
"K  c #F54208",
"L  c #F6550B",
"P  c #F36809",
"I  c #F8770D",
"U  c #FA771C",
"Y  c #F5830B",
"T  c #F78F0A",
"R  c #F98C0C",
"E  c #F9960C",
"W  c #F89A0B",
"Q  c #F78E12",
"!  c #FB811A",
"~  c #FA9610",
"^  c #FB9B15",
"/  c #FCAE0D",
"(  c #FCBF06",
")  c #FBB408",
"_  c #FDBB0D",
"`  c #FDB412",
"'  c #F99920",
"]  c #FEB122",
"[  c #FCC405",
"{  c #FDC208",
"}  c #807E80",
"|  c #848484",
" . c #878888",
".. c #8A8B8A",
"X. c #8F9191",
"o. c #959595",
"O. c #979898",
"+. c #9B9D9D",
"@. c #A3A3A3",
"#. c #ABABAB",
"$. c #B3B5B5",
"%. c #B6BAB9",
"&. c #BBBCBC",
"*. c #FDB68E",
"=. c #C3C4C4",
"-. c #C7C8C7",
";. c #CBCCCC",
":. c #CFD1D1",
">. c #D4D4D6",
",. c #D6D8D8",
"<. c #DBDCDC",
"1. c #E3E4E4",
"2. c #EBECEC",
"3. c #FEEEEB",
"4. c #FDF1EE",
"5. c #F3F4F4",
"6. c #FEF3F1",
"7. c #FFF8F3",
"8. c #FFFFFF",
/* pixels */
"                                                                                                    ",
"                                                                                                    ",
"                                                                                                    ",
"                                                                                                    ",
"                                                                                                    ",
"                                                                                                    ",
"                                                                                                    ",
"                                                                                                    ",
"                                ]         4.6.6.4.3.                                                ",
"                                      3.6.        7.6.                                              ",
"                              / Y ' *.              m a +                                           ",
"                            R E K L Q         % = q y i u %                                         ",
"                          _ [ P J K W `       + B G H H G 7                                         ",
"                          ~ ) Y W T I !       O q Z S D D q                                         ",
"                          E [ { R ^           o . X O & & O                                         ",
"                          { { R U             X X O % = - - - = % + o                               ",
"                        ` _         O O + % o 7 N A D F F F D S C = - & o % +                       ",
"                                    - 6 & i & Z H G G G G G G H F 6 u u 6 u %                       ",
"                                    - N N y 6 D G G G G G G G G G y 6 B V w o                       ",
"                                  X X 7 7 = V G G G G G G G G G G S 6 - - X X o                     ",
"          ]                     + O . X - Z G G G G G G G G G G G G D N u y B u +                   ",
"                              O 7 Z p i e N G H G F S S A S D F G G G G H G G F w +                 ",
"                              & A G H D i C S N w 9 < < * < , 7 i A G G G G G G A &                 ",
"                            O u G G G G F p t l o.=.<.-.5 =.-.+.z 1 e C G G G G G y +               ",
"                            & A G G G S 7 @ +.8.8.8.8.1.d <.8.8.8.>.M > y D G G H C %               ",
"                            e G G G D 8 v d $.8.8.8.8.1.d <.8.8.8.8.5.g 2 e F G G D -               ",
"                          + p H G F e c 5.z #.8.8.8.8.2.d ;.8.8.8.8.8.c  .h i G G G q               ",
"                          % V H G C 4 <.8.c @.8.8.8.8.5.g -.8.8.8.8.8.n ..&.; D G G y               ",
"                          % C G G w } 8.8.v +.8.8.8.8.5.k &.8.8.8.8.8...n 5.a C G G w               ",
"                          % C G F 0 $.8.8.n o.8.8.8.8.8.z #.8.8.8.8.8.+.v 8.x p H G e               ",
"                          + N H F 9 &.8.8.n ..8.8.8.5.:.j X.8.8.8.8.8.#.l 8.v p G F 6               ",
"                          + u G G q +.8.8.M | 8.5.$.h , ; 1 M 2.8.8.8.%.k 1.a C H S &               ",
"                            6 F H B f 2.8...M :.x ; N S F A 7 h ,.8.8.-.d b 0 F H B +               ",
"                            & C G F r z %.v 2 4 u D G G G G F u 4  .$...$ 8 A H F q                 ",
"                              r F H D i 0 0 y Z G G G G G G G F C w 0 q p D G G C %                 ",
"                              % V H G G G F G H G G G G G G G G G G F F G H G F 7                   ",
"                                = A G G G G G G G G G G G G G G G G G G G G F u %                   ",
"                                  6 A G G G G G G G G G G F G G G G G G G G p %                     ",
"                                    - V G G G G G G G G G G G G G G G G D u %                       ",
"                              # +     % u S G G G G G G G G G G G H F C 7 +     + O                 ",
"                              & q O   # X % u Z F G G H G G G F S B 7 o o *   o 7 -                 ",
"                              % i w 6 8 - X . O - e i p N p y 6 % X . X - 0 6 7 p %                 ",
"                              # O & O O o . . . . . . . . . . . . . . . X O O & % o                 ",
"                            o X . . . . . . . . . . . . . . . . . . . . . . . . . X X o             ",
"                                    # o o o o # o o o o o o # o o X o X + #                         ",
"                                                                                                    ",
"                                                                                                    ",
"                                                                                                    ",
"                                                                                                    ",
"                                                                                                    "
};
