/* XPM */
static char *_0__1__resized[] = {
/* columns rows colors chars-per-pixel */
"50 50 114 2 ",
"   c None",
".  c #030102",
"X  c #0B0203",
"o  c #130404",
"O  c #1B0405",
"+  c #190608",
"@  c #110C0C",
"#  c #230404",
"$  c #2B0303",
"%  c #230A0A",
"&  c #280E0F",
"*  c #330304",
"=  c #3B0304",
"-  c #3C0708",
";  c #320809",
":  c #3C0F10",
">  c #3E1213",
",  c #3E1A1A",
"<  c #3E1E20",
"1  c #242525",
"2  c #352323",
"3  c #3B2425",
"4  c #3B2C2C",
"5  c #2E3131",
"6  c #383131",
"7  c #3B3D3D",
"8  c #440404",
"9  c #4D0405",
"0  c #430C0D",
"q  c #540304",
"w  c #5C0304",
"e  c #420F10",
"r  c #421213",
"t  c #630304",
"y  c #6D0405",
"u  c #740304",
"i  c #7C0304",
"p  c #730608",
"a  c #402626",
"s  c #422E2E",
"d  c #443232",
"f  c #453A3B",
"g  c #4B3C3C",
"h  c #464646",
"j  c #4F4646",
"k  c #4E4E4E",
"l  c #564B4B",
"z  c #555555",
"x  c #595454",
"c  c #5B5B5B",
"v  c #616363",
"b  c #6B6B6B",
"n  c #737473",
"m  c #797979",
"M  c #830304",
"N  c #8C0203",
"B  c #8C0508",
"V  c #930203",
"C  c #9C0203",
"Z  c #960408",
"A  c #A30303",
"S  c #AB0304",
"D  c #B30203",
"F  c #BB0203",
"G  c #C40203",
"H  c #CC0102",
"J  c #D00102",
"K  c #F42306",
"L  c #F53206",
"P  c #F36607",
"I  c #F57609",
"U  c #F77D0B",
"Y  c #F86A15",
"T  c #F48208",
"R  c #F9950A",
"E  c #F99D0A",
"W  c #FAA707",
"Q  c #FAAF07",
"!  c #FAA70E",
"~  c #FBA90B",
"^  c #FCBE07",
"/  c #FBB009",
"(  c #FDBA0B",
")  c #FDBA11",
"_  c #FDB336",
"`  c #FDC207",
"'  c #FDAA45",
"]  c #7E8080",
"[  c #838484",
"{  c #8B8C8C",
"}  c #919191",
"|  c #959898",
" . c #9B9C9C",
".. c #9EA0A1",
"X. c #A3A4A4",
"o. c #A5A8A7",
"O. c #ABACAB",
"+. c #B3B4B4",
"@. c #B7B9B9",
"#. c #BDBFBF",
"$. c #C3C5C5",
"%. c #C6C8C8",
"&. c #CFD1D1",
"*. c #D3D3D3",
"=. c #D5D7D9",
"-. c #DADCDB",
";. c #E2E3E2",
":. c #E7EAEA",
">. c #ECEDED",
",. c #FFEEED",
"<. c #FEF0EF",
"1. c #F3F4F4",
"2. c #FEF0F0",
"3. c #FFFFFF",
/* pixels */
"                                                                                                    ",
"                                                                                                    ",
"                                                                                                    ",
"                                                                                                    ",
"                                                                                                    ",
"                                                                                                    ",
"                                                                                                    ",
"                                                                                                    ",
"                                                                                                    ",
"                                                                                                    ",
"                                                                                                    ",
"                                                                                                    ",
"                                                                                                    ",
"                                                                                                    ",
"        O O                                                                                         ",
"        $ $ O             O $ 8 q w t q 8 * #                                                       ",
"        O # 8 #       $ q M S G H H H H G D N q $ + O #                                             ",
"            # +   + 9 A G H G F F H H H H H J H M # w 9 +                                           ",
"            X . % u G H G u r r r 9 N H H H H H u 9 V * o                                           ",
"          + . O B H H G t x $.=.*...f t G J S y w 8 V t * +                                 )       ",
"          o X u H H H V 2 @.#.O...} v @ t H S q B = q u 8 X                               / ^       ",
"          X q G H H J t 1 h k z b n [ [ 4 N H G H C = X . . X                         ^ R T E Y     ",
"          O A H H H H q { :.1.3.3.3.3.3.o.0 F H H H F w O X o +     + o               ~ I K U R     ",
"          q H H H H H t [ 3.3.3.3.3.3.3.1.x u H H H H G S C Z * . $ p t #               R L P ` )   ",
"        O B H H H H H N f :.3.3.3.3.3.3.3.@.: F H H H H H J H y . = G F 8             ' ( ~ W W )   ",
"        $ S H H H H H G 9 n 1.3.3.3.3.3.3.1.j N H H H H H H H A o . y H t l   <.2.,.  _ ! E (       ",
"        = F H H H H H H D 8 b 1.3.3.3.3.3.3.[ w H H H H H H H F $ . O S i l ,.                      ",
"        q H H H H H H H H D 0 m ;.*.#.X.[ b 7 * G H H H H H H G 8 X . 9 w +                         ",
"        w H H H H H H H H J A & 7 h k v m  .X., D H H H H H H H q . . X X                           ",
"        w H H H H H H H H H G 8 X.:.1.3.3.3.>.d A H H H H H H H q o                                 ",
"        q G H H H H H H H H G 0 #.3.3.3.3.3.1.g C H H H H H H H q                                   ",
"        8 G H H H H H H H H D 3 -.3.3.3.3.3.1.g C J H H H A Z D -                                   ",
"        $ S J H H H H H H H N l 1.3.3.3.3.3.:.s S J H H i $ $ = $                                   ",
"        + u H H H H H H H H t { 3.3.3.3.3.3.$., F G H C * u w X o                                   ",
"          = D H H H H H J F r @.;.$.O.{ b z 5 9 G y p w 9 i O .                                     ",
"          + u H H H H H H D & 7 h h z n } X.6 M H y y 9 8 N w O                                     ",
"            $ A H H H H J S , @.-.1.3.3.3.o.0 F H H D ; X = * +                                     ",
"              8 F H H H H F > #.3.3.3.3.$.3 V H H H D # X X +                                       ",
"              + 9 F H H H H u 7 @.;.-.| 4 i H H H H H y X +                                         ",
"                O 9 D H H H G i r a , 8 V H J H H F M * %                                           ",
"                  + = V G H J H G D D G J J H F N 8 O   % #                                         ",
"                    X o 8 M S F G G G F S N t $ X X % + 9 8                                         ",
"    + o X X X . . . . . . . O $ * = = $ O X . . . o ; - p $ . X X o                                 ",
"    X X . X . . . . . . . . . . . . . . . . . . . . X o o X . X X X +                               ",
"                                                                                                    ",
"                                                                                                    ",
"                                                                                                    ",
"                                                                                                    ",
"                                                                                                    ",
"                                                                                                    "
};
