/* XPM */
static char *L2FhqD7__1__2__dragged__resized[] = {
/* columns rows colors chars-per-pixel */
"50 50 213 2 ",
"   c None",
".  c #0D111F",
"X  c #050D1D",
"o  c #23291F",
"O  c #0D1423",
"+  c #071022",
"@  c #121623",
"#  c #131B24",
"$  c #1C1D24",
"%  c #191D29",
"&  c #231F25",
"*  c #1C2424",
"=  c #1F202A",
"-  c #152326",
";  c #1C2D2D",
":  c #222324",
">  c #272427",
",  c #322524",
"<  c #3E2A26",
"1  c #322A27",
"2  c #39312A",
"3  c #333825",
"4  c #292C35",
"5  c #28323C",
"6  c #2D3431",
"7  c #5D341E",
"8  c #66381E",
"9  c #472D23",
"0  c #4A3626",
"q  c #473729",
"w  c #5B3728",
"e  c #563A26",
"r  c #463D39",
"t  c #5C3E34",
"y  c #683B21",
"u  c #623925",
"i  c #3C411E",
"p  c #1E492A",
"a  c #24522C",
"s  c #345E2D",
"d  c #2C4F30",
"f  c #34672F",
"g  c #3D772E",
"h  c #40451B",
"j  c #54432D",
"k  c #5B462B",
"l  c #494238",
"z  c #574938",
"x  c #524E32",
"c  c #6E4029",
"v  c #694827",
"b  c #7C4529",
"n  c #794728",
"m  c #7C5228",
"M  c #73502B",
"N  c #6B5236",
"B  c #785833",
"V  c #6B5131",
"C  c #457D2E",
"Z  c #497F31",
"A  c #447E32",
"S  c #5E6223",
"D  c #333D46",
"F  c #2E3442",
"G  c #38494F",
"H  c #34444C",
"J  c #394A50",
"K  c #5E4643",
"L  c #594944",
"P  c #44545C",
"I  c #4C4B4C",
"U  c #654D45",
"Y  c #625148",
"T  c #6B564C",
"R  c #665646",
"E  c #775F52",
"W  c #4D7457",
"Q  c #7A6153",
"!  c #707B4F",
"~  c #4E5A63",
"^  c #59686A",
"/  c #5C6C70",
"(  c #516B70",
")  c #5B7478",
"_  c #506A67",
"`  c #667A7C",
"'  c #697D7E",
"]  c #824729",
"[  c #854929",
"{  c #8A4C2B",
"}  c #894927",
"|  c #84552A",
" . c #8D5C29",
".. c #84592B",
"X. c #915E29",
"o. c #9D4F30",
"O. c #845234",
"+. c #905736",
"@. c #964E2E",
"#. c #B75336",
"$. c #9B652B",
"%. c #91612C",
"&. c #886535",
"*. c #986A37",
"=. c #9B7137",
"-. c #A6692A",
";. c #B3712A",
":. c #BC762B",
">. c #BD782C",
",. c #A67838",
"<. c #B4752E",
"1. c #CE553A",
"2. c #D1573C",
"3. c #C37A2C",
"4. c #C47B2C",
"5. c #C57D32",
"6. c #975E41",
"7. c #836857",
"8. c #917157",
"9. c #A86B46",
"0. c #A56844",
"q. c #B1734D",
"w. c #9B7962",
"e. c #B27B66",
"r. c #D25D41",
"t. c #DF7A58",
"y. c #D26E4D",
"u. c #E07B59",
"i. c #468231",
"p. c #498435",
"a. c #55883A",
"s. c #7F8129",
"d. c #5B8A56",
"f. c #508643",
"g. c #658D65",
"h. c #6C8D73",
"j. c #9E9E0F",
"k. c #989A17",
"l. c #AFB017",
"z. c #A6A80D",
"x. c #B7833B",
"c. c #BFBF2D",
"v. c #CA8532",
"b. c #CB8A3A",
"n. c #C78837",
"m. c #D18D37",
"M. c #CE933E",
"N. c #D4923A",
"B. c #DC9A3E",
"V. c #DA973C",
"C. c #C8812F",
"Z. c #EEEF02",
"A. c #EBEB0E",
"S. c #E3E303",
"D. c #FFFF00",
"F. c #F2F207",
"G. c #E2E310",
"H. c #C3C32C",
"J. c #8A8C58",
"K. c #AE876B",
"L. c #B38B6E",
"P. c #BA8069",
"I. c #BE9D60",
"U. c #B69474",
"Y. c #A18F5B",
"T. c #CE9341",
"R. c #DE9E41",
"E. c #D89E48",
"W. c #C99549",
"Q. c #E2805D",
"!. c #E09F40",
"~. c #DEA146",
"^. c #D7A658",
"/. c #E3A243",
"(. c #E6A84A",
"). c #E2AA51",
"_. c #E4B35E",
"`. c #D89A6F",
"'. c #C59776",
"]. c #DA9D71",
"[. c #C98A66",
"{. c #D4A876",
"}. c #E6BB68",
"|. c #F0A37E",
" X c #E9C06E",
".X c #EBC472",
"XX c #F0C772",
"oX c #657F82",
"OX c #678083",
"+X c #728787",
"@X c #768C8D",
"#X c #7C958C",
"$X c #7D9591",
"%X c #88948C",
"&X c #819796",
"*X c #829897",
"=X c #839A99",
"-X c #8A9992",
";X c #A3A2A8",
":X c #DBAF8E",
">X c #EDAD83",
",X c #FDAB86",
"<X c #F7A683",
"1X c #ECB387",
"2X c #F3B98A",
"3X c #FBBA8B",
"4X c #F5B488",
"5X c #FFC18E",
"6X c #FFC391",
"7X c #FFC995",
"8X c #FEC89E",
"9X c #FDD5B7",
"0X c #F5EEEE",
/* pixels */
"                                                                                                    ",
"                                                                                                    ",
"                                                                                                    ",
"                                        # O O O O O O O @ @                                         ",
"                                        @ > z z x z j j > @                                         ",
"                                  @ @ @ . Y .X.X.XXX}./.j O @ @ @                                   ",
"                            O O q x.$...- > l l l l r q : $ ..*.,.j O @                             ",
"                          2 2 3 B ).b.;.$ * 3 i h i i 3 = : ;.v./.V 2 1 1                           ",
"                        + =.R.R.)..XM.;.% h H.G.D.D.G.H.x @ ;.C./.~.B.3...O                         ",
"                    O q *.W._._._.)...j j.l.H.A.D.D.A.H.l.j.k m v.N.B.N.<.m q O                     ",
"                    > N (._. X X_.B.j * F.A.c.A.D.D.A.c.F.Z.* 0 3.m.~.!.N.4.k :                     ",
"                @ * n.^. X).~./.N.>.e : Z.A.c.A.D.D.A.c.A.Z.o 0 3.N.B.~.N.:.;.-.= @                 ",
"                @ : M.)..X).B.b.v.3.0 o Z.A.H.A.D.D.A.H.A.Z.* 0 3.v.M.B.N.:.:.;.$ @                 ",
"                = > M.)..X~.B.3.:.;.0 * S.G.c.A.D.D.A.H.G.S.o q ;.;.3.B.N.:.:.;.> $                 ",
"              O &.M.}._.~.b.4.4. .- @ . : S H.F.D.D.A.H.S > O @ =  .4.4.3.:.:.:.;.m O               ",
"              O =.(. X_.N.$.m m V R R N z z k.k.z.z.k.s.S e k k v M m m X.3.:.:.3...@               ",
"              O =./. X^.:.0 O @ x XX.X.X(.=.@ . @ O @ O { 4.!././.k O O q >.:.:.>.| O               ",
"              O =.V.l 6 o 8.'.,.n.b.b.b.v.<.$.$.$.$.X.-.:.3.5.v.5.x.x.x.&.> 1 q :...@               ",
"              @ B ,.l l 0 x._.R.x. . . .X.X.X.X.X.X.X.X.X.X.X. . .C.V.R.,.q q q  .v O               ",
"              @ O * }._.~.n.3.4. .O @ O O @ @ O @ . @ @ O O O @ O | 3.>.v.!.~.M.= @ @               ",
"              O V ,.T.b.v.M 9 0 N L.L.L.L.L.L.L.L.L.L.L.L.L.L.L.L.U 0 9 M v.v.5.,.V O               ",
"              1 ,.B.-.$.-.j 6 4 Q 7X6X7X6X7X6X7X7X6X6X7X6X6X7X6X7XQ 4 2 j -.-.-.B.,.1               ",
"          + j R.v.;.: @ . K.6X6X6X6X6X3X3X6X6X6X3X6X6X6X6X6X5X6X7X6X3X3XK.. @ & ;.v.~.j O           ",
"        > B =.b...e e N w.7.Q Q Q E {.6X6X6X3X6X6X6X6X3X6X3X6X{.Q Q Q E 7.8.t < e ..m.%.v $         ",
"      @ : W.b.5.0 @ ] q.8XE % $ = = L.5X6X5X6X3X3X3X3X6X6X6X7XL.: > = % Y ,X6.8 @ 0 5.:.-.$ @       ",
"      @ # $ R 3XU @ y q.6X2X1X>X1X2X3X5X5X6X6XQ.r.r.Q.6X6X3X6X3X|.|.2X1X1X<X6.7 @ z |.U $ @ @       ",
"        @ O Y 7XY @ y q.6X6X7X9X:Xw.:X5X6X3X6Xt.1.1.t.6X6X5X6X8X9X;Xw.3X3X<X6.7 @ U ,XK O @         ",
"          . Y 7XY $ ] q.6X3X8X0X;XX K.6X6X6X6Xt.1.1.t.3X5X3X3X9X0X^ % 1X3X<X6.7 @ K ,XK O           ",
"          O Y 7XY @ b q.7X3X2XD 5 X K.7X6X6X7Xt.1.1.u.6X6X6X6XU.F % : 1X3X,X+.7 @ K ,XK O           ",
"          O L L.r $ ] 0.].4X3XT L L '.6X].`.].y.2.1.y.`.].].6X'.L L T 2X>X[.O.7 @ r e.t O           ",
"              O @ $ ] { [ `.7X6X6X6X6X2X+.[ [ #.2.2.#.[ [ +.3X6X6X6X6X7X[.u 8 u % @ O               ",
"                    > 0 @.+.9.9.9.9.9.0.{ { { @.o.o.@.{ [ { 9.9.9.9.9.+.O.8 < &                     ",
"                    O 1 c ] [ [ [ [ [ [ { b y c c y c c ] { [ ] b b b 8 8 7 & O                     ",
"                        @ u { { { { { { { w O @ % @ @ # w @.{ ] y y y 8 9 #                         ",
"                          2 9 < 9 < < 9 { b w w w w w w y { 9 1 , , , , >                           ",
"                          O O O @ - - : B O.| O.| | O.O.O.B - # @ @ @ @ @                           ",
"                              O ; i.C i.$Xh.C Z Z Z A C W ( a a a - @                               ",
"                            # d s i.d.g.U.Y.g.f.i.i.f.g.J.Y._ W g p ; #                             ",
"                          # = A i.C h.-XE.I.=Xd.p.p.d.=XI.E.%Xh.A f a # @                           ",
"                        O a g i.f - ) =X%X$X&X&X#X#X$X=X=X%X4 % @ p a @ @                           ",
"                      r T J.J.i.s . / =X=X@X` ` ` ` ` oX/ ^ T T T x a # @                           ",
"                    O Y 7X6X5Xa.s O / =X=X' H G G G G J ; = 2X6X7Xd.p @ @                           ",
"                    O Y 7X5X1X6 - @ / =X&X$X+X+X+X+X+X+XF = >X<X,XY -                               ",
"                    O L '.'.L.; @ @ / =X&X&X&X=X*X*X&X=XP F e.e.e.z O                               ",
"                        @ @ @     @ / =X$X=X=X=X*X=X*X*XOX( % @ %                                   ",
"                                  @ / =X=X@XoXJ D D P oX) ( P H @                                   ",
"                                  @ ) $X$XOX_ F . O 5 ~ _ ^ / I @                                   ",
"                                  O ) $XoXP @         % 0 y u 0 @                                   ",
"                                  @ Y 7.R r O                                                       ",
"                                  O u } y 0 @                                                       "
};
