/* XPM */
static char *L2FhqD7__1__3__dragged__resized[] = {
/* columns rows colors chars-per-pixel */
"50 50 209 2 ",
"   c None",
".  c #2A301F",
"X  c #0D1322",
"o  c #121623",
"O  c #141A25",
"+  c #1B1C25",
"@  c #1B1E28",
"#  c #070F20",
"$  c #221E24",
"%  c #192326",
"&  c #1A3228",
"*  c #222423",
"=  c #2C2325",
"-  c #272728",
";  c #322823",
":  c #322727",
">  c #3B3528",
",  c #322C32",
"<  c #273036",
"1  c #0A111F",
"2  c #5C341E",
"3  c #68381E",
"4  c #472C21",
"5  c #4A3626",
"6  c #4E3826",
"7  c #4D3C2B",
"8  c #443527",
"9  c #533121",
"0  c #533B27",
"q  c #583928",
"w  c #443A38",
"e  c #503E3E",
"r  c #6A3E29",
"t  c #663A23",
"y  c #703E23",
"u  c #1F412B",
"i  c #24452B",
"p  c #24522D",
"a  c #355E2E",
"s  c #305432",
"d  c #34662E",
"f  c #3C6636",
"g  c #48471D",
"h  c #54432E",
"j  c #5B472E",
"k  c #564739",
"l  c #4C4D28",
"z  c #6F4029",
"x  c #674A2B",
"c  c #7C4428",
"v  c #73462A",
"b  c #7D5328",
"n  c #7B5731",
"m  c #6B5334",
"M  c #5F6D2F",
"N  c #447D31",
"B  c #427C2F",
"V  c #6F7221",
"C  c #2F3943",
"Z  c #3F5158",
"A  c #356340",
"S  c #4E4341",
"D  c #5C4543",
"F  c #5F4E48",
"G  c #405156",
"H  c #40545B",
"J  c #455B5E",
"K  c #5E5048",
"L  c #604F48",
"P  c #625248",
"I  c #615640",
"U  c #6B6954",
"Y  c #53666A",
"T  c #5E7D68",
"R  c #5C6C70",
"E  c #5A767A",
"W  c #5A7479",
"Q  c #64797A",
"!  c #716E6D",
"~  c #864A2A",
"^  c #894B2B",
"/  c #854828",
"(  c #825629",
")  c #8C562B",
"_  c #935F28",
"`  c #915E27",
"'  c #995C39",
"]  c #885C39",
"[  c #BC5639",
"{  c #A85032",
"}  c #96632B",
"|  c #886636",
" . c #997037",
".. c #9D7338",
"X. c #B16F2A",
"o. c #AA702E",
"O. c #B4712A",
"+. c #BC762B",
"@. c #BF782B",
"#. c #A87736",
"$. c #B87B32",
"%. c #A1672A",
"&. c #CE543A",
"*. c #CC5137",
"=. c #D2573C",
"-. c #C27A2C",
";. c #C37A2B",
":. c #C17F31",
">. c #955C40",
",. c #876C59",
"<. c #916C57",
"1. c #937251",
"2. c #B0734D",
"3. c #A96E49",
"4. c #967660",
"5. c #987761",
"6. c #AA7662",
"7. c #A57F67",
"8. c #DF7B58",
"9. c #DE7957",
"0. c #7E8113",
"q. c #458333",
"w. c #4B863D",
"e. c #43812D",
"r. c #57894C",
"t. c #6A8C73",
"y. c #6D9075",
"u. c #698F68",
"i. c #9C9D1A",
"p. c #B1B214",
"a. c #94952A",
"s. c #B5823C",
"d. c #BEBE2C",
"f. c #CB8532",
"g. c #C88A3A",
"h. c #D18E37",
"j. c #CD923E",
"k. c #D4923A",
"l. c #DD9B3F",
"z. c #D9963C",
"x. c #E29E3F",
"c. c #DFDF10",
"v. c #C1C309",
"b. c #EDEE02",
"n. c #EBEB0E",
"m. c yellow",
"M. c #F4F501",
"N. c #C3C32C",
"B. c #998259",
"V. c #A98346",
"C. c #A58C58",
"Z. c #B9985B",
"A. c #BD8750",
"S. c #AD846A",
"D. c #B28A6D",
"F. c #B6866B",
"G. c #B98F70",
"H. c #A79A74",
"J. c #DE9E41",
"K. c #D79C46",
"L. c #C99A4D",
"P. c #E19F40",
"I. c #E3945D",
"U. c #DAA756",
"Y. c #E4A343",
"T. c #E7A94A",
"R. c #E3AC53",
"E. c #E1AE5B",
"W. c #E4B25B",
"Q. c #D2966B",
"!. c #CE9B77",
"~. c #DB9D71",
"^. c #D69B72",
"/. c #C8896F",
"(. c #E88F68",
"). c #CCAB66",
"_. c #D5A47D",
"`. c #D5B270",
"'. c #E6B863",
"]. c #E4A36E",
"[. c #E9C372",
"{. c #ECC36F",
"}. c #6A8183",
"|. c #748B8B",
" X c #7E9494",
".X c #7F9798",
"XX c #87978C",
"oX c #819796",
"OX c #839897",
"+X c #839999",
"@X c #819798",
"#X c #989599",
"$X c #B5ADAD",
"%X c #DCA981",
"&X c #DAB192",
"*X c #F5A582",
"=X c #FDA985",
"-X c #F9A784",
";X c #EDB588",
":X c #FCBC8D",
">X c #F4B88B",
",X c #FABE90",
"<X c #E2AC83",
"1X c #FEC08F",
"2X c #FFC291",
"3X c #FFC895",
"4X c #FFCA9B",
"5X c #FED2B0",
"6X c #FFF5EF",
/* pixels */
"                                                                                                    ",
"                                                                                                    ",
"                                        o O + + % O + o O O                                         ",
"                                  X X X X k ).).).).L.L.7 X X X X                                   ",
"                                > h 6 8 o w C.C.C.C.V.#.8 O 8 7 h >                                 ",
"                          O O X h Y.f.X.* o o O X X X O o @ X.f.Y.j X o O                           ",
"                        X n #.#.A.'.j.X.O > a.p.v.v.p.a.> O X.f.J.s.#.} x X                         ",
"                        > V.T.R.R.{.s.` g V N.n.m.m.n.N.V g } o.z.J.P.f.} ;                         ",
"                    X h l.W.[.[.W.Y.l * b.n.d.n.m.m.n.d.n.b.* 5 @.h.J.J.k.@.8 X                     ",
"                  * | V.'.R.R.R.K.f.0 * b.n.d.n.m.m.n.d.n.b.* 5 -.k.P.J.k.@.} v +                   ",
"                o * k.R.[.R.l.l.k.;.5 * b.n.d.n.m.m.n.d.n.M.% 6 ;.h.l.P.h.@.@.O.$ O                 ",
"                X + j.R.[.R.l.-.-.-.5 * M.n.d.n.m.m.n.d.n.M.* 6 -.-.-.J.k.@.@.X.+ X                 ",
"                x | U.W.W.z.g.;.%.x : + a.i.p.n.m.m.n.N.i.0.% ; x %.-.f.f.@.@.O.v h                 ",
"              X  .T.[.W.l.s.O.O.( O @ % o l d.c.M.M.c.d.l X + + O ( +.X.O.@.@.@.-.( o               ",
"              X  .Y.[.R.;.q $ % k `.).).L.| % - . . . % b o.g.j.j.h + $ 0 -.-.-.-.( o               ",
"              X  .J.B.1.( m m j | U.U.U.z.o.0 0 0 0 0 0 } ;.h.j.k.| j j x ( b ( ;.( X               ",
"              X  .j.$ X X C.{.Y.z.+.+.+.+.+.@.@.@.@.-.@.@.@.+.+.+.k.Y.x. .X O + O.( X               ",
"              o - w Z.Z.s.g.g.f.} ; ; ; ; ; ; ; ; ; ; ; = ; ; = = } f.f.f.s.s.#.> = o               ",
"              o ; h U.U.z.o.) _ n S k S S S S S S S S S S S k S S n } ) o.z.z.j.h : o               ",
"              X  .Y.-.@.-.8 X X F 2X2X2X2X2X2X2X:X2X2X2X,X2X2X,X2XK # X 8 ;.+.-.Y. .X               ",
"          X 7 ..s.-.0 8 8 <.G.D.!.2X2X2X2X:X2X,X2X,X2X,X2X:X2X2X2X!.G.G.<.8 5 0 $.s...7 X           ",
"          = m l.+.} = - , 7.<X%X%X%X>X,X2X2X2X,X1X2X2X2X2X2X2X>X_.%X%X<X7., $ $ } +.P.x -           ",
"      o - K.h.;.6 + c 3.2XL X o X X D.3X2X2X2X,X2X2X,X,X1X2X2XD.X o o X D *X>.2 + 7 ;.@.X.+ o       ",
"      O + j  .].k O c 2.2XG.4.4.5.4.%X2X2X:X2X].(.(.].2X2X2X2X%X4.4.4.4.F.-X>.2 o q I.] 0 + O       ",
"      o o # F 4XL + c 2.,X,X2X4X3X>X:X2X2X2X2X8.*.*.8.2X2X2X1X3X4X,X>X2X,X-X>.2 o L =XD X o o       ",
"          X L 3XL o c 2.3X,X3X6X$X+ G.2X2X2X2X8.*.*.8.2X2X2X:X5X6X! , ;X:X-X>.3 o D =XD X           ",
"          1 L 3XL O y 2.2X2X,X#XR 1 D.3X,X2X2X8.*.*.8.2X1X2X2X&X#XC * ;X:X*X>.9 o L =XD X           ",
"          X L 2XL O / 3.,X,X;X- O O D.2X:X:X2X8.*.*.8.:X:X:X2XD.o o < ;X=X*X>.9 o e *XD X           ",
"              , @ @ ~ ' >.].2X<X%X%X>X:X3.' ' [ =.&.&.' ' 3.:X>X%X%X%X2X^.v y 3 + $ ,               ",
"              O o @ q r ^ 2.~.~.~.~.~.Q.^ ^ ^ { [ [ { / ^ ) Q.^.~.~.~.^.2.3 9 4 + o o               ",
"                    X 4 ) ^ ^ ^ ~ ~ ~ ~ ^ ^ ^ ^ ~ ~ ~ ^ ^ ~ / ~ / ~ / t t t = o                     ",
"                      $ : r ^ ^ ^ ^ ^ ^ ^ r = : = - : : r ^ ~ / y y y t 9 $ $                       ",
"                        X q r z z z z z ^ r - $ = $ $ $ z ~ z t 6 9 9 9 4 X                         ",
"                          O o O o o o + / ^ ^ ( ^ ^ ^ ^ ^ c @ O o o o o o                           ",
"                                o o i a ! ,.V M M M M M U P i & o o                                 ",
"                                  % f r.XXy.w.q.q.q.q.r.T Q A i O                                   ",
"                              o . q.t.XXK.Z.oXr.B e.r. XZ.K.XXT p & X                               ",
"                            + i a q.y.+XH.H.oXy.u.u.y.oXH.H.+Xt.d i & O                             ",
"                          O % N N N t.OXoXoXoXoX|. X X X X X+Xt.q.d p O O                           ",
"                          o O N d % R OXOX}.G G Z G G Z }.oXQ J % u p O O                           ",
"                          o O N a 1 R +X+X|.Y Y Y Y Y Y |..XE H o u p O O                           ",
"                          O % N a o R +XoXoXOXOX+X+X+X+X X.XE Z o u p O O                           ",
"                        X 5._.<X5.X R +XoXoXoXOX+X+X.X+X}.E E H X ,.Q./.<.X                         ",
"                        X S.2X2XS.1 R +XoXoX|.Q Q Q }.|.Q W E H X 6.=X=X6.X                         ",
"                        X 6.-X=X6.1 R OX X|.E < 1 o < E E W W Z 1 6.-X-X6.X                         ",
"                          k D D w X R @X}.Y C <     < C R |.E Z o w D D e                           ",
"                          X X X X o R .XE Z X         1 R .XE H o o X 1 X                           ",
"                                  X W .XE H o         X W .XE Z o                                   ",
"                                  o F ,.P k X         X K ,.P k o                                   ",
"                                  X t ~ t 4 o         o t ~ 3 4 o                                   "
};
