/* XPM */
static char *giphy_1_6__dragged___1__resized[] = {
/* columns rows colors chars-per-pixel */
"50 50 162 2 ",
"   c None",
".  c #020303",
"X  c #0D0C0D",
"o  c #130F0A",
"O  c #180B06",
"+  c #191107",
"@  c #14100C",
"#  c #1E150A",
"$  c #100F10",
"%  c #141313",
"&  c #181717",
"*  c #171718",
"=  c #181718",
"-  c #1C1B1B",
";  c #20170B",
":  c #241A0C",
">  c #2A1E0E",
",  c #211D1E",
"<  c #2F220F",
"1  c #31230F",
"2  c #292218",
"3  c #352612",
"4  c #3C2B13",
"5  c #362A1B",
"6  c #1F1F20",
"7  c #211F20",
"8  c #242324",
"9  c #282526",
"0  c #282728",
"q  c #2C2B2C",
"w  c #2E2A24",
"e  c #3F2F20",
"r  c #302D2E",
"t  c #372F24",
"y  c #3D332B",
"u  c #2F2E30",
"i  c #302F30",
"p  c #343234",
"a  c #393334",
"s  c #373638",
"d  c #383739",
"f  c #3C3B3D",
"g  c #42190D",
"h  c #4E240B",
"j  c #5A2B0C",
"k  c #412E15",
"l  c #402A1E",
"z  c #453115",
"x  c #4C3617",
"c  c #4D3718",
"v  c #4F3818",
"b  c #563E1A",
"n  c #583F1A",
"m  c #64350D",
"M  c #6F3C10",
"N  c #40372C",
"B  c #513D2A",
"V  c #423B3C",
"C  c #4B3C3D",
"Z  c #5B411B",
"A  c #6A4210",
"S  c #7D4B11",
"D  c #774719",
"F  c #584A3D",
"G  c #754928",
"H  c #785237",
"J  c #3F3E40",
"K  c #403F41",
"L  c #414042",
"P  c #4B4243",
"I  c #4B4A4C",
"U  c #534B4B",
"Y  c #584D4E",
"T  c #4F4F50",
"R  c #574F50",
"E  c #535253",
"W  c #5C5153",
"Q  c #5C5C5D",
"!  c #604C4D",
"~  c #625455",
"^  c #6C5B5C",
"/  c #635A52",
"(  c #6D6152",
")  c #6E5F60",
"_  c #626263",
"`  c #686768",
"'  c #6C6C6C",
"]  c #696568",
"[  c #706162",
"{  c #776668",
"}  c #7C6A6B",
"|  c #7F7669",
" . c #706F70",
".. c #767676",
"X. c #7B7B7B",
"o. c #865615",
"O. c #986A25",
"+. c #A37222",
"@. c #8B6948",
"#. c #936F4C",
"$. c #A87E56",
"%. c #806E70",
"&. c #8D7B7C",
"*. c #977B7D",
"=. c #BE923A",
"-. c #AA8159",
";. c #B4885C",
":. c #BC8E61",
">. c #D1AA4C",
",. c #D7B357",
"<. c #C19264",
"1. c #EACE7C",
"2. c #848484",
"3. c #878888",
"4. c #8D8D8D",
"5. c #958182",
"6. c #9F888A",
"7. c #949494",
"8. c #9C9D9D",
"9. c #AE9395",
"0. c #AD9698",
"q. c #B89294",
"w. c #9F9FA0",
"e. c #BF9EA0",
"r. c #A4A4A4",
"t. c #AAAAAA",
"y. c #B5B1AC",
"u. c #B1B2B2",
"i. c #BCBCBC",
"p. c #C4A1A4",
"a. c #C8ACAE",
"s. c #CCB1B3",
"d. c #D7B7B9",
"f. c #E6BBBE",
"g. c #FAE89F",
"h. c #DCBEC1",
"j. c #E9BDC0",
"k. c #C3C4C4",
"l. c #C7C8C8",
"z. c #CACBCB",
"x. c #C9C8C6",
"c. c #CFD0D0",
"v. c #D4D5D5",
"b. c #D7D8D8",
"n. c #DCDCDC",
"m. c #ECCBCE",
"M. c #E4C5C8",
"N. c #F1CACD",
"B. c #F9CED1",
"V. c #FCD3D6",
"C. c #FDD9DC",
"Z. c #E0E0DF",
"A. c #FFFFDA",
"S. c #FFDEE1",
"D. c #DFE0E0",
"F. c #E4E5E5",
"G. c #EBECEC",
"H. c #F3F4F4",
"J. c #F6F8F7",
"K. c #F7F7F8",
"L. c #F7F8F8",
"P. c #FFFFFF",
/* pixels */
"                                                                                                    ",
"                                                                                                    ",
"                      M m j m                                                                       ",
"                    h +.>.=.o.                                                                      ",
"                  g S ,.A.g.+.h                                                                     ",
"                    S =.1.,.O.G l                                                                   ",
"                      S o.A D H -.-.                                                                ",
"                              O l -.;.                                                              ",
"                                  B :.#.                                                            ",
"                                    @.<.y J L L                                                     ",
"                                  L F -./ ` _ I 8                                                   ",
"                              T _ ` Q T L L 2.q -                                                   ",
"                            7 f L J d d 9 9 t.W - &                                                 ",
"                              d J L L L r , X.2.& = - u I                                           ",
"                              q L L J J i & q V , , 0 K ) _ I 0                                     ",
"                            & - 0 0 8 6 , - , , 9 r f K f Q t.7.f                                   ",
"                          u 9 7 6 7 7 7 7 9 q i V K K K K K R ` I d 8                               ",
"                        p J d p u q r r i d K K K K K K K K J J K K f - *                           ",
"                      u K K L L K f q 9 w q i J K K K K K L J d J K K 6 p -                         ",
"                    8 J L L L L K i p s r K f q s K K K L K K p p L s 0 f -                         ",
"                    p J L L J L K K K q r p.d.q.Y 7 p K L K L J d d a f q { ^                       ",
"                  8 d K L L L L K p d f a d.V.V.N.5.r q J L J u p s d 9 ~ j.q.                      ",
"                  q f L L L L L f p i K r p.C.C.S.C.d.^ i q 0 * i - a } M.C.f.C                     ",
"                  q f L L J L L f i u K q 5.C.C.C.S.d.~ K 5.6.&.a f 9.[ [ m.B.)                     ",
"                = u J L L L J J J q i f i Y N.V.V.S.&.$ Y m.S.j.P K %.& V d.V.{                     ",
"                - u d L J s u J K q i d J i e.S.C.V.5.o ~ s.C.N.R f [ % ~ a.f.!                     ",
"                * u d J p 8 * 6 K f i s K u E 0.} ~ f $ X K *.q.C f ~ 8 . r U                       ",
"                * u d f 0 8 % 0 K K d s s 7 6 u i p i d d d i a 9 i q p p d 8                       ",
"                  q p q 0 - = J K L L K s s J i i I Q Q I K K K d d J J f d 8                       ",
"                  8 u 0 0 % i K K L L K J J 0 u 2.v.F.D.z.w.' P J J f d p p p                       ",
"                  - 0 0 7 % J K L K L L J 0 0 J 7.c.G.H.J.H.F.z.r.X.` E E f 9                       ",
"                    6 0 - * K L L L L L i 6 p 2.h.w.7.t.i.v.F.G.G.G.F.v.u.                          ",
"                      8 - % J L K L L K 8 8 d 8.L.H.G.v.l.k.l.b.G.H.H.u.                            ",
"                      8 8 X p K L K K f 8 8 d 3.G.H.H.H.L.H.G.D.c.v.D.3.                            ",
"                      8 0 X 6 d K f 0 6 6 - i I u.D.F.n.i.3.` E I I T ' Q                           ",
"                        q - $ q p 0 8 8 - - q u L Q Q T K p i i p J d I i.v.x.r.                    ",
"                        8 8 $ 0 i q 8 0 8 - q K K K f L f s q - 8 ` ..i.P.P.P.H.r.                  ",
"                          E r.i._ q 8 - 0 8 % q d d s p q 9       ..G.P.P.P.P.G.7.                  ",
"                        ` z.b.i.v.l.7.L - 0 - $ = =                 H.P.P.P.P.t.                    ",
"                        w r.D.K.P.P.L.i.f 8 0 $ .                   v.P.P.v.i.                      ",
"                      + t n.P.P.P.P.P.b.I % 0 = .                   4.Z.z.                          ",
"                      + y F.P.P.P.P.z...    0 6 .                                                   ",
"                      + 5 x.P.G.x.z.X.      9 8 X                                                   ",
"                        < ( y.%.5           9 9 $                                                   ",
"                        # x Z b c           2 8 %                                                   ",
"                        + 4 Z Z x         : 3 3 < #   3                                             ",
"                          # 4 x 3         3 k 4 3 3 v n b z                                         ",
"                                          4 Z Z Z Z Z Z Z n <                                       ",
"                                          # 3 z c v c c z 1                                         ",
"                                            + # ; # # # +                                           "
};
