/* XPM */
static char *giphy_1_1__dragged___1___1__resized[] = {
/* columns rows colors chars-per-pixel */
"50 50 158 2 ",
"   c None",
".  c #050505",
"X  c #0C0C0C",
"o  c #140F09",
"O  c #1C140A",
"+  c #100F10",
"@  c #141314",
"#  c #171718",
"$  c #1D1B1C",
"%  c #1A1718",
"&  c #20170B",
"*  c #251A0C",
"=  c #2B1E0E",
"-  c #33100B",
";  c #201D1D",
":  c #2C200F",
">  c #30220F",
",  c #282118",
"<  c #332411",
"1  c #3A2913",
"2  c #3A2516",
"3  c #1F1F20",
"4  c #211F20",
"5  c #242324",
"6  c #2A2627",
"7  c #272728",
"8  c #282728",
"9  c #2C2A2B",
"0  c #312D2E",
"q  c #2F2E30",
"w  c #312F31",
"e  c #343234",
"r  c #3B3435",
"t  c #373638",
"y  c #393739",
"u  c #3B3A3C",
"i  c #4D1B10",
"p  c #4D210D",
"a  c #57250D",
"s  c #412E15",
"d  c #462B1F",
"f  c #453115",
"g  c #4A3517",
"h  c #4D3718",
"j  c #4F3818",
"k  c #543C19",
"l  c #583F1A",
"z  c #6B3510",
"x  c #433C3D",
"c  c #5C411B",
"v  c #784912",
"b  c #53422A",
"n  c #564636",
"m  c #7E4E28",
"M  c #664A32",
"N  c #6F553B",
"B  c #3F3E40",
"V  c #403F41",
"C  c #414042",
"Z  c #4F4445",
"A  c #484749",
"S  c #4B4A4B",
"D  c #584748",
"F  c #544B4D",
"G  c #57514C",
"H  c #4E4E50",
"J  c #535457",
"K  c #5B5B5C",
"L  c #5A5456",
"P  c #7E5F40",
"I  c #655456",
"U  c #645B59",
"Y  c #5F5F61",
"T  c #6E5F60",
"R  c #646465",
"E  c #6D6C6C",
"W  c #666668",
"Q  c #736365",
"!  c #7C6C6D",
"~  c #73726F",
"^  c #707071",
"/  c #777778",
"(  c #7B7B7C",
")  c #814F11",
"_  c #845313",
"`  c #885516",
"'  c #97671D",
"]  c #815B3E",
"[  c #9C6E23",
"{  c #A26F21",
"}  c #AE7B28",
"|  c #876645",
" . c #9A744E",
".. c #826B54",
"X. c #886B6D",
"o. c #8B6E70",
"O. c #857375",
"+. c #8A7879",
"@. c #917D7E",
"#. c #BA8831",
"$. c #C3983B",
"%. c #AA8158",
"&. c #CDA347",
"*. c #DAB24F",
"=. c #C39363",
"-. c #EBCD7B",
";. c #7F8081",
":. c #848484",
">. c #8B8B8B",
",. c #9A8586",
"<. c #939494",
"1. c #9C9D9D",
"2. c #A58C8E",
"3. c #AA9193",
"4. c #BA989A",
"5. c #A1A1A1",
"6. c #A7A8A8",
"7. c #AEAEAE",
"8. c #B9A1A3",
"9. c #AFB0B0",
"0. c #B2B2B2",
"q. c #BCBCBC",
"w. c #C7A6A8",
"e. c #CBAFB2",
"r. c #D7B8BA",
"t. c #D8B5B8",
"y. c #E0B9BC",
"u. c #F8E59A",
"i. c #F8E5A2",
"p. c #E9BEC1",
"a. c #BFC0C0",
"s. c #C2C2C2",
"d. c #C7C8C9",
"f. c #CBCBCB",
"g. c #D4D4D4",
"h. c #D8D7D7",
"j. c #D7D7D8",
"k. c #D7D8D8",
"l. c #DCDCDC",
"z. c #ECCACC",
"x. c #E9C3C6",
"c. c #F7CCCF",
"v. c #F8CBCE",
"b. c #EECED1",
"n. c #FCCFD3",
"m. c #FBD1D4",
"M. c #FCD6D9",
"N. c #FDDADD",
"B. c #F2D2D5",
"V. c #FFFDD0",
"C. c #FFDDE0",
"Z. c #DFE0E0",
"A. c #E3E3E4",
"S. c #ECECEC",
"D. c #E6E8E8",
"F. c #EFF0F0",
"G. c #F3F4F4",
"H. c #FEFEFE",
/* pixels */
"                                                                                                    ",
"                                                                                                    ",
"                      z   a z                                                                       ",
"                    p ' $.#.`                                                                       ",
"                    ) *.V.u.} m d                                                                   ",
"                    _ &.u.u.[ ` ] n                                                                 ",
"                  i   ` ' ` v 2 M  .]                                                               ",
"                              -   | =.                                                              ",
"                                    %. .                                                            ",
"                                    P =.n J K J 9                                                   ",
"                                H K G ..K R Y w ;                                                   ",
"                            5 H Y J H B q e 5.y ; @                                                 ",
"                              t u u B u 6 4 1.E ; @ @                                               ",
"                              t B C C B w ; U ( % $ 4 y R A                                         ",
"                              5 u u y e 6 % ; 5 ; 4 w V S W ( A                                     ",
"                            $ ; 4 3 3 3 ; ; 4 5 0 r V C V H <.5.A 6                                 ",
"                        7 y 9 5 4 4 4 6 6 9 e u V V C C V V V S C B q                               ",
"                      3 u V B u y y e 9 q t V V V V V C C C V V C C C $ 3                           ",
"                      t V V C C V t 6 q 9 9 9 y C V V C V V V e y C B 4 y $                         ",
"                    9 V C C C B V y u w 6 Q T x 9 y C C C V V t e V q e u 9                         ",
"                  $ e C C C C C V B B q w t.v.y.@.0 6 V C V V y u y y u 9 2.o.                      ",
"                  5 u C C B C C V w t B 0 t.M.n.N.e.L 6 t B B 7 e 9 9 9 @.v.w.6                     ",
"                  9 u B C C C C u w w B 9 4.M.N.N.N.b.O.x e 0 6 e 5 I ,.p.N.x.D                     ",
"                # q u C C C C C u w q B 6 O.C.M.M.C.8.r r w.r.4.r x 3.Z r r.M.Q                     ",
"                $ q u C C C B C B 9 w y r V p.M.M.C.+.X ! B.M.p.F V Q + U z.v.Q                     ",
"                $ q u B u q 7 e B w w t V 9 2.C.z.y.+.X w 2.n.z.G u Q @ 0 ,.w.                      ",
"                # q t e 7 7 3 @ B B w r V 9 r Q Z r 6 $ % 0 I X.r y Z 6 X 4 6                       ",
"                  q 7 7 5 # @ 7 V V V u w 4 6 e e y y u u V u w 7 0 e t u V 6                       ",
"                  4 7 3 @ 5 u C V V C C u B y 9 u W :.;.R A u u u u C V t e 5                       ",
"                  5 5 + q V V C V C C V C y 6 t 1.S.G.F.D.d.<.R A u u y e y t                       ",
"                5 7 + 3 B B V C V C V C u 4 9 S >.7.g.D.F.G.F.D.d.6.>./ ^ t X           :.<.(       ",
"                8 # + q e B C C C C C C w 4 t <.Z.q.5.5.7.d.g.A.F.F.F.k.1.e X . e 1.:.g.F.G.k.(     ",
"              5 8 X . 8 e t u C V C C V 5 5 t 1.G.G.G.S.Z.k.k.A.F.G.G.5.$ 5 8 5 :.A.d.H.H.H.D.E     ",
"              8 5 .     7 e t B V V u u 5 5 t ( D.G.G.G.G.S.k.a.9.9.a.:.      7 a.f.l.H.H.H.G.>.    ",
"              5 $ .       7 q e u 9 5 $ 5 5 8 u <.d.f.q.<.W S C u V B 3         >.5.H.H.H.H.l.      ",
"              S A 7         5 9 q 7 8 $ # u e e t A A V t e q 8 9 e t 7             g.H.H.G.:.      ",
"            5.l.Z.0.            5 5 9 5 @ e B B C V C V u t 8 $                       s.S.l.        ",
"          ^ s.f.f.s.:.              8 8 + 5 e e e e q 9 8 3 X                                       ",
"          h.H.H.H.H.A.>.            8 5 @ X             5 8 $ .                                     ",
"        7.H.H.H.H.H.H.s.            8 5 @                 5 8 # .                                   ",
"        a.H.H.H.H.H.H.a.          5 8 5 X                   8 5 X                                   ",
"          9.<.q.h.>.^ U         7 8 7 # .                   3 8 $ .                                 ",
"              1 b f = = $ 7 8 9 8 5 @ .                       5 7 @                                 ",
"            * g c k < 1 $ 5 3 $ @ X                           5 8 # .                               ",
"            = j c k < 1 o . .                                   , , * O < g h f                     ",
"            * g c c 1 * &                                     = 1 1 < < k c c c 1                   ",
"            & < c c g j k g <                                 = g g k k c c k g *                   ",
"              : f k c c c c g                                 = j l c k h s < &                     ",
"                = < f j k h 1                                   O : : = O O                         ",
"                    * * * O                                                                         "
};
