/* XPM */
static char *soil_stone_resized[] = {
/* columns rows colors chars-per-pixel */
"50 50 200 2 ",
"   c #36261F",
".  c #38271F",
"X  c #3B281F",
"o  c #2D2422",
"O  c #302624",
"+  c #342927",
"@  c #3D2A21",
"#  c #372B28",
"$  c #3B2D2A",
"%  c #3D302B",
"&  c #353936",
"*  c #3E3C37",
"=  c #323F3F",
"-  c #442C1F",
";  c #53341F",
":  c #5B371F",
">  c #5E381E",
",  c #61391D",
"<  c #452E21",
"1  c #473124",
"2  c #4C3221",
"3  c #43332D",
"4  c #4B3529",
"5  c #4D3A2D",
"6  c #523521",
"7  c #583620",
"8  c #563A26",
"9  c #5C3B26",
"0  c #533A2B",
"q  c #5B3E2D",
"w  c #453530",
"e  c #493731",
"r  c #423C35",
"t  c #4D3A34",
"y  c #523D36",
"u  c #533F38",
"i  c #37403E",
"p  c #5E402D",
"a  c #42423A",
"s  c #4C463B",
"d  c #554037",
"f  c #5C4235",
"g  c #56413A",
"h  c #5B443C",
"j  c #67432C",
"k  c #634533",
"l  c #62463D",
"z  c #64493D",
"x  c #6A4838",
"c  c #6A4A3C",
"v  c #724B3C",
"b  c #1B3D43",
"n  c #1B454C",
"m  c #17484F",
"M  c #1A484F",
"N  c #164D55",
"B  c #1D4B53",
"V  c #13535C",
"C  c #1C575B",
"Z  c #1C565C",
"A  c #274549",
"S  c #234C4F",
"D  c #334342",
"F  c #3B4947",
"G  c #304B4C",
"H  c #3D524C",
"J  c #214D53",
"K  c #2A4E54",
"L  c #295554",
"P  c #235258",
"I  c #2C565C",
"U  c #24585D",
"Y  c #365651",
"T  c #34595A",
"R  c #0C5964",
"E  c #175D64",
"W  c #2C5B60",
"Q  c #0D6267",
"!  c #0C646B",
"~  c #0B686E",
"^  c #1A676A",
"/  c #15696E",
"(  c #046D74",
")  c #186F73",
"_  c #107578",
"`  c #286567",
"'  c #2B6469",
"]  c #36656A",
"[  c #276E72",
"{  c #277375",
"}  c #5E4740",
"|  c #5E4A44",
" . c #5B564F",
".. c #435455",
"X. c #4A5958",
"o. c #555653",
"O. c #604740",
"+. c #644B43",
"@. c #6A4E45",
"#. c #674F48",
"$. c #6A4F48",
"%. c #724D41",
"&. c #6D5246",
"*. c #6D524A",
"=. c #735145",
"-. c #7C5245",
";. c #72554B",
":. c #7C564B",
">. c #75594E",
",. c #7B5A4E",
"<. c #665F5B",
"1. c #765A50",
"2. c #7B5D53",
"3. c #7E6056",
"4. c #7D635B",
"5. c #435E60",
"6. c #486C6E",
"7. c #576767",
"8. c #5C716C",
"9. c #4A7373",
"0. c #467977",
"q. c #547572",
"w. c #6C6B67",
"e. c #736B66",
"r. c #7C6A63",
"t. c #69726E",
"y. c #7B726D",
"u. c #687775",
"i. c #767772",
"p. c #7A7973",
"a. c #825447",
"s. c #845649",
"d. c #88574A",
"f. c #855A4D",
"g. c #8C5B4D",
"h. c #915D4E",
"j. c #825E53",
"k. c #8E5E51",
"l. c #935F50",
"z. c #836156",
"x. c #8D6255",
"c. c #84645A",
"v. c #8A655A",
"b. c #84695F",
"n. c #8B695E",
"m. c #946355",
"M. c #996557",
"N. c #936558",
"B. c #93685C",
"V. c #9A6A5C",
"C. c #A16D5F",
"Z. c #866960",
"A. c #8D6D62",
"S. c #926E62",
"D. c #9A6D60",
"F. c #8B7168",
"G. c #8B756D",
"H. c #947166",
"J. c #9D7265",
"K. c #95746A",
"L. c #9A766A",
"P. c #9D796D",
"I. c #827872",
"U. c #8C7C74",
"Y. c #947D74",
"T. c #9C7C72",
"R. c #A06F60",
"E. c #A37365",
"W. c #A87667",
"Q. c #A27569",
"!. c #A4796D",
"~. c #AB7B6D",
"^. c #A47D72",
"/. c #AA7E71",
"(. c #8E8078",
"). c #958178",
"_. c #9B847A",
"`. c #A58174",
"'. c #AA8276",
"]. c #A38479",
"[. c #AC8679",
"{. c #A6887D",
"}. c #AE897C",
"|. c #B38375",
" X c #B88677",
".X c #B0867A",
"XX c #B28A7D",
"oX c #BB8B7B",
"OX c #C08F7F",
"+X c #C1907F",
"@X c #AE8D81",
"#X c #B58D80",
"$X c #BB8F80",
"%X c #B69287",
"&X c #BB9285",
"*X c #BC9689",
"=X c #C29282",
"-X c #C3988A",
";X c #CB9B8C",
":X c #CE9F90",
/* pixels */
"6 2 .     @ % & D i % G P i i s < < < < < < 1 2 6 6 6 6 ; 6 6 6 6 6 6 7 7 7 : 6 2 2 - 2 6 6 6 6 6 6 ",
"6 2   . @ r * = n V F C A * 1 < - < < < < < < < 6 6 2 2 p =.v q 7 7 > > > 7 - - .   . X < 2 6 2 2 6 ",
"6 6 - < < 1 * G i b A n S A i * 4 2 < < < < < < 2 2 6 x E.W.C.N.j , : ; 1 @     X < - < < 2 6 6 2 6 ",
"6 2 2 2 < r C R N n n Q n n N M i < < < < < < < < ; p '.:XOXOX~.%.6 < @ @ @ @ < < < < < < < 6 6 2 ; ",
"2 ; 6 ; 5 C ( ^ I ~ Q ) ] / Q L 2 1 1 - - 2 < < 2 6 x.=XOXW. X|.-.t @ O @ < < < < < < < < 2 6 6 6 6 ",
"6 < ; : H _ [ N V ( ~ C ! J & i * 1 - - < < < < 2 k |.:X:X~. XE.a.q @ < < < < < < < < < < 2 7 2 2 6 ",
"6 2 < 5 ` Y F N / _ V V V W < 1 r s - 1 < - - 2 ; =.E. X+X+X=XJ.a.l y < < < < < < < < < < 6 2 2 6 6 ",
"6 6 ; s ..6 a G ' Y n E W S < - - < - - 1 4 8 p k f.J. X~.=XoXC.h.c f < - < < < < < < < 6 2 2 6 7 7 ",
"2 2 ; 5 p - a a X.s n E  . .&.&.&.&.1.c.n.H.P.^.`.V.~.-X X XW.s.l.-.l @.q 4 < < < < 2 6 ; < ; > : 6 ",
"< < < 2 ; 2 2 a p 2 G ..z P.}.[.'.`.~.~.`.[.}.}.}.V.E.|.W.M.V.m.s.d.%.2.^.S.;.0 < 2 6 ; ; 2 : , 6 < ",
"< < < < 2 6 2 1 p p e.`.l c D.`.D.|.E.g.j.!.XX}.}.x.g.M.g.l.C.h.d.h.c *.[.@X}.T.>.p ; ; 1 2 : > 6 < ",
"< < < < 6 x ,.A.).`.[.}.H.h S.+X|. X!.m.d.:.!.[.'.x.f.M.d.E.|.g.M.V.l ,.^.}.[..X`.H.,.x 0 6 : , 6 < ",
"< < 1 c P.}.}.}.[.'.W.'.'.R.&X;X+X~.oX'.a.%.j.[..X'.c.=.m.V.s.f.=.%.>.^.[.T.G.G.`.(.G.G.K.c.x , 2 < ",
"< 2 v.XXXX}.}.}.}.|.`.E.k.f.E.+X|.+X+Xm.s.c z ^.'.[..X`.L.S.v.v.v.L.'.@X].r. .I 7.N X.y.'.}.`.f.6 - ",
"< >.XXXX}.XX}.}.`.oXoX|.k.v k.D.g.|.|.v f.2.x.~.E.x.P.}.}.}.}.}.XX}.}.}.^.e...M n = L ] ).XX@X'.>.< ",
"< z b.K.`.'.`.Q.N.N.E.`.:.=.,.c j.x.c =.&.x.oX X|.x.,.'.#XXXXXXX[.'.^.^.r.T C U Q ' 7.{ [ )..X}.^.@.",
"0 >.F.Q.[..X[.[.!.S.Z.j.j.P./.Q.H.S.n.A.Q.D.D.!.~.s.;.^./.!.!.!.Q.!.^.!.[._.Y.Y.' 9.!.Y.9.q.'.[.}.H.",
"^.}.#X@X@X[.@X.X@X.X@X/.[.@X/.!.~.'.}.}.@X/.v.j.2.j.K./.[.[././.~./.!.J./.@X.X@Xu.@X[.[.T.p._.XX}.}.",
"XX}.[..X[..X@X[..X@X@X[.@X/.!.!.Q.~.XX&X#X.X/./.^./././.Q./.oXQ. XoXW.d.f.k.T.[.[..X.X@X'./.}.}.}.}.",
"^.}.@X.X[.@X[.@X.X[.@X/./.!.~.@XXX&XXXXX@X#X#X@X@X/./.oX~./. XQ. X$X=XM.g.g.j.A.[.}.}..X[.^.}.}.}.}.",
"2.}.}.}.@X/.Q.Q.!.!.!.Q.^.U.y.i.I.[.Y.p.Y.Y.T.@X}.D.!.:XOXW.oX=X/.~.=X~.g.l.k.l 2.[.}.}.}.^.[.}.}.`.",
"y n.[.[./.!./.#X@X/./.@XY.e.o.M E w.' K o.<.G.[.^.m.l.oX/.oX;XoX~./.W.l.g.s.%.j.O.L.XX}.}.'.'.#X.X>.",
"2 l >.B./.#X@X.X[.@X@X.X@Xu.7.F b K m T e.Q.~.^.Q.n.:.k.s.W.oXM.l.~.k.l.f.+.l =.2.'.XX}..X#X'.T.3.0 ",
"- y g 1.#X[..X@X[.@X/.@X6.R R B b n V b n 5.y.^.}./.D.2.:.v.@.%.$.=.j.:.l =.,.j.XX=X*X-X#X^.1.+.&.1 ",
"< 4 h *.XX#X}.}.}.}.[.9.( { t.e./ ! [ P E Z 5.Y..X@X/.^.'.T.H.v.j.A.H.H.P.^.[./.!.[.].c.3.&.h ,.&.2 ",
"6 ; f +.n.!.'.[.}.XXi._ 0.F..X[.{ E y.Y.I.U.@X@X}.}.}.^.^.'././.}.}..X#X}.#X@X@X}.#X3.t 1.@.;.z.p ; ",
"6 6 8 h >.c.b.H.P.T.0.8.1.u | S.u.' ^.@X@X@X@X/.[.[.}.}.!.Q.[.@X}.}.}.}.@X^.A.H.L.^.K.h 2.+.c.>.6 6 ",
"6 6 6 f @.3.3.3.z.4.w.h r e u h 1.t.].#X@X.X#X@X#X#X#X#X#X#X-X$X#X#X}.@XA.h +.>.c.3.h #.>.&.c.c 6 6 ",
"6 6 ; p l 2.2.3.3.c.c.h u t l @.;.n.[.&X@XL.A.Q.Q.L.L.K.D.Z.j.K.L.^.#X3.3 g 2.v.n.>.u 1.#.>.2.j : 6 ",
"6 6 2 8 h >.2.2.2.2.3.#.d u l =.j.A.S.S.2.w e u ;.2.2.2.1.u } $.#.1.c.w 3 +.z.c.c.+.+.>.+.2.>.> 6 2 ",
"1 < 1 p K.F.3.1.1.2.3.3.h y h ;.A.K.S.H.2.w y 1.K.L.H.c.2.g +.$.*.c.;.3 t ;.A.K.P.K.n.;.l 2.z X X < ",
"< < < f }.%X@XT.K.T.3.2.| y g &.;.*.1.2.2.y y v.^.@X^.c.1.h $.*.2.c.+.3 u >.c.T.'.^.^.2.&.;.s   < < ",
"< < < 1 &.A.`.@X}.Z.+.>.#.y y @.;.@.O.h u t t #.;.Z.| +.$.} $.>.2.2.u w h 1.1.3.T.b.;.g ;.@.$ X < < ",
"< < < < 1 t d } t e h *.&.d t +.%.@.$.>.h u t +.$.*.g #.+.O.;.;.1.1.w e +.2.2.2.h e y h ;.5 . < < < ",
"< < < < < 4 d g d e g +.#.d t l @.O.} >.$.u y } $.#.} +.O.$.*.$.1.$.w y *.1.2.#.t h l h k X . < < < ",
"< < < < < < 5 d h t t +.+.g t h $.$.#.2.1.h h +.#.#.u } } *.*.} ;.u e u *.2.1.u +.@.0 6 : X < < < < ",
"< < < < < < 4 d g g t g h h t d @.A.}.#X{.c.2.c.2.1.} u O.;.} y u e y +.*.j.| h +.x 2 6 6 - < < < < ",
"< < < < < < 1 0 u g y d h g t t l O.c.%X*X].c.c.A.H.>.u #.#.u t e w u *.@.$.h O.z 9 6 2 6 < < < < < ",
"< 1 < < < < < 4 d g y t g d t t O.u *.4.1.u } 2.H.1.u u $.u u u 3 $ O.*.O.e e $ @ ; : 2 6 - < < < < ",
"< < < < < < < < 2 y d d h #.&.+.O.u | #.w e } c.1.u u } } e $ $ O o O.$.e $ @ @   < > 6 6 < < < < < ",
"< < < < < < < < < < 2 4 8 &.c.2.;.} e #.t e } 4.+.t y } t % O o o o 3 % % < - < < < 6 6 6 6 2 2 1 < ",
"2 < < 1 < < < < < < < 6 ; 8 ;.z.2.*.y } } w u 2.g e w e % 4 # o o o o 3 1 < < < < < < 6 6 6 6 6 2 2 ",
"; 6 2 2 < 2 2 1 2 2 6 6 2 2 0 2.1.>.+.t g w t *.g e 3 t t t # O + + % 1 < < < < < < < 2 6 6 2 2 6 6 ",
"6 6 ; 6 2 ; 2 2 2 6 2 2 2 2 2 c 1.;.&.e # * e O.y y h g d 3 $ # + 3 4 1 < < < < < < < 2 6 2 2 ; 6 6 ",
"6 2 1 2 2 2 2 2 2 ; 2 ; 2 6 ; p ;.;.=.t + $ w g u O.;.l t 3 # + 3 8 < < - < < < < < < 2 6 2 ; 6 6 6 ",
"6 6 6 6 2 ; : : : : > > , > : : c ;.*.h $ + $ t h ;.>.l w $ + 3 4 ; 6 ; 2 2 2 2 2 < 2 6 6 2 6 6 6 6 ",
"6 6 6 ; : > , > : : : : > > > , j =.$.+.$ + $ u ;.2.;.O.w # 3 0 6 2 2 6 6 6 6 ; 6 6 6 6 2 < 2 2 6 6 ",
"6 6 : : : ; 2 < - - - < X X - X < h $.@.t + $ l 2.2.@.O.w % 0 6 6 6 2 2 2 2 2 2 2 2 ; 2 2 2 6 6 2 6 ",
"6 ; ; 6 < X X                   o X s h d # 3 &.c.;.+.c t 0 6 6 6 6 6 6 6 6 6 2 2 2 2 2 2 6 6 ; 6 6 ",
"6 6 2 @                               @ 4 4 8 f ,.@.l k p 6 6 6 6 6 6 6 6 6 6 6 ; 6 2 6 6 6 6 6 6 6 "
};
