/* XPM */
static char *barrier_resized[] = {
/* columns rows colors chars-per-pixel */
"50 50 62 1 ",
"  c #232524",
". c #292B2A",
"X c #2F302F",
"o c #30312F",
"O c #323331",
"+ c #393936",
"@ c #3C3B39",
"# c #403F3C",
"$ c #42413E",
"% c #454441",
"& c #494743",
"* c #4B4945",
"= c #4F4C48",
"- c #504E4A",
"; c #55514D",
": c #58544F",
"> c #575450",
", c #5A5651",
"< c #5E5A55",
"1 c #615C57",
"2 c #635E59",
"3 c #66615C",
"4 c #69645E",
"5 c #6C6661",
"6 c #6F6863",
"7 c #736C66",
"8 c #766F68",
"9 c #786F69",
"0 c #77706A",
"q c #7C746D",
"w c #7E7770",
"e c #7F7871",
"r c #80766F",
"t c #807770",
"y c #847B74",
"u c #887E77",
"i c #897F78",
"p c #8C827A",
"a c #90867E",
"s c #928780",
"d c #948A82",
"f c #998E85",
"g c #9A9087",
"h c #9D9289",
"j c #A1968D",
"k c #A4988F",
"l c #A69A91",
"z c #AA9D94",
"x c #ADA097",
"c c #AFA298",
"v c #B2A59B",
"b c #B6A99F",
"n c #B7A9A0",
"m c #BBADA3",
"M c #BEB0A5",
"N c #C0B1A7",
"B c #C3B4AA",
"V c #C7B8AD",
"C c #C8B8AE",
"Z c #CCBCB2",
"A c #D0BFB4",
"S c #D2C1B6",
/* pixels */
"mMMMmBvp3xVMmxxpqq7kMnlnMMMMmMMVg<flBmnvqt1immllvM",
"NmmMmMvh4aNMczkut5txMccMnMMMMMmBBq8gydhyy92zMnlvMM",
"MMMMmBfp1*au0updu-fxBxMMMMmMMMMmnd+251<22@yvMzvMMM",
"MMMmMBu7=1-&*<74%#kmmvMMMMMMMMmczu*iwwtw7#yzmcMMMm",
"MMMNmaq=dvapjvkgq&hMbMMMMMMMMMcki:iBZZSZny2gmMMmmM",
"Nmmvuq;1BnzbNmNBx77vVmmMMMMMMxkp2<mZzcMMZm<tnVMMMM",
"mvzpq7+zNzbmzzbVBf3dBMMMMMmmvxp7&kZzzmMmnSf-gmVnMM",
"zzkru;4VkxzkzMNbVv06cVmMmNMvzky:6ZblnNMNmmZ;0hBBMn",
"zcfqr&lblzzzmMMMMBg<pMBmmjczzj0:bBkvMmMMmmSd%fkVvl",
"khyr42NczzzbNmMMmVvq,hbZxtjzjp3uVzzmmMMMMmBB<<hhnz",
"yyyy;aNxzzvmMMMmmMmf=;qe34jdy74cmzmMMMMMMMmZl;5lsi",
"211=odBxzvNmMMMMMMle;$444:;**+qbbxMMMmmMmMmVvp@252",
";19q;7xbzNMMmmMMmcd8,cVBVcq8ppqzMmMMMMMmmMcvc9#15,",
"jvNNk3uxVmNNMMNmxzp28ZcczbmNNlqumBmMMMMMMvlnz25nmz",
"bNbCNa3fmVmmMNmzxhq-pBlzlcMMZca8hVmMMmMmzzclq2lmnn",
"cvNbVz77lVnmNmzzly4%lNxxbNmMNmht0mVmmMmzzvdq2sBvzc",
"bMMmBng<pbZmbzkcpr$0BccMMMMMMVhg5dbBBbczzaq7qmnlzz",
"MMMMMBkt,knBbbmht1*bmvMMnMMmmMVlp5ghzchpqrq5zmzzzm",
"MMMMMMxh<1fzbjat0@uVMMMMMMMMmMMBk89jhpqqrr,anbzcmN",
"MMMMMMbg7 &7u63:+$zBmMMMMMMMMMMmza%%483,*@OfbvxMMM",
"MMMMMNpq17u7735td1dVmmMMMmMMMMvxjq#*ufgghp-pvmmmMM",
"MmMMmkt5pMnlgzVVnt3vBmMMMMMMMclxi4*zmBBNVBa7fvVmMM",
"MMMvzt06cmvvbVNMVl4tmBmMMMMMvlxgy-7BnzlxmVm0yhVBMM",
"MMxxdt2pMclzMMmmBBa5hBMMmmMxklzp9*hVzzxMNmZv7dzZbm",
"bcvhr71cbzzmMMmMMVzq0lmVBMxzvzpt,uBmzcmMMMmZpehnZN",
"vlary-pbmlvMMMmMmBxg<wlkzkjhduy1eVnlzbNmmMmNm7agzB",
"pqq7;-cNxzMMmMMMmMvfd&tq0tttr9;1mbxlvMMMmMMMBd5dgj",
"6,-%.7NmlbMMMMMMMczgf=O%$$*=&O.uNxlxMMMMMMMmvz2+,4",
"qphl77mvxNmMMMmMvzcf7=dy7qqtuu&7MxzMMMMMMMMxzf4ad7",
"mMVBk0dBmMMMMMNbxvge*pvvnMmmvzp:vvvNmMMMmMxxf60Bmb",
"vnmVbfqzVmmMMMbzzpy;5vMmbBBNVkh4pBmMMMMMMvzxu<pNlv",
"vmmmVlpqcBMMMbzzpq4*zmnhbmmmMBga4bBmmMMMblxa7=lmxx",
"MMMMNmj6pzVMbxllte%scmlbMMMMMNmh0uBNmmNmzzjt:6vNzx",
"MmMMMBcp3gkBvlvht25cmvcBMmMMmbVnp4kBNNnzzjt7,lbnzM",
"MmMmmmvk66jkbvxaw<hmnlmMmmMMNNNny*qxmbzzfrt1dnNxbN",
"MMMMmvzad$0p7q07&wMMknmMMMMMMNnlt*&pq9rr9q4qNNzmMM",
"mmMMvkyr7#&17q7<oqMcxMMMMMmMMnzfe*+pdq60q8%tCxvNMM",
"MMMnhqy7:jzvbmxje5xMmMMMMMMMmzzh8+uvvvvnmbf4jCnNMN",
"MMbf0t0$aNNbvbBNxewlMBMMMMMmzzla;$zmBmmmmZcy2vCNMm",
"Nbltr9O6bNzkzbmBMf0phMMMMMmczku7o7VMkzlzbmVl79nVbM",
"bzltt$3vNzlzzmNmBka3dgMMmMvlcpt=#cBkzxzmBmBmd4lBNm",
"vbzt1<bNvzzzcNNmMmh03hxZMbxxku4+fVxzzzmMmNmBlqsnZm",
"vjuy:abbkzzzbmNmmBlh=6klkkhhft&yNblzzbNMmNmVcapzvn",
"r777:kbbzzzzNNmNMMbhqo*,350yy;<kbzxxbNMNmNmNngwudf",
"71,&+pkblzlbNNmNNnvky+qdq<5yaq4gvczbNMNbmmNNnf7#4q",
"cvjfy3gvzlzMNmmNmccf26bMnkvccktpzNbNmNmmNNmva87klz",
"NBNzjq1lvlcNNmmNvzp0<lMmBBVVCch0axVMNmNmNnzp05kvBB",
"kzNZMj17bzbNMNNvzpw6pvMlzMBMMSxy<fmBmMmNmvaq4dvZbz",
"vNmmZvd:gmmMMNbxa00qzmblcmNmmBNf$7xVmMMbxgq3uvVvkz",
"NmNmNBkt0VMmMmvkqt7dcNzzmNmNNbVz,:jNNMbxzt93xBbkcx"
};
