/* XPM */
static char *stone_resized[] = {
/* columns rows colors chars-per-pixel */
"50 50 203 2 ",
"   c #080A07",
".  c #0C0D0C",
"X  c #0D100C",
"o  c #121512",
"O  c #161A15",
"+  c #191E17",
"@  c #191E18",
"#  c #1A2215",
"$  c #1C2319",
"%  c #1E2A1B",
"&  c #1F3219",
"*  c #24261B",
"=  c #29271D",
"-  c #222D1D",
";  c #2A2B1D",
":  c #36261F",
">  c #38271F",
",  c #332E1E",
"<  c #3B2B1F",
"1  c #23321D",
"2  c #28311A",
"3  c #263D1E",
"4  c #2A3C1E",
"5  c #242E22",
"6  c #3C2B21",
"7  c #3D2E28",
"8  c #253421",
"9  c #273A23",
"0  c #2A3C24",
"q  c #2D3929",
"w  c #363321",
"e  c #3D3321",
"r  c #333B23",
"t  c #3C3B21",
"y  c #31392D",
"u  c #363B32",
"i  c #442D1F",
"p  c #47341F",
"a  c #4D341E",
"s  c #51331F",
"d  c #5B371F",
"f  c #5D381E",
"g  c #61391E",
"h  c #452E21",
"j  c #492F21",
"k  c #443322",
"l  c #4C3221",
"z  c #433B22",
"x  c #4E3A21",
"c  c #4C392E",
"v  c #523521",
"b  c #583720",
"n  c #523825",
"m  c #5B3821",
"M  c #553C2C",
"N  c #593F2C",
"B  c #513F34",
"V  c #623D24",
"C  c #2A461F",
"Z  c #324E1F",
"A  c #2E501D",
"S  c #34551F",
"D  c #2C4323",
"F  c #2D4B23",
"G  c #2A4D2A",
"H  c #344423",
"J  c #3B4422",
"K  c #324C23",
"L  c #3A4823",
"P  c #334B2A",
"I  c #2E5222",
"U  c #345322",
"Y  c #395422",
"T  c #345B22",
"R  c #395C21",
"E  c #32522B",
"W  c #3C592E",
"Q  c #284731",
"!  c #384537",
"~  c #3B4D33",
"^  c #3A5835",
"/  c #3B6121",
"(  c #444422",
")  c #56422F",
"_  c #47493C",
"`  c #5D4433",
"'  c #504138",
"]  c #544C3D",
"[  c #5F493B",
"{  c #45573B",
"}  c #455839",
"|  c #624D3D",
" . c #6A4D38",
".. c #446537",
"X. c #524842",
"o. c #594C44",
"O. c #495445",
"+. c #495848",
"@. c #5C544A",
"#. c #575D49",
"$. c #5C584B",
"%. c #535850",
"&. c #604C40",
"*. c #655244",
"=. c #63544A",
"-. c #6A5A4E",
";. c #705C4E",
":. c #605751",
">. c #665C53",
",. c #6E5E52",
"<. c #645E5A",
"1. c #4C6446",
"2. c #49634E",
"3. c #506642",
"4. c #53644C",
"5. c #576848",
"6. c #577046",
"7. c #4F6950",
"8. c #5B6757",
"9. c #5D7154",
"0. c #636154",
"q. c #6A645A",
"w. c #6C635C",
"e. c #626B5C",
"r. c #76675C",
"t. c #74685E",
"y. c #647758",
"u. c #5E6C61",
"i. c #5B7762",
"p. c #636B63",
"a. c #696C65",
"s. c #726B64",
"d. c #7A6D63",
"f. c #746E69",
"g. c #627364",
"h. c #6B7463",
"j. c #6C7B64",
"k. c #677769",
"l. c #727D66",
"z. c #72726B",
"x. c #7D746C",
"c. c #727B6E",
"v. c #767775",
"b. c #797671",
"n. c #757A73",
"m. c #7B7A76",
"M. c #7C7C7A",
"N. c #837C74",
"B. c #8C7E72",
"V. c #817C79",
"C. c #738468",
"Z. c #768272",
"A. c #7B8574",
"S. c #7E8974",
"D. c #7C837B",
"F. c #748878",
"G. c #83837D",
"H. c #8C847D",
"J. c #838B7D",
"K. c #93877D",
"L. c #858582",
"P. c #8B8682",
"I. c #848D83",
"U. c #898A85",
"Y. c #8D8D89",
"T. c #928C85",
"R. c #918E8C",
"E. c #8C9485",
"W. c #8E938A",
"Q. c #8A988C",
"!. c #93938D",
"~. c #98948F",
"^. c #959A8B",
"/. c #959492",
"(. c #999692",
"). c #969B93",
"_. c #9A9A96",
"`. c #9D9C99",
"'. c #A19E9A",
"]. c #9AA296",
"[. c #9DA29A",
"{. c #A3A29E",
"}. c #A5AC9E",
"|. c #A5A5A2",
" X c #A9A7A3",
".X c #A5A8A1",
"XX c #AAAAA5",
"oX c #ADADA9",
"OX c #B0AFAB",
"+X c #ADB1A7",
"@X c #AFB0AB",
"#X c #B3B4AF",
"$X c #B5B6B1",
"%X c #B8B7B5",
"&X c #B7B9B2",
"*X c #BABAB6",
"=X c #BDBDB9",
"-X c #C0BFBB",
";X c #C1C1BC",
":X c #C4C4C1",
">X c #C8C7C5",
",X c #C9C8C6",
"<X c #CBCBC9",
/* pixels */
"v l > : : : : 6 6 6 h h < 4 % & o & K 3 $ - $ $ H z L n s v v v v m v s d d d v l j j l v v l l v v ",
"v l : : 6 h h h h h h > * K I C 1 1 D A 0 8 4 0 J S A p s l l x s s s p d d j 6 > > > > h v v v l v ",
"v l h h h h h h h h h k * 4 D F U 0 D I D U / H Y / C t v v , < d a ; ; k 6 6 : > i h h h j v v l v ",
"v l v l h h h h h e 6 r Z D 9 0 K D F F K R T U T D % = p p , * = 5 * * * ; 6 h h h h h h h v v l v ",
"v l v v h h h h h w 5 8 F I 0 0 K K K D U T I D D D C - $ C 1 @ O $ % $ 5 * 6 z t z h h h h v v v v ",
"v l v v v l h h h w 8 0 D U D T K D 9 9 K U D F I I K D - % + O o X 3 C D 8 r P K z h h h l v v v v ",
"v l l l v v l z r 0 0 R F K U R / F I H D D K K 9 9 0 5 - % . .   # S F F 0 0 U J t h h h v v j v v ",
"v v l l l v v x ( 0 9 U R F F T / / R R R R R K 0 0 8 - 5 q y .   2 K D F U U F 0 t h k v l l v v v ",
"l l l v l l v v l r 8 D T D F / U K D U T T F 9 0 F 9 8 8 5 %.a.u R K D D T K D I U ( n l l v f f v ",
"h h k l v v j j e 0 0 0 K D D K D D U P F F K F F F 8 5 8 + u /.S.U I F D P K F I U U ( l l m g v j ",
"h h h h l v l i 8 F U K I T D D F D R T K 0 D F F 0 8 % % * u oX^.} D F U F F F U U K z l l b g v h ",
"h h h h k s i e U T T R U T D K K F K / U 0 8 0 9 8 8 5 $ u.U.=XY.5.G F U I F T U F L z l v d g v h ",
"h h h h h > * Y R K K U Y K F T D 0 D T R 0 0 H 8 0 u ! u U.%X/.R.$X+.~ 6.I D Y R S U H z v d g v h ",
"h h h h k < # - 8 0 0 0 D U / S 0 9 D T U D 0 9 1 ! P.`.).|._.`.%X:Xj.W.J.9 %.] } } 0 K ( v d g l h ",
"j h h h h w # o - D 0 8 0 U T U 9 9 9 I R 8 5 % O.a.#XoXoXXXXXXXoX%Xk.c.Z.Q k.=.q.y.K H H v m m j h ",
"h h h h z H % o - 0 0 0 D U R D F q 9 D K O.+.% e.#XXXXXXXXX{.{.XXoXp.)..X^ F.w.0.J.} w l v m v j h ",
"h h h h r D % O o $ 9 D F D 2 % 0 5 - 8 e.#X{.a.c.XXXXXXXXXXXXXXXXXXa./.%X2.i.t.4.^.E.-.v l v v j h ",
"h h h z K F % $ O @ 8 2 - @ o O O + q a.OX*X{.#X{.XXXXXXXXXXXXXX XXXW.u.`.g.2.h.#.).+X{.r.v v v h h ",
"h h h k L I I 1 O @ o o o + @ * & & { +X-X'.XXXXXXXX#X$X*X$XXXXX.X`.XXU.8.+.Q %.@.W.).oX'.o.v l h h ",
"h h h k t I D 4 $ - - - - 1 0 0 j.C.C.].'. X-X$X$X*X*X*X*X*X#XXXXXXXXX].Q.Y.Q +._ p.n.oXXXd.l l h h ",
"h h h h J H A F 0 I D D A 0 I P {.;X&X#X$X;X;X*X=X*X*X*X*X*X*XoXXXXX.XQ.oXXX7.{ =.{.p./.@XH.n l h h ",
"h h h h z J ^ 9.E A D C A S y...+X;X;X;X;X;X;X;X=X=X=X*X*X*X*XoXXXXX].].[.XXF.G ] A.D.D.+X~.M l j h ",
"h h h h l ) m.U.4.W P 9...A C.{.&X;X;X-X;X;X>X;X:X-X-X;X=X*X*XOXXXXX).).Q.[.[.^ P } { 4.#XT.v l h h ",
"h h h j l [ x.m.Y.C.j.$X{.C.l.(.+X=X;X;X;X;X;X>X:X*X$X>X;X=X*XoXXXXX[.I.I..X*Xj.E L.j.c.|.f.n j l h ",
"j h j l v >.P.Y. X*X#X*X#X#X'.~.OX$X=X;X;X;X;X:X:X*X'.=X:X-X%XXXXXXXXXR.~.*X;X).E g.[.D.(.N.N i l l ",
"v v v v &.Y.(.(.-X;X*X$X#X#X#X#X#X#X&X-X;X;X;X;X:X;XOX|.*X-X#XXXXXXX$XXXoX;X>XXX^ 1.).W.:X(.| s l v ",
"v v v n m.`.`.XX,X-X$X#X#X#X#X#X#X$X*X-X-X;X;X:X;X=X;X*XXX$XXXXXXX#X*X=X=X:X@XXX{ W h.$X:X|.;.s v v ",
"v v v ` R.`.`.:X;X%X$X#X$X#X$X#X#X*X-X-X-X#X*X;X=X=X%X$XXXXXXXXXXX*X*X*X;X=XI.c._ P E.<X-X Xd.v v v ",
"b v b &./.`.oX<X-X#X#X#X#X#X$X#X&X-X-X-X;X{.#X;X=X$XoXXXXXXX$X#X#X*X*X=X-XI.n.E.#.W ].<X=XXXB.V m v ",
"l v v N R.`.=X:X$X#X#X#X#X#X#XoX-X;X;X-X;X=X;X;X*XXXXXXXXX$X%XXX=X;X*X=X!.).S.J.>.} }.<X%XXXK.m v l ",
"j j j M P.{.:X;X$X#X$X#X$X#X$X{.*X-X-X-X;X:X:X;X#XXXXXXXOX=X*X'.*X:X$XXXJ.y.^ 8.$.3.&X<XXXXXP.6 < h ",
"h h h j b.|.<X=X%XOX}.#X#X#X$X{.&X;X-X;X:X;X:X=XXXXXXXXX$X=X%XXX X$XXX).{.S.9.^.] S.>X*X/.|.P.6 h h ",
"h h h h >._.<X=X%X#XoX#X#X#X#XoX X-X-X;X:X:X;X;X&X#X$X$X=X*X#X{.T.'.*X/.$X=X[.V.0.#X<X|.L.!.f.6 h h ",
"h h h h :.U.>X=X=X%X$X#X#X#X#XOXG.OX;X:X;X;X;X=X-X=X=X-X*X$X$X~.{.;X;X{.Q.XXk.u N.=X:X/.U.U.@.h h h ",
"h h h h :.L.;X;X%X=X%X#X$XOXOX'./.|.=X=X=X*X$X$X*X$X*X$X#XOX XT.N.XX;X;X[.u.! _ z.).*XW.L.L.' h h h ",
"h h h h o.M.$X,X-X=X%X%XOX~.R.(.%X|.XX$X#X#X#XXX{.#X#X#X`.~.'.'.XX_.;X;XXXu.D.w.G.J..XY.U.f.h j h h ",
"h h h h B b.(.<X=X=X=X%XOXXX#X$X$X%X%X@X#X#X#X{.{.$X#X$X#X&X;X;X;X{.#X=X!.g.[.f.].A.U.L.L.o.h h h h ",
"j h h h h :.L.#X<X=X*X*X$X$X$X$X$X%X%X$X#X$X#X#X#X$X#X&X;X-X-X-X;X*X#X#XW.k.[.w.C.1.n.L.V.c 6 h h h ",
"h h h h h c f.Y.%X>X-X=X$X#XOX$X#X%X%X#X#X$X#X#X#X#X#X-X-X-X;X-X-X;X*X#XW.k.I.>.J.I.m.U.s.j h j h j ",
"h h h h h h X.V.L.|.:X>X=X%X%X$X$X%X%X#X#X#X$X#X#X$X#X*X-X-X-X-X-X=X$X#X+Xg.D.a./.!./.L.*.j h h h h ",
"h h h j h h j <.L.Y.|.;X:X=X=X=X%X%XoXoX%X#X#X#X$X XOX%X=X;X;X=X*X#X#X#X*X[.I.s.n.[. XG.) v l h k h ",
"j h j j h j j B V.|.|. X<X;X=X%X%X%X`.|.#X#X$X#X$XOX#X#X$X%X%XoX{.#X*X#XT.`.D.<.L.!. Xd.d s v v l l ",
"n v s l j j j j w.'.|.`.#X<X=X/.oX=X%X%X#X%X%X$X#X$X#X#X#X#X%X|.{.#X=X#Xx./.m.a.W.G.N.) s v v l v v ",
"v v l l n l s l v d.`.|.{. X/./.,X:X=X=X%X=X%X=X$X$X#X%X%X%X%X%X=X=X=X=X(.d.>.z.w.' l p v l l v v v ",
"v l j j j j l l l l ;.B.R.x.b.`.oX=X>X%X=X=X%X=X=X=X*X=X%X=X%X=X=X=X=X*X;X:X'.N.B h h v v l v v v v ",
"v l v n s s b d V d V V V V d.`./.L.%X<X;X;X;X:X>X>X>X>X>X:X:X=X=X=X=X;X<X$X'.s.l j j v v l v v v v ",
"v v b v d g g f d d s d d d  .~.L.M.L.|.=X:X;X%XXX{.{.(.`.oX%X:X>X>X<X>X$X|.H.N v v v v l j l l v v ",
"v v s V f s j h h h h 6 h h h <.L.M.v.v.L.`././././././.v.v.M.L.U.Y.`.{.'.R.| j j l l v j j v v v v ",
"v b b s h 6 : : : : : : : : : 7 :.M.M.M.Y.`.(./.R.R.R./.V.v.M.v.m.v.U.(.H.| l l l l l l l v v v v v ",
"v v j 6 6 : : : : : : : : : : : 7 X.<.a.v.V.N.t.,.&.*.,.w.f.f.w.=.| | | N s v v v v v l v v v v v v "
};
