/* XPM */
static char *d6dkea2_482fe7a3_f5b0_4f14_81a1_9c7dead570a3_1__dragged__resized[] = {
/* columns rows colors chars-per-pixel */
"50 50 33 1 ",
"  c None",
". c black",
"X c #051718",
"o c #211D19",
"O c #2D2118",
"+ c #2B3734",
"@ c #4E3B25",
"# c #493A2A",
"$ c #664328",
"% c #744E26",
"& c #3B4A40",
"* c #435E42",
"= c #705C4B",
"- c #876033",
"; c #BC6439",
": c #CA7830",
"> c #9A7A4D",
", c #9A7B4E",
"< c #BB7E57",
"1 c #5F8263",
"2 c #EF882D",
"3 c #948872",
"4 c #948973",
"5 c #F0B659",
"6 c #CF9F6F",
"7 c #2236C4",
"8 c #2A86F8",
"9 c #6ABFFA",
"0 c #B2AA99",
"q c #E2C18E",
"w c #C5C5C5",
"e c #F7E0C9",
"r c gray99",
/* pixels */
"                                                  ",
"                                                  ",
"                      :%                          ",
"                    %:5%:5:                       ",
"                   :5:5:5%:::%                    ",
"                  %:5:::%:5:%%                    ",
"                  O%::%%:5:%5:%                   ",
"                  O6<%5:O:%5::%                   ",
"                  @q66%5O%:::%%@=@                ",
"                  @Oq6%5%;%%OO%404=@              ",
"                 +@wOq6%%;%O;;@=4=4=@             ",
"                 +%r86<OOO%:q6@40==03@            ",
"                +*%69q687w%:q6O=03044=            ",
"                2+%6qqq98r;:6O=44=+++4@           ",
"                X+O:6qqq6;:OO%==++2e&++           ",
"                X-O5<666;5%:%%++&*;2**&X          ",
"                XXXO5<<<5%O5:%+&211111*X          ",
"                X-O:%555%O%:%+++&+*1>>>X          ",
"               @=XO5%+:%O%:%%+++-->>++X           ",
"               @4qX%+X:$+O5:X$--++++++X           ",
"               @4=O:%X5$XO:X++X$++111$X           ",
"                =4OXXX5$X%5X&+OX$--$$O@           ",
"                2+%:%XXXXX:O&+XOXXXXX@@           ",
"                ;X5:%X&<X%:%+X=X6666=@@           ",
"                XX55%X&#X:5:OX==6q6=@..           ",
"                O*%5%X##X55:OX====44X==.          ",
"                XoO:ooo##X5OOX+=4444X4=.          ",
"                X1OXoooo&X:OX&&+O2eX==..          ",
"                X1;*oXoo&1O&oO*&O;2X..@           ",
"         ...     X6;X<XXX&X&&OO**O..@4=           ",
"     +..;;;2.    X66X66<;X;&*&OOX.1X=4=           ",
"     .1*.+&&2.    XX XXXXX<&****X;X@=4=           ",
"     .+1*;&*2=.     X..==XX&111XX@@@=4@           ",
"    .;.+12&*2==.   ..=44==X6<;X;X@@@=4@           ",
"   .;&+;2&*23==. ..=44==..XXXXX<X@@@==4@          ",
"   .;&&&**2333=..=44==..X,oXX&&X&X@@==4@          ",
"   .2&***23333.@@@==..1,-,oX+&&+oX@@@==@          ",
"   .=2222==33+.@@@..*11**X  X+++,o@@@==@          ",
"    .=======+;&.@XX++**++X  X,,*,o   @@           ",
"     .=====+&&*&.=X++++XX   X11-*X                ",
"      .==++&&***&+=XXXX    X111**X                ",
"        .&&&2e**2+=3.      X+++**X                ",
"         .&&;2&*&+=3.      X++++X                 ",
"         .&&&&&&+=33.       XXXX                  ",
"         ..&&&&+@333.                             ",
"         .@++++@==3.                              ",
"          .@@@@===.+                              ",
"           .=====..+                              ",
"            .....                                 ",
"                                                  "
};
