/* XPM */
static char *d6dkea2_482fe7a3_f5b0_4f14_81a1_9c7dead570a3_3__dragged__resized[] = {
/* columns rows colors chars-per-pixel */
"50 50 211 2 ",
"   c None",
".  c #030302",
"X  c #0B0704",
"o  c #090B09",
"O  c #170C06",
"+  c #19150E",
"@  c #031415",
"#  c #041718",
"$  c #071819",
"%  c #0B1B1B",
"&  c #081717",
"*  c #191511",
"=  c #1D1814",
"-  c #131D1B",
";  c #1C1C19",
":  c #121714",
">  c #0C100F",
",  c #26150D",
"<  c #231C14",
"1  c #211D19",
"2  c #0F201E",
"3  c #16211D",
"4  c #1C221C",
"5  c #24241D",
"6  c #2B231B",
"7  c #2E251B",
"8  c #31251A",
"9  c #342A1E",
"0  c #392B1D",
"q  c #36311E",
"w  c #1C2623",
"e  c #1F2925",
"r  c #1C2C2A",
"t  c #112221",
"y  c #1D312A",
"u  c #212721",
"i  c #222A24",
"p  c #2B2A23",
"a  c #332C22",
"s  c #392E23",
"d  c #22332E",
"f  c #2B322A",
"g  c #3B3124",
"h  c #32332A",
"j  c #3C332A",
"k  c #3E392C",
"l  c #383825",
"z  c #2B3632",
"x  c #2C3A35",
"c  c #273735",
"v  c #323D36",
"b  c #3A3D33",
"n  c #323F39",
"m  c #383E39",
"M  c #472E1F",
"N  c #423423",
"B  c #4D3B25",
"V  c #42362B",
"C  c #44392B",
"Z  c #4A3B2A",
"A  c #4A3625",
"S  c #513D27",
"D  c #533E28",
"F  c #533A27",
"G  c #453C31",
"H  c #643E29",
"J  c #34433B",
"K  c #3A443B",
"L  c #3B4A3D",
"P  c #34473A",
"I  c #3E553F",
"U  c #3E583F",
"Y  c #53422D",
"T  c #5C4028",
"R  c #4E4233",
"E  c #484638",
"W  c #594938",
"Q  c #42533D",
"!  c #4E5C3E",
"~  c #59553A",
"^  c #644624",
"/  c #65442A",
"(  c #6C4429",
")  c #684B28",
"_  c #734E26",
"`  c #77442B",
"'  c #6C512E",
"]  c #74522B",
"[  c #7B542B",
"{  c #7B5429",
"}  c #634E3B",
"|  c #684B34",
" . c #64513E",
".. c #6A5739",
"X. c #735631",
"o. c #755934",
"O. c #76593A",
"+. c #774A30",
"@. c #5B603C",
"#. c #6A673D",
"$. c #76683B",
"%. c #3D4C41",
"&. c #3E5341",
"*. c #3F5D42",
"=. c #414D41",
"-. c #534D41",
";. c #425342",
":. c #435C41",
">. c #485A47",
",. c #5D574A",
"<. c #535952",
"1. c #645342",
"2. c #695644",
"3. c #6C5A46",
"4. c #6D5B4A",
"5. c #645A49",
"6. c #725D4C",
"7. c #735D43",
"8. c #4A654C",
"9. c #48654A",
"0. c #576445",
"q. c #4B6652",
"w. c #557459",
"e. c #516F56",
"r. c #746345",
"t. c #75614C",
"y. c #796449",
"u. c #6C6758",
"i. c #7A6957",
"p. c #7C6C59",
"a. c #726655",
"s. c #726C51",
"d. c #5D7F61",
"f. c #7C776B",
"g. c #736C61",
"h. c #855629",
"j. c #985A2B",
"k. c #865538",
"l. c #935635",
"z. c #814A2E",
"x. c #AA5E37",
"c. c #9D622B",
"v. c #876139",
"b. c #93613C",
"n. c #A3652C",
"m. c #AA692D",
"M. c #AC623B",
"N. c #B86436",
"B. c #AC7B3C",
"V. c #BC7631",
"C. c #BF722F",
"Z. c #D97D2B",
"A. c #C3673B",
"S. c #CC7C33",
"D. c #C47834",
"F. c #D37C32",
"G. c #896145",
"H. c #816A4A",
"J. c #9A6D4B",
"K. c #906749",
"L. c #987449",
"P. c #826E59",
"I. c #84715C",
"U. c #8B7151",
"Y. c #9A7553",
"T. c #B96C43",
"R. c #A5714F",
"E. c #BB7448",
"W. c #A67C55",
"Q. c #B97A52",
"!. c #857661",
"~. c #8A7A66",
"^. c #8D7E69",
"/. c #847A67",
"(. c #C4794E",
"). c #6C805D",
"_. c #72815D",
"`. c #5E8162",
"'. c #B5823F",
"]. c #CE843B",
"[. c #D7883D",
"{. c #9D805D",
"}. c #B68743",
"|. c #BF934B",
" X c #A88259",
".X c #BC865D",
"XX c #8D826C",
"oX c #91856F",
"OX c #928671",
"+X c #948872",
"@X c #9A8F7A",
"#X c #86807C",
"$X c #CA994C",
"%X c #DC9442",
"&X c #D59949",
"*X c #C88B5E",
"=X c #D68942",
"-X c #DAA552",
";X c #E4AC55",
":X c #EAB156",
">X c #F1B457",
",X c #C38C61",
"<X c #C89669",
"1X c #D2AE7E",
"2X c #CAA47A",
"3X c #3A6EB2",
"4X c #69B6F5",
"5X c #D9B485",
"6X c #D2B18B",
"7X c #DBBDA1",
"8X c #DDE0E4",
/* pixels */
"                                                                                                    ",
"                                                                    . L >   O O O O                 ",
"                                                                    o e.:.+ l.x.x.Z.X               ",
"                                                                    + v w.@.+ K E ].,               ",
"                                                                  , l.* ~ V.=.:.#.].3.X             ",
"                                                                X N.;.;.K.:.#.$.].7.4.>             ",
"                                                                X D.$.r.$.$.=X=XoXi.6.z .           ",
"                                                                . R S.S.S.S.^.OX+X+X,.h .           ",
"                                                                  . 4.4.4.4.6.+X+Xu.J P .           ",
"                                  [.m.c.                          . G 6.6.6.6.u.u.m 1.%.;           ",
"                              B.S.:Xn.%X}.S.                        . s V -.-.n n ;.k.%.%.. 1 .     ",
"                            S.>X].%XF.'.n.%XS.n._                     . . % - u %.:.*.&.L w -.a     ",
"                          F c.[.S.j.c.n.) $.n.'.m.                        < , < e &.:.9.7.=.z 2..   ",
"                          8 L.(.c.'.c.^ H H 0 ..^ _           . . . s s g T Y S . L I I | n -.p.o   ",
"                          A 1X,XW.'.[.2 A F r.H $ 9 6.6.. . @ g V -.!.~.6.< + + . K v v k -.!.^.X   ",
"                        B S r.5X<X{ ;X3 t.+.,XE.% $ 1 6 j G ,.~.^.!.p.k f > V 7 w x k V } ~.+XOXo   ",
"                    x B } Z #X4.1X X~ U.,X(.T.5.:.2 G ,.^.^.I.p.h 1 <       7 } C C } 1.6.I.OXh     ",
"                    v  .6...8X3X2X.X- |.T.5.p.w.9.2 6.p.i.p = 1 u.0         . 4.2.1.6.6.6.1 6       ",
"                  c Q 6.6.[ 6X4X6X,X> g ~ e.8.9.*.% * * = f.a.f.<.b 4.        = < 4.6.< = w w       ",
"                  V.>.m K ] <Xd s a G o P 9.9.I L 6 u.W u.@Xi.<.J v D.K           * *     > z       ",
"                  q Q &.z 0 h s.a.-.4.W : %.L a 9 8 o.6.a.=.m K l.L R x x                           ",
"                  % ' 9.z 6 2 XX+X6.w w @ p 7 7 J - ( m / o.[ O.v.! :.e.t                           ",
"                  & 4 $.X.3 2 w e e J.|.3 6 K U Q J 3 % ; ^ ( K b o.v.O.%                           ",
"                A 3 ) 4 3 7 n.] $X-X-Xh.% z Q L 0 s v - l.5 4 D T b b b o.                          ",
"                B  .i ' ' q &X] E D.{ 0 % P Q 0 F.7XN A p R.x.; 3 D / ]                             ",
"                Y XXXX4 3 3 { l 3 V.( f 6 2 U 0 M.[.6.6.W.<XR.3 N - - %                             ",
"              % I 3.XXXX4.0 n.^ 3 -X( % 1 3 J z 0 t.oXt..X6Xw A B B N %                             ",
"              2 7 I 9./.f.0 5 4 % |.D % % 1.m K t.oX^.P.1XR.3 B B 2.0                               ",
"            % :.a 6 L z x h.C._ % 2 % $ 3 N 1.3./.6.U.1XJ.4 B B S t.B                               ",
"            t w.0.Y A M 3 ;X]._ - C c % ] l g N | y.W.K.% B B B S XXW                               ",
"            2 8..X<XE.l.4 $X>X] 3 M.R - ].;Xg ; G.G.9 & 3 B B S Y XX6.                              ",
"              2 Y.G.z.% 8 ^ &X^ 5 K.E.R }.:Xn.0 9 b M.- B B B B S oX6.                              ",
"                @ @ #     8 h.1 Z Z W.oX; &X0 7.(.*Xl.5 q B S B S !.i.                              ",
"                          6 @ 1 s Z C ;.i h.N Y.W.l.Z Z % A B B S 6.OX6.                            ",
"                            & 1 1 s E d.>.h Z C V V Z s % A B B S 4.oX6.                            ",
"                            - : 1 ; %.d.`.&.s s Z Z s 1 % B B S S 6.OX6.                            ",
"                            ; R : - y q.8.v 1 1 a s 1 1 & A B B B  .+X6.                            ",
"                            % ,X6.} H O.h ; 1 1 ; < 1 ; & B B S B S p.I.                            ",
"                            % 1.,X} k.N.;     1 = 1 ` H &   B B B S 6.oXt.                          ",
"                          % d y G d r A         ` z.A.A.O.%     B S W p.W                           ",
"                          % L %.y I y $         H E.F A Q.%         S 2.S                           ",
"                            x x x ! %.$         ; k d c k x %       S 3.S                           ",
"                          % r.r.K y r.4         $ r %.%.r i $         W B                           ",
"                        % 8.)._.s.' L.6           t x x v ..5                                       ",
"                      $ P 9.`.`.0.! f             % y.H.H.v.5                                       ",
"                      % J J 9.9.J x $             % 0.).).! %                                       ",
"                      $ d c c z 2 %               $ *.d.`.*.%                                       ",
"                        % 2 % $                   $ U J P &.$                                       ",
"                                                  $ x x c x                                         ",
"                                                    $ % $ $                                         "
};
