/* XPM */
static char *d6dkea2_482fe7a3_f5b0_4f14_81a1_9c7dead570a3_12__dragged__resized[] = {
/* columns rows colors chars-per-pixel */
"50 50 211 2 ",
"   c None",
".  c #030302",
"X  c #0A0806",
"o  c #0B0A09",
"O  c #080705",
"+  c #110E0B",
"@  c #190E09",
"#  c #18130C",
"$  c #16110C",
"%  c #031415",
"&  c #051718",
"*  c #07191A",
"=  c #0C1B1A",
"-  c #191612",
";  c #121D1A",
":  c #1C1D19",
">  c #181916",
",  c #211E19",
"<  c #27150C",
"1  c #1C221C",
"2  c #14211D",
"3  c #2C231A",
"4  c #27251C",
"5  c #33251A",
"6  c #342A1C",
"7  c #3B2A1C",
"8  c #302416",
"9  c #132322",
"0  c #1A2522",
"q  c #1C2C29",
"w  c #252D29",
"e  c #362D23",
"r  c #24322E",
"t  c #2E322D",
"y  c #363329",
"u  c #2A3532",
"i  c #2D3A35",
"p  c #2B3936",
"a  c #333C35",
"s  c #3A3B32",
"d  c #363F38",
"f  c #4C341C",
"g  c #4B341E",
"h  c #453423",
"j  c #4A3624",
"k  c #4D3B25",
"l  c #453B2D",
"z  c #4A3B2A",
"x  c #41372B",
"c  c #503D27",
"v  c #5A3E23",
"b  c #513E29",
"n  c #5C3723",
"m  c #453E32",
"M  c #513F30",
"N  c #693B23",
"B  c #35443C",
"V  c #3A443B",
"C  c #354A3B",
"Z  c #3B4A3E",
"A  c #364436",
"S  c #3F543B",
"D  c #294236",
"F  c #6C401B",
"G  c #54412C",
"H  c #5B462A",
"J  c #5A4225",
"K  c #434B3E",
"L  c #4A493C",
"P  c #474436",
"I  c #5E4B37",
"U  c #594A3C",
"Y  c #554636",
"T  c #4B503E",
"R  c #51523D",
"E  c #644423",
"W  c #674628",
"Q  c #744E26",
"!  c #764A26",
"~  c #79532A",
"^  c #775129",
"/  c #644D36",
"(  c #64513D",
")  c #6D523C",
"_  c #755A35",
"`  c #765832",
"'  c #6A653C",
"]  c #7D643B",
"[  c #7A693A",
"{  c #3B4C40",
"}  c #364940",
"|  c #3E5441",
" . c #444C42",
".. c #554C40",
"X. c #435341",
"o. c #435D43",
"O. c #4C5D41",
"+. c #465A49",
"@. c #545145",
"#. c #655342",
"$. c #695644",
"%. c #6C5A4A",
"&. c #685847",
"*. c #715D4C",
"=. c #4A6143",
"-. c #456145",
";. c #4C6951",
":. c #546D53",
">. c #5C7B5D",
",. c #537256",
"<. c #566040",
"1. c #77664C",
"2. c #6C685A",
"3. c #746453",
"4. c #7A6A56",
"5. c #7E6D5B",
"6. c #786754",
"7. c #667C5A",
"8. c #7A7F55",
"9. c #5B7E60",
"0. c #786E63",
"q. c #8E5C2A",
"w. c #85562A",
"e. c #975A2B",
"r. c #9B5936",
"t. c #80583C",
"y. c #A25933",
"u. c #A55E39",
"i. c #8B612F",
"p. c #9C612A",
"a. c #87693B",
"s. c #986B36",
"d. c #9F7137",
"f. c #A4652B",
"g. c #AC6A2D",
"h. c #B46C2C",
"j. c #AE663C",
"k. c #B8653A",
"l. c #AA773C",
"z. c #BD7334",
"x. c #C6742C",
"c. c #C27A33",
"v. c #CB7B32",
"b. c #C47938",
"n. c #C17437",
"m. c #D27537",
"M. c #C36C36",
"N. c #986B4D",
"B. c #977443",
"V. c #81715E",
"C. c #897953",
"Z. c #8D7058",
"A. c #A8754F",
"S. c #B67B55",
"D. c #AD714C",
"F. c #847562",
"G. c #897B66",
"H. c #8B7D69",
"J. c #867964",
"K. c #807C7D",
"L. c #C57B43",
"P. c #6A825E",
"I. c #5E8162",
"U. c #628363",
"Y. c #CC8339",
"T. c #D2883D",
"R. c #DF832F",
"E. c #BF845B",
"W. c #8E826C",
"Q. c #93856E",
"!. c #958972",
"~. c #938773",
"^. c #9C917E",
"/. c #BD8F66",
"(. c #C89448",
"). c #D89C4B",
"_. c #C3865A",
"`. c #C98B44",
"'. c #E19A48",
"]. c #DCA353",
"[. c #E5A34C",
"{. c #E6AD55",
"}. c #EBB156",
"|. c #C48B64",
" X c #C8996A",
".X c #D1986A",
"XX c #CE9F71",
"oX c #D3A573",
"OX c #D3AA7A",
"+X c #D3AC7D",
"@X c #F0A869",
"#X c #293284",
"$X c #305D9F",
"%X c #386197",
"&X c #3278F0",
"*X c #5CADF8",
"=X c #9F9581",
"-X c #979F9F",
";X c #A39A86",
":X c #AD9C8E",
">X c #AEA594",
",X c #A1A288",
"<X c #A0A7A7",
"1X c #D3B48A",
"2X c #E2BF8A",
"3X c #D1BCA3",
"4X c #E1C290",
"5X c #E2C08D",
"6X c #C3C0A9",
"7X c #D8DBDE",
"8X c #E1E2E8",
/* pixels */
"                                                                                                    ",
"                                              v.~                                                   ",
"                                          i.v.{.q.T.).v.v.v.x.                                      ",
"                                        v.}.v.[.Y.(.q.Y.v.h.Q                                       ",
"                                      E g.'.v.h.g.e.T.[.g.s.q.                                      ",
"                                      5 a.b.f.l.q.p.'.h.l.).v.^ (                                   ",
"                                      h OX|.B.(.T.7 p.e.'.x.g.Q F.6.4.                              ",
"                              P q q ; b Z.+X.X~ {.v q.f.f.w.k Q V.;X;X3.H.                          ",
"                            = S.V.{ : k 2.C.OXA.l.w.k.! j N N W H.F.H.F.;X( %.k                     ",
"                          = ) S.S. .5 / 7X%X+X/.f f N ! w..X_.W ;XF.*.F.;XG.;X3.k                   ",
"                          ; S.E.$.y s ^ 3X*X1X/.$X#XP.w.b.2XXXh F.V.J.:X=X5.>XV.4.1.                ",
"                            l @.V 5 { ^ XX6X4X1X*X&X8XD.v.XX/ : $.J.V.^.5.=X=XJ.4.H                 ",
"                              9 9 ; V j L.oX5X4X3X:X|.M.v G U ..V  .m  .*.F.Q.V.=X0.b               ",
"                                    2 7 ).|.oXoXOXL.).q.p.: d d V B } } d d 3.H.>X6.b               ",
"                                      = G ].E.E.E.].i.j ).V i } o.>.v.3X+.V d 3.6.*.=Xb             ",
"                                      5 g.i.].{.].w.7 E K a V O.=.U.k.'.7.+.} d 0 %.Q.b             ",
"                                      7 ).Q A c.~ f E E u u K c.=.I.U.P.I.=.c.` 2 k G k             ",
"                                      = Q P 1 g.Q p.7 E s A s T o.-.>.I.I.T T ` ; k k               ",
"                                        8 p.J ; J ; 6 v ~ ` _ _ T R O.O.o.T _ J 2 $.G               ",
"                                        6 6 1 = g = k ; k s s i ` _ ] ] [ _ y = k %.G               ",
"                                        s.x.Q = 2 & 1 & 6 j k s s P O.7.7.s j 1 k *.1.k             ",
"                                      2 {.T.Q ; C = w.2 Y.j * h h h W W J h 4 k c #.W.G             ",
"                                      2 E.}.~ = r = ~ Y d.w.4 w t h x z h * k c k c W.G             ",
"                                        v T.J = & & = ( 1 t I 5.F.D._..XD.; j j k G W.I             ",
"                                        3 E 4         & I ( 1.0.V.!.N.XXD.; j c k G 5.5.b           ",
"                                                      * y s b l.:X&.F.N.k.; w k k b *.Q.b           ",
"                                                      = r i 5 m.@Xe Q.%.k m * j k k I W.( c         ",
"                                                      = | X.a N F y 4.0.= %.= z k k c 4.F.b         ",
"                                                    & p o.o.| C a p t 3.4 w e k k k c *.Q.#.k       ",
"                                                  % 4 e e e y A i = . > > *   k k k z H 6.G.b       ",
"                                                = ;.:.:.K 8 4 4 o : - - , w &   k k k k G Q.&.b     ",
"          O . O                               . & -.-.+.S A a 8 O , : = = u =     c k k c 3.G.G     ",
"  r o o y.y.y.h.@                         X o ..; V @.A.j.u.o X e.: : r.= r =         k k G 1.J.b   ",
"  o ;.K # m K R x.@                   = o #.$.%.w r.|. X/.A.= X y.y.D.D.2 = &             k b &.b   ",
"  $ p ,.=.j.K O.R.$.@             o > &.%.%.#...U 2 N.r.0 = & = 2 0 r.A.=                     b %.c ",
"< q.$ P 8.c.X.' R.1.$.O       + : *.H.H.#.U O . O . = =     & r } } 9 B =                     b #.b ",
"k. .B r.z.o.' T.Q.6.%..   - 4 3.H.H.U Y O .                   & u d B u 9                       k k ",
"M.{ { { | [ `.!.~.Q.Y $ - #.H.G.Y M . .                       = m  .L P S *                         ",
"b.] [ a.[ b.H.!.!.2.O k k k l l . .                           = C.C.W.B.L =                         ",
"l n.b.b.Y.%.%.J.2.I : 8 k 6 . .                               D 9.I.I.' 1.=                         ",
". y %.%.%.%.%...d t.X.2 3 t                                 = I.I.I.,.-.C &                         ",
"  . y *.*.....i } C o.| 0 L s                               * +.-.+.o.o.p =                         ",
"        t i B K s.,X=.=.s.a %.@.X                           % = p p C B 0                           ",
"          2 Z K m.@X+.O.a.a %.W.o                           <X-Xq 9 9 9                             ",
"          . V Z #._ { { p @.J.H.X                                                                   ",
"          . = V } } { a l G.!.W.o                                                                   ",
"          . 6 i i a a l #.4.W.w                                                                     ",
"            + h z z k #.*.$.- w                                                                     ",
"              + ( #.$.%.#.@ . u                                                                     ",
"                o o o o o                                                                           "
};
