/* XPM */
static char *___1__resized[] = {
/* columns rows colors chars-per-pixel */
"50 50 33 1 ",
"  c None",
". c black",
"X c #051718",
"o c #211D19",
"O c #2D2118",
"+ c #2B3734",
"@ c #4E3B25",
"# c #493A2A",
"$ c #664328",
"% c #744E26",
"& c #3B4A40",
"* c #435E42",
"= c #705C4B",
"- c #876033",
"; c #BC6439",
": c #CA7830",
"> c #9A7A4D",
", c #9A7B4E",
"< c #BB7E57",
"1 c #5F8263",
"2 c #EF882D",
"3 c #948872",
"4 c #948973",
"5 c #F0B659",
"6 c #CF9F6F",
"7 c #2236C4",
"8 c #2A86F8",
"9 c #6ABFFA",
"0 c #B2AA99",
"q c #E2C18E",
"w c #C5C5C5",
"e c #F7E0C9",
"r c gray99",
/* pixels */
"                                                  ",
"                                                  ",
"                           %:                     ",
"                        :5:%5:%                   ",
"                     %:::%5:5:5:                  ",
"                     %%:5:%:::5:%                 ",
"                    %:5%:5:%%::%O                 ",
"                    %::5%:O:5%<6O                 ",
"                 @=@%%:::%O5%66q@@                ",
"               @=404%OO%%;%5%6qO@=+               ",
"              @=4=4=@;;O%;%%6qOw@=+               ",
"             @30==04@6q:%OOO<68r%=*+              ",
"             =44030=O6q:%w786q96%++2              ",
"            @4+++=44=O6:;r89qqq6%++X              ",
"            ++e2&++==%OO:;6qqq6:O+-X              ",
"           X&&2;1*&++%%:%5;666<5O-XX              ",
"           X*11112*&+%:5O%5<<<5OXX-X              ",
"           X>>11*+&+++%:%O%555%:O-X=@             ",
"            X+>>--++++%%:%O%:+%5OXq4@             ",
"            X+++++---$X:5O+$:X+%X6=4@             ",
"            X$11+++$XX+X:OX$5X%:O=4=              ",
"             O$--$$XO+&X5%X$5XXXO4+2              ",
"             @XXXXXOX+&O:XXXXX%:%+*;              ",
"        ..   @=6q6@=XX&%:%X+;X%:5X*X              ",
"       .==.. X44====X;O:5:X;<X%55X1O              ",
"       .=44=.X4444=+X;O:55X6#X%5%OOX              ",
"       ..==44=Xe2O+&&X#O5X6###o:O*1X              ",
"         ..===X2;O&*Oo#O:X&##ooXO;1X              ",
"           ..==XO**Oo&X&O11&oooX;6X...            ",
"             ..=XOOo*&;X&11&ooXo66.2;;;..+        ",
"             =4..****&<Xo&&XXX<XX.2&&+.*1.        ",
"             =4=X111&;X=..X;<66X.=2*&;*1+.        ",
"             =4=@X;<66X===..<XX.==2*&21+.;.       ",
"             @4=@@XXXX.==44=..&.==32*&2;+&;.      ",
"             @4=@@X;;;<..==44=..=3332**&&&;.      ",
"             @4=@@X<XX<O@..==@@@.33332***&2.      ",
"             @4=@X&X&&XX o,..@@@.+33==2222=.      ",
"             @4=@Xo+&&+X o,-,X@.&;+=======.       ",
"             @==@o,+++X   X*X=.&*&&+=====.        ",
"              @=@o,*,,X   XX=+&***&&++==.         ",
"               @@X*-11X   .3=+2**e2&&&.           ",
"                 X**111X  .3=+&*&2;&&.            ",
"                 X**+++X  .33=+&&&&&&.            ",
"                  X++++X  .333@+&&&&..            ",
"                   XXXX    .3==@++++@.            ",
"                           +.===@@@@.             ",
"                           +..=====.              ",
"                              .....               ",
"                                                  ",
"                                                  "
};
