/* XPM */
static char *gray_1_resized[] = {
/* columns rows colors chars-per-pixel */
"50 50 43 1 ",
"  c #151311",
". c #1A1715",
"X c #1D1917",
"o c #1E1A18",
"O c #221D1A",
"+ c #26211D",
"@ c #29231F",
"# c #2C2622",
"$ c #2F2823",
"% c #322A26",
"& c #362E29",
"* c #382F2A",
"= c #37302C",
"- c #3C332D",
"; c #3E3630",
": c #3F3831",
"> c #40362F",
", c #413731",
"< c #443A34",
"1 c #4A3E37",
"2 c #473E38",
"3 c #4A3F38",
"4 c #4D423A",
"5 c #51453E",
"6 c #534740",
"7 c #564942",
"8 c #5A4D45",
"9 c #5B4F48",
"0 c #5D5047",
"q c #5E5149",
"w c #63554C",
"e c #66584F",
"r c #675950",
"t c #6C5D54",
"y c #6F6057",
"u c #6F6158",
"i c #706157",
"p c #72645A",
"a c #76685D",
"s c #796A5F",
"d c #7B6D61",
"f c #7F7164",
"g c #807265",
/* pixels */
"sw#qdu54wtt4qpytyyyr55eq=-quuq44rttrq7338psr<,5778",
"41%qadypsaq5upe0wry5<4545aay0440tiiiiie515w801*111",
"1&-ypsfaiiw5yq444444<4:4yuuy044etiipgssi83138t>*<>",
"%@5eyuuuiyr<444411114:=0uyyyyeqyiitipggsie0qtt8$*#",
" -140ryyr05<%,441<1<<*$qitttyyyytte8wtpdiiiit8<OO>",
"@-11440w5444@=<<>&*@%%@<teweriyrw83338ttiitr81#OO*",
"0%,1114111<4%$-&>0rrrre44r857q053336333we053<%#*3t",
"e4%<11114<44*+=qyifsiii8-wtw41143qtr53331111%>3tag",
"e71&14111111=%quipggaiiw<1ew5117tttw333111<#$<38ei",
"e5w--11111<*X5uuipggsiit4*474116ttw5133<<,$.$<1138",
"e5yq=>14<,&@X7yuisggsiyi7$*,1115tr6331,-*-67*>1111",
"yepa0*:=&&,4=7yyisssaiiyw4%#-113e62,,%$1rdgg9-<111",
"yysfa0:O+qq445yytitrweww05&#%=>>2,<-#.;dtwidd<#,11",
"qypssir=-aq884euiie541414-&591=#+-684$4d93epr5.#>,",
"47eyiry54uadu=4qtr51111>%=wpdft4<8rur27prwte72OO%*",
"4<40w0qe48dfp4&47511111&%0adgdp599rtr:1witw63-,997",
"1111114w45yir4$$,111111%%5ritw8-7ertw1$1q933<&9iit",
"11111115*,5w54- @*>,<1<OO1555<>O,67851&#<111&,49rr",
"><11111<@%1444>o+@$%&*&OO&><>,<&*11111-O#,<&*11487",
"%>11111>O@1114&$11>>&&&$++%>18rr*,111,&&$%&+*118ee",
">O1111>#O+*,-*%4w888wwe4@@-qaffdw-1<*<8tw5<<<=<8rt",
">.&>>*%$-%+@&&4tssaaass5%4yffggsp4%*<wadddddt2*-58",
"%O@%&%>55>+%,0yfgsapai8<<qadayyq75#3ttpddggdfd9<,*",
"&11145wee>&10afdiiiie1=>45yiw44411>twq8qetddffde7O",
"5ttttriiw=>4rsayyeww-%**-5wq541112*63333368qtiptt-",
"5wpggassw,<4yatq844>%<114ww4445563*<33335535777873",
"14esggggr1<wsfyw054*1445yatq0writ9-2<<3333343311,%",
"<15eassi5-4pggsiit5*<40taapyiasfut%--%><13<,**&=--",
"$<15wrw4&-5issatwre-<5iassiipsgfuw#682*&%$$*&*<58w",
"X>11451@O<4wre05550-15iafaiipfgsi9#7rt965,+$-14878",
"%#>11<>@%-14554144,$<5iisprwrasat4&37ruiu4-3<-*$,*",
"11<,1>>ww,>1111<&@OO4wiiiw55riie9$%135wte28uteq4-@",
"5pr4-%0ff0:<4<-->*OO<7rt9333wt93$+X+>13731tddgdu9$",
"5sge-4egfp-@@%5qw93*%357333336,O.$&$%%&$+,rpdgdui3",
"48psr55gfs4X#7riitt9*>333131<%*38ww93<<<*-9tppptrq",
"445iie5rie4:0yipaaitq<,1113,>5wpddddtewr6-377qq731",
"*115ii05q4-7yyyadddit8>111&#3tpdggdgdttpr<*1333<%#",
"<*45tt55r7<6yypfgggdat<#>$OO1wtppdddpiiutq&*31&%><",
"4%45i0<0yte10rypdggdpt1O@O#&&37wtiuiiittii1#&&*<3w",
"4%18t4>8rtu<=47wipapi9*->&<3$*3368ritq9eit<*,<33wy",
"-$179*-3458%o#<469wew,*777te<$,333465337w7%*8wrrpd",
"@#1<&X@-<4:=61%133353>,ttisaw*@,113333333*$3rtipgp",
"O@-:59w71-#40w:%,111,%6ieeaaiqO@11111111>+>widgddt",
"<5rpatwwr6=556<$%;<2%@wt75eiit>,@>11111>#>wpdgggdi",
"4wast545et,:327tw:#+.%tw33eit83eq,@@-1-#3eidgggdiw",
"5rppt975qt4:<,tfdt9,+#ee55855$5tiar4#OO=wyyagggi3#",
"1tiitpaddpw:&,rdddtt9;5t5111>#<5qrttw2##,wyiiddt*&",
"150rpsdgday:+<qypputt83y811<O*133337ww2O&47qwrrw>$",
"11358rassiy&*15wttte91*w911&%<131113357>&11133331O",
"1111150iyr>X$>115w851%O551<O*11111111363&31133311$"
};
