/* XPM */
static char *red_resized[] = {
/* columns rows colors chars-per-pixel */
"50 50 46 1 ",
"  c #57180F",
". c #5C1D14",
"X c #611F16",
"o c #661F19",
"O c #5D2017",
"+ c #5A2019",
"@ c #622017",
"# c #64221A",
"$ c #6B241D",
"% c #6F2620",
"& c #6D2921",
"* c #722721",
"= c #742A24",
"- c #792B26",
"; c #762E28",
": c #7D2E29",
"> c #76312A",
", c #7D312B",
"< c #7E3630",
"1 c #822E2C",
"2 c #882F2E",
"3 c #83312E",
"4 c #88322F",
"5 c #863331",
"6 c #8B3533",
"7 c #863934",
"8 c #8D3936",
"9 c #8E3638",
"0 c #8E3B39",
"q c #903736",
"w c #903837",
"e c #91373A",
"r c #953B3B",
"t c #993E3E",
"y c #8F423D",
"u c #94413E",
"i c #98403F",
"p c #963B40",
"a c #9B3E40",
"s c #A13F42",
"d c #974140",
"f c #9D4242",
"g c #A14345",
"h c #A44748",
"j c #A44949",
"k c #A94B4C",
/* pixels */
"gssststsgggssssisttststttersqerqeeeeewqqqwqq6eq66:",
"asstsssgggsgsssgstsitttrtteeesrsppppererewww99662:",
"gggsgggssisgsisfstitttrrrtrperprtppeeerq0rw655635:",
"ttssgtgssssiggssgstitrrtrtrrspsrpprrrerrww6555511:",
"stagstgsgsggggtgaatatrtttrtepessapttrar66645655:5:",
"ggsssgsigssgststafsttrqrtrtesrpetpttrw555655553<::",
"tgggissiiggitgfsatatsrrtrresseptrptr5666335515:55:",
"ttigtgissgssgtfstttttrttreeppppppaw666q55665155,,;",
"tttgtaggtssigaatsttttrrrrepappapp05566565155413:5:",
"rstafttgstgttttttstsrrtwrepaapr986256555991,3<1<;o",
"rtgggatfsttttfattttrtrwrrrsr66666666556623<13,,&. ",
"rrttgatttttgttgttttttrwrer6q8666558552555357,&+..&",
"rrstttttttrfitttttrttrwiwwqw886654612534157&....*,",
"qrtttttttttttittrtrtirwiw4q4w8669955555417#...&>:9",
"qrttttfrtittfiittrttwrrwww8w4463455555219> +.*:5er",
"2rttttfrtitttrtrtrtrriwww6w86644495155:<p$ .=16apr",
"4rsitrttifrrrprfrrriww446668646643633577&+@=,0fai6",
"6writrtirdwipaprriiww8www4664641345567;O #,36ffai7",
"wwrritiiirwiiirriwwww466466662435553=#..$,-6wfffi6",
"wriwiiwiiwwirrrrww6w644666666367,=#..#*:,:4tfftiw6",
"wriiuiiiriwirwwwww866644464363>$X.@=-,,,=1rffrfwrw",
"riwiiww68w6866w64w666686647y>$.Oo*::-:412rffffrriq",
"uyww8466866666658w4478686y<$@@@>1-15qtfarfffffrrr6",
"ww6448484668646646664644y=@@@$-12qggtgfttfrfriiir6",
"86766666666666654643464y=.@#=-4wdkkkffgfffifitiir6",
"666664y665566435545675<=@@@-1wshjffftffdfgiiiirwi6",
"246444445556655563<>$#@O@@=1ugggfhjffffhfffigiiirw",
"6664444462203=,7>$#OO#@. .=wiijifgfhgfffffggitiii6",
"343y44y4657=#OO#O##$%*$**$*6iigigffjgdhdiifiwwiiw6",
"44144431-$@.O.@@*=-,:31::-*-8gggfgffiiffrrwiuriww6",
"444331&@..X#*-348wruriii8-$--8hiffgiffffiidruir683",
"&&==#..@$-:3rrgghkkkjjjhi1$*=3ggfhgidffifiiiw8664:",
"@@@@@$=126rgkkkkjkjjjfjkf8=$==4iggfffffffuiiw34643",
"#&*=1148ihhhghshjjjkjgjjku5=$=-4dffffifuifui843661",
"48wwwiggshhhhhhhfkkfkjjjgi6=$$-=yiffiiiiffyyy5587=",
"4ifsfggssssfsggsjjfjfffujfw>$.==-uffifiiuiii66566=",
"uitssrisggiggiggfjfffjhjfdw,$.#==yfiffiiiii864563=",
"iwrsrrissgghhgigjffjffhhjfiy-#O$$3iiuiuiiiy666543%",
"wwirrrssiiiggiigjfdjfjgghjjfw7##=>wiiuiiiu6611553*",
"wwrrrrwrrriiiigiufffjfiifffff0-#$=6iiiii613313,31-",
"wrwrrrrwwrwrwttrwwwrttiiiffddd5%@$=yiiiw435533333>",
"qqrwwwqrrwwwwwrwwwqwqqww86ifdrr,$@$=8ru854733,5,4,",
"qqqwrwqrrwqwwwqqw68rwwww6156rddd8=@$,yy1343341:,3:",
"q6qwqqwwrqqww6qqw8884w6464750d0pyy=$$3533333,-1::3",
"6w5668644qqqw666666646464764599pyyy=$$3,333:,,:1:,",
"666548wwwqq6866646684657433451::14y7$#&y:3333::3:,",
"6666664qqqqq6665467347334353111:--,y=#$34,1:-3,-,-",
"25566464665696666644544434333:,:>>-5>##>5,1->:->-:",
"2535366393465594444555531<1,1::,:--:>@@&3,,1:::::-",
"5555356555989677<3341133,,,,<:::>--*=#@%5,,,:::-,;"
};
