/* XPM */
static char *_000_F_101659401_tG85G4c3hBhAm9fOldL5A0L7Wpak7Lor_resized[] = {
/* columns rows colors chars-per-pixel */
"50 50 102 2 ",
"   c #4B4B4B",
".  c #4C4C4C",
"X  c #4D4D4D",
"o  c #4E4E4E",
"O  c #4F4F4F",
"+  c #505050",
"@  c #515151",
"#  c #525252",
"$  c #535353",
"%  c #545454",
"&  c #555555",
"*  c #565656",
"=  c #575757",
"-  c #585858",
";  c #595959",
":  c #5A5A5A",
">  c #5B5B5B",
",  c #5C5C5C",
"<  c #5D5D5D",
"1  c #5E5E5E",
"2  c #5F5F5F",
"3  c #606060",
"4  c #616161",
"5  c #626262",
"6  c #636363",
"7  c #646464",
"8  c #656565",
"9  c #666666",
"0  c #676767",
"q  c #686868",
"w  c #696969",
"e  c #6A6A6A",
"r  c #6B6B6B",
"t  c #6C6C6C",
"y  c #6D6D6D",
"u  c #6E6E6E",
"i  c #6F6F6F",
"p  c #707070",
"a  c #717171",
"s  c #727272",
"d  c #737373",
"f  c #747474",
"g  c #757575",
"h  c #767676",
"j  c #777777",
"k  c #787878",
"l  c #797979",
"z  c #7A7A7A",
"x  c #7B7B7B",
"c  c #7C7C7C",
"v  c #7D7D7D",
"b  c #7E7E7E",
"n  c #7F7F7F",
"m  c #808080",
"M  c #818181",
"N  c #828282",
"B  c #838383",
"V  c #848484",
"C  c #858585",
"Z  c #868686",
"A  c #878787",
"S  c #888888",
"D  c #898989",
"F  c #8A8A8A",
"G  c #8B8B8B",
"H  c #8C8C8C",
"J  c #8D8D8D",
"K  c #8E8E8E",
"L  c #8F8F8F",
"P  c #909090",
"I  c #919191",
"U  c #929292",
"Y  c #939393",
"T  c #949494",
"R  c #959595",
"E  c #969696",
"W  c #979797",
"Q  c #989898",
"!  c #999999",
"~  c #9A9A9A",
"^  c #9B9B9B",
"/  c #9C9C9C",
"(  c #9D9D9D",
")  c #9E9E9E",
"_  c #9F9F9F",
"`  c #A0A0A0",
"'  c #A1A1A1",
"]  c #A2A2A2",
"[  c #A3A3A3",
"{  c #A4A4A4",
"}  c #A5A5A5",
"|  c #A6A6A6",
" . c #A7A7A7",
".. c #A8A8A8",
"X. c #A9A9A9",
"o. c #AAAAAA",
"O. c #ABABAB",
"+. c #ADADAD",
"@. c #AEAEAE",
"#. c #AFAFAF",
"$. c #B0B0B0",
"%. c #B1B1B1",
/* pixels */
"[ ] ] ] ] ] ] ] ~ J [ ' ] ( W P U Q ! ! ! ! ! ! ! ! ! ! ~ M D ^ ! ! Q ^ } | F k Q Q Q ^ _ _ ) _ ) ! ",
"] ] ] ] ] ] ] ] C / [ ] _ Q S A S H W ~ ! ! ! ! ! ! ! ! ~ S F ~ ! ~ ! ! ! ~ ` Z U Q W E ^ _ _ _ Q R ",
"] ] [ [ { [ ' H B  .] ` ~ P K ) ` W Y ! ! ! ! ! ! ! ! ! ~ I H ~ ! ! ! ! ! ! ! F F ~ W E E ~ _ _ / R ",
"[ [ / D m c c b | { ' ^ ! I / [ ] ] / ! ! ! ! ! ! ! ! ! ~ E Y ! ! ! ! ! ! ! ! U c P W W E R ! _ _ ! ",
"{ E q s T [ O.#.o.` / ! ! W ` ] ] ] ] ~ ! ! ! ! ! ! ! ! ! ~ ! Q Q ! ! ! ! Q Q W Z v A W ) / W ! ) W ",
"F 2 z $.+. .{ ' ` / Q ~ ! ~ ` ] ] [ ' ^ ! ! ! ! ! ! ! ! ! ! ! ! ! ! Q Q Q W W W ~ ] / Y R ( ) ! E Y ",
"% b %.} ` ' ' ` ^ ! ~ ! ! ! ) ] [ ] ' ^ ! ! ! ! ! ! ! ! ! ! ! ! ! Q Q ! Q W E E Q _ ) ~ E ~ ` ~ A A ",
"@ t w 8 9 0 0 N ~ ! ! ! ! ! ~ ) ] ` / ! ! ! ! ! ! ! ! ! ! ! ! ! Q Q ! ( ) ! E E ~ _ ^ T T Q K r - * ",
"6 q u g z M C i M ~ ! ! ! ~ ! ! ~ ~ ! ! ! ! ! ! ! ! ! ! ! ! ! ! ! Q ! ( _ ) Q R ~ _ ( E I h : ; = o ",
"#.#.#.O. .| { / b C ! ! ! ! ! ! ! ! ! ! ! ! ! ! ! ! ! ! ! E K G J T Q ! ) _ ) W E ) ` I 0 + 8 T W K ",
"' ( ~ Q Q W Q ! ^ D H ! ! ! ! ! ! ! ! ! ! ! ! ! ! ! ! ~ U V n n n N J Q ) ` ` ( Q Q Z 5 = l } / K L ",
"~ Q ! Q ! ! ! Q ! ~ Y R ! ! ! ! ! ! ! ! ! ! ! ! ! ! ! E C M D I U D x V G J I ! R u @ < L X.R F G G ",
"! ! Q ! ! ~ ! ! ! Q ! Q ! ! ! ! ! ! ! ! ! ! ! ! ! ! ! P m I ` ' ` ) E F H k e 9 4 % 9 ^ { J D F G G ",
"! ! ! ! ! ~ ! ! ! ! ! ! ! ! ! ! ! ! ! ! ! ! ! ! ! Q Q F G _ ` ` ` _ ' _ ~ ~ E U D G @.] G D F H G G ",
"! ! R G H Y ! Q ! ! ~ ! ! ! ! ! ! ! ! ! ! ! ! ! ! ! Q F Q [ ` _ _ ) ` | ' Q T R ` O.] P F F G H H H ",
"! W A G L J T ~ Q ! ! ! ! ! ! ! ! ! ! ! ! ! ~ ~ Q Q ! P ]  .| ] _ ( ) { | _ ^ ^ ) _ E G G G G H H H ",
"! U P ' [ _ R Q R L Y ! ~ ~ Q ! ! ! ! ~ Q I Z m D R ! Q }  . . .} ] ) _ { ` _ _ _ Q H F G G H H J H ",
"~ R ^ ] ] ] _ ~ ! T Z M K ~ ~ ! ! ~ Q l 5 1 d L Q Q Q ~ } | [ {  . .| ] _ / / / Q J D G H H H H H G ",
"! Q ` ] ] ] ] ^ Q ! ~ P j l Q ~ ! ~ B @ i Q ' ~ ! ! Q W ` ..[ ) [ |  ...} ( Q R H F G G H H H H H H ",
"! ~ _ ] [ [ ] / Q ! Q ^ G x _ Q ~ R 2 r O._ ! ! ! Q W W ^ | | ] { ..| } | ` ! K F G G H H H G H G b ",
"! ! / ] ] [ ' ~ ! ! Q ! i R ) Q ~ l % ! _ Q ! ! ~ ! Q W W ` ..| ..| ' _ _ ! L F H H H H H H H Z f z ",
"Q ! ~ / _ ` / ! ! ! ~ Z e [ ! ~ L = z | Q ! ! ! ! ! Q Q W ! {  .| ' _ / E L F G H H H H H J B j U ( ",
"! ~ ! ! ! ~ ! ! ! ! Q 0 M ] Q ! u , ] / ! ! ! ! ! ! Q Q Q W / [ ' / ^ R K G G H H H H H H F b Q Y H ",
"! ! ! ! ! ! ! ! ! ~ C ; / ^ ~ A $ D { Q ! ! ! ! ! ! ! Q Q W ! ) _ ! T J S H H H H H H H H A G P H H ",
"! ! ! ! ! ! ! ! ! ~ z ; W ~ E 6 q ..~ ! ! ! ! ! ! ! ! ! Q Q Q / _ E J F V H H H H H H H H S K H H H ",
"! ! ! ! ! ! ! ! ! ! P - d / c % Q ' ! ! ! ! ! ! ! ! ! ! ! ! Q Q R H F G M F H H H H H H G H H H J H ",
"! ! ! ! ! ! ! ! ~ ~ ! s ; S : j ..! ! ! ! ! ! ! ! ! ! ! ! ! E P G G G J n B J H H H H H H H H H J H ",
"! ! ! ! ! ! ! ~ ! ! ~ J * ; : ' ( ! ! ~ ! ! ! ! ! ! ! ! ! E L H H H H J V z J H H H H H H H H H H H ",
"! ! ! ! ! ! ! ! ! ~ ! ! t   A { Y Q ! ! ! ! ! ! ! ! ! Q Y K G H H H H H S a G H H H H H H H H H H H ",
"! ! ! ! ! ! ! ! ! ! ~ W 0 7  .~ E P Q ! ! ! ! ! ! ! E L H H H H H H H H H u V J H H H H H H H H H H ",
"! ! ! ! ! ! ! ! ! ~ ^ N % R ' ! ~ Y J ! ! ! ! ! W U J H H H H H H H H H J t c K H H H H H H H H H H ",
"! ~ ~ ~ ^ ~ ! Q R Y G , d X.Q ! ! ~ K D ~ ! Q Y K H H H J H H H H H H H M 4 T J H H H H H H H H H H ",
"^ U C n k a e 5 , = @ - ` ) ! ! ! ! ~ A Z R K H H H H H H H H H H J H F 5 z ~ G H H H H H H H H H H ",
"z , o X O $ - 2 0 a l R } Q ! ! ! ! Q R l c H H H H H H H H H H G H J f > ! L H H H H H H H H H H H ",
"X   0 I ^ ] } X.o.X.X.{ ! Q ! ! W Y K H H s c J H H H H H H H H H J B * v ! G H H H H H H H H H H H ",
"& m O.} _ / ^ ~ ! Q Q Q ! Q E U K H H H H F r c J H H H H H H H H G 0 : ~ L H H H H H H H H H H H H ",
"q ! / ! ! ! ! ! ! ~ ! W T P J G H H H H H J Z 8 c K J J J J K H J x O b Q G J H H H H H H H H H H H ",
"+ @ q Z W ~ ! ! W T P J H H H H H H H H H H J N 4 f l j j j k C K k O Z L H H H H H H H H H H H H H ",
"U s % O 7 N Y P J H H H H H H H H H H H J J H K v ; # O X .   ; z m + w J G H H H H H H H H H H H H ",
"/ ) Y f @ - S H H H H H H H H H H H H H H J H H J T T L D N c 9 @ 9 $ ; A J H H H H H H H H H H H J ",
"J J K R w O m J H H H H H H H H H H H H H H H H G J P I T W ! E l % . o c K H H H H H H H H H H G H ",
"H G H H c O a K H H H H H H H H H H H H H H H H H J H H H F D H I S 4 . 7 A J H H H H H H H H H H H ",
"H H J H D < 4 J H H H H H H H H H H H H H H H H H H H H Z x l m F L I s @ , c J H H H H H H H H H H ",
"H H H H J d * A K H H H H H H H H H H H H H H H H H H G x B H A V H H U B : @ y D J H H H H H H J M ",
"H H H H H C - 6 h N S J J J H H H H H H H H H H H H J S C E W E L H J H P K r o 1 b H J H H J G d % ",
"H H H H H J z r 3 : < 0 f V H H H H H H H H H H J H J F K E E E E L H H H J Y b & # p D J J A w +   ",
"G G H H H H P ~ ~ R G b 6 2 S J H H H H H H H H H H H H U E R E E U H J H H S m 3   . 3 m M 2 . o 9 ",
"J G G H H H G G H K U W P 7 u J G H H H H H H H H H H H P E E E E I G H J k : = q B j @ $ &   ; Z [ ",
"K F G G H H H H J H H H J D w n J H H H H H H H H H H H J Y E R R L H G D > r ^ ` ~ T Z 1 O p / ( L ",
"J D F G G G H H J H H J H J A s F H H H H H H H H H H J J H L P K H G H n ; W R J H H K F L } T H H "
};
