/* XPM */
static char *stone_green_resized[] = {
/* columns rows colors chars-per-pixel */
"50 50 238 2 ",
"   c #3B4A46",
".  c #3A544D",
"X  c #3B5B54",
"o  c #3B5953",
"O  c #2E6C5D",
"+  c #3C645A",
"@  c #356B5D",
"#  c #3C6A5E",
"$  c #366358",
"%  c #3C6C62",
"&  c #366E61",
"*  c #2D7463",
"=  c #2C7D6C",
"-  c #287966",
";  c #347363",
":  c #3B7264",
">  c #327D6C",
",  c #3B7C6C",
"<  c #367767",
"1  c #3C7F70",
"2  c #2A6F60",
"3  c #4D4D4D",
"4  c #444C4A",
"5  c #564B4A",
"6  c #44534E",
"7  c #4B524E",
"8  c #54524E",
"9  c #5C514E",
"0  c #4A5451",
"q  c #445B54",
"w  c #4B5A55",
"e  c #475A56",
"r  c #535453",
"t  c #5B5553",
"y  c #535956",
"u  c #5B5955",
"i  c #555C5A",
"p  c #5C5D5C",
"a  c #5D5759",
"s  c #534E50",
"d  c #65534E",
"f  c #645551",
"g  c #695653",
"h  c #655A54",
"j  c #6A5B56",
"k  c #625C5C",
"l  c #6B5D59",
"z  c #715B58",
"x  c #614D4C",
"c  c #43635B",
"v  c #4B625C",
"b  c #42685E",
"n  c #416157",
"m  c #55635E",
"M  c #5A655D",
"N  c #64625D",
"B  c #6C625C",
"V  c #686157",
"C  c #72645E",
"Z  c #645E60",
"A  c #4B6661",
"S  c #426C61",
"D  c #4C6C63",
"F  c #436A65",
"G  c #536662",
"H  c #5D6361",
"J  c #586C66",
"K  c #4C7166",
"L  c #4B726B",
"P  c #457869",
"I  c #54726A",
"U  c #58756B",
"Y  c #437E71",
"T  c #4A7E72",
"R  c #587B72",
"E  c #656565",
"W  c #686566",
"Q  c #646966",
"!  c #6A6A65",
"~  c #666668",
"^  c #656B69",
"/  c #6B6C6B",
"(  c #6C6669",
")  c #746B63",
"_  c #7A6C66",
"`  c #726C6B",
"'  c #796A65",
"]  c #64736D",
"[  c #6B726E",
"{  c #65786F",
"}  c #74746B",
"|  c #7C746B",
" . c #78746A",
".. c #6C7672",
"X. c #637B74",
"o. c #6C7B75",
"O. c #6D7E79",
"+. c #617E79",
"@. c #737473",
"#. c #7A7675",
"$. c #757B75",
"%. c #7A7B74",
"&. c #737D79",
"*. c #7B7C7A",
"=. c #80766D",
"-. c #82796F",
";. c #857B72",
":. c #817E7C",
">. c #877B73",
",. c #1B9B7D",
"<. c #199577",
"1. c #198970",
"2. c #29836E",
"3. c #2D8571",
"4. c #238C73",
"5. c #2E8A74",
"6. c #298C77",
"7. c #348472",
"8. c #3C8573",
"9. c #3B8C7A",
"0. c #358B76",
"q. c #2C917A",
"w. c #239B7D",
"e. c #259479",
"r. c #36957D",
"t. c #33826E",
"y. c #0DA67D",
"u. c #498677",
"i. c #58877A",
"p. c #43937D",
"a. c #63857A",
"s. c #6C857D",
"d. c #67897B",
"f. c #73837D",
"g. c #7C837D",
"h. c #78877B",
"j. c #83827D",
"k. c #83867B",
"l. c #1D9F81",
"z. c #2B9C81",
"x. c #369A83",
"c. c #14A484",
"v. c #1DA484",
"b. c #1BAC8A",
"n. c #15AA87",
"m. c #0CB58E",
"M. c #17B28D",
"N. c #0BBC93",
"B. c #06BB93",
"V. c #1CB492",
"C. c #13BA93",
"Z. c #18B793",
"A. c #0CAA86",
"S. c #23A384",
"D. c #29A789",
"F. c #36A78C",
"G. c #3CAD95",
"H. c #26B795",
"J. c #38B89B",
"K. c #2DAD91",
"L. c #5A8E83",
"P. c #479884",
"I. c #5B9383",
"U. c #549786",
"Y. c #6B8D84",
"T. c #738681",
"R. c #7B8582",
"E. c #758A83",
"W. c #7B8D85",
"Q. c #7C8E88",
"!. c #649B8D",
"~. c #679688",
"^. c #7D9384",
"/. c #73958B",
"(. c #7C938B",
"). c #75968A",
"_. c #7D9C91",
"`. c #7A9B93",
"'. c #47A48D",
"]. c #54A28D",
"[. c #47AA94",
"{. c #5AA995",
"}. c #5AA895",
"|. c #46B59A",
" X c #55B49B",
".X c #6AA898",
"XX c #7AAA9C",
"oX c #77A797",
"OX c #64B29C",
"+X c #71AA97",
"@X c #55BDA4",
"#X c #46BBA0",
"$X c #6BB5A1",
"%X c #65BAA5",
"&X c #77B8A7",
"*X c #09C397",
"=X c #13C39B",
"-X c #1BC49C",
";X c #25C29D",
":X c #26C9A4",
">X c #38CAA9",
",X c #39D6B3",
"<X c #3FD2AC",
"1X c #19CAA4",
"2X c #44C9A8",
"3X c #57C5AA",
"4X c #48D4B3",
"5X c #5FD2B6",
"6X c #66C3AB",
"7X c #76C3AD",
"8X c #6ACCB3",
"9X c #78C9B4",
"0X c #68D5B9",
"qX c #74D5BC",
"wX c #79D9C1",
"eX c #68D9C2",
"rX c #75E6CD",
"tX c #828582",
"yX c #848B83",
"uX c #898985",
"iX c #839285",
"pX c #82948D",
"aX c #839A8D",
"sX c #8B998B",
"dX c #839B93",
"fX c #889B94",
"gX c #89A59C",
"hX c #86A599",
"jX c #92A093",
"kX c #89ABA0",
"lX c #87BAAB",
"zX c #96B4A9",
"xX c #87C9B7",
"cX c #8DD3BE",
"vX c #8ED4C4",
"bX c #A3D5C8",
"nX c #86E5CB",
"mX c #A8EBD9",
/* pixels */
"~ ~ @.~ E ~ E e i.t C | >.k.;._ t q # u j h r I.0XS.M ( ~ W ~ ^ [ J : 0.1 + 0 ` tX&.W ~ ~ ~ E / m 0.",
"p u *.&.~ E ~ 0 2.7 d B ) ) C C z r q v 5 G .XU.%X|.J / E ~ ~ W &.(.R.U Y 5.- X p *.tX*.^ E E $.J 3.",
"S $ p yX*.~ / a ; P.I.i.i.Y.i.K S D c L fXoX~.h./.3X+.@.N ~ ~ E E ~ f.hXdXs., z.4.# ~ *.tX*.*.uXm - ",
"6 P.A / tXR.*.3 +X7X/.!.!.~. X4XH.V.:X%XkXh.k.%.^.7X~.$.~ E W E ~ E E ^ O.gXg.3.v.; 7.Y ] *.*.G 4.J.",
"a A P.. #.R.r Y.lX0 ..o.O.J . J.:XH.r.U | } j d k.+XbXg.$.E ~ ! W E ~ E p T.E.7.3.5 q - q.u.; v.,.F ",
"f.a * 3.r k v xXv f.hX/.Q.gX] O :Xp.h C j h j j } `.bXoX*.! W ~ E W W ! E T.E.7.& g ) t o = b.q.3 p ",
".._.3 6.&   &XY.Q gX~ H H ..gXH 1.J.W.C h V j j V h.$XOXf.#.E ~ E ^ E ~ E &.f.: w j } sXh.5 @ + W ^ ",
"Z _.T.o z.6XXXy hX..E W ~ H &.fXq b.2Xg._ h j j h $.hX8XI.:.^ E E ~ W ~ E T.J & p l d $.sXr < v @.E ",
"E ^ kXH 8.cXr (.f.E E E W ~ N T.iX@ m.@Xk.) j j h B h.7X%Xh.$.H ~ ~ W E ~ / ; t.h V f k. .X = H #.E ",
"Z O.dXw XX] ..Q.E ~ E ~ ^ E W M h.s.2.-X+Xk.=.j V g  .aX0Xi.j.^ E E E E W e D.< g h V k.t * O ` @.~ ",
"E Q.i Y.).p Q.E E E ^ E E W W W M T.] w.4XXX=. .h j V g.7X|.&.:.*.#.@.` a 2.A.0 z z B C 0 [.v *.[ E ",
"/ H L oXr f.^ E ^ ~ W E E E ^ E W ~ ] a.3X4X_.h.=.g g h _.0Xr.u.u.T L A : C.4X&X< c v 9 @ 5.s $.*.@.",
"a 6 /.G ^ ^ E ! E W E E E W ^ E W E ! G w.b.6Xh.-.) B C aX0X=X:Xc.e.4.2.<.1.[.@X,.V.<.u.vXq.c q e m ",
"3.G.F.o ~ } ~ E E E ~ ~ ~ E E ~ ~ / @.3.2Xb K 9Xs.|  .gX&XP 4.C.m.@ M s.a.a.L e 6 $ 4.b U F T ; > 0.",
": 7.b.n.= I *.#./ E E ~ / [ #.#.*.%.T A.* f 9 i.&X] lX$XJ pXY.; l.V.: ~ E.pXdXdXQ.r < b Z E k H i G ",
"` &.R r.;Xc.7.s.j.#.$.:.:.g.f.I.p.e.n.,.6 w v $ @XrX{.y f...).fXG 2 S.; 3 Z E ~ ..N q v @.E ( ` ` ` ",
"~ ^ pX/.I.J.;Xv.p.h.d.i.'.F.D.S.n.*X*Xw., 2.= 2.< r.,.b E E N f.kX[ . 1 T 0 k k s 6 @ b *.^ / ^ E / ",
"~ ~ E f.dX).OX>XH.w.G.,.4.t.@ q . 4.-X; 0 Q { f.h.N : w.o k ^ H / (.O.s A < v # 9.v.C.> :.$.W ` / ` ",
"E / W Z / (._.~.nXD.$ ] s.h.iXiX` 6 x.6 l %.;.h.%.-.5 + {.m a ( E E ..p o v.3X[.r.u.r.3.*.tXE ^ / W ",
"/ / / / ~ p f.f. Xr.u |  . .! B l q % k ' f V ) h 9 h.gX$X9X] a ^ ~ r X K.x.G ` ) ' R r.[ j.@./ E ~ ",
"/ ` / / W N ..s.7XvXC ) f f g j g q c } =.| =._ f.XX.XK 4 I xXf.p r $ F.1 f z ) j j i.G.X.yX/ ~ ~ ~ ",
"E ^ / E E E / [ $XG.M >.=.V j j j # > ) >.| f.+X{.F 4 o.pXy w zXsX& e.S x g g g g z I w.U uX$.~ E E ",
"/ ^ E E ~ ^ ! u %X:X,.U ;.;.B l d < r.N o..XbXi.. ^ fX_._.gX..7 `.wXJ.{..XI.i.I m v n w.P #.:.tX#.^ ",
"` ~ E ~ W E H /.0XqX0Xb., | >.) 5 t.H.u.F.7.0 p pXaXo.H E O.gX(.0 R wX5X{.%X6X8XqX3X|.>XK.r., I ..} ",
"a W ~ Z p f.9X3XJ.9XgX0X;X4.P : u.l.v.z.& r @.E...E E E W N ^ (.fXp * e.3 H { +.L.Y.!.}.[.|.J.J.q.2.",
"P., G ] &X7XP.. $XlX[ dX7X2Xm.B.H.; 4 % e / [ E E ~ W E E ^ ~ H O.pX: 6.H @.&.R.Q.(.(./.Q.T.s.z.1X>X",
"P.,.|.nX{.  g i %X/.k Q.^.oX3X:X1.x  .b X ` ~ ~ E E E ~ ~ W ~ E ~ R.1 9.@.:.~ ( ( ~ ^ @.f.kXL.J.;X].",
"..s.L.OXxX~.N L 0XX.E ^ dXE.O.vX'.t k.L % / @.E ~ ~ ~ E E E E E [ &.* 9.*.@./ ~ E E ~ p T./.<.,X9.i ",
"~ [ W._.oX9XXXP.9XM W E ^ dXE.m +XM g.a.% E R.W E E ~ ~ W ~ ~ E [ / 5.1 tXg.^ ~ E ~ E [ fX7.<X[.p ( ",
"~ E H / T.dXXXmX&Xy / W H E gX^ a.{  .^.Y i tX$./ E E ~ E E E E / ~ 7.u.:.tX/ E ~ ~ H Q.i.y.eX&Xi ^ ",
"E ~ ~ W Z o.(.zXbXE E ^ ~ E E.] U a.h iXY o @.yXtX$./ ~ ~ / g.#.k I l.1 #.:.R.` E E &.T.,.V.- M.7.E ",
"~ ~ ~ Q ~ E (.R vXlXr E ~ E &.{ i I.9 k.u.Y 4 p $.uXtX$.g.g.` I 9.K.b.H.6.L @.tX/ E f.7.C.; x t.H.+ ",
"E ~ ~ ~ ~ E ..T.a.nX.Xs Z ~ / W w i.u C U 8XqXu.n M #.tX} / U.D.9.K v - V.M.<.K E ` K H.9.9 ) W 5.|.",
"} E ~ E ~ W E f.M $XeX}.w w 7 7 4 8.P V u  X[.8XwX+Xv G * [.}.# o.sXaX] o 6.Z.C.e.F S.z.0 ' V iXJ  X",
"g.$.E E W ~ E [ k J 0X<X X X{.F.F.K.Z.0Xw.2X8.G U.3XqX3XF.$ 8 :.%.B ! sXh.t X ,.m.N.v.6 | ) d } sX+ ",
"U tXg.$./ $.#.y y ).&X9.u./.i.U.P.P.D.D.<.4Xp.N T.a.].3X8X~.M f d j h V %.iXV 3 $ ,.$ B ;.h j h h.yX",
"P.[ #.*.tX&.y O.XX~.R iXk.h.k.k.k.sXiX^.h.|.G.M [ $.(.!..X3X0XL.y d j l h V C h c & u >.C j j j j W.",
"u.3XP.X.~ ^ fX/.U  .h.C h g g h h B B B h.}.J.K #.E ~ E.gX~.].vX9Xi.8 d l j f $ 5.0 ;.=.j j j j j j ",
"3 z.>X2X{.T.Q N  .B d h j j V z j j h f | I.>Xu.*.E ~ H [ R._.~.].7X7Xa.r d . '.A ) k.C j j j j j j ",
"h   9X,XA.6 j V h h j z j j j j j j j V ) d.J.p.:.$.~ E E M ^ g.iXa.U.qX&XT e.< k >._ j j j j j j j ",
"l f X V.N.& d g V j j j j j V j j j j h B s.D.K.U g.tX$.~ ~ ~ N W ../ e OXnXq.r >.>.' j j j j j j j ",
"g l s 4.*X2.9 ) g j j j j j j j j j j j j  .9.-Xn.u.s.tX*./ E ~ ^ @.~ 2 8XrXP a ) ;.k.;._ C h g j j ",
"l l 9 3.*Xb.0 | V j j j j j j j j j j j h C u.*XB.B.v.u.g.j.@.@.tXJ 4.C.F.$XmX$Xi.G k ) ;.>.| C g j ",
"l z s }.=Xm.+ ' _ j j j j j j j j j j j j z n M.N.m.*XN.S.i.g.:.L l.=X1.R { D i.%X8X{.i.v t ) =.=.! ",
"f g 5 P.=X*X= k ;.B j h j h j h h C _  .h 7 t.4.< u.7.e.,.b.9.t.m.m.= T.(.(.fXs.G D i.6X6X'.P 6 r h ",
"$ ; = c.=XN.l.u k.>.-.=.=._ _ C _ ;.) 5 @ w.- I sXk.h. .t 4.*X*Xv.% E.T.N E { Q.gX(.U 7 c U.3X@XU.% ",
"M.n.z.c.n.m.Z.X d C  .| =.-.k.>.-.h o w.V.@ { jX} h h j b M.N.e.A &./ E ~ W E E Q s.(.hXs.i   % [.>X",
"Y Y._.Y.U b - '.I.@ @ b v v y f 6 = M.,.$ h.sXB h j j 8 ,.*XK.w ` ~ E W ~ E E ~ E N E ] W.dX(.~   U.",
"` ..{ Q.fXpXe F.U.; < < i.1 e.,.c.C.5.6 %.k.V h j j t t.*XB.n.$ E W ~ E ~ E E ~ E ^ W E N E ..pXu !.",
"E Z E H ^ Q.y = . f N M r 3 + M.C.- 4 `  .u j j l g n S.<.b.C.- u ~ ~ ~ E ~ ~ E E ! E ~ ^ E M $.i 8."
};
