/* XPM */
static char *__removebg_preview_resized[] = {
/* columns rows colors chars-per-pixel */
"50 50 247 2 ",
"   c None",
".  c #B6730D",
"X  c #B6740C",
"o  c #BD7608",
"O  c #BA770E",
"+  c #BB770E",
"@  c #BA770F",
"#  c #BC770D",
"$  c #BD760F",
"%  c #BE780B",
"&  c #BC7A0D",
"*  c #BF7B0C",
"=  c #BD790E",
"-  c #B77513",
";  c #BA7710",
":  c #BA7611",
">  c #B87712",
",  c #BA7612",
"<  c #BD7610",
"1  c #BC7711",
"2  c #B97614",
"3  c #B97717",
"4  c #BB7811",
"5  c #B77818",
"6  c #BA7818",
"7  c #BC7B1A",
"8  c #BC7C1A",
"9  c #BB7A1C",
"0  c #B97D1C",
"q  c #BB7E1E",
"w  c #BA7F1F",
"e  c #BE7C1D",
"r  c #C0770F",
"t  c #C1790D",
"y  c #C1780F",
"u  c #C2790F",
"i  c #C17D0C",
"p  c #C17E0C",
"a  c #C27F0E",
"s  c #C47F0E",
"d  c #C87E0E",
"f  c #CA7E0F",
"g  c #CB7F0F",
"h  c #C87F10",
"j  c #BF8124",
"k  c #BF852B",
"l  c #C5810C",
"z  c #C7830C",
"x  c #C9810D",
"c  c #CC800F",
"v  c #CE8D0B",
"b  c #D29109",
"n  c #D3950A",
"m  c #D8990B",
"M  c #D9990B",
"N  c #DA9D0B",
"B  c #DB9F0A",
"V  c #DA9C0C",
"C  c #DC9F0C",
"Z  c #CE8010",
"A  c #D38611",
"S  c #D48611",
"D  c #D58712",
"F  c #DB8C13",
"G  c #DF8F15",
"H  c #DE8F16",
"J  c #E18F16",
"K  c #E49117",
"L  c #E09D10",
"P  c #E49418",
"I  c #E5941A",
"U  c #E9971B",
"Y  c #EA981C",
"T  c #EB981C",
"R  c #ED991D",
"E  c #EE991D",
"W  c #E2A60B",
"Q  c #E0A50C",
"!  c #E7AF09",
"~  c #E7AE0B",
"^  c #E8AE0B",
"/  c #E9B10A",
"(  c #EBB40C",
")  c #EFB90D",
"_  c #F1BE0D",
"`  c #F2A11F",
"'  c #F4A01F",
"]  c #F6A71E",
"[  c #FAAB1F",
"{  c #FAAC1F",
"}  c #FCAF1D",
"|  c #F7BF10",
" . c #FCBA17",
".. c #FBBD16",
"X. c #FCBF15",
"o. c #FBB519",
"O. c #FBB619",
"+. c #FAB41B",
"@. c #FAB01C",
"#. c #FAB11C",
"$. c #FBB11D",
"%. c #FBB818",
"&. c #C08225",
"*. c #C18529",
"=. c #C1852D",
"-. c #C3892E",
";. c #C4892E",
":. c #C58A32",
">. c #C58D34",
",. c #C68F39",
"<. c #C78F3A",
"1. c #F5A021",
"2. c #F6A021",
"3. c #F7A620",
"4. c #F8A322",
"5. c #F8A421",
"6. c #FAA423",
"7. c #FAA424",
"8. c #FBA524",
"9. c #FBA425",
"0. c #FBA822",
"q. c #E6B429",
"w. c #F3C00B",
"e. c #F6C30B",
"r. c #FBCA0B",
"t. c #FDCE09",
"y. c #FECE08",
"u. c #FECF08",
"i. c #FECE09",
"p. c #FFCE09",
"a. c #FECF09",
"s. c #FFCF09",
"d. c #FCCD0B",
"f. c #FDCE0B",
"g. c #FECE0A",
"h. c #FECF0A",
"j. c #FFCF0A",
"k. c #FECE0B",
"l. c #FECF0B",
"z. c #FFCF0B",
"x. c #FBCB0C",
"c. c #FCCB0C",
"v. c #FDC90F",
"b. c #FDCA0F",
"n. c #FECD0C",
"m. c #FECD0D",
"M. c #FFCE0C",
"N. c #FECF0C",
"B. c #FFCF0C",
"V. c #FECE0D",
"C. c #FECF0D",
"Z. c #FECD0F",
"A. c #FDCF0E",
"S. c #FCCF0F",
"D. c #FED00A",
"F. c #FFD00A",
"G. c #FED00B",
"H. c #FFD00B",
"J. c #FED00C",
"K. c #FFD00C",
"L. c #FCC313",
"P. c #FDC610",
"I. c #FDD012",
"U. c #FDD112",
"Y. c #FDD21B",
"T. c #FED41B",
"R. c #FBD11C",
"E. c #FBD21C",
"W. c #FED429",
"Q. c #FCD42B",
"!. c #FBD530",
"~. c #FCD734",
"^. c #FDD736",
"/. c #FDD836",
"(. c #FBD93D",
"). c #C89341",
"_. c #CA9646",
"`. c #CC9A48",
"'. c #CD9D52",
"]. c #CFA152",
"[. c #CFA158",
"{. c #D4A855",
"}. c #D4AA67",
"|. c #D5AB68",
" X c #D7B071",
".X c #D9B377",
"XX c #D9B477",
"oX c #DAB67C",
"OX c #DAB87F",
"+X c #E0BD63",
"@X c #FAD642",
"#X c #FBDA49",
"$X c #FCDB4D",
"%X c #FADC5A",
"&X c #FBDE5A",
"*X c #FDDF5A",
"=X c #FBDF5C",
"-X c #FADF5F",
";X c #F6DC6A",
":X c #E4C67D",
">X c #F5DB75",
",X c #FAE57D",
"<X c #DBBA80",
"1X c #E5C785",
"2X c #E4C787",
"3X c #E5CC92",
"4X c #E3C996",
"5X c #E2C89A",
"6X c #EDD799",
"7X c #EAD59E",
"8X c #F1DA92",
"9X c #FCE681",
"0X c #FBE785",
"qX c #F6E28D",
"wX c #FCE993",
"eX c #E8D4AD",
"rX c #EBD9B7",
"tX c #EBDBBA",
"yX c #F6E4A1",
"uX c #FBEEAC",
"iX c #FBEEAD",
"pX c #F3E6C6",
"aX c #FCF3C3",
"sX c #FCF4CB",
"dX c #F2E7D0",
"fX c #F3E8D3",
"gX c #F3E8D4",
"hX c #F4EBDA",
"jX c #FCF8DE",
"kX c #F6EFE0",
"lX c #F7F0E3",
"zX c #FDFAE8",
"xX c #FAF8EC",
"cX c #FDFBED",
"vX c #FEFDEE",
"bX c #FCFAF4",
"nX c #FDFDF7",
"mX c #FDFDFB",
"MX c #FEFDFB",
"NX c #FEFEFB",
"BX c #FEFEFC",
"VX c #FEFEFD",
"CX c #FFFEFD",
"ZX c #FEFEFE",
"AX c #FFFEFF",
"SX c #FEFFFF",
"DX c #FFFFFF",
/* pixels */
"                                                                                                    ",
"                                                                                                    ",
"                                                                                                    ",
"                                                                                                    ",
"                                                                                                    ",
"                                                                                                    ",
"                                                                                                    ",
"                                                                                                    ",
"                                                                                                    ",
"                                                                                                    ",
"                                                                                                    ",
"                                                3 0                                                 ",
"                                              q OXrX[.                                              ",
"                                              |.bXDXkX_.                                            ",
"                                            :.gXAXVXvX3X8                                           ",
"                                          X oXBXZXjX-X;X`.                                          ",
"                                          ;.fXSXsX#Xt.~.2X9                                         ",
"                                        . XXnXuX!.a.h.U.qX_.                                        ",
"                                        <.pX0XE.p.z.l.u.(.:X7                                       ",
"                            : e *.>.'. X6X&XS.h.z.z.z.l.V.@X+X].,.=.w >                             ",
"                        k }.5XtXdXlXxXiX^.g.l.l.z.z.z.z.l.k.W.%X>X8X7X4X.X).6                       ",
"                      &.eXmXDXDXDXzX,XR.p.B.z.z.z.z.z.z.z.z.s.a.C.Y./.*X9XyX{.                      ",
"                      -.hXDXCXNXaX$XA.h.z.z.z.z.z.z.z.z.z.z.z.z.N.k.i.y.f.T.q.;                     ",
"                      5 <XMXcXwXQ.y.j.B.B.z.z.z.z.z.z.z.z.z.z.z.z.l.l.N.F.r.b                       ",
"                        j 1X=XI.j.z.z.z.z.z.z.z.z.z.z.z.z.z.z.z.z.z.j.H.d.B <                       ",
"                          p ! l.z.z.j.z.z.z.z.z.z.z.z.z.z.z.z.z.j.z.B.c.C =                         ",
"                            s ~ N.l.z.z.z.z.z.z.z.z.z.z.z.z.z.z.z.z.c.N O                           ",
"                              i ^ N.l.z.z.z.z.z.z.z.z.z.z.z.z.z.D.x.V 1                             ",
"                                l _ H.z.z.z.z.z.z.z.z.z.z.z.z.z.D.W @                               ",
"                                o / H.z.z.z.z.z.z.z.z.z.z.z.z.z.k.n                                 ",
"                                * ) H.z.z.z.z.z.z.z.z.z.z.z.z.l.N.M                                 ",
"                                z e.H.z.z.l.z.z.j.j.z.z.j.z.z.z.K.Q                                 ",
"                                v c.B.z.z.z.s.G.l.z.F.J.z.z.z.z.H.( &                               ",
"                                m N.z.j.z.F.n.L.%.o...v.G.z.z.z.H.w.a                               ",
"                                L Z.l.M.b.X.$.3.R U ` {  .P.m.l.N.| x                               ",
"                              - P } +.#.[ 5.Y S t % h J ' 0.@.O.+.] Z                               ",
"                                H 8.7.4.E D y         : g K 2.6.9.1.f                               ",
"                                d P I A u                 + c G T F 4                               ",
"                                  # $                         2 r ,                                 ",
"                                                                                                    ",
"                                                                                                    ",
"                                                                                                    ",
"                                                                                                    ",
"                                                                                                    ",
"                                                                                                    ",
"                                                                                                    ",
"                                                                                                    ",
"                                                                                                    ",
"                                                                                                    ",
"                                                                                                    "
};
