/* XPM */
static char *__removebg_preview_resized[] = {
/* columns rows colors chars-per-pixel */
"50 50 110 2 ",
"   c None",
".  c #B6710C",
"X  c #BE760D",
"o  c #BE780E",
"O  c #B77410",
"+  c #BC7612",
"@  c #BB7815",
"#  c #BB7C1D",
"$  c #BE7D21",
"%  c #C0790E",
"&  c #C27A11",
"*  c #BD801F",
"=  c #BE8023",
"-  c #BE8329",
";  c #C78305",
":  c #C4810C",
">  c #CD820E",
",  c #CD8C0B",
"<  c #D3930B",
"1  c #D99C0B",
"2  c #CF8412",
"3  c #C1811D",
"4  c #D38511",
"5  c #D4991F",
"6  c #E09017",
"7  c #E59318",
"8  c #E9961A",
"9  c #EC9A1C",
"0  c #E0A40B",
"q  c #E3A90A",
"w  c #E9B10C",
"e  c #F1BB0B",
"r  c #EAAA10",
"t  c #F2A11D",
"y  c #FAAD1F",
"u  c #F0B312",
"i  c #FCBD15",
"p  c #FAB31B",
"a  c #C18225",
"s  c #C2872E",
"d  c #C2882F",
"f  c #C48D33",
"g  c #C68F3B",
"h  c #C99236",
"j  c #C7913B",
"k  c #F6A220",
"l  c #FAA424",
"z  c #FBAA20",
"x  c #ECBF38",
"c  c #F5C20C",
"v  c #F8C50B",
"b  c #FFCF0B",
"n  c #FFD00B",
"m  c #FCC412",
"M  c #FECF10",
"N  c #FDD011",
"B  c #FCD21D",
"V  c #FCD323",
"C  c #FAD328",
"Z  c #FBD531",
"A  c #FBD83B",
"S  c #CA9644",
"D  c #CC9A4B",
"F  c #D09D41",
"G  c #D2A45A",
"H  c #D8B15D",
"J  c #D4AA65",
"K  c #D4AC6A",
"L  c #D9B579",
"P  c #F8D542",
"I  c #FDDA43",
"U  c #FBDB4F",
"Y  c #FBDD54",
"T  c #F3D35B",
"R  c #F9DE64",
"E  c #E4C472",
"W  c #F3DB7F",
"Q  c #FDE266",
"!  c #FCE272",
"~  c #FBE47A",
"^  c #DCBB84",
"/  c #E0C28E",
"(  c #E4C98D",
")  c #EED997",
"_  c #E8D29D",
"`  c #EED999",
"'  c #F9E484",
"]  c #FBE689",
"[  c #FAE98F",
"{  c #FBE992",
"}  c #E5CDA3",
"|  c #E9D3AB",
" . c #ECD9B4",
".. c #EBDABC",
"X. c #FDEDA7",
"o. c #FBEEAD",
"O. c #FBF0B5",
"+. c #EFDFC4",
"@. c #F3E7CF",
"#. c #FCF4CB",
"$. c #F2E7D0",
"%. c #F4E9D2",
"&. c #FDF6D5",
"*. c #FDF8DE",
"=. c #F6F0E0",
"-. c #F8F2E5",
";. c #FDF9E4",
":. c #FDFAEC",
">. c #FCFBF4",
",. c #FFFEFD",
/* pixels */
"                                                                                                    ",
"                                                                                                    ",
"                                                                                                    ",
"                                                                                                    ",
"                                                                                                    ",
"                                                                                                    ",
"                                                                                                    ",
"                                                                                                    ",
"                                                                                                    ",
"                                                                                                    ",
"                                                                                                    ",
"                                                # #                                                 ",
"                                              f ( ( f                                               ",
"                                            # E Y { | =                                             ",
"                                            G ~ { :.>.K                                             ",
"                                          #  .;.,.,.,.+.a                                           ",
"                                          G >.,.,.,.,.>.K                                           ",
"                                        #  .,.,.,.,.,.,...$                                         ",
"                                      . K >.,.,.,.,.,.,.:.J .                                       ",
"                            @ = s j G ^ =.,.,.,.,.,.,.;.~ T H D f = # O                             ",
"                        j L } ..%.-.>.,.,.,.,.,.,.,.&.Y b M A R W ` _ / J d                         ",
"                      S $.o.~ O.,.,.,.,.,.,.,.,.,.O.A b b b b b n V I Q { ` f                       ",
"                      G { C ] :.,.,.,.,.,.,.,.>.[ V b n b b b b b b b b n C 5                       ",
"                      3 x X.,.,.,.,.,.,.,.,.;.! M b b b b b b b b b n n n e :                       ",
"                        h %.,.,.,.,.,.,.,.#.U b b b b b b b b n b b b n v ,                         ",
"                          S $.,.,.,.,.>.o.C b b b b b b b b b b b b n c ,                           ",
"                            S $.,.,.:.] B b b b b b b b b b b b b n c ,                             ",
"                              S @.;.Q b b n b n b b b b n b b n b c ,                               ",
"                                j P n b n b b b b n b b b b b n v <                                 ",
"                                , v b n b b b b b b b n b b b n v :                                 ",
"                                , v n b b b b b b b b b b n b n v >                                 ",
"                                < b b b b n n b b n b b b b b b b ,                                 ",
"                                0 M b b b b n n b b b b b n b b b 1                                 ",
"                              + w b b b n b m m p i i b n n b b n q O                               ",
"                              % u b b b m i z t 8 9 k p i v b n n r o                               ",
"                              & t p p p z k 6 2 X o 2 8 l y p p p 9 &                               ",
"                              & 9 l l k 7 2 &         + 4 9 l l l 8 %                               ",
"                                4 8 6 > +                 % 4 7 8 4                                 ",
"                                  X                           + +                                   ",
"                                                                                                    ",
"                                                                                                    ",
"                                                                                                    ",
"                                                                                                    ",
"                                                                                                    ",
"                                                                                                    ",
"                                                                                                    ",
"                                                                                                    ",
"                                                                                                    ",
"                                                                                                    ",
"                                                                                                    "
};
