/* XPM */
static char *__removebg_preview_resized[] = {
/* columns rows colors chars-per-pixel */
"50 50 233 2 ",
"   c None",
".  c #B6710C",
"X  c #B7720D",
"o  c #BE770C",
"O  c #BE770D",
"+  c #BE780E",
"@  c #BF780F",
"#  c #B77511",
"$  c #B87513",
"%  c #BD7711",
"&  c #BC7612",
"*  c #BD7612",
"=  c #BB7815",
"-  c #B97C1A",
";  c #BD7D1B",
":  c #B87B1D",
">  c #BA7A1C",
",  c #BD7D1F",
"<  c #BF7E20",
"1  c #BE7E21",
"2  c #BE7F21",
"3  c #C0770F",
"4  c #C0790D",
"5  c #C0790E",
"6  c #C07910",
"7  c #C27910",
"8  c #C17A10",
"9  c #C37C12",
"0  c #BC8224",
"q  c #BE8329",
"w  c #C88307",
"e  c #C4810B",
"r  c #C3820C",
"t  c #CA840A",
"y  c #CD800F",
"u  c #CD810F",
"i  c #CF830F",
"p  c #CB890A",
"a  c #CB880B",
"s  c #CC8A0A",
"d  c #CD8B0A",
"f  c #CD8A0B",
"g  c #CD8C0A",
"h  c #CE8E0B",
"j  c #CD8B0C",
"k  c #CE8B0C",
"l  c #CE8E0C",
"z  c #D1910B",
"x  c #D3920A",
"c  c #D6960B",
"v  c #D99C0B",
"b  c #CF8412",
"n  c #C1811E",
"m  c #D28510",
"M  c #D38510",
"N  c #D38411",
"B  c #D4991F",
"V  c #E09017",
"C  c #E49218",
"Z  c #E49418",
"A  c #E7941A",
"S  c #E89519",
"D  c #E9961A",
"F  c #E8971A",
"G  c #EC971B",
"H  c #EA971C",
"J  c #EA981B",
"K  c #EC9B1A",
"L  c #EC991D",
"P  c #EE9B1D",
"I  c #E0A40B",
"U  c #E3A90A",
"Y  c #E9B10C",
"T  c #F1BB0B",
"R  c #F3BE0B",
"E  c #F4BF0C",
"W  c #EAAA10",
"Q  c #F2A11D",
"!  c #FAAD1F",
"~  c #ECBA1D",
"^  c #F0B312",
"/  c #FBBA17",
"(  c #FBBF15",
")  c #FCBE14",
"_  c #FAB21B",
"`  c #FBB619",
"'  c #FBB719",
"]  c #FAB41B",
"[  c #FAB01C",
"{  c #FBB11C",
"}  c #FAB01D",
"|  c #FAB21D",
" . c #C08328",
".. c #C2872F",
"X. c #C2882F",
"o. c #C28D33",
"O. c #C78F33",
"+. c #C58B34",
"@. c #C48C35",
"#. c #C6903B",
"$. c #C7913D",
"%. c #F5A121",
"&. c #F6A120",
"*. c #F5A220",
"=. c #F6A420",
"-. c #F7A421",
";. c #F9A322",
":. c #FAA424",
">. c #FAA524",
",. c #FBA524",
"<. c #FCA525",
"1. c #FAA920",
"2. c #FBAB20",
"3. c #FDCE07",
"4. c #FECE07",
"5. c #F6C30A",
"6. c #F3C00D",
"7. c #F4C10C",
"8. c #F4C00D",
"9. c #F4C10D",
"0. c #F5C10D",
"q. c #F5C30C",
"w. c #F8C50B",
"e. c #F8C60D",
"r. c #FBCA0B",
"t. c #FCCF08",
"y. c #FECE08",
"u. c #FECF08",
"i. c #FECE09",
"p. c #FFCE09",
"a. c #FECF09",
"s. c #FFCF09",
"d. c #FDCF0B",
"f. c #FECE0A",
"g. c #FECF0A",
"h. c #FFCF0A",
"j. c #FECE0B",
"k. c #FFCE0B",
"l. c #FECF0B",
"z. c #FFCF0B",
"x. c #FBCA0D",
"c. c #FBCB0D",
"v. c #FCCB0C",
"b. c #FDC90F",
"n. c #FECA0F",
"m. c #FDCD0D",
"M. c #FECD0D",
"N. c #FDCF0D",
"B. c #FFCE0C",
"V. c #FECF0C",
"C. c #FFCF0C",
"Z. c #FECF0D",
"A. c #FFCF0D",
"S. c #FECF0E",
"D. c #FED009",
"F. c #FFD00A",
"G. c #FFD10A",
"H. c #FED00B",
"J. c #FFD00B",
"K. c #FFD10B",
"L. c #FFD00C",
"P. c #FFD10C",
"I. c #FCC711",
"U. c #FCC114",
"Y. c #FECF10",
"T. c #FED010",
"R. c #FCD012",
"E. c #FED017",
"W. c #FBD119",
"Q. c #FDD218",
"!. c #FCD21B",
"~. c #FDD21C",
"^. c #FCD422",
"/. c #FCD427",
"(. c #FDD42A",
"). c #FCD62F",
"_. c #FDD731",
"`. c #FED630",
"'. c #FDD73A",
"]. c #CC9644",
"[. c #CC9A4A",
"{. c #D1A15B",
"}. c #D2A559",
"|. c #D2A45D",
" X c #D2A55D",
".X c #D4AA5B",
"XX c #D4A95C",
"oX c #D7B15F",
"OX c #D4A963",
"+X c #D4AA67",
"@X c #D5AA67",
"#X c #D9B579",
"$X c #DDB97A",
"%X c #FCD940",
"&X c #FDDA43",
"*X c #FAD947",
"=X c #FCDC47",
"-X c #FCDC4A",
";X c #F3D357",
":X c #FCDD55",
">X c #F9DE63",
",X c #F8DC65",
"<X c #FADE66",
"1X c #F9DF68",
"2X c #E4C475",
"3X c #E7C976",
"4X c #ECD178",
"5X c #F3DB7F",
"6X c #FCE060",
"7X c #FCE064",
"8X c #FDE266",
"9X c #FCE474",
"0X c #E0C28E",
"qX c #E4C98D",
"wX c #E4CA90",
"eX c #EAD291",
"rX c #EAD394",
"tX c #EED997",
"yX c #E8D29D",
"uX c #EED999",
"iX c #F5E08F",
"pX c #F9E68F",
"aX c #FBE890",
"sX c #FAE994",
"dX c #E5CDA3",
"fX c #EAD6AA",
"gX c #EDDCB6",
"hX c #F9EAA3",
"jX c #FAEBA4",
"kX c #FDF0B4",
"lX c #F3E6C0",
"zX c #F7EBC0",
"xX c #F4EAD1",
/* pixels */
"                                                                                                    ",
"                                                                                                    ",
"                                                                                                    ",
"                                                                                                    ",
"                                                                                                    ",
"                                                                                                    ",
"                                                                                                    ",
"                                                                                                    ",
"                                                                                                    ",
"                                                                                                    ",
"                                                                                                    ",
"                                                > :                                                 ",
"                                              o.qXwX@.                                              ",
"                                            , 2X-X=X3X0                                             ",
"                                            }.>Xt.4.*X.X                                            ",
"                                          < eX`.a.g.Q.4X .                                          ",
"                                          |.pXS.z.z.y.<XOX                                          ",
"                                        ; fX6Xu.z.z.a._.rX2                                         ",
"                                      X @XhX!.h.z.z.l.d.1XXX.                                       ",
"                            = 1 ..$.{.$XiX).i.l.z.z.l.g.E.;XoX[.+.q - #                             ",
"                        #.#XdXgXlXzXjX7X~.a.C.z.z.z.z.C.g.Y.'.,X5XuXyX0X+XX.                        ",
"                      ].xXkX9X:X%X(.R.p.k.z.z.z.z.z.z.z.z.z.s.g.T.^.&X8XaXtXO.                      ",
"                       XsXW.3.y.u.a.k.C.z.z.z.z.z.z.z.z.z.z.z.z.V.f.i.i.N./.B                       ",
"                      n ~ D.V.k.z.k.z.z.C.z.z.z.z.z.z.z.z.z.z.h.z.l.z.H.G.T e                       ",
"                        a 9.H.V.z.z.z.z.z.z.z.z.z.z.z.z.z.z.z.z.z.z.z.G.q.g                         ",
"                          f 6.L.h.h.z.z.z.z.z.z.z.z.z.z.z.z.z.z.h.C.L.0.h                           ",
"                            k R H.k.z.z.z.z.z.z.z.z.z.z.z.z.z.z.z.L.7.d                             ",
"                              p E L.z.z.z.z.z.z.z.z.z.z.z.z.z.h.F.8.j                               ",
"                                x c.z.z.z.z.z.z.z.z.z.z.z.z.z.F.r.z                                 ",
"                                w w.z.z.z.z.z.z.z.z.z.z.z.z.z.z.5.r                                 ",
"                                s x.z.z.z.z.z.z.z.z.z.z.z.z.z.F.e.t                                 ",
"                                c j.z.z.z.l.z.z.h.z.z.z.z.z.z.z.v.l                                 ",
"                                I P.z.z.z.h.F.H.z.h.H.V.h.z.z.h.A.v                                 ",
"                              + Y K.z.h.J.h.n.( ` ' U.m.J.z.z.z.K.U $                               ",
"                              8 ^ A.k.M.I./ ! *.H L =.[ ) b.B.l.Z.W O                               ",
"                              9 Q { ] } 1.%.C y o 4 b S -.2._ ' | K 7                               ",
"                              6 P ,.:.&.A u *         @ N G ;.>.<.D @                               ",
"                                M F V u %                 5 m Z J i                                 ",
"                                  O                           & 3                                   ",
"                                                                                                    ",
"                                                                                                    ",
"                                                                                                    ",
"                                                                                                    ",
"                                                                                                    ",
"                                                                                                    ",
"                                                                                                    ",
"                                                                                                    ",
"                                                                                                    ",
"                                                                                                    ",
"                                                                                                    "
};
