/* XPM */
static char *Gold_1_resized[] = {
/* columns rows colors chars-per-pixel */
"36 36 79 1 ",
"  c None",
". c #A57700",
"X c #A77800",
"o c #AB7D00",
"O c #AF8000",
"+ c #B28300",
"@ c #B78800",
"# c #BA8B00",
"$ c #BF9100",
"% c #C39400",
"& c #C79800",
"* c #CA9B00",
"= c #CEA300",
"- c #CEAC00",
"; c #D3A300",
": c #D4AB00",
"> c #DCAC00",
", c #D4B400",
"< c #DBB200",
"1 c #D7B800",
"2 c #DBBA00",
"3 c #E3B400",
"4 c #E7BA00",
"5 c #ECBC00",
"6 c #DEC200",
"7 c #E4C400",
"8 c #EDC400",
"9 c #E6CE00",
"0 c #EBCC01",
"q c #E7CD0F",
"w c #F3C300",
"e c #F8C600",
"r c #F5CB00",
"t c #FDCD00",
"y c #F0C40E",
"u c #EBD100",
"i c #EFDD00",
"p c #F4D400",
"a c #FDD300",
"s c #F3DB00",
"d c #FDDB00",
"f c #E7C815",
"g c #F1C511",
"h c #FDCF12",
"j c #F4DB11",
"k c #F8DB1D",
"l c #FEE301",
"z c #FEEB00",
"x c #FFE20A",
"c c #FFF300",
"v c #FFFC00",
"b c #FFE517",
"n c #FBEB17",
"m c #FDE418",
"M c #FFF315",
"N c #FFFD1C",
"B c #F7DC25",
"V c #EFD539",
"C c #FCE724",
"Z c #FFEF2E",
"A c #FFFA28",
"S c #FFFF3E",
"D c #E8CD42",
"F c #F3D947",
"G c #F3DA4A",
"H c #F7DE5F",
"J c #FAE24C",
"K c #FFF040",
"L c #FFF94A",
"P c #FFFF52",
"I c #FFFA5F",
"U c #FFF068",
"Y c #FEEC79",
"T c #FFF573",
"R c #FFF874",
"E c #FFFF83",
"W c #FFFA90",
"Q c #FFFD9B",
"! c #FFFCB1",
/* pixels */
"              ppadpre5              ",
"           pddxmllllattrw           ",
"         pdlZTWLcccczddttt5         ",
"       7alKQ!YBu77770eadatr5>       ",
"      7alMUJf,--,11,-@#>ett553      ",
"     7pzcl7--7jnccccz0>##>e5553     ",
"    2rzzd,-0CRQSvclspatt>@#;355>    ",
"   ;3szp-,kT!EAzlp6,:rattw&o=>44*   ",
"   34lp-2mULNclda90&*ttttae&o=>3:   ",
"  :38a,,lvvvldddqdw%*rtattr5#@;>>;  ",
"  >3e;$dvvcldddDHaw%&etttte53o#;;;  ",
" =>34O2cvclddd0Vht5%&ttaatw55&X&;;* ",
" ;*3%%dvcaddd0u:etw%*ettte5553oo;;& ",
"*;&;X>vvattt89;#eaw%&tttt55555&X&** ",
"*=%%orvlatt87:%:st5%&ett555555;X@&*%",
"==%++lcattt44<5yFa5%*eew5555553oo%*&",
"=*$O#idttatttaagGaw%&5555555553oo#*&",
";*@O@u0wtttttttrst5%&5555555553+X#*&",
";*@o@75555eeeew4st5%&355555553>oX@&&",
"**@OO>5555555553sa5%&5555555>>>oX@&&",
"**#oo;3555558554sa5%&455553>>>*oo@*&",
"&&#+X*:555555553sa5#%45533>>>>&Xo@&%",
"%*#+X%;>55555553st5%&333>>>>>;@X+#* ",
" *#+oo;;>5w55554sa5%%>>>>>>>;&oo+%& ",
" &&@o.#**:355453pt3%%>>>>>>;*%.o@&% ",
"  &#+oX***=;>>>>se3%%>>>>>**&Xoo#*  ",
"  &&++X+&****;;;pt>%%;>=****oo+@&%  ",
"   *#++.@*******rr>%%&**&*&+Xoo%*   ",
"   %*@+O.o&*****r5:@#&***&oXoo%&%   ",
"    &%@++.X#***&=*&#%&*&#Xo+@@%%    ",
"     &%@++o.o#%&&&&&&%#oXo+++%&     ",
"      %%#+++X.Xoo+oooXXoo+o@%&      ",
"       %&#@+++ooXXooo+++++#&%       ",
"         &&#@++++++++++@#%%         ",
"           &&%%###@###&&&           ",
"              %&%&&&&%              "
};
