/* XPM */
static char *output_onlinegiftools_8__dragged__resized[] = {
/* columns rows colors chars-per-pixel */
"50 50 46 1 ",
"  c None",
". c #FD5600",
"X c #FD5B00",
"o c #FD6302",
"O c #FD6C00",
"+ c #FC6609",
"@ c #FC6B0D",
"# c #FD7401",
"$ c #FD7C02",
"% c #FD740B",
"& c #FD7B08",
"* c #FC7314",
"= c #FC7C13",
"- c #FE8301",
"; c #FE8B02",
": c #FD830B",
"> c #FD8C0B",
", c #FE9403",
"< c #FE9D03",
"1 c #FD930C",
"2 c #FD9B0B",
"3 c #FC8312",
"4 c #FC8A16",
"5 c #FB831B",
"6 c #FB8F1E",
"7 c #FC9413",
"8 c #FC9B14",
"9 c #FC941D",
"0 c #FC9C1A",
"q c #FEA302",
"w c #FEAB02",
"e c #FDA60C",
"r c #FDAC0C",
"t c #FEB405",
"y c #FEBB02",
"u c #FDB40D",
"i c #FEBB0B",
"p c #FDA415",
"a c #FDAC12",
"s c #FCA118",
"d c #FDB010",
"f c #FB8C21",
"g c #FEC404",
"h c #FFCB03",
"j c #FEC108",
"k c #FFD300",
/* pixels */
"                                                  ",
"                                                  ",
"                                                  ",
"                                                  ",
"                    X+%%@o                        ",
"                   O<8asp4-                       ",
"                  +2iaaghs8$;-o                   ",
"                 #eij    68juu<qqw,o              ",
"               X+&2e     iehspp0hji<              ",
"             ;1344*5p    gak  gikautO             ",
"            O7jp0p00hr$ ki9   kkkhhj%+            ",
"           O20dj    ig7: d          trw$O         ",
"           #rapk     jdqrp           khs,         ",
"          .oeuu       kkdu9        X  uag#        ",
"        X$#oyh         kh ia           ji,o       ",
"       O<et-,g         i  kd           g0e#       ",
"      Owi9pt;$         j8rui           kit#       ",
"     Owa909rh;;        ,%+5            gp>o       ",
"     $us0ia->w;<g                      p9*        ",
"     qpjps  .oqh                       ij:        ",
"     wjj2                             jus,#       ",
"     qggu         X                   jasiy$      ",
"     $uah         X                     6ap:      ",
"     X;ua     f                          a61o     ",
"      X,wi                               u9y-     ",
"      Xo#71k                              ghy$    ",
"     #:8r4;k                              yiae#   ",
"     <pi                                 y,jptO   ",
"    X<p                         X        u<us8o   ",
"    $t9                        OX       u90hd1+   ",
"    -ss                        t&qk   yr9fpgg$    ",
"    %9a9                    hgppahjpdkw3dist$     ",
"    #8df         k          iu-Oespaiihpdu=o      ",
"    X1u6         khh        jauq  fs6fs9f91o      ",
"     3p0f       uiia        isdj       6ddp-      ",
"     =pp9a     idija       gdhk         kja;      ",
"     +,ydad   puada0f     -;t           gse$      ",
"      X$,ap1uadij  ii    13qra          ua<X      ",
"        X;p8rjk      gyghisspj         j0<O       ",
"         Oyu=1h      dq-jp90hi9    hu0hhp;        ",
"          ;j:0i      hh,gd90uu1yuau0dgjhs2o       ",
"          -r789      ky8huaipt$qpu-2iejhg-X       ",
"          o-2u6d    kji1qqqedurgii>tetkkg#        ",
"            O&8pijakideO  X-e9dippjhggg<#         ",
"             X$99pdp0t#    X%pjapiw-O#Oo          ",
"               +@$-@&-       %-;;-o               ",
"                                                  ",
"                                                  ",
"                                                  ",
"                                                  "
};
