/* XPM */
static char *output_onlinegiftools_10__dragged__resized[] = {
/* columns rows colors chars-per-pixel */
"50 50 93 2 ",
"   c None",
".  c #FB8622",
"X  c #FB8722",
"o  c #FB8822",
"O  c #FB8922",
"+  c #FB8A22",
"@  c #FB8B22",
"#  c #FB8C22",
"$  c #FB8F23",
"%  c #FB9023",
"&  c #FA9123",
"*  c #FA9323",
"=  c #FA9423",
"-  c #FA9623",
";  c #FA9724",
":  c #FA9824",
">  c #FA9A24",
",  c #FA9B24",
"<  c #FA9C24",
"1  c #FA9F25",
"2  c #FAA025",
"3  c #F9A325",
"4  c #F9A726",
"5  c #F9A826",
"6  c #F9A926",
"7  c #F9AD26",
"8  c #F9AD27",
"9  c #F9AE27",
"0  c #F8AF27",
"q  c #F8B027",
"w  c #F8B127",
"e  c #F8B227",
"r  c #F8B327",
"t  c #F8B427",
"y  c #F8B528",
"u  c #F8B628",
"i  c #F8B728",
"p  c #F7BD29",
"a  c #F7BF29",
"s  c #F8B828",
"d  c #F8B928",
"f  c #F8BB28",
"g  c #F8BC28",
"h  c #F8BD28",
"j  c #F7C029",
"k  c #F7C129",
"l  c #F7C229",
"z  c #F7C429",
"x  c #F7C52A",
"c  c #F7C62A",
"v  c #F7C82A",
"b  c #F7CA2A",
"n  c #F6CC2A",
"m  c #F7CC2A",
"M  c #F6CD2B",
"N  c #F6CE2B",
"B  c #F6CF2B",
"V  c #F6D12B",
"C  c #F6D22B",
"Z  c #F6D32B",
"A  c #F6D52C",
"S  c #F6D62C",
"D  c #F6D82C",
"F  c #F6D92C",
"G  c #F5DB2C",
"H  c #F6DA2C",
"J  c #F5DC2C",
"K  c #F5DE2D",
"L  c #F5E12D",
"P  c #F5E22D",
"I  c #F5E42E",
"U  c #F5E52E",
"Y  c #F5E62E",
"T  c #F5E72E",
"R  c #F5E82E",
"E  c #F4E92E",
"W  c #F4EC2F",
"Q  c #F4ED2F",
"!  c #F4EE2F",
"~  c #F4F02F",
"^  c #F4F12F",
"/  c #F4F22F",
"(  c #F4F530",
")  c #F4F630",
"_  c #F4F730",
"`  c #F3F830",
"'  c #F3F930",
"]  c #F3FA30",
"[  c #F3FB30",
"{  c #F3FC31",
"}  c #F3FD31",
"|  c #F3FE31",
" . c #F3FF31",
/* pixels */
"                                                                                                    ",
"                                                                                                    ",
"                                                                                                    ",
"                                                                                                    ",
"                                                                                                    ",
"                                                                                                    ",
"                                                                                                    ",
"                                                                                                    ",
"                                                                                                    ",
"                                                                                                    ",
"                                                                                                    ",
"                                                                                                    ",
"                                                                                                    ",
"                                                                                                    ",
"                                                                                                    ",
"                                                                                                    ",
"                                                                                                    ",
"                                            1 k D 9 X                                               ",
"                                          g 6 S ! L h ,                                             ",
"                                      > 0 9 0 t z ^  .F *                                           ",
"                                      B ` J M Y /  . ._ a 1 e r &                                   ",
"                                  - q ~  .s             } d N [ k                                   ",
"                                @ m _  .{ d               l W { l 0                                 ",
"                              1 n E  .  b C                   W 9 x p %                             ",
"                              q P R  .G T                     R 9 L ] z %                           ",
"                              $ 3 l  .S I                         |  ./ 7                           ",
"                              0 v (   4 3                         |  .P b                           ",
"                                (  .  = 3                         L  .u                             ",
"                              o f  .  v N c _                   + A  .r .                           ",
"                              + f  .K     2          . .   .    w ^ U ,                             ",
"                              * C  .)     E    . .   . .    Z   ' { a                               ",
"                                >               |              . .R >                               ",
"                                O                     Y    .  | | g                                 ",
"                                  + # C U           +     Q H t y ,                                 ",
"                                      8 < i     | j X     : ; .                                     ",
"                                        V 6 u s t                                                   ",
"                                              5                                                     ",
"                                                                                                    ",
"                                                                                                    ",
"                                                                                                    ",
"                                                                                                    ",
"                                                                                                    ",
"                                                                                                    ",
"                                                                                                    ",
"                                                                                                    ",
"                                                                                                    ",
"                                                                                                    ",
"                                                                                                    ",
"                                                                                                    ",
"                                                                                                    "
};
