/* XPM */
static char *__removebg_preview_resized[] = {
/* columns rows colors chars-per-pixel */
"50 50 180 2 ",
"   c None",
".  c #050100",
"X  c #0A0604",
"o  c #0E0A05",
"O  c #0F0B08",
"+  c #120E07",
"@  c #120D0B",
"#  c #131007",
"$  c #15110C",
"%  c #19140E",
"&  c #1C180F",
"*  c #130F10",
"=  c #171310",
"-  c #191512",
";  c #1D1A14",
":  c #1B1718",
">  c #1D1A18",
",  c #201713",
"<  c #221C15",
"1  c #221E1A",
"2  c #262216",
"3  c #25221C",
"4  c #2A261C",
"5  c #2C2A1C",
"6  c #312D1E",
"7  c #272421",
"8  c #2A2622",
"9  c #2D2A24",
"0  c #2D2B29",
"q  c #322D24",
"w  c #322E29",
"e  c #2F302C",
"r  c #353123",
"t  c #393525",
"y  c #3B3826",
"u  c #35332C",
"i  c #3A352C",
"p  c #36382C",
"a  c #3D3A2C",
"s  c #322F30",
"d  c #353331",
"f  c #393632",
"g  c #3D3A33",
"h  c #3D3C3A",
"j  c #423C2D",
"k  c #433D33",
"l  c #483F37",
"z  c #423E3A",
"x  c #483F38",
"c  c #46402D",
"v  c #49432F",
"b  c #454235",
"n  c #4B4434",
"m  c #4E4936",
"M  c #45433A",
"N  c #4C453B",
"B  c #4D493C",
"V  c #514A36",
"C  c #50473D",
"Z  c #534C3B",
"A  c #55503D",
"S  c #5B553F",
"D  c #434241",
"F  c #4A4643",
"G  c #474841",
"H  c #4D4B42",
"J  c #4E4D4A",
"K  c #544741",
"L  c #534D43",
"P  c #584E46",
"I  c #514E4B",
"U  c #5C4F49",
"Y  c #555244",
"T  c #5A5344",
"R  c #575A47",
"E  c #5D5844",
"W  c #55534A",
"Q  c #5C554A",
"!  c #56584E",
"~  c #5D5A4B",
"^  c #544F50",
"/  c #565453",
"(  c #5A5652",
")  c #5D5B52",
"_  c #605747",
"`  c #615847",
"'  c #61564B",
"]  c #635B4D",
"[  c #625D53",
"{  c #695E55",
"}  c #615C5A",
"|  c #5E614F",
" . c #5F6055",
".. c #63614F",
"X. c #68604F",
"o. c #656255",
"O. c #6A6355",
"+. c #65645A",
"@. c #6B655A",
"#. c #66685A",
"$. c #6C6A5C",
"%. c #6A6956",
"&. c #706757",
"*. c #71665A",
"=. c #726C5D",
"-. c #72705E",
";. c #78715F",
":. c #676661",
">. c #696663",
",. c #666862",
"<. c #6D6C62",
"1. c #6E6B69",
"2. c #726E63",
"3. c #716E6A",
"4. c #786C62",
"5. c #6F7165",
"6. c #747264",
"7. c #7B7566",
"8. c #7E7865",
"9. c #76746A",
"0. c #79766B",
"q. c #77796B",
"w. c #7C7B6C",
"e. c #7A7674",
"r. c #7D7C72",
"t. c #827E6D",
"y. c #827E72",
"u. c #807F78",
"i. c #7E8073",
"p. c #838174",
"a. c #8B8475",
"s. c #858877",
"d. c #85847B",
"f. c #89857C",
"g. c #87897A",
"h. c #8A8A7D",
"j. c #938C7D",
"k. c #8B8780",
"l. c #8D8C82",
"z. c #8D8C89",
"x. c #918E82",
"c. c #8D9082",
"v. c #919285",
"b. c #999787",
"n. c #94938B",
"m. c #99968C",
"M. c #9B9A8D",
"N. c #969390",
"B. c #9C9790",
"V. c #9D9A92",
"C. c #9C9B98",
"Z. c #A19E93",
"A. c #A19D98",
"S. c #9EA091",
"D. c #A5A395",
"F. c #A4A39B",
"G. c #A9A69D",
"H. c #ACAA9E",
"J. c #B0AD9F",
"K. c #A7A3A0",
"L. c #A9A6A0",
"P. c #ACABA2",
"I. c #B1AEA3",
"U. c #B0AEAA",
"Y. c #B3B1A5",
"T. c #B5B3A9",
"R. c #B8B6AB",
"E. c #B7B9AB",
"W. c #BAB9AC",
"Q. c #B7B8B1",
"!. c #BEBDB2",
"~. c #C2BFB0",
"^. c #BEC0B2",
"/. c #C2C1B4",
"(. c #C5C4B9",
"). c #CBCCBE",
"_. c #CAC9C0",
"`. c #D8D7D0",
"'. c #DDDED3",
"]. c #E8E6DE",
/* pixels */
"                                                                                                    ",
"                                          z.n.n.n.e.c.D.g.                                          ",
"                                      W L.P.h.b.H.c.g.i.S.E.W.!                                     ",
"                              I h.$.W H.q.i.-.-.w.%.$.| #.q.i.g.s.'.                                ",
"                            h.G.Q.I.a 6.p.w.8.6.p.-.$.w.#.!  .~ ).p.i.i.                            ",
"                        l./.J.S.$.t.b.W 6.6.p.$.p.6.6.5.,. .W E.S.#.5.6.9.                          ",
"                      I d.J.8.%.6.$.W.Z 5 2.7.4.%.6.,.( ,.g g ^.| -.9.i.q.F 0                       ",
"                  F.].p.Z 4.p.8.&.6.=./.k ~ M w < 9 3 h / d 3.T.9.9.$.d.<.G <.!.m.                  ",
"                h.I.Z.7.M Y t.w.%.6.M 6.1 8 - O O = @ 1 > 1 / k.r.<.<.w.k :.G.0.L.g.                ",
"              K.P.+.*.<.y.M $.4.) 9 8 O X @ = 1 = 9 1 1 : : @ 8 k ) +.2.( B.$.o.r.C.S.              ",
"              P.+.y.4.6.7.Q W 9 9 ; # 8 8 8 9 i = F w f w w z 1 1 g q =.M.x.6.6.q.#.V.Q.            ",
"            F.y.o.4.0.2.*.+.w O % 8 3 u i g z I > +.H x x L M 9 g 4 3 9 o.6.$.$.5.5.) (.            ",
"          4 g Y 9.$.2.2.( 3 @ < 3 i g F F N I { 3 9.Q [ L [ [ B ~ k k - 4 Y w.$.$.| H #.8           ",
"          M.%.r Y B +.:.> % < q t H M Q Q Q [ 2.8 u.] O.[ o.4.T 6.L K i q w Q <.+.k $.D.T.          ",
"        l.h.D.D.[ f H > 1 3 8 k M [ L } ) +.+.3.8 f.o.o.o.[ 6.~ y.Q I x k , 4 B B h.E.e.9.`.        ",
"        9.o.%.M.!.M 1 > 3 4 9 M N +.H @.[ +.<.2.7 d.o.o.#.~ 6.Q r.o.[ M H t 3 ; f m.6.p.9._.        ",
"      e.<.9.w.9.7.p % > 7 i i L H 9.B <.[ $.<.6.9 p.~ %.-.~ 6.R p.~ #.W ~ k q % i $.w.q.6.n.F.      ",
"      h.p.0.o.h.H # % q i M b T Y y.B 9.[ @.$.6.q y.T ..-.E ;.T t.` @.Q $.L a 2 # F r.9.+.6.P.0.    ",
"      m.<.2.[ 7.H # 3 u p Y m ~ T t.V *.` %.{ t.q a.Z X.$.S 8.m t.] %.] $.T L q @ M 9.W o.+.n.M.    ",
"    H h g N ( +.> $ 3 w F ~ Z { T 6.S 6.] X.` 0.w a.v ] =.A 8.V =.T ] ' $.P K q O 7 Q B b b #.o.w.  ",
"    Z.I.[ F p w 7 # f G F [ P ] _ &.P t._ _ ~ t.t j.V T S O.a.V 0.` ] [ +.Q U l % % 3 B b.W.(.j.H   ",
"    $.p.R.Q.9.3 $ # 0 d k P j k M T j [ T Q Y 4.8 a.B Y ~ A %.t B N b k N x x 0 - ; h M.Y.y.;.w.b T.",
"    o.<.p.+.<.> f } e.L.A.U.I.P.H.G.B.P.A.B.e.2.f x. .i.G.n.T.L.K.U.C.K.U.K.N.d.G 8 3 n.p.o.9.p.a Y.",
"    Y w.y.2.( 1 = 1 s +.z 0 f d d ( I w w w > ; : ) 4 3 3 0 u J / d d h 8 D ^ d : $ + G.p.<.w.p.B /.",
"     .i. .e.<.> o O g C.I + 1 , 8 } 4.8 O * * O : F @ @ @ - 3 1.:.8 8 > = ^ 1.s @ O @ T.$.R 9.$.m /.",
"    H  .) ,.! > X . O < 1 + $ X O @ 8 % @ = , @ * F - + $ X - 3 + o X X O : * . O X $ Y.d.-.$.~ y ^.",
"    M #.! H M 3 3 q u k k l l F x x l l x j l j , ' i l M k k k l k B x g i i i > # > h.$.) ) c 4 E.",
"    ! o. .) p 5 i b H ~ K [ B ' ' ' x { U x U U 1 4.K T Z T ` Z { P T ] ] L l i w 3 % ) <.) o.%.a E.",
"  ^.D.H.^.M.R 5 y B o.<.{ 7.' [ { *.K *.*.' { { 6 t.X.&.` { =.S &._ _ ] &.] T N f - 2 P.(.H.I.Y.o.(.",
"  i.| | q.| R r a n ~ ~ P @.] Q { *.x *.{ ' { *.4 t.{ ' _ ] =.Z *.{ ' U { U K x i - % F.5.Q @.9.b W.",
"  i.| | i.-.R 5 y b ~ ~ T O.{ ' @.4.U 4.{ U U { 8 y.' U ' ' 4.Z 4.{ ' { { U K x q > O H.0.9.w.p.H !.",
"  i.| #.S %.| 5 a c ] [ T *.[ ' ' 4.x 4.{ ' { t.q y.Z U { ' t.C *.{ U { { U P N u ; # P.p.$.+.<.b   ",
"    b #.#.s.o.5 a c T Q T %.Q Q ` *.T 6.Q ` Q ] 6 a.m T E ` ;.A =.] ~ ~ O.P Q Z u $ & Z.p.o.[ ) k   ",
"    p R H ! M 5 p b [ o.Q @.~ ] ~ o.Y 2.o.o.~ [ 5 y.A T E | %.m ..] O.~ $.Y ~ M 5 ; > <.( H W W f   ",
"    #.,.5.,.g 5 5 3 p g t k b M z M a H Y k b ) 4 o.b n b B A a B a b t b 9 i 3 ; % O +.3.>.>.3.h   ",
"    S.L.L.M.M W g.V.B.n.C.F.D.F.F.S.B.N.0.u.d.9.7 <.9.9.i.s.M.B.F.C.F.C.F.C.C.N.9.L 5 G.G.V.V.P.+.  ",
"    | q. .q.G q s z K ( J h h z z I J f d d 0 0 - ,.J 0 e e g J J z M D h J / D u 2 $ I.0.~ +.0.M   ",
"  v.5.5.5.1. .1 * = z A.^ O = 7 1 3.e.7 * : * X * F - - O = 7 e.>.; 7 1 . J z.f @ O X F.w.<.h.w.b   ",
"  c.#.q.W q.! - . O o 8 1 o + @ X - q + @ @ = = O h * O = $ @ 8 - O o O X = 8 @ X . # D.p.6.O.$.k   ",
"    W i. .q.! 3 , < 4 1 4 r q 3 i 3 4 8 8 1 8 q * 0 8 8 9 5 4 < 4 9 5 p 0 3 4 < ; - ; I.h.W o.) B   ",
"    p b h R p 5 4 4 b a a n y v v v j j n n Z B % k N m n j n t v j v v v j j t 4 & $ w.%.k Q f B   ",
"    i.i.i.i.b 6 t j n c A A v A v Z j Z m V Z Z , N ` V V n ` v S Z V l S V j j t 2 1 2.2.9.w.p.    ",
"    i.i.c.s.| 2 r t v m V V c v Z S v _ n m C P < V ` v V n _ j S v Z j Z V v j r 9 ; I.x.d.r.d.    ",
"    B H  .| R 5 6 t v V V V c V V A v P n V V P , j { v n V _ v Z V V v Z V l j q 3 & M.2.H W ~     ",
"   .b H W R B r 5 y b V A A c n V A n A n l N ' < j ' n n V A j P C V n A x l j 6 4 + m.+.) +.I     ",
"    p H M H M r r a j m V S n n V A j j C x N U , i Q C M Z C i _ V V l A C l j 6 1 + Z.[ H ( I     ",
"    p G p z f 7 9 a k M N T n n C U k j n l x K = i ' N k Z k t T N l j C C j j 6 , % h.J w i h     ",
"    0 d p h u 9 t g x H Y Q b n n K j k C K x x , q K N b Z k c U C V x U K x j j < 1 [ z t u d     ",
"                                                                                                    ",
"                                                                                                    "
};
