/* XPM */
static char *__removebg_preview_resized[] = {
/* columns rows colors chars-per-pixel */
"50 50 184 2 ",
"   c None",
".  c #020103",
"X  c #0A0604",
"o  c #070805",
"O  c #0B0A05",
"+  c #060708",
"@  c #09040A",
"#  c #0C0C0A",
"$  c #120E06",
"%  c #120D0B",
"&  c #0F100A",
"*  c #181607",
"=  c #14120D",
"-  c #19150C",
";  c #1C190D",
":  c #161406",
">  c #151412",
",  c #1B1612",
"<  c #171814",
"1  c #1B1A14",
"2  c #1D1C19",
"3  c #241E0E",
"4  c #221D14",
"5  c #221E19",
"6  c #1F201A",
"7  c #29220B",
"8  c #242214",
"9  c #2B2515",
"0  c #2C2917",
"q  c #24231C",
"w  c #29241A",
"e  c #2D291B",
"r  c #26281A",
"t  c #322B15",
"y  c #322D1C",
"u  c #302615",
"i  c #36311E",
"p  c #39341E",
"a  c #262521",
"s  c #2B2622",
"d  c #272823",
"f  c #2C2B24",
"g  c #2D2D29",
"h  c #312D24",
"j  c #322F2C",
"k  c #2F302A",
"l  c #353224",
"z  c #3B3524",
"x  c #3E3923",
"c  c #34342B",
"v  c #3A352C",
"b  c #37392D",
"n  c #3C3A2B",
"m  c #353231",
"M  c #3A3633",
"N  c #373832",
"B  c #3C3C33",
"V  c #3E3C39",
"C  c #423C26",
"Z  c #40372E",
"A  c #433D2C",
"S  c #433D33",
"D  c #483E31",
"F  c #423D3A",
"G  c #3E4135",
"H  c #3F4039",
"J  c #45412E",
"K  c #49422E",
"L  c #4E482B",
"P  c #454234",
"I  c #4A4434",
"U  c #4C4835",
"Y  c #45453B",
"T  c #4A453B",
"R  c #46493D",
"E  c #4D4A3C",
"W  c #504937",
"Q  c #51473A",
"!  c #524C3C",
"~  c #4E503F",
"^  c #54513D",
"/  c #454641",
"(  c #4A4741",
")  c #474842",
"_  c #4C4B43",
"`  c #4E4C48",
"'  c #534D42",
"]  c #574E47",
"[  c #4D5042",
"{  c #4F5149",
"}  c #535244",
"|  c #585147",
" . c #55534B",
".. c #5A554C",
"X. c #575A4C",
"o. c #5C5A4C",
"O. c #585945",
"+. c #575750",
"@. c #5D5B51",
"#. c #605C4E",
"$. c #625E54",
"%. c #625F5A",
"&. c #5F604F",
"*. c #5C6052",
"=. c #62634F",
"-. c #636354",
";. c #686A56",
":. c #65645A",
">. c #69665B",
",. c #67685D",
"<. c #6C6A5C",
"1. c #736D5E",
"2. c #72715E",
"3. c #676760",
"4. c #6D6C62",
"5. c #716E63",
"6. c #726D6D",
"7. c #6F7163",
"8. c #747364",
"9. c #797566",
"0. c #797B67",
"q. c #767469",
"w. c #79766B",
"e. c #76786C",
"r. c #7B7B6C",
"t. c #777771",
"y. c #7A7671",
"u. c #7D7C71",
"i. c #7D7A78",
"p. c #817D6E",
"a. c #817E72",
"s. c #827F78",
"d. c #7E806E",
"f. c #7F8175",
"g. c #81806C",
"h. c #838174",
"j. c #888777",
"k. c #8A8877",
"l. c #85837A",
"z. c #89857B",
"x. c #878A7E",
"c. c #8A8A7C",
"v. c #918A7F",
"b. c #8C8A82",
"n. c #918D82",
"m. c #949385",
"M. c #989784",
"N. c #95948A",
"B. c #99968A",
"V. c #97998F",
"C. c #9B998D",
"Z. c #999883",
"A. c #9F9D93",
"S. c #999691",
"D. c #A29D93",
"F. c #A3A593",
"G. c #A6A59A",
"H. c #AAA69D",
"J. c #ACAA9E",
"K. c #A7A898",
"L. c #A5A6A0",
"P. c #ADACA3",
"I. c #ACADA8",
"U. c #B1ADA4",
"Y. c #AFB0A4",
"T. c #B3B3A5",
"R. c #B5B4AC",
"E. c #B9B4AE",
"W. c #BCBBAD",
"Q. c #BDBCB3",
"!. c #C0BEB3",
"~. c #C0BFBA",
"^. c #BFC0B6",
"/. c #C1C0AD",
"(. c #C4C4B6",
"). c #C5C3BA",
"_. c #CACBBE",
"`. c #C8C5BC",
"'. c #CBCBC2",
"]. c #D0CFC0",
"[. c #D1D1C5",
"{. c #D3D2C8",
"}. c #DEDDD4",
"|. c #F0F0E9",
/* pixels */
"                                      I.I.A.4.&.&.&.;.v./._._.                                      ",
"                                  4.t.V e.J.F.^.^.F.K.v.v.v.v.2.                                    ",
"                              ` *.R  .G.C.m.*.;.2.&.=.O.k.M.F.d.{ ~.                                ",
"                          > X.u.'.J.N u.r.d.r.0.d.d.;.;.&.&.7.[ {.G.l.D.                            ",
"                         .j.T.W.8.F.;.-.r.8.g.2.8.9.-.0.4.;.P h.T.-.h.:.s.y.                        ",
"                      M S._.2.g.2.<.T.P E 8.9.w.r.8.7.:.*.G N ].r.5.w.q.a.4.'                       ",
"                  >.I.u.$.g.g.2.=.2.k.C.l @.$.Y R _ )  .3.b ;.R.#.1.>.z.5.F ( U.4.                  ",
"                w.Q.(.h.T #.g.-.8.a.o.(.c B j O O % o d N d ;.J.j.1.9.p...' U.D.L. .                ",
"                W.a.w.2.} P w.8.>...h e $ # X . . @ . O o = 6  .-.<.>.8.S z.p.1.N.V.{               ",
"              J.a.5.9.8.p.T } -.T w % . . . . @ @ . + + . o . & 6 _ X.>.n.J.$.p.8.u.V./             ",
"            }.T.#.p.9.1.1.;.P v S q X . . . @ @ @ . @ . . o # o X q h D n.p.p.>.f.,.e.L./           ",
"            ,...1.1.>.1.1.P v Y V q $ O . . . . . @ . . . . . o . s c v ' $.1.>.7.7. .P.g           ",
"          +.c  .8...9.5.z z n n P q O . . . . . . . . . . o . o o 2 B v v T 1.2.;.X.P @. .q         ",
"          P.z.Y F ! #.Q y l x A P 8 X X . . . . . . . . . . . . X 1 l v n z ! o.^ R A.K.C.y.        ",
"        h.:.G._.a.x U I y z A A D 4 . X . + + . . . . . . . . . X 6 v n A l J G E J.n.f.<.E.a       ",
"        4.,.@.4.!.U l ! u z A v B 4 . . . + . + . + . . . . . . . 2 f l n n U I n 9.q.9.q.R...      ",
"      :.,.z.;.h.8.A I Q y 9 Z ( F , . @ . . + + . . . . . + . . . q c f v l P E A $.u.z.>.l.G.`     ",
"      x.u.4.4.w.I h A Q z Q F h 4 X . @ . . . . . . . . . . . . . = q n R P T F l E 8.<.:.q.G.a.    ",
"      f.7.*.:.8.n E D Z s 5 3 $ $ X @ @ . . . . . . . . . . . . . X X , q j V T S B 4.>.+.@.N.l.N.  ",
"      Y h H  .@.v j 5 ] !.F . w s % . . . . . . . . . . . . . . . # > . M Q.` 4 h S Y Y T T <.>.b.|.",
"      T.f.+.b f = , m 5 F w 8 v v % . . . . . . . . . . . . . . . d f 5 5 Z 4 v 5 1 h ..B.Q.!.z.S P.",
"    8.e.G.Q.u.q 5 % , h 4 l A E S - X . . . . . . . . . . . . . . w m ` M 5 s @ O 5 v H.U.w.1.h.Y ).",
"    ;.e.8.;.-.1 , z ] #.n n K R Z % . . . . . . . . . . . . . . . s m Z F Z ' ' T 4 : B.9.<.<.a.G (.",
"    *.f.c.<.-.9 E #.D Q i z K I v $ . X . . . . . . . . . . . . . 5 Z Z S Q Q W ..T ; U.r.8.h.8.E '.",
"    ,.7.*.r.&.r ^ I K ^ p x L R Z : . . . . . . . . . . + + . . X 5 Z I i I ! D ! ..- G.h.} 9.<.G _.",
"    [ X.*.e.~ 0 O.^ O.J t x J U z $ X X . . + . . . . . . . . . . w v D A A W ^ #.| 4 H.n.;.8.o.e (.",
"    R 7.*.U ~ l &.~ U U G p L J v - X . . . . + . . . . . . . . . 5 F Z I Q ' D T $.h z.<.$.$.V c '.",
"    G _ ~ ~ 6 8 ;.&.L W p x J I Z : . . . . + . . . . . . . . . . 5 Z S S D Q ] ..$., _ ..' _ ..c Q.",
"    K.Y.(.K.X.i <.^ ! W i l D Q v % . X . + . . . . . . . . . . . w D Z Q Q ] D ! %.h H.`.E.W.Q.:.'.",
"    +.-.d.*.o.r -.! ^ ! C l Z F V % . @ . + + . . . . . . . . . . 4 v Z D D ] ] ] >.5 D.q. .>.w.Y '.",
"    ,.,.e.8.X.e o.o.Z A h Z j j h % . @ . . . . . . . . . . . . . , j Z z h Z D #...4 H.h.6.w.u.` [.",
"    *.7.*.-.-.r w v T ] F v 5 % % . @ @ + . . . . . . . . . X . X @ , , j ] ( F h 5 = G.z.y.3.q.B ^.",
"    R *.*.b.*.m +.V V m y.s % , % @ @ @ . . . . . . . + o . o . o # > 2 m 6.F F ( ` h L.a.@.3.>.Y ).",
"    ~ 7.X.h.) c g k g j i.a @ , , % @ @ . . + . . . . . . . o . # 6 # @ j 6.V j 5 h c l.l...+...F '.",
"    d G B R s >.) = 2 % % - 4 h s 4 X X . . . . . . . . o . . . = 1 f j $ , % : 4 ..:.' ( M M T g R.",
"    Y.^.).H._ h q = 4 5 s u h z h 4 X . . . + . . . . . . . . . > f f h 5 9 u 3 = 4 4 D.).!.~.!.:.R.",
"    :.t.%.u.Q 4 3 C Z ^ 3 t C z l ; . . . + . . . . . + . . . X - q 3 y z 7 C L A : : D.5.@.>.y.M   ",
"    :.y.6.9.-.4 z Q D C 3 t z i y ; . X . . . . . . . . . . . . - 8 9 C t 7 L C A v 3 U.h.5.s.s.(   ",
"    f.r.>.>.#.3 Z C K K u t i C z 1 @ . . . . . . . . . . . . X - 9 w z i 7 C C A z 3 D.a.5.w.6.N   ",
"    ;.q.#.8.=.3 C D D K u z p l h , . @ . . . . . . . . . . . . = 9 y l i 7 L D W A $ D.z.@.:.%.N   ",
"    Y ;.1.-.U 9 D W A D u C i l v , . . . . . . . . . . . . X . $ w y z p 7 L J A C h H.a...w...N   ",
"    c f h E r e I D A I t A z z v 1 . . . . . . . o . + X . X o $ 8 e z p t L p Q U e ..D h m N a   ",
"    W.^.R.T.o.e I D D I y A z e 8 % X X @ @ . + o o o # O O & O = 8 r z x p U G I Z y B.J.R.Q.R.@.  ",
"    G E ;.,.} 8 S U E ' h 4 ; = O O # # # # # = & > > & & & < & - 3 ; 8 0 e ~ U U D * F.>.Y +.@.a   ",
"    } X.X.X.' l } _ n l - O O $ O & = # > < < < 2 6 6 < < 6 6 1 < 1 8 8 8 8 G p G ~ ; V.<. .,.+.2   ",
"    R _ _ [ _ f v q $ # X O $ : = > > < < < 2 6 6 6 a 6 q a q q q 8 8 8 ; 8 7 ; i b 6 N.,.@.*.` 2   ",
"    c Y G R R 6 O O O = = = * < 6 6 a a d d g k k k k b b N b b l c c b l c l e y r r N.+.N ) ` 2   ",
"    c R N G G > o O & > > 1 2 8 a d d k m N N N H N G N B B N G N G b G G G G G G G N f.) k V V 2   ",
"    q c h k N 6 & > > > 2 a d g k c G b G R R R R R R R R R R R ~ ) R G R R R R G H G { G k k g &   ",
"    & & < < 6 > o o + + # > > < 6 6 d k k k b k b k b b b b k c b G G b G b N G G G 6 6 & & & < #   "
};
