/* XPM */
static char *__resized[] = {
/* columns rows colors chars-per-pixel */
"50 50 167 2 ",
"   c None",
".  c #010101",
"X  c #0A0502",
"o  c #060805",
"O  c #0B0905",
"+  c #0D0C0A",
"@  c #110702",
"#  c #120B05",
"$  c #180F07",
"%  c #110D0A",
"&  c #0F110A",
"*  c #161005",
"=  c #14120D",
"-  c #1B140C",
";  c #1C180E",
":  c #151411",
">  c #1B1511",
",  c #171814",
"<  c #1C1A14",
"1  c #1D1D19",
"2  c #21190E",
"3  c #221710",
"4  c #231C14",
"5  c #241F19",
"6  c #281F18",
"7  c #1F211B",
"8  c #29220D",
"9  c #252215",
"0  c #2A2415",
"q  c #2D2811",
"w  c #25221B",
"e  c #2B251B",
"r  c #26281C",
"t  c #2D2A1C",
"y  c #312A16",
"u  c #31271C",
"i  c #322C1D",
"p  c #36301D",
"a  c #3A331D",
"s  c #252621",
"d  c #2A2722",
"f  c #2B2A24",
"g  c #2E2E29",
"h  c #332D23",
"j  c #392F25",
"k  c #342E29",
"l  c #2F302A",
"z  c #343223",
"x  c #3B3424",
"c  c #3F3924",
"v  c #34332C",
"b  c #3B352A",
"n  c #36382D",
"m  c #3C3A2D",
"M  c #353631",
"N  c #383734",
"B  c #373830",
"V  c #3C3C34",
"C  c #3D3D38",
"Z  c #423A25",
"A  c #40362C",
"S  c #433C2C",
"D  c #433D32",
"F  c #403F3A",
"G  c #464027",
"H  c #45402C",
"J  c #49412C",
"K  c #444135",
"L  c #4A4333",
"P  c #4D4836",
"I  c #45453C",
"U  c #4A463C",
"Y  c #47483D",
"T  c #4B4A3D",
"R  c #514A35",
"E  c #534C3D",
"W  c #56503D",
"Q  c #4C4742",
"!  c #474942",
"~  c #4C4B42",
"^  c #534E43",
"/  c #584F45",
"(  c #534E48",
")  c #4F5042",
"_  c #545244",
"`  c #5B5446",
"'  c #5F5846",
"]  c #555349",
"[  c #5A554A",
"{  c #57584A",
"}  c #5B5B4D",
"|  c #535451",
" . c #585550",
".. c #5D5C52",
"X. c #5E5D59",
"o. c #625B4C",
"O. c #625D52",
"+. c #5F614F",
"@. c #5F6053",
"#. c #67604E",
"$. c #636255",
"%. c #696356",
"&. c #686957",
"*. c #656559",
"=. c #6B665A",
"-. c #676859",
";. c #6B6B5C",
":. c #706D5E",
">. c #6F705E",
",. c #676761",
"<. c #6A6761",
"1. c #6D6C61",
"2. c #716E62",
"3. c #6F7062",
"4. c #737364",
"5. c #787667",
"6. c #7A7866",
"7. c #767569",
"8. c #797669",
"9. c #777869",
"0. c #7C7B6C",
"q. c #797670",
"w. c #7D7C72",
"e. c #807E6E",
"r. c #817E71",
"t. c #7F8070",
"y. c #81806F",
"u. c #838274",
"i. c #8A8876",
"p. c #86857A",
"a. c #8A867A",
"s. c #8C8A7E",
"d. c #908B7E",
"f. c #8E8C81",
"g. c #908F82",
"h. c #8F9082",
"j. c #949286",
"k. c #96968A",
"l. c #9A968B",
"z. c #97988C",
"x. c #9C9A8D",
"c. c #9E9E93",
"v. c #A19D94",
"b. c #A09E99",
"n. c #A3A195",
"m. c #A4A39B",
"M. c #A8A79F",
"N. c #A7A99E",
"B. c #ABAA9E",
"V. c #AFB09E",
"C. c #AEACA2",
"Z. c #B3B2A5",
"A. c #B5B5AB",
"S. c #B7B8A9",
"D. c #BBBAAD",
"F. c #BEBDB1",
"G. c #C0BDB3",
"H. c #BFC0B4",
"J. c #C2C2B5",
"K. c #C5C5B9",
"L. c #C8C4BB",
"P. c #CBCABD",
"I. c #CCCCC1",
"U. c #D1CEC2",
"Y. c #D2D1C6",
"T. c #D5D5C9",
"R. c #E1E0D3",
/* pixels */
"                                                                                                    ",
"                                                      x.S.Z.                                        ",
"                                ( Y C.f.s.4.;.6.&.;.` 4.j.x.f.]                                     ",
"                          Y 7.Y.G.I 2.w.e.0.4.r.4.4.:.%.$.&.[ J.H.7.                                ",
"                      ] u.Z.P.8.j.w.O.r.8.e.1.0.6.&.4.*.&.L ;.D.>.>.;.9.                            ",
"                    h w.R.u.7.;.:.Z...N =.0.4.0.8.2.=.=.^ w I.u.;.0.0.9...B                         ",
"                ] M.j.Y d.6.7.=.8.r.b.b ..*.Q Q Q ! ~ 1.V ! K...4.4.t.0.} v m.                      ",
"              Y D.T.u.[ _ i.r.1.r.[ C.Q V k O o + X 5 F f X.A.s.4.*.0.@.Y c.n.B.                    ",
"            ~ Z.h.9.9.} K 7.4.1.( Q f = X o . . . . o o + 1 ! ,.<.7.q.Q 7.x.-.u.z.                  ",
"          ! B.h.;.4.3.t._ _ [ ..s : o . . o . . . . o . . . + 7 C  .<.q.G...>.6.9.p.                ",
"          A.K.$.3.4.>.>.;.] < : X o o . . . . . o . . o . o . . + 1 F p.p.:.;.0.4.$.C.              ",
"        f @.-.&.>.9.;.;.^ < 5 w + o o . . . . . . . . . o . . o X % - D =.:.&.:.>...c.|             ",
"      I.1.n U &.-.*.4.P ; 3 u h O o . . . . . . . . . . . . . o X - u 0 S =.=.;.@.V X.X.d           ",
"      Z.Z.x.K U T ..^ < 6 u 6 e @ o . . . . . . . . . . . . . . @ $ u u y D O.O.V x.C.m.m.          ",
"    c.k.;.z.U.x.m K ; 4 e h 6 - X . . . . . . . . . . . . . . . X 3 4 j u e m D n.v.w.O.K.r         ",
"    m.p.;.} 7.B.*.; < h 6 0 3 @ % . . . . . . . . . . . . . . X X $ 6 w h j h e r.4.6.2.D.$.        ",
"    Z.9.9.4.r.7.j d h k 6 - X 3 w o . . . . . . . . . . . . . O = # - 6 / / h z } r.e.:.6.J.=       ",
"  k.A.0.4.;.r.O.% : k 6 - @ 3 k 5 o . . . . . . . . . . . . . % w 2 X @ b } m e b 4.4.O.%.m.p.      ",
"  ) 0.9.;.@.2./ < % d = @ 3 h j 4 . . . . . . . . . . . . o o % w i 9 # X 0 ] m b :.$.%.} r.M.      ",
"  9.Y t K T $.w O 4 % @ 4 A S x 5 . . . . . . . . . . . . . . O 9 p x q - @ h O.b U U N ( X.w.      ",
"  p.D.u.-.n b 5 X + + 0 b D A j 5 . . . . . . . . . . . . . . % 9 q c S 0 $ # k ( d U f.G.L.n.K     ",
"  ;.9.c.V.x.w = . X 4 b Z G x i 6 . . . . . . . . . . . . . . % 0 8 a G m u % > Q w f.F.7.<.w.}     ",
"  +.>.t.@.3.> . O ; m W G Z c x 9 . . . . . . . . . . . . . . % 0 y Z S P E d @ = > r.g.%.4.r._     ",
"  { 0.t.4.-.w X ; m ` W G c a a w . . . . . . . . . . . . . . + 4 y x S ^ / E b # X g.f.*.r.7.]     ",
"  &.4.>.3.4.w + h E ^ R R Z a x 5 . . . . . . . . . o . o . . + 6 u x L E E o.L i # d.g.^ 6.3.T     ",
"  T +.{ -.$.e ; D o.E E D Z x u > o . . . . . . . . . . o . o . % e u D E E #.o.L 2 s.n.O.7.*.V     ",
"  I -.@._ T 6 e D / R / D x p 2 # o . . . . . . . . . . . o . o X 4 i b W E o.W o.x 8.r.[ 1.V v     ",
") ~ ] ~ $.z u b D / D L Z Z 3 $ $ . . . . . . . . . . . . . . . # # h D L L ' E :.z F  .~ ~ { C     ",
"  S.S.J.A.*.i x S ` A D x 3 X 3 5 X . . . . . . . . . . . . . + % X $ h S A ` / O.Z g.U.F.Z.F.w.    ",
"  { +.9.*.$.0 z L E A A e X # h w . X . . . . . . . . . . . . % 6 $ X $ D D ^ / O.x r.d.] =.q. .    ",
"  ;.3.4.-.+.t z b Q ` 2 @ $ 0 b w . . . . . . . . . . . . . . = e 6 $ @ $ ^ =.D ` b r.l.&.7.u.X.    ",
"  { 1.@.@.;.t p D o.e @ $ u b x w . . . . . . . . . o . . . . % 6 u h 3 @ @ =.O./ j a.x.4.1.1.~     ",
"  T } $.w.4.9 n L e X $ y Z A z w . . . . . . . . . . . . . . % 9 u b b 3 @ 3 o.8.d q.x.} *.*.]     ",
"  I } -.7.{ l n < # - i Z A a z e . . . . . . . . . . . . . . % w y j x u 3 @ 3 <.D 8.p.^ &.) !     ",
"Y n M V I v f & O # i J Z a i x w . . . . . . . . . . . . . . % 6 q x Z D A u # 6 6 D Q n N K v     ",
"  D.K.K.C.*.s . # ; x J Z a a z w . . . . . . . . . . . . . . + q 4 a x D A j 3 @ - s.P.F.H.H.7.    ",
"  } 4.;.7.] s . - i J J Z a p p w X . . . . . . . . . . . . . + 6 q a a D L A 6 3 - d.d.{ } 9.!     ",
"  @.4.4.4.,.7 X 5 P L J Z a a i % o o . . . . . . . . . . . . + 3 y i x D J R Z x 3 a.l.1.u.w.{     ",
"  4.e.*.;.$.1 O t P G S Z x p < o . . . . . . . . . . . . . . X - e j Z J J W D h - d.l.=.0.4.Y     ",
"  ..4.#.7.;.7 ; b L R S Z Z 0 O o . . . . . . . . . . . . . . . X ; u x S Z R R ^ 0 u.l.[ &.*.Y     ",
"  ) $.*.&.{ r t S S S S L u @ . . o . . . . . . . . . . . . . . . # 4 x S Z L P ` D r.l.` 4.) K     ",
"I f z z K r i t m S b L S = . X o . o . . . . . . . . . . . o o . X - w b Z P E L U L U z D v f     ",
"k.C.H.D.Z.7.p p S L K D 4 . X O o o . o o . o o O o o + o O o + + @ X ; h b P E E P e.D.Z.Z.Z.,.    ",
"j.[ T $.*.[ t p x T K 6 . X O O + + o + O O + = = & & : : : : & : : % = 4 z L K E z e.i.H _ $.M     ",
"p.) ) ..@.} z i x ~ n O + + + + & & & & : : , , , 1 1 1 7 7 7 7 1 1 5 1 , 9 b K T x 8.y._ $...f     ",
"0.V _ ! ~ ( p t D b < O + % : : : : , 1 7 7 r 7 s s s s s s 7 s s s s d s w r m T m 8.8.] @.] s     ",
"3.z ! K ! Y e z b = O + : , , , 7 7 7 s s f l l l l l n v v l v l g g k n v n m L z 9.1.C ! ~ s     ",
"  l F n V K f w > + = : , , 1 s s g l n M B V V C C V V V V C V C C C C V V m m m p 4.*.f C C s     ",
"  r v n n n g = + : , , 7 s s l M N V K I I I ! I I ! Y Y Y ! Y I I ! ! ! ! ! Y K z T T f B f s     ",
"  & & : ; = = . X + + O & , 1 s f v n v n n n n n n n B B B B B V C C V C C V V m v = , & :         "
};
