/* XPM */
static char *__resized[] = {
/* columns rows colors chars-per-pixel */
"50 50 122 2 ",
"   c None",
".  c #010101",
"X  c #080705",
"o  c #070805",
"O  c #0A0A07",
"+  c #050308",
"@  c #090709",
"#  c #0C0B0A",
"$  c #110F0B",
"%  c #0F100C",
"&  c #12120E",
"*  c #141411",
"=  c #181714",
"-  c #171813",
";  c #1A1A16",
":  c #1C1C19",
">  c #1F201B",
",  c #23231D",
"<  c #28291B",
"1  c #252621",
"2  c #282722",
"3  c #272821",
"4  c #2C2C25",
"5  c #2E2F29",
"6  c #302E24",
"7  c #2F3023",
"8  c #2F3029",
"9  c #313126",
"0  c #33332B",
"q  c #39362E",
"w  c #3A3A2F",
"e  c #373731",
"r  c #383731",
"t  c #373831",
"y  c #3B3C34",
"u  c #3F3E39",
"i  c #413E34",
"p  c #403F38",
"a  c #3F4034",
"s  c #434336",
"d  c #484737",
"f  c #44443B",
"g  c #47483B",
"h  c #4A4A3E",
"j  c #4F503E",
"k  c #464641",
"l  c #494642",
"z  c #474840",
"x  c #4B4B42",
"c  c #4E4E49",
"v  c #514F48",
"b  c #4F5145",
"n  c #4F5048",
"m  c #525146",
"M  c #53534A",
"N  c #59574C",
"B  c #57584B",
"V  c #5B5A4D",
"C  c #575753",
"Z  c #595751",
"A  c #5C5C52",
"S  c #5F5F58",
"D  c #615F54",
"F  c #5F6052",
"G  c #636255",
"H  c #65655B",
"J  c #68665B",
"K  c #67685B",
"L  c #6C6B5D",
"P  c #706E5E",
"I  c #676761",
"U  c #696762",
"Y  c #6D6C61",
"T  c #6F6F68",
"R  c #716F62",
"E  c #6F7063",
"W  c #6F7068",
"Q  c #737365",
"!  c #787666",
"~  c #7A7967",
"^  c #757469",
"/  c #78766A",
"(  c #777869",
")  c #7B7A6C",
"_  c #7E7D71",
"`  c #807F6D",
"'  c #807F73",
"]  c #7F8175",
"[  c #838274",
"{  c #86857A",
"}  c #89867B",
"|  c #8C8C7E",
" . c #8D8C82",
".. c #8F9081",
"X. c #929285",
"o. c #95948A",
"O. c #99978E",
"+. c #9B9B8D",
"@. c #9D9D93",
"#. c #A19F96",
"$. c #A2A295",
"%. c #A5A49B",
"&. c #A8A79E",
"*. c #AAAA9E",
"=. c #B2B19F",
"-. c #ACABA3",
";. c #B0AEA5",
":. c #B1AFA8",
">. c #B3B2A6",
",. c #B3B4A9",
"<. c #B8B7AA",
"1. c #B7B8AA",
"2. c #BAB9AD",
"3. c #BDBDB1",
"4. c #C0BFB3",
"5. c #C2C3B5",
"6. c #C5C6B9",
"7. c #C9C7BC",
"8. c #CBCBBC",
"9. c #CFD0C3",
"0. c #D4D3C5",
"q. c #DBDAD1",
/* pixels */
"                                                                                                    ",
"                                                                                                    ",
"                                  f Z 3.J ' P P ` J J N J ~ ..'                                     ",
"                               .q.-.q ' ` ` ` R ` R P P D P V J 0.$.                                ",
"                        Z X.4.4./ #.P D ` ` ` J ' Q L U P A j ` =.L Q J _                           ",
"                      0 #.0.~ P P J 4.i d L ` ! ' / R U J i r 8.~ L [ Q Q V                         ",
"                  A >.) N [ ` P P Q | | 6 J V h p l l v U 6 D <.G P ) ) ) g s <.                    ",
"                b 5.8.` j G [ ! P ~ V 4.6 i 2 O @ $ @ 2 p 4 T ;.{ Y G ' B M =.+.>.                  ",
"              M 2.[ Q Q m d ~ Q L D i , O O X . . X . X X O , v U W R / p  .| J | o.                ",
"            B -.| L ! P ' i A V v : * O . . . X . . X . . . . $ > k Z J  .&.A ! Q ]  .              ",
"          y 6.>.V Q Q Q R L b & $ X @ + . . . . . X . . . . O . . $ > v  .' R R ] L E -.            ",
"        8 8 K F L Q Q L R g & . . X + @ . + . . . . . . . X . X X . X * x U ! L P L F -.0           ",
"        3.V 0 g Q G I W a # . . . . . . . . . . . . . . . . . . . . + . % k T I I M f F A ,         ",
"      4 1.*...s y b F M % + . . . . . . . . . . . . . . . . . . . . . . . = f I A g %.%.$.o.        ",
"      +.| G %.9.] w y & o . . . . . . . . . . . . . . . . . . . . . . . . . = t c -.+.^ K 3.&       ",
"      @.) K V ] >.M o . . . . . . . . . . . . . . . . . . . . . . . . . . . . O y ] W _ ( 3.m       ",
"    5.+.Y ] ^ ] K 7 o . + . . . . . . . . . . . . . . . . . . . . . . . . . . . 6 U _ _ L | &.      ",
"    | %.( E L ] b O o o . . . . . . . . . . . . . . . . . . . . . . . . . . . . # f / U V Y *.]     ",
"    B ] Q L K W k & . o . . . . . . . . . . . . . . . . . . . . . . . . . . . . # x Q F A B o. .    ",
"    Q f < a b M > o o . . . . . . . . . . . . . . . . . . . . . . . . . . . . . . : x f f x I Q     ",
"  Q X.1.( G 0 t ; . o . . . . . . . . . . . . . . . . . . . . . . . . . . . . . . = 6 B o.5.2.X.y   ",
"  | K ] $.=.] > % . . + + . + . . . . . . . . . . . . . . . . . . . . . . . . . . = 0 %.-./ L _ x   ",
"  | B Q ] F H * . . . . + . . . . . . . . . . . . . . . . . . . . . . . . . . . . # - #.) G ) _ f   ",
"    V ] ) ^ F ; . o . o . . . . . . . . . . . . . . . . . . . . . . . . . . . . X X # *./ Y ] Q x   ",
"    L ( L Q Y > . . . X . . . . . . . . . . . . . . . . . . . . . . . . . . . . . . $ :./ V ^ Y s   ",
"    g F F L C - . . . . . . . . . . . . . . . . . . . . . . . . . . . . . . + . X . # ;.} J Q A 0   ",
"    g K B M x > . . . . . . . . . . . . . . . . . . . . . . . . . . . . . . . . + o > o.R D G p 0   ",
"  b b B b C 8 : . + . X . . . . . . . . . . . . . . . . . . . . . . . . . . . . o o # v v x x B 5   ",
"    1.1.6.-.C > . . . . . . . . . . . . . . . . . . . . . . . . . . . . . . . . . . : >.7.2.2.2.Y   ",
"    M F Q K F ; . . . . . . . . . . . . . . . . . . . . . . . . . . . . . . . . . . # &.R V J / x   ",
"    K Q W I F : . . . . . . . . . . . . . . . . . . . . . . . . . . . . . . . . . X # ;./ ^ ^ _ M   ",
"    B E F F I * . . . . . . . . . . . . . . . . . . . . . . . . . . . . + . . . . . . -.{ Q R T s   ",
"    b F F { T = . . . . . . . . . . . . . . . . . . . . . . . . . . . . . . . . + . $ -.[ D G J f   ",
"    s F K ^ n : . . . . . . . . . . . . . . . . . . . . . . . . . . . . . + . . . . ;  .R A D M f   ",
"  s 0 t a f e > . . . . . . . . . . . . . . . . . . . . . . . . . . . . . . . . @ o % M p r y f 2   ",
"    3.6.6.#.C > . . + . . . . . . . . . . . . . . . . . . . . . . . . . . . + . . . , -.2.4.4.3.H   ",
"    F E E Q c : . . . . . . . . . . . . . . . . . . . . . . . . . . . . . . . . . . $ &.) V D / y   ",
"    F Q W ( F = . . . . . . . . . . . . . . . . . . . . . . . . . . . . + . . + X . $ >.' R { ' f   ",
"    Q ( F E C : . . . o . . . . . . . . . . . . . . . . . . . . . . . . . + . . @ . O &.' R ) R q   ",
"    F ( V ( F : . . . . . . . . . . . . . . . . . . . . . . . . . . . . . . + . + # $ #.} V J D t   ",
"    h L H H c : . . . + . . . . . . . . . . . . . . . . . . . + . . . . . . . . . o & %.} V P j q   ",
"  a 7 8 5 u 5 : . . . . . . . . . . . . . . . . . + . + . + + + . o . + + . + + O . # N q 6 w q ,   ",
"  $.,.3.2.:.U : . . . X . . . . + . o o X + o + @ @ @ @ # # @ @ O O @ O O # O O O O ; #.;.>.=.>.C   ",
"  } x n H H C : . . . . . . . X o o o # O O # & & & & & & * * % * * & & & * & * * & * %.L x N G 4   ",
"  Q x n F A C > . . . . o X X O # # % % * * = = : : : = : : : = ; ; ; : ; ; ; : > * & O.J N D Z 1   ",
"  H f x f C c > . o O o # # # % % % * - : : > > , 1 1 1 1 1 1 1 1 1 < 1 1 1 1 1 , < : O.J V Z v :   ",
"  Z t x t x k : . o o O % & * - > > > , 1 4 5 5 8 8 5 8 0 0 0 8 8 0 8 8 8 0 0 0 0 0 , o.N i x l ;   ",
"  A 7 f t u f : . O % % * - ; > , 1 5 5 e e t t u y t u t a y a u y y u u y y y y p 6 { x 6 y u *   ",
"  y < 0 0 q y : O & - ; > , 3 4 8 0 t a a k k z z z z z z z z z k k x k x k x k k x e M y 9 r 0 *   ",
"  ; 9 q t t t , % : > , 3 8 0 t a f h x n n n n M M M n M M M n M M m M M M M M M M g 4 6 6 0 r =   "
};
