/* XPM */
static char *blue_resized[] = {
/* columns rows colors chars-per-pixel */
"50 50 45 1 ",
"  c #7E9DC1",
". c #809EBF",
"X c #85A3C4",
"o c #88A6C6",
"O c #8CA9C7",
"+ c #87A6CA",
"@ c #89A7C8",
"# c #8DABCA",
"$ c #91AECB",
"% c #95B2CD",
"& c #99B5CE",
"* c #9DB9CF",
"= c #8DADD1",
"- c #95B3D1",
"; c #9AB6D1",
": c #9DBAD3",
"> c #9DBCDA",
", c #A1BDD4",
"< c #A1BED9",
"1 c #A5C1D6",
"2 c #A9C4D7",
"3 c #A6C2D9",
"4 c #AAC5DA",
"5 c #AEC9DC",
"6 c #B2CDDD",
"7 c #B7D0DE",
"8 c #B9D2DE",
"9 c #AAC6E0",
"0 c #AECAE0",
"q c #B3CEE1",
"w c #B6D1E1",
"e c #BBD5E3",
"r c #BFD8E5",
"t c #B7D3E8",
"y c #BBD6E8",
"u c #BFD9E9",
"i c #C1DBE6",
"p c #C4DDE9",
"a c #C7E0EC",
"s c #C9E2ED",
"d c #CDE6F1",
"f c #CFE8F3",
"g c #D0E7F1",
"h c #D2EAF3",
"j c #D8EFF9",
/* pixels */
"6wriaapppafsshapppiprrape6pappi6rp7sjaeupdaaapp4:r",
"eepipppppaaasgrrpri8idppq5eipp76r6ehaew45erpppppqe",
"ppgpppppppprsp57878igdp5;578i727w50yrrw468epapprwe",
"ppspppie767up2O%*6sgsip7%*67e611:%4airre68iaapprei",
"pppppre6;#;:1%oo1sssaeww45er85,$O*esipapippddpi64u",
"pppie61&X>;##X$457rrae:;wereu>oo%1ahappppppadpe1%4",
"ppp85,$*9ut541:ee746rr2:7w7w:XoO;0sarrer77erepieq5",
"ipi886qe11,3wew747et,:47rre5;&*&:6w725epirpreirpae",
"piasasgs822*1255,5wr:X1rspi867215erarwrrppr7essspp",
"ppsapassirr8705ee3,,2::>6rasfp15epapaappipp8rppppp",
"iiiippasaai8wuew1#:we71::eaaa9-4wtppppppappppppppp",
"isiipapaaairpy:#XX&7rr4:,wppr544$#&57ppri8pppppppp",
"iiaiiappipi8r5#XX#:qrw1355eurpr4#o@#%1127578pppppi",
"iiaiiippir861&%;,#O4r5%O,4w53ew:%24&@121114spppppe",
"8ir8rrrrii8&&256:O%6ie5@@--X&65,&*6745rewuyrpprpie",
"gsrrriir886268p6;37rr64&@@OX#;,15*5u4errpfsappeeei",
"aae63ppprapiie5,68ee,#5w52,16q336te03erreaprpw5578",
"aw%X+<pdsdpe8w15rp5&##,w8rpwr5135wpuerprrpar65errr",
"pw*oXoqppe66764ww,@@XX;68ppr:XXX%4rrrppppprw5,68pp",
"ie6*%$5iie2,5w6ww:1;O;4psgsa0O+  %wpppppppppp447rp",
"sssie8pew86*:6aaww2$&24yudpee51#@@:rprrrrpppprrrpp",
"pp8pisfsaswe4:4;:1&%&%%6udpeerrw7416we7errrprppppp",
"p8isspssieiaew3,&@%,oO+3ippiieqw876*155eww6wrppapi",
"iiii888ieq666e5*@o&6:X.;4wepp6;&52%15*;4664wppp887",
"i88pr8eiw#:,<54:3tpd6**rw56epi667*&,6,#-><1rapr88e",
"isapi8563#--;:;<dpe656war888iiiai8e7619440rppr878r",
"ripr87ss0,%$OO:wpe5<qrdper88essaaaiirsra056w7rp545",
"8iss6,w644:&,*:ew>,q6peeppreghspiai8shgf,%;4267w*:",
"6rpq,4e0-;-46qtpt56ieeadsspggpipppipffar5%;486we5%",
"6euyee6%;:$%,36iiewr64eahspghspippiippr63%@&6w656;",
"ayaauq55q5#%3542iaee4&2pgpphsiiir76wweww61*:wr4;4;",
",;;-;%qpaq356554tiww2*,ispsspiii87pq:366ww41,wrt-#",
"3#XXoo%6utww63&,6eepi62riiisppi8igi22221172&&6pp:3",
"i6,1*%o%,265666,qipssegsiisii8i8ss678iri876568wwei",
"e8765*%&%:,*,:25<qaaisgpisiipspiaarr8iiiparraaiwep",
"piaie6568reee65e51weisiiiiissppasaiappiiiiiappi3,e",
"eppiytddfpipiidy3#<6iiissaaaiiiasgsaii8ipieei86&1e",
"66:3qaaipipai0q3- ;wipssaipiiiippppir8r8ie866866es",
",10w5q6,;:wp5;%+#O:eppi88rrrapippppr8si22,:o$5eddw",
"%>qir5:%OO1ew4:#&68ippi8rrssaiiiriiiis8613&X%wpp6*",
"+X,e8656ut6qii7,,rppppiiegdeiiiweiippaiq5p9X:pap61",
"@.*wp8iagp53ei8eepppe78risi68i6eapaiiieipu::pdgpuw",
";2idiiaasi66ew687rpe3%268saw6,;dfspeew88wqqeiiiipi",
"pdde3566we5265;,,e645666ipi6:@=taappppiiiipppirpt5",
"ppw666e6,;:,1*%:><@3ppi6ipsa:##:rpppiippppppi8iw&&",
"piiiiipiiu3&:,%%@X#,uppipsss6*3qrpp8issapappi2,,5e",
"ppppspspsae*%,5,<yu5qppppiipiiiiiippsssipppr6&:ess",
"pppipppiii84&$;5ppuwwiippppppppppppppsi8ipe:#O$3aa",
"pieiipipi882&%-qteteiipspipppppippipaa8rai1.X.X2i8",
"iqq66wie8pi52,3qpppppipieeppiii8888rr88as8*o*%.$18"
};
