/* XPM */
static char *brow_blue_1_resized[] = {
/* columns rows colors chars-per-pixel */
"50 50 16 1 ",
"  c #3D2611",
". c #3F2812",
"X c #452B14",
"o c #492E16",
"O c #472D18",
"+ c #492F18",
"@ c #4D3017",
"# c #4D311A",
"$ c #503317",
"% c #53351C",
"& c #57381F",
"* c #59391F",
"= c #553720",
"- c #573820",
"; c #5A3A21",
": c #654226",
/* pixels */
"@XXO@$%$XXX@&*+##XO$$%#+#;=----;&OO#$@#@@@XX$oXXo$",
"@O#+o$$%@@o@*&%=XO#@$*%%++###=#+#@X%#$%#@o@o$$XX@$",
"$%%%#@@@$$XX%%%=@@%%%&%@#=+#===#&###%&#@@@XX$$oXo@",
"$#%$o@#@%@XX$%@@-%%#O%-%==#=#==%&&&&%&@X$@X@$ooo@@",
"X@$@%o@%$XO@$%OX##%OO+@@%####=-;&-&#%#..$oXoo$$X@@",
"@@@@ooo@@oXX@oXO#=@+XOXOoXO%=#;;#%&%@.XX$o$XXoo$#@",
"@$oX@$$o@O.X+Oo@%-%#X @oX+$;;#;=&%*&@X%%$$XXoo$$@@",
"@@XXo$oo@OXX%@@oO@O@%@XO@@#%;=-=;%*%XX$&@@XXX$$Xo@",
"@@oooOXXo@$%%$$%O++=;+ Xo+==#=#+%==%O.$$XXoooo@o$$",
"O%&%%+XXo$@%%@@$o++#%@XXX@##+#=+O=-#O#@XXooXX@@o$o",
"#;%;%@+#$@o@oo@#o+%%%+XXX%####=#%-#####@XXoXXXo@@@",
"##&;oOo%%%oOo+%#O+#=$XXX##+#====;&#$#%$&$$oXooX@@@",
"X#%O#O##@%XO%@O#oX+%%XXX+OO#;-;;*@@@X@$$$oXo@@X@$@",
"#@######=%#OOOX##+@-% Xo+%#%;==;*$XXX@$*$$$**@@X@@",
"O#X#%####%##+OX=;##=%oOX@#=;;#%+$*X XX$$*$**;$oXX@",
"X O#%OO+#@###%=%=O+O%oX+%%===#+%$oXXXX$$*$***@X$$$",
"o +=@XO@oO##@#@$%+O$%O#%$%#%%$%=$@@@@XX$*%&%*%XXo$",
"ooO#+XX@@@+#OXXO+OO#%@;=#@%%%+%@@@@@oX@%*%@o$$$oXO",
"Xo$=+oO@@#@$X o++OOOO%%==#%=#@@+@$@$@@@&&@@#$*XXo@",
"o%;%+O@%@#@@+ +%%@@+O+O%;==@+##OXXX@@@@@OXO@XXXX$X",
"$*;*#@%%@#@%$$$+#%@+O==;;=+%+++o@@Xo@@@@XXXX@XXXXX",
"o$*=%%%@@@@@%@o$%%@%%;;;;#@;;=#$@@XX$$%$oXX@@X@oX@",
"O%@%%%%$$%%#+%%@%=%;==-%@%%=;=%#@XXX@o%@@XXXXXX@@o",
"+%=#%%%**@+O@%%=;;%;##==;;#O=#+#@oXXoX@%$oo@XXX$@o",
"o$%+%%%$@@#-%%%=%OX+=;==;;=#O==#XX@@XXo*%@@o@OX@@@",
"$=%%;%@+$+#;=;;@OX+@=;;===###;#O@o@Xo@&*%@%#@@#@@@",
"@-%%#+$$%@$%%;%@oo+O+==%=+#-;%O=#O#O@%&@@&%%@&OXo@",
"%=@+XX+@@OO+%;@Xoo@$*-;%=%#===-=O#-O%%&##@@@%#@@$o",
";%oX@O@@+oX+;=#@@@o+%;;;;;=%@=%%#==%#-#=#@@#@O@@@@",
"==%o%+ooO=#=;%@%%$@o+#%*%;%%#%++=:-=#%#@&&%%%.OO@@",
"%=;$%+#XO#=%=+@%%+@o@%#@%@@;oo+@;;-%##-;;&%&%OO.##",
"%*;*&$+@++%;%%@+@@$$%==%#@oooo+%--;%.O&*%#%$OXX%;-",
"-%--%@@=%O=;%OoXo%%*%*:%@$oXX@o$$%@@+=;===#++@#;:@",
"%#%#++#@+#==@@@XOo%$o*;@OooooX@$%$#O#%;;#++#;;%=*&",
"=+#+#%%OX%:;%$@@Xo%+@;;@X$$$oXo@+##%===;#++#:;@#*%",
"=+X%=$$%%%;;*%%%%&%+%%@o$o$$ooXXX###%%%%====;;#@%%",
"#+#==@+$*%@O$%$%%;%%$oOooXX  XoXXO%%-%@O#=;%$%+%%*",
";;;=#%@+%=+++;-%%=%%ooo+XXXXX$%$#%;;;+O##==#XO+#**",
"--=%=-##%;%%%;;%-%%@o%#@XX X$$*%#-;;%+#==-=OXOO+@$",
"@=##;===;;==%@%;=@+X%%@+ooXX$**%=-==%@%--===###$@$",
"#+#=-%+%;;#;=++#%@O+$Xo+o$#%%-%%-=%%=#=;==-###;-XX",
"+##=%%+$=#+=###O+@%@%@%O+%*-#O+%%O@##+###==%+#;#oX",
"+++=%%%%$@####=+X%;$$+++%;%-+o%-%@+@=O##%%%#O+%X X",
"*%%%;;;+@==###==%;%+@@O=;$$%+*;-==#=##=#%&#=%;#OXX",
"%*%%#=;%%=%======;@oX%%%%%$==--==;-=##=%-;=#=;%O@o",
"+*%+@=%%+==;=++=%%=+o@+o$;;==#+%=-%++@=;%=%;-=@X@$",
"$;;%=;=%O%;=%++%%%$o@%+O+;-%+OO=+##@+%=#@@#=##OX@$",
"$;;-;;==+#==+++%%=@@%%##%;;%OOOO#%%%-;=+#@=%%$+@$@",
"+$$$==;=*%==+#=;=%+%++==%%##=%+=-==;;##%%###%##O$@",
"Xo#-%#%--%==+%;;%$+#%%-+$++=%+%=-##=#+=##+###=#@%$"
};
