/* XPM */
static char *gazo_resized[] = {
/* columns rows colors chars-per-pixel */
"50 50 36 1 ",
"  c #2A6700",
". c #2D6A00",
"X c #316E00",
"o c #347400",
"O c #397600",
"+ c #377900",
"@ c #3A7C00",
"# c #3A7709",
"$ c #407F00",
"% c #3D8200",
"& c #438400",
"* c #488700",
"= c #458A00",
"- c #4C8C00",
"; c #518F01",
": c #4D9201",
"> c #539400",
", c #599600",
"< c #569900",
"1 c #5B9B00",
"2 c #619E01",
"3 c #5EA001",
"4 c #64A300",
"5 c #69A600",
"6 c #66A800",
"7 c #6CAB00",
"8 c #71AE00",
"9 c #74B200",
"0 c #7AB601",
"q c #7DB901",
"w c #83BD01",
"e c #87C001",
"r c #8BC301",
"t c #90C700",
"y c #93CA01",
"u c #98CD01",
/* pixels */
"@=4,,,&*%+%=5<<<,,>+O-9q7<863eq%@:>@+=>;;;>-%%7444",
"=%2>,>*%+%+<45,><<;+>890<=:77yw:@&:++=>-----%:5131",
";%1,>>&+@+&2>07>>>-1780:%=%39yq3-%&++*;----*@,2113",
">%,,:>*++@=1:7w5,>2579:%%%%:9tq<>=++O*--*-=&&211,1",
">&;>;>*++@>>-3q01>357>%%%+@:qrq<>>&+O&**&**%-155,,",
"--->--*++@>--:797117<%%%%o+<qwq3>>=OO$*&&&&&<0w1<>",
"4,-;--%OO&;-=::85651%@%%oo%<0q93>--+o@&$$&-1qy5>>:",
"w5*-*-@OO---=-=3633&%%%+oX%:998:,;-+O+&$$-<0y0>->*",
"y0****@OO-*&**=:733:@%@XO&:=987756,:+O@%:=5ww,---@",
"yw;*&&OO@-&&&**%15,1=@+;89:=87676331,*&==<008-**%+",
"ww,&&@oo$*&&&&&%=6,<>@o&->==86677711,<=%=899,&**@@",
"002$$Ooo$$$@%&&%%>3>>&oX+-%=8633:163<-:<3985*&*@++",
"882@@o@,551,--&@%%1>>-+o&&%:7641%%=1<%1t0771$$@+++",
"775$ooO-70eeq84-%+-<--&+=%%<7331=%%&=%:ye76=@@OOOO",
"755@XXoo$>470q974:%:---%%%%35313=%%%%%:ty93%+Ooooo",
"554@ooXOOO-1>39645>--**%@%%51,11:%%%%%1tyr6<@Xooo+",
"444*Oooo+-07:%:8413,;*&@%@&5<,,1-%%+%%7ery91:%o+,8",
"412>,oXO:0y9:%%:7311>-%@%+-4><<<-@@%+:7qewq:::%5w2",
"1,1-01+-7rr>%%%%:61<>-%@++:1>>>>:@+%%149q9q7=:3q8$",
"1,,*7e3<0qq&+%%%%>4>>>%@%+><>>>>:+%+%5,7q990:%:6;X",
"<>>*:e08977+o%%%%%<,::&++@>,->-4,@+@>4>598796%%:OX",
">>>&=797771oXO%@%+=,;-@+@+;--->w5+@@,,>197779:%%&X",
">-;&=<7645,ooo%+++%->-+++&,---5y7++*,>>>776594%%&O",
"----%=:743,-+o+%%++%;*@O+45*=>7y8++;>>>>666667=+%&",
"**=%%1=171,<:@O++@++*-+O-r2&*<9e9@$,--;;154337,++@",
"&*&%=7>%14<<>;&++++++*@@7y,$-:790$------,433115&++",
"&&&%<6<=&11>>;-@+@Oo+&%:0t,&=:998--**-*->505,,4;++",
"$#%%331:%%<>---&++OOO+%<qe;$=:977,&****;7r01,,,1++",
"%@@&41>1-@%>;-*&@OOooO=<90>&%1877-&&&&;7rr1,,>;2%o",
"=@%:1>><4-+@--*&@+ooo+=:99>=%3765>@$$:7rr5>>,;->:o",
"-@@1>>>>w4o+O&*$@+ooo@%<08,&%3664-O@-3ww0$-,;;-->+",
"-@@,>;:4y9oooO+&$+oo+%%<974%%6314=O=:7804X&;;--*>@",
"*%&>-:>8yw@&;$oo@&ooo&%<963%%4113-%=1969-.O---**;*",
"&#*>--39yr-@5w7-*4oXO&%:866%&1,,,:%:9566@.X&***&$*",
"&+--=:3qrr>.+4www9OoO%%-764&&,>>:%%67652oX.+**$$$$",
"$+**=3:9qe2oo&28r9,+O%+=513=@,::=%>7314;...X$*$$$$",
"@@*&*>:9905oXo-69366*%+%411-%>-&%%44,12&X.X O$22$$",
"OO&$:=:0887OoX@68:333=+%21,-@-*++-4<111O X O,w0*OO",
"o+$$:=10777$Xo>76=51,,%+,,>;$&@++,1>><>;OX-9w8;OOO",
"#O$&=%38777&X@47>%:6<<-#;>>-@$OO=1>>><->8200,*OOOO",
"oO+&=%57776>O>53%%%3>:>@*,--++OO-,---,$-887:%o.OOX",
"#OO=%%575556>,4-%%+:,-;-;;-*+oo+,------258-%%. .XX",
"@#+=%%554644<1>%%++@,19q;;**+oo$-**--;,45=%%. . .X",
"%O+=%%743341><&+@++=6er5$*&&OXX**&**--,4*@%:&.    ",
"%%+&%%741441>-@@+%=3ww275&$$O.o*$$&&*-,-+@&11@.   ",
"%%@%%%51111,-@++%=<988$5t,O$XXO$@$$$*--++@<11>o  .",
"%%&@%=5111,>*+@&%>855,O5u5$OX.O$O$$$&-+#<==4<>*.  ",
"%@%@+&4<,<,>@+%%-5442$O2yw-O..OOOOO$&+o>q%@>1>>O .",
"%@%+%%4<>>,-@@%&6314*Oo2tw1X XOoOOO$oX;w8O+&,>>-..",
"%@+++%57<>>-#@%<4<1<ooO2ww1X XXXooOOX$5w1X++:>--O."
};
