/* XPM */
static char *water_resized[] = {
/* columns rows colors chars-per-pixel */
"50 50 250 2 ",
"   c #1A7275",
".  c #286567",
"X  c #34696D",
"o  c #376D73",
"O  c #297679",
"+  c #337A7C",
"@  c #3B7479",
"#  c #2E585D",
"$  c #47757C",
"%  c #416E77",
"&  c #2B7D81",
"*  c #3B7C82",
"=  c #347E81",
"-  c #147F83",
";  c #437E84",
":  c #4B7C83",
">  c #447A85",
",  c #587C85",
"<  c #2B868B",
"1  c #338386",
"2  c #35868B",
"3  c #3C8A8D",
"4  c #38878B",
"5  c #3B8D93",
"6  c #368E92",
"7  c #3C9195",
"8  c #359297",
"9  c #289197",
"0  c #3B9DA5",
"q  c #3DABB5",
"w  c #36ABB1",
"e  c #438185",
"r  c #44838A",
"t  c #4D838B",
"y  c #458A8D",
"u  c #4C868B",
"i  c #53838B",
"p  c #538A8E",
"a  c #5B858C",
"s  c #438D93",
"d  c #4C8C93",
"f  c #4C8F99",
"g  c #4F8490",
"h  c #548C94",
"j  c #5C8C93",
"k  c #568996",
"l  c #459296",
"z  c #44949B",
"x  c #4C939B",
"c  c #45999D",
"v  c #4B969B",
"b  c #549296",
"n  c #53959C",
"m  c #5C949C",
"M  c #53999D",
"N  c #5D9599",
"B  c #648B95",
"V  c #63949A",
"C  c #6B939D",
"Z  c #65959A",
"A  c #6C8A93",
"S  c #4E96A2",
"D  c #4C9BA3",
"F  c #459CA4",
"G  c #5696A2",
"H  c #5C96A3",
"J  c #549CA3",
"K  c #5B9CA3",
"L  c #529EAA",
"P  c #5C9CA9",
"I  c #6396A2",
"U  c #6E96A3",
"Y  c #639CA4",
"T  c #6B9CA4",
"R  c #629DA9",
"E  c #6B9DAB",
"W  c #749CA5",
"Q  c #769BA7",
"!  c #699EB2",
"~  c #729DB1",
"^  c #4CA3AC",
"/  c #4BA9AE",
"(  c #46A4AA",
")  c #54A1A5",
"_  c #5BA2A6",
"`  c #53A3AB",
"'  c #5CA4AC",
"]  c #5BAAAE",
"[  c #54A9AD",
"{  c #4AABB3",
"}  c #55ACB3",
"|  c #5BABB3",
" . c #5AACB9",
".. c #57A7B3",
"X. c #47B5BB",
"o. c #5DB3BA",
"O. c #57B3B9",
"+. c #64A3AC",
"@. c #6BA4AC",
"#. c #62A9AE",
"$. c #6CAAAE",
"%. c #68A2A6",
"&. c #72A3AD",
"*. c #75A5AD",
"=. c #63A5B2",
"-. c #64ACB4",
";. c #6BABB4",
":. c #64AEBA",
">. c #6BADB9",
",. c #6CA4B4",
"<. c #73A6B3",
"1. c #74ABB4",
"2. c #7AABB4",
"3. c #73ACBA",
"4. c #7CADBB",
"5. c #7BA5B4",
"6. c #64B1B5",
"7. c #6CB2B5",
"8. c #64B3BB",
"9. c #6CB2BB",
"0. c #65B9BE",
"q. c #6BB9BD",
"w. c #73B2B5",
"e. c #75B3BC",
"r. c #7BB3BB",
"t. c #73B9BD",
"y. c #7AB8BB",
"u. c #49BAC1",
"i. c #5CBCC4",
"p. c #5BB9C5",
"a. c #7AADC1",
"s. c #6CB5C1",
"d. c #65BDC2",
"f. c #6BBCC3",
"g. c #68BBC9",
"h. c #75B5C3",
"j. c #7BB4C3",
"k. c #74BBC4",
"l. c #7BBAC3",
"z. c #7BBCCA",
"x. c #74BBCA",
"c. c #74B5CC",
"v. c #34D0D8",
"b. c #47C4C9",
"n. c #5BC3CA",
"m. c #5CCBD4",
"M. c #4AC7D0",
"N. c #6CC2C6",
"B. c #64C4CA",
"V. c #6BC4CB",
"C. c #69C7CC",
"Z. c #73C4CB",
"A. c #7BC4CB",
"S. c #74CACE",
"D. c #7AC9CF",
"F. c #77C1C6",
"G. c #6BCBD3",
"H. c #67C8D5",
"J. c #73CCD3",
"K. c #7BCCD3",
"L. c #79C8D7",
"P. c #69D5DA",
"I. c #73D0D5",
"U. c #76D4DA",
"Y. c #7BD4DC",
"T. c #7BD5DA",
"R. c #67D6E2",
"E. c #78D9E4",
"W. c #56EAEF",
"Q. c #6DE2E8",
"!. c #7CE2EB",
"~. c #72E2E8",
"^. c #56D1E1",
"/. c #81A5B2",
"(. c #84ADBB",
"). c #87ACB6",
"_. c #83B3BD",
"`. c #87B7BF",
"'. c #90B4BE",
"]. c #80AFC3",
"[. c #83B5C3",
"{. c #83BBC4",
"}. c #8BBCC4",
"|. c #84BCCB",
" X c #8BBCCB",
".X c #87B5C4",
"XX c #93BECA",
"oX c #92BBC5",
"OX c #85BFD2",
"+X c #84C1C5",
"@X c #83C4CC",
"#X c #8BC3CC",
"$X c #83CACE",
"%X c #8BC7CC",
"&X c #93C3CD",
"*X c #96C6CD",
"=X c #84C4D0",
"-X c #8CC4D3",
";X c #84CBD4",
":X c #8CCAD3",
">X c #8ACDDA",
",X c #89CADC",
"<X c #94CAD4",
"1X c #9CCBD5",
"2X c #93CCDB",
"3X c #9ACDDB",
"4X c #95C5D4",
"5X c #8BD0D4",
"6X c #84D3DB",
"7X c #8CD2DB",
"8X c #86D5DA",
"9X c #94D4DC",
"0X c #9BD3DA",
"qX c #96D7DB",
"wX c #A2CCD4",
"eX c #A3CCD8",
"rX c #A4D3DD",
"tX c #A5D6DA",
"yX c #B2D7DD",
"uX c #A2C6CC",
"iX c #97CCE2",
"pX c #83D5E1",
"aX c #8CD6E2",
"sX c #84DCE3",
"dX c #8CDBE3",
"fX c #89DEEC",
"gX c #94DBE3",
"hX c #9BDBE4",
"jX c #9DDCEA",
"kX c #96D7E5",
"lX c #87CDE2",
"zX c #A5DCE9",
"xX c #A8D8E6",
"cX c #B4DBE5",
"vX c #A3D7EC",
"bX c #87E3EA",
"nX c #92E3ED",
"mX c #98E4E9",
"MX c #98E8F4",
"NX c #8EF3F9",
"BX c #A6E4EA",
"VX c #B6E5EB",
"CX c #A8E6F5",
"ZX c #B7E9F6",
"AX c #BCF1F7",
"SX c #A8F7FE",
"DX c #C9EEF4",
"FX c #CCF1F2",
"GX c #D1EDF2",
"HX c #EBF9FB",
/* pixels */
"U XXcX0Xx.;.@ Y VX~.W.MXD 4 v D 6.x.;.#X6.f.3.m K. .%.$.T y & ' VXA.$XtX6.N.n.C.!.sXc y M ] n h N 5.",
"C ,.cXcX7X3.e #.] ) q N.6.7 c M Z.:X{.qX` 0.;.g E.9.K 1.&.R O l.tX[ t.7.t.S.C.C.bXC.7 l M N W r n j.",
"E 1X4X(.0X5Xn J v M / - t.t.4 y A.ZXZXpXF.F.R c E.N.l.3.R P x z 8 c y.t.S.I.C.C.I.N.l ) 8.Z B <.[.c.",
"&.1X4X@.S.hXb 3 M K < < l N.v * u @X=Xe.d u x.E.pXzXcX1X5.P G J v F.A.7.d.B.I.I.C.D.M ] <Xm H H.Y.XX",
"R ;.VX{.#.#X`.w.Y $./ 8 6 t.qX8.K $.@X@Xe.Z.;X<X].yXeXGX XH .XXXv $X5X_ O.I.T.S.qXdX) v y.{ u.H.nXHX",
":.+XxXZ $ ; j i : M 6.6 & b _ q.D.+XjXaXBX>XY P ].]./.].].XXeXrXw.t.BXN.T.P.u.C.8XbXw.e d c Q.bXp.z.",
"K 1XW C Z X : j p y 8 7 O 3 ` D.| $.kX7XjXr.C |..XU , , /.XXOX4X%X] C.T.T.Q.P.I.I.bX$.p 7.' !.U.OX=X",
"4X{.Z a Z j j V ; 5 F.] < 3 M 5X7.-.DX0XR j ).~ /./., U Q eX4X.Xt.[ [ B.I.~.O.) A.qX; u 0.#.e.> uXHX",
"AXj.o : d k o 1.` O.cX) 6 _ ] S.:.n |.wX: ~ B k /.U , /.5.]..XOX{.A.:.1 0 6 . ) K.%._ #.d @.#X` P z.",
"fX|.N ; ; P d x O.0 < 5 l z } T.x.G , j , , , a..X, U 5./.~ 5.XX;.%.u 1 9   6 c ] M t.$.p 1.#X;.;.XX",
"k.ZXwX* > =.x 8 ( ` ^ L 9.7.D -.#.*X;.B , Q .XvXxX].~ ! ~ .X].].= = 8 v.v.    @ p b Z N y %.1X$.<.oX",
"3X=.S N f F p.O.` | ..8.x.K n Y h x.,.@ k ].vXlX].iXOX! ].E a.OXo -.u.v.v.+.}.v *.%.2.y.4 M %.$.&..X",
"{.t L E.R.E.K p d +.A.| x.>.h.:.` S m o P L.z.2X~ ].4XR I ~ 5.R e r u s w C.#.O _ M l 3 1 b # j K #X",
"<.: ^ ^.p.k t N k ;.x.:.=.` 9.8.D <XY m zXx.c.VXXX.XiXoXI ~ xXOX%.e J Z.7 / +X%.$.2 ) ) 7.j @ N @.uX",
"B T { p.G &X#X-.:X@.+.l.r.-.R ;.' :.x.L =X=.3.h.|.2X]..X(. XCXkX$X] q.c c %.#.S.[ l qXt.7.w.K G ,.;.",
"j @.p.>.h.|.l.w.j.`.3Xz.z.+.Y e.c.g.H.f 4.#Xt h.D F a.3XxXCXDXj.%XFXl O 8 _ c 0.i.i.dX] +XF.9.r.e.9X",
"m  .^ J Y N 3.;.wXcX3X;Xz.2.Y k.V.!.s.G I =XG K 0 < f.zXvXxXiX[.9.CXv l c < < < 6 i.P.w 9 6 d.BXOXh.",
"s.H.S S 9.2.l.D XXwX*Xl.|._.d +.H.{ e.,.> $. Xn | [ o.r.zXcX1Xe.6.Z.w.m 7.1 _ 8X/ / qXb.{ o. .kXcX,.",
"c.c.F f j.&.[.|.j.}.wXA.>.I I K.G.7 F A.Y d _.wXq.T.:X2.rXHXrXH _ 9.$.b 6.7 [ [ N.8Xn.I.gXT.V.2XAX! ",
"c.iX3.a.[.(..XiX|.+.[.:X| &.1.dXD 8.8.|.@XY ;.ZX8XV. X XGXGXxXeX_.p b +.] c [ / q.qXS.T.jXV.kXXXCXOX",
"4Xc.4X X[.4..XU T e.' |.w.@.1.2XD ' (.-X,.:X9XhXD.8.8.:XcX.X4.I &.Z e 7.t.:XA.G.C.N.G.Y.sXmXOX5.[.3.",
"a.a.a.OX2XI ~ , V +.{.eX1.V %.VXx Y  X4X_.+.2X:X|.D.V.kX XI j.%.Y -.t.-.| %XFXg.B.0.V.T.lXCXiX|.OX<.",
"..z.c.iXZXXXA $ oXe.3.K ; a k._.}.T I 2X2XE V 5.eX>X7X|.m `.s.K b J @Xf.| k.<Xx.S.I.G.K.6XkXCXiXh.' ",
"8 g.z.].XX'.A a Z r.Z K %.+.-.@.h T 2.zXiXl.E (.5.(.C a B.NXCXY.X.p.(  .} ;Xk.aXmXmXbXbXgXCXCXa.3.s.",
"g.8. X5.5.Q ).).@ h 3.-.F { F b 1.%Xw.1.j.2XtXXXQ A W z.G.!.FXbXC.J.i.( { CXqX-.=.dXMXMXjXvXxX3.G | ",
"G.( <.).U C &X5.I h.S.sXw 0 H.%XK x $.$.z.{.*XU $ $ =Xl.T +.8.*X;._ d.` ] ;Xh i h.gXvXA.P _.eX>._ 8 ",
"( ) @.T 2..X3.kXnX6X8XD.2 c s.sXd.4 {.&X' r.N $ G {.t._ b b #.k.D | 8.( VX1.X i xXh.lX>.+.n P  X;Xo.",
"6.J +.e.x.;XMXfX6X=X;XJ 9.} :.s.E.J.%X+XM _ e d.D.:XN.q.$.: , _.+X| o.dX0X; Y 3. XG aXA.K z.=XXXXXk.",
"8Xx.x.L m.MXaXz.z.>X9.+.6.k.*X;. .I.AXy.6.-.V.K.K.Z.k.r.@.2.m k $.f }.5XD.l.gXgX0X|.p.0 D h.s.R @.e.",
"s.z.>. .R.E.h.z.K 9.8X] -.@.y.k.-.} U.AX$XB.d.i {.A._ *.k _.1.a.h.#Xb z K.K.6X9.8.l.dX} z [ | 4Xk h ",
"1XOXOXlXU.+Xo.=X_._ 8X+X%.C 5.j -.7.M o.l J K . {.>X@Xr.<.I =.h.k.=XM _ K.I.o.1 5 F U.E.S |.|.0X XH ",
"ZXZXCX4XE.{ } wXGX$XZ.t.$.C T @.w.p :  .o.9.@XT l.z.r.}.yXtX<X:.VXf.;.6.8X8Xl O < 2 X.G.=.1.Y k 4.-X",
"! ,XvX5.nXi.) N %.<X_ y.Z %.w.y.+Xw.e.N.bXdXz.rX>X2X`.1.&X{.w.l.tX;XS.D.D.D.] y 2 8 u.q g.=Xh.3X3X,X",
"3.a.XXm sXB.p p 1 7.N $.%.w.] y.e.+X0X9.U.dXjXlXjXxX_.r.|.I >.7XhX;XK.6Xq._ k.;.` F M.{ ^ 7XCXZXvX X",
">.OX,XH K.{ N y O w.w.u Z 7.7.t.y.+XA.N.E.E.=XjX@X0X#Xm x G :.;X=XdXS.S.qXK.B.5X8.n.m.F j.-XiX3.*X1X",
"3.OXa.> v O + l < v u X X @ u 7.<X8XI.H.E.p.7 s.;.f K b S J s.fX7XnXE.nXHXMX!.G.( m.o.f I T 5.oX}.0X",
"OX-X4.t = 1 - + 1 w.p . . + b u >.K.Z.>XL =.....x e.l.G K | !.SXSXmXT.bXgXI.T.Y...0 [ @.P ;.3.(.'.).",
"5.XXI r = M { 8 1 w.p $.$.t.6.6.K.aXZ.zX:Xx.jXS ;.zX-.L >.H.R.m.Z.:X;XF.| [ 0.8X2X..o.>.=.3.].B *.Z ",
", j E = O 4 8.X.X.* X y.$.y.4 _ M L lX=X9XMXgX}.:.D.L  .U.G.>.=.-.+X@X:X:XN.A.+X%XF.O.' M m U Q /.Z ",
"U B (.k + M ( 0 O.0.6.$.O Y _ c D p.MXDXK.L.N.;.k.9X..x.c.S s.|.+Xw.#X9X5XA.$X$X9XnXsXr.h.W i , a C ",
"y.%.p #.6.( 7 6 l u e O 7 E.q.{ p. .z.CXqX' 7XBX8.=.s.9.;.f n 4X%X+X6.I.S.$X8X8XgX8Xf.1.M h i i N Y ",
"M u @ e O.( l M ; X u d o.P.Q.nX .f =.2X2X:.s e.7... .:.h.=.k i p y.q.) M 7.S.N.7.m * $.' %.*.*.$.$.",
"c w.6./ { 6.p $ j +.7.7.N.K.!.NXpX` P >XK.Z.Y b 8.Z...s.z.%XU > N 6.) b b _ O.] e.+.c D.Z.`.#.$.M #.",
"6.6.6.m.I.6.b X %.M K q.O.o.G.m.J.gX,.G :X_ l.BX@X+.$.=.Y 1.4Xf *XqXFXVXFXqXVX8X6.gXM.P.NXE.N.b * c ",
"P.w v.X.5Xt.y e n n M s ) M c w ^ >X0X,.}.t.-.#Xu I H t j o > g l 3 y.+XT.BXFXS.1 P.MXqXZ.0.9.t Y O.",
"i.b.W.W.K.y.%.#.M k.q.4 b V x q D j.=.3.{.t.:Xf o H R ; , o : , e e O e 6 6./ %Xn.P.hX8X$X`.t B w.M ",
"#.t.nXbXY.x.%X+Xb t.#.j 2.I x | r.f d +.F.{.@.T g : r s 3 > f $.N l 3 3 O 3 3 qXP.w.mXo.l.}.h T }.w.",
"z.t.<X8XgXBXe.% Z $.y j m l [ x R n >.@XBXDX5.oXE @ I L I.3.j.f.S.[ S.] l l w ~.3 %.8X+X1.v &.}.}.w.",
"2X#XyXcX,.aXs.<.OXe.N d %.7 J d P | zXcX;.{.*.B B i _.} H.x. .U.T./ 0.S.P.P.b.8X+ 7.mXt.M w.+Xw.%.Z ",
";X3. XeXXXCX-XSX=XS L 1X:X( ] l.] -.+Xj.Z 5.T # j 2.8.nXn J +.D F.] ] q.O.S.tXC.6.7 ) $.%.tXy.+XqX`."
};
