/* XPM */
static char *yellow_soil_resized[] = {
/* columns rows colors chars-per-pixel */
"50 50 132 2 ",
"   c #99795F",
".  c #9B7A62",
"X  c #A17B62",
"o  c #AA7C63",
"O  c #BE7E65",
"+  c #C37E66",
"@  c #9A8167",
"#  c #958368",
"$  c #9B8469",
"%  c #97886C",
"&  c #9A896D",
"*  c #9D8D70",
"=  c #9F9073",
"-  c #A78067",
";  c #AF8067",
":  c #A4846A",
">  c #AB856A",
",  c #A48A6E",
"<  c #AC8A6E",
"1  c #B68167",
"2  c #B98065",
"3  c #B3846A",
"4  c #BC856A",
"5  c #B38A6E",
"6  c #BB896D",
"7  c #A38D71",
"8  c #AD8E71",
"9  c #B38E71",
"0  c #BC8E71",
"q  c #A49275",
"w  c #AC9476",
"e  c #A69778",
"r  c #AA9778",
"t  c #A69A7B",
"y  c #AC9C7C",
"u  c #B19275",
"i  c #BB9375",
"p  c #B49678",
"a  c #BE9678",
"s  c #B39B7C",
"d  c #BB9B7C",
"f  c #ADA07F",
"g  c #B3A07F",
"h  c #C3856A",
"j  c #C8876C",
"k  c #C38A6E",
"l  c #CB896E",
"z  c #C38E71",
"x  c #CA8E71",
"c  c #C39375",
"v  c #CB9375",
"b  c #C49678",
"n  c #CE9679",
"m  c #C39B7C",
"M  c #CC9C7D",
"N  c #D29376",
"B  c #D39679",
"V  c #D89578",
"C  c #D49A7B",
"Z  c #C3A07F",
"A  c #C8A17F",
"S  c #D2A07F",
"D  c #B49F80",
"F  c #AEA281",
"G  c #B3A483",
"H  c #BCA483",
"J  c #B6A986",
"K  c #BAA987",
"L  c #B6AA88",
"P  c #BCAD8A",
"I  c #BEB18D",
"U  c #BFB390",
"Y  c #C39F80",
"T  c #D69E80",
"R  c #C4A483",
"E  c #CCA483",
"W  c #C2AA87",
"Q  c #CEA987",
"!  c #C3AD8A",
"~  c #CCAC8A",
"^  c #D3A181",
"/  c #D9A483",
"(  c #D4A986",
")  c #D9AA87",
"_  c #D3AD8A",
"`  c #DAAE8A",
"'  c #C2B28E",
"]  c #CBB28E",
"[  c #D3B28E",
"{  c #DCB28E",
"}  c #C5B691",
"|  c #C9B792",
" . c #C7B994",
".. c #CABA95",
"X. c #CEBE98",
"o. c #D2B591",
"O. c #DCB795",
"+. c #D4BB95",
"@. c #DBBA94",
"#. c #D1BF99",
"$. c #DDBF99",
"%. c #E2A181",
"&. c #E3AB8A",
"*. c #E0B28E",
"=. c #E2B692",
"-. c #E3BB95",
";. c #E4BF99",
":. c #CFC19A",
">. c #D3C39C",
",. c #DBC49D",
"<. c #D7C89F",
"1. c #DAC89F",
"2. c #E2C39C",
"3. c #EAC59D",
"4. c #E3C89F",
"5. c #D6C6A0",
"6. c #DAC7A0",
"7. c #D6C8A1",
"8. c #DBCBA3",
"9. c #DDD0A6",
"0. c #DED0A8",
"q. c #E6C7A0",
"w. c #E3CCA3",
"e. c #EDCCA3",
"r. c #E3D1A7",
"t. c #EAD1A7",
"y. c #E3D3AA",
"u. c #E9D5AB",
"i. c #EBD9AE",
"p. c #F2D3AB",
"a. c #EADBB1",
"s. c #F4E1B6",
/* pixels */
"6.>.I ..>.:.' | ..X.' I K '  .J $ 2.<.| } } ....X...| X...} ..#.| h h z k p.5.5.5.:.>.} } :.....6.>.",
"#.X.} | } ' } :.} P I L G p H : 6 i.6.<.X...5.| ' } } } | ' ..#.P o V B =.5...5.X.:.X.X.X.#.| ..X.X.",
"| X.| X.X.X.,.g G P 8 p i k v 6 2.a.6.X.....X.' } } ' ..} ....} P s ( 5.8. .X...X.>...>.#.>.' ..' ' ",
" .' ' | } :.:.I 3 0 [ z M z h { 6.>.X. .......} ....8.X.} ..} ! I 7 z d D d | X.y.0.:.} >.I K D r D ",
"} P ' ..} | | } d / 0...1.m C 4. .8.#... .......:.:.:.| | } | } ' ! B _ 6._ Q D ]  .q 0 D 7 9 D _ ~ ",
"K P :...| } f q > z >.>.>.! k 2 Q a.5.....I L } ' I  .I ' | } } ..X.7.0.>.#.y.,.O.Y i O.y.,.q.y.8...",
"9 o.' y P f   z V / 8.>.1.>.] 2.t.8... .D : 9 d W >...] >.>.' X.....| } | >... .U X.6.a.8.X.| |  ...",
"A S w 5 a - ` -.q.+.| ..} :.<.y.7.>. .L 8 ) e.~ ] 1.X.} } } | X.X.| } ....X.} G 7 i 6.5.X.' | ....X.",
":.] z C A *.1.:.r.K u Z > ] ..|  ...X.s ~ a.8.* :.1...K J I ' :.X. .......} } } :.S u.>...} :.| } ..",
"P f 9 l z A :.} >.g Z Z v 2.<.|  . . .s $.a...i ,.X.| J | :.X.X.} ..} | ..} ..#.' +.r...' | :.X.} } ",
"g f h S A N i i +.X.1.>.r.y.:...#...U D +.P G s M ..@ ! >.>.>.|  ... . .} I I ..:.6.>.} :.:.:.X.} } ",
"< A v ` ! ` S j m g P X.| ' ' ' ' L p M _ ! ] W ( ' R ,.! X.:.' } } ..X.} } ..5.>.X.:.+.| ' | } } L ",
"v S 4 [ 1.9.} A [ b 6 ] :.} ..>.X.#.#.,.u.u.y.>.>...>.X.:.>.>.| ..X.....' } 8.8.X...|  .' P e r q , ",
"4.4.@.r...K ' :.1.1.b B #.:.7.6.#.X.X.>.>.<. .I ..>.>.>.>.>.>.| X.X.X. ... .<.>.| | ' I ' & K ,.#.#.",
"1... . .P | 1.,.>.>.1.[ b >...' ' }  .X.>.:.} X.1.:.X.X...>.| e D  ...P I } ,.1... .' G : X.i.>.#...",
"1.'  .| :.>.>.:.X.X.X.P m 4.' J #.....#.:.>.X.X.| X...} ..>.G s a Q ..P } ~ >.:. .' } : 2.i.} ' ..X.",
"X.} >.>.>.} ..X.I ..X.:.s 2.X.>.5.X.X. .#.5.X. . .} .... ...G b Z -.1.| >.,.#.X.| X.g g i. .' K P | ",
"' } }  .} ..#.} ......X.G +.:...X.X.} ! ' ....! ..} } } } P >.y.u.:.<.:.8.<.>.<.X.} r R X.} ' P >.<.",
"' P P ..X.} ..} | ....| G Z >.' } ..} G D ,.P '  .| ! } ....7.>.X.X.} >.8.X.| |  .' f 6 q.:.| | <.| ",
"I r 5 | X.} ! |  . . ...P R 8.I  .>.X.P Y #.} ..X.X.' } L  .#.....| X.<.>... .X.' q . ) <.X.X.} | :.",
" .H N z ~ K I }  . .X.6.L 8 >.' X...P G i u.P X.>.} } ' } >...' | :.| :.>. .| | & w -.[ c ,... .| :.",
">.7.u.Y h M 9 | X.| X...J m _ 6.>. .} ! +.] } y.....:.>.....#.| | >. .:.:. .>.f . 3.<.| ,.r.>.X.<.>.",
"I #.7. .B { _ u.X.....' } w @.6.X.} }  .#.~ r.#.X.} ....' I | | ' | X.:.} | :.f A 1.X.>.X.| >.>.<.>.",
"5.u.r.7.,.u.y.8.' X.:. .J i w.>.#...} >.X.P ....X... .} P P } | | :.' | X.:.| f < X.>...' >.>.>.:.:.",
"0.y.8.:.0.8... .} ..#.' L i +.<.#.} ..X.....X...5.#.} e > a <.........} ' .. .% v w.<.| X.:.>.:...X.",
"X.>.>.......:.} X.X...' y 3 3.X.......X.......<.8.7.* 9 $.E i ! } .. .} | :.e q i.>.:.} ' } :.:.X.' ",
"X.L F G D D D  .| } y $ < *.<.P ..X.....} ..>.X.' t 7 s.0..._ E ] :.J '  .& 8 4.1.| } | | ' G P K P ",
"q , O 6 j D 0 ] :.' $ O.w.8.| >.#.} ....} ..X.G % ! a.0.X.>.7.} m d s ! y s i.1.| } } | X.y > Z g p ",
"8.>.O.=.3.u.2.` #.* d u. ...} } ....X... ... .# +.s.5. .#.5.....[ 2 N A 9 4.:.}  .} :.} ' & 2.u.1.4.",
"6.I  .6.>.#.0.#.~ ..u.5.X.P D ..X.P L y 7 D * D y.>.X.:.>.#. .X.g c M h v Z ! ' ' } K f # ] y.| X.:.",
":.} 5.>.X.:.....<.8...X. ...,.r.U o 0 0 o.R ] 5.} 8.5.5.X.} ..X.| A 1 v 6 C k o.>.| f 9 @.i.X.| ..' ",
"} #.>.X.X.#.} ' } ! | } X.X... .% O.w.q.u.5.>.' >.5.>. .X.X.....:.| ~ N l *.! A ' = 7 w.1.X.| X.X.| ",
"..X..... .}  ...L L ..}  .P G @ H i.:.>...| } X.1.>.X.:.:. . .P ' ] ....S n a ) A ! ,.:.:.:.| >.| } ",
"..} } } ..X.X.I . [ X.| } P w v u.:...' X...} | >.X.| >...' } ' >.X.#.:.<.] S :.:.9.| >.>.' :.:.X.| ",
"X.} } |  .#...D o x ~ ..' J s { 1.....X.X.:...............>.:.>.X.X.| | } :.| 9 | :.' | :.Z | | | :.",
"..| } .... . .P ( O.t.<.| } K b 8.| ..>.| ..>.:.:.:.:.| ] ' K P } >...| | } f 2 { :.' :.} :.:.| :.:.",
"| } ..X.X.....X.<.8.>...| K q w.r.' } | | ..:.| ' ' .. .' F w 5 ] ..} }  .P ! [ A Z | :.:.} } | |  .",
"} } ..| ........:.| X.' I % X.8.X.' K X.X. .| P K '  .' J . Q 4.E W :.' } } | :.:.A S :.} :.} } }  .",
"I | } X...| } ..I ' } I } p >.} } I } 6.' ..' P I g p g . + 3.:.P E 1.' } :.| :.:.:.A A } :.:.} :.| ",
"' X...X.} F q r : w r F y < z ' I I X.I ' X.' s 5 1 { [ ( -.>...r ~ :.P ' >.| | :.} :.A g ' ' ' ' ..",
":.} g f & y +.>.+.{ Q i 6 z N k w 5 ' y ] >...$ h V r.r.1.>.:.:.p c p > ~ :.} } ' } :.' A A :.} | } ",
"} t , ; ` i.>.>.<.8.>.1.@.2.A c h B [ < S :.t X &.4.>.| } ' } ' :.o.4 h 2.>.:.' :.| } ] :.g a g g P ",
"= > v v e.:.| :.} I  . ...:.I 5 h / >.Q v 9 w @.r.>.:.:.:.| ] ' } e i 2.:.:.:.' } ' ' :.| ' [ 1.] Z ",
"1.,.2.>.w.:.' g P L '  .} ' = k l V ] q v 2.4.8.,.>.>.<.| } P ' g - S :.: i P ' } | :.' ' :.:.>.>.>.",
">.>.>.:.:.| f : Z  .>.:.X.G - @.M O c h @.<.X.>.| ..:.| } P K X.g z S b 1 2 S 1.:.P :.} Z ' g I } ' ",
"r e f P :.f L g l _ 1.:.} G c [ } v j B v +.' P y ' >.} | P :.' P A z c N S p.w.| :.} g f , u g P ! ",
"A m c Z < m ~ g ` [ <.| | ' :.W W ! v M v A H > z m g g f f ' :.>.p v n c >.9.| | :.} g 2 2.m S X.g ",
"w.>.,.g j { 6 n r.g ~ :. .' } g A ..Q 4 n l O S r.[ b m 4 k 2.<.' g >.:.0 3.>.:.:.| >.g x w.g S ' 5 ",
":.f - a c ,.~ { :.K 4.>.:.' :.' 4 [ 1.,.4.S [ A I H Z h v 2.1.' f < Z : A r.:.:.<.>.:.P A g g v c k ",
"p , @.c { r.:.1.} :.1.:.| ' :.U 5 p.9.>.<.1.<.m c b g 2.2.4.} J g k x j S 1.:.:.:.:.>...] ) v k x 6 "
};
