/* XPM */
static char *__resized[] = {
/* columns rows colors chars-per-pixel */
"50 50 25 1 ",
"  c None",
". c black",
"X c #051718",
"o c #2D2118",
"O c #2B3734",
"+ c #4E3B25",
"@ c #664328",
"# c #744E26",
"$ c #3B4A40",
"% c #435E42",
"& c #705C4B",
"* c #876033",
"= c #BC6439",
"- c #CA7830",
"; c #9A7A4D",
": c #9A7B4E",
"> c #5F8263",
", c #EF882D",
"< c #948872",
"1 c #948973",
"2 c #F0B659",
"3 c #CF9F6F",
"4 c #B2AA99",
"5 c #E2C18E",
"6 c #F7E0C9",
/* pixels */
"                                                  ",
"                        # #-                      ",
"                       #2-#2-#                    ",
"                    -#---2-2-2-                   ",
"                   #2-2-#----2-#                  ",
"                   #--2#-2-----#                  ",
"                   #-#--2-#--#-#                  ",
"                   ###-#-#---###                  ",
"                   ######-#-####+&                ",
"                   #############+1&               ",
"                 +++##########++14&+              ",
"               &+1&1++&####+++41&14+O             ",
"              +41&&4&14++++41&4&4&4+,             ",
"              OOO114&&114111&1141&&+X             ",
"             X,%$O+&14&&11&&14&1&1&+X             ",
"            X%=>%%++&4141&411&&&&&++X             ",
"            X>>>,%+++&11&11&1&&&&+++              ",
"            *>>>%O+&&++&&&&&&&&&++&+              ",
"            X;;**O+&&&&+++++++++&&&+              ",
"            XOOOO**+&&&&&&&&&&&&&&&+              ",
"            X@>OOOO+&1&&&&&&&11&&1&+              ",
"             o@*@@@+&1&&1111141&&1&+              ",
"              XXXXX+&4&&1111441&&1&+              ",
"             &&3533+&41&1111441&&1&+              ",
"             X11&&&+&41&&111441&&4&+              ",
"             X1111&+&14&&111441&&4&+              ",
"             X6,oOO++14&&111441&&4&+              ",
"             X,=o$$++141&1111...14&+              ",
"   O.  ..     Xo$%%X+141&1...<<.14&+              ",
"   OO..&&..   X%%ooX+14...&&&<<.14&+              ",
"   ..&&&&&&.  oooo==X..&<<&&...&41&+              ",
"  .<&&&&++&.  X%%$=X&<<&&...144&41&+              ",
" .<<<&++OO+&XXX>>%X&&&...&11144&41&+              ",
" .<<&+OO$....&&X===X..141&11144&41&+              ",
" .<&OO$$$.+++&&&XXXX+&111&11144+41&+              ",
" .&O$=%%$.+++...   X+&&11&+1114+1&&+              ",
" .&O$$%%%$...      X+&&11&+1114++++               ",
"  .&.$$%%$$OO...   X+&&&&&+1111+OX                ",
"  ...$$=$OO&&&&.   X%++&&&+++++O%X                ",
"     .$$O<<&&&&&.XX:OO%++++OO%%%%X                ",
"     .$O<<<&&&&&.%X:%%%X   XXOOOOX                ",
"     .O&<<<<,,,,&.%%*::X     XXXX                 ",
"     .O&&<,,%%%%,.%%%>>X                          ",
"      .&&,%%%=$$=.OO%%%X                          ",
"      .&,%%$,$.=. XXOOO                           ",
"       .,$$.%>$.                                  ",
"       .,===.%>.                                  ",
"        .... .$.                                  ",
"                                                  ",
"                                                  "
};
