/* XPM */
static char *__resized[] = {
/* columns rows colors chars-per-pixel */
"50 50 24 1 ",
"  c None",
". c black",
"X c #051718",
"o c #2D2118",
"O c #2B3734",
"+ c #4E3B25",
"@ c #664328",
"# c #744E26",
"$ c #3B4A40",
"% c #435E42",
"& c #705C4B",
"* c #876033",
"= c #BC6439",
"- c #CA7830",
"; c #9A7A4D",
": c #9A7B4E",
"> c #5F8263",
", c #EF882D",
"< c #948973",
"1 c #F0B659",
"2 c #CF9F6F",
"3 c #B2AA99",
"4 c #E2C18E",
"5 c #F7E0C9",
/* pixels */
"                        # #-                      ",
"                       #1-#1-#                    ",
"                    -#---1-1-1-                   ",
"                   #1-1-#----1-#                  ",
"                   #--1#-1-----#                  ",
"                   #-#--1-#--#-#                  ",
"                   ###-#-#---###                  ",
"                   ######-#-####+&                ",
"                   #############+<&               ",
"                 +++##########++<3&+              ",
"               &+<&<++&####+++3<&<3+O             ",
"              +3<&&3&<3++++3<&3&3&3+,             ",
"              OOO<<3&&<<3<<<&<<3<&&+X             ",
"             X,%$O+&<3&&<<&&<3&<&<&+X             ",
"            X%=>%%++&3<3<&3<<&&&&&++X             ",
"            X>>>,%+++&<<&<<&<&&&&+++              ",
"            *>>>%O+&&++&&&&&&&&&++&+              ",
"            X;;**O+&&&&+++++++++&&&+              ",
"            XOOOO**+&&&&&&&&&&&&&&&+              ",
"            X@>OOOO+&<&&&&&&&<<&&<&+              ",
"             o@*@@@+&<&&<<<<<3<&&<&+              ",
"              XXXXX+&3&&<<<<33<&&<&+              ",
"             &&2422+&3<&<<<<33<&&<&+              ",
"             X<<&&&+&3<&&<<<33<&&3&+              ",
"             X<<<<&+&<3&&<<<33<&&3&+              ",
"    O.       X5,oOO++<3&&<<<33<&&3&+              ",
"    OO....   X,=o$$++<3<&<<<<3<&<3&+              ",
"   ...&&&&..  Xo$%%X+<3<&<<<....<3&+              ",
"  ..&&&&&&&.  X%%ooX+<3<....&<<.<3&+              ",
" .<<&&&&&&&&. oooo==X...&<<&&<<.3<&+              ",
".<<<<&+++++&. X%%$=X&&<<&&&....&3<&+              ",
".<<<&+OOOOO+..X>>%X&&&&....<<33&3<&+              ",
".<<&OO$$$....&&X===X...3<&<<<33&3<&+              ",
" .&O$=%%%.+++&&&XXXX+&<<<&<<<33+3<&+              ",
" .&O$$%%%.+++&....  +&&<<&+<<<3+<&&+              ",
"  ..$$$%%%....     X+&&<<&+<<<3++++               ",
"   .$$$$$$OO..     X+&&&&&+<<<<+OX                ",
"   .$$=OOO&&&&.    XO++&&&+++++OOX                ",
"    .OO<<<&&&&.    X%OO++++%%OOO%X                ",
"   .&&<<<<&&&&&. XX:O%%X  XOO%%%%X                ",
"   .&&<<<<&&&&&.X%X:%%%X   XXOOOOX                ",
"   .&&<<<<,,,,,.XO%%*::X     XXXX                 ",
"   .&&&,,,%%%$=.XO%%%>>X                          ",
"    .,,$%%,,$$=. XOO%%%X                          ",
"    .,$$$,>$.=.   XXOOO                           ",
"     .===.%>..                                    ",
"      ... .%.                                     ",
"           .$                                     ",
"                                                  ",
"                                                  "
};
