/* XPM */
static char *__resized[] = {
/* columns rows colors chars-per-pixel */
"50 50 25 1 ",
"  c None",
". c black",
"X c #051718",
"o c #2D2118",
"O c #2B3734",
"+ c #4E3B25",
"@ c #664328",
"# c #744E26",
"$ c #3B4A40",
"% c #435E42",
"& c #705C4B",
"* c #876033",
"= c #BC6439",
"- c #CA7830",
"; c #9A7A4D",
": c #9A7B4E",
"> c #5F8263",
", c #EF882D",
"< c #948872",
"1 c #948973",
"2 c #F0B659",
"3 c #CF9F6F",
"4 c #B2AA99",
"5 c #E2C18E",
"6 c #F7E0C9",
/* pixels */
"                                                  ",
"                                                  ",
"                        # #-                      ",
"                       #2-#2-#                    ",
"                    -#---2-2-2-                   ",
"                   #2-2-#----2-#                  ",
"                   #--2#-2-----#                  ",
"                   #-#--2-#--#-#                  ",
"                   ###-#-#---###+&                ",
"                   ######-#-####+1&               ",
"                 +++##########++14&+              ",
"               &+1&1++&####+++41&14+O             ",
"              +41&&4&14++++41&4&4&4+,             ",
"              OOO114&&114111&1141&&+X             ",
"             X,%$O+&14&&11&&14&1&1&+X             ",
"            X%=>%%++&4141&411&&&&&++X             ",
"            X>>>,%+++&11&11&1&&&&+++              ",
"            *>>>%O+&&++&&&&&&&&&++&+              ",
"            X;;**O+&&&&+++++++++&&&+              ",
"            XOOOO**+&&&&&&&&&&&&&&&+              ",
"            X@>OOOO+&1&&&&&&&11&&1&+              ",
"             o@*@@@+&1&&1111141&&1&+              ",
"              XXXXX+&4&&1111441&&1&+              ",
"             &&3533+&41&1111441&&1&+              ",
"             X11&&&+&41&&111441&&4&+              ",
"             X1111&+&14&&111XXX&&4&+              ",
"             X6,oOO++14&&1XX11X&&4&+              ",
"             X,=o$$++141XX&&11X&14&+              ",
"              Xo$%%X+1XX&&&&XX1&14&+              ",
"              X%%ooXXX&11&XX141&14&+              ",
"     .....    oooo=X&11&XX11144&41&+              ",
"  O..&&&&&.   X%%$X&&&XX1&11144&41&+              ",
"  O.&&&++++.  X>>%X&XX141&11144&41&+              ",
"  .<&&+OOOO+XX&X===X+&141&11144&41&+              ",
" .<<<+O$$$XX+&&&XXXX+&111&11144+41&+              ",
" .<<&O$%$$X+++&XX  X+&&11&+1114+1&&+              ",
" .<&O$=%$$X++XX    X+&&11&+1114++++               ",
" .<&O$%%%$$XX.     X+&&&&&+1111+OX                ",
"  .&&O$%%%$OO&&.   X%++&&&+++++O%X                ",
"   ...$%=$O&&&&&.XX:OO%++++OO%%%%X                ",
"     .$$$O&&&&&&&.X:%%%X   XXOOOOX                ",
"      .$O<<&&,,,,&.%*::X     XXXX                 ",
"      ..<<<<,%%%$,.%%>>X                          ",
"      .&<<<,%%$$$=.O%%%X                          ",
"      .&&<,%$,=O$=.XOOO                           ",
"      .&&,%$,>O.=.                                ",
"       .&,%$=%>O.                                 ",
"        .,$$O.%>.                                 ",
"         .,===..O                                 ",
"          ...                                     "
};
