/* XPM */
static char *IceBox_resized[] = {
/* columns rows colors chars-per-pixel */
"50 50 51 1 ",
"  c None",
". c #3C9DFB",
"X c #3FA0FA",
"o c #44A4F9",
"O c #4AA4FB",
"+ c #5DADFC",
"@ c #4FB1F6",
"# c #55B6F6",
"$ c #57B8F5",
"% c #5CBDF4",
"& c #58B2F9",
"* c #61BFF5",
"= c #78BBFD",
"- c #64C1F5",
"; c #6CC4F5",
": c #6AC5F8",
"> c #72C6F6",
", c #76C9F7",
"< c #7CCAF6",
"1 c #70C7F9",
"2 c #7FC4FB",
"3 c #75CBFB",
"4 c #7ACDFA",
"5 c #7ED0FB",
"6 c #84CDF7",
"7 c #88CFF7",
"8 c #8BD0F7",
"9 c #82D2FF",
"0 c #8AD6FE",
"q c #8ED8FE",
"w c #95D5F9",
"e c #99D7FA",
"r c #94DBFF",
"t c #9ADEFF",
"y c #A9D6FC",
"u c #A3DDFD",
"i c #ABDEFB",
"p c #9FE1FF",
"a c #A1E2FF",
"s c #ACE2FE",
"d c #B3E3FD",
"f c #BBE5FD",
"g c #BDE8FF",
"h c #C1E6FB",
"j c #C4E9FE",
"k c #CBECFE",
"l c #D5EDFD",
"z c #E2F5FF",
"x c #EBF7FE",
"c c #ECF8FE",
"v c #F9FCFF",
/* pixels */
"     -%%%%%%%%%%%%%%%%%%%%%%%%%%%%%%%%%%%%%%;     ",
"    r-%%%%%%%%%%%%%%%%%%%%%%%%%%%%%%%%%%%%%%3p    ",
"   tp,%%%%%%%%%%%%%%%%*%%%%%%%%%%%%%%%%%%%%%5pp   ",
"  tpse$%%%%%%%%%%%%%%%%%%%%%%%%%%%%%%%%%%%%%5ppp  ",
" pppgf*%%%%%%$%%%%$%%%%%%%%%%%%%%%%%%%%*%%**5pppp ",
",qskzchghffdddiiiiyueeeeee809<<33::333::::::595541",
"%%-<hzjggdddsssuuutrtassaaaaapppq50ppr995599:%%%%%",
"%%%%wj99599499954999qpppppppppar55ppp0995595:%%%%%",
"%%%%wj99999999999999ppppppppppp05rppr5999955:%%%%%",
"%%%%7g9999959959999qppppppppppq95ppp055999993%%%%%",
"%%%%6g9999999999999pppppppappp09pppr5999955p4%%%%%",
"%%%%6d999999999599pppppppppppq5qppp99999990p3%%%%%",
"%%%%,d99999959999qppppppppppr90ppp99999990pp4%%%%%",
"%%%%,s99599999990ppppppppppp99qppp5999999qpp3%%%%%",
"%%%%>s5999999999qpppppppppp059ppp99599559ppp4%%%%%",
"%%%%>u5999999990ppppppppppp09pppq9999955pppp3%%%%%",
"%%%%:p5q5555055rppppppppppq5qppp9999999qpppp3%%%*%",
"%%%%:p55050055qppppppppppq55ppp99999999ppppp1%%%%%",
"%%%%-q5555555qppppppppppp99pppq9999999qppppp:%%%%%",
"%%%%-95q50055rppppppppppq5qppp0559995qppppp9:%%%%%",
"%%%%*55555050ppppppapppp99ppp05599995pppppp5:%%%%%",
"%%%%*5550550ppppppppppp09qppp5599599qppppp09:%%%%%",
"%%%%*355555rppppppppppp90ppp09999950ppppp055:%%%%%",
"%%%%*55q55qppppppppppp55pppq9999999qppppp559:%%%%%",
"%%%%%35950pppppppppppq50ppp55999590ppppp0999:%%%%%",
"%%%%*4995qppppppppppp95pppq9999990pppppr9995:%%%%%",
"%%%%*3955ppppppppppp05qppq9995999qppppp99999:%%%%%",
"%%%%*450qppppppppppq50ppp55999999ppppp059995:%%%%%",
"%%%%%35qppppppppppp55pppr9999999rppppr995999:%%%%%",
"%%%%*35pppppppppppq50ppr9599995qppppp0999995:%%%*%",
"%%%%*3qppppppppppp00pppq9999950pppppq9999999:%%%%%",
"%%%%*3ppppppppppp05qppp9599995qppppp99999995:%%%%%",
"%%%%%0ppppppppppr90ppr05999950ppppp0999999991%%%%%",
"%%%%*qppppppappp99pppq9999955pppppp5999959995%%%%%",
"%%%%*qppppppppp09qppr9999999qppppp55959999900%%%%%",
"%%%%-qapppppppr59ppp09999950pppppq999999999qe%%%%%",
"%%%%*qpppppppp05rppr9999995qppppp5599999999qu%%%%%",
"%%%%*qpppppppq5qppp99999950pppppq5999999999rd%%%%%",
"%%%%*qppppppp55ppp09999999pppppq99999999999tf-%%%%",
"%%%%*qpppppp05rpar9999999qppppp059999995999eh-%%%%",
"%%%%*qpppppr50ppp99999999pppppq999999999999uk;%%%%",
"%%%%*qppppp05rppr9999999rppppp9999999999999ul;%%%%",
"%%%%*qpppp050ppp99999999ppppp99999999999999sz;%%%%",
"%%%%*qpppp50ppp09999959pppppr59699999909999dx,$%%%",
"%%%$$30055355055345590waasssaasdddgfghjjkkkzvhw>$$",
"XXXXX#*%**%*****%**-----;;;>>>>>,>,<<<<6666ul=+Oo ",
" X..X$%%*%%%%%%%%%%%%%%%%%%%%%%%$%%%%%%%%$%=yX..  ",
"  X.X$%%%%%%%%%%*%%%%%%%%%%%%%%%%%%%%%%%%%%*6..   ",
"   XX$%%%%%%%%%%%%%%%%%%%%%%%%%%%%%%%%%%%%%*#.    ",
"    o%%%%%%%%%%%%%%%%%%%%%%%%%%%%%%%%%%%%%%%@     "
};
