/* XPM */
static char *SnowMan_resized[] = {
/* columns rows colors chars-per-pixel */
"50 54 138 2 ",
"   c None",
".  c #020203",
"X  c #0B0D0D",
"o  c #0F1112",
"O  c #131313",
"+  c #171718",
"@  c #1C1E1F",
"#  c #1C1F21",
"$  c #202325",
"%  c #232729",
"&  c #292929",
"*  c #353535",
"=  c #34393C",
"-  c #3B3B3B",
";  c #343E45",
":  c #444C51",
">  c #4E4F50",
",  c #4E565B",
"<  c #565758",
"1  c #585959",
"2  c #4B5A66",
"3  c #5D6F7D",
"4  c #666666",
"5  c #6C6B6B",
"6  c #616F78",
"7  c #677279",
"8  c #747373",
"9  c #9E4C30",
"0  c #94513B",
"q  c #C54C24",
"w  c #CB4F25",
"e  c #D14E22",
"r  c #CF5127",
"t  c #C4542E",
"y  c #CB5129",
"u  c #D85326",
"i  c #D3552A",
"p  c #DA5528",
"a  c #C55D3A",
"s  c #E25B2D",
"d  c #E65E31",
"f  c #EC6538",
"g  c #C26346",
"h  c #DC6842",
"j  c #DC714E",
"k  c #D07759",
"l  c #F07146",
"z  c #EB7E5A",
"x  c #CA8570",
"c  c #D08871",
"v  c #E38261",
"b  c #697E8E",
"n  c #717D84",
"m  c #848484",
"M  c #898D8F",
"N  c #8E8F90",
"B  c #929292",
"V  c #9C9C9C",
"C  c #8B9BA4",
"Z  c #8097A9",
"A  c #8199AB",
"S  c #8FA5B4",
"D  c #98A9B3",
"F  c #AEAEAE",
"G  c #ADB3B7",
"H  c #B4B4B4",
"J  c #B8B6B5",
"K  c #B3BBBF",
"L  c #BEBEBE",
"P  c #DEAC9C",
"I  c #E5A795",
"U  c #C2A7A3",
"Y  c #D1B6B1",
"T  c #F5C3B2",
"R  c #8FABC0",
"E  c #90AAC0",
"W  c #98B5CD",
"Q  c #A4B6C0",
"!  c #A9BBC6",
"~  c #ABBBCE",
"^  c #FFBCDE",
"/  c #AFC2CD",
"(  c #B5C7D2",
")  c #B3C8D4",
"_  c #BACEDA",
"`  c #A9C9E3",
"'  c #AED1EC",
"]  c #B2D3ED",
"[  c #BAD7ED",
"{  c #BDD9EF",
"}  c #B7D7F0",
"|  c #BBDAF2",
" . c #C4C4C4",
".. c #C7C9CA",
"X. c #CBCBCB",
"o. c #C9D7DD",
"O. c #D3D4D4",
"+. c #D7D5DC",
"@. c #D9D8DC",
"#. c #E8CFC8",
"$. c #FFDBCF",
"%. c #C3D8E4",
"&. c #C9DAE4",
"*. c #C1D9EA",
"=. c #D1DCE2",
"-. c #C3DEF2",
";. c #FFCFE7",
":. c #FDDAEC",
">. c #C9E0ED",
",. c #D8E1E9",
"<. c #C4E1F6",
"1. c #CBE3F5",
"2. c #CAE5F8",
"3. c #CEE8FA",
"4. c #D2E5F4",
"5. c #D6E8F5",
"6. c #DAEAF6",
"7. c #D4EDFC",
"8. c #DAECF8",
"9. c #D7F0FE",
"0. c #D9F1FF",
"q. c #E3E7ED",
"w. c #EDEDED",
"e. c #FBE9E3",
"r. c #F0EDEE",
"t. c #EBE1F4",
"y. c #E1EEF8",
"u. c #FBEFFA",
"i. c #E4F4FE",
"p. c #EAF6FD",
"a. c #EDF9FF",
"s. c #F2F3F3",
"d. c #FDF4F1",
"f. c #FFF9F7",
"g. c #F1F7FC",
"h. c #FDF4FA",
"j. c #F4FBFE",
"k. c #FFFFFF",
/* pixels */
"                                            k.k.k.k.k.k.k.                                          ",
"                                        k.k.k.k.k.k.k.k.k.k.k.                                      ",
"                                      k.k.k.k.k.k.k.k.k.k.k.k.k.                                    ",
"                                  k.k.k.k.k.k.k.k.k.k.k.k.k.k.k.k.                                  ",
"                                  k.k.k.k.k.k.k.k.k.k.k.k.k.k.k.k.k.                                ",
"                                k.k.k.k.k.k.k.k.k.k.k.k.k.k.k. .B w.k.                              ",
"                              k.k.k.k.k.k.k.k.H V s.k.k.k.k.r.O.* B k.                              ",
"                              k.k.k.k.k.k.k.w. .& F k.k.k.k.X.H - 4 k.8.                            ",
"                              k.k.k.k.k.k.k.L H & m k.k.k.k...@ 1 J d.+.                            ",
"                              k.k.k.k.k.k.k.F O 5  .j.i.e.$.T 0 9 v z h i r y                       ",
"                            k.k.k.k.k.k.k.k.w.8 m s.p.I l f d s p e y g g                           ",
"                              k.k.k.k.k.k.;.^ :.f.a.q.j u i w q a x U ~                             ",
"                              k.k.k.k.k.k.h.t.h.j.0.9.c q t k P @.0.6 3                             ",
"                              j.k.k.p.j.s.M o.s.i.0.0.,.Y #.f.j.%.C Z R                             ",
"                              5.k.j.i.j.w.5 J > n 8.! ) 0.8.K &.n . b |                             ",
"                              [ 6.j.0.0.a.a.@.= 7 D o % _ n . : S 2 R                               ",
"                                [ <.7.0.0.0.0.>.7.D X $ _ 8 . ; ` ] ]                               ",
"                                  ] | 3.9.0.0.0.0.5.W / 9.[ A W ' ]                                 ",
"                                  6.] ] | <.3.7.7.7.3.2.| ] } ' [ 6.                                ",
"                                k.k.y.[ ' ' ] ] ] ] } ' ' ' ] | p.j.{                               ",
"                                k.k.k.j.4.[ ' ' ' ' ' ' ' { 6.j.j.p.|                               ",
"                                k.j.j.k.k.g.y.4.-.-.1.5.i.j.k.j.p.9.} ]                             ",
"                              y.k.j.j.k.k.k.k.k.k.k.j.k.k.k.k.g.g.9.[ ]                             ",
"                              { i.a.j.k.k.k.k.k.k.k.k.f.L O.g.0.0.7.' ]                             ",
"                              ] <.9.0.p.k.k.k.k.k.k.k.O.+ < 0.0.0.2.' ]                             ",
"                              [ ] 7.0.0.g.k.k.k.k.k.k.s.N G p.0.9.| ' ]                             ",
"                                ' | 9.0.j.k.k.k.k.k.j.a.=.( 7.0.2.' ' ]                             ",
"                              j.8.} <.0.j.p.j.k.k.k.g.0., # _ 7.[ ' '                               ",
"                            k.k.k.p.1.1.p.j.k.k.k.k.j.i.C 7 *.} ' ' [                               ",
"                            k.k.k.k.k.j.p.g.k.k.k.k.j.0.0.2.] ' [ 4.g.k.                            ",
"                          k.k.k.k.k.k.k.k.k.k.k.k.k.g.4.-.[ -.5.p.k.k.k.k.                          ",
"                        k.k.k.k.k.k.k.k.k.k.k.k.k.k.j.y.p.j.j.k.k.k.k.k.k.k.                        ",
"                      k.k.k.k.k.k.k.k.k.k.k.k.k.k.k.k.k.k.k.k.k.k.k.k.k.k.k.j.                      ",
"                      k.j.k.k.k.k.k.k.k.k.k.k.k.k.k.k.k.k.k.k.k.k.k.k.k.k.k.k.y.                    ",
"                    i.k.g.k.k.k.k.k.k.k.k.k.k.k.k.k.k.k.k.k.k.k.k.k.k.k.k.k.k.j.-.                  ",
"                  | 7.j.j.j.k.k.k.k.k.k.k.k.k.k.k.k.k.k.k.k.k.k.k.k.k.k.k.k.k.k.4.                  ",
"                  | 0.j.p.p.k.k.k.k.k.k.k.k.k.k.k.k.k.k.k.k.k.k.k.k.k.k.k.k.k.k.i.[                 ",
"                ] <.i.j.j.j.k.k.k.k.k.k.k.k.k.k.k.k.k.k.k.k.k.k.k.k.k.k.k.k.k.k.g.{                 ",
"                ] 2.0.j.k.k.k.k.k.g.j.k.k.k.k.k.k.k.k.k.k.k.k.k.k.k.k.k.k.k.k.k.k.-.]               ",
"                ] 2.9.p.k.k.j.k.k.p.g.k.k.k.k.k.k.k.k.k.k.k.k.k.k.k.k.k.k.k.k.k.k.4.]               ",
"              [ ' 2.0.0.k.p.0.k.k.k.k.k.k.k.k.k.k.k.k.k.k.k.k.k.k.k.k.k.k.k.j.p.g.6.'               ",
"              ] ' 2.0.i.j.j.a.k.j.i.i.j.k.k.k.k.k.k.k.k.k.k.k.k.k.k.k.k.k.k.i.0.0.2.'               ",
"              ] ' <.9.0.p.a.j.j.p.0.0.p.k.k.j.j.k.k.k.k.k.k.k.k.k.k.k.k.k.k.a.0.0.<.' ]             ",
"              ] ' } 9.9.0.0.0.0.0.0.0.0.p.j.j.i.j.k.k.k.k.k.k.k.k.k.k.k.k.k.j.i.0.-.' ]             ",
"              ] ' ' 2.0.0.0.9.0.0.0.0.0.9.i.j.j.k.k.k.k.k.k.k.k.k.k.k.k.k.k.k.p.7.[ ' ]             ",
"              ] ' ' | 9.0.0.0.0.0.0.0.9.0.0.p.a.a.j.k.k.k.k.k.k.k.k.k.k.k.k.k.j.7.] ' ]             ",
"              <.} ] ' | 9.0.9.0.0.9.0.0.0.0.0.0.0.p.k.k.k.k.k.k.j.j.k.k.k.a.j.j.-.' ]               ",
"          0.0.9.9.3.2.<.3.0.0.0.0.0.0.9.0.0.0.0.9.0.j.k.k.k.k.j.0.a.k.k.j.p.a.6.' ' '               ",
"        0.0.0.0.0.0.0.0.0.0.0.0.0.0.0.0.0.0.0.0.0.p.k.k.k.k.k.j.p.j.k.k.k.p.7.] } } |               ",
"        0.0.0.0.0.0.0.9.0.0.9.0.0.9.0.9.0.9.0.a.j.k.k.k.k.k.j.k.k.k.j.j.p.9.7.3.3.9.0.0.            ",
"    0.0.0.0.0.0.0.0.0.0.9.0.9.0.0.9.0.0.0.0.0.p.k.k.k.k.j.p.0.p.g.i.0.0.0.0.0.0.0.0.0.9.0.          ",
"  0.0.0.0.0.9.0.9.0.0.9.0.0.0.0.0.0.0.0.0.0.0.0.a.k.k.j.p.9.0.0.0.0.0.0.0.9.0.0.0.0.0.0.0.0.0.0.    ",
"0.0.0.0.9.0.0.0.0.0.0.0.0.0.0.0.0.0.0.0.0.0.0.0.i.a.a.a.0.0.0.0.0.0.0.0.9.0.0.0.0.0.0.0.0.0.0.0.0.  ",
"0.0.0.0.0.0.0.0.0.0.0.0.0.0.0.0.0.0.0.0.0.0.0.0.0.0.0.0.0.0.0.0.0.0.0.0.0.0.0.0.0.0.0.0.0.0.0.0.0.0."
};
