/* XPM */
static char *output_onlinegiftools_6__dragged__resized[] = {
/* columns rows colors chars-per-pixel */
"50 50 68 1 ",
"  c None",
". c #D94F15",
"X c #DB5316",
"o c #DE5A17",
"O c #E05A17",
"+ c #E15E18",
"@ c #DD6318",
"# c #DE6B19",
"$ c #E56419",
"% c #E8671A",
"& c #E56A1A",
"* c #EA6C1B",
"= c #E5751C",
"- c #ED731D",
"; c #E17A1C",
": c #ED7C1E",
"> c #F0761E",
", c #F27B1F",
"< c #F57F20",
"1 c #E4831E",
"2 c #EC831F",
"3 c #E48C1F",
"4 c #EC881F",
"5 c #F1811F",
"6 c #E3901F",
"7 c #EF8620",
"8 c #EE8A20",
"9 c #F58220",
"0 c #F98621",
"q c #F48C21",
"w c #FB8B22",
"e c #E79520",
"r c #EC9321",
"t c #E59B21",
"y c #EC9B22",
"u c #F49322",
"i c #FA9423",
"p c #F69C24",
"a c #FA9B24",
"s c #E6A523",
"d c #ECA624",
"f c #E7AD24",
"g c #EDAB24",
"h c #F4A324",
"j c #F9A325",
"k c #F5AB26",
"l c #F9AC26",
"z c #EBB225",
"x c #EBBE27",
"c c #F5B327",
"v c #F8B327",
"b c #F3BB27",
"n c #F8B628",
"m c #F6BE28",
"M c #F8BB28",
"N c #EDC428",
"B c #EDCB29",
"V c #F6C329",
"C c #F8C329",
"Z c #F6CB2A",
"A c #F6D42B",
"S c #F5DC2C",
"D c #EEE42D",
"F c #F5E42E",
"G c #F4EB2E",
"H c #F4F12F",
"J c #F4F530",
"K c #F3FD31",
/* pixels */
"                        XXXo; X                   ",
"                    XXX@X32=u,                    ",
"                  $y@.ou:jjZji$                   ",
"                 .$0**9aZGGJGS5X*X                ",
"                >%$*0jZH  K  Hq$*.XO X            ",
"               -09$*pGKK  JJ Kmwr1>9%XX           ",
"          JN >ukp:*0mJZGZAmCA  CCjw0,8*>          ",
"         fHG1*iFA:,ASliaiwwwjJ  AiliVSdj,         ",
"        Xttt3*0AC0jAa0wwwwwwiA  AwiwASZmww0       ",
"        X@e**:lSiwma0000wwiwwZ  Si,%iiaAlw9       ",
"         #dwpZGk<lGv>%O*,qmw CS Gj>X2awMJkO       ",
"           -ajli9jni>O.XO+=>wwvKV0+XhAMM p+       ",
"    X   X;-*ua Fviialq%X..X%0wvHa*.X*nZF S2       ",
"     oXX=klvA KBlaajGCnq-:+9iv M9O.X-CiZKG5       ",
"     ->>pm  GKzo>0wwllAGvVe9mFmwa-+X>ajiFm,y      ",
"    X$imFKKMal9$**<wwwpFHSljnV,dGp950iCwmnlF8     ",
"    XrF KSVw>$*+XX+*0wiFKZw9-w0pZjjCMMMw   Kc89   ",
"    $A  Aa>$O+->*$++0waFKGa--wlnAGZAKJ       n0   ",
"x   3K Sa0q=<-oO%XO,wwwAK AMalJAnZvlAHKKK  Vuw    ",
"K  .3  Svaii>OXX;ruAmMCSK K HJSalapjjCSKKK  dqw9& ",
" &$oy KFMw*>++$%;uvKKVJJK  JGSawh9=-<ijJ K   Slwf ",
"$qkzS  n0>->$hqXoX2ASjZCJ  GMZi*++$**0wj KK   A0, ",
"-A     j>>>O2p*$5>*5qwinK  lpj*X*00w,<wlJKKK  Fa9 ",
"hJ    M0$$-=ZhX+->,,+,waG GlMq*>w0wiw90lGZJK  KM9 ",
"&A  FZi0%8:*a:XXX-ai$*<vH Kgq>9vCjill*>wClJK   Sa ",
"oz npaw*X8:X*<XXX>nl*X>AKgA2,9lJHSiia>*iFvCK   Hq ",
" iM-*9a=.->XX-+*-pApO$0AD3d&h9AKKmw0wu*<iwvKK  J2 ",
"s,h>*-lV&kc$O$$wklAqO-wAz-*@c9vKJl<+:u+$9wnKK KG9 ",
"=-$->,jAdlVu$+$$-,=X.$iC9e$@VhvKAi<O-<2>0wZK  KM9 ",
"l  pljM  jMFh=-X$$XX$9Mk$*oOplnKSw0<-e1*0iJK  Kv> ",
"   vFJJK  JKFZu$OoX>ann,X:r>lVlA mpvj&O>waH   Ai> ",
"    GKSMAKKKKKSh9*9aSVw$.2c*0w0idNSJl>>,0CJ  KA0  ",
"   GKKn0iCmAKKKJSMCnCww%X+9-,w**w2yl9$%9aS   JC0  ",
"   t Hl-*0wlGAGAAAlw0w0>$=niy*>5i0w0*$*aZ   JAMw  ",
"   #AZju*,90iiiiiiw>*:$*XqHZVuaAn0>9%-0Z  GFFlF   ",
"   oZlnaw->>9>50w09O$-=q90ZJGACGi0*%>wlH CjiZl    ",
"   tHMww0+oX*uVSiw<$hlFJZ0nK KK SnhqpZGGb>,lvM    ",
"   sDSq,-$Xo*AAlmi>@4qVNVwul KJ  KAk1uhu&o,Va     ",
"    tDApwwp9iSAaSpO1$oplh0229nmJSNu%XX+%o,nl      ",
"     ;1zucV0n lim9$+3dnplqBh**pAlw<>-$%-$:u       ",
"     X.@*@:,jGZw9er-pAJJFjZl>XjJSpjw>XoXX         ",
"     @s XX$mmAJlpSb,9ilAlww9$onKJCV0-XX           ",
"          $ddZKGpi:q*%*0<,-*oyHKAak$$             ",
"          .@yjZJmidcn=+%+O$9hHKJAlw-X             ",
"          X%plMK AVNSw>>27MAHKKFSAiqo             ",
"           oqSG  KGG SvpSFJK  Gpai,e              ",
"           XXdGKK  DyMa K    KGj9u=               ",
"             *pnJK         HHKAl&6                ",
"               &VAAA  SJ FFlkBt                   ",
"                9wwh:jmZp82$$                     "
};
