/* XPM */
static char *output_onlinegiftools_9__dragged__resized[] = {
/* columns rows colors chars-per-pixel */
"50 50 160 2 ",
"   c None",
".  c #DA4F15",
"X  c #E85D0F",
"o  c #FD5400",
"O  c #FD5500",
"+  c #FD5700",
"@  c #FD5800",
"#  c #FD5A00",
"$  c #FD5B01",
"%  c #FD5C01",
"&  c #FE5C00",
"*  c #DD6919",
"=  c #DF731A",
"-  c #DF7A1C",
";  c #ED620D",
":  c #FC6102",
">  c #FD6102",
",  c #FC6203",
"<  c #FD6203",
"1  c #FC6303",
"2  c #FC6403",
"3  c #FD6403",
"4  c #FC6704",
"5  c #FC6804",
"6  c #FC6905",
"7  c #FC6A05",
"8  c #FB6C06",
"9  c #FC6C05",
"0  c #FC6E06",
"q  c #FC6F06",
"w  c #FC7007",
"e  c #FC7107",
"r  c #F4700C",
"t  c #FB7308",
"y  c #FB7408",
"u  c #FB7508",
"i  c #FC7408",
"p  c #FB7909",
"a  c #FB790A",
"s  c #FB7A0A",
"d  c #FB7B0A",
"f  c #FC7A09",
"g  c #FB7C0A",
"h  c #FA7D0B",
"j  c #FB7E0B",
"k  c #E67316",
"l  c #EB7613",
"z  c #E37618",
"x  c #E0791B",
"c  c #FB800C",
"v  c #FB810C",
"b  c #FA8B0F",
"n  c #FA8C0F",
"m  c #FA8D0F",
"M  c #F38412",
"N  c #FA8F10",
"B  c #ED9F1C",
"V  c #FA9010",
"C  c #F99311",
"Z  c #FA9311",
"A  c #F89112",
"S  c #FA9411",
"D  c #F99712",
"F  c #F79A14",
"G  c #F79B15",
"H  c #F99913",
"J  c #F99A13",
"K  c #F99D14",
"L  c #F99E14",
"P  c #F99F15",
"I  c #ECA31E",
"U  c #F8A015",
"Y  c #F9A115",
"T  c #F9A216",
"R  c #F9A316",
"E  c #F8A617",
"W  c #F8A817",
"Q  c #F8A917",
"!  c #F6A418",
"~  c #F0A61C",
"^  c #F0A81D",
"/  c #F2AE1D",
"(  c #F8A918",
")  c #F8AC19",
"_  c #F7B31B",
"`  c #F3B71E",
"'  c #F5B61D",
"]  c #F8B01A",
"[  c #F8B11A",
"{  c #F8B21A",
"}  c #F8B31A",
"|  c #F8B31B",
" . c #F7B81C",
".. c #F7B91C",
"X. c #F7BB1D",
"o. c #F5B91E",
"O. c #F7BC1D",
"+. c #F7BD1E",
"@. c #F7BF1E",
"#. c #E7A021",
"$. c #E6A122",
"%. c #E7A923",
"&. c #E7B025",
"*. c #E8B726",
"=. c #EAB825",
"-. c #EBBC25",
";. c #F7C01E",
":. c #F6C11F",
">. c #EAC027",
",. c #EAC127",
"<. c #EAC628",
"1. c #EBC928",
"2. c #F3C021",
"3. c #F0C023",
"4. c #F6C420",
"5. c #F7C420",
"6. c #F6C520",
"7. c #F7C520",
"8. c #F6C821",
"9. c #F6C921",
"0. c #F6CA21",
"q. c #F6CB22",
"w. c #F6CE22",
"e. c #F6CF23",
"r. c #F6D123",
"t. c #F6D124",
"y. c #F6D224",
"u. c #F1D527",
"i. c #F5D926",
"p. c #F5DB26",
"a. c #F5DC27",
"s. c #F5DD27",
"d. c #F5DE27",
"f. c #EFE12C",
"g. c #EFE42D",
"h. c #F5E028",
"j. c #F5E429",
"k. c #F5E529",
"l. c #F4E72A",
"z. c #F4E82A",
"x. c #F4E92B",
"c. c #F4EA2B",
"v. c #F0EA2E",
"b. c #F2EC2D",
"n. c #F2ED2D",
"m. c #F1EF2F",
"M. c #F2F12E",
"N. c #F4F02D",
"B. c #F4F12D",
"V. c #F4F22D",
"C. c #F4F32D",
"Z. c #F4F42E",
"A. c #F4F52E",
"S. c #F4F62E",
"D. c #F4F72F",
"F. c #F3FA2F",
"G. c #F3FA30",
"H. c #F3FF31",
"J. c #F2FF32",
"K. c #F3FF32",
/* pixels */
"                                                                                                    ",
"                                                                                                    ",
"                                                                                                    ",
"                                                                                                    ",
"                                                                                                    ",
"                                                                                                    ",
"                                                                                                    ",
"                                                                                                    ",
"                                                                                                    ",
"                                                                                                    ",
"                                                                                                    ",
"                                                                                                    ",
"                                                                                                    ",
"                                                                                                    ",
"                                                        h y +                                       ",
"                                                      ; B e.Y q                                     ",
"                                      4 S ^ ~ s g & r #.1._ k.O.5                                   ",
"                                      ! b.&.  2.I ' q.  >.j ..r.u                                   ",
"                                t :.8 l <.                    S.D @                                 ",
"                              9 q.-.X k       $.                  p R 2                             ",
"                                y.m.      .                       V.S.[                             ",
"                                A M.  x                         H.  S.c.0                           ",
"                              3 M     f.                        K.  W B.n @                         ",
"                            O E D.  %.                          H.  d P ) $                         ",
"                            V e.J.                                    0 1                           ",
"                          f 3.  =       H.        H.          g.      b o                           ",
"                            F v.        H.    H.H.              *   o.< @                           ",
"                          d w.A.      V.      H.                  - ` i                             ",
"                          ( S.Q   9.0.0.              H.            n.X.6                           ",
"                          a z.J   a.                        C.C.  z u.Z                             ",
"                            e.5.                                i.G y <                             ",
"                            c t.7.                  s           p.L >                               ",
"                              w ( ]     T           s.        n l. .                                ",
"                              O m e.q.p.@.7.    {         G.j.L +.} ,                               ",
"                                : T e.a.W y % 1  .S.J V S.Z.{ y.N.H                                 ",
"                                    v c       7 h.F.L / ,.4.+.6.;.e                                 ",
"                                              # C 8.j.=.*.x.K   5 @                                 ",
"                                                  2 N U d.| ,                                       ",
"                                                        t                                           ",
"                                                                                                    ",
"                                                                                                    ",
"                                                                                                    ",
"                                                                                                    ",
"                                                                                                    ",
"                                                                                                    ",
"                                                                                                    ",
"                                                                                                    ",
"                                                                                                    ",
"                                                                                                    ",
"                                                                                                    "
};
