/* XPM */
static char *__removebg_preview__1__resized[] = {
/* columns rows colors chars-per-pixel */
"50 50 146 2 ",
"   c None",
".  c #020102",
"X  c #0A0706",
"o  c #0A0807",
"O  c #070809",
"+  c #0C0B0B",
"@  c #100E0C",
"#  c #13110E",
"$  c #0F0F11",
"%  c #131313",
"&  c #191615",
"*  c #1B1A16",
"=  c #161618",
"-  c #1A1B1B",
";  c #261915",
":  c #23211D",
">  c #232324",
",  c #262628",
"<  c #2B2B2C",
"1  c #2D2D27",
"2  c #302A22",
"3  c #392A21",
"4  c #333026",
"5  c #323228",
"6  c #39352B",
"7  c #3A382D",
"8  c #2E2F31",
"9  c #343434",
"0  c #363638",
"q  c #37383B",
"w  c #3D3D3D",
"e  c #3D3C30",
"r  c #413B2F",
"t  c #403E30",
"y  c #792A20",
"u  c #723126",
"i  c #3F403F",
"p  c #434134",
"a  c #4B4A3C",
"s  c #3E3E40",
"d  c #403F40",
"f  c #3F4041",
"g  c #414142",
"h  c #464648",
"j  c #474849",
"k  c #4A4B4C",
"l  c #555341",
"z  c #5C5A47",
"x  c #4D4E50",
"c  c #4F5051",
"v  c #535455",
"b  c #565759",
"n  c #57585A",
"m  c #58595B",
"M  c #695E4C",
"N  c #6C6952",
"B  c #6B6251",
"V  c #726552",
"C  c #736B55",
"Z  c #796C56",
"A  c #756D58",
"S  c #786C58",
"D  c #757259",
"F  c #7E705A",
"G  c #7B785F",
"H  c #5F5F61",
"J  c #5F6063",
"K  c #626264",
"L  c #666769",
"P  c #6A6B6D",
"I  c #717274",
"U  c #7B7C7D",
"Y  c #842D24",
"T  c #8E2F25",
"R  c #9D3427",
"E  c #9D3529",
"W  c #9C392C",
"Q  c #A4392E",
"!  c #A1372C",
"~  c #A63C31",
"^  c #A83F34",
"/  c #A94135",
"(  c #AB4138",
")  c #B0493D",
"_  c #B24D42",
"`  c #B65348",
"'  c #B95449",
"]  c #B95447",
"[  c #BD5950",
"{  c #81745C",
"}  c #A16851",
"|  c #827E63",
" . c #8C7D65",
".. c #C15F55",
"X. c #C4645A",
"o. c #CC6F65",
"O. c #D0736A",
"+. c #D77C73",
"@. c #8E8A6B",
"#. c #938369",
"$. c #928E6F",
"%. c #928F70",
"&. c #9B8D71",
"*. c #9B9877",
"=. c #949073",
"-. c #A08E72",
";. c #AC9A7B",
":. c #A19175",
">. c #B09E7E",
",. c #DC837A",
"<. c #7D7E80",
"1. c #838486",
"2. c #858688",
"3. c #878888",
"4. c #949494",
"5. c #999A9B",
"6. c #AE9D81",
"7. c #B7B289",
"8. c #BBB68D",
"9. c #BDB88E",
"0. c #A2A3A2",
"q. c #BBBBBB",
"w. c #E48E85",
"e. c #C4AE8A",
"r. c #C6B18D",
"t. c #C2BD92",
"y. c #D3BD96",
"u. c #CFC99B",
"i. c #D9C198",
"p. c #E3CB9F",
"a. c #DAD4A3",
"s. c #E5CCA1",
"d. c #E8CEA3",
"f. c #E3DDA9",
"g. c #E6E0AA",
"h. c #E9E2AE",
"j. c #EFE8B1",
"k. c #F3EBB3",
"l. c #BFC0C1",
"z. c #C2C3C3",
"x. c #CECECE",
"c. c #DCDDDC",
"v. c #EEEEEE",
"b. c #E3E4E4",
"n. c #FFFFFF",
"m. c #F5F5F5",
/* pixels */
"                                                                                                    ",
"                                                                                                    ",
"                                                                                                    ",
"                                                                                                    ",
"                                                                                                    ",
"                                                                                                    ",
"                                                                                                    ",
"                                                                                                    ",
"                                                                                                    ",
"                                                                                E     E R           ",
"                                                                      3         R E W R             ",
"                                                                r D $.&.} Y y T ! ( / ~ E W W W     ",
"                                                            2 C =.C z a M u R / _ O.O.` / E E       ",
"                                                    X . . . 6 G 6 #       ; Y ) +.w.w.,._ R         ",
"                                            # # + X . . . . . O           R E ` ,.w.w.,...! E       ",
"                                      & : , 0 8 - - - % % % . .         W E E / o.w.w.O.( W E E     ",
"                                  * > < 9 4.l.0.x s g w p s 9 = o             ! ] ..X.' ~ W         ",
"                              % > 8 K 3.n 5.l.0.v f s s f f g q $ @         W R W ~ ~ ! E E         ",
"                            % - q 0.m.c.L n n v b v j g s g d g > - O       W !   E !   W W         ",
"                          @ $ h x.n.v.U x n m H m m m v h d d g 9 < - @           W W               ",
"                          X h c.n.v.U j b n v j x n n m v h w g q 0 < & +                           ",
"                        . 0 c.n.b.1.v n b g 9 s g h v m n c g d d d 0 , >                           ",
"                      X @ q.n.z.I n n v w f g 0 g b m m m n c h s s s 9 9 @                         ",
"                      X 9 4.I v n n n h x j h v m m m m m n n v x d d t w $                         ",
"                      % - + f n b m b b b v m m m m n m m n m m b g d d w + X                       ",
"                    X = O 0 m m m m m m m m m m m m m m m m m m v g d g w % .                       ",
"                    X . > b n m m m m m m m m m m m m m m m m v g g d p q + .                       ",
"                    . O j n v v m m m m m m m m m m m b m m x d d g s w < O . @                     ",
"                    . < b j < 0 m m m m m m m m m m g q b b g d g q w 0 + . . @                     ",
"                    @ 0 = O . = v m m m m m m b j < O + q b g d s 0 < 9 X . . +                     ",
"                    O & l D 1 . f m m m b m j - X $ & X & j j g g 8 > , . . . +                     ",
"                    . a j.k.t.: - b m m m x % . l 8.u.$.: - k g p , - = . . .                       ",
"                    . 6 f.k.k.| O h n m m , . z f.k.k.a.a $ 0 k p = & o . . .                       ",
"                      # 9.k.k.a.1 , n m f X p a.k.j.j.g.r % k j q O O . . . .                       ",
"                      . @.k.k.k.G X > 8 % : t.k.j.j.k.f.7 < x g , . . . . . o                       ",
"                      X e 8.7.A < < - + O p 8.f.j.k.k.*.# w g w + . . . . .                         ",
"                        X # # + > x b c j , * 7 N %.D * > i q - . . . . . X                         ",
"                        O . . , , - 9 h c c g , % % & 8 w 8 % . . . . . .                           ",
"                          o . . + = % $ : 9 s g f q 0 < % . . . . . . .                             ",
"                            O . . . X . . X + - = % o . . . . . . . . o                             ",
"                            X O . . . . . . . . . . . . . . O % = - = $ + X                         ",
"                        X X ; 0 : X . . . . . . . . . . . + 8 s d d d w 9 - +                       ",
"                      X . , f f w 9 - o . . . . . . . . O 0 w t t d d d t 0 = X                     ",
"                      > < > , , > , < 0 , - X . @ % o < > > , > , , 0 d d 8 > +                     ",
"                    + v <.I I I I P 9 < i f , X B 6., I U I I I I K > q t s - X                     ",
"                    6 - b U 2.2.2.<.w - , < > X #.e.* 8 P 1.1.1.2.I , > , 9 % - >.                  ",
"              s.s.p.;.4 > g b J K x $ O o + : A i.i.{ ; < k m J K q O O + % 6 :.s.s.s.              ",
"              d.p.p.p.y.;.#.{ A Z C V Z  .-.r.s.d.p.p.r.&. .F A S V V { #.;.y.p.p.p.d.              ",
"                  s.s.d.s.d.s.d.d.d.s.d.d.s.s.p.i.d.s.s.s.d.s.s.d.d.s.s.d.d.d.s.s.                  ",
"                              s.s.s.s.s.s.s.s.p.p.s.s.s.s.s.s.s.s.s.s.                              "
};
